<?xml version="1.0" encoding="UTF-8" standalone="no"?>
<!-- Created with Inkscape (http://www.inkscape.org/) -->

<svg
   width="114.42326"
   height="129.71971"
   viewBox="0 0 30.274488 34.321672"
   version="1.1"
   id="svg921"
   inkscape:version="1.2.2 (b0a8486, 2022-12-01)"
   sodipodi:docname="long-two-pointers-object.svg"
   xmlns:inkscape="http://www.inkscape.org/namespaces/inkscape"
   xmlns:sodipodi="http://sodipodi.sourceforge.net/DTD/sodipodi-0.dtd"
   xmlns:xlink="http://www.w3.org/1999/xlink"
   xmlns="http://www.w3.org/2000/svg"
   xmlns:svg="http://www.w3.org/2000/svg">
  <sodipodi:namedview
     id="namedview923"
     pagecolor="#ffffff"
     bordercolor="#666666"
     borderopacity="1.0"
     inkscape:showpageshadow="2"
     inkscape:pageopacity="0.0"
     inkscape:pagecheckerboard="0"
     inkscape:deskcolor="#d1d1d1"
     inkscape:document-units="px"
     showgrid="false"
     inkscape:zoom="2.3786088"
     inkscape:cx="86.184832"
     inkscape:cy="114.14235"
     inkscape:window-width="1864"
     inkscape:window-height="1016"
     inkscape:window-x="1976"
     inkscape:window-y="27"
     inkscape:window-maximized="1"
     inkscape:current-layer="layer10" />
  <defs
     id="defs918">
    <linearGradient
       inkscape:collect="always"
       id="linearGradient6783">
      <stop
         style="stop-color:var(--svg-highlight);stop-opacity:1;"
         offset="0.50232393"
         id="stop6779" />
      <stop
         style="stop-color:var(--svg-highlight);stop-opacity:0;"
         offset="1"
         id="stop6781" />
    </linearGradient>
    <radialGradient
       inkscape:collect="always"
       xlink:href="#linearGradient6783"
       id="radialGradient129105"
       gradientUnits="userSpaceOnUse"
       gradientTransform="translate(-87.241715,188.81012)"
       cx="154.47429"
       cy="19.068024"
       fx="154.47429"
       fy="19.068024"
       r="11.135081" />
    <radialGradient
       inkscape:collect="always"
       xlink:href="#linearGradient16838"
       id="radialGradient139457"
       gradientUnits="userSpaceOnUse"
       gradientTransform="matrix(0.59784107,0,0,0.59656682,62.264862,35.280564)"
       cx="154.47429"
       cy="19.068024"
       fx="154.47429"
       fy="19.068024"
       r="11.135081" />
    <linearGradient
       inkscape:collect="always"
       id="linearGradient16838">
      <stop
         style="stop-color:var(--svg-highlight);stop-opacity:1;"
         offset="0.50232393"
         id="stop16834" />
      <stop
         style="stop-color:var(--svg-highlight);stop-opacity:1;"
         offset="1"
         id="stop16836" />
    </linearGradient>
    <radialGradient
       inkscape:collect="always"
       xlink:href="#linearGradient16838"
       id="radialGradient139453"
       gradientUnits="userSpaceOnUse"
       gradientTransform="matrix(0.59784107,0,0,0.59656682,62.264862,35.280564)"
       cx="154.47429"
       cy="19.068024"
       fx="154.47429"
       fy="19.068024"
       r="11.135081" />
    <radialGradient
       inkscape:collect="always"
       xlink:href="#linearGradient16838"
       id="radialGradient139455"
       gradientUnits="userSpaceOnUse"
       gradientTransform="matrix(0.59784107,0,0,0.59656682,62.264862,35.280564)"
       cx="154.47429"
       cy="19.068024"
       fx="154.47429"
       fy="19.068024"
       r="11.135081" />
  </defs>
  <g
     inkscape:groupmode="layer"
     id="layer10"
     inkscape:label="two-pointers-object"
     transform="translate(-54.245356,-194.89098)">
    <g
       id="use6852"
       transform="matrix(0.48581559,0,0,0.48348265,36.177252,104.46221)"
       style="font-variation-settings:normal;fill:#f2f2f2;fill-opacity:1;stroke:#000000;stroke-width:1.63779;stroke-linecap:butt;stroke-linejoin:miter;stroke-miterlimit:4;stroke-dasharray:none;stroke-dashoffset:0;stroke-opacity:1;stop-color:#000000"
       inkscape:label="Card">
      <rect
         style="font-variation-settings:normal;opacity:1;fill:#f2f2f2;fill-opacity:1;fill-rule:evenodd;stroke:#000000;stroke-width:1.63779;stroke-linecap:butt;stroke-linejoin:miter;stroke-miterlimit:4;stroke-dasharray:none;stroke-dashoffset:0;stroke-opacity:1;stop-color:#000000;stop-opacity:1"
         id="rect128953"
         width="39.285824"
         height="54.881699"
         x="38.010296"
         y="187.85513"
         ry="4.6194773" />
      <rect
         style="font-variation-settings:normal;opacity:1;fill:#f2f2f2;fill-opacity:1;fill-rule:evenodd;stroke:#000000;stroke-width:1.63779;stroke-linecap:butt;stroke-linejoin:miter;stroke-miterlimit:4;stroke-dasharray:none;stroke-dashoffset:0;stroke-opacity:1;stop-color:#000000;stop-opacity:1"
         id="rect128955"
         width="32.749069"
         height="47.921417"
         x="41.278675"
         y="191.33527"
         ry="0" />
    </g>
    <circle
       style="fill:none;fill-rule:evenodd;stroke:url(#radialGradient129105);stroke-width:5.29167;stroke-dasharray:none;stroke-opacity:1"
       id="use6856"
       cx="67.232521"
       cy="207.87814"
       r="10.341331"
       inkscape:label="Click" />
    <g
       id="use6858"
       transform="matrix(0.40211433,0,0,0.39979039,62.599661,192.46117)"
       style="display:inline;fill:#808080;stroke:none;stroke-width:2.49407"
       inkscape:label="Hand 2">
      <path
         style="font-variation-settings:normal;display:inline;opacity:1;vector-effect:none;fill:#f2f2f2;fill-opacity:1;stroke:none;stroke-width:1.97967;stroke-linecap:butt;stroke-linejoin:miter;stroke-miterlimit:4;stroke-dasharray:none;stroke-dashoffset:0;stroke-opacity:1;-inkscape-stroke:none;stop-color:#000000;stop-opacity:1"
         d="m 53.449374,84.598459 c 0,0 0.882311,-13.38431 -2.314242,-25.16732 -0.915138,-2.262813 -15.057417,-10.01787 -15.057417,-10.01787 -3.068085,-8.544758 -5.279881,-17.44115 -6.44118,-26.376662 0,0 -0.217426,-3.729627 -3.688307,-3.309004 -3.470886,0.420622 -2.891255,4.27112 -2.891255,4.27112 0.326236,7.981858 1.321913,15.891256 2.266507,23.814595 -4.914682,-6.552213 -6.824449,-13.687458 -8.931795,-21.422956 0,0 -0.879392,-4.211775 -4.504619,-3.341211 -3.625228,0.870561 -2.3014901,4.954521 -2.3014901,4.954521 0.7885621,10.807479 4.9943981,20.488249 8.7036981,30.520789 l -2.809827,-7.494785 c 0,0 -5.003776,4.815013 -5.6782061,8.841844 0,0 0.1897968,13.01457 1.7513231,17.27976 6.173458,9.979403 13.565213,13.562113 13.565213,13.562113 8.051002,1.84845 21.666146,2.736866 28.331597,-6.114934 z"
         id="path128899"
         sodipodi:nodetypes="cccczccczccccccc"
         inkscape:label="path857-5-93-9-2-5-2" />
      <path
         style="display:inline;fill:none;fill-opacity:1;stroke:#000000;stroke-width:1.97967;stroke-linecap:butt;stroke-linejoin:miter;stroke-miterlimit:4;stroke-dasharray:none;stroke-opacity:1"
         d="m 53.405957,84.333091 c 0,0 0.882308,-13.384317 -2.314232,-25.167327 -0.915131,-2.262812 -15.057419,-10.01787 -15.057419,-10.01787 -3.068085,-8.544756 -5.27988,-17.441149 -6.44118,-26.376662 0,0 -0.217419,-3.729627 -3.688306,-3.309004 -3.470887,0.420623 -2.891255,4.271121 -2.891255,4.271121 0.326235,7.981857 1.321912,15.891255 2.266506,23.814596 -4.914681,-6.552215 -6.824449,-13.687459 -8.931794,-21.422958 0,0 -0.879392,-4.211774 -4.50462,-3.341211 -3.6252293,0.870563 -2.3014892,4.954521 -2.3014892,4.954521 0.7885612,10.80748 4.9943972,20.488249 8.7036982,30.52079 l -2.809828,-7.494785 c 0,0 -5.003777,4.815012 -5.6782072,8.841842 0,0 0.1898038,13.01457 1.7513232,17.27976 6.173458,9.979408 13.565216,13.562117 13.565216,13.562117"
         id="path128901"
         sodipodi:nodetypes="cccczccczcccccc"
         transform="translate(0.00132093,0.10464296)" />
    </g>
    <g
       aria-label="1s"
       id="use74001"
       style="font-size:10.5833px;line-height:1.25;font-family:'carter one';-inkscape-font-specification:'carter one';fill:url(#radialGradient139457);stroke-width:0.264583"
       inkscape:label="One Second"
       transform="translate(-79.84519,148.54409)">
      <path
         d="m 157.40185,47.375155 c 0,0 0.0567,-0.169759 0.27531,-0.1801 0.56258,-0.133735 1.12417,-0.27212 1.68737,-0.402914 0.26298,-0.04258 0.17824,0.284819 0.18032,0.448072 -0.10989,2.301793 -0.21335,4.604003 -0.32729,6.905534 0.016,0.245128 -0.20681,0.352871 -0.41127,0.391231 -0.50293,0.143818 -1.00222,0.302695 -1.50749,0.436874 -0.39638,0.04888 -0.25797,-0.441473 -0.25985,-0.6789 0.0534,-1.329517 0.13938,-2.327625 0.19055,-3.657114 0.006,-0.44979 -1.0043,-0.06944 -1.26086,-0.09543 -0.25656,-0.02598 -0.38002,-0.418575 -0.1799,-0.639498 0,0 1.21333,-2.052945 1.61311,-2.527759 z"
         id="path139447"
         sodipodi:nodetypes="ccccscccczcc"
         style="fill:url(#radialGradient139453)" />
      <path
         d="m 160.37751,53.473958 c 0.0796,-0.223449 0.31658,0.152337 0.46119,0.189273 0.37036,0.224561 0.88737,0.309145 1.26278,0.05455 0.26172,-0.24889 -0.041,-0.582178 -0.28707,-0.698598 -0.42731,-0.330236 -0.95735,-0.577689 -1.2299,-1.067115 -0.20993,-0.383991 -0.22262,-0.842542 -0.18288,-1.268491 0.13641,-0.689292 0.74954,-1.185086 1.38692,-1.405756 0.68704,-0.251967 1.53553,-0.191437 2.09806,0.310057 0.0351,0.443614 0.0438,0.889196 0.0653,1.333248 -0.16231,0.229584 -0.36192,-0.202857 -0.53424,-0.271301 -0.33282,-0.2622 -0.82507,-0.401524 -1.21118,-0.173433 -0.20878,0.143467 -0.18425,0.455735 -0.0772,0.654592 0.15583,0.18508 0.38313,0.288828 0.57472,0.43275 0.45951,0.320765 0.99245,0.601802 1.2408,1.132476 0.25368,0.59376 0.0888,1.325191 -0.37869,1.76753 -0.53125,0.51992 -1.30783,0.7206 -2.03514,0.702635 -0.3755,-0.01787 -0.75454,-0.09907 -1.08592,-0.281679 -0.0225,-0.470245 -0.045,-0.94049 -0.0675,-1.410735 z"
         id="path139449"
         style="fill:url(#radialGradient139455)" />
    </g>
  </g>
</svg>
