<?xml version="1.0" encoding="UTF-8" standalone="no"?>
<!-- Created with Inkscape (http://www.inkscape.org/) -->

<svg
   width="161.9355"
   height="137.37131"
   viewBox="0 0 42.845434 36.346157"
   version="1.1"
   id="svg921"
   inkscape:version="1.2.2 (b0a8486, 2022-12-01)"
   sodipodi:docname="help-game.svg"
   xmlns:inkscape="http://www.inkscape.org/namespaces/inkscape"
   xmlns:sodipodi="http://sodipodi.sourceforge.net/DTD/sodipodi-0.dtd"
   xmlns:xlink="http://www.w3.org/1999/xlink"
   xmlns="http://www.w3.org/2000/svg"
   xmlns:svg="http://www.w3.org/2000/svg">
  <sodipodi:namedview
     id="namedview923"
     pagecolor="#ffffff"
     bordercolor="#666666"
     borderopacity="1.0"
     inkscape:showpageshadow="2"
     inkscape:pageopacity="0.0"
     inkscape:pagecheckerboard="0"
     inkscape:deskcolor="#d1d1d1"
     inkscape:document-units="px"
     showgrid="false"
     inkscape:zoom="0.84096521"
     inkscape:cx="561.25984"
     inkscape:cy="404.29734"
     inkscape:window-width="1920"
     inkscape:window-height="1043"
     inkscape:window-x="0"
     inkscape:window-y="0"
     inkscape:window-maximized="1"
     inkscape:current-layer="layer1" />
  <defs
     id="defs918">
    <linearGradient
       inkscape:collect="always"
       id="linearGradient16838">
      <stop
         style="stop-color:var(--svg-highlight);stop-opacity:1;"
         offset="0.50232393"
         id="stop16834" />
      <stop
         style="stop-color:var(--svg-highlight);stop-opacity:1;"
         offset="1"
         id="stop16836" />
    </linearGradient>
    <radialGradient
       inkscape:collect="always"
       xlink:href="#linearGradient16838"
       id="radialGradient143320"
       gradientUnits="userSpaceOnUse"
       gradientTransform="matrix(0.59784107,0,0,0.59656682,62.264862,35.280564)"
       cx="154.47429"
       cy="19.068024"
       fx="154.47429"
       fy="19.068024"
       r="11.135081" />
    <radialGradient
       inkscape:collect="always"
       xlink:href="#linearGradient16838"
       id="radialGradient143322"
       gradientUnits="userSpaceOnUse"
       gradientTransform="matrix(0.59784107,0,0,0.59656682,62.264862,35.280564)"
       cx="154.47429"
       cy="19.068024"
       fx="154.47429"
       fy="19.068024"
       r="11.135081" />
    <radialGradient
       inkscape:collect="always"
       xlink:href="#linearGradient16838"
       id="radialGradient143386"
       gradientUnits="userSpaceOnUse"
       gradientTransform="matrix(0,0.59784107,-0.59656682,0,71.256094,140.29354)"
       cx="154.47429"
       cy="19.068024"
       fx="154.47429"
       fy="19.068024"
       r="11.135081" />
    <radialGradient
       inkscape:collect="always"
       xlink:href="#linearGradient16838"
       id="radialGradient143388"
       gradientUnits="userSpaceOnUse"
       gradientTransform="matrix(0,0.59784107,-0.59656682,0,71.256094,140.29354)"
       cx="154.47429"
       cy="19.068024"
       fx="154.47429"
       fy="19.068024"
       r="11.135081" />
    <radialGradient
       inkscape:collect="always"
       xlink:href="#linearGradient16838"
       id="radialGradient143440"
       gradientUnits="userSpaceOnUse"
       gradientTransform="matrix(0,-0.59784107,0.59656682,0,-43.99195,43.027946)"
       cx="154.47429"
       cy="19.068024"
       fx="154.47429"
       fy="19.068024"
       r="11.135081" />
    <radialGradient
       inkscape:collect="always"
       xlink:href="#linearGradient16838"
       id="radialGradient143442"
       gradientUnits="userSpaceOnUse"
       gradientTransform="matrix(0,-0.59784107,0.59656682,0,-43.99195,43.027946)"
       cx="154.47429"
       cy="19.068024"
       fx="154.47429"
       fy="19.068024"
       r="11.135081" />
  </defs>
  <g
     inkscape:groupmode="layer"
     id="layer7"
     inkscape:label="middle-drag"
     transform="translate(-95.034755,-70.16765)">
    <g
       id="use2888"
       inkscape:label="Move"
       transform="translate(102.8254,-1.314218)">
      <path
         id="path143312"
         style="display:inline;fill:url(#radialGradient143320);fill-opacity:0.5;fill-rule:evenodd;stroke:url(#radialGradient143322);stroke-width:0.79375;stroke-miterlimit:4;stroke-dasharray:none;stroke-opacity:0.701961"
         inkscape:transform-center-x="0.010607454"
         inkscape:transform-center-y="-3.5892491"
         d="M 22.212374,80.471568 5.0517658,80.449517 13.651713,72.037998 Z"
         sodipodi:nodetypes="cccc"
         inkscape:label="Arrow" />
      <path
         id="use143314"
         style="display:inline;fill:url(#radialGradient143386);fill-opacity:0.5;fill-rule:evenodd;stroke:url(#radialGradient143388);stroke-width:0.79375;stroke-miterlimit:4;stroke-dasharray:none;stroke-opacity:0.701961"
         inkscape:transform-center-x="0.010607454"
         inkscape:transform-center-y="-3.5892491"
         d="m 26.06509,100.24105 0.02205,-17.16061 8.411519,8.599947 z"
         sodipodi:nodetypes="cccc"
         inkscape:label="Arrow" />
      <path
         id="use143316"
         style="display:inline;fill:url(#radialGradient143440);fill-opacity:0.5;fill-rule:evenodd;stroke:url(#radialGradient143442);stroke-width:0.79375;stroke-miterlimit:4;stroke-dasharray:none;stroke-opacity:0.701961"
         inkscape:transform-center-x="0.010607454"
         inkscape:transform-center-y="-3.5892491"
         d="M 1.199054,83.080436 1.177004,100.24105 -7.234515,91.641099 Z"
         sodipodi:nodetypes="cccc"
         inkscape:label="Arrow" />
    </g>
    <g
       id="use2890"
       transform="matrix(0.48798832,0,0,0.48898495,102.98661,23.595956)"
       style="display:inline;stroke-width:2.04714"
       inkscape:label="Mouse Middle">
      <path
         style="font-variation-settings:normal;opacity:1;vector-effect:none;fill:#f2f2f2;fill-opacity:1;stroke:none;stroke-width:1.62492;stroke-linecap:butt;stroke-linejoin:miter;stroke-miterlimit:4;stroke-dasharray:none;stroke-dashoffset:0;stroke-opacity:1;-inkscape-stroke:none;stop-color:#000000;stop-opacity:1"
         d="m 45.478899,164.52331 c 0,0 2.86176,-6.02825 2.86177,-13.43363 0,-11.55035 -3.75348,-27.38536 -3.75348,-27.38536 -6.27313,-5.6157 -14.81748,-6.5693 -14.81748,-6.5693 l -5.71209,-0.0108 c 0,0 -8.12396,1.14941 -14.2754005,6.17767 0,0 -3.48645,15.85499 -3.42734,28.14872 0.0378,7.86877 3.14024,12.90915 3.14024,12.90915 18.4235205,11.62996 35.9837805,0.16355 35.9837805,0.16355 z"
         id="path143630"
         sodipodi:nodetypes="csccccscc" />
      <path
         style="fill:none;stroke:#000000;stroke-width:1.62492;stroke-linecap:butt;stroke-linejoin:miter;stroke-miterlimit:4;stroke-dasharray:none;stroke-opacity:1"
         d="m 45.736389,164.59421 c 0,0 2.86176,-6.02825 2.86176,-13.43363 0,-11.55035 -3.75347,-27.38536 -3.75347,-27.38536 -6.27313,-5.6157 -14.81749,-6.5693 -14.81749,-6.5693 l -5.71208,-0.0108 c 0,0 -8.12396,1.14941 -14.27541,6.17767 0,0 -3.4864505,15.85499 -3.4273305,28.14872 0.0378,7.86877 3.14023,12.90915 3.14023,12.90915"
         id="path143632"
         sodipodi:nodetypes="csccccsc" />
      <path
         id="path143634"
         style="font-variation-settings:normal;display:inline;vector-effect:none;fill:none;fill-opacity:1;stroke:#000000;stroke-width:0.793751;stroke-linecap:butt;stroke-linejoin:miter;stroke-miterlimit:4;stroke-dasharray:none;stroke-dashoffset:0;stroke-opacity:1;-inkscape-stroke:none;stop-color:#000000"
         d="m 33.256833,46.362476 -1.57848,0.0913 c 0,0 -4.14104,0.77055 -6.99737,3.00713 l 0.48192,9.71787 c 4.81573,1.422257 8.11884,1.062587 8.11884,1.062587 l -0.005,-2.488497 c -1.09166,-0.0519 -1.38105,-1.28555 -1.38105,-1.28555 l -0.0682,-6.77155 c 0,0 0.30348,-1.07873 1.39927,-1.0446 0.0113,3.5e-4 0.0225,9.8e-4 0.0336,9.8e-4 z"
         inkscape:label="Left button"
         transform="matrix(2.0492294,0,0,2.0450528,-40.685313,22.470887)" />
      <path
         id="path143636"
         style="font-variation-settings:normal;display:inline;vector-effect:none;fill:none;fill-opacity:1;stroke:#000000;stroke-width:0.793751;stroke-linecap:butt;stroke-linejoin:miter;stroke-miterlimit:4;stroke-dasharray:none;stroke-dashoffset:0;stroke-opacity:1;-inkscape-stroke:none;stop-color:#000000"
         d="m 33.219315,46.374199 1.57848,0.0913 c 0,0 4.14104,0.77055 6.99737,3.00713 l -0.48192,9.71787 c -4.81573,1.422257 -8.11884,1.062587 -8.11884,1.062587 l 0.005,-2.488497 c 1.09166,-0.0519 1.38105,-1.28555 1.38105,-1.28555 l 0.0682,-6.77155 c 0,0 -0.30348,-1.07873 -1.39927,-1.0446 -0.0113,3.5e-4 -0.0225,9.8e-4 -0.0336,9.8e-4 z"
         inkscape:label="Right button"
         transform="matrix(2.0492294,0,0,2.0450528,-40.685313,22.470887)" />
      <path
         id="path143638"
         style="display:inline;fill:#808080;fill-rule:evenodd;stroke:#000000;stroke-width:0.793751;stroke-miterlimit:4;stroke-dasharray:none;stop-color:#000000"
         d="m 31.816169,49.639819 c 0,0 0.30345,-1.07887 1.39924,-1.04474 1.0958,0.0341 1.38981,1.04474 1.38981,1.04474 l 0.0683,6.7714 c 0,0 -0.27552,1.32245 -1.38571,1.28658 -1.1102,-0.0359 -1.40334,-1.28658 -1.40334,-1.28658 z"
         sodipodi:nodetypes="czcczcc"
         inkscape:label="Middle button"
         transform="matrix(2.0492294,0,0,2.0450528,-40.685313,22.470887)" />
    </g>
  </g>
</svg>
