<?xml version="1.0" encoding="UTF-8" standalone="no"?>
<!-- Created with Inkscape (http://www.inkscape.org/) -->

<svg
   width="97.492516"
   height="110.82592"
   viewBox="0 0 25.794894 29.32269"
   version="1.1"
   id="svg921"
   inkscape:version="1.2.2 (b0a8486, 2022-12-01)"
   sodipodi:docname="help-game.svg"
   xmlns:inkscape="http://www.inkscape.org/namespaces/inkscape"
   xmlns:sodipodi="http://sodipodi.sourceforge.net/DTD/sodipodi-0.dtd"
   xmlns:xlink="http://www.w3.org/1999/xlink"
   xmlns="http://www.w3.org/2000/svg"
   xmlns:svg="http://www.w3.org/2000/svg">
  <sodipodi:namedview
     id="namedview923"
     pagecolor="#ffffff"
     bordercolor="#666666"
     borderopacity="1.0"
     inkscape:showpageshadow="2"
     inkscape:pageopacity="0.0"
     inkscape:pagecheckerboard="0"
     inkscape:deskcolor="#d1d1d1"
     inkscape:document-units="px"
     showgrid="false"
     inkscape:zoom="0.84096521"
     inkscape:cx="561.25984"
     inkscape:cy="404.29734"
     inkscape:window-width="1920"
     inkscape:window-height="1043"
     inkscape:window-x="0"
     inkscape:window-y="0"
     inkscape:window-maximized="1"
     inkscape:current-layer="layer1" />
  <defs
     id="defs918">
    <linearGradient
       inkscape:collect="always"
       id="linearGradient16838">
      <stop
         style="stop-color:var(--svg-highlight);stop-opacity:1;"
         offset="0.50232393"
         id="stop16834" />
      <stop
         style="stop-color:var(--svg-highlight);stop-opacity:1;"
         offset="1"
         id="stop16836" />
    </linearGradient>
    <radialGradient
       inkscape:collect="always"
       xlink:href="#linearGradient16838"
       id="radialGradient133422"
       gradientUnits="userSpaceOnUse"
       gradientTransform="matrix(0.59775835,0.00997076,-0.00987868,0.5711827,25.145679,158.30145)"
       cx="154.47429"
       cy="19.068024"
       fx="154.47429"
       fy="19.068024"
       r="11.135081" />
    <radialGradient
       inkscape:collect="always"
       xlink:href="#linearGradient16838"
       id="radialGradient133424"
       gradientUnits="userSpaceOnUse"
       gradientTransform="matrix(0.59775835,0.00997076,-0.00987868,0.5711827,25.145679,158.30145)"
       cx="154.47429"
       cy="19.068024"
       fx="154.47429"
       fy="19.068024"
       r="11.135081" />
  </defs>
  <g
     inkscape:groupmode="layer"
     id="layer15"
     inkscape:label="mouse-wheel"
     transform="translate(-137.63188,-159.28912)">
    <g
       id="use59743"
       transform="matrix(0.48798832,0,0,0.48898495,139.31497,105.69396)"
       style="display:inline;stroke-width:2.04714"
       inkscape:label="Mouse Middle">
      <path
         style="font-variation-settings:normal;opacity:1;vector-effect:none;fill:#f2f2f2;fill-opacity:1;stroke:none;stroke-width:1.62492;stroke-linecap:butt;stroke-linejoin:miter;stroke-miterlimit:4;stroke-dasharray:none;stroke-dashoffset:0;stroke-opacity:1;-inkscape-stroke:none;stop-color:#000000;stop-opacity:1"
         d="m 45.478899,164.52331 c 0,0 2.86176,-6.02825 2.86177,-13.43363 0,-11.55035 -3.75348,-27.38536 -3.75348,-27.38536 -6.27313,-5.6157 -14.81748,-6.5693 -14.81748,-6.5693 l -5.71209,-0.0108 c 0,0 -8.12396,1.14941 -14.2754005,6.17767 0,0 -3.48645,15.85499 -3.42734,28.14872 0.0378,7.86877 3.14024,12.90915 3.14024,12.90915 18.4235205,11.62996 35.9837805,0.16355 35.9837805,0.16355 z"
         id="path133316"
         sodipodi:nodetypes="csccccscc" />
      <path
         style="fill:none;stroke:#000000;stroke-width:1.62492;stroke-linecap:butt;stroke-linejoin:miter;stroke-miterlimit:4;stroke-dasharray:none;stroke-opacity:1"
         d="m 45.736389,164.59421 c 0,0 2.86176,-6.02825 2.86176,-13.43363 0,-11.55035 -3.75347,-27.38536 -3.75347,-27.38536 -6.27313,-5.6157 -14.81749,-6.5693 -14.81749,-6.5693 l -5.71208,-0.0108 c 0,0 -8.12396,1.14941 -14.27541,6.17767 0,0 -3.4864505,15.85499 -3.4273305,28.14872 0.0378,7.86877 3.14023,12.90915 3.14023,12.90915"
         id="path133318"
         sodipodi:nodetypes="csccccsc" />
      <path
         id="path133320"
         style="font-variation-settings:normal;display:inline;vector-effect:none;fill:none;fill-opacity:1;stroke:#000000;stroke-width:0.793751;stroke-linecap:butt;stroke-linejoin:miter;stroke-miterlimit:4;stroke-dasharray:none;stroke-dashoffset:0;stroke-opacity:1;-inkscape-stroke:none;stop-color:#000000"
         d="m 33.256833,46.362476 -1.57848,0.0913 c 0,0 -4.14104,0.77055 -6.99737,3.00713 l 0.48192,9.71787 c 4.81573,1.422257 8.11884,1.062587 8.11884,1.062587 l -0.005,-2.488497 c -1.09166,-0.0519 -1.38105,-1.28555 -1.38105,-1.28555 l -0.0682,-6.77155 c 0,0 0.30348,-1.07873 1.39927,-1.0446 0.0113,3.5e-4 0.0225,9.8e-4 0.0336,9.8e-4 z"
         inkscape:label="Left button"
         transform="matrix(2.0492294,0,0,2.0450528,-40.685313,22.470887)" />
      <path
         id="path133322"
         style="font-variation-settings:normal;display:inline;vector-effect:none;fill:none;fill-opacity:1;stroke:#000000;stroke-width:0.793751;stroke-linecap:butt;stroke-linejoin:miter;stroke-miterlimit:4;stroke-dasharray:none;stroke-dashoffset:0;stroke-opacity:1;-inkscape-stroke:none;stop-color:#000000"
         d="m 33.219315,46.374199 1.57848,0.0913 c 0,0 4.14104,0.77055 6.99737,3.00713 l -0.48192,9.71787 c -4.81573,1.422257 -8.11884,1.062587 -8.11884,1.062587 l 0.005,-2.488497 c 1.09166,-0.0519 1.38105,-1.28555 1.38105,-1.28555 l 0.0682,-6.77155 c 0,0 -0.30348,-1.07873 -1.39927,-1.0446 -0.0113,3.5e-4 -0.0225,9.8e-4 -0.0336,9.8e-4 z"
         inkscape:label="Right button"
         transform="matrix(2.0492294,0,0,2.0450528,-40.685313,22.470887)" />
      <path
         id="path133324"
         style="display:inline;fill:#808080;fill-rule:evenodd;stroke:#000000;stroke-width:0.793751;stroke-miterlimit:4;stroke-dasharray:none;stop-color:#000000"
         d="m 31.816169,49.639819 c 0,0 0.30345,-1.07887 1.39924,-1.04474 1.0958,0.0341 1.38981,1.04474 1.38981,1.04474 l 0.0683,6.7714 c 0,0 -0.27552,1.32245 -1.38571,1.28658 -1.1102,-0.0359 -1.40334,-1.28658 -1.40334,-1.28658 z"
         sodipodi:nodetypes="czcczcc"
         inkscape:label="Middle button"
         transform="matrix(2.0492294,0,0,2.0450528,-40.685313,22.470887)" />
    </g>
    <path
       id="use59777"
       inkscape:transform-center-x="-2.5136761"
       inkscape:transform-center-y="-0.0075119034"
       d="m 150.36442,165.65027 -5.47687,-5.67578 -5.90045,5.486 2.80794,0.0468 -0.1765,10.2048 -2.80793,-0.0468 5.70427,5.85686 5.67305,-5.66708 -2.89112,-0.0482 0.17649,-10.2048 z"
       sodipodi:nodetypes="ccccccccccc"
       inkscape:label="Double Arrow"
       style="fill:url(#radialGradient133422);fill-opacity:0.5;fill-rule:evenodd;stroke:url(#radialGradient133424);stroke-width:0.978567;stroke-linecap:butt;stroke-linejoin:miter;stroke-miterlimit:4;stroke-dasharray:none;stroke-dashoffset:0;stroke-opacity:1" />
  </g>
</svg>
