<?xml version="1.0" encoding="UTF-8" standalone="no"?>
<!-- Created with Inkscape (http://www.inkscape.org/) -->

<svg
   width="113.46556"
   height="129.75369"
   viewBox="0 0 30.021096 34.330663"
   version="1.1"
   id="svg921"
   inkscape:version="1.2.2 (b0a8486, 2022-12-01)"
   sodipodi:docname="help-game.svg"
   xmlns:inkscape="http://www.inkscape.org/namespaces/inkscape"
   xmlns:sodipodi="http://sodipodi.sourceforge.net/DTD/sodipodi-0.dtd"
   xmlns:xlink="http://www.w3.org/1999/xlink"
   xmlns="http://www.w3.org/2000/svg"
   xmlns:svg="http://www.w3.org/2000/svg">
  <sodipodi:namedview
     id="namedview923"
     pagecolor="#ffffff"
     bordercolor="#666666"
     borderopacity="1.0"
     inkscape:showpageshadow="2"
     inkscape:pageopacity="0.0"
     inkscape:pagecheckerboard="0"
     inkscape:deskcolor="#d1d1d1"
     inkscape:document-units="px"
     showgrid="false"
     inkscape:zoom="0.84096521"
     inkscape:cx="561.25984"
     inkscape:cy="404.29734"
     inkscape:window-width="1920"
     inkscape:window-height="1043"
     inkscape:window-x="0"
     inkscape:window-y="0"
     inkscape:window-maximized="1"
     inkscape:current-layer="layer1" />
  <defs
     id="defs918">
    <linearGradient
       inkscape:collect="always"
       id="linearGradient6783">
      <stop
         style="stop-color:var(--svg-highlight);stop-opacity:1;"
         offset="0.50232393"
         id="stop6779" />
      <stop
         style="stop-color:var(--svg-highlight);stop-opacity:0;"
         offset="1"
         id="stop6781" />
    </linearGradient>
    <radialGradient
       inkscape:collect="always"
       xlink:href="#linearGradient6783"
       id="radialGradient129962"
       gradientUnits="userSpaceOnUse"
       gradientTransform="translate(-85.589217,148.47545)"
       cx="154.47429"
       cy="19.068024"
       fx="154.47429"
       fy="19.068024"
       r="11.135081" />
  </defs>
  <g
     inkscape:groupmode="layer"
     id="layer11"
     inkscape:label="right-object"
     transform="translate(-51.851143,-154.55631)">
    <g
       id="use6837"
       transform="matrix(0.48581559,0,0,0.48348265,43.922746,64.127539)"
       style="font-variation-settings:normal;fill:#f2f2f2;fill-opacity:1;stroke:#000000;stroke-width:1.63779;stroke-linecap:butt;stroke-linejoin:miter;stroke-miterlimit:4;stroke-dasharray:none;stroke-dashoffset:0;stroke-opacity:1;stop-color:#000000"
       inkscape:label="Card">
      <rect
         style="font-variation-settings:normal;opacity:1;fill:#f2f2f2;fill-opacity:1;fill-rule:evenodd;stroke:#000000;stroke-width:1.63779;stroke-linecap:butt;stroke-linejoin:miter;stroke-miterlimit:4;stroke-dasharray:none;stroke-dashoffset:0;stroke-opacity:1;stop-color:#000000;stop-opacity:1"
         id="rect129812"
         width="39.285824"
         height="54.881699"
         x="38.010296"
         y="187.85513"
         ry="4.6194773" />
      <rect
         style="font-variation-settings:normal;opacity:1;fill:#f2f2f2;fill-opacity:1;fill-rule:evenodd;stroke:#000000;stroke-width:1.63779;stroke-linecap:butt;stroke-linejoin:miter;stroke-miterlimit:4;stroke-dasharray:none;stroke-dashoffset:0;stroke-opacity:1;stop-color:#000000;stop-opacity:1"
         id="rect129814"
         width="32.749069"
         height="47.921417"
         x="41.278675"
         y="191.33527"
         ry="0" />
    </g>
    <circle
       style="fill:none;fill-rule:evenodd;stroke:url(#radialGradient129962);stroke-width:5.29167;stroke-dasharray:none;stroke-opacity:1"
       id="use6839"
       cx="68.885025"
       cy="167.54347"
       r="10.341331"
       inkscape:label="Click" />
    <g
       id="use6841"
       transform="matrix(0.48798832,0,0,0.48898495,49.021221,105.96912)"
       style="display:inline;stroke-width:2.04714"
       inkscape:label="Mouse Right">
      <path
         style="font-variation-settings:normal;opacity:1;vector-effect:none;fill:#f2f2f2;fill-opacity:1;stroke:none;stroke-width:1.62492;stroke-linecap:butt;stroke-linejoin:miter;stroke-miterlimit:4;stroke-dasharray:none;stroke-dashoffset:0;stroke-opacity:1;-inkscape-stroke:none;stop-color:#000000;stop-opacity:1"
         d="m 45.478899,164.52331 c 0,0 2.86176,-6.02825 2.86177,-13.43363 0,-11.55035 -3.75348,-27.38536 -3.75348,-27.38536 -6.27313,-5.6157 -14.81748,-6.5693 -14.81748,-6.5693 l -5.71209,-0.0108 c 0,0 -8.12396,1.14941 -14.2754005,6.17767 0,0 -3.48645,15.85499 -3.42734,28.14872 0.0378,7.86877 3.14024,12.90915 3.14024,12.90915 18.4235205,11.62996 35.9837805,0.16355 35.9837805,0.16355 z"
         id="path129932"
         sodipodi:nodetypes="csccccscc" />
      <path
         style="fill:none;stroke:#000000;stroke-width:1.62492;stroke-linecap:butt;stroke-linejoin:miter;stroke-miterlimit:4;stroke-dasharray:none;stroke-opacity:1"
         d="m 45.736389,164.59421 c 0,0 2.86176,-6.02825 2.86176,-13.43363 0,-11.55035 -3.75347,-27.38536 -3.75347,-27.38536 -6.27313,-5.6157 -14.81749,-6.5693 -14.81749,-6.5693 l -5.71208,-0.0108 c 0,0 -8.12396,1.14941 -14.27541,6.17767 0,0 -3.4864505,15.85499 -3.4273305,28.14872 0.0378,7.86877 3.14023,12.90915 3.14023,12.90915"
         id="path129934"
         sodipodi:nodetypes="csccccsc" />
      <path
         id="path129936"
         style="font-variation-settings:normal;display:inline;vector-effect:none;fill:none;fill-opacity:1;stroke:#000000;stroke-width:0.793751;stroke-linecap:butt;stroke-linejoin:miter;stroke-miterlimit:4;stroke-dasharray:none;stroke-dashoffset:0;stroke-opacity:1;-inkscape-stroke:none;stop-color:#000000"
         d="m 33.256833,46.362476 -1.57848,0.0913 c 0,0 -4.14104,0.77055 -6.99737,3.00713 l 0.48192,9.71787 c 4.81573,1.422257 8.11884,1.062587 8.11884,1.062587 l -0.005,-2.488497 c -1.09166,-0.0519 -1.38105,-1.28555 -1.38105,-1.28555 l -0.0682,-6.77155 c 0,0 0.30348,-1.07873 1.39927,-1.0446 0.0113,3.5e-4 0.0225,9.8e-4 0.0336,9.8e-4 z"
         inkscape:label="Left button"
         transform="matrix(2.0492294,0,0,2.0450528,-40.685313,22.470887)" />
      <path
         id="path129938"
         style="font-variation-settings:normal;display:inline;vector-effect:none;fill:#808080;fill-opacity:1;stroke:#000000;stroke-width:0.793751;stroke-linecap:butt;stroke-linejoin:miter;stroke-miterlimit:4;stroke-dasharray:none;stroke-dashoffset:0;stroke-opacity:1;-inkscape-stroke:none;stop-color:#000000"
         d="m 33.219315,46.374199 1.57848,0.0913 c 0,0 4.14104,0.77055 6.99737,3.00713 l -0.48192,9.71787 c -4.81573,1.422257 -8.11884,1.062587 -8.11884,1.062587 l 0.005,-2.488497 c 1.09166,-0.0519 1.38105,-1.28555 1.38105,-1.28555 l 0.0682,-6.77155 c 0,0 -0.30348,-1.07873 -1.39927,-1.0446 -0.0113,3.5e-4 -0.0225,9.8e-4 -0.0336,9.8e-4 z"
         inkscape:label="Right button"
         transform="matrix(2.0492294,0,0,2.0450528,-40.685313,22.470887)" />
      <path
         id="path129940"
         style="display:inline;fill:none;fill-rule:evenodd;stroke:#000000;stroke-width:0.793751;stroke-miterlimit:4;stroke-dasharray:none;stop-color:#000000"
         d="m 31.816169,49.639819 c 0,0 0.30345,-1.07887 1.39924,-1.04474 1.0958,0.0341 1.38981,1.04474 1.38981,1.04474 l 0.0683,6.7714 c 0,0 -0.27552,1.32245 -1.38571,1.28658 -1.1102,-0.0359 -1.40334,-1.28658 -1.40334,-1.28658 z"
         sodipodi:nodetypes="czcczcc"
         inkscape:label="Middle button"
         transform="matrix(2.0492294,0,0,2.0450528,-40.685313,22.470887)" />
    </g>
  </g>
</svg>
