<?xml version="1.0" encoding="UTF-8" standalone="no"?>
<!-- Created with Inkscape (http://www.inkscape.org/) -->

<svg
   width="161.9355"
   height="146.68819"
   viewBox="0 0 42.845434 38.811248"
   version="1.1"
   id="svg921"
   inkscape:version="1.2.2 (b0a8486, 2022-12-01)"
   sodipodi:docname="help-game.svg"
   xmlns:inkscape="http://www.inkscape.org/namespaces/inkscape"
   xmlns:sodipodi="http://sodipodi.sourceforge.net/DTD/sodipodi-0.dtd"
   xmlns:xlink="http://www.w3.org/1999/xlink"
   xmlns="http://www.w3.org/2000/svg"
   xmlns:svg="http://www.w3.org/2000/svg">
  <sodipodi:namedview
     id="namedview923"
     pagecolor="#ffffff"
     bordercolor="#666666"
     borderopacity="1.0"
     inkscape:showpageshadow="2"
     inkscape:pageopacity="0.0"
     inkscape:pagecheckerboard="0"
     inkscape:deskcolor="#d1d1d1"
     inkscape:document-units="px"
     showgrid="false"
     inkscape:zoom="0.84096521"
     inkscape:cx="561.25984"
     inkscape:cy="404.29734"
     inkscape:window-width="1920"
     inkscape:window-height="1043"
     inkscape:window-x="0"
     inkscape:window-y="0"
     inkscape:window-maximized="1"
     inkscape:current-layer="layer1" />
  <defs
     id="defs918">
    <linearGradient
       inkscape:collect="always"
       id="linearGradient16838">
      <stop
         style="stop-color:var(--svg-highlight);stop-opacity:1;"
         offset="0.50232393"
         id="stop16834" />
      <stop
         style="stop-color:var(--svg-highlight);stop-opacity:1;"
         offset="1"
         id="stop16836" />
    </linearGradient>
    <radialGradient
       inkscape:collect="always"
       xlink:href="#linearGradient16838"
       id="radialGradient144193"
       gradientUnits="userSpaceOnUse"
       gradientTransform="matrix(0.59784107,0,0,0.59656682,62.264862,35.280564)"
       cx="154.47429"
       cy="19.068024"
       fx="154.47429"
       fy="19.068024"
       r="11.135081" />
    <radialGradient
       inkscape:collect="always"
       xlink:href="#linearGradient16838"
       id="radialGradient144195"
       gradientUnits="userSpaceOnUse"
       gradientTransform="matrix(0.59784107,0,0,0.59656682,62.264862,35.280564)"
       cx="154.47429"
       cy="19.068024"
       fx="154.47429"
       fy="19.068024"
       r="11.135081" />
    <radialGradient
       inkscape:collect="always"
       xlink:href="#linearGradient16838"
       id="radialGradient144253"
       gradientUnits="userSpaceOnUse"
       gradientTransform="matrix(0,0.59784107,-0.59656682,0,71.256094,140.29354)"
       cx="154.47429"
       cy="19.068024"
       fx="154.47429"
       fy="19.068024"
       r="11.135081" />
    <radialGradient
       inkscape:collect="always"
       xlink:href="#linearGradient16838"
       id="radialGradient144255"
       gradientUnits="userSpaceOnUse"
       gradientTransform="matrix(0,0.59784107,-0.59656682,0,71.256094,140.29354)"
       cx="154.47429"
       cy="19.068024"
       fx="154.47429"
       fy="19.068024"
       r="11.135081" />
    <radialGradient
       inkscape:collect="always"
       xlink:href="#linearGradient16838"
       id="radialGradient144307"
       gradientUnits="userSpaceOnUse"
       gradientTransform="matrix(0,-0.59784107,0.59656682,0,-43.99195,43.027946)"
       cx="154.47429"
       cy="19.068024"
       fx="154.47429"
       fy="19.068024"
       r="11.135081" />
    <radialGradient
       inkscape:collect="always"
       xlink:href="#linearGradient16838"
       id="radialGradient144309"
       gradientUnits="userSpaceOnUse"
       gradientTransform="matrix(0,-0.59784107,0.59656682,0,-43.99195,43.027946)"
       cx="154.47429"
       cy="19.068024"
       fx="154.47429"
       fy="19.068024"
       r="11.135081" />
  </defs>
  <g
     inkscape:groupmode="layer"
     id="layer8"
     inkscape:label="three-pointers-drag"
     transform="translate(-95.034755,-108.8665)">
    <g
       id="use3040"
       transform="matrix(0.40211433,0,0,0.39979039,105.58097,107.70155)"
       style="display:inline;fill:#808080;stroke:none;stroke-width:2.49407"
       inkscape:label="Hand 3">
      <path
         style="font-variation-settings:normal;display:inline;opacity:1;vector-effect:none;fill:#f2f2f2;fill-opacity:1;stroke:none;stroke-width:1.97967;stroke-linecap:butt;stroke-linejoin:miter;stroke-miterlimit:4;stroke-dasharray:none;stroke-dashoffset:0;stroke-opacity:1;-inkscape-stroke:none;stop-color:#000000;stop-opacity:1"
         d="m 49.046936,91.928679 c 0,0 0.882308,-13.384317 -2.314232,-25.167327 -0.46221,-1.14289 -6.642421,-5.896999 -6.642421,-5.896999 -2.326895,-13.672711 -3.172078,-21.281065 -2.955508,-28.524443 0,0 0.130693,-3.401092 -2.619433,-3.649812 -2.750127,-0.24872 -3.06304,2.692067 -3.06304,2.692067 -0.567719,5.472877 -0.948974,19.628317 -0.507089,24.134768 -0.993244,-1.169705 -4.2182,-12.746293 -5.711108,-25.150113 0,0 -0.217419,-3.729627 -3.688306,-3.309004 -3.470887,0.420623 -2.891255,4.271121 -2.891255,4.271121 0.326235,7.981857 1.321912,15.891255 2.266506,23.814596 -4.914681,-6.552215 -6.824449,-13.687459 -8.931794,-21.422958 0,0 -0.879392,-4.211774 -4.5046196,-3.341211 -3.625229,0.870563 -2.301489,4.954521 -2.301489,4.954521 0.788561,10.80748 4.9943966,20.488249 8.7036976,30.52079 L 11.077017,58.35989 c 0,0 -5.0037766,4.815012 -5.6782066,8.841842 0,0 0.189803,13.01457 1.751323,17.27976 6.1734576,9.979408 13.5652156,13.562117 13.5652156,13.562117 8.175201,2.597581 21.638688,4.228891 28.331587,-6.11493 z"
         id="path144323"
         sodipodi:nodetypes="cccczccczccczccccccc" />
      <path
         style="display:inline;fill:none;fill-opacity:1;stroke:#000000;stroke-width:1.97967;stroke-linecap:butt;stroke-linejoin:miter;stroke-miterlimit:4;stroke-dasharray:none;stroke-opacity:1"
         d="m 49.04078,91.918478 c 0,0 0.882308,-13.384317 -2.314232,-25.167327 -0.46221,-1.14289 -6.642421,-5.896999 -6.642421,-5.896999 -2.326895,-13.672711 -3.172078,-21.281065 -2.955508,-28.524443 0,0 0.130693,-3.401092 -2.619433,-3.649812 -2.750127,-0.24872 -3.06304,2.692067 -3.06304,2.692067 -0.567719,5.472877 -0.948974,19.628317 -0.507089,24.134768 -0.993244,-1.169705 -4.2182,-12.746293 -5.711108,-25.150113 0,0 -0.217419,-3.729627 -3.688306,-3.309004 -3.470887,0.420623 -2.891255,4.271121 -2.891255,4.271121 0.326235,7.981857 1.321912,15.891255 2.266506,23.814596 -4.914681,-6.552215 -6.824449,-13.687459 -8.931794,-21.422958 0,0 -0.879392,-4.211774 -4.5046201,-3.341211 -3.6252293,0.870563 -2.3014892,4.954521 -2.3014892,4.954521 0.7885612,10.80748 4.9943973,20.488249 8.7036983,30.52079 l -2.809828,-7.494785 c 0,0 -5.0037771,4.815012 -5.6782073,8.841842 0,0 0.1898038,13.01457 1.7513232,17.27976 6.1734581,9.979408 13.5652161,13.562117 13.5652161,13.562117"
         id="path144325"
         sodipodi:nodetypes="cccczccczccczcccccc"
         transform="translate(-2.6940929e-6)" />
    </g>
    <g
       id="use3038"
       inkscape:label="Move"
       transform="translate(102.8254,37.384628)">
      <path
         id="path144185"
         style="display:inline;fill:url(#radialGradient144193);fill-opacity:0.5;fill-rule:evenodd;stroke:url(#radialGradient144195);stroke-width:0.79375;stroke-miterlimit:4;stroke-dasharray:none;stroke-opacity:0.701961"
         inkscape:transform-center-x="0.010607454"
         inkscape:transform-center-y="-3.5892491"
         d="M 22.212374,80.471568 5.0517658,80.449517 13.651713,72.037998 Z"
         sodipodi:nodetypes="cccc"
         inkscape:label="Arrow" />
      <path
         id="use144187"
         style="display:inline;fill:url(#radialGradient144253);fill-opacity:0.5;fill-rule:evenodd;stroke:url(#radialGradient144255);stroke-width:0.79375;stroke-miterlimit:4;stroke-dasharray:none;stroke-opacity:0.701961"
         inkscape:transform-center-x="0.010607454"
         inkscape:transform-center-y="-3.5892491"
         d="m 26.06509,100.24105 0.02205,-17.16061 8.411519,8.599947 z"
         sodipodi:nodetypes="cccc"
         inkscape:label="Arrow" />
      <path
         id="use144189"
         style="display:inline;fill:url(#radialGradient144307);fill-opacity:0.5;fill-rule:evenodd;stroke:url(#radialGradient144309);stroke-width:0.79375;stroke-miterlimit:4;stroke-dasharray:none;stroke-opacity:0.701961"
         inkscape:transform-center-x="0.010607454"
         inkscape:transform-center-y="-3.5892491"
         d="M 1.199054,83.080436 1.177004,100.24105 -7.234515,91.641099 Z"
         sodipodi:nodetypes="cccc"
         inkscape:label="Arrow" />
    </g>
  </g>
</svg>
