<?xml version="1.0" encoding="UTF-8" standalone="no"?>
<!-- Created with Inkscape (http://www.inkscape.org/) -->

<svg
   width="300"
   height="150"
   viewBox="0 0 79.375 39.6875"
   version="1.1"
   id="svg322"
   inkscape:version="1.2.2 (b0a8486, 2022-12-01)"
   sodipodi:docname="dealer-mark-front.svg"
   xmlns:inkscape="http://www.inkscape.org/namespaces/inkscape"
   xmlns:sodipodi="http://sodipodi.sourceforge.net/DTD/sodipodi-0.dtd"
   xmlns="http://www.w3.org/2000/svg"
   xmlns:svg="http://www.w3.org/2000/svg">
  <sodipodi:namedview
     id="namedview324"
     pagecolor="#ffffff"
     bordercolor="#666666"
     borderopacity="1.0"
     inkscape:showpageshadow="2"
     inkscape:pageopacity="0.0"
     inkscape:pagecheckerboard="0"
     inkscape:deskcolor="#d1d1d1"
     inkscape:document-units="px"
     showgrid="false"
     inkscape:zoom="1.6819304"
     inkscape:cx="297.87202"
     inkscape:cy="44.294342"
     inkscape:window-width="1860"
     inkscape:window-height="1016"
     inkscape:window-x="1980"
     inkscape:window-y="27"
     inkscape:window-maximized="1"
     inkscape:current-layer="layer1" />
  <defs
     id="defs319" />
  <g
     inkscape:label="Calque 1"
     inkscape:groupmode="layer"
     id="layer1">
    <g
       id="g3227"
       inkscape:export-filename="dealer-mark-front.svg"
       inkscape:export-xdpi="96"
       inkscape:export-ydpi="96">
      <rect
         style="fill:#aa0000;fill-rule:evenodd;stroke-width:0.529167;-inkscape-stroke:none;stop-color:#000000"
         id="rect700"
         width="79.375"
         height="39.6875"
         x="0"
         y="0"
         inkscape:export-filename="dealer-mark-front.svg"
         inkscape:export-xdpi="400.022"
         inkscape:export-ydpi="400.022" />
      <path
         inkscape:connector-curvature="0"
         id="path178"
         d="m 31.831007,15.887925 c 0.06927,-0.17449 0.209564,-0.262173 0.419128,-0.262173 0.139417,0 0.592736,0.175367 1.361716,0.524345 1.710697,-0.348978 3.265321,-0.73303 4.662115,-1.153033 -0.03591,-0.209563 -0.05259,-0.592738 -0.05259,-1.152157 -0.105217,0 -0.366515,0.05261 -0.785636,0.156953 -0.419128,0.104344 -0.768109,0.15783 -1.047813,0.15783 -0.663763,0 -1.100426,-0.244636 -1.30999,-0.733908 0.139416,-0.03507 0.567312,-0.09557 1.283679,-0.183258 0.715497,-0.08681 1.300344,-0.218331 1.754543,-0.39282 v -0.156953 c 0,-1.222303 -0.313903,-2.286776 -0.942596,-3.1960502 C 36.54488,8.58918 36.230978,7.6465869 36.230978,6.6671661 c 0.976786,0.4550751 1.972865,0.8128228 2.985609,1.0741183 1.012735,0.2621731 1.658963,0.4638442 1.937796,0.6023831 0.278832,0.1402932 0.419128,0.420002 0.419128,0.8382506 0,0.2095634 -0.09646,0.3665156 -0.288479,0.4717357 -0.19203,0.1043426 -0.401594,0.2007944 -0.628693,0.2876004 -0.227971,0.087684 -0.454199,0.3402108 -0.680419,0.7602128 -0.227978,0.419126 -0.376162,0.995204 -0.445431,1.729111 0.523467,-0.139416 0.925061,-0.341087 1.204765,-0.603259 0.278833,-0.262172 0.489276,-0.392821 0.628693,-0.392821 0.313903,0 0.654987,0.113112 1.021502,0.340211 0.366516,0.227976 0.549778,0.42877 0.549778,0.60326 0,0.175366 -0.149063,0.313905 -0.445431,0.419125 -0.297247,0.104342 -0.768101,0.218331 -1.414329,0.340211 -0.647099,0.122756 -1.178462,0.253404 -1.597591,0.39282 0,0.139416 -0.01841,0.349856 -0.05259,0.628688 -0.03509,0.27971 -0.05259,0.470858 -0.05259,0.576079 l 4.45343,-0.785641 c 0.313903,0 0.750566,0.306891 1.309982,0.917165 0.558545,0.611152 0.838248,1.126728 0.838248,1.545854 0,0.348978 -0.384921,0.576079 -1.152152,0.680421 -0.244634,0.663762 -0.628692,1.327523 -1.152159,1.991284 -0.524346,0.663762 -0.785635,1.152157 -0.785635,1.466939 0,0.558542 -0.156952,0.83825 -0.471742,0.83825 -0.209556,0 -0.471733,-0.12188 -0.785636,-0.366516 -0.454198,0.03507 -0.804058,0.10522 -1.047813,0.209565 0.942595,1.188106 2.103515,2.11404 3.483653,2.776924 1.379251,0.663762 2.645396,1.22318 3.798426,1.676502 1.15216,0.454198 1.955339,1.030275 2.409538,1.729112 -0.524346,-0.07015 -1.056581,-0.2271 -1.597591,-0.471736 -0.541881,-0.24376 -0.916286,-0.366516 -1.126728,-0.366516 -0.140288,0 -0.489269,0.165722 -1.047815,0.497164 -0.559415,0.33232 -1.03027,0.49804 -1.414329,0.49804 -0.490147,0 -0.978544,-0.252528 -1.466933,-0.759336 -0.490147,-0.505932 -1.144272,-1.396792 -1.964986,-2.671704 -0.821585,-1.274915 -1.459045,-2.20874 -1.912364,-2.80323 -0.07017,0.03595 -0.209564,0.05261 -0.419128,0.05261 0,0.384928 -0.01841,0.8742 -0.05259,1.466938 -0.03599,0.593614 -0.05259,1.047814 -0.05259,1.36172 0,0.978542 0.130649,2.244688 0.392818,3.798433 0.262177,1.553746 0.392826,2.419178 0.392826,2.593667 0,1.607233 -0.332325,2.409533 -0.995209,2.409533 -0.384929,0 -0.751445,-0.488396 -1.100418,-1.466062 -0.34898,-0.977669 -0.523475,-1.850992 -0.523475,-2.619097 0,-0.348977 -0.856663,-1.694037 -2.56736,-4.034299 -1.886062,1.537962 -3.370538,2.305189 -4.45343,2.305189 -0.593614,0 -1.012735,-0.05261 -1.257369,-0.156953 2.339381,-1.187231 4.050957,-2.235042 5.133849,-3.143441 l -0.209565,-0.681297 0.471734,0.366515 c 0.628684,-0.524346 1.187229,-1.274914 1.676497,-2.25258 -0.348972,-0.0342 -0.680418,-0.24376 -0.9952,-0.628688 -0.03599,-0.03508 -0.02629,-0.09557 0.02629,-0.183258 0.05259,-0.08681 0.07806,-0.148184 0.07806,-0.183258 0,-0.06927 -0.254281,-0.400712 -0.759341,-0.995203 -0.506803,-0.592738 -1.047813,-1.247731 -1.623894,-1.964103 -0.576072,-0.716371 -0.93207,-1.217042 -1.071486,-1.495874 z m 6.443839,-0.21044 c -1.432743,0.279709 -2.741855,0.681298 -3.929084,1.205643 0.593615,0.594492 0.942595,0.978544 1.047813,1.152157 0.313903,-0.17449 0.811947,-0.306014 1.493244,-0.39282 0.681298,-0.08681 1.160927,-0.164845 1.440631,-0.235868 0,-0.174489 -0.0088,-0.453322 -0.02629,-0.838251 -0.01841,-0.384053 -0.02629,-0.680421 -0.02629,-0.890861 z m 0.104338,5.763414 c -0.07017,0 -0.200797,-0.0079 -0.392818,-0.0263 -0.1929,-0.01754 -0.341084,-0.0263 -0.445431,-0.0263 -0.419128,0.733029 -1.170574,1.764185 -2.252578,3.09083 0.174487,0.175366 0.427017,0.471736 0.759334,0.89086 0.331446,0.419126 0.628685,0.742679 0.890862,0.9689 0.261298,0.227976 0.47963,0.341086 0.654995,0.341086 0.313903,-9.03e-4 0.576072,-1.746648 0.785636,-5.239066 z m -0.05259,-3.039098 c -1.18723,0.07103 -1.972874,0.209562 -2.356925,0.419125 0.243755,0.559418 0.541002,1.013616 0.890862,1.361718 0.174486,0.03595 0.436655,0.06138 0.785636,0.07892 0.348981,0.01841 0.593615,0.0263 0.733032,0.0263 0,-0.243758 -0.0088,-0.576078 -0.0263,-0.995204 -0.0175,-0.419125 -0.02629,-0.715494 -0.02629,-0.89086 z m 5.029502,-2.828659 c 0,-0.278832 -0.419129,-0.419125 -1.257378,-0.419125 -0.838249,0 -1.746646,0.122756 -2.724311,0.366515 -0.03509,0.244636 -0.06138,0.568187 -0.07806,0.969776 -0.01841,0.401589 -0.02629,0.67253 -0.02629,0.811946 0.488397,-0.07015 0.881214,-0.209563 1.178462,-0.419126 0.296368,-0.209562 0.636581,-0.314782 1.021511,-0.314782 0.139417,0 0.270066,0.03595 0.392817,0.10522 0.121882,0.07102 0.262169,0.175366 0.419129,0.314783 0.156951,0.139415 0.288471,0.244635 0.392818,0.313905 0.453319,-0.803178 0.681297,-1.379256 0.681297,-1.729112 z m -1.047814,2.462143 c -0.279712,-0.139416 -0.471733,-0.209563 -0.576959,-0.209563 -0.175365,0 -0.558537,0.07015 -1.152151,0.209563 -0.594494,0.139416 -1.013615,0.227099 -1.257378,0.261296 -0.03599,0.175366 -0.05259,0.471735 -0.05259,0.890861 0,0.419125 0.01668,0.751444 0.05259,0.995202 0.523467,0 1.169695,-0.08681 1.937796,-0.261294 0.105218,-0.139418 0.278833,-0.445431 0.524346,-0.917166 0.244634,-0.470859 0.419129,-0.793533 0.524346,-0.968899 z"
         style="font-variation-settings:normal;opacity:1;vector-effect:none;fill:#ffffff;fill-opacity:1;stroke:#800000;stroke-width:0.529167;stroke-linecap:butt;stroke-linejoin:miter;stroke-miterlimit:4;stroke-dasharray:none;stroke-dashoffset:0;stroke-opacity:1;-inkscape-stroke:none;stop-color:#000000;stop-opacity:1" />
    </g>
  </g>
</svg>
