<?xml version="1.0" encoding="UTF-8" standalone="no"?>
<!-- Created with Inkscape (http://www.inkscape.org/) -->

<svg
   width="300"
   height="150"
   viewBox="0 0 79.375 39.6875"
   version="1.1"
   id="svg322"
   inkscape:version="1.2.2 (b0a8486, 2022-12-01)"
   sodipodi:docname="dealer-mark-back.svg"
   xmlns:inkscape="http://www.inkscape.org/namespaces/inkscape"
   xmlns:sodipodi="http://sodipodi.sourceforge.net/DTD/sodipodi-0.dtd"
   xmlns="http://www.w3.org/2000/svg"
   xmlns:svg="http://www.w3.org/2000/svg">
  <sodipodi:namedview
     id="namedview324"
     pagecolor="#ffffff"
     bordercolor="#666666"
     borderopacity="1.0"
     inkscape:showpageshadow="2"
     inkscape:pageopacity="0.0"
     inkscape:pagecheckerboard="0"
     inkscape:deskcolor="#d1d1d1"
     inkscape:document-units="px"
     showgrid="false"
     inkscape:zoom="1.6819304"
     inkscape:cx="245.25391"
     inkscape:cy="44.888897"
     inkscape:window-width="1860"
     inkscape:window-height="1016"
     inkscape:window-x="1980"
     inkscape:window-y="27"
     inkscape:window-maximized="1"
     inkscape:current-layer="layer1" />
  <defs
     id="defs319" />
  <g
     inkscape:label="Calque 1"
     inkscape:groupmode="layer"
     id="layer1">
    <rect
       style="fill:#aa0000;fill-rule:evenodd;stroke-width:0.529167;-inkscape-stroke:none;stop-color:#000000"
       id="rect700"
       width="79.375"
       height="39.6875"
       x="0"
       y="0"
       inkscape:export-filename="dealer-mark-front.svg"
       inkscape:export-xdpi="400.022"
       inkscape:export-ydpi="400.022" />
    <path
       inkscape:connector-curvature="0"
       id="path182"
       d="m 38.557461,27.360101 c -0.23153,0.07753 -0.48341,0.155003 -0.75175,0.231533 -0.27029,0.07844 -0.49213,0.144346 -0.66553,0.202465 -0.17438,0.05811 -0.31871,0.08715 -0.434,0.08715 -0.27027,0 -0.50182,-0.192778 -0.6946,-0.579315 0.19278,-0.115276 0.55899,-0.249934 1.09954,-0.404938 0.54057,-0.154032 1.02204,-0.308063 1.44732,-0.463058 -0.0388,-0.192787 -0.0775,-0.463066 -0.11626,-0.809876 -0.0388,-0.346819 -0.0775,-0.617098 -0.11528,-0.809877 -0.34777,0.07753 -0.65681,0.173405 -0.92612,0.289653 -0.27029,0.116248 -0.47275,0.212161 -0.60741,0.28869 -0.13562,0.07844 -0.24121,0.116248 -0.31872,0.116248 -0.30902,0 -0.59869,-0.173404 -0.86799,-0.521186 0.2693,-0.231533 0.96391,-0.539597 2.08378,-0.926124 -0.0785,-0.772102 -0.48341,-1.56357 -1.21579,-2.373444 -0.54056,0.155 -1.17703,0.434001 -1.90941,0.839906 -0.73334,0.40494 -1.1005,0.723661 -1.1005,0.955195 0,0.579315 0.40494,1.677872 1.21578,3.299568 0.80988,1.619744 1.21578,2.739627 1.21578,3.356717 0,0.270288 -0.11625,0.51247 -0.3468,0.723659 -0.23153,0.21216 -0.46308,0.318722 -0.69461,0.318722 -0.23152,0 -0.46305,-0.105599 -0.69459,-0.318722 -0.23153,-0.211189 -0.47275,-0.540559 -0.72366,-0.984252 -0.2509,-0.443685 -0.47275,-0.85831 -0.66553,-1.244846 -0.19374,-0.384594 -0.43399,-0.897065 -0.72366,-1.533537 -0.28965,-0.636462 -0.5115,-1.128589 -0.66553,-1.475408 -0.77209,-1.465722 -1.38919,-2.913032 -1.85225,-4.340973 l 0.34681,-0.173405 c 0.26932,0 0.55898,0.06782 0.868,0.20247 0.30807,0.135624 0.66554,0.327436 1.07048,0.578343 0.40494,0.250908 0.74303,0.434 1.01331,0.549284 1.85225,-0.694596 2.89366,-1.099535 3.12519,-1.214815 -0.61806,-0.617095 -1.28358,-1.099533 -1.99756,-1.447316 -0.71398,-0.347781 -1.25357,-0.579313 -1.61975,-0.694594 -0.36716,-0.116251 -0.55025,-0.250907 -0.55025,-0.404938 0,-0.154032 0.0484,-0.27997 0.14433,-0.375876 0.096,-0.0959 0.18214,-0.124969 0.2606,-0.08719 2.81617,1.196408 4.37876,2.064409 4.68779,2.604973 0.30806,-0.154032 0.63647,-0.289656 0.98425,-0.40494 0.26931,-1.389189 0.46306,-2.721222 0.57835,-3.994162 -0.92613,0.231532 -1.85225,0.347782 -2.77838,0.347782 -0.23154,0 -0.4437,-0.11625 -0.63648,-0.347782 0.1153,-0.11625 0.61613,-0.298376 1.50447,-0.550251 0.88739,-0.249938 1.62073,-0.549281 2.19907,-0.897064 0.19279,-2.006284 0.28967,-3.317973 0.28967,-3.936036 0,-1.1954402 -0.21217,-1.795098 -0.63648,-1.795098 h -0.17244 c 0.53959,-1.1576577 1.27295,-2.160316 2.20004,-3.0089425 0.38459,0.1550005 0.93485,0.762408 1.64979,1.8231911 0.712988,1.061752 1.070458,1.9384718 1.070458,2.6340354 0,0.03875 -0.01,0.115283 -0.029,0.231532 -0.0203,0.116251 -0.029,0.19375 -0.029,0.231531 -0.11625,0.03875 -0.27028,0.05813 -0.46306,0.05813 -0.502778,0 -0.965848,-0.173405 -1.389188,-0.521188 -0.0785,0.270281 -0.20248,0.809876 -0.37684,1.619751 -0.17341,0.810846 -0.31776,1.409534 -0.43401,1.795098 0.30806,-0.154032 0.75176,-0.492126 1.33107,-1.013315 0.579308,-0.521188 0.963898,-0.781783 1.157658,-0.781783 0.23153,0 0.49211,0.251877 0.78178,0.752721 0.28965,0.502781 0.45337,0.90772 0.49213,1.215784 -1.00364,0.540562 -2.450948,1.080157 -4.340978,1.62072 -0.34681,0.888345 -0.69459,1.891003 -1.04142,3.009911 0.65585,-0.116249 1.67789,-0.694594 3.06804,-1.736002 1.389198,-1.042377 2.333728,-1.697254 2.835538,-1.968503 0.77113,0.694594 1.15766,1.178002 1.15766,1.447315 0,0.231531 -0.0484,0.415594 -0.14434,0.55025 -0.0968,0.135626 -0.24219,0.289657 -0.43401,0.463063 -0.19375,0.173407 -0.3468,0.338095 -0.46306,0.492127 0.69459,0 1.18671,0.0281 1.47539,0.08719 0.28967,0.05813 0.60743,0.231532 0.95521,0.520221 0.34681,0.289657 0.73237,0.781782 1.15766,1.476379 0.19277,0.30903 0.43399,0.646155 0.72365,1.012343 0.28869,0.367159 0.49213,0.665533 0.6074,0.897065 0.11529,0.231531 0.17341,0.501812 0.17341,0.809869 0,0.656816 -0.73334,2.27754 -2.20003,4.862164 -0.3468,0.578352 -0.71396,1.235169 -1.09953,1.967535 -0.38556,0.733346 -0.67522,1.2836 -0.868,1.649784 -0.19375,0.367154 -0.41559,0.733346 -0.66553,1.099538 -0.25187,0.367154 -0.48342,0.618061 -0.6946,0.75272 -0.21215,0.13562 -0.45337,0.202464 -0.72365,0.202464 -0.34682,0 -0.67523,-0.06681 -0.98427,-0.202464 -0.30903,-0.134659 -0.618058,-0.327437 -0.926108,-0.579315 -0.30904,-0.249936 -0.868,-0.655845 -1.67789,-1.214815 -0.80987,-0.55897 -1.7176,-1.147971 -2.72025,-1.766031 0.3846,0 0.75271,0.0581 1.09954,0.174376 0.0765,-0.464039 0.11528,-1.312662 0.11528,-2.547821 z m 3.12616,-7.119356 c -1.85226,0.231532 -3.33832,0.59869 -4.45722,1.099534 0.53959,0.848626 0.92612,1.678844 1.15765,2.48872 0.77112,-0.154031 1.42697,-0.366192 1.96754,-0.636462 0.57932,-1.079196 1.02203,-2.063447 1.33203,-2.951792 z m -3.00991,-1.041407 c -0.0785,0.154999 -0.17341,0.521188 -0.28966,1.099532 1.85225,-0.500845 3.14457,-1.003626 3.87792,-1.50447 0.0775,-0.231533 0.116248,-0.404938 0.116248,-0.521189 0,-0.231532 -0.155008,-0.346814 -0.463078,-0.346814 -0.11624,0 -0.32839,0.0775 -0.63646,0.231532 -0.30904,0.154031 -0.71397,0.338094 -1.21481,0.549282 -0.50279,0.213126 -0.96585,0.376845 -1.39016,0.492127 z m 4.804038,4.629661 c -1.196408,0 -2.257188,0.13563 -3.183308,0.404939 -0.0388,0.116248 -0.0968,0.676189 -0.17341,1.678853 0.53959,-0.115286 1.01234,-0.249945 1.41825,-0.404947 0.40494,-0.153061 0.69459,-0.260593 0.867988,-0.318714 0.17342,-0.0581 0.29838,-0.08624 0.37588,-0.08624 0.50182,0 0.75272,0.309035 0.75272,0.926134 0,0.270279 -0.11625,0.404938 -0.3468,0.404938 -0.964888,0 -1.987878,0.13562 -3.068038,0.404938 -0.0785,1.698217 -0.21217,2.855875 -0.40494,3.472001 1.35044,0.579315 2.10218,0.868006 2.25719,0.868006 0.11625,0 0.29837,-0.134658 0.550248,-0.404939 0.24993,-0.270279 0.57931,-0.733346 0.98425,-1.390162 0.40494,-0.654874 0.80018,-1.407593 1.18672,-2.257187 0.15403,-0.346819 0.3565,-0.762406 0.6074,-1.244846 0.25091,-0.48244 0.41462,-0.819563 0.49213,-1.012351 0.0775,-0.192778 0.17341,-0.433997 0.28967,-0.72365 0.11624,-0.289662 0.19277,-0.529911 0.23152,-0.72366 0.0388,-0.192778 0.0581,-0.404938 0.0581,-0.636471 0,-0.347783 -0.67619,-1.253565 -2.02566,-2.720255 -0.38556,-0.0775 -0.75175,-0.0775 -1.09953,0 -0.11529,0.154031 -0.28965,0.39622 -0.52119,0.723656 -0.23153,0.328408 -0.454338,0.665534 -0.665528,1.013315 -0.21216,0.346814 -0.39623,0.693627 -0.54928,1.041411 0.809868,-0.154031 1.368838,-0.231533 1.677868,-0.231533 0.23153,0 0.44369,0.08719 0.63647,0.260594 0.19279,0.173405 0.28967,0.375879 0.28967,0.607402 -0.002,0.233476 -0.2141,0.348753 -0.63842,0.348753 z"
       style="font-variation-settings:normal;fill:#ffffff;fill-opacity:1;stroke:#800000;stroke-width:0.529167;stroke-linecap:butt;stroke-linejoin:miter;stroke-miterlimit:4;stroke-dasharray:none;stroke-dashoffset:0;stroke-opacity:1;stop-color:#000000" />
  </g>
</svg>
