<?xml version="1.0" encoding="UTF-8" standalone="no"?>
<!-- Generator: Adobe Illustrator 16.0.0, SVG Export Plug-In . SVG Version: 6.00 Build 0)  -->

<svg
   version="1.1"
   id="图层_1"
   x="0px"
   y="0px"
   width="139.76401"
   height="200"
   viewBox="0 0 139.764 200"
   enable-background="new 0 0 714 341"
   xml:space="preserve"
   sodipodi:docname="dragon-4.svg"
   inkscape:version="1.2.2 (b0a8486, 2022-12-01)"
   xmlns:inkscape="http://www.inkscape.org/namespaces/inkscape"
   xmlns:sodipodi="http://sodipodi.sourceforge.net/DTD/sodipodi-0.dtd"
   xmlns="http://www.w3.org/2000/svg"
   xmlns:svg="http://www.w3.org/2000/svg"
   xmlns:rdf="http://www.w3.org/1999/02/22-rdf-syntax-ns#"
   xmlns:cc="http://creativecommons.org/ns#"
   xmlns:dc="http://purl.org/dc/elements/1.1/"><metadata
   id="metadata621"><rdf:RDF><cc:Work
       rdf:about=""><dc:format>image/svg+xml</dc:format><dc:type
         rdf:resource="http://purl.org/dc/dcmitype/StillImage" /><dc:title /></cc:Work></rdf:RDF></metadata><defs
   id="defs619" /><sodipodi:namedview
   pagecolor="#ffffff"
   bordercolor="#666666"
   borderopacity="1"
   objecttolerance="10"
   gridtolerance="10"
   guidetolerance="10"
   inkscape:pageopacity="0"
   inkscape:pageshadow="2"
   inkscape:window-width="1860"
   inkscape:window-height="1016"
   id="namedview617"
   showgrid="false"
   inkscape:zoom="1"
   inkscape:cx="-54"
   inkscape:cy="113.5"
   inkscape:window-x="1980"
   inkscape:window-y="27"
   inkscape:window-maximized="1"
   inkscape:current-layer="图层_1"
   inkscape:showpageshadow="2"
   inkscape:pagecheckerboard="0"
   inkscape:deskcolor="#d1d1d1" />



















































































































































































































































































































<path
   id="path2"
   d="m 139.76366,14.45914 v 171.08575 c 0,4.01307 -1.4076,7.42922 -4.21474,10.24038 C 132.73777,198.5924 129.32161,200 125.30854,200 H 14.45914 C 10.44204,200 7.02589,198.5924 4.21473,195.78527 1.40357,192.97411 0,189.55796 0,185.54489 V 14.45914 C 0,10.44608 1.40357,7.02993 4.21473,4.21876 7.02589,1.4076 10.43801,0 14.45914,0 h 110.84537 c 4.01307,0 7.42921,1.4076 10.24038,4.21876 2.81117,2.81117 4.21877,6.22329 4.21877,10.24038 z"
   inkscape:connector-curvature="0"
   style="fill:#ffffff;stroke-width:4.03323"
   sodipodi:nodetypes="sscsscsssssss" /><path
   style="fill:#00082d;stroke-width:4.03315"
   inkscape:connector-curvature="0"
   id="path600"
   d="M 19.952014,16.051943 H 34.487496 V 30.377701 H 19.952014 Z M 34.491529,33.112178 V 45.33263 h -9.473875 v -7.372603 h 4.630059 v 2.53282 H 27.32865 v 2.31503 h 4.843816 v -7.38067 H 22.480801 V 47.441969 H 34.491529 V 64.715961 H 19.956047 V 52.499542 h 9.695699 v 7.36857 h -4.630059 v -2.528787 h 2.310996 v -2.52072 h -4.847849 v 7.58636 H 32.1765 V 50.184512 H 19.956047 V 33.116211 h 14.535482 z m 0,34.128536 v 12.220452 h -9.473875 v -7.586359 h 4.630059 v 2.532819 H 27.32865 v 2.520721 h 4.843816 V 69.555744 H 22.480801 V 81.776196 H 34.491529 V 98.836431 H 19.956047 V 86.624045 h 9.695699 v 7.372603 h -4.630059 v -2.528787 h 2.310996 v -2.52072 h -4.847849 v 7.372603 H 32.1765 V 83.885535 H 19.956047 V 67.244748 h 14.535482 z m 0,33.918816 v 12.21642 h -9.473875 v -7.37261 h 4.630059 v 2.31907 H 27.32865 v 2.52878 h 4.843816 v -7.16691 h -9.691665 v 12.22045 h 12.010728 v 16.85858 H 19.956047 v -12.01476 h 9.695699 v 7.16691 h -4.630059 v -2.53282 h 2.310996 v -2.31503 h -4.847849 v 7.37664 H 32.1765 V 118.2238 H 19.956047 v -17.06427 z m 0,34.12853 v 12.0067 h -9.473875 v -7.15885 h 4.630059 v 2.31907 H 27.32865 v 2.52878 h 4.843816 v -7.38067 h -9.691665 v 12.22045 h 12.010728 v 17.06831 H 19.956047 v -12.22046 h 9.695699 v 7.15885 h -4.630059 v -2.31906 h 2.310996 v -2.10128 h -4.847849 v 6.95316 H 32.1765 v -12.0067 H 19.956047 V 135.2921 H 34.491529 Z M 19.952014,169.4166 h 14.535482 v 14.53548 H 19.952014 Z M 22.480801,18.366972 v 9.691666 h 9.691665 v -9.691666 z m 0,153.364658 v 9.68763 h 9.691665 v -9.68763 z M 25.017654,20.891726 h 4.630059 v 5.061606 h -4.630059 z m 0,153.154934 h 4.630059 v 4.84785 H 25.017654 Z M 37.020316,16.051943 h 12.216419 v 9.905422 h -7.162879 v -5.061606 h 2.315029 v 2.528787 h 2.319063 v -5.05354 h -7.166912 v 9.691665 H 51.555797 V 16.055976 H 68.611999 V 30.381734 H 56.391547 v -9.481942 h 7.380669 v 5.061607 h -2.315029 v -2.53282 H 58.9284 v 4.634092 h 7.582327 V 18.371006 H 54.080551 V 30.381734 H 37.020316 Z m 0,153.364657 h 12.216419 v 9.48194 h -7.162879 v -4.84785 h 2.315029 v 2.73851 h 2.319063 v -5.05354 h -7.166912 v 9.68763 H 51.555797 V 169.4166 h 17.056202 v 14.53548 H 56.391547 v -9.90542 h 7.380669 v 4.84785 h -2.315029 v -2.10934 H 58.9284 v 4.63409 h 7.582327 v -9.68763 H 54.080551 v 12.22045 H 37.020316 Z M 71.144819,16.051943 h 12.220452 v 9.905422 h -7.376636 v -5.061606 h 2.528787 v 2.528787 h 2.319062 v -5.05354 h -7.372602 v 9.691665 H 85.894058 V 16.055976 H 102.95429 V 30.381734 H 90.524117 v -9.481942 h 7.372603 v 5.061607 h -2.319063 v -2.53282 h -2.738511 v 4.634092 h 7.368574 V 18.371006 H 88.201021 V 30.381734 H 71.140786 V 16.051943 Z m 0,153.364657 h 12.220452 v 9.48194 h -7.376636 v -4.84785 h 2.528787 v 2.73851 h 2.319062 v -5.05354 h -7.372602 v 9.68763 H 85.894058 V 169.4166 h 17.060232 v 14.53548 H 90.524117 v -9.90542 h 7.372603 v 4.84785 h -2.319063 v -2.10934 h -2.738511 v 4.63409 h 7.368574 v -9.68763 H 88.201021 v 12.22045 H 71.140786 V 169.4166 Z M 105.27739,16.051943 h 14.53145 v 14.325758 h -14.53145 z m 14.53145,17.060235 V 45.33263 h -9.89736 v -7.372603 h 5.05757 v 2.53282 h -2.53282 v 2.31503 h 4.84785 v -7.38067 h -9.48194 v 12.014762 h 12.0067 V 64.715961 H 105.27739 V 52.499542 h 9.68763 v 7.36857 h -5.05757 v -2.528787 h 2.52475 v -2.52072 h -4.63006 v 7.58636 h 9.48194 V 50.184512 H 105.27739 V 33.116211 h 14.53145 z m 0,34.128536 v 12.220452 h -9.89736 v -7.586359 h 5.05757 v 2.532819 h -2.53282 v 2.520721 h 4.84785 v -7.372603 h -9.48194 v 12.220452 h 12.0067 V 98.836431 H 105.27739 V 86.624045 h 9.68763 v 7.372603 h -5.05757 v -2.528787 h 2.52475 v -2.52072 h -4.63006 v 7.372603 h 9.48194 V 83.885535 H 105.27739 V 67.244748 h 14.53145 z m 0,33.918816 v 12.21642 h -9.89736 v -7.37261 h 5.05757 v 2.31907 h -2.53282 v 2.52878 h 4.84785 v -7.16691 h -9.48194 v 12.22045 h 12.0067 v 16.85858 h -14.53145 v -12.01476 h 9.68763 v 7.16691 h -5.05757 v -2.53282 h 2.52475 v -2.31503 h -4.63006 v 7.37664 h 9.48194 V 118.2238 h -12.00669 v -17.06427 z m 0,34.12853 v 12.0067 h -9.89736 v -7.15885 h 5.05757 v 2.31907 h -2.53282 v 2.52878 h 4.84785 v -7.38067 h -9.48194 v 12.22045 h 12.0067 v 17.06831 h -14.53145 v -12.22046 h 9.68763 v 7.15885 h -5.05757 v -2.31906 h 2.52475 v -2.10128 h -4.63006 v 6.95316 h 9.48194 v -12.0067 H 105.27739 V 135.2921 h 14.53145 z m -14.53145,34.12854 h 14.53145 v 14.53548 h -14.53145 z m 2.52475,-151.049628 v 9.691666 h 9.48194 v -9.691666 z m 0,153.364658 v 9.68763 h 9.48194 v -9.68763 z m 2.10934,-150.839904 h 5.05757 v 5.061606 h -5.05757 z m 0,153.154934 h 5.05757 v 4.84785 h -5.05757 z" /></svg>
