<?xml version="1.0" encoding="UTF-8" standalone="no"?>
<!-- Generator: Adobe Illustrator 16.0.0, SVG Export Plug-In . SVG Version: 6.00 Build 0)  -->

<svg
   version="1.1"
   id="图层_1"
   x="0px"
   y="0px"
   width="139.76401"
   height="200"
   viewBox="0 0 139.764 200"
   enable-background="new 0 0 714 341"
   xml:space="preserve"
   sodipodi:docname="dragon-2.svg"
   inkscape:version="1.2.2 (b0a8486, 2022-12-01)"
   xmlns:inkscape="http://www.inkscape.org/namespaces/inkscape"
   xmlns:sodipodi="http://sodipodi.sourceforge.net/DTD/sodipodi-0.dtd"
   xmlns="http://www.w3.org/2000/svg"
   xmlns:svg="http://www.w3.org/2000/svg"
   xmlns:rdf="http://www.w3.org/1999/02/22-rdf-syntax-ns#"
   xmlns:cc="http://creativecommons.org/ns#"
   xmlns:dc="http://purl.org/dc/elements/1.1/"><metadata
   id="metadata621"><rdf:RDF><cc:Work
       rdf:about=""><dc:format>image/svg+xml</dc:format><dc:type
         rdf:resource="http://purl.org/dc/dcmitype/StillImage" /><dc:title /></cc:Work></rdf:RDF></metadata><defs
   id="defs619" /><sodipodi:namedview
   pagecolor="#ffffff"
   bordercolor="#666666"
   borderopacity="1"
   objecttolerance="10"
   gridtolerance="10"
   guidetolerance="10"
   inkscape:pageopacity="0"
   inkscape:pageshadow="2"
   inkscape:window-width="1860"
   inkscape:window-height="1016"
   id="namedview617"
   showgrid="false"
   inkscape:zoom="1"
   inkscape:cx="-243"
   inkscape:cy="153.5"
   inkscape:window-x="1980"
   inkscape:window-y="27"
   inkscape:window-maximized="1"
   inkscape:current-layer="图层_1"
   inkscape:showpageshadow="2"
   inkscape:pagecheckerboard="0"
   inkscape:deskcolor="#d1d1d1" />



















































































































































































































































































































<path
   id="path2"
   d="m 139.76365,14.45914 v 171.08575 c 0,4.01307 -1.4076,7.42922 -4.21473,10.24038 C 132.73776,198.5924 129.32161,200 125.30854,200 H 14.45914 C 10.44204,200 7.02589,198.5924 4.21473,195.78527 1.40357,192.97411 0,189.55796 0,185.54489 V 14.45914 C 0,10.44608 1.40357,7.02993 4.21473,4.21876 7.02589,1.4076 10.43801,0 14.45914,0 h 110.84537 c 4.01307,0 7.42921,1.4076 10.24038,4.21876 2.81117,2.81117 4.21877,6.22329 4.21876,10.24038 z"
   inkscape:connector-curvature="0"
   style="fill:#ffffff;stroke-width:4.03323"
   sodipodi:nodetypes="sscsscsssssss" /><path
   style="fill:#133f00;stroke-width:4.03315"
   inkscape:connector-curvature="0"
   id="path196"
   d="m 100.23997,118.07054 c -0.641271,1.60923 -3.775031,2.41183 -9.397245,2.41183 -0.806631,0 -2.048842,-0.0363 -3.7347,-0.121 -1.685857,-0.0807 -3.012764,-0.12099 -3.976688,-0.12099 -0.326685,0 -0.923592,0.0403 -1.806852,0.12099 -0.883261,0.0847 -1.564863,0.121 -2.048842,0.121 -0.963923,8.83664 -1.685857,13.65625 -2.169836,14.45885 -1.125249,1.6052 -3.819395,3.65404 -8.070338,6.14249 -4.259009,2.49249 -7.110448,3.7347 -8.554316,3.7347 -0.806631,0 -1.564864,-0.31862 -2.290831,-0.96392 -0.721934,-0.64127 -1.084918,-1.36321 -1.084918,-2.16984 0,-0.96392 1.165581,-2.2505 3.49271,-3.85569 2.327129,-1.6052 4.819617,-3.81133 7.469398,-6.62647 2.649782,-2.80708 4.218678,-6.14249 4.698623,-9.99819 -0.645304,0.16133 -2.331162,0.35895 -5.057573,0.60094 -2.734477,0.24199 -4.738954,0.52028 -6.02553,0.84293 -0.963923,1.93188 -2.048841,4.21868 -3.254754,6.86846 -1.205913,2.65382 -2.129505,4.66233 -2.770776,6.02553 -0.645304,1.36321 -1.40757,2.77078 -2.29083,4.21465 -0.883261,1.44386 -1.806853,2.49248 -2.770776,3.13375 -0.963924,0.64128 -2.089173,0.96393 -3.371716,0.96393 -1.125249,0 -2.331162,-0.39928 -3.613704,-1.20591 -1.286576,-0.8026 -2.331162,-1.64553 -3.13376,-2.52879 -0.80663,-0.88326 -1.927847,-2.20614 -3.371715,-3.97669 -1.443869,-1.76652 -2.492489,-2.9684 -3.129727,-3.6137 -0.80663,0.32265 -2.573151,0.48397 -5.303595,0.48397 -2.569118,0 -4.658291,-2.80707 -6.263486,-8.43332 4.178346,1.76652 6.989453,2.64978 8.433322,2.64978 1.282542,0 5.86017,-1.76652 13.732884,-5.29956 7.868681,-3.52901 12.20432,-5.70288 13.014983,-6.50547 -0.165359,-1.28255 -1.528565,-2.80708 -4.097683,-4.57763 -1.609228,0.32668 -3.6984,1.64956 -6.267519,3.97669 -2.573151,2.33116 -4.577628,3.49271 -6.025529,3.49271 -1.927847,0 -3.295086,-0.64127 -4.097683,-1.92785 1.121216,-0.64127 3.694367,-2.41183 7.711387,-5.29956 4.012987,-2.89177 7.227409,-4.81962 9.639235,-5.78354 1.282542,-1.60116 1.927847,-3.52901 1.927847,-5.783544 -0.645305,-0.318619 -1.443869,-0.483978 -2.411826,-0.483978 -1.443868,0 -3.456411,0.80663 -6.025529,2.411822 -5.14227,6.1062 -9.639235,10.48217 -13.494929,13.13195 -3.855694,2.64978 -8.836637,4.53729 -14.938797,5.66254 13.01095,-10.44183 22.650185,-19.75841 28.913671,-27.953777 -0.483979,-0.963923 -2.690113,-3.331384 -6.62647,-7.106414 -3.94039,-3.775031 -5.985198,-6.787796 -6.142491,-9.038295 2.569118,0.326685 5.622214,1.806852 9.159289,4.456633 3.529009,2.649782 6.10216,4.859949 7.711388,6.62647 4.496965,-5.460888 7.630724,-10.683821 9.397245,-15.664764 -1.766521,0.161326 -4.259009,1.048619 -7.469398,2.653814 -3.214423,1.605195 -5.706911,2.407792 -7.469399,2.407792 -1.286575,0 -2.250499,-0.322652 -2.89177,-0.963923 0.157293,-0.157293 1.242211,-0.963924 3.250721,-2.411826 2.00851,-1.443868 4.254976,-3.049063 6.747464,-4.819617 2.488455,-1.766521 4.456633,-3.291052 5.904535,-4.577628 0.963924,-0.963923 2.048842,-2.250499 3.254754,-3.855694 1.205913,-1.605194 2.290831,-2.89177 3.254754,-3.855693 0.963924,-0.963924 1.927847,-1.443869 2.891771,-1.443869 0.963923,0 1.927847,0.358951 2.89177,1.084918 0.963923,0.721934 1.443869,1.564863 1.443869,2.528787 0,0.161326 -0.564642,1.76652 -1.685858,4.819617 0.483978,0.80663 2.00851,2.649781 4.577628,5.541551 1.443869,-1.927847 3.210389,-5.944866 5.299562,-12.047026 2.08514,-6.10216 3.529009,-9.554538 4.339672,-10.361169 0.802598,0.322652 1.843151,1.40757 3.129727,3.250721 1.282542,1.847184 1.927847,3.41608 1.927847,4.702656 0,0.479945 -0.362984,1.044586 -1.084918,1.685858 -0.721935,0.645304 -1.246245,1.286575 -1.564864,1.927846 -1.927846,4.980944 -4.819617,10.203876 -8.675311,15.660732 2.730445,4.178346 4.416302,6.590171 5.061607,7.227409 3.371715,-3.371716 5.541551,-6.747464 6.505475,-10.11918 1.443868,0.161326 2.807074,0.883261 4.097683,2.169836 1.282542,1.286576 1.93188,2.492489 1.93188,3.613705 0,1.12525 -0.403315,1.685858 -1.205913,1.685858 -0.963923,0 -1.927847,0.326685 -2.89177,0.967956 -0.963924,0.641272 -1.968179,1.528565 -3.012765,2.649782 -1.04862,1.125249 -1.891549,1.927846 -2.528787,2.411825 4.819618,6.428845 8.913267,11.325092 12.289016,14.696807 3.37172,3.375752 5.70288,5.343932 6.98945,5.904532 1.28255,0.56465 2.9684,2.29083 5.05758,5.1826 2.08514,2.89177 4.73895,7.63073 7.95337,14.21687 -1.60922,0 -3.65807,-0.63724 -6.14249,-1.92785 -2.49249,-1.28254 -5.58188,-3.04906 -9.27625,-5.29956 -3.6984,-2.24647 -6.908789,-4.01702 -9.639233,-5.3036 -0.963924,-1.44387 -2.169836,-4.21464 -3.613705,-8.31232 -1.443868,-4.097688 -4.097683,-9.276256 -7.949343,-15.543775 -1.286576,0.645305 -2.653815,0.963924 -4.097683,0.963924 1.601161,-2.730444 2.407792,-4.178346 2.407792,-4.339672 -4.335639,-8.348626 -8.276029,-14.374156 -11.809071,-18.068523 -2.250499,4.496965 -7.312105,12.930286 -15.180786,25.299965 0.963924,0.963924 2.08514,1.443869 3.371716,1.443869 0.641271,0 1.524531,-0.362984 2.649781,-1.084918 1.121216,-0.721935 2.00851,-1.084918 2.649781,-1.084918 1.927847,0 3.210389,0.645304 3.855694,1.93188 -0.326686,0.641271 -0.806631,1.201879 -1.447902,1.685857 -0.645304,0.483979 -1.367239,0.927626 -2.169836,1.326908 -0.806631,0.403315 -1.443869,0.762265 -1.927847,1.084918 -0.963923,1.609228 -1.286576,3.295085 -0.963923,5.057575 2.730444,-0.47995 5.380225,-1.52453 7.949343,-3.133762 2.089173,-7.546028 3.13376,-13.974873 3.13376,-19.274435 0,-1.282543 -0.0847,-2.488455 -0.241989,-3.613705 4.012986,2.573151 6.025529,5.460888 6.025529,8.675311 0,1.12525 -0.120994,2.00851 -0.35895,2.649781 -0.241989,0.641271 -0.564642,1.286576 -0.963924,1.927847 -0.403315,0.645304 -1.048619,2.133538 -1.927847,4.456634 -0.88326,2.331162 -1.891548,5.343927 -3.012764,9.034259 0.798564,0.96393 1.443868,1.4479 1.927846,1.4479 1.121217,0 2.928069,-0.64127 5.420557,-1.92784 2.488455,-1.28255 4.61796,-1.92785 6.384481,-1.92785 1.605195,0 2.730444,1.20591 3.371715,3.6137 -0.326685,0.32266 -1.488233,0.72194 -3.49271,1.20188 -2.012543,0.48398 -3.49271,1.04862 -4.456633,1.68586 -0.483979,2.89177 -0.806631,5.94487 -0.963924,9.15929 1.601162,0 3.371716,-0.0807 5.299563,-0.24199 1.927847,-0.15729 3.049063,-0.24199 3.371715,-0.24199 0.641271,0 1.403537,-0.27828 2.286798,-0.83889 0.879227,-0.56061 1.645526,-0.76227 2.286797,-0.60498 3.387848,0.80663 5.79564,2.16984 7.243542,4.09365 z m -64.336849,13.25698 c 2.569118,2.57315 5.940834,3.85569 10.123213,3.85569 1.601162,0 3.613705,-1.68586 6.021497,-5.05757 2.411825,-3.37575 3.613704,-5.70288 3.613704,-6.98946 0,-0.96392 -0.483978,-1.76652 -1.447901,-2.40779 -8.030007,3.69437 -14.1362,7.22338 -18.310513,10.59913 z m 29.397649,-20.2424 c 0,-0.48397 0.120994,-1.04458 0.362984,-1.68585 0.241989,-0.64127 0.560608,-1.5689 0.963923,-2.77078 0.399282,-1.20591 0.681603,-2.20613 0.842929,-3.01276 -4.182379,0.6453 -7.634758,2.33116 -10.361169,5.0616 0.318619,1.44387 1.044587,2.52879 2.169836,3.25072 1.121217,0.72194 1.766521,1.24625 1.927847,1.5689 1.282543,2.73044 2.00851,4.33564 2.169836,4.81962 0.802597,-0.1573 4.339672,-0.72194 10.603158,-1.68586 0.641271,-3.21442 0.963923,-6.18282 0.963923,-8.9173 -2.089172,0 -3.77503,-0.24199 -5.057573,-0.72194 -2.258565,2.56912 -3.78713,3.93636 -4.585694,4.09365 z m 19.516425,18.07256 c 0.963923,-0.96392 2.972433,-1.44387 6.02553,-1.44387 3.694367,0 7.227409,0.96393 10.603155,2.89177 3.37172,1.92785 5.06161,4.09769 5.06161,6.50548 0,2.40779 -1.24625,4.37597 -3.7347,5.9005 -2.49249,1.52856 -5.101938,2.29083 -7.832382,2.29083 -0.161327,0 -0.362984,-0.0403 -0.60094,-0.12099 -0.241989,-0.0807 -0.443647,-0.121 -0.60094,-0.121 -0.802597,-1.12122 -1.766521,-3.04906 -2.89177,-5.78354 -1.129283,-2.72641 -3.137793,-6.10216 -6.029563,-10.11918 z" /></svg>
