<?xml version="1.0" encoding="UTF-8" standalone="no"?>
<!-- Generator: Adobe Illustrator 16.0.0, SVG Export Plug-In . SVG Version: 6.00 Build 0)  -->

<svg
   version="1.1"
   id="图层_1"
   x="0px"
   y="0px"
   width="139.76401"
   height="200"
   viewBox="0 0 139.764 200"
   enable-background="new 0 0 714 341"
   xml:space="preserve"
   sodipodi:docname="man-5.svg"
   inkscape:version="1.2.2 (b0a8486, 2022-12-01)"
   xmlns:inkscape="http://www.inkscape.org/namespaces/inkscape"
   xmlns:sodipodi="http://sodipodi.sourceforge.net/DTD/sodipodi-0.dtd"
   xmlns="http://www.w3.org/2000/svg"
   xmlns:svg="http://www.w3.org/2000/svg"
   xmlns:rdf="http://www.w3.org/1999/02/22-rdf-syntax-ns#"
   xmlns:cc="http://creativecommons.org/ns#"
   xmlns:dc="http://purl.org/dc/elements/1.1/"><metadata
   id="metadata621"><rdf:RDF><cc:Work
       rdf:about=""><dc:format>image/svg+xml</dc:format><dc:type
         rdf:resource="http://purl.org/dc/dcmitype/StillImage" /><dc:title /></cc:Work></rdf:RDF></metadata><defs
   id="defs619" /><sodipodi:namedview
   pagecolor="#ffffff"
   bordercolor="#666666"
   borderopacity="1"
   objecttolerance="10"
   gridtolerance="10"
   guidetolerance="10"
   inkscape:pageopacity="0"
   inkscape:pageshadow="2"
   inkscape:window-width="1860"
   inkscape:window-height="1016"
   id="namedview617"
   showgrid="false"
   inkscape:zoom="1"
   inkscape:cx="-166"
   inkscape:cy="153.5"
   inkscape:window-x="1980"
   inkscape:window-y="27"
   inkscape:window-maximized="1"
   inkscape:current-layer="图层_1"
   inkscape:showpageshadow="2"
   inkscape:pagecheckerboard="0"
   inkscape:deskcolor="#d1d1d1" />



















































































































































































































































































































<path
   id="path2"
   d="M 139.76364,14.459143 V 185.54489 c 0,4.01307 -1.4076,7.42922 -4.21473,10.24038 C 132.73775,198.5924 129.3216,200 125.30853,200 H 14.459143 C 10.442042,200 7.025893,198.5924 4.214729,195.78527 1.403565,192.97411 0,189.55796 0,185.54489 V 14.459143 C 0,10.446076 1.403565,7.029927 4.214729,4.218763 7.025893,1.407599 10.438009,0 14.459143,0 H 125.3045 c 4.01307,0 7.42921,1.407599 10.24038,4.218763 2.81116,2.811164 4.21876,6.22328 4.21876,10.24038 z"
   inkscape:connector-curvature="0"
   style="fill:#ffffff;stroke-width:4.03323"
   sodipodi:nodetypes="sscsscsssssss" /><path
   inkscape:connector-curvature="0"
   id="path34"
   d="m 49.637004,66.745988 c -4.017101,4.017101 -8.836815,7.711543 -14.459143,11.083327 -5.626361,3.371783 -9.720093,5.061708 -12.289263,5.061708 -1.286602,0 -2.16988,-0.322658 -2.649835,-0.963943 6.904896,-3.375816 13.813826,-8.272162 20.722755,-14.701137 6.904897,-6.424941 10.361378,-12.047269 10.361378,-16.866984 0,-0.802613 -0.120997,-1.524562 -0.358958,-2.169879 -0.241994,-0.641284 -0.68565,-1.403566 -1.326934,-2.290877 -0.645317,-0.879245 -1.048641,-1.48423 -1.205937,-1.806889 0.963943,-0.963943 1.726224,-2.125514 2.290877,-3.49278 0.56062,-1.363233 1.08494,-2.367509 1.564895,-3.012826 0.641284,-0.641284 1.564895,-1.326934 2.770831,-2.048883 1.201904,-0.721949 2.048883,-1.326934 2.528838,-1.806888 0.318626,0.322658 1.326934,1.044607 3.012826,2.169879 1.685891,1.125273 2.932161,2.331209 3.734774,3.613778 3.694442,0 9.917722,-1.927886 18.673873,-5.783657 8.75615,-3.855772 13.212874,-5.783658 13.374203,-5.783658 11.567316,0 17.346936,1.605227 17.346936,4.819715 0,4.17843 -1.52859,6.263612 -4.57772,6.263612 -1.2866,0 -3.29515,-0.39929 -6.02565,-1.201904 -2.73453,-0.802613 -4.819713,-1.205937 -6.267644,-1.205937 -2.407841,0 -6.985561,1.605227 -13.733162,4.819715 -5.142373,2.573203 -8.114866,6.666935 -8.917479,12.289263 5.138339,-1.601194 8.272162,-2.891829 9.401468,-3.855772 1.121239,-0.963942 1.843187,-2.488505 2.169879,-4.57772 3.210454,0.322659 5.29967,1.605227 6.263612,3.855772 0.641285,0.479954 0.721949,1.685891 0.241994,3.613777 -0.483988,1.927886 -0.725982,3.129789 -0.725982,3.613778 0,1.60926 0.322659,4.900379 0.963943,9.881422 2.246511,1.125273 6.102283,2.734533 11.567311,4.819715 5.461,2.089215 9.39744,3.940469 11.80931,5.541663 2.40784,1.60926 3.61378,3.613777 3.61378,6.025651 0,1.609261 -0.52432,3.012826 -1.56489,4.218763 -1.04865,1.205937 -2.29088,1.806889 -3.73478,1.806889 -0.96394,0 -3.94047,-1.564895 -8.91345,-4.698718 -4.98104,-3.133822 -9.800754,-4.70275 -14.459139,-4.70275 -0.963943,0 -2.012584,0.120997 -3.133823,0.362991 -1.125272,0.241994 -1.847221,0.362991 -2.16988,0.362991 -1.125272,0 -1.685891,-0.322659 -1.685891,-0.963943 0,-0.157296 0.08066,-0.641284 0.241994,-1.443898 0.161329,-0.802613 0.241994,-1.766556 0.241994,-2.891829 -2.734533,1.125273 -5.662661,2.210213 -8.796483,3.25482 -3.133823,1.044608 -5.505364,1.847221 -7.110591,2.407841 -1.605228,0.564652 -3.174155,1.205937 -4.698718,1.927885 -1.528595,0.721949 -2.613535,1.443898 -3.25482,2.16988 -0.645317,0.721949 -0.963942,1.568928 -0.963942,2.528838 -0.165363,0.326692 -0.721949,0.479955 -1.685892,0.479955 -2.734533,0 -4.900379,-0.879245 -6.505606,-2.649835 -1.605227,-1.766556 -2.407841,-3.936436 -2.407841,-6.505606 0,-1.121239 0.39929,-2.56917 1.201904,-4.335726 0.802613,-1.766557 1.205937,-3.210455 1.205937,-4.33976 0.004,-1.443898 -0.56062,-2.407841 -1.681859,-2.891829 z m 6.505606,-5.057675 c -0.161329,0.483988 -0.241994,1.205937 -0.241994,2.16988 0,1.286602 0.278293,2.936194 0.842946,4.940711 0.56062,2.012584 0.842946,3.335485 0.842946,3.976769 0,0.161329 -0.04437,0.362991 -0.120997,0.600952 -0.08066,0.241994 -0.120997,0.443655 -0.120997,0.600952 0.802614,0.645317 1.685892,0.806646 2.649835,0.479954 1.766556,-1.766556 3.291118,-5.541663 4.57772,-11.32532 -0.161329,0 -0.483988,0.04033 -0.963943,0.120997 -0.483988,0.0847 -0.887311,0.120997 -1.205937,0.120997 -3.36775,0 -5.456965,-0.56062 -6.259579,-1.685892 z m 8.195531,-20.000806 c 0,0.326692 -0.04033,1.649592 -0.120997,3.976768 -0.08066,2.331209 -0.358957,4.456724 -0.842945,6.384609 -0.479955,1.927886 -1.205937,3.133823 -2.16988,3.613778 0.318625,1.443898 0.802613,2.16988 1.443897,2.16988 1.443898,0 3.133823,-0.56062 5.061709,-1.685892 2.40784,-5.783657 3.613777,-9.236105 3.613777,-10.361378 0,-1.282568 -0.762281,-2.286843 -2.286843,-3.012825 -1.532629,-0.725982 -3.097524,-1.08494 -4.698718,-1.08494 z m 3.371784,32.770024 c 3.694442,0 9.236105,-1.927885 16.629023,-5.783657 -0.165363,-0.641284 -0.241994,-1.685892 -0.241994,-3.129789 0,-0.641284 0.0363,-1.564895 0.120997,-2.770832 0.08066,-1.205937 0.120997,-1.964185 0.120997,-2.290877 0,-3.049124 -0.806647,-4.57772 -2.411874,-4.57772 -0.483988,0 -1.246269,0.326692 -2.286844,0.963943 -1.04864,0.645317 -2.331209,1.443898 -3.855771,2.411874 -1.528596,0.963943 -2.85553,1.685891 -3.976769,2.169879 -2.734532,4.977011 -4.097765,9.312737 -4.097765,13.007179 z"
   style="stroke-width:4.03323" /><path
   style="fill:#870000;stroke-width:4.03323"
   inkscape:connector-curvature="0"
   id="path36"
   d="m 60.724364,144.82133 c -0.645317,0 -1.927886,0.40332 -3.855772,1.20594 l -0.963942,1.92788 c -0.806647,1.2866 -1.528596,2.25055 -2.16988,2.89183 -2.411874,-1.4439 -3.613778,-6.10228 -3.613778,-13.97516 0,-6.10228 0.322659,-10.51867 0.963943,-13.2532 5.940954,-0.96394 12.486892,-2.41188 19.637816,-4.33976 7.14689,-1.92789 11.603613,-2.89183 13.374203,-2.89183 3.371783,0 5.061708,1.12527 5.061708,3.37178 l -1.685891,6.26362 c -1.125273,4.17843 -1.685892,8.51819 -1.685892,13.01524 0,2.56917 0.157296,5.29967 0.483988,8.1915 3.049125,0.16133 6.344277,0.64532 9.877389,1.4439 3.533113,0.80664 7.187224,2.41187 10.966364,4.81971 3.77107,2.41187 5.66266,5.22304 5.66266,8.43349 0,2.73454 -1.04461,4.81972 -3.13382,6.26361 -2.08922,1.4439 -4.73905,2.16988 -7.95354,2.16988 -0.80665,0 -2.609503,0.52433 -5.420667,1.56893 -2.815197,1.04058 -4.940711,1.5649 -6.384609,1.5649 -2.089215,0 -5.904654,-1.08494 -11.446317,-3.25482 -5.545697,-2.16988 -9.437767,-3.97677 -11.688312,-5.42067 -0.806647,0.32266 -1.649592,0.84295 -2.528837,1.5649 -0.883279,0.72598 -1.564895,1.08494 -2.048883,1.08494 -0.802614,0 -3.371784,-0.64129 -7.711543,-1.92789 0,0.16536 -0.04033,0.64532 -0.120997,1.4439 -0.0847,0.80664 -0.161329,1.4076 -0.241994,1.80689 -0.0847,0.40332 -0.16133,0.88327 -0.241994,1.44389 -0.0847,0.56466 -0.282327,1.00428 -0.600952,1.32694 -0.322659,0.32266 -0.721949,0.48399 -1.205937,0.48399 -0.479955,0 -1.004275,-0.32266 -1.564895,-0.96395 -0.564652,-0.64128 -1.044607,-1.48423 -1.443897,-2.52883 -0.403324,-1.04058 -0.806647,-2.04889 -1.205937,-3.01283 -0.403324,-0.96394 -0.762281,-2.00855 -1.08494,-3.13382 -0.326692,-1.12124 -0.564653,-1.84319 -0.721949,-2.16988 h -2.891829 c -3.053158,0 -5.868355,-0.48399 -8.433492,-1.4439 -2.569169,-0.96394 -3.855771,-2.32718 -3.855771,-4.09777 0,-0.15729 0.0363,-0.39929 0.120997,-0.72194 0.08066,-0.32266 0.120997,-0.64129 0.120997,-0.96395 1.443898,0 3.452448,0.16133 6.025651,0.48399 2.56917,0.32266 4.577721,0.48399 6.025652,0.48399 h 0.963942 c -0.165362,-1.28257 -0.483988,-3.09349 -0.963942,-5.42067 -0.483988,-2.32717 -0.883279,-4.25506 -1.201904,-5.78365 -0.326692,-1.52457 -0.483988,-2.69017 -0.483988,-3.49278 0,-0.31863 0.322659,-0.80262 0.963943,-1.4439 1.927885,0.32266 3.331451,1.24627 4.214729,2.77083 0.883278,1.52859 1.645559,3.65411 2.290877,6.38461 0.641284,2.73453 1.443898,4.98104 2.40784,6.7476 2.246512,0 5.29967,-0.64129 9.159474,-1.92789 0,-0.47995 0.0363,-1.60119 0.120997,-3.37178 0.06856,-1.77059 0.112931,-2.97653 0.112931,-3.61781 z m 30.116157,-33.01202 c -4.819715,0 -11.966605,1.4076 -21.444704,4.21473 -9.482133,2.81116 -15.745745,4.21473 -18.79487,4.21473 -9.639429,0 -15.903041,-1.76656 -18.794869,-5.29967 2.891828,-1.76656 5.061708,-2.64984 6.505606,-2.64984 1.601194,0 4.0534,0.40333 7.348552,1.20594 3.291118,0.80665 6.06195,1.20191 8.312495,1.20191 3.210454,0 5.380333,-0.31863 6.505606,-0.96395 1.121239,-0.64128 1.685891,-2.08518 1.685891,-4.33976 0,-0.47995 -0.443655,-0.84294 -1.3229,-1.08494 -0.887312,-0.24199 -1.488264,-0.60095 -1.806889,-1.08494 0,-0.64128 0.120997,-1.12124 0.358958,-1.44389 0.241994,-0.31863 0.641284,-0.75825 1.205937,-1.32694 0.560619,-0.56062 1.004275,-1.1656 1.326934,-1.80689 0.322658,-0.48399 0.92361,-1.48423 1.806888,-3.012823 0.879245,-1.524563 1.601194,-2.56917 2.16988,-3.133823 0.56062,-0.560619 1.242236,-0.842946 2.048883,-0.842946 1.121239,0 1.685892,0.806647 1.685892,2.407841 0,1.286601 -0.120997,2.613531 -0.362991,3.976771 -0.241994,1.36726 -0.645318,2.89183 -1.205937,4.57772 -0.564653,1.68589 -0.923611,3.01282 -1.08494,3.97677 0.318625,0.80664 0.879245,1.20593 1.685892,1.20593 0.963942,0 2.367508,-1.84722 4.214729,-5.54569 1.847221,-3.69445 2.774865,-6.34428 2.774865,-7.949507 0,-0.963943 -0.524321,-1.887554 -1.568928,-2.770832 -1.044608,-0.883278 -1.730258,-1.568928 -2.048883,-2.048883 1.282568,-2.891828 4.097766,-5.138339 8.433492,-6.7476 3.210454,1.125273 4.819714,4.097766 4.819714,8.913447 0,1.605227 -0.685649,3.533113 -2.048883,5.783655 -1.367266,2.25458 -2.129547,4.33976 -2.290876,6.26765 1.282568,-0.16133 3.049124,-0.48399 5.303702,-0.96395 2.246511,-0.48398 4.493023,-0.84294 6.743567,-1.08494 2.250545,-0.24199 4.658385,-0.36299 7.227556,-0.36299 5.13834,0 8.11083,0.56466 8.91748,1.6859 -1.12527,2.25054 -2.89183,3.94046 -5.29967,5.05767 -2.08115,-0.1452 -6.420908,-0.22586 -13.007179,-0.22586 z m -38.553682,46.98717 c 0.641284,1.60523 1.201904,2.89183 1.685892,3.85577 2.250544,-0.48398 4.819714,-1.36323 7.711543,-2.64983 -0.806647,-0.96394 -1.205937,-2.24651 -1.205937,-3.85577 z m 3.613777,-31.81011 v 4.33976 h 0.483988 l 0.483988,0.24199 4.335727,-0.72195 c 0,-1.28257 0.161329,-2.89183 0.483988,-4.81971 z m 4.823748,7.95354 c -0.963943,0.16536 -2.012584,0.32669 -3.133823,0.48398 -0.963943,0 -1.488263,0.0847 -1.568928,0.242 -0.0847,0.16536 -0.120997,0.48399 -0.120997,0.96394 0,0.32266 0,0.64532 0,0.96394 0,0.3267 0.0363,0.88328 0.120997,1.6859 0.08066,0.80664 0.120997,1.36726 0.120997,1.68589 0.802614,0 2.327176,-0.1573 4.581754,-0.47996 z m 6.021618,-10.11939 c 0,0.80665 -0.120997,1.68589 -0.358958,2.65387 -0.241994,0.96394 -0.362991,1.76656 -0.362991,2.40784 1.605227,-0.32266 3.452448,-0.68162 5.545697,-1.08494 2.085182,-0.39929 3.613777,-0.68162 4.57772,-0.84295 0,-0.80261 0.04033,-1.76655 0.120997,-2.89182 0.07663,-1.12124 0.120997,-2.00855 0.120997,-2.64984 -1.447931,0.32266 -3.133823,0.76228 -5.061708,1.32694 -1.931919,0.56061 -3.460515,0.92361 -4.581754,1.0809 z m -0.721949,9.15544 v 5.29967 c 2.250545,-0.16133 5.460999,-0.88328 9.639429,-2.16988 0,-2.41187 0.08067,-4.25506 0.241994,-5.54569 -3.541179,1.13333 -6.832298,1.93595 -9.881423,2.4159 z m 0.479955,9.63943 v 6.50561 c 3.52908,-0.64129 6.662902,-1.52456 9.397435,-2.64984 0,-2.7305 -0.0847,-4.81971 -0.241994,-6.26361 -0.806647,0.32266 -2.210212,0.72195 -4.218763,1.20594 -2.00855,0.47995 -3.650076,0.88328 -4.936678,1.2019 z m 0.241994,10.84133 c 0,2.57321 0.39929,3.85578 1.205937,3.85578 0.641284,0 1.326934,-0.121 2.048883,-0.35896 0.721949,-0.242 1.685891,-0.60095 2.891828,-1.08494 1.205937,-0.48399 2.367509,-0.87925 3.496814,-1.20594 -0.326692,-1.76656 -0.403323,-3.04912 -0.241994,-3.85577 -0.967976,0.16536 -4.101799,1.04864 -9.401468,2.64983 z m 20.238767,-2.88779 c 0,0.32669 0.120997,1.04864 0.362991,2.16988 0.241994,1.12527 0.358958,2.09325 0.358958,2.89183 0,0.80664 -0.241994,1.68589 -0.721949,2.64983 -3.053158,2.08922 -6.025651,3.12979 -8.913446,3.12979 -0.16133,-0.1573 -0.403324,-0.64128 -0.721949,-1.4439 -0.322659,-0.80261 -0.564653,-1.36323 -0.721949,-1.68589 -0.963943,0.32266 -2.048883,0.88328 -3.25482,1.68589 -1.205937,0.80665 -2.210212,1.36727 -3.012825,1.68589 0.641284,0.96395 2.246511,1.96822 4.819714,3.01283 2.56917,1.04864 4.57772,1.56893 6.025651,1.56893 0.963943,0 1.887554,-0.20166 2.770832,-0.60095 0.879245,-0.39929 1.847221,-1.00428 2.891828,-1.80689 1.044608,-0.80262 1.887554,-1.36324 2.528838,-1.68589 0.802614,-0.32266 2.367508,-0.56062 4.698717,-0.72599 2.327176,-0.15729 4.097766,-0.60095 5.29967,-1.3229 1.20594,-0.72598 1.80689,-1.96821 1.80689,-3.73477 0,-1.28257 -1.685893,-2.52884 -5.06171,-3.73478 -3.375817,-1.20593 -6.420908,-1.89158 -9.155441,-2.05291 z" /><text
   xml:space="preserve"
   style="font-style:normal;font-variant:normal;font-weight:bold;font-stretch:normal;font-size:30px;line-height:1.25;font-family:Lato;-inkscape-font-specification:'Lato Bold'"
   x="113.47656"
   y="29.760742"
   id="text6639"><tspan
     sodipodi:role="line"
     x="113.47656"
     y="29.760742"
     style="font-style:normal;font-variant:normal;font-weight:bold;font-stretch:normal;font-family:'Liberation Mono';-inkscape-font-specification:'Liberation Mono Bold'"
     id="tspan8519">5</tspan></text></svg>
