<?xml version="1.0" encoding="UTF-8" standalone="no"?>
<!-- Generator: Adobe Illustrator 16.0.0, SVG Export Plug-In . SVG Version: 6.00 Build 0)  -->

<svg
   version="1.1"
   id="图层_1"
   x="0px"
   y="0px"
   width="139.76401"
   height="200"
   viewBox="0 0 139.764 200"
   enable-background="new 0 0 714 341"
   xml:space="preserve"
   sodipodi:docname="man-7.svg"
   inkscape:version="1.2.2 (b0a8486, 2022-12-01)"
   xmlns:inkscape="http://www.inkscape.org/namespaces/inkscape"
   xmlns:sodipodi="http://sodipodi.sourceforge.net/DTD/sodipodi-0.dtd"
   xmlns="http://www.w3.org/2000/svg"
   xmlns:svg="http://www.w3.org/2000/svg"
   xmlns:rdf="http://www.w3.org/1999/02/22-rdf-syntax-ns#"
   xmlns:cc="http://creativecommons.org/ns#"
   xmlns:dc="http://purl.org/dc/elements/1.1/"><metadata
   id="metadata621"><rdf:RDF><cc:Work
       rdf:about=""><dc:format>image/svg+xml</dc:format><dc:type
         rdf:resource="http://purl.org/dc/dcmitype/StillImage" /><dc:title /></cc:Work></rdf:RDF></metadata><defs
   id="defs619" /><sodipodi:namedview
   pagecolor="#ffffff"
   bordercolor="#666666"
   borderopacity="1"
   objecttolerance="10"
   gridtolerance="10"
   guidetolerance="10"
   inkscape:pageopacity="0"
   inkscape:pageshadow="2"
   inkscape:window-width="1860"
   inkscape:window-height="1016"
   id="namedview617"
   showgrid="false"
   inkscape:zoom="1"
   inkscape:cx="-29"
   inkscape:cy="153.5"
   inkscape:window-x="1980"
   inkscape:window-y="27"
   inkscape:window-maximized="1"
   inkscape:current-layer="图层_1"
   inkscape:showpageshadow="2"
   inkscape:pagecheckerboard="0"
   inkscape:deskcolor="#d1d1d1" />



















































































































































































































































































































<path
   id="path2"
   d="M 139.76364,14.459143 V 185.54489 c 0,4.01307 -1.4076,7.42922 -4.21473,10.24038 C 132.73775,198.5924 129.3216,200 125.30853,200 H 14.459143 C 10.442042,200 7.025893,198.5924 4.214729,195.78527 1.403565,192.97411 0,189.55796 0,185.54489 V 14.459143 C 0,10.446076 1.403565,7.029927 4.214729,4.218763 7.025893,1.407599 10.438009,0 14.459143,0 H 125.3045 c 4.01307,0 7.42921,1.407599 10.24038,4.218763 2.81116,2.811164 4.21876,6.22328 4.21876,10.24038 z"
   inkscape:connector-curvature="0"
   style="fill:#ffffff;stroke-width:4.03323"
   sodipodi:nodetypes="sscsscsssssss" /><path
   inkscape:connector-curvature="0"
   id="path50"
   d="m 57.352589,66.503994 c 0,-1.927885 -0.358958,-4.779382 -1.080907,-8.554489 -0.721949,-3.775106 -1.169638,-6.465273 -1.326934,-8.074534 -0.161329,-1.927885 -1.125272,-4.0534 -2.891828,-6.384609 -1.77059,-2.327176 -2.649835,-4.779382 -2.649835,-7.348552 0,-4.013067 0.641284,-6.824231 1.927886,-8.433492 2.891828,0 6.102283,1.407599 9.639429,4.21473 3.533112,2.811164 5.303702,5.66266 5.303702,8.554489 0,1.125272 -0.564653,3.053158 -1.689925,5.783657 -1.125272,2.734532 -1.685892,5.061708 -1.685892,6.989594 0,3.053158 0.802614,5.944987 2.407841,8.671453 2.089215,-1.443898 6.06195,-4.735017 11.930306,-9.87739 5.860288,-5.13834 9.913688,-8.272162 12.168266,-9.397435 4.658385,-2.411873 10.760672,-3.613777 18.314912,-3.613777 1.92789,0 2.89183,0.963943 2.89183,2.891829 0,1.766556 -0.40332,3.174155 -1.2019,4.214729 -0.80665,1.044607 -1.60926,1.685892 -2.41188,1.927886 -0.80664,0.241994 -2.16988,0.520287 -4.09776,0.842946 -9.316772,1.605227 -15.342423,3.133822 -18.068889,4.57772 -4.017101,2.089215 -9.482133,6.908929 -16.387029,14.459143 0.483988,0.641284 2.089215,1.407599 4.819714,2.286844 2.7305,0.883278 4.900379,1.326934 6.505606,1.326934 0.802614,0 1.887554,-0.201662 3.25482,-0.600952 1.363233,-0.39929 2.367508,-0.600952 3.012826,-0.600952 1.121239,0 2.448173,0.362991 3.976768,1.08494 1.524563,0.721949 2.286844,1.806889 2.286844,3.250786 0,2.254578 -0.963943,4.380092 -2.891829,6.384609 -1.927886,2.012584 -3.940469,3.012826 -6.025651,3.012826 -1.927886,0 -4.182464,-0.241994 -6.7476,-0.725982 -2.56917,-0.479955 -4.259095,-0.802614 -5.057675,-0.963943 -7.227555,-0.641284 -11.728644,-2.649835 -13.495201,-6.025651 -0.645317,0 -3.537146,0.842946 -8.675486,2.528837 -5.142373,1.685892 -11.970638,2.932161 -20.480761,3.734775 1.766556,-3.049125 6.263612,-5.900621 13.4952,-8.554489 7.231589,-2.653868 12.200533,-5.170606 14.931032,-7.58248 z"
   style="stroke-width:4.03323" /><path
   style="fill:#870000;stroke-width:4.03323"
   inkscape:connector-curvature="0"
   id="path52"
   d="m 60.728406,144.82133 c -0.645318,0 -1.927886,0.40332 -3.855772,1.20594 l -0.963943,1.92788 c -0.806647,1.2866 -1.528595,2.25055 -2.16988,2.89183 -2.411873,-1.4439 -3.613777,-6.10228 -3.613777,-13.97516 0,-6.10228 0.318625,-10.51867 0.963943,-13.2532 5.944986,-0.96394 12.490925,-2.41188 19.641848,-4.33976 7.142857,-1.92789 11.603614,-2.89183 13.374204,-2.89183 3.371783,0 5.057675,1.12527 5.057675,3.37178 l -1.685892,6.26362 c -1.125272,4.17843 -1.685892,8.51819 -1.685892,13.01524 0,2.56917 0.16133,5.29967 0.483988,8.1915 3.049125,0.16133 6.344277,0.64532 9.881423,1.4439 3.52908,0.80664 7.187219,2.41187 10.962329,4.81971 3.77511,2.41187 5.66266,5.22304 5.66266,8.43349 0,2.73454 -1.04864,4.81972 -3.13382,6.26361 -2.08922,1.4439 -4.73905,2.16988 -7.95354,2.16988 -0.80665,0 -2.613534,0.52433 -5.420665,1.56893 -2.815197,1.04058 -4.940711,1.5649 -6.384609,1.5649 -2.089215,0 -5.904654,-1.08494 -11.446318,-3.25482 -5.541663,-2.16988 -9.437767,-3.97677 -11.684278,-5.42067 -0.806647,0.32266 -1.649593,0.84295 -2.528837,1.5649 -0.883279,0.72598 -1.564895,1.08494 -2.048883,1.08494 -0.806647,0 -3.371784,-0.64129 -7.711543,-1.92789 0,0.16536 -0.04033,0.64532 -0.120997,1.4439 -0.08067,0.80664 -0.16133,1.4076 -0.241994,1.80689 -0.0847,0.40332 -0.16133,0.88327 -0.241994,1.44389 -0.0847,0.56466 -0.282327,1.00428 -0.604985,1.32694 -0.322659,0.32266 -0.721949,0.48399 -1.201904,0.48399 -0.483988,0 -1.008309,-0.32266 -1.568928,-0.96395 -0.564653,-0.64128 -1.044608,-1.48423 -1.443898,-2.52883 -0.403323,-1.04058 -0.806646,-2.04889 -1.201903,-3.01283 -0.403324,-0.96394 -0.762282,-2.00855 -1.08494,-3.13382 -0.326692,-1.12124 -0.564653,-1.84319 -0.721949,-2.16988 h -2.891829 c -3.053158,0 -5.868355,-0.48399 -8.433492,-1.4439 -2.573203,-0.96394 -3.855771,-2.32718 -3.855771,-4.09777 0,-0.15729 0.0363,-0.39929 0.120997,-0.72194 0.07663,-0.32266 0.116964,-0.64129 0.116964,-0.96395 1.447931,0 3.452448,0.16133 6.025651,0.48399 2.56917,0.32266 4.57772,0.48399 6.025651,0.48399 h 0.963943 c -0.161329,-1.28257 -0.483988,-3.09349 -0.963943,-5.42067 -0.483988,-2.32717 -0.883278,-4.25506 -1.205937,-5.78365 -0.326692,-1.52457 -0.483988,-2.69017 -0.483988,-3.49278 0,-0.31863 0.318626,-0.80262 0.963943,-1.4439 1.927886,0.32266 3.331451,1.24627 4.214729,2.77083 0.883279,1.52859 1.64556,3.65411 2.290877,6.38461 0.641284,2.73453 1.447931,4.98104 2.411874,6.7476 2.246511,0 5.299669,-0.64129 9.155441,-1.92789 0,-0.47995 0.04033,-1.60119 0.120997,-3.37178 0.0726,-1.77059 0.116964,-2.97653 0.116964,-3.61781 z m 30.12019,-33.01202 c -4.819715,0 -11.966605,1.4076 -21.444705,4.21473 -9.482132,2.81116 -15.745744,4.21473 -18.794869,4.21473 -9.639429,0 -15.903041,-1.76656 -18.798903,-5.29967 2.891829,-1.76656 5.061709,-2.64984 6.50964,-2.64984 1.601193,0 4.0534,0.40333 7.348552,1.20594 3.291118,0.80665 6.06195,1.20191 8.316528,1.20191 3.210454,0 5.380334,-0.31863 6.505606,-0.96395 1.121239,-0.64128 1.685892,-2.08518 1.685892,-4.33976 0,-0.47995 -0.443656,-0.84294 -1.326934,-1.08494 -0.887312,-0.24199 -1.488264,-0.60095 -1.806889,-1.08494 0,-0.64128 0.120997,-1.12124 0.358958,-1.44389 0.246027,-0.31863 0.641284,-0.75825 1.205937,-1.32694 0.560619,-0.56062 1.000242,-1.1656 1.326933,-1.80689 0.318626,-0.48399 0.923611,-1.48423 1.806889,-3.012823 0.883278,-1.524563 1.605227,-2.56917 2.16988,-3.133823 0.56062,-0.560619 1.242236,-0.842946 2.048883,-0.842946 1.121239,0 1.685892,0.806647 1.685892,2.407841 0,1.286601 -0.120998,2.613531 -0.358958,3.976771 -0.241994,1.36726 -0.645318,2.89183 -1.205937,4.57772 -0.564653,1.68589 -0.927644,3.01282 -1.08494,3.97677 0.322659,0.80664 0.879245,1.20593 1.685892,1.20593 0.963943,0 2.367508,-1.84722 4.214729,-5.54569 1.843188,-3.69445 2.770832,-6.34428 2.770832,-7.949507 0,-0.963943 -0.520288,-1.887554 -1.564895,-2.770832 -1.048641,-0.883278 -1.730257,-1.568928 -2.048883,-2.048883 1.282568,-2.891828 4.097766,-5.138339 8.433492,-6.7476 3.210454,1.125273 4.819714,4.097766 4.819714,8.913447 0,1.605227 -0.681616,3.533113 -2.048882,5.783655 -1.363233,2.25458 -2.129548,4.33976 -2.286844,6.26765 1.282568,-0.16133 3.049125,-0.48399 5.299669,-0.96395 2.250545,-0.48398 4.497056,-0.84294 6.7476,-1.08494 2.246512,-0.24199 4.658385,-0.36299 7.227555,-0.36299 5.13834,0 8.11083,0.56466 8.91345,1.6859 -1.12528,2.25054 -2.89183,3.94046 -5.29967,5.05767 -2.08922,-0.1452 -6.424944,-0.22586 -13.011214,-0.22586 z m -38.553682,46.98717 c 0.641284,1.60523 1.205937,2.89183 1.685891,3.85577 2.246512,-0.48398 4.819715,-1.36323 7.711543,-2.64983 -0.806646,-0.96394 -1.205936,-2.24651 -1.205936,-3.85577 z m 3.613777,-31.81011 v 4.33976 h 0.479955 l 0.483988,0.24199 4.335726,-0.72195 c 0,-1.28257 0.16133,-2.89183 0.483988,-4.81971 z m 4.819715,7.95354 c -0.963943,0.16536 -2.012584,0.32669 -3.12979,0.48398 -0.967976,0 -1.488263,0.0847 -1.568928,0.242 -0.0847,0.16536 -0.120997,0.48399 -0.120997,0.96394 0,0.32266 0,0.64532 0,0.96394 0,0.3267 0.0363,0.88328 0.120997,1.6859 0.08067,0.80664 0.120997,1.36726 0.120997,1.68589 0.802614,0 2.327176,-0.1573 4.577721,-0.47996 z m 6.021618,-10.11939 c 0,0.80665 -0.120997,1.68589 -0.362991,2.65387 -0.241994,0.96394 -0.358958,1.76656 -0.358958,2.40784 1.601194,-0.32266 3.452448,-0.68162 5.541663,-1.08494 2.085182,-0.39929 3.613778,-0.68162 4.57772,-0.84295 0,-0.80261 0.0363,-1.76655 0.120997,-2.89182 0.08066,-1.12124 0.120997,-2.00855 0.120997,-2.64984 -1.443897,0.32266 -3.133822,0.76228 -5.057675,1.32694 -1.931919,0.56061 -3.460514,0.92361 -4.581753,1.0809 z m -0.721949,9.15544 v 5.29967 c 2.246511,-0.16133 5.460998,-0.88328 9.639429,-2.16988 0,-2.41187 0.08066,-4.25506 0.241994,-5.54569 -3.537146,1.13333 -6.828265,1.93595 -9.881423,2.4159 z m 0.483988,9.63943 v 6.50561 c 3.529079,-0.64129 6.662902,-1.52456 9.397435,-2.64984 0,-2.7305 -0.0847,-4.81971 -0.241994,-6.26361 -0.806647,0.32266 -2.210213,0.72195 -4.21473,1.20594 -2.012583,0.47995 -3.658143,0.88328 -4.940711,1.2019 z m 0.237961,10.84133 c 0,2.57321 0.39929,3.85578 1.205937,3.85578 0.641284,0 1.326933,-0.121 2.048882,-0.35896 0.721949,-0.242 1.685892,-0.60095 2.891829,-1.08494 1.205937,-0.48399 2.367508,-0.87925 3.49278,-1.20594 -0.322658,-1.76656 -0.403323,-3.04912 -0.241994,-3.85577 -0.959909,0.16536 -4.093732,1.04864 -9.397434,2.64983 z m 20.2428,-2.88779 c 0,0.32669 0.120997,1.04864 0.358958,2.16988 0.241994,1.12527 0.362991,2.09325 0.362991,2.89183 0,0.80664 -0.241994,1.68589 -0.721949,2.64983 -3.053158,2.08922 -6.025651,3.12979 -8.91748,3.12979 -0.161329,-0.1573 -0.403323,-0.64128 -0.721949,-1.4439 -0.322658,-0.80261 -0.564652,-1.36323 -0.721949,-1.68589 -0.963942,0.32266 -2.048882,0.88328 -3.250786,1.68589 -1.205937,0.80665 -2.210212,1.36727 -3.012826,1.68589 0.637251,0.96395 2.246512,1.96822 4.819715,3.01283 2.56917,1.04864 4.57772,1.56893 6.021618,1.56893 0.963943,0 1.887553,-0.20166 2.770831,-0.60095 0.883279,-0.39929 1.847222,-1.00428 2.891829,-1.80689 1.040574,-0.80262 1.887553,-1.36324 2.528838,-1.68589 0.802613,-0.32266 2.367508,-0.56062 4.698717,-0.72599 2.327176,-0.15729 4.097766,-0.60095 5.299669,-1.3229 1.201899,-0.72598 1.806889,-1.96821 1.806889,-3.73477 0,-1.28257 -1.685892,-2.52884 -5.057675,-3.73478 -3.371784,-1.20593 -6.424942,-1.89158 -9.155441,-2.05291 z" /><text
   xml:space="preserve"
   style="font-style:normal;font-variant:normal;font-weight:bold;font-stretch:normal;font-size:30px;line-height:1.25;font-family:Lato;-inkscape-font-specification:'Lato Bold'"
   x="113.08105"
   y="29.760742"
   id="text6639"><tspan
     sodipodi:role="line"
     id="tspan6637"
     x="113.08105"
     y="29.760742"
     style="font-style:normal;font-variant:normal;font-weight:bold;font-stretch:normal;font-family:'Liberation Mono';-inkscape-font-specification:'Liberation Mono Bold'">7</tspan></text></svg>
