<?xml version="1.0" encoding="UTF-8" standalone="no"?>
<!-- Generator: Adobe Illustrator 16.0.0, SVG Export Plug-In . SVG Version: 6.00 Build 0)  -->

<svg
   version="1.1"
   id="图层_1"
   x="0px"
   y="0px"
   width="139.76401"
   height="200"
   viewBox="0 0 139.764 200"
   enable-background="new 0 0 714 341"
   xml:space="preserve"
   sodipodi:docname="pei-1.svg"
   inkscape:version="1.2.2 (b0a8486, 2022-12-01)"
   xmlns:inkscape="http://www.inkscape.org/namespaces/inkscape"
   xmlns:sodipodi="http://sodipodi.sourceforge.net/DTD/sodipodi-0.dtd"
   xmlns="http://www.w3.org/2000/svg"
   xmlns:svg="http://www.w3.org/2000/svg"
   xmlns:rdf="http://www.w3.org/1999/02/22-rdf-syntax-ns#"
   xmlns:cc="http://creativecommons.org/ns#"
   xmlns:dc="http://purl.org/dc/elements/1.1/"><metadata
   id="metadata621"><rdf:RDF><cc:Work
       rdf:about=""><dc:format>image/svg+xml</dc:format><dc:type
         rdf:resource="http://purl.org/dc/dcmitype/StillImage" /><dc:title /></cc:Work></rdf:RDF></metadata><defs
   id="defs619" /><sodipodi:namedview
   pagecolor="#ffffff"
   bordercolor="#666666"
   borderopacity="1"
   objecttolerance="10"
   gridtolerance="10"
   guidetolerance="10"
   inkscape:pageopacity="0"
   inkscape:pageshadow="2"
   inkscape:window-width="1860"
   inkscape:window-height="1016"
   id="namedview617"
   showgrid="false"
   inkscape:zoom="1"
   inkscape:cx="-3"
   inkscape:cy="113.5"
   inkscape:window-x="1980"
   inkscape:window-y="27"
   inkscape:window-maximized="1"
   inkscape:current-layer="图层_1"
   inkscape:showpageshadow="2"
   inkscape:pagecheckerboard="0"
   inkscape:deskcolor="#d1d1d1" />



















































































































































































































































































































<path
   id="path2"
   d="m 139.76364,14.45914 v 171.08575 c 0,4.01307 -1.4076,7.42922 -4.21473,10.24038 C 132.73775,198.5924 129.3216,200 125.30853,200 H 14.459143 C 10.442042,200 7.025893,198.5924 4.214729,195.78527 1.403565,192.97411 0,189.55796 0,185.54489 V 14.45914 C 0,10.44608 1.403565,7.02993 4.214729,4.21876 7.025893,1.4076 10.438009,0 14.459143,0 H 125.3045 c 4.01307,0 7.42921,1.4076 10.24038,4.21876 2.81116,2.81117 4.21876,6.22328 4.21876,10.24038 z"
   inkscape:connector-curvature="0"
   style="fill:#ffffff;stroke-width:4.03323"
   sodipodi:nodetypes="sscsscsssssss" /><path
   style="fill:#870000;stroke-width:4.03315"
   inkscape:connector-curvature="0"
   id="path70"
   d="m 39.76285,113.01296 c 0,0.32669 -0.165359,0.48398 -0.483978,0.48398 -0.645304,0 -2.89177,-1.60519 -6.747464,-4.81961 -1.286576,-0.96393 -2.855472,-1.88752 -4.698623,-2.77481 -1.847184,-0.87923 -3.335417,-1.56487 -4.456633,-2.04885 -1.12525,-0.47994 -1.685858,-0.80259 -1.685858,-0.96392 0,-0.32265 0.641271,-0.47994 1.927847,-0.47994 2.565085,0.16132 5.178568,1.04458 7.828349,2.64978 2.649781,1.60923 4.698622,3.17409 6.142491,4.69862 1.447902,1.5326 2.173869,2.61752 2.173869,3.25475 z M 25.062009,92.532616 c 0.963924,0 2.569119,0.403315 4.819618,1.201879 2.246466,0.806631 5.097904,2.492488 8.554316,5.061606 3.452379,2.573149 6.223154,5.783539 8.312327,9.639239 0.641272,1.60922 0.963924,2.49248 0.963924,2.64978 0,0.48398 -0.161326,0.72193 -0.479945,0.72193 l -2.649782,-2.64978 c -8.997963,-8.8326 -15.584101,-14.051503 -19.758414,-15.660731 -0.483978,-0.161326 -0.721934,-0.399282 -0.721934,-0.721934 -0.004,-0.157293 0.314586,-0.241989 0.95989,-0.241989 z m 10.603158,24.336044 c -1.286575,0 -3.496743,-0.36299 -6.630502,-1.08492 -3.129727,-0.72193 -4.698623,-1.4842 -4.698623,-2.2868 0,-0.32265 0.88326,-0.48398 2.649781,-0.48398 0.802597,0 1.964145,0.28232 3.496743,0.84293 1.524532,0.56464 2.851439,1.12525 3.976689,1.68586 1.121216,0.56464 1.685857,0.92359 1.685857,1.08492 0,0.16536 -0.161326,0.24199 -0.479945,0.24199 z m 6.263486,-6.0215 c 0,-0.15729 0.157293,-0.24199 0.483978,-0.24199 0.479946,0 1.766521,1.04862 3.855694,3.13376 2.08514,2.08917 3.13376,3.6984 3.13376,4.81962 0,1.12525 -0.483979,1.68586 -1.443869,1.68586 -1.286576,0 -2.89177,-0.39929 -4.819617,-1.20592 -1.927847,-0.80259 -2.89177,-1.44386 -2.89177,-1.92784 0,-0.1573 0.241989,-0.24199 0.721934,-0.24199 0.483978,0 1.326907,0.16132 2.528786,0.48398 1.205913,0.32265 1.887516,0.47994 2.048842,0.47994 0.322652,0 0.483978,-0.15729 0.483978,-0.47994 0,-0.64128 -0.685636,-1.80686 -2.048841,-3.49675 -1.371272,-1.68585 -2.052875,-2.68608 -2.052875,-3.00873 z" /><path
   style="fill:#870000;stroke-width:4.03315"
   inkscape:connector-curvature="0"
   id="path72"
   d="m 64.098892,168.43655 c 0,0.47994 -0.322652,0.72193 -0.963923,0.72193 -0.326685,0 -0.766299,-0.20166 -1.326907,-0.60094 -0.564642,-0.39928 -1.004255,-0.52028 -1.326907,-0.36298 -0.161326,0 -1.605195,0.92762 -4.335639,2.77077 -2.734478,1.84719 -4.500999,2.77481 -5.299563,2.77481 -0.479945,0 -0.721934,-0.24199 -0.721934,-0.72597 0,-0.16132 0.758233,-0.96392 2.290831,-2.40779 1.524531,-1.44387 2.286797,-2.24646 2.286797,-2.41182 0,-0.1573 -0.161326,-0.24199 -0.483978,-0.24199 -0.963924,0 -2.129505,0.12099 -3.49271,0.36298 -1.367239,0.24199 -2.129505,0.35895 -2.286798,0.35895 -0.483978,0 -0.725967,-0.15729 -0.725967,-0.48398 0,-1.12121 2.972433,-2.00447 8.9173,-2.64978 1.121216,-0.16132 1.843151,-0.56061 2.169836,-1.20591 0.318619,-0.64127 0.483978,-2.32713 0.483978,-5.06161 0,-1.12121 -0.120994,-2.28679 -0.362983,-3.49271 -0.24199,-1.20591 -0.358951,-1.88751 -0.358951,-2.04884 0,-0.31862 0.241989,-0.48398 0.721934,-0.48398 1.766521,0 3.049064,0.64531 3.855694,1.92785 0.157293,0.32265 0.241989,0.96392 0.241989,1.92785 0,3.37171 -0.403315,6.26348 -1.205912,8.67531 1.278509,0.97199 1.923813,1.85525 1.923813,2.65785 z" /><path
   style="fill:#870000;stroke-width:4.03315"
   inkscape:connector-curvature="0"
   id="path74"
   d="m 76.387908,162.41102 c 0,2.25049 0.197625,3.7347 0.60094,4.45663 0.399282,0.72597 1.363205,1.20591 2.89177,1.4479 1.524532,0.24199 2.851439,0.68564 3.976689,1.32691 0,0.16132 0.120994,0.32265 0.362983,0.47994 0.241989,0.16536 0.358951,0.32669 0.358951,0.48398 0,0.32669 -0.403315,0.48398 -1.205913,0.48398 -0.322652,0 -1.488233,-0.15729 -3.49271,-0.48398 -2.012543,-0.31862 -3.335417,-0.48398 -3.976688,-0.48398 -0.161326,0 -1.004255,0.60094 -2.528787,1.80686 -1.528565,1.20591 -2.690113,1.80685 -3.496743,1.80685 -0.322652,0 -0.479945,-0.24199 -0.479945,-0.72597 0,-0.16133 0.318619,-0.56464 0.963923,-1.20188 1.282543,-1.60519 1.685858,-2.41182 1.205913,-2.41182 -0.161326,0 -1.169614,0.40331 -3.012765,1.20591 -1.847184,0.80663 -3.093428,1.20591 -3.734699,1.20591 -0.483979,0 -0.721935,-0.15729 -0.721935,-0.48398 0,-0.48398 1.443869,-1.64552 4.335639,-3.49271 2.891771,-1.84718 4.339672,-3.97669 4.339672,-6.38448 0,-0.64127 -0.04033,-1.40353 -0.120994,-2.2868 -0.08066,-0.87922 -0.201658,-1.84718 -0.358951,-2.89177 -0.161326,-1.04055 -0.241989,-1.88348 -0.241989,-2.52878 -0.165359,-0.48398 0,-0.72194 0.479945,-0.72194 h 0.241989 c 2.730445,0 4.097683,0.80663 4.097683,2.4078 0,0.6453 -0.0847,1.80685 -0.241989,3.49674 -0.165359,1.68182 -0.241989,2.85144 -0.241989,3.48868 z" /><path
   inkscape:connector-curvature="0"
   id="path76"
   d="m 44.336445,67.954584 c 0,-0.318619 -0.35895,-0.879227 -1.084918,-1.685857 -0.721934,-0.802598 -1.568896,-1.766521 -2.528786,-2.891771 -0.963924,-1.121216 -1.685858,-1.927847 -2.169837,-2.407792 -6.590171,-8.99393 -9.881223,-14.616145 -9.881223,-16.866644 0,-0.483978 0.241989,-0.725967 0.721934,-0.725967 0.322652,0 0.721934,0.241989 1.205913,0.725967 9.316582,13.974874 14.454818,20.964327 15.422775,20.964327 0.318619,0 0.483978,-0.161326 0.483978,-0.483978 0,-0.483979 -2.133537,-3.529009 -6.38448,-9.15929 -4.259009,-5.622214 -6.384481,-9.316582 -6.384481,-11.083103 0,-0.483978 0.24199,-0.725967 0.721935,-0.725967 0.318619,0 2.569118,3.053096 6.747464,9.159289 4.174313,6.106193 6.586138,9.15929 7.227409,9.15929 0.318619,0 0.479945,-0.08066 0.479945,-0.24199 0,-0.641271 -1.887515,-3.654036 -5.662546,-9.038294 -3.779064,-5.380226 -5.662546,-8.473654 -5.662546,-9.276251 0,-0.479945 0.241989,-0.721934 0.721934,-0.721934 0.641272,0 2.488455,2.573151 5.541552,7.711387 3.049063,5.14227 4.819617,7.711388 5.303595,7.711388 0.318619,0 0.479946,-0.157293 0.479946,-0.483979 0,-0.318619 -0.883261,-2.085139 -2.649782,-5.299562 -1.76652,-3.210389 -2.649781,-5.299562 -2.649781,-6.267519 0,-0.641271 0.157293,-0.963923 0.483978,-0.963923 0.483979,0 1.847184,2.371493 4.097683,7.106414 2.246466,4.738955 3.452379,7.110448 3.613705,7.110448 0.318619,0 0.479945,-0.322652 0.479945,-0.963923 0,-0.641271 -0.963923,-3.129727 -2.89177,-7.469399 -1.927847,-4.339672 -2.891771,-6.828127 -2.891771,-7.473431 0,-0.479945 0.24199,-0.721935 0.721935,-0.721935 0.318619,0 1.524531,2.331163 3.613704,6.989454 l 3.371716,6.98542 c 0.963923,1.286576 1.601161,1.685858 1.927847,1.205912 0,-0.161326 -1.004255,-3.654036 -3.012765,-10.482163 -2.00851,-6.824094 -3.012765,-11.36139 -3.012765,-13.61189 0,-0.963923 0.241989,-1.443868 0.721934,-1.443868 0.641272,0 1.887516,3.734699 3.734699,11.204098 1.847184,7.473431 3.012765,11.204097 3.492711,11.204097 0.641271,0 0.963923,-0.399282 0.963923,-1.205912 0,-0.641272 -0.721934,-3.412047 -2.169836,-8.312328 -1.443869,-4.90028 -2.169836,-8.953598 -2.169836,-12.168021 0,-1.605195 0.157293,-2.411825 0.479945,-2.411825 1.121216,0 2.327129,3.41608 3.613705,10.244207 1.282542,6.828128 2.08514,10.240175 2.411825,10.240175 0.479945,0 0.721934,-0.802598 0.721934,-2.411826 0,-0.641271 -0.28232,-3.049063 -0.842929,-7.227409 -0.564641,-4.174313 -0.842929,-6.98542 -0.842929,-8.433322 0,-2.569118 0.24199,-3.855694 0.721935,-3.855694 0.641271,0 1.282542,1.968179 1.927847,5.904536 0.641271,3.936356 0.963923,7.751719 0.963923,11.446086 0,2.411826 0.399282,3.613705 1.205913,3.613705 0.483978,0 0.721934,-1.282542 0.721934,-3.855694 0,-1.447901 -0.120995,-3.77503 -0.358951,-6.989453 -0.241989,-3.210389 -0.362983,-5.380225 -0.362983,-6.505475 0,-1.927847 0.241989,-2.89177 0.721934,-2.89177 0.802597,0 1.403537,3.214422 1.806852,9.639234 0.399282,6.428845 0.842929,9.639235 1.326907,9.639235 0.802598,0 1.205913,-2.411826 1.205913,-7.22741 0,-4.97691 0.157293,-7.469398 0.483978,-7.469398 1.121217,0 1.685858,2.573151 1.685858,7.711387 0,0.645305 -0.04033,1.685858 -0.120994,3.129727 -0.0847,1.443868 -0.120995,2.492488 -0.120995,3.133759 0,1.443869 0.399282,1.847184 1.205913,1.205913 0.318619,-0.161326 0.479945,-0.399282 0.479945,-0.721934 0.161326,-0.322653 0.483978,-1.605195 0.963923,-3.855694 0.479945,-2.246466 1.000222,-4.174313 1.564863,-5.783541 0.560609,-1.601161 1.165581,-2.407792 1.806853,-2.407792 0.479945,0 0.721934,0.564641 0.721934,1.685858 0,0.80663 -0.403315,2.528786 -1.205913,5.182601 -0.80663,2.649781 -1.205912,4.456633 -1.205912,5.420557 0,0.322652 0.241989,0.483978 0.721934,0.483978 0.483978,0 1.847184,-3.371715 4.097683,-10.123213 2.246466,-6.747464 3.694368,-10.119179 4.335639,-10.119179 0.483978,0 0.721934,1.201879 0.721934,3.613704 -0.161326,1.286576 -0.685636,3.214423 -1.568896,5.783541 -0.88326,2.573151 -1.685858,4.863982 -2.407792,6.868459 -0.721934,2.012543 -1.084918,3.093428 -1.084918,3.254754 0,0.479945 0.241989,0.721934 0.721934,0.721934 0.483978,0 2.048842,-3.254754 4.698623,-9.760229 2.653814,-6.505475 4.37597,-9.756196 5.182601,-9.756196 0.322652,0 0.483978,0.322652 0.483978,0.963924 0,1.770554 -1.084918,5.061606 -3.254754,9.881223 -2.169836,4.819617 -3.254754,7.554095 -3.254754,8.191333 0.161326,0.161326 0.322652,0.241989 0.483978,0.241989 0.479945,0 2.206135,-2.690113 5.182601,-8.070338 2.9684,-5.380226 4.61796,-8.070338 4.940612,-8.070338 0.483978,0 0.721934,0.326685 0.721934,0.963923 0,0.806631 -0.721934,2.730444 -2.169836,5.783541 -0.963923,1.770554 -1.968178,3.49271 -3.012765,5.182601 -1.044586,1.685858 -1.806852,2.932102 -2.286797,3.734699 -0.483978,0.806631 -0.721934,1.286576 -0.721934,1.443869 0,0.322652 0.241989,0.483978 0.721934,0.483978 0.641271,0 2.169836,-2.048841 4.577628,-6.146524 2.407792,-4.097683 3.770998,-6.142492 4.097683,-6.142492 0.483978,0 0.721934,0.322653 0.721934,0.963924 0,1.286575 -1.125249,3.613704 -3.371715,6.989453 l -3.613705,5.057573 c 0,0.483979 0.157293,0.725968 0.479945,0.725968 0.322652,0 1.645526,-1.605195 3.976689,-4.819618 2.327129,-3.210389 3.815362,-4.819617 4.456632,-4.819617 0.32265,0 0.47995,0.322652 0.47995,0.963924 0,0.963923 -1.48824,3.097461 -4.456637,6.38448 -2.972434,3.295086 -4.456634,5.101938 -4.456634,5.420557 l 0.483979,0.483978 c 1.121216,0 4.335638,-2.649781 9.639232,-7.953376 4.81962,-5.299563 7.47343,-7.953377 7.95338,-7.953377 0.32265,0 0.48398,0.326685 0.48398,0.963923 0,1.766521 -2.61349,4.980944 -7.83239,9.639235 -5.222928,4.662324 -7.828344,7.070116 -7.828344,7.227409 0,0.322652 0.157293,0.479945 0.479945,0.479945 1.282543,0 4.779289,-2.569118 10.482159,-7.711387 5.69885,-5.138237 8.87294,-7.711388 9.51824,-7.711388 0.32266,0 0.48398,0.241989 0.48398,0.721934 0,1.129283 -3.05309,4.218678 -9.15929,9.280284 -6.10619,5.057574 -9.155253,7.751719 -9.155253,8.070338 0,0.479946 0.0363,0.721935 0.120995,0.721935 0.08066,0 0.278287,0 0.600939,0 0.479946,0 3.287019,-1.887516 8.433319,-5.662546 5.13824,-3.770998 8.11067,-5.662546 8.91327,-5.662546 0.32265,0 0.48398,0.161326 0.48398,0.483978 0,0.641271 -0.48398,1.363205 -1.44387,2.169836 -4.81962,3.533041 -9.15526,6.505475 -13.01095,8.913267 -1.4479,0.963923 -2.16984,1.685858 -2.16984,2.169836 0,0.483978 0.1573,0.721934 0.47995,0.721934 0.16133,0 2.29083,-1.282542 6.38448,-3.855694 4.09768,-2.569118 6.78376,-3.855693 8.07034,-3.855693 0.8026,0 0.96392,0.403315 0.47994,1.201879 -0.16132,0.483978 -1.20188,1.250277 -3.12972,2.290831 -1.92785,1.044586 -4.01702,2.169836 -6.26349,3.371715 -2.25453,1.205913 -3.6984,2.048842 -4.33967,2.528787 -0.80663,0.80663 -0.56464,1.205912 0.72193,1.205912 0.31862,0 2.08514,-0.88326 5.29957,-2.649781 3.21038,-1.766521 5.38022,-2.653814 6.50547,-2.653814 0.8026,0 1.20188,0.326685 1.20188,0.963923 0,0.322653 -1.96818,1.367239 -5.90454,3.13376 -3.93635,1.766521 -5.9005,2.972433 -5.9005,3.613704 0,0.483979 0.31862,0.721935 0.96393,0.721935 0.16132,0 1.96414,-0.439614 5.42459,-1.326907 3.44834,-0.879228 5.42055,-1.326908 5.9005,-1.326908 1.28254,0 1.92784,0.326686 1.92784,0.963924 0,0.645304 -2.49248,1.528565 -7.46939,2.649781 -4.98095,1.12525 -7.4694,1.927847 -7.4694,2.407792 0,0.645305 0.24199,0.963924 0.72193,0.963924 0.8026,0 2.9684,-0.439614 6.50548,-1.322874 3.52901,-0.883261 5.69884,-1.326908 6.50547,-1.326908 0.8026,0 1.20591,0.24199 1.20591,0.721935 0,0.479945 -0.36298,0.842929 -1.08491,1.084918 -0.72597,0.241989 -2.21017,0.564641 -4.45664,0.963923 -2.25453,0.403315 -4.42033,0.923592 -6.50547,1.564863 -0.48398,0.161326 -0.84293,0.403316 -1.08492,0.721935 -0.24199,0.326685 -0.24199,0.600939 0,0.842928 0.24199,0.24199 0.60094,0.358951 1.08492,0.358951 0.8026,0 2.56912,-0.318619 5.29956,-0.963923 2.73044,-0.641272 4.33564,-0.963924 4.81962,-0.963924 0.8026,0 1.20591,0.241989 1.20591,0.721934 0,0.963924 -3.6137,2.012544 -10.84111,3.13376 -0.32669,0 -0.60094,0.161326 -0.84293,0.483978 -0.24199,0.322652 -0.24199,0.641271 0,0.963924 0.24199,0.322652 0.6816,0.483978 1.3269,0.483978 0.47995,0 1.80686,-0.241989 3.97266,-0.721934 2.16984,-0.483979 3.65404,-0.721935 4.45663,-0.721935 0.48398,0 0.72194,0.0847 0.72194,0.24199 0,0.80663 -1.77056,1.564863 -5.29956,2.29083 -3.53305,0.721934 -5.29957,1.322874 -5.29957,1.806852 0,0.483979 0.56061,0.721935 1.68586,0.721935 0.8026,0 2.08514,-0.241989 3.85569,-0.721935 l 2.64979,-0.483978 c 0.80259,0 1.20591,0.241989 1.20591,0.725968 0,0.80663 -2.2868,1.528564 -6.86846,2.169836 -4.57763,0.645304 -6.86846,1.528564 -6.86846,2.649781 0.15729,0.161326 0.39928,0.241989 0.72194,0.241989 0.31861,0 1.16154,-0.157293 2.52878,-0.483978 1.36321,-0.318619 2.36746,-0.479945 3.01277,-0.479945 0.96392,0 1.44387,0.322652 1.44387,0.963923 0,0.483978 -1.12525,0.88326 -3.37172,1.205913 -2.2505,0.322652 -3.6984,0.483978 -4.33564,0.483978 -0.80663,0 -1.20591,0.241989 -1.20591,0.721934 0,0.322652 0.24199,0.479945 0.72193,0.479945 0.64127,0 1.52453,-0.08066 2.64978,-0.241989 1.12122,-0.161326 1.76652,-0.241989 1.92785,-0.241989 0.64127,0 0.96392,0.241989 0.96392,0.721934 0,1.12525 -2.25453,1.685858 -6.74746,1.685858 -0.479945,0.161326 -0.721934,0.725968 -0.721934,1.685858 0.322652,0 0.883264,-0.04033 1.685854,-0.120995 0.8026,-0.08066 1.40354,-0.161326 1.80686,-0.241989 0.39928,-0.08066 0.67757,-0.0363 0.84292,0.120995 0,0.483978 -0.36298,0.842929 -1.08491,1.084918 -0.72194,0.241989 -1.68586,0.52431 -2.891774,0.842929 -1.205912,0.326685 -2.210167,0.80663 -3.012764,1.447899 -1.605195,1.44387 -3.335418,2.2868 -5.182601,2.52879 -1.847184,0.24199 -3.093428,0.44365 -3.7347,0.60094 -0.161326,0 -1.564863,1.16961 -4.218677,3.49271 -2.649781,2.33116 -5.263264,3.49271 -7.828349,3.49271 -0.645305,0 -1.766521,-0.27829 -3.371716,-0.84293 -1.605194,-0.56061 -2.811107,-0.84293 -3.613704,-0.84293 -0.479945,0 -1.443869,0.24199 -2.891771,0.72194 -1.443868,0.48397 -2.649781,0.72193 -3.613704,0.72193 -1.770554,0 -3.371716,-0.6816 -4.819617,-2.04884 -1.447902,-1.36321 -2.2505,-2.12547 -2.411826,-2.2868 -0.161326,0 -0.923592,-0.20166 -2.286797,-0.60094 -1.367239,-0.39928 -2.492488,-0.8026 -3.371716,-1.20591 -0.887293,-0.39928 -1.326907,-0.84293 -1.326907,-1.32691 0,-0.32265 0.157293,-0.47994 0.483978,-0.47994 0.479946,0 1.20188,0.20165 2.169837,0.60094 0.963923,0.40331 1.601161,0.60094 1.927846,0.60094 0.318619,0 0.479946,-0.1573 0.479946,-0.48398 0,-0.47995 -1.367239,-1.04056 -4.097683,-1.68586 -2.734478,-0.64127 -4.097683,-1.28254 -4.097683,-1.927847 0,-0.318619 0.241989,-0.483979 0.721934,-0.483979 0.641271,0 1.685858,0.16536 3.133759,0.483979 l 2.169837,0.721937 c 0.802597,0 1.205912,-0.0807 1.205912,-0.241992 0,-0.963924 -0.564641,-1.443869 -1.685858,-1.443869 -6.590171,-1.121216 -9.881223,-2.327129 -9.881223,-3.613705 0,-0.479945 0.241989,-0.721934 0.721934,-0.721934 0.479945,0 1.964145,0.483979 4.456634,1.443869 2.488455,0.963923 4.057351,1.443868 4.702655,1.443868 0.479946,0 0.721935,-0.157293 0.721935,-0.479945 0,-0.483978 -0.60094,-0.963923 -1.806853,-1.443868 -1.205912,-0.483979 -2.734477,-1.044587 -4.577628,-1.685858 -1.847184,-0.641271 -3.335417,-1.282543 -4.456633,-1.927847 -3.053097,-1.927847 -6.106193,-4.416302 -9.15929,-7.469398 -3.053096,-3.049064 -4.577628,-4.976911 -4.577628,-5.783541 0,-0.641271 0.241989,-0.963924 0.721935,-0.963924 0.318619,0 2.00851,1.407571 5.057573,4.214645 3.049063,2.81514 5.061606,4.218677 6.02553,4.218677 0.322652,0 0.483978,-0.241989 0.483978,-0.725967 0,-0.318619 -0.52431,-0.879227 -1.564863,-1.685858 -1.04862,-0.802597 -2.371494,-1.927847 -3.976689,-3.371715 -1.609227,-1.443869 -2.972433,-2.972434 -4.097682,-4.577628 -0.479946,-0.641272 -0.762266,-1.205913 -0.842929,-1.685858 -0.08066,-0.483978 -0.08066,-0.883261 0,-1.205913 0.08066,-0.322652 0.201657,-0.483978 0.362983,-0.483978 0.322653,0 1.964146,1.649559 4.940612,4.940612 2.9684,3.295085 4.940612,4.940612 5.900502,4.940612 0.322653,0 0.483979,-0.157293 0.483979,-0.483979 0,-0.318619 -1.770554,-2.488455 -5.299563,-6.505475 -3.533041,-4.012986 -5.299562,-6.582105 -5.299562,-7.711387 0,-0.483979 0.157293,-0.721935 0.483978,-0.721935 0.318619,0 2.125472,1.891549 5.420557,5.662546 3.291053,3.779064 5.50122,5.662547 6.62647,5.662547 l 0.241989,-0.483979 c 0,-0.157293 -1.927847,-2.411825 -5.783541,-6.747464 -3.855694,-4.339672 -5.783541,-7.388735 -5.783541,-9.159289 0,-0.318619 0.08066,-0.479945 0.24199,-0.479945 0.483978,0 2.488455,2.286797 6.025529,6.868458 3.533042,4.577628 5.702878,6.868459 6.505475,6.868459 0.479946,0 0.721935,-0.161326 0.721935,-0.483978 0,-0.479945 -0.923592,-1.883482 -2.770776,-4.214645 -1.847184,-2.327129 -3.855694,-4.819617 -6.02553,-7.469398 -2.169836,-2.649781 -3.577406,-4.456634 -4.218677,-5.420557 -0.963924,-1.605195 -0.883261,-2.411825 0.241989,-2.411825 0.318619,0 2.246466,2.250499 5.78354,6.747464 3.533042,4.500998 5.783541,6.747464 6.747465,6.747464 0.330718,0.0081 0.492044,-0.0726 0.492044,-0.233923 z m 5.303596,12.531005 c -1.286576,0 -2.649781,0.520277 -4.097683,1.564863 -1.443869,1.04862 -2.169836,2.855472 -2.169836,5.420557 0,0.645305 0.120994,1.286576 0.35895,1.927847 0.241989,0.645305 0.883261,1.326907 1.927847,2.048842 1.044587,0.721934 2.367461,1.084918 3.976689,1.084918 4.496965,0 6.747464,-1.847184 6.747464,-5.545585 0,-1.766521 -0.685636,-3.291053 -2.048842,-4.577628 -1.363205,-1.27851 -2.928069,-1.923814 -4.694589,-1.923814 z m 0.241989,3.613705 c 1.605195,0 2.411825,0.963923 2.411825,2.89177 0,1.286576 -0.88326,1.927847 -2.649781,1.927847 -1.605195,0 -2.407792,-0.641271 -2.407792,-1.927847 -0.004,-1.927847 0.875194,-2.89177 2.645748,-2.89177 z M 61.687067,71.3263 c 0,-1.766521 -0.645304,-3.331384 -1.927847,-4.698623 -1.286575,-1.363205 -2.734477,-2.048841 -4.335639,-2.048841 -2.089173,0 -3.855693,0.600939 -5.299562,1.806852 -1.443869,1.205913 -2.169836,2.855472 -2.169836,4.940612 0,4.178346 2.327129,6.263486 6.98542,6.263486 1.766521,0 3.331384,-0.641272 4.698623,-1.927847 1.363205,-1.27851 2.048841,-2.726411 2.048841,-4.335639 z m -9.397245,0 c 0,-0.641271 0.322652,-1.282543 0.963923,-1.927847 0.641272,-0.641271 1.282543,-0.963924 1.927847,-0.963924 0.641271,0 1.242211,0.322653 1.806853,0.963924 0.560608,0.645304 0.842928,1.286576 0.842928,1.927847 0,1.443868 -0.963923,2.169836 -2.89177,2.169836 -1.766521,0 -2.649781,-0.721934 -2.649781,-2.169836 z m 15.422775,29.88163 c 0,-4.178349 -2.012543,-6.267522 -6.02553,-6.267522 -3.855694,0 -5.78354,1.685857 -5.78354,5.061602 0,1.6052 0.604972,3.0531 1.806852,4.33564 1.205912,1.28658 2.851439,1.92785 4.940612,1.92785 3.375748,0.004 5.061606,-1.68182 5.061606,-5.05757 z M 65.062816,79.521666 c -1.770554,0 -3.214423,0.685636 -4.335639,2.048841 -1.12525,1.367239 -1.685858,2.936135 -1.685858,4.698623 0,4.01702 2.569118,6.02553 7.711388,6.02553 1.927847,0 3.412047,-0.721935 4.456633,-2.169836 1.040554,-1.443869 1.564863,-2.807075 1.564863,-4.097683 0,-4.335639 -2.573151,-6.505475 -7.711387,-6.505475 z m -5.541552,21.206314 c 0,-1.605193 0.802598,-2.411824 2.411826,-2.411824 1.601161,0 2.407792,0.887294 2.407792,2.649784 0,1.28657 -0.721935,1.92784 -2.169836,1.92784 -1.770554,0 -2.649782,-0.72193 -2.649782,-2.1658 z M 73.496138,58.073361 c 0,-1.121217 -0.52431,-2.246466 -1.564863,-3.371716 -1.04862,-1.121216 -2.371494,-1.685858 -3.976689,-1.685858 -4.662324,0 -6.989453,2.2505 -6.989453,6.747465 0,1.286575 0.60094,2.286797 1.806852,3.012764 1.205913,0.725968 2.367461,1.084918 3.49271,1.084918 1.766521,0 3.412047,-0.641271 4.940612,-1.927846 1.528565,-1.286576 2.290831,-2.569119 2.290831,-3.859727 z M 68.196575,86.26913 c 0,1.286575 -0.721934,1.927847 -2.169836,1.927847 -1.770554,0 -2.649781,-0.641272 -2.649781,-1.927847 0,-1.766521 0.802597,-2.649781 2.407792,-2.649781 1.605195,0 2.411825,0.88326 2.411825,2.649781 z M 67.232652,60.727175 c -1.770554,0 -2.653814,-0.802597 -2.653814,-2.411825 0,-1.601162 1.044586,-2.407792 3.133759,-2.407792 1.447902,0 2.169836,0.721934 2.169836,2.169836 -0.004,1.766521 -0.887293,2.649781 -2.649781,2.649781 z m 5.779507,17.588578 c 0.483979,0 1.165582,-0.120995 2.048842,-0.358951 0.88326,-0.241989 1.887515,-0.963923 3.012765,-2.169836 1.121216,-1.205912 1.685858,-2.774808 1.685858,-4.698622 0,-2.08514 -0.60094,-3.573373 -1.806853,-4.456634 -1.205912,-0.88326 -2.371493,-1.326907 -3.496743,-1.326907 -1.443869,0 -3.129726,0.483978 -5.057573,1.443869 -1.927847,0.963923 -2.891771,2.573151 -2.891771,4.819617 0,1.770554 0.641272,3.335417 1.927847,4.698623 1.282543,1.367238 2.807074,2.048841 4.577628,2.048841 z m 0.483979,-8.671278 c 1.766521,0 2.649781,0.806631 2.649781,2.407792 0,1.605195 -0.88326,2.411825 -2.649781,2.411825 -1.770554,0 -2.649781,-0.802597 -2.649781,-2.411825 0,-1.605194 0.879227,-2.407792 2.649781,-2.407792 z m 9.639234,30.841515 c 0,-1.766518 -0.762266,-3.049061 -2.286797,-3.855691 -1.528565,-0.802598 -3.012765,-1.205913 -4.456634,-1.205913 -3.533041,0 -5.299562,2.250499 -5.299562,6.747464 0,3.53304 1.766521,5.29956 5.299562,5.29956 0.802598,0 1.605195,-0.12099 2.411825,-0.36298 0.802598,-0.24199 1.722157,-0.92359 2.770776,-2.04884 1.03652,-1.11719 1.56083,-2.64575 1.56083,-4.5736 z m -5.78354,-0.963921 c 1.443868,0 2.169836,0.645301 2.169836,1.927851 0,1.92784 -0.806631,2.89177 -2.411826,2.89177 -1.443868,0 -2.169836,-0.87923 -2.169836,-2.64979 0,-1.4479 0.802598,-2.169831 2.411826,-2.169831 z M 75.181995,84.341283 c 0,1.770554 0.641272,3.133759 1.927847,4.097683 1.282543,0.963923 2.730445,1.443868 4.335639,1.443868 4.01702,0 6.02553,-1.847183 6.02553,-5.545584 0,-1.443869 -0.520277,-2.770776 -1.564863,-3.976689 -1.044587,-1.205912 -2.371494,-1.806852 -3.972655,-1.806852 -2.093206,0 -3.734699,0.564641 -4.940612,1.685858 -1.209946,1.129282 -1.810886,2.496521 -1.810886,4.101716 z m 7.953377,-20.484382 c 1.121217,0 2.448124,-0.483978 3.976689,-1.447901 1.524531,-0.963924 2.286797,-2.488456 2.286797,-4.577629 0,-3.371715 -1.766521,-5.061606 -5.299562,-5.061606 -4.339672,0 -6.505475,1.847184 -6.505475,5.541552 0,1.770554 0.520276,3.133759 1.564863,4.097683 1.044586,0.967956 2.36746,1.447901 3.976688,1.447901 z M 81.68747,81.929458 c 1.601162,0 2.411826,0.963923 2.411826,2.89177 0,1.443869 -0.887294,2.169836 -2.653815,2.169836 -1.443868,0 -2.169836,-0.802597 -2.169836,-2.407792 0.004,-1.766521 0.806631,-2.653814 2.411825,-2.653814 z m 1.685858,-21.202283 c -1.443868,0 -2.169836,-0.721934 -2.169836,-2.169836 0,-1.766521 0.802598,-2.649781 2.411825,-2.649781 1.601162,0 2.411826,0.721934 2.411826,2.169836 0,1.766521 -0.887294,2.649781 -2.653815,2.649781 z m 1.689891,34.697211 c 0,1.125249 0.721934,2.169836 2.169836,3.133759 1.443869,0.963924 2.649781,1.443865 3.613705,1.443865 1.443868,0 2.770776,-0.520273 3.976688,-1.564859 1.20188,-1.044587 1.806852,-2.129505 1.806852,-3.254754 0,-1.447902 -0.600939,-2.770776 -1.806852,-3.976689 -1.205912,-1.205912 -2.613483,-1.806852 -4.218677,-1.806852 -1.443869,0 -2.734478,0.645305 -3.855694,1.927847 -1.12525,1.290609 -1.685858,2.653814 -1.685858,4.097683 z m 1.20188,-26.505878 c 0,3.698401 1.927846,5.545584 5.78354,5.545584 1.601162,0 3.089395,-0.520276 4.456634,-1.568896 1.363205,-1.040553 2.048841,-2.36746 2.048841,-3.976688 0,-3.855694 -1.847184,-5.783541 -5.541551,-5.783541 -1.927847,0 -3.533042,0.60094 -4.819618,1.806852 -1.286575,1.205913 -1.927846,2.528787 -1.927846,3.976689 z m 6.747464,25.783944 c 0,0.483978 -0.241989,0.963923 -0.721935,1.443868 -0.479945,0.479945 -0.88326,0.721935 -1.205912,0.721935 -1.605195,0 -2.411825,-0.560609 -2.411825,-1.685858 0,-1.766521 0.721934,-2.649781 2.169836,-2.649781 1.447901,0 2.169836,0.721934 2.169836,2.169836 z M 90.604771,69.160497 c 0,-1.766521 0.802597,-2.649781 2.411825,-2.649781 1.443868,0 2.169836,0.80663 2.169836,2.407792 0,1.609228 -0.883261,2.411825 -2.649781,2.411825 -1.294642,-0.004 -1.93188,-0.725968 -1.93188,-2.169836 z m 5.78354,18.794491 c 4.339669,0 6.505479,-1.766521 6.505479,-5.299563 0,-1.443868 -0.48398,-2.807074 -1.44791,-4.097683 -0.96392,-1.282542 -2.331158,-1.927847 -4.097678,-1.927847 -1.286576,0 -2.649782,0.479945 -4.097683,1.443869 -1.443869,0.963923 -2.169836,2.411825 -2.169836,4.339672 0,1.443869 0.483978,2.734477 1.443868,3.855694 0.97199,1.125249 2.254532,1.685858 3.86376,1.685858 z m 0.963924,-2.891771 c -1.927847,0 -2.891771,-0.721934 -2.891771,-2.169836 0,-0.802597 0.318619,-1.4842 0.963924,-2.048841 0.641271,-0.560609 1.282542,-0.842929 1.927847,-0.842929 1.282542,0 1.927847,0.88326 1.927847,2.649781 0,1.609228 -0.645305,2.411825 -1.927847,2.411825 z"
   style="stroke-width:4.03315" /><path
   style="fill:#133f00;stroke-width:4.03315"
   inkscape:connector-curvature="0"
   id="path78"
   d="m 78.073766,148.19415 c -1.286576,0 -3.214423,-0.24199 -5.783541,-0.72193 -2.573151,-0.47995 -4.420335,-0.72194 -5.541551,-0.72194 -0.806631,0 -2.411826,0.47995 -4.819618,1.44387 -2.411825,0.96393 -4.339672,1.44791 -5.78354,1.44791 -0.806631,0 -2.492489,-0.19763 -5.061607,-0.60094 -2.569118,-0.39929 -4.420335,-0.60094 -5.541551,-0.60094 -9.481942,0 -17.830567,1.36723 -25.057977,4.09768 -0.326685,-0.64127 -0.483978,-1.60116 -0.483978,-2.89177 0,-6.74747 2.246466,-12.56731 6.747464,-17.47162 4.496965,-4.90028 8.99393,-7.3484 13.494928,-7.3484 1.282543,0 2.730445,0.24199 4.339672,0.72193 1.601162,0.48398 2.488456,0.72194 2.649782,0.72194 0.641271,0 0.963923,-0.24199 0.963923,-0.72194 0,-0.15729 -0.201658,-0.52027 -0.60094,-1.08492 -0.403315,-0.5606 -0.600939,-0.92359 -0.600939,-1.08491 0,-0.8026 0.161326,-1.20592 0.483978,-1.20592 0.322652,0 0.721934,0.32266 1.205913,0.96393 0.483978,0.6453 0.923591,1.73022 1.326907,3.25475 0.399282,1.52857 0.600939,3.17409 0.600939,4.94061 0,0.80663 -0.04033,2.25453 -0.120994,4.33967 -0.0847,2.08918 -0.120995,3.37172 -0.120995,3.8557 0,5.46089 1.685858,8.19133 5.057574,8.19133 1.121216,0 3.049063,-0.52028 5.78354,-1.5689 2.726411,-1.04055 4.97691,-1.56486 6.747464,-1.56486 0.479945,0 1.040554,0.0403 1.685858,0.121 0.641271,0.0847 1.121216,0.12099 1.443869,0.12099 2.569118,0 3.855693,-1.76652 3.855693,-5.29956 0,-1.12122 -0.685635,-2.20614 -2.048841,-3.25476 -1.367239,-1.04458 -2.690113,-1.56889 -3.976688,-1.56889 -1.605195,0 -3.49271,1.36724 -5.662546,4.09768 -2.169837,2.73448 -3.976689,4.09768 -5.424591,4.09768 -2.569118,0 -3.855693,-1.92784 -3.855693,-5.78354 0,-1.60116 0.439613,-3.85569 1.326907,-6.74746 0.879227,-2.89177 1.326907,-5.06161 1.326907,-6.50548 0,-1.92784 -0.443647,-3.33138 -1.326907,-4.21464 -0.887294,-0.87923 -1.806853,-1.40354 -2.770776,-1.56486 -0.963923,-0.16133 -1.447902,-0.32266 -1.447902,-0.48398 0,-0.32265 0.483979,-0.48398 1.447902,-0.48398 1.601162,0 3.049063,0.84293 4.335639,2.52879 1.282542,1.68585 2.08514,2.52878 2.411825,2.52878 0.318619,0 0.963924,-0.72193 1.927847,-2.16983 0.963924,-1.4479 2.407792,-2.85144 4.335639,-4.21868 1.927847,-1.36321 4.254976,-2.04884 6.98542,-2.04884 3.21039,0 5.864204,1.48823 7.953377,4.45663 2.089173,2.97244 3.210389,4.45664 3.371715,4.45664 l 3.613705,-0.96393 c 2.411825,-0.8026 5.380225,-1.20591 8.9173,-1.20591 4.819622,0 9.881222,2.49249 15.180782,7.47343 5.29957,4.98094 7.95338,11.1678 7.95338,18.5525 l -0.72597,4.09769 c -0.32265,0 -3.29508,-0.48398 -8.91326,-1.44387 -5.62625,-0.96393 -10.203879,-1.44387 -13.732888,-1.44387 -5.626248,0 -9.80056,0.0847 -12.531005,0.24199 -2.730444,0.16132 -4.577628,0.23795 -5.541551,0.23795 z m -45.300369,-1.92381 c 0,-0.64127 -0.963924,-0.96392 -2.89177,-0.96392 -1.443869,0 -2.690113,0.16536 -3.7347,0.48397 -1.044586,0.32669 -1.76652,0.72194 -2.169836,1.20592 -0.403315,0.47994 -0.600939,0.88326 -0.600939,1.20188 0,0.6453 0.322652,0.96392 0.963923,0.96392 0.802597,0 2.411825,-0.35895 4.819617,-1.08492 2.407792,-0.72597 3.613705,-1.32691 3.613705,-1.80685 z m -7.953377,-4.09768 c 0,0.6453 0.802598,0.96392 2.411825,0.96392 1.121217,0 2.444091,-0.24199 3.976689,-0.72193 1.524531,-0.48398 2.286797,-0.87923 2.286797,-1.20592 0,-0.80259 -0.963923,-1.20188 -2.89177,-1.20188 -3.855694,-0.004 -5.783541,0.72194 -5.783541,2.16581 z m 6.989453,-7.23145 c -2.89177,0 -4.339672,0.47995 -4.339672,1.44387 0,0.80663 1.443869,1.20592 4.339672,1.20592 2.569119,0 3.855694,-0.39929 3.855694,-1.20592 0,-0.95989 -1.286575,-1.44387 -3.855694,-1.44387 z m -0.725967,-3.12972 c 0,0.96392 1.766521,1.44387 5.303596,1.44387 1.121216,0 1.685857,-0.24199 1.685857,-0.72194 0,-1.28254 -1.367238,-1.92784 -4.097683,-1.92784 -1.923813,0 -2.89177,0.40331 -2.89177,1.20591 z m 3.617738,-3.61371 c 0,0.80663 1.524531,1.20188 4.577628,1.20188 0.963923,0 1.443869,-0.24199 1.443869,-0.72193 0,-0.96393 -1.205913,-1.44387 -3.613705,-1.44387 -1.605195,-0.004 -2.407792,0.32265 -2.407792,0.96392 z m 13.01095,16.38267 c -8.191333,0 -12.289016,0.40331 -12.289016,1.20591 0,0.64531 1.040553,0.96392 3.13376,0.96392 0.641271,0 1.847183,-0.0403 3.613704,-0.12099 1.766521,-0.0807 3.13376,-0.12099 4.097683,-0.12099 2.08514,0 3.13376,-0.32266 3.13376,-0.96393 -0.004,-0.63724 -0.568675,-0.96392 -1.689891,-0.96392 z m 0.725967,-2.64978 c 0,-1.28255 -3.133759,-1.92785 -9.401278,-1.92785 -1.927847,0 -2.891771,0.40332 -2.891771,1.20188 0,0.32669 0.08066,0.52431 0.24199,0.60094 0.157293,0.0847 0.516243,0.16133 1.084918,0.24199 0.560608,0.0847 1.121216,0.12099 1.685857,0.12099 0.564642,0 1.4842,0 2.774809,0 1.282543,0 2.488455,0.0847 3.613705,0.24199 1.923814,0.16536 2.89177,0 2.89177,-0.47994 z m -0.241989,-3.8557 c 0,-1.28254 -2.169836,-1.92784 -6.505475,-1.92784 -2.089173,0 -3.129726,0.40331 -3.129726,1.20188 0,0.80663 2.488455,1.20591 7.469398,1.20591 1.439836,0 2.165803,-0.15729 2.165803,-0.47995 z m -7.711387,-4.33564 c 0,0.16133 1.040553,0.44365 3.129726,0.84293 2.08514,0.40332 3.291052,0.60094 3.613704,0.60094 0.641272,0 0.963924,-0.0807 0.963924,-0.24199 0,-0.32265 -0.241989,-0.64127 -0.721934,-0.96392 -0.483979,-0.32265 -1.205913,-0.64127 -2.169836,-0.96392 -0.963924,-0.31862 -1.927847,-0.48398 -2.891771,-0.48398 -1.282542,0.004 -1.923813,0.40735 -1.923813,1.20994 z m 1.685857,-3.6137 c 0,0.47995 0.842929,0.96392 2.528787,1.44387 1.685858,0.47994 2.928069,0.72193 3.734699,0.72193 0.318619,0 0.479945,-0.15729 0.479945,-0.48398 0,-0.31861 -0.600939,-0.80259 -1.806852,-1.44386 -1.205913,-0.64128 -2.371494,-0.96393 -3.49271,-0.96393 -0.95989,0 -1.443869,0.24199 -1.443869,0.72597 z m 6.505475,-1.4479 c 0,-1.12122 -1.125249,-1.68586 -3.371715,-1.68586 -0.963924,0 -1.447902,0.16133 -1.447902,0.48398 0,0.48398 0.560608,0.88326 1.685858,1.20188 1.121216,0.32668 1.927847,0.48398 2.411825,0.48398 0.483978,0 0.721934,-0.16133 0.721934,-0.48398 z m 5.061607,-4.57763 c 0,0.47995 -0.24199,0.72193 -0.721935,0.72193 -0.479945,0 -1.044586,-0.48397 -1.685857,-1.44386 -0.645305,-0.96393 -0.963924,-1.76652 -0.963924,-2.41183 0,-0.31862 0.157293,-0.48398 0.479945,-0.48398 0.641272,0 1.282543,0.44365 1.927847,1.32691 0.637238,0.88729 0.963924,1.64956 0.963924,2.29083 z m 5.541551,10.59912 c 0,-0.96392 -0.564641,-1.44386 -1.685858,-1.44386 -1.286575,0 -1.927846,1.20591 -1.927846,3.6137 0,0.96392 0.322652,1.44387 0.963923,1.44387 0.318619,0 0.842929,-0.43961 1.564863,-1.32691 0.721934,-0.87519 1.084918,-1.64149 1.084918,-2.2868 z m 2.891771,2.41183 c 0,-0.8026 -0.24199,-1.20591 -0.721935,-1.20591 -0.645304,0 -1.40757,0.52431 -2.286797,1.56486 -0.887294,1.04862 -1.326907,1.89155 -1.326907,2.53282 0,0.6453 0.322652,0.96392 0.963923,0.96392 0.483978,0 1.165581,-0.48397 2.048841,-1.44386 0.879228,-0.96796 1.322875,-1.76653 1.322875,-2.41183 z m -1.205913,-4.33564 c 0.322652,0 0.681603,-0.32265 1.084918,-0.96392 0.399282,-0.64127 0.60094,-1.12122 0.60094,-1.44387 0,-1.28254 -0.564642,-1.92785 -1.685858,-1.92785 -1.927847,0 -2.89177,0.80663 -2.89177,2.41183 0,1.28254 0.963923,1.92381 2.89177,1.92381 z m 5.061606,-12.77299 c 0,-0.64127 -0.483978,-0.96393 -1.447901,-0.96393 -1.605195,0 -2.407792,0.72194 -2.407792,2.16984 0,0.8026 0.479945,1.20188 1.443868,1.20188 1.605195,0 2.411825,-0.79856 2.411825,-2.40779 z m -1.927847,8.19536 c 1.121217,0 1.685858,-0.64127 1.685858,-1.92784 0,-1.12122 -0.564641,-1.68586 -1.685858,-1.68586 -1.286575,0 -1.927846,0.6453 -1.927846,1.92785 0,1.12121 0.641271,1.68585 1.927846,1.68585 z m 0.479946,3.12973 c -0.322653,0 -0.681603,0.24199 -1.084918,0.72597 -0.403316,0.47994 -0.60094,0.88326 -0.60094,1.20188 0,1.12525 0.560608,1.68585 1.685858,1.68585 1.121216,0 1.685857,-0.72193 1.685857,-2.16983 0,-0.95989 -0.564641,-1.44387 -1.685857,-1.44387 z m 3.133759,-15.42278 c -1.286576,0 -1.927847,0.48398 -1.927847,1.44791 0,0.96392 0.641271,1.44386 1.927847,1.44386 0.318619,0.16133 0.641271,0.121 0.963923,-0.12099 0.322653,-0.24199 0.483979,-0.60094 0.483979,-1.08492 0,-1.12121 -0.483979,-1.68586 -1.447902,-1.68586 z m 0,8.9173 c 1.121216,0 1.685858,-0.5606 1.685858,-1.68585 0,-1.12122 -0.564642,-1.68586 -1.685858,-1.68586 -1.12525,0 -1.685858,0.56464 -1.685858,1.68586 0,1.12525 0.560608,1.68585 1.685858,1.68585 z m 2.165803,4.81962 c 0,-1.28254 -0.564641,-1.92785 -1.685858,-1.92785 -1.443868,0 -2.169836,0.56465 -2.169836,1.68586 0,1.28658 0.641271,1.92785 1.927847,1.92785 1.286576,0 1.927847,-0.56061 1.927847,-1.68586 z m 1.205913,-5.54155 c -1.286576,0 -1.927847,0.6453 -1.927847,1.92785 -0.16536,0.47994 0.0363,0.92359 0.600939,1.32287 0.560609,0.40332 1.004255,0.60497 1.326908,0.60497 1.282542,0 1.927846,-0.56464 1.927846,-1.68585 0,-1.44791 -0.641271,-2.16984 -1.927846,-2.16984 z m -0.237956,-2.41182 c 1.443868,0 2.169836,-0.64128 2.169836,-1.92785 0,-0.96393 -0.564642,-1.44387 -1.685858,-1.44387 -1.286576,0 -1.927847,0.6453 -1.927847,1.92785 -0.004,0.96392 0.475912,1.44387 1.443869,1.44387 z m 0.479945,-6.98946 c -1.12525,0 -1.685858,0.40332 -1.685858,1.20591 0,0.80663 0.560608,1.20592 1.685858,1.20592 0.963923,0 1.443868,-0.39929 1.443868,-1.20592 0.004,-0.80259 -0.479945,-1.20591 -1.443868,-1.20591 z m 6.989453,31.80948 c 0.963923,0 3.891992,-0.36299 8.796306,-1.08492 4.90028,-0.72194 9.433543,-1.08492 13.615919,-1.08492 2.24647,0 3.37172,-0.32265 3.37172,-0.96392 0,-1.28255 -1.52857,-1.92785 -4.577629,-1.92785 -1.770554,0 -4.500998,0.32668 -8.195366,0.96392 -3.698401,0.64531 -5.944867,0.96393 -6.747464,0.96393 -0.645305,0 -0.963924,-0.0807 -0.963924,-0.24199 0,-0.8026 2.08514,-1.64553 6.263486,-2.52879 4.178346,-0.87923 7.146746,-1.32691 8.9173,-1.32691 1.766517,0 2.649777,-0.39928 2.649777,-1.20188 0,-0.80259 -0.80663,-1.20591 -2.407787,-1.20591 -1.609228,0 -4.057352,0.40332 -7.348404,1.20591 -3.295086,0.8026 -5.343927,1.20188 -6.142492,1.20188 -0.483978,0 -0.721934,-0.15729 -0.721934,-0.47994 0,-1.12122 3.694368,-2.2505 11.083103,-3.37575 1.766521,-0.15729 2.649781,-0.64127 2.649781,-1.44387 0,-0.48398 -0.483978,-0.72597 -1.443868,-0.72597 -1.12525,0 -3.174091,0.44365 -6.142491,1.32691 -2.976467,0.88729 -4.698623,1.32691 -5.182601,1.32691 -0.963924,0 -0.883261,-0.39928 0.241989,-1.20592 0.318619,-0.31861 0.641271,-0.5606 0.963923,-0.72193 0.963924,-0.32265 2.00851,-0.6816 3.13376,-1.08492 1.121216,-0.39928 1.964145,-0.6816 2.528786,-0.84293 0.560608,-0.16132 1.121217,-0.32265 1.685858,-0.48397 0.560608,-0.1573 0.923592,-0.36299 1.084918,-0.60094 0.161326,-0.24199 0.241989,-0.43962 0.241989,-0.60094 0,-0.48398 -0.403315,-0.72194 -1.205912,-0.72194 -0.963924,0 -2.613483,0.44365 -4.940612,1.32691 -2.331162,0.88326 -3.65807,1.32691 -3.976689,1.32691 -0.483978,0 -0.721934,-0.0807 -0.721934,-0.24199 0,-0.48398 1.4842,-1.40354 4.456634,-2.77481 2.972433,-1.36321 4.456633,-2.20614 4.456633,-2.52879 0,-0.48398 -0.322652,-0.72193 -0.963923,-0.72193 -0.483979,0 -1.847184,0.60094 -4.097683,1.80685 -2.250499,1.20591 -3.698401,1.80685 -4.335639,1.80685 -0.326686,0 -0.483978,-0.15729 -0.483978,-0.48398 0,-0.64127 1.326907,-1.64552 3.976688,-3.01276 2.649781,-1.36321 3.976688,-2.29083 3.976688,-2.77078 0,-0.32265 -0.322652,-0.48398 -0.963923,-0.48398 -1.12525,0 -2.528787,0.44365 -4.218678,1.32691 -1.685857,0.88326 -3.093428,1.72619 -4.214644,2.52879 l -1.927847,1.20591 c -0.645304,0 -0.963923,-0.32265 -0.963923,-0.96392 0,-0.1573 0.278287,-0.68161 0.842928,-1.56487 0.560609,-0.88326 0.842929,-1.4842 0.842929,-1.80685 0,-0.64127 -0.479945,-0.96392 -1.443868,-0.96392 -0.963924,0 -2.734478,1.4479 -5.299563,4.33967 -2.573151,2.89177 -3.855693,4.57763 -3.855693,5.06161 0,0.16132 1.084918,0.92359 3.254754,2.28679 2.169836,1.36724 3.254754,3.33542 3.254754,5.90454 0,2.40779 -0.721935,4.33564 -2.169836,5.78354 1.278509,0.32265 2.403759,0.47995 3.367682,0.47995 z m -1.447902,-24.09809 c 0,-0.96392 -0.721934,-1.44387 -2.169836,-1.44387 -0.322652,0 -0.721934,0.24199 -1.201879,0.72194 -0.483979,0.48397 -0.721935,0.96392 -0.721935,1.44386 0,0.96393 0.641272,1.44387 1.927847,1.44387 0.483979,0 0.963924,-0.24199 1.447902,-0.72193 0.475912,-0.47591 0.717901,-0.95989 0.717901,-1.44387 z m -1.443868,-6.98542 c -1.12525,0 -1.685858,0.6453 -1.685858,1.92785 0,0.80663 0.483978,1.20188 1.443868,1.20188 1.443869,0 2.169837,-0.56061 2.169837,-1.68586 0,-0.96393 -0.645305,-1.44387 -1.927847,-1.44387 z m 4.335639,4.33564 c 0,-0.8026 -0.403316,-1.20591 -1.205913,-1.20591 -0.963923,0 -1.443869,0.40331 -1.443869,1.20591 0,0.96392 0.399282,1.4479 1.205913,1.4479 0.963923,0 1.443869,-0.48398 1.443869,-1.4479 z m 7.711387,-4.57763 c 4.496965,-4.97691 9.159289,-8.99393 13.974869,-12.05106 4.81962,-3.04906 8.51399,-4.577628 11.08714,-4.577628 0.96392,0 1.44387,0.322652 1.44387,0.963924 0,0.326685 -0.16133,0.564644 -0.47995,0.721934 -0.80663,0.6453 -2.49248,1.56486 -5.0616,2.77078 -2.57315,1.20591 -4.25901,2.04884 -5.06161,2.52878 -3.21442,2.08918 -6.14249,4.09769 -8.796304,6.02553 -2.653814,1.92785 -4.496965,3.25476 -5.541552,3.97669 -1.048619,0.72193 -1.726189,1.08492 -2.048841,1.08492 -0.641271,0 -0.479945,-0.47995 0.483978,-1.44387 z m 8.195366,10.11918 c 0,0.6453 0.318619,0.96392 0.963923,0.96392 4.17835,0 6.26752,-0.56061 6.26752,-1.68585 0,-0.64128 -0.6453,-0.96393 -1.92785,-0.96393 -0.80663,0 -1.891546,0.20166 -3.254752,0.60094 -1.367238,0.40332 -2.048841,0.7663 -2.048841,1.08492 z m 0.237956,-10.36117 c 0,-0.15729 0.923592,-0.92359 2.770776,-2.29083 1.847181,-1.36321 4.097681,-2.72641 6.747461,-4.09768 2.64978,-1.36321 4.69863,-2.04884 6.14653,-2.04884 1.44387,0 2.16983,0.24199 2.16983,0.72596 0,0.47995 -5.38426,2.97244 -16.144706,7.4694 -1.290609,0.64531 -1.851217,0.72597 -1.689891,0.24199 z m 9.159287,12.53101 c -3.6984,0 -5.541549,0.64127 -5.541549,1.92784 0,0.48398 0.479949,0.72597 1.443869,0.72597 0.47994,0 1.3632,-0.0403 2.64978,-0.12099 1.28254,-0.0807 2.08514,-0.121 2.40779,-0.121 0.96393,0 1.4479,-0.31862 1.4479,-0.96392 0,-0.96393 -0.80663,-1.4479 -2.40779,-1.4479 z m -4.82365,-10.11918 c 0,-0.16133 0.52028,-0.52028 1.5689,-1.08492 1.04458,-0.56061 2.36746,-1.08492 3.97669,-1.5689 1.60519,-0.47994 2.9684,-0.72193 4.09768,-0.72193 1.44387,0 2.41182,0.47994 2.89177,1.44387 0.16133,0.32265 0.0807,0.52431 -0.24199,0.60094 -0.32265,0.0807 -1.04459,0.12099 -2.16984,0.12099 -1.77055,0.16133 -3.41608,0.35895 -4.94061,0.60094 -1.52856,0.24199 -2.61348,0.44365 -3.25475,0.60497 -0.64531,0.16133 -1.04459,0.24199 -1.20188,0.24199 -0.48398,0.004 -0.72597,-0.0766 -0.72597,-0.23795 z m 2.41183,16.38669 c 0,0.64531 2.08514,0.96393 6.26752,0.96393 1.44386,0 2.16983,-0.24199 2.16983,-0.72194 0,-0.96392 -1.28657,-1.4479 -3.85569,-1.4479 -3.05713,0 -4.58166,0.40332 -4.58166,1.20591 z m 12.04702,5.54156 c 0,-1.44387 -2.08917,-2.16984 -6.26348,-2.16984 -1.28658,0 -2.16984,0.0847 -2.64978,0.24199 -0.48398,0.16536 -0.64531,0.48398 -0.48398,0.96392 0,0.48398 1.16558,0.92359 3.49674,1.32691 2.32713,0.40332 3.81133,0.60094 4.45664,0.60094 0.96392,0 1.44386,-0.32265 1.44386,-0.96392 z m -1.44386,3.85569 c -1.28658,-0.31862 -2.64979,-0.48398 -4.09769,-0.48398 -1.4479,0 -2.16983,0.24199 -2.16983,0.72194 0,1.4479 2.48845,2.41182 7.46939,2.89177 0.8026,0.16132 1.20592,-0.0807 1.20592,-0.72194 0.004,-1.28254 -0.80663,-2.08514 -2.40779,-2.40779 z" /></svg>
