<?xml version="1.0" encoding="UTF-8" standalone="no"?>
<!-- Generator: Adobe Illustrator 16.0.0, SVG Export Plug-In . SVG Version: 6.00 Build 0)  -->

<svg
   version="1.1"
   id="图层_1"
   x="0px"
   y="0px"
   width="139.76401"
   height="200"
   viewBox="0 0 139.764 200"
   enable-background="new 0 0 714 341"
   xml:space="preserve"
   sodipodi:docname="pei-6.svg"
   inkscape:version="1.2.2 (b0a8486, 2022-12-01)"
   xmlns:inkscape="http://www.inkscape.org/namespaces/inkscape"
   xmlns:sodipodi="http://sodipodi.sourceforge.net/DTD/sodipodi-0.dtd"
   xmlns="http://www.w3.org/2000/svg"
   xmlns:svg="http://www.w3.org/2000/svg"
   xmlns:rdf="http://www.w3.org/1999/02/22-rdf-syntax-ns#"
   xmlns:cc="http://creativecommons.org/ns#"
   xmlns:dc="http://purl.org/dc/elements/1.1/"><metadata
   id="metadata621"><rdf:RDF><cc:Work
       rdf:about=""><dc:format>image/svg+xml</dc:format><dc:type
         rdf:resource="http://purl.org/dc/dcmitype/StillImage" /><dc:title /></cc:Work></rdf:RDF></metadata><defs
   id="defs619" /><sodipodi:namedview
   pagecolor="#ffffff"
   bordercolor="#666666"
   borderopacity="1"
   objecttolerance="10"
   gridtolerance="10"
   guidetolerance="10"
   inkscape:pageopacity="0"
   inkscape:pageshadow="2"
   inkscape:window-width="1860"
   inkscape:window-height="1016"
   id="namedview617"
   showgrid="false"
   inkscape:zoom="1"
   inkscape:cx="-21"
   inkscape:cy="113.5"
   inkscape:window-x="1980"
   inkscape:window-y="27"
   inkscape:window-maximized="1"
   inkscape:current-layer="图层_1"
   inkscape:showpageshadow="2"
   inkscape:pagecheckerboard="0"
   inkscape:deskcolor="#d1d1d1" />



















































































































































































































































































































<path
   id="path2"
   d="m 139.76364,14.45914 v 171.08575 c 0,4.01307 -1.4076,7.42922 -4.21473,10.24038 C 132.73775,198.5924 129.3216,200 125.30853,200 H 14.459143 C 10.442042,200 7.025893,198.5924 4.2147293,195.78527 1.4035653,192.97411 0,189.55796 0,185.54489 V 14.45914 C 0,10.44608 1.4035653,7.02993 4.2147293,4.21876 7.025893,1.4076 10.438009,0 14.459143,0 H 125.3045 c 4.01307,0 7.42921,1.4076 10.24038,4.21876 2.81116,2.81117 4.21876,6.22328 4.21876,10.24038 z"
   inkscape:connector-curvature="0"
   style="fill:#ffffff;stroke-width:4.03323"
   sodipodi:nodetypes="sscsscsssssss" /><path
   style="fill:#133f00;stroke-width:4.03315"
   inkscape:connector-curvature="0"
   id="path100"
   d="m 18.072554,29.643669 c 0,-3.371716 4.819617,-5.061607 14.454819,-5.061607 9.639234,0 14.458851,1.685858 14.458851,5.061607 0,2.734477 -2.012543,5.142269 -6.025529,7.227409 v 15.180786 c 4.012986,1.286576 6.025529,3.214423 6.025529,5.783541 0,2.573151 -2.012543,4.500998 -6.025529,5.78354 v 15.180786 c 4.012986,2.089173 6.025529,4.500999 6.025529,7.22741 0,3.371715 -4.819617,5.057573 -14.458851,5.057573 -9.639235,0 -14.454819,-1.685858 -14.454819,-5.057573 0,-2.730445 2.00851,-5.138237 6.02553,-7.22741 V 63.618945 c -4.01702,-1.282542 -6.02553,-3.210389 -6.02553,-5.78354 0,-2.569118 2.00851,-4.496965 6.02553,-5.783541 V 36.871078 c -4.021053,-2.089173 -6.02553,-4.496965 -6.02553,-7.227409 z m 0,84.337251 c 0,-3.37575 4.819617,-5.06161 14.454819,-5.06161 9.639234,0 14.458851,1.68586 14.458851,5.06161 0,2.73448 -2.012543,5.14227 -6.025529,7.22741 v 15.18079 c 4.012986,1.28657 6.025529,3.21442 6.025529,5.78354 0,2.56911 -2.012543,4.49696 -6.025529,5.78354 v 15.18078 c 4.012986,2.08918 6.025529,4.49697 6.025529,7.22741 0,3.37172 -4.819617,5.05758 -14.458851,5.05758 -9.639235,0 -14.454819,-1.68586 -14.454819,-5.05758 0,-2.73044 2.00851,-5.13823 6.02553,-7.22741 V 147.9562 c -4.01702,-1.28255 -6.02553,-3.21039 -6.02553,-5.78354 0,-2.56912 2.00851,-4.49697 6.02553,-5.78354 v -15.18079 c -4.021053,-2.08514 -6.02553,-4.49697 -6.02553,-7.22741 z M 28.913668,29.643669 v 21.206316 c 0.802597,-0.161327 2.00851,-0.24199 3.613705,-0.24199 1.605194,0 2.811107,0.0847 3.613704,0.24199 V 29.643669 c -0.80663,-0.157293 -2.012543,-0.241989 -3.613704,-0.241989 -1.605195,0 -2.811108,0.08066 -3.613705,0.241989 z m 0,32.769364 c 0.318619,0 0.879227,0.04436 1.685858,0.120994 0.802597,0.0847 1.447902,0.120995 1.927847,0.120995 0.483978,0 1.121216,-0.0363 1.927847,-0.120995 0.802597,-0.08066 1.363205,-0.120994 1.685857,-0.120994 v -9.155256 c -0.326685,0 -0.88326,-0.0363 -1.685857,-0.120995 -0.806631,-0.08066 -1.443869,-0.120995 -1.927847,-0.120995 -0.479945,0 -1.12525,0.04033 -1.927847,0.120995 -0.806631,0.0847 -1.367239,0.120995 -1.685858,0.120995 z M 36.14511,86.027141 V 64.820825 c -0.80663,0.161326 -2.012543,0.241989 -3.613704,0.241989 -1.605195,0 -2.811107,-0.08066 -3.613705,-0.241989 v 21.206316 c 0.802598,0.161326 2.00851,0.241989 3.613705,0.241989 1.601161,0 2.807074,-0.08066 3.613704,-0.241989 z m -7.231442,27.953779 v 21.20228 c 0.802597,-0.15729 2.00851,-0.24199 3.613705,-0.24199 1.605194,0 2.811107,0.0847 3.613704,0.24199 v -21.20228 c -0.80663,-0.16133 -2.012543,-0.24199 -3.613704,-0.24199 -1.605195,0 -2.811108,0.0807 -3.613705,0.24199 z m 0,32.76936 c 0.318619,0 0.879227,0.0403 1.685858,0.121 0.802597,0.0847 1.447902,0.12099 1.927847,0.12099 0.483978,0 1.121216,-0.0363 1.927847,-0.12099 0.802597,-0.0807 1.363205,-0.121 1.685857,-0.121 V 137.591 c -0.326685,0 -0.88326,-0.0363 -1.685857,-0.121 -0.806631,-0.0807 -1.443869,-0.12099 -1.927847,-0.12099 -0.479945,0 -1.12525,0.0403 -1.927847,0.12099 -0.806631,0.0847 -1.367239,0.121 -1.685858,0.121 z m 7.231442,23.61411 v -21.20631 c -0.80663,0.16132 -2.012543,0.24199 -3.613704,0.24199 -1.605195,0 -2.811107,-0.0807 -3.613705,-0.24199 v 21.20631 c 0.802598,0.16133 2.00851,0.24199 3.613705,0.24199 1.601161,0 2.807074,-0.0807 3.613704,-0.24199 z M 55.419546,29.643669 c 0,-3.371716 4.819617,-5.061607 14.458852,-5.061607 9.639234,0 14.458852,1.685858 14.458852,5.061607 0,2.734477 -2.012543,5.142269 -6.02553,7.227409 v 15.180786 c 4.012987,1.286576 6.02553,3.214423 6.02553,5.783541 0,2.573151 -2.012543,4.500998 -6.02553,5.78354 v 15.180786 c 4.012987,2.089173 6.02553,4.500999 6.02553,7.22741 0,3.371715 -4.819618,5.057573 -14.458852,5.057573 -9.639235,0 -14.458852,-1.685858 -14.458852,-5.057573 0,-2.730445 2.00851,-5.138237 6.02553,-7.22741 V 63.618945 c -4.01702,-1.282542 -6.02553,-3.210389 -6.02553,-5.78354 0,-2.569118 2.00851,-4.496965 6.02553,-5.783541 V 36.871078 c -4.01702,-2.089173 -6.02553,-4.496965 -6.02553,-7.227409 z m 0,84.337251 c 0,-3.37575 4.819617,-5.06161 14.458852,-5.06161 9.639234,0 14.458852,1.68586 14.458852,5.06161 0,2.73448 -2.012543,5.14227 -6.02553,7.22741 v 15.18079 c 4.012987,1.28657 6.02553,3.21442 6.02553,5.78354 0,2.56911 -2.012543,4.49696 -6.02553,5.78354 v 15.18078 c 4.012987,2.08918 6.02553,4.49697 6.02553,7.22741 0,3.37172 -4.819618,5.05758 -14.458852,5.05758 -9.639235,0 -14.458852,-1.68586 -14.458852,-5.05758 0,-2.73044 2.00851,-5.13823 6.02553,-7.22741 V 147.9562 c -4.01702,-1.28255 -6.02553,-3.21039 -6.02553,-5.78354 0,-2.56912 2.00851,-4.49697 6.02553,-5.78354 v -15.18079 c -4.01702,-2.08514 -6.02553,-4.49697 -6.02553,-7.22741 z M 66.264693,29.643669 v 21.206316 c 0.802598,-0.161327 2.00851,-0.24199 3.613705,-0.24199 1.601161,0 2.807074,0.0847 3.613705,0.24199 V 29.643669 c -0.806631,-0.157293 -2.012544,-0.241989 -3.613705,-0.241989 -1.605195,0 -2.811107,0.08066 -3.613705,0.241989 z m 0,32.769364 c 0.479945,0 1.121217,0.04436 1.927847,0.120994 0.802598,0.0847 1.363206,0.120995 1.685858,0.120995 0.318619,0 0.879227,-0.0363 1.685858,-0.120995 0.798564,-0.08066 1.443868,-0.120994 1.927847,-0.120994 v -9.155256 c -0.483979,0 -1.129283,-0.0363 -1.927847,-0.120995 -0.806631,-0.08066 -1.367239,-0.120995 -1.685858,-0.120995 -0.326685,0 -0.88326,0.04033 -1.685858,0.120995 -0.80663,0.0847 -1.443868,0.120995 -1.927847,0.120995 z m 7.22741,23.614108 V 64.820825 c -0.806631,0.161326 -2.012544,0.241989 -3.613705,0.241989 -1.605195,0 -2.811107,-0.08066 -3.613705,-0.241989 v 21.206316 c 0.802598,0.161326 2.00851,0.241989 3.613705,0.241989 1.601161,0 2.807074,-0.08066 3.613705,-0.241989 z m -7.22741,27.953779 v 21.20228 c 0.802598,-0.15729 2.00851,-0.24199 3.613705,-0.24199 1.601161,0 2.807074,0.0847 3.613705,0.24199 v -21.20228 c -0.806631,-0.16133 -2.012544,-0.24199 -3.613705,-0.24199 -1.605195,0 -2.811107,0.0807 -3.613705,0.24199 z m 0,32.76936 c 0.479945,0 1.121217,0.0403 1.927847,0.121 0.802598,0.0847 1.363206,0.12099 1.685858,0.12099 0.318619,0 0.879227,-0.0363 1.685858,-0.12099 0.798564,-0.0807 1.443868,-0.121 1.927847,-0.121 V 137.591 c -0.483979,0 -1.129283,-0.0363 -1.927847,-0.121 -0.806631,-0.0807 -1.367239,-0.12099 -1.685858,-0.12099 -0.326685,0 -0.88326,0.0403 -1.685858,0.12099 -0.80663,0.0847 -1.443868,0.121 -1.927847,0.121 z m 7.22741,23.61411 v -21.20631 c -0.806631,0.16132 -2.012544,0.24199 -3.613705,0.24199 -1.605195,0 -2.811107,-0.0807 -3.613705,-0.24199 v 21.20631 c 0.802598,0.16133 2.00851,0.24199 3.613705,0.24199 1.601161,0 2.807074,-0.0807 3.613705,-0.24199 z M 92.770572,29.643669 c 0,-3.371716 4.819617,-5.061607 14.458848,-5.061607 9.63924,0 14.45482,1.685858 14.45482,5.061607 0,2.734477 -2.01254,5.142269 -6.02553,7.227409 v 15.180786 c 4.01299,1.286576 6.02553,3.214423 6.02553,5.783541 0,2.573151 -2.01254,4.500998 -6.02553,5.78354 v 15.180786 c 4.01299,2.089173 6.02553,4.500999 6.02553,7.22741 0,3.371715 -4.81962,5.057573 -14.45482,5.057573 -9.635198,0 -14.458848,-1.685858 -14.458848,-5.057573 0,-2.730445 2.008509,-5.138237 6.025529,-7.22741 V 63.618945 c -4.01702,-1.282542 -6.025529,-3.210389 -6.025529,-5.78354 0,-2.569118 2.008509,-4.496965 6.025529,-5.783541 V 36.871078 c -4.01702,-2.089173 -6.025529,-4.496965 -6.025529,-7.227409 z m 0,84.337251 c 0,-3.37575 4.819617,-5.06161 14.458848,-5.06161 9.63924,0 14.45482,1.68586 14.45482,5.06161 0,2.73448 -2.01254,5.14227 -6.02553,7.22741 v 15.18079 c 4.01299,1.28657 6.02553,3.21442 6.02553,5.78354 0,2.56911 -2.01254,4.49696 -6.02553,5.78354 v 15.18078 c 4.01299,2.08918 6.02553,4.49697 6.02553,7.22741 0,3.37172 -4.81962,5.05758 -14.45482,5.05758 -9.635198,0 -14.458848,-1.68586 -14.458848,-5.05758 0,-2.73044 2.008509,-5.13823 6.025529,-7.22741 V 147.9562 c -4.01702,-1.28255 -6.025529,-3.21039 -6.025529,-5.78354 0,-2.56912 2.008509,-4.49697 6.025529,-5.78354 v -15.18079 c -4.01702,-2.08514 -6.025529,-4.49697 -6.025529,-7.22741 z M 103.61169,29.643669 v 21.206316 c 0.80259,-0.161327 2.00851,-0.24199 3.6137,-0.24199 1.60116,0 2.80707,0.0847 3.6137,0.24199 V 29.643669 c -0.80663,-0.157293 -2.01254,-0.241989 -3.6137,-0.241989 -1.60519,0 -2.81111,0.08066 -3.6137,0.241989 z m 0,32.769364 c 0.32265,0 0.88326,0.04436 1.68585,0.120994 0.8026,0.0847 1.4479,0.120995 1.93188,0.120995 0.47995,0 1.12122,-0.0363 1.92785,-0.120995 0.8026,-0.08066 1.36321,-0.120994 1.68586,-0.120994 v -9.155256 c -0.32265,0 -0.88326,-0.0363 -1.68586,-0.120995 -0.8026,-0.08066 -1.44387,-0.120995 -1.92785,-0.120995 -0.48398,0 -1.12525,0.04033 -1.93188,0.120995 -0.80259,0.0847 -1.3632,0.120995 -1.68585,0.120995 z m 7.23144,23.614108 V 64.820825 c -0.80663,0.161326 -2.01255,0.241989 -3.61371,0.241989 -1.60922,0 -2.8111,-0.08066 -3.6137,-0.241989 v 21.206316 c 0.8026,0.161326 2.00851,0.241989 3.6137,0.241989 1.60116,0 2.80708,-0.08066 3.61371,-0.241989 z m -7.23144,27.953779 v 21.20228 c 0.80259,-0.15729 2.00851,-0.24199 3.6137,-0.24199 1.60116,0 2.80707,0.0847 3.6137,0.24199 v -21.20228 c -0.80663,-0.16133 -2.01254,-0.24199 -3.6137,-0.24199 -1.60519,0 -2.81111,0.0807 -3.6137,0.24199 z m 0,32.76936 c 0.32265,0 0.88326,0.0403 1.68585,0.121 0.8026,0.0847 1.4479,0.12099 1.93188,0.12099 0.47995,0 1.12122,-0.0363 1.92785,-0.12099 0.8026,-0.0807 1.36321,-0.121 1.68586,-0.121 V 137.591 c -0.32265,0 -0.88326,-0.0363 -1.68586,-0.121 -0.8026,-0.0807 -1.44387,-0.12099 -1.92785,-0.12099 -0.48398,0 -1.12525,0.0403 -1.93188,0.12099 -0.80259,0.0847 -1.3632,0.121 -1.68585,0.121 z m 7.23144,23.61411 v -21.20631 c -0.80663,0.16132 -2.01255,0.24199 -3.61371,0.24199 -1.60922,0 -2.8111,-0.0807 -3.6137,-0.24199 v 21.20631 c 0.8026,0.16133 2.00851,0.24199 3.6137,0.24199 1.60116,0 2.80708,-0.0807 3.61371,-0.24199 z" /></svg>
