<?xml version="1.0" encoding="UTF-8" standalone="no"?>
<!-- Generator: Adobe Illustrator 16.0.0, SVG Export Plug-In . SVG Version: 6.00 Build 0)  -->

<svg
   version="1.1"
   id="图层_1"
   x="0px"
   y="0px"
   width="139.76401"
   height="200"
   viewBox="0 0 139.764 200"
   enable-background="new 0 0 714 341"
   xml:space="preserve"
   sodipodi:docname="pei-7.svg"
   inkscape:version="1.2.2 (b0a8486, 2022-12-01)"
   xmlns:inkscape="http://www.inkscape.org/namespaces/inkscape"
   xmlns:sodipodi="http://sodipodi.sourceforge.net/DTD/sodipodi-0.dtd"
   xmlns="http://www.w3.org/2000/svg"
   xmlns:svg="http://www.w3.org/2000/svg"
   xmlns:rdf="http://www.w3.org/1999/02/22-rdf-syntax-ns#"
   xmlns:cc="http://creativecommons.org/ns#"
   xmlns:dc="http://purl.org/dc/elements/1.1/"><metadata
   id="metadata621"><rdf:RDF><cc:Work
       rdf:about=""><dc:format>image/svg+xml</dc:format><dc:type
         rdf:resource="http://purl.org/dc/dcmitype/StillImage" /><dc:title /></cc:Work></rdf:RDF></metadata><defs
   id="defs619" /><sodipodi:namedview
   pagecolor="#ffffff"
   bordercolor="#666666"
   borderopacity="1"
   objecttolerance="10"
   gridtolerance="10"
   guidetolerance="10"
   inkscape:pageopacity="0"
   inkscape:pageshadow="2"
   inkscape:window-width="1860"
   inkscape:window-height="1016"
   id="namedview617"
   showgrid="false"
   inkscape:zoom="1"
   inkscape:cx="-72"
   inkscape:cy="113.5"
   inkscape:window-x="1980"
   inkscape:window-y="27"
   inkscape:window-maximized="1"
   inkscape:current-layer="图层_1"
   inkscape:showpageshadow="2"
   inkscape:pagecheckerboard="0"
   inkscape:deskcolor="#d1d1d1" />



















































































































































































































































































































<path
   id="path2"
   d="M 139.76364,14.459143 V 185.54489 c 0,4.01307 -1.4076,7.42922 -4.21473,10.24038 C 132.73775,198.5924 129.3216,200 125.30853,200 H 14.459143 C 10.442042,200 7.025893,198.5924 4.214729,195.78527 1.403565,192.97411 0,189.55796 0,185.54489 V 14.459143 C 0,10.446076 1.403565,7.029927 4.214729,4.218763 7.025893,1.407599 10.438009,0 14.459143,0 H 125.3045 c 4.01307,0 7.42921,1.407599 10.24038,4.218763 2.81116,2.811164 4.21876,6.22328 4.21876,10.24038 z"
   inkscape:connector-curvature="0"
   style="fill:#ffffff;stroke-width:4.03323"
   sodipodi:nodetypes="sscsscsssssss" /><path
   style="fill:#870000;stroke-width:4.03315"
   inkscape:connector-curvature="0"
   id="path104"
   d="m 55.907557,20.726368 c 0,-3.371715 4.658291,-5.057573 13.974873,-5.057573 9.316582,0 13.978907,1.685858 13.978907,5.057573 0,2.734478 -2.012543,5.14227 -6.02553,7.22741 v 7.953377 c 4.01702,1.286575 6.02553,3.214422 6.02553,5.78354 0,2.569118 -2.012543,4.496965 -6.02553,5.783541 v 7.953377 c 4.01702,2.093206 6.02553,4.500998 6.02553,7.227409 0,3.371715 -4.662325,5.061606 -13.978907,5.061606 -9.316582,0 -13.974873,-1.685857 -13.974873,-5.061606 0,-2.730444 2.004476,-5.138236 6.02553,-7.227409 v -7.95741 c -4.021054,-1.282543 -6.02553,-3.21039 -6.02553,-5.783541 0,-2.569118 2.004476,-4.496965 6.02553,-5.783541 v -7.953376 c -4.021054,-2.081107 -6.02553,-4.488899 -6.02553,-7.223377 z m 10.361168,0 v 13.974874 c 0.798565,-0.157293 2.004477,-0.241989 3.613705,-0.241989 1.605195,0 2.807074,0.0847 3.613705,0.241989 V 20.726368 c -0.806631,-0.157292 -2.012543,-0.241989 -3.613705,-0.241989 -1.609228,0 -2.811107,0.0847 -3.613705,0.241989 z m 0,25.541955 c 0.479946,0 1.121217,0.04033 1.927847,0.120995 0.802598,0.0847 1.363206,0.120994 1.685858,0.120994 0.322652,0 0.88326,-0.0363 1.685858,-0.120994 0.802597,-0.08066 1.443868,-0.120995 1.927847,-0.120995 v -9.159289 c -0.483979,0 -1.12525,-0.0363 -1.927847,-0.120995 -0.806631,-0.08066 -1.367239,-0.120994 -1.685858,-0.120994 -0.322652,0 -0.88326,0.04033 -1.685858,0.120994 -0.80663,0.0847 -1.443868,0.120995 -1.927847,0.120995 z m 7.22741,16.386699 V 48.680148 c -0.806631,0.16536 -2.012543,0.24199 -3.613705,0.24199 -1.605195,0 -2.811107,-0.08066 -3.613705,-0.24199 v 13.974874 c 0.798565,0.161326 2.004477,0.241989 3.613705,0.241989 1.605195,0 2.807074,-0.08066 3.613705,-0.241989 z" /><path
   style="fill:#133f00;stroke-width:4.03315"
   inkscape:connector-curvature="0"
   id="path106"
   d="m 18.076586,79.037687 c 0,-3.371715 4.658291,-5.057573 13.974874,-5.057573 9.316582,0 13.974873,1.685858 13.974873,5.057573 0,2.734478 -2.012543,5.14227 -6.02553,7.22741 v 7.953376 c 4.012987,1.286576 6.02553,3.214423 6.02553,5.783537 0,2.56912 -2.012543,4.49697 -6.02553,5.78354 v 7.95338 c 4.012987,2.08917 6.02553,4.501 6.02553,7.22741 0,3.37172 -4.662324,5.06161 -13.974873,5.06161 -9.320616,0 -13.974874,-1.68586 -13.974874,-5.06161 0,-2.73044 2.00851,-5.13824 6.02553,-7.22741 v -7.95338 c -4.021053,-1.28254 -6.02553,-3.21038 -6.02553,-5.78354 0,-2.569114 2.00851,-4.496961 6.02553,-5.783537 v -7.953376 c -4.021053,-2.08514 -6.02553,-4.492932 -6.02553,-7.22741 z m 0,58.315353 c 0,-3.37172 4.658291,-5.05757 13.974874,-5.05757 9.316582,0 13.974873,1.68585 13.974873,5.05757 0,2.73448 -2.012543,5.14227 -6.02553,7.22741 v 7.95338 c 4.012987,1.28657 6.02553,3.21442 6.02553,5.78354 0,2.56911 -2.012543,4.49696 -6.02553,5.78354 v 7.95337 c 4.012987,2.08918 6.02553,4.49697 6.02553,7.22741 0,3.37172 -4.662324,5.06161 -13.974873,5.06161 -9.320616,0 -13.974874,-1.68586 -13.974874,-5.06161 0,-2.73447 2.00851,-5.14227 6.02553,-7.22741 v -7.95337 c -4.021053,-1.28255 -6.02553,-3.21039 -6.02553,-5.78354 0,-2.56912 2.00851,-4.49697 6.02553,-5.78354 v -7.95338 c -4.021053,-2.08514 -6.02553,-4.49697 -6.02553,-7.22741 z M 28.437755,79.037687 v 13.974874 c 0.802597,-0.157293 2.00851,-0.241989 3.613705,-0.241989 1.601161,0 2.807074,0.0847 3.613704,0.241989 V 79.037687 c -0.80663,-0.157293 -2.012543,-0.241989 -3.613704,-0.241989 -1.605195,0.004 -2.811108,0.0847 -3.613705,0.241989 z m 0,25.545993 c 0.318619,0 0.879227,0.0403 1.685858,0.12099 0.802597,0.0847 1.443868,0.12099 1.927847,0.12099 0.483978,0 1.121216,-0.0363 1.927847,-0.12099 0.802597,-0.0807 1.363205,-0.12099 1.685857,-0.12099 v -9.159294 c -0.322652,0 -0.88326,-0.0363 -1.685857,-0.120995 -0.806631,-0.08066 -1.443869,-0.120994 -1.927847,-0.120994 -0.483979,0 -1.12525,0.04033 -1.927847,0.120994 -0.806631,0.0847 -1.367239,0.120995 -1.685858,0.120995 z m 7.227409,16.38266 v -13.97487 c -0.80663,0.16132 -2.012543,0.24199 -3.613704,0.24199 -1.605195,0 -2.811108,-0.0807 -3.613705,-0.24199 v 13.97487 c 0.802597,0.16133 2.00851,0.24199 3.613705,0.24199 1.601161,0 2.807074,-0.0807 3.613704,-0.24199 z m -7.227409,16.3867 v 13.97487 c 0.802597,-0.15729 2.00851,-0.24199 3.613705,-0.24199 1.601161,0 2.807074,0.0847 3.613704,0.24199 v -13.97487 c -0.80663,-0.15729 -2.012543,-0.24199 -3.613704,-0.24199 -1.605195,0 -2.811108,0.0847 -3.613705,0.24199 z m 0,25.54195 c 0.318619,0 0.879227,0.0403 1.685858,0.121 0.802597,0.0847 1.443868,0.12099 1.927847,0.12099 0.483978,0 1.121216,-0.0363 1.927847,-0.12099 0.802597,-0.0807 1.363205,-0.121 1.685857,-0.121 v -9.15525 c -0.322652,0 -0.88326,-0.0363 -1.685857,-0.121 -0.806631,-0.0807 -1.443869,-0.12099 -1.927847,-0.12099 -0.483979,0 -1.12525,0.0444 -1.927847,0.12099 -0.806631,0.0847 -1.367239,0.121 -1.685858,0.121 z m 7.227409,16.3867 v -13.97487 c -0.80663,0.16133 -2.012543,0.24199 -3.613704,0.24199 -1.605195,0 -2.811108,-0.0807 -3.613705,-0.24199 v 13.97487 c 0.802597,0.1573 2.00851,0.24199 3.613705,0.24199 1.601161,-0.004 2.807074,-0.0847 3.613704,-0.24199 z M 55.907557,79.037687 c 0,-3.371715 4.658291,-5.057573 13.974873,-5.057573 9.316582,0 13.978907,1.685858 13.978907,5.057573 0,2.734478 -2.012543,5.14227 -6.02553,7.22741 v 7.953376 c 4.01702,1.286576 6.02553,3.214423 6.02553,5.783537 0,2.56912 -2.012543,4.49697 -6.02553,5.78354 v 7.95338 c 4.01702,2.08917 6.02553,4.501 6.02553,7.22741 0,3.37172 -4.662325,5.06161 -13.978907,5.06161 -9.316582,0 -13.974873,-1.68586 -13.974873,-5.06161 0,-2.73044 2.004476,-5.13824 6.02553,-7.22741 v -7.95338 c -4.021054,-1.28254 -6.02553,-3.21038 -6.02553,-5.78354 0,-2.569114 2.004476,-4.496961 6.02553,-5.783537 v -7.953376 c -4.021054,-2.08514 -6.02553,-4.492932 -6.02553,-7.22741 z m 0,58.315353 c 0,-3.37172 4.658291,-5.05757 13.974873,-5.05757 9.316582,0 13.978907,1.68585 13.978907,5.05757 0,2.73448 -2.012543,5.14227 -6.02553,7.22741 v 7.95338 c 4.01702,1.28657 6.02553,3.21442 6.02553,5.78354 0,2.56911 -2.012543,4.49696 -6.02553,5.78354 v 7.95337 c 4.01702,2.08918 6.02553,4.49697 6.02553,7.22741 0,3.37172 -4.662325,5.06161 -13.978907,5.06161 -9.316582,0 -13.974873,-1.68586 -13.974873,-5.06161 0,-2.73447 2.004476,-5.14227 6.02553,-7.22741 v -7.95337 c -4.021054,-1.28255 -6.02553,-3.21039 -6.02553,-5.78354 0,-2.56912 2.004476,-4.49697 6.02553,-5.78354 v -7.95338 c -4.021054,-2.08514 -6.02553,-4.49697 -6.02553,-7.22741 z M 66.268725,79.037687 v 13.974874 c 0.798565,-0.157293 2.004477,-0.241989 3.613705,-0.241989 1.605195,0 2.807074,0.0847 3.613705,0.241989 V 79.037687 c -0.806631,-0.157293 -2.012543,-0.241989 -3.613705,-0.241989 -1.609228,0.004 -2.811107,0.0847 -3.613705,0.241989 z m 0,25.545993 c 0.479946,0 1.121217,0.0403 1.927847,0.12099 0.802598,0.0847 1.363206,0.12099 1.685858,0.12099 0.322652,0 0.88326,-0.0363 1.685858,-0.12099 0.802597,-0.0807 1.443868,-0.12099 1.927847,-0.12099 v -9.159294 c -0.483979,0 -1.12525,-0.0363 -1.927847,-0.120995 -0.806631,-0.08066 -1.367239,-0.120994 -1.685858,-0.120994 -0.322652,0 -0.88326,0.04033 -1.685858,0.120994 -0.80663,0.0847 -1.443868,0.120995 -1.927847,0.120995 z m 7.22741,16.38266 v -13.97487 c -0.806631,0.16132 -2.012543,0.24199 -3.613705,0.24199 -1.605195,0 -2.811107,-0.0807 -3.613705,-0.24199 v 13.97487 c 0.798565,0.16133 2.004477,0.24199 3.613705,0.24199 1.605195,0 2.807074,-0.0807 3.613705,-0.24199 z m -7.22741,16.3867 v 13.97487 c 0.798565,-0.15729 2.004477,-0.24199 3.613705,-0.24199 1.605195,0 2.807074,0.0847 3.613705,0.24199 v -13.97487 c -0.806631,-0.15729 -2.012543,-0.24199 -3.613705,-0.24199 -1.609228,0 -2.811107,0.0847 -3.613705,0.24199 z m 0,25.54195 c 0.479946,0 1.121217,0.0403 1.927847,0.121 0.802598,0.0847 1.363206,0.12099 1.685858,0.12099 0.322652,0 0.88326,-0.0363 1.685858,-0.12099 0.802597,-0.0807 1.443868,-0.121 1.927847,-0.121 v -9.15525 c -0.483979,0 -1.12525,-0.0363 -1.927847,-0.121 -0.806631,-0.0807 -1.367239,-0.12099 -1.685858,-0.12099 -0.322652,0 -0.88326,0.0444 -1.685858,0.12099 -0.80663,0.0847 -1.443868,0.121 -1.927847,0.121 z m 7.22741,16.3867 v -13.97487 c -0.806631,0.16133 -2.012543,0.24199 -3.613705,0.24199 -1.605195,0 -2.811107,-0.0807 -3.613705,-0.24199 v 13.97487 c 0.798565,0.1573 2.004477,0.24199 3.613705,0.24199 1.605195,-0.004 2.807074,-0.0847 3.613705,-0.24199 z M 93.738527,79.037687 c 0,-3.371715 4.658291,-5.057573 13.974873,-5.057573 9.31658,0 13.97487,1.685858 13.97487,5.057573 0,2.734478 -2.01254,5.14227 -6.02553,7.22741 v 7.953376 c 4.01702,1.286576 6.02553,3.214423 6.02553,5.783537 0,2.56912 -2.01254,4.49697 -6.02553,5.78354 v 7.95338 c 4.01702,2.08917 6.02553,4.501 6.02553,7.22741 0,3.37172 -4.66232,5.06161 -13.97487,5.06161 -9.320615,0 -13.974873,-1.68586 -13.974873,-5.06161 0,-2.73044 2.00851,-5.13824 6.02553,-7.22741 v -7.95338 c -4.01702,-1.28254 -6.02553,-3.21038 -6.02553,-5.78354 0,-2.569114 2.00851,-4.496961 6.02553,-5.783537 v -7.953376 c -4.021053,-2.08514 -6.02553,-4.492932 -6.02553,-7.22741 z m 0,58.315353 c 0,-3.37172 4.658291,-5.05757 13.974873,-5.05757 9.31658,0 13.97487,1.68585 13.97487,5.05757 0,2.73448 -2.01254,5.14227 -6.02553,7.22741 v 7.95338 c 4.01702,1.28657 6.02553,3.21442 6.02553,5.78354 0,2.56911 -2.01254,4.49696 -6.02553,5.78354 v 7.95337 c 4.01702,2.08918 6.02553,4.49697 6.02553,7.22741 0,3.37172 -4.66232,5.06161 -13.97487,5.06161 -9.320615,0 -13.974873,-1.68586 -13.974873,-5.06161 0,-2.73447 2.00851,-5.14227 6.02553,-7.22741 v -7.95337 c -4.01702,-1.28255 -6.02553,-3.21039 -6.02553,-5.78354 0,-2.56912 2.00851,-4.49697 6.02553,-5.78354 v -7.95338 c -4.021053,-2.08514 -6.02553,-4.49697 -6.02553,-7.22741 z M 104.0997,79.037687 v 13.974874 c 0.80259,-0.157293 2.00851,-0.241989 3.6137,-0.241989 1.60116,0 2.81111,0.0847 3.61371,0.241989 V 79.037687 c -0.8026,-0.157293 -2.01255,-0.241989 -3.61371,-0.241989 -1.60519,0.004 -2.81111,0.0847 -3.6137,0.241989 z m 0,25.545993 c 0.31861,0 0.87922,0.0403 1.68585,0.12099 0.8026,0.0847 1.44387,0.12099 1.92785,0.12099 0.48398,0 1.12122,-0.0363 1.92785,-0.12099 0.80259,-0.0807 1.3632,-0.12099 1.68586,-0.12099 v -9.159294 c -0.32266,0 -0.88327,-0.0363 -1.68586,-0.120995 -0.80663,-0.08066 -1.44387,-0.120994 -1.92785,-0.120994 -0.48398,0 -1.12525,0.04033 -1.92785,0.120994 -0.80663,0.0847 -1.36724,0.120995 -1.68585,0.120995 z m 7.22741,16.38266 v -13.97487 c -0.8026,0.16132 -2.01255,0.24199 -3.61371,0.24199 -1.60519,0 -2.81111,-0.0807 -3.6137,-0.24199 v 13.97487 c 0.80259,0.16133 2.00851,0.24199 3.6137,0.24199 1.6052,0 2.81111,-0.0807 3.61371,-0.24199 z m -7.22741,16.3867 v 13.97487 c 0.80259,-0.15729 2.00851,-0.24199 3.6137,-0.24199 1.60116,0 2.81111,0.0847 3.61371,0.24199 v -13.97487 c -0.8026,-0.15729 -2.01255,-0.24199 -3.61371,-0.24199 -1.60519,0 -2.81111,0.0847 -3.6137,0.24199 z m 0,25.54195 c 0.31861,0 0.87922,0.0403 1.68585,0.121 0.8026,0.0847 1.44387,0.12099 1.92785,0.12099 0.48398,0 1.12122,-0.0363 1.92785,-0.12099 0.80259,-0.0807 1.3632,-0.121 1.68586,-0.121 v -9.15525 c -0.32266,0 -0.88327,-0.0363 -1.68586,-0.121 -0.80663,-0.0807 -1.44387,-0.12099 -1.92785,-0.12099 -0.48398,0 -1.12525,0.0444 -1.92785,0.12099 -0.80663,0.0847 -1.36724,0.121 -1.68585,0.121 z m 7.22741,16.3867 v -13.97487 c -0.8026,0.16133 -2.01255,0.24199 -3.61371,0.24199 -1.60519,0 -2.81111,-0.0807 -3.6137,-0.24199 v 13.97487 c 0.80259,0.1573 2.00851,0.24199 3.6137,0.24199 1.6052,-0.004 2.81111,-0.0847 3.61371,-0.24199 z" /></svg>
