<?xml version="1.0" encoding="UTF-8" standalone="no"?>
<!-- Generator: Adobe Illustrator 16.0.0, SVG Export Plug-In . SVG Version: 6.00 Build 0)  -->

<svg
   version="1.1"
   id="图层_1"
   x="0px"
   y="0px"
   width="139.76401"
   height="200"
   viewBox="0 0 139.764 200"
   enable-background="new 0 0 714 341"
   xml:space="preserve"
   sodipodi:docname="sou-3.svg"
   inkscape:version="1.2.2 (b0a8486, 2022-12-01)"
   xmlns:inkscape="http://www.inkscape.org/namespaces/inkscape"
   xmlns:sodipodi="http://sodipodi.sourceforge.net/DTD/sodipodi-0.dtd"
   xmlns="http://www.w3.org/2000/svg"
   xmlns:svg="http://www.w3.org/2000/svg"
   xmlns:rdf="http://www.w3.org/1999/02/22-rdf-syntax-ns#"
   xmlns:cc="http://creativecommons.org/ns#"
   xmlns:dc="http://purl.org/dc/elements/1.1/"><metadata
   id="metadata621"><rdf:RDF><cc:Work
       rdf:about=""><dc:format>image/svg+xml</dc:format><dc:type
         rdf:resource="http://purl.org/dc/dcmitype/StillImage" /><dc:title /></cc:Work></rdf:RDF></metadata><defs
   id="defs619" /><sodipodi:namedview
   pagecolor="#ffffff"
   bordercolor="#666666"
   borderopacity="1"
   objecttolerance="10"
   gridtolerance="10"
   guidetolerance="10"
   inkscape:pageopacity="0"
   inkscape:pageshadow="2"
   inkscape:window-width="1860"
   inkscape:window-height="1016"
   id="namedview617"
   showgrid="false"
   inkscape:zoom="1"
   inkscape:cx="-278"
   inkscape:cy="153.5"
   inkscape:window-x="1980"
   inkscape:window-y="27"
   inkscape:window-maximized="1"
   inkscape:current-layer="图层_1"
   inkscape:showpageshadow="2"
   inkscape:pagecheckerboard="0"
   inkscape:deskcolor="#d1d1d1" />



















































































































































































































































































































<path
   id="path2"
   d="m 139.76365,14.45915 v 171.08574 c 0,4.01307 -1.4076,7.42922 -4.21473,10.24038 C 132.73776,198.5924 129.32161,200 125.30854,200 H 14.459143 C 10.442042,200 7.025893,198.5924 4.214729,195.78527 1.403565,192.97411 0,189.55796 0,185.54489 V 14.45915 C 0,10.44608 1.403565,7.02993 4.214729,4.21876 7.025893,1.4076 10.438009,0 14.459143,0 H 125.30451 c 4.01307,0 7.42921,1.4076 10.24038,4.21876 2.81116,2.81117 4.21876,6.22329 4.21876,10.24039 z"
   inkscape:connector-curvature="0"
   style="fill:#ffffff;stroke-width:4.03323"
   sodipodi:nodetypes="sscsscsssssss" /><path
   style="fill:#00082d;stroke-width:4.03323"
   inkscape:connector-curvature="0"
   id="path132"
   d="m 86.024845,83.85497 c 4.497055,4.497055 6.7476,9.877389 6.7476,16.14503 0,6.26362 -2.250545,11.64798 -6.7476,16.14504 -4.501089,4.49706 -9.881423,6.7476 -16.145035,6.7476 -6.263612,0 -11.647979,-2.25054 -16.145035,-6.7476 -4.501089,-4.49706 -6.7476,-9.88142 -6.7476,-16.14504 0,-6.267641 2.246511,-11.647975 6.7476,-16.14503 4.497056,-4.497056 9.881423,-6.7476 16.145035,-6.7476 6.263612,0 11.643946,2.250544 16.145035,6.7476 z m -2.528838,29.7572 c 3.775107,-3.77107 5.66266,-8.3125 5.66266,-13.61217 0,-5.303698 -1.891586,-9.837053 -5.66266,-13.616193 -3.775107,-3.771073 -8.312495,-5.66266 -13.612164,-5.66266 -5.299669,0 -9.84109,1.891587 -13.616197,5.66266 -3.775107,3.77914 -5.662661,8.312495 -5.662661,13.616193 0,5.29967 1.887554,9.8411 5.662661,13.61217 3.775107,3.77914 8.316528,5.66266 13.616197,5.66266 5.299669,0 9.837057,-1.88352 13.612164,-5.66266 z" /><path
   style="fill:#870000;stroke-width:4.03323"
   inkscape:connector-curvature="0"
   id="path134"
   d="m 81.810115,88.073732 c 3.291119,3.291119 4.940712,7.271921 4.940712,11.930308 0,4.65838 -1.649593,8.63918 -4.940712,11.92627 -3.295152,3.29515 -7.27192,4.94071 -11.930305,4.94071 -4.662418,0 -8.639187,-1.64556 -11.930306,-4.94071 -3.295152,-3.28709 -4.940711,-7.26789 -4.940711,-11.92627 0,-4.658387 1.645559,-8.635156 4.940711,-11.930308 3.291119,-3.291118 7.267888,-4.940711 11.930306,-4.940711 4.658385,0 8.635153,1.649593 11.930305,4.940711 z M 62.652255,100.242 c 0,-0.963944 0.08067,-1.766558 0.241994,-2.411875 0.157296,-0.637251 0.39929,-1.282568 0.721949,-1.927886 0.318625,-0.641284 0.560619,-1.121239 0.721949,-1.447931 L 61.688312,90.598537 H 58.796483 C 56.541906,93.333069 55.420667,96.466892 55.420667,100 v 0.96395 l 2.169879,1.68589 4.577721,-1.4439 z m 3.855771,13.73316 2.16988,-1.4439 v -4.81971 l -0.721949,-0.72598 c -1.766556,-0.48399 -3.129789,-1.4439 -4.097765,-2.89183 l -0.963943,-0.48399 -4.33976,1.4439 -0.963943,2.65386 c 1.927886,3.21853 4.90038,5.30371 8.91748,6.26765 z m -1.927885,-27.470356 -0.963943,2.649835 2.649834,3.855771 h 0.963943 c 0.641284,-0.157296 1.524563,-0.241994 2.649835,-0.241994 1.121239,0 2.00855,0.0847 2.649834,0.241994 h 0.963943 l 2.649835,-3.855771 -0.963943,-2.649835 c -1.927886,-0.637251 -3.698475,-0.963943 -5.299669,-0.963943 -1.605227,0 -3.371784,0.326692 -5.299669,0.963943 z m 8.675486,16.866986 c 0.963942,-0.96394 1.443897,-2.08518 1.443897,-3.37179 0,-1.282564 -0.483988,-2.411869 -1.443897,-3.371779 -0.963943,-0.963943 -2.089216,-1.443897 -3.371784,-1.443897 -1.286602,0 -2.411874,0.483988 -3.371783,1.443897 -0.95991,0.95991 -1.443898,2.089215 -1.443898,3.371779 0,1.28661 0.483988,2.40785 1.443898,3.37179 0.963942,0.96394 2.085181,1.44793 3.371783,1.44793 1.278535,0 2.403807,-0.48399 3.371784,-1.44793 z M 69.87981,97.592164 c 1.601194,0 2.40784,0.806647 2.40784,2.411876 0,1.60522 -0.806646,2.40784 -2.40784,2.40784 -1.605227,0 -2.411874,-0.80262 -2.411874,-2.40784 0,-1.609262 0.806647,-2.411876 2.411874,-2.411876 z m 6.989594,6.021616 c -2.407841,2.08922 -4.335726,3.45648 -5.783657,4.09777 v 4.81971 l 2.16988,1.4439 c 4.013067,-0.96394 6.98556,-3.04912 8.913446,-6.26361 l -0.963943,-2.65387 z m 0.241994,-3.37178 0.483988,0.96394 4.57772,1.4439 2.16988,-1.68589 V 100 c 0,-3.533108 -1.125272,-6.662898 -3.375816,-9.401463 h -2.891829 l -2.649835,3.855771 c 0.157296,0.326692 0.39929,0.806647 0.721949,1.447931 0.322659,0.641284 0.56062,1.286602 0.721949,1.927886 0.157296,0.645317 0.241994,1.447931 0.241994,2.411875 z" /><path
   style="fill:#00082d;stroke-width:4.03323"
   inkscape:connector-curvature="0"
   id="path136"
   d="m 57.110592,29.636208 c 4.497055,4.497055 6.7476,9.877389 6.7476,16.145035 0,6.263612 -2.250545,11.647979 -6.7476,16.145035 -4.501089,4.501089 -9.881423,6.7476 -16.145035,6.7476 -6.267646,0 -11.652013,-2.246511 -16.145035,-6.7476 -4.501089,-4.497056 -6.7476,-9.881423 -6.7476,-16.145035 0,-6.267646 2.246511,-11.64798 6.7476,-16.145035 4.493022,-4.497056 9.877389,-6.7476 16.145035,-6.7476 6.263612,0 11.643946,2.254577 16.145035,6.7476 z M 54.577721,59.39744 c 3.775107,-3.775107 5.66266,-8.312495 5.66266,-13.612164 0,-5.303703 -1.887553,-9.837057 -5.66266,-13.612164 -3.77914,-3.775107 -8.312495,-5.66266 -13.612164,-5.66266 -5.299669,0 -9.841091,1.891586 -13.612164,5.66266 -3.77914,3.775107 -5.662661,8.312495 -5.662661,13.612164 0,5.299669 1.887554,9.84109 5.662661,13.612164 3.771073,3.77914 8.312495,5.66266 13.612164,5.66266 5.299669,0 9.837057,-1.887553 13.612164,-5.66266 z M 52.891829,33.85497 c 3.291119,3.291119 4.940711,7.271921 4.940711,11.930306 0,4.658385 -1.649592,8.639187 -4.940711,11.930305 -3.295152,3.291119 -7.27192,4.940712 -11.930306,4.940712 -4.662418,0 -8.639186,-1.645559 -11.930305,-4.940712 -3.295152,-3.291118 -4.940712,-7.267887 -4.940712,-11.930305 0,-4.658385 1.64556,-8.635154 4.940712,-11.930306 3.291119,-3.291118 7.267887,-4.940711 11.930305,-4.940711 4.658386,0 8.635154,1.649593 11.930306,4.940711 z m -19.15786,12.168267 c 0,-0.963943 0.08066,-1.766557 0.241994,-2.411874 0.157296,-0.637251 0.39929,-1.282568 0.721948,-1.927886 0.322659,-0.641284 0.564653,-1.121239 0.721949,-1.447931 l -2.649834,-3.855771 h -2.891829 c -2.250544,2.734532 -3.371783,5.868355 -3.371783,9.401468 v 0.963943 l 2.169879,1.685891 4.577721,-1.443897 z m 3.855771,13.737194 2.16988,-1.443898 v -4.819714 l -0.721949,-0.725982 c -1.77059,-0.483988 -3.133823,-1.443898 -4.097766,-2.891829 l -0.963942,-0.479955 -4.33976,1.443898 -0.963943,2.653868 c 1.927886,3.210454 4.900379,5.295636 8.91748,6.263612 z m -1.927886,-27.474389 -0.963943,2.653868 2.649835,3.855772 h 0.963943 c 0.641284,-0.157296 1.524562,-0.241994 2.649834,-0.241994 1.121239,0 2.008551,0.0847 2.649835,0.241994 h 0.963943 L 47.225136,34.93991 46.261193,32.286042 C 44.333307,31.648791 42.562717,31.3221 40.961523,31.3221 c -1.605227,0 -3.371783,0.326691 -5.299669,0.963942 z m 8.675486,16.871017 c 0.963943,-0.963943 1.443898,-2.085181 1.443898,-3.371783 0,-1.282568 -0.483988,-2.411874 -1.443898,-3.371784 -0.963943,-0.963942 -2.089215,-1.443897 -3.371783,-1.443897 -1.286602,0 -2.411874,0.483988 -3.371784,1.443897 -0.963943,0.963943 -1.443897,2.089216 -1.443897,3.371784 0,1.286602 0.479954,2.40784 1.443897,3.371783 0.963943,0.963943 2.085182,1.443898 3.371784,1.443898 1.282568,0 2.40784,-0.479955 3.371783,-1.443898 z m -3.371783,-5.783657 c 1.605227,0 2.40784,0.806647 2.40784,2.411874 0,1.605227 -0.802613,2.40784 -2.40784,2.40784 -1.605227,0 -2.411874,-0.802613 -2.411874,-2.40784 0,-1.60926 0.802613,-2.411874 2.411874,-2.411874 z m 6.985561,6.025651 c -2.407841,2.089216 -4.335727,3.452449 -5.783658,4.097766 v 4.819714 l 2.16988,1.443898 c 4.013068,-0.963943 6.985561,-3.049125 8.913447,-6.263612 l -0.963943,-2.653868 z m 0.241994,-3.375816 0.479955,0.963943 4.57772,1.443897 2.16988,-1.685891 v -0.963943 c 0,-3.52908 -1.125273,-6.662903 -3.371784,-9.401468 h -2.891828 l -2.649835,3.855771 c 0.161329,0.326692 0.39929,0.806647 0.721949,1.447931 0.322659,0.641284 0.560619,1.286602 0.721949,1.927886 0.157296,0.645317 0.241994,1.447931 0.241994,2.411874 z M 114.9391,138.07373 c 4.49705,4.49706 6.7476,9.87739 6.7476,16.14504 0,6.26361 -2.25055,11.64798 -6.7476,16.14503 -4.49706,4.49302 -9.87739,6.74357 -16.145037,6.74357 -6.263612,0 -11.647979,-2.25055 -16.145035,-6.74357 -4.501089,-4.49705 -6.7476,-9.88142 -6.7476,-16.14503 0,-6.26765 2.246511,-11.64798 6.7476,-16.14504 4.497056,-4.49705 9.881423,-6.7476 16.145035,-6.7476 6.267647,0 11.647977,2.25055 16.145037,6.7476 z m -2.52884,29.7572 c 3.77511,-3.77107 5.66266,-8.31249 5.66266,-13.61216 0,-5.30371 -1.89159,-9.83706 -5.66266,-13.6162 -3.77511,-3.77107 -8.31249,-5.66266 -13.612164,-5.66266 -5.299669,0 -9.84109,1.89159 -13.612164,5.66266 -3.77914,3.77914 -5.66266,8.31249 -5.66266,13.6162 0,5.29967 1.88352,9.84109 5.66266,13.61216 3.775107,3.77914 8.312495,5.66266 13.612164,5.66266 5.299674,0 9.837054,-1.88352 13.612164,-5.66266 z m -1.68589,-25.54247 c 3.29112,3.29515 4.94071,7.27192 4.94071,11.93031 0,4.65838 -1.64959,8.63515 -4.94071,11.92627 -3.29515,3.29515 -7.27192,4.94071 -11.930307,4.94071 -4.662418,0 -8.639187,-1.64556 -11.930306,-4.94071 -3.295152,-3.29112 -4.940711,-7.26789 -4.940711,-11.92627 0,-4.65839 1.645559,-8.63516 4.940711,-11.93031 3.291119,-3.28708 7.267888,-4.93668 11.930306,-4.93668 4.658387,0 8.635157,1.6496 11.930307,4.93668 z m -19.157862,12.1723 c 0,-0.96394 0.08066,-1.76656 0.241994,-2.41187 0.161329,-0.63725 0.39929,-1.28257 0.725982,-1.92789 0.318626,-0.64128 0.56062,-1.12124 0.721949,-1.44793 L 90.606598,144.8173 H 87.71477 c -2.250545,2.73453 -3.371784,5.86835 -3.371784,9.40147 v 0.96394 l 2.16988,1.68589 4.57772,-1.4439 z m 3.855771,13.73316 2.16988,-1.4439 v -4.81971 l -0.721949,-0.72195 c -1.766556,-0.48399 -3.133822,-1.4439 -4.097765,-2.89183 l -0.963943,-0.48399 -4.335726,1.4439 -0.963943,2.64984 c 1.927886,3.21852 4.896346,5.3037 8.913446,6.26764 z m -1.927885,-27.47035 -0.963943,2.64983 2.649834,3.85577 h 0.963943 c 0.641285,-0.15729 1.524563,-0.24199 2.649835,-0.24199 1.121239,0 2.008547,0.0847 2.649837,0.24199 h 0.96394 l 2.64984,-3.85577 -0.96395,-2.64983 c -1.92788,-0.64129 -3.69847,-0.96395 -5.299667,-0.96395 -1.605227,0 -3.371784,0.32266 -5.299669,0.96395 z m 8.675486,16.86698 c 0.96394,-0.96394 1.4439,-2.08518 1.4439,-3.37178 0,-1.28257 -0.47996,-2.41188 -1.4439,-3.37179 -0.96394,-0.96394 -2.08922,-1.44389 -3.371784,-1.44389 -1.286601,0 -2.40784,0.47995 -3.371783,1.44389 -0.963943,0.96395 -1.443898,2.08922 -1.443898,3.37179 0,1.2866 0.483988,2.40784 1.443898,3.37178 0.963943,0.96394 2.085182,1.44793 3.371783,1.44793 1.282564,0 2.407844,-0.48399 3.371784,-1.44793 z m -3.371784,-5.78366 c 1.601194,0 2.411874,0.80665 2.411874,2.41188 0,1.60522 -0.80665,2.40784 -2.411874,2.40784 -1.605227,0 -2.40784,-0.80262 -2.40784,-2.40784 0,-1.60523 0.79858,-2.41188 2.40784,-2.41188 z m 6.985564,6.02565 c -2.40784,2.08922 -4.33573,3.45649 -5.78366,4.09777 v 4.81971 l 2.16988,1.4439 c 4.01307,-0.96394 6.98959,-3.04912 8.91748,-6.26361 l -0.96394,-2.64983 z m 0.24199,-3.37178 0.47996,0.96394 4.58175,1.4439 2.16988,-1.68589 v -0.96394 c 0,-3.53312 -1.12527,-6.66291 -3.37178,-9.40147 h -2.89183 l -2.64984,3.85577 c 0.16133,0.32669 0.39929,0.80665 0.72598,1.44793 0.31863,0.64129 0.56062,1.2866 0.72195,1.92789 0.15327,0.64531 0.23393,1.44389 0.23393,2.41187 z" /></svg>
