<?xml version="1.0" encoding="UTF-8" standalone="no"?>
<!-- Generator: Adobe Illustrator 16.0.0, SVG Export Plug-In . SVG Version: 6.00 Build 0)  -->

<svg
   version="1.1"
   id="图层_1"
   x="0px"
   y="0px"
   width="139.76401"
   height="200"
   viewBox="0 0 139.764 200"
   enable-background="new 0 0 714 341"
   xml:space="preserve"
   sodipodi:docname="sou-4.svg"
   inkscape:version="1.2.2 (b0a8486, 2022-12-01)"
   xmlns:inkscape="http://www.inkscape.org/namespaces/inkscape"
   xmlns:sodipodi="http://sodipodi.sourceforge.net/DTD/sodipodi-0.dtd"
   xmlns="http://www.w3.org/2000/svg"
   xmlns:svg="http://www.w3.org/2000/svg"
   xmlns:rdf="http://www.w3.org/1999/02/22-rdf-syntax-ns#"
   xmlns:cc="http://creativecommons.org/ns#"
   xmlns:dc="http://purl.org/dc/elements/1.1/"><metadata
   id="metadata621"><rdf:RDF><cc:Work
       rdf:about=""><dc:format>image/svg+xml</dc:format><dc:type
         rdf:resource="http://purl.org/dc/dcmitype/StillImage" /><dc:title /></cc:Work></rdf:RDF></metadata><defs
   id="defs619" /><sodipodi:namedview
   pagecolor="#ffffff"
   bordercolor="#666666"
   borderopacity="1"
   objecttolerance="10"
   gridtolerance="10"
   guidetolerance="10"
   inkscape:pageopacity="0"
   inkscape:pageshadow="2"
   inkscape:window-width="1860"
   inkscape:window-height="1016"
   id="namedview617"
   showgrid="false"
   inkscape:zoom="1"
   inkscape:cx="-49"
   inkscape:cy="153.5"
   inkscape:window-x="1980"
   inkscape:window-y="27"
   inkscape:window-maximized="1"
   inkscape:current-layer="图层_1"
   inkscape:showpageshadow="2"
   inkscape:pagecheckerboard="0"
   inkscape:deskcolor="#d1d1d1" />



















































































































































































































































































































<path
   id="path2"
   d="m 139.76365,14.45915 v 171.08574 c 0,4.01307 -1.4076,7.42922 -4.21473,10.24038 C 132.73776,198.5924 129.3216,200 125.30854,200 H 14.459143 C 10.442042,200 7.025893,198.5924 4.21473,195.78527 1.403566,192.97411 0,189.55796 0,185.54489 V 14.45915 C 0,10.44608 1.403566,7.02993 4.21473,4.21876 7.025893,1.4076 10.438009,0 14.459143,0 H 125.30451 c 4.01306,0 7.42921,1.4076 10.24037,4.21876 2.81116,2.81117 4.21876,6.22329 4.21877,10.24039 z"
   inkscape:connector-curvature="0"
   style="fill:#ffffff;stroke-width:4.03323"
   sodipodi:nodetypes="sscsscsssssss" /><path
   style="fill:#00082d;stroke-width:4.03323"
   inkscape:connector-curvature="0"
   id="path140"
   d="m 57.106552,29.636208 c 4.497056,4.497055 6.747601,9.877389 6.747601,16.145035 0,6.263612 -2.250545,11.647979 -6.747601,16.145035 -4.501088,4.501089 -9.881422,6.7476 -16.145034,6.7476 -6.267646,0 -11.652013,-2.246511 -16.145035,-6.7476 -4.501089,-4.497056 -6.747601,-9.881423 -6.747601,-16.145035 0,-6.267646 2.246512,-11.64798 6.747601,-16.145035 4.493022,-4.497056 9.877389,-6.7476 16.145035,-6.7476 6.263612,0 11.643946,2.254577 16.145034,6.7476 z m 0,108.437522 c 4.497056,4.49706 6.747601,9.87739 6.747601,16.14504 0,6.26361 -2.250545,11.64798 -6.747601,16.14503 -4.501088,4.49302 -9.881422,6.74357 -16.145034,6.74357 -6.267646,0 -11.652013,-2.25055 -16.145035,-6.74357 -4.501089,-4.49705 -6.747601,-9.88142 -6.747601,-16.14503 0,-6.26765 2.246512,-11.64798 6.747601,-16.14504 4.493022,-4.49705 9.877389,-6.7476 16.145035,-6.7476 6.263612,0 11.643946,2.25055 16.145034,6.7476 z m -2.53287,-78.67629 c 3.775106,-3.775107 5.66266,-8.312495 5.66266,-13.612164 0,-5.303703 -1.887554,-9.837057 -5.66266,-13.612164 -3.775107,-3.775107 -8.312495,-5.66266 -13.612164,-5.66266 -5.29967,0 -9.841091,1.891586 -13.612165,5.66266 -3.77914,3.775107 -5.66266,8.312495 -5.66266,13.612164 0,5.299669 1.887554,9.84109 5.66266,13.612164 3.771074,3.77914 8.312495,5.66266 13.612165,5.66266 5.299669,0 9.837057,-1.887553 13.612164,-5.66266 z m 0,108.43349 c 3.775106,-3.77107 5.66266,-8.31249 5.66266,-13.61216 0,-5.30371 -1.887554,-9.83706 -5.66266,-13.6162 -3.775107,-3.77107 -8.312495,-5.66266 -13.612164,-5.66266 -5.29967,0 -9.841091,1.89159 -13.612165,5.66266 -3.77914,3.77914 -5.66266,8.31249 -5.66266,13.6162 0,5.29967 1.887554,9.84109 5.66266,13.61216 3.771074,3.77914 8.312495,5.66266 13.612165,5.66266 5.299669,0 9.837057,-1.88352 13.612164,-5.66266 z M 52.88779,33.85497 c 3.291119,3.291119 4.940711,7.271921 4.940711,11.930306 0,4.658385 -1.649592,8.639187 -4.940711,11.930305 -3.295152,3.291119 -7.271921,4.940712 -11.930306,4.940712 -4.662418,0 -8.639187,-1.645559 -11.930305,-4.940712 -3.295152,-3.291118 -4.940712,-7.267887 -4.940712,-11.930305 0,-4.658385 1.64556,-8.635154 4.940712,-11.930306 3.291118,-3.291118 7.267887,-4.940711 11.930305,-4.940711 4.662419,0 8.639187,1.649593 11.930306,4.940711 z m 0,108.43349 c 3.291119,3.29515 4.940711,7.27192 4.940711,11.93031 0,4.65838 -1.649592,8.63515 -4.940711,11.92627 -3.295152,3.29515 -7.271921,4.94071 -11.930306,4.94071 -4.662418,0 -8.639187,-1.64556 -11.930305,-4.94071 -3.295152,-3.29112 -4.940712,-7.26789 -4.940712,-11.92627 0,-4.65839 1.64556,-8.63516 4.940712,-11.93031 3.291118,-3.28708 7.267887,-4.93668 11.930305,-4.93668 4.662419,0 8.639187,1.6496 11.930306,4.93668 z M 33.729929,46.023237 c 0,-0.963943 0.08067,-1.766557 0.241994,-2.411874 0.157296,-0.637251 0.39929,-1.282568 0.721949,-1.927886 0.322659,-0.641284 0.564653,-1.121239 0.721949,-1.447931 l -2.649835,-3.855771 h -2.891828 c -2.250545,2.734532 -3.371784,5.868355 -3.371784,9.401468 v 0.963943 l 2.16988,1.685891 4.577721,-1.443897 z m 0,108.437523 c 0,-0.96394 0.08067,-1.76656 0.241994,-2.41187 0.157296,-0.63725 0.39929,-1.28257 0.721949,-1.92789 0.322659,-0.64128 0.564653,-1.12124 0.721949,-1.44793 l -2.649835,-3.85577 h -2.891828 c -2.250545,2.73453 -3.371784,5.86835 -3.371784,9.40147 v 0.96394 l 2.16988,1.68589 4.577721,-1.4439 z m 3.859805,-94.700329 2.16988,-1.443898 v -4.819714 l -0.721949,-0.725982 c -1.77059,-0.483988 -3.133823,-1.443898 -4.097766,-2.891829 l -0.963942,-0.479955 -4.33976,1.443898 -0.963943,2.653868 c 1.927886,3.210454 4.896346,5.295636 8.91748,6.263612 z m 0,108.433489 2.16988,-1.4439 v -4.81971 l -0.721949,-0.72195 c -1.77059,-0.48399 -3.133823,-1.4439 -4.097766,-2.89183 l -0.963942,-0.48399 -4.33976,1.4439 -0.963943,2.64984 c 1.927886,3.21852 4.896346,5.3037 8.91748,6.26764 z M 35.661848,32.286042 34.697905,34.93991 37.34774,38.795682 h 0.963943 c 0.641284,-0.157296 1.524562,-0.241994 2.649835,-0.241994 1.121239,0 2.00855,0.0847 2.649834,0.241994 h 0.963943 L 47.22513,34.93991 46.261187,32.286042 C 44.333301,31.648791 42.562711,31.3221 40.961518,31.3221 c -1.605228,0 -3.371784,0.326691 -5.29967,0.963942 z m 0,108.437528 -0.963943,2.64983 2.649835,3.85577 h 0.963943 c 0.641284,-0.15729 1.524562,-0.24199 2.649835,-0.24199 1.121239,0 2.00855,0.0847 2.649834,0.24199 h 0.963943 l 2.649835,-3.85577 -0.963943,-2.64983 c -1.927886,-0.64129 -3.698476,-0.96395 -5.299669,-0.96395 -1.605228,0 -3.371784,0.32266 -5.29967,0.96395 z m 8.671453,-91.566511 c 0.963943,-0.963943 1.443898,-2.085181 1.443898,-3.371783 0,-1.282568 -0.483988,-2.411874 -1.443898,-3.371784 -0.963943,-0.963942 -2.089215,-1.443897 -3.371783,-1.443897 -1.286602,0 -2.411874,0.483988 -3.371784,1.443897 -0.963943,0.963943 -1.443898,2.089216 -1.443898,3.371784 0,1.286602 0.479955,2.40784 1.443898,3.371783 0.963943,0.963943 2.085182,1.443898 3.371784,1.443898 1.282568,0 2.40784,-0.479955 3.371783,-1.443898 z m 0,108.433491 c 0.963943,-0.96394 1.443898,-2.08518 1.443898,-3.37178 0,-1.28257 -0.483988,-2.41188 -1.443898,-3.37179 -0.963943,-0.96394 -2.089215,-1.44389 -3.371783,-1.44389 -1.286602,0 -2.411874,0.47995 -3.371784,1.44389 -0.963943,0.96395 -1.443898,2.08922 -1.443898,3.37179 0,1.2866 0.479955,2.40784 1.443898,3.37178 0.963943,0.96394 2.085182,1.44793 3.371784,1.44793 1.282568,0 2.40784,-0.48399 3.371783,-1.44793 z M 40.961518,43.373402 c 1.605227,0 2.40784,0.806647 2.40784,2.411874 0,1.605227 -0.802613,2.40784 -2.40784,2.40784 -1.605228,0 -2.411874,-0.802613 -2.411874,-2.40784 0,-1.60926 0.806646,-2.411874 2.411874,-2.411874 z m 0,108.433488 c 1.605227,0 2.40784,0.80665 2.40784,2.41188 0,1.60522 -0.802613,2.40784 -2.40784,2.40784 -1.605228,0 -2.411874,-0.80262 -2.411874,-2.40784 0,-1.60523 0.806646,-2.41188 2.411874,-2.41188 z m 6.98556,-102.407837 c -2.40784,2.089216 -4.335726,3.452449 -5.783657,4.097766 v 4.819714 l 2.16988,1.443898 c 4.013068,-0.963943 6.985561,-3.049125 8.913447,-6.263612 l -0.963943,-2.653868 z m 0,108.433487 c -2.40784,2.08922 -4.335726,3.45649 -5.783657,4.09777 v 4.81971 l 2.16988,1.4439 c 4.013068,-0.96394 6.985561,-3.04912 8.913447,-6.26361 l -0.963943,-2.64983 z m 0.241994,-111.809303 0.479955,0.963943 4.577721,1.443897 2.169879,-1.685891 v -0.963943 c 0,-3.52908 -1.125272,-6.662903 -3.371783,-9.401468 h -2.891829 l -2.649834,3.855771 c 0.161329,0.326692 0.39929,0.806647 0.721949,1.447931 0.322658,0.641284 0.560619,1.286602 0.721948,1.927886 0.157297,0.645317 0.241994,1.447931 0.241994,2.411874 z m 0,108.437523 0.479955,0.96394 4.577721,1.4439 2.169879,-1.68589 v -0.96394 c 0,-3.53312 -1.125272,-6.66291 -3.371783,-9.40147 h -2.891829 l -2.649834,3.85577 c 0.161329,0.32669 0.39929,0.80665 0.721949,1.44793 0.322658,0.64129 0.560619,1.2866 0.721948,1.92789 0.157297,0.64531 0.241994,1.44389 0.241994,2.41187 z M 114.93909,29.636208 c 4.49706,4.497055 6.7476,9.877389 6.7476,16.145035 0,6.263612 -2.25054,11.647979 -6.7476,16.145035 -4.49705,4.501089 -9.87739,6.7476 -16.145033,6.7476 -6.263612,0 -11.647979,-2.246511 -16.145035,-6.7476 -4.501089,-4.497056 -6.7476,-9.881423 -6.7476,-16.145035 0,-6.267646 2.246511,-11.64798 6.7476,-16.145035 4.497056,-4.497056 9.881423,-6.7476 16.145035,-6.7476 6.267643,0 11.647983,2.254577 16.145033,6.7476 z m 0,108.437522 c 4.49706,4.49706 6.7476,9.87739 6.7476,16.14504 0,6.26361 -2.25054,11.64798 -6.7476,16.14503 -4.49705,4.49302 -9.87739,6.74357 -16.145033,6.74357 -6.263612,0 -11.647979,-2.25055 -16.145035,-6.74357 -4.501089,-4.49705 -6.7476,-9.88142 -6.7476,-16.14503 0,-6.26765 2.246511,-11.64798 6.7476,-16.14504 4.497056,-4.49705 9.881423,-6.7476 16.145035,-6.7476 6.267643,0 11.647983,2.25055 16.145033,6.7476 z m -2.53287,-78.67629 c 3.77511,-3.775107 5.66266,-8.312495 5.66266,-13.612164 0,-5.303703 -1.89159,-9.837057 -5.66266,-13.612164 -3.77511,-3.775107 -8.31249,-5.66266 -13.612163,-5.66266 -5.299669,0 -9.84109,1.891586 -13.612164,5.66266 -3.77914,3.775107 -5.66266,8.312495 -5.66266,13.612164 0,5.299669 1.88352,9.84109 5.66266,13.612164 3.775107,3.77914 8.312495,5.66266 13.612164,5.66266 5.299673,0 9.837053,-1.887553 13.612163,-5.66266 z m 0,108.43349 c 3.77511,-3.77107 5.66266,-8.31249 5.66266,-13.61216 0,-5.30371 -1.89159,-9.83706 -5.66266,-13.6162 -3.77511,-3.77107 -8.31249,-5.66266 -13.612163,-5.66266 -5.299669,0 -9.84109,1.89159 -13.612164,5.66266 -3.77914,3.77914 -5.66266,8.31249 -5.66266,13.6162 0,5.29967 1.88352,9.84109 5.66266,13.61216 3.775107,3.77914 8.312495,5.66266 13.612164,5.66266 5.299673,0 9.837053,-1.88352 13.612163,-5.66266 z M 110.72033,33.85497 c 3.29112,3.291119 4.94071,7.271921 4.94071,11.930306 0,4.658385 -1.64959,8.639187 -4.94071,11.930305 -3.29515,3.291119 -7.27192,4.940712 -11.930306,4.940712 -4.662419,0 -8.639187,-1.645559 -11.930306,-4.940712 -3.295152,-3.291118 -4.940711,-7.267887 -4.940711,-11.930305 0,-4.658385 1.645559,-8.635154 4.940711,-11.930306 3.291119,-3.291118 7.267887,-4.940711 11.930306,-4.940711 4.662416,0 8.635156,1.649593 11.930306,4.940711 z m 0,108.43349 c 3.29112,3.29515 4.94071,7.27192 4.94071,11.93031 0,4.65838 -1.64959,8.63515 -4.94071,11.92627 -3.29515,3.29515 -7.27192,4.94071 -11.930306,4.94071 -4.662419,0 -8.639187,-1.64556 -11.930306,-4.94071 -3.295152,-3.29112 -4.940711,-7.26789 -4.940711,-11.92627 0,-4.65839 1.645559,-8.63516 4.940711,-11.93031 3.291119,-3.28708 7.267887,-4.93668 11.930306,-4.93668 4.662416,0 8.635156,1.6496 11.930306,4.93668 z M 91.562469,46.023237 c 0,-0.963943 0.08066,-1.766557 0.241994,-2.411874 0.161329,-0.637251 0.39929,-1.282568 0.725982,-1.927886 0.318625,-0.641284 0.560619,-1.121239 0.721949,-1.447931 l -2.649835,-3.855771 h -2.891828 c -2.250545,2.734532 -3.371784,5.868355 -3.371784,9.401468 v 0.963943 l 2.16988,1.685891 4.57772,-1.443897 z m 0,108.437523 c 0,-0.96394 0.08066,-1.76656 0.241994,-2.41187 0.161329,-0.63725 0.39929,-1.28257 0.725982,-1.92789 0.318625,-0.64128 0.560619,-1.12124 0.721949,-1.44793 l -2.649835,-3.85577 h -2.891828 c -2.250545,2.73453 -3.371784,5.86835 -3.371784,9.40147 v 0.96394 l 2.16988,1.68589 4.57772,-1.4439 z m 3.855771,-94.700329 2.16988,-1.443898 v -4.819714 l -0.721949,-0.725982 c -1.766556,-0.483988 -3.133822,-1.443898 -4.097765,-2.891829 l -0.963943,-0.479955 -4.335727,1.443898 -0.963942,2.653868 c 1.927885,3.210454 4.896345,5.295636 8.913446,6.263612 z m 0,108.433489 2.16988,-1.4439 v -4.81971 l -0.721949,-0.72195 c -1.766556,-0.48399 -3.133822,-1.4439 -4.097765,-2.89183 l -0.963943,-0.48399 -4.335727,1.4439 -0.963942,2.64984 c 1.927885,3.21852 4.896345,5.3037 8.913446,6.26764 z m -1.927885,-135.907878 -0.963943,2.653868 2.649834,3.855772 h 0.963943 c 0.641284,-0.157296 1.524563,-0.241994 2.649835,-0.241994 1.121239,0 2.008546,0.0847 2.649836,0.241994 h 0.96394 l 2.64984,-3.855772 -0.96395,-2.653868 c -1.92788,-0.637251 -3.69847,-0.963942 -5.299666,-0.963942 -1.605227,0 -3.371784,0.326691 -5.299669,0.963942 z m 0,108.437528 -0.963943,2.64983 2.649834,3.85577 h 0.963943 c 0.641284,-0.15729 1.524563,-0.24199 2.649835,-0.24199 1.121239,0 2.008546,0.0847 2.649836,0.24199 h 0.96394 l 2.64984,-3.85577 -0.96395,-2.64983 c -1.92788,-0.64129 -3.69847,-0.96395 -5.299666,-0.96395 -1.605227,0 -3.371784,0.32266 -5.299669,0.96395 z m 8.675485,-91.566511 c 0.96394,-0.963943 1.4439,-2.085181 1.4439,-3.371783 0,-1.282568 -0.47996,-2.411874 -1.4439,-3.371784 -0.96394,-0.963942 -2.08921,-1.443897 -3.371783,-1.443897 -1.286602,0 -2.407841,0.483988 -3.371783,1.443897 -0.963943,0.963943 -1.443898,2.089216 -1.443898,3.371784 0,1.286602 0.483988,2.40784 1.443898,3.371783 0.963942,0.963943 2.085181,1.443898 3.371783,1.443898 1.282573,0 2.407843,-0.479955 3.371783,-1.443898 z m 0,108.433491 c 0.96394,-0.96394 1.4439,-2.08518 1.4439,-3.37178 0,-1.28257 -0.47996,-2.41188 -1.4439,-3.37179 -0.96394,-0.96394 -2.08921,-1.44389 -3.371783,-1.44389 -1.286602,0 -2.407841,0.47995 -3.371783,1.44389 -0.963943,0.96395 -1.443898,2.08922 -1.443898,3.37179 0,1.2866 0.483988,2.40784 1.443898,3.37178 0.963942,0.96394 2.085181,1.44793 3.371783,1.44793 1.282573,0 2.407843,-0.48399 3.371783,-1.44793 z M 98.794057,43.373402 c 1.601193,0 2.411873,0.806647 2.411873,2.411874 0,1.605227 -0.80665,2.40784 -2.411873,2.40784 -1.605227,0 -2.407841,-0.802613 -2.407841,-2.40784 0,-1.60926 0.798581,-2.411874 2.407841,-2.411874 z m 0,108.433488 c 1.601193,0 2.411873,0.80665 2.411873,2.41188 0,1.60522 -0.80665,2.40784 -2.411873,2.40784 -1.605227,0 -2.407841,-0.80262 -2.407841,-2.40784 0,-1.60523 0.798581,-2.41188 2.407841,-2.41188 z M 105.77962,49.399053 c -2.40784,2.089216 -4.33573,3.452449 -5.783659,4.097766 v 4.819714 l 2.169879,1.443898 c 4.01307,-0.963943 6.98959,-3.049125 8.91748,-6.263612 l -0.96394,-2.653868 z m 0,108.433487 c -2.40784,2.08922 -4.33573,3.45649 -5.783659,4.09777 v 4.81971 l 2.169879,1.4439 c 4.01307,-0.96394 6.98959,-3.04912 8.91748,-6.26361 l -0.96394,-2.64983 z m 0.24199,-111.809303 0.47996,0.963943 4.58175,1.443897 2.16988,-1.685891 v -0.963943 c 0,-3.52908 -1.12527,-6.662903 -3.37178,-9.401468 h -2.89183 l -2.64984,3.855771 c 0.16133,0.326692 0.39929,0.806647 0.72599,1.447931 0.31862,0.641284 0.56062,1.286602 0.72194,1.927886 0.15327,0.645317 0.23393,1.447931 0.23393,2.411874 z m 0,108.437523 0.47996,0.96394 4.58175,1.4439 2.16988,-1.68589 v -0.96394 c 0,-3.53312 -1.12527,-6.66291 -3.37178,-9.40147 h -2.89183 l -2.64984,3.85577 c 0.16133,0.32669 0.39929,0.80665 0.72599,1.44793 0.31862,0.64129 0.56062,1.2866 0.72194,1.92789 0.15327,0.64531 0.23393,1.44389 0.23393,2.41187 z" /></svg>
