<?xml version="1.0" encoding="UTF-8" standalone="no"?>
<!-- Generator: Adobe Illustrator 16.0.0, SVG Export Plug-In . SVG Version: 6.00 Build 0)  -->

<svg
   version="1.1"
   id="图层_1"
   x="0px"
   y="0px"
   width="139.76401"
   height="200"
   viewBox="0 0 139.764 200"
   enable-background="new 0 0 714 341"
   xml:space="preserve"
   sodipodi:docname="sou-2.svg"
   inkscape:version="1.2.2 (b0a8486, 2022-12-01)"
   xmlns:inkscape="http://www.inkscape.org/namespaces/inkscape"
   xmlns:sodipodi="http://sodipodi.sourceforge.net/DTD/sodipodi-0.dtd"
   xmlns="http://www.w3.org/2000/svg"
   xmlns:svg="http://www.w3.org/2000/svg"
   xmlns:rdf="http://www.w3.org/1999/02/22-rdf-syntax-ns#"
   xmlns:cc="http://creativecommons.org/ns#"
   xmlns:dc="http://purl.org/dc/elements/1.1/"><metadata
   id="metadata621"><rdf:RDF><cc:Work
       rdf:about=""><dc:format>image/svg+xml</dc:format><dc:type
         rdf:resource="http://purl.org/dc/dcmitype/StillImage" /><dc:title /></cc:Work></rdf:RDF></metadata><defs
   id="defs619" /><sodipodi:namedview
   pagecolor="#ffffff"
   bordercolor="#666666"
   borderopacity="1"
   objecttolerance="10"
   gridtolerance="10"
   guidetolerance="10"
   inkscape:pageopacity="0"
   inkscape:pageshadow="2"
   inkscape:window-width="1860"
   inkscape:window-height="1016"
   id="namedview617"
   showgrid="false"
   inkscape:zoom="1"
   inkscape:cx="-106"
   inkscape:cy="113.5"
   inkscape:window-x="1980"
   inkscape:window-y="27"
   inkscape:window-maximized="1"
   inkscape:current-layer="图层_1"
   inkscape:showpageshadow="2"
   inkscape:pagecheckerboard="0"
   inkscape:deskcolor="#d1d1d1" />



















































































































































































































































































































<path
   id="path2"
   d="M 139.76365,14.459143 V 185.54489 c 0,4.01307 -1.4076,7.42922 -4.21473,10.24038 C 132.73776,198.5924 129.32161,200 125.30854,200 H 14.459143 C 10.442042,200 7.025893,198.5924 4.214729,195.78527 1.403566,192.97411 0,189.55796 0,185.54489 V 14.459143 C 0,10.446076 1.403566,7.029927 4.214729,4.218763 7.025893,1.407599 10.438009,0 14.459143,0 H 125.30451 c 4.01307,0 7.42921,1.407599 10.24038,4.218763 2.81116,2.811164 4.21876,6.22328 4.21876,10.24038 z"
   inkscape:connector-curvature="0"
   style="fill:#ffffff;stroke-width:4.03323"
   sodipodi:nodetypes="sscsscsssssss" /><path
   style="fill:#00082d;stroke-width:4.03323"
   inkscape:connector-curvature="0"
   id="path128"
   d="m 91.324513,39.997585 c 5.940954,5.944987 8.913447,13.095911 8.913447,21.444705 0,8.35686 -2.972493,15.50375 -8.913447,21.448737 -5.944986,5.944986 -13.09591,8.913447 -21.444704,8.913447 -8.352827,0 -15.503751,-2.972494 -21.444704,-8.913447 -5.944987,-5.944987 -8.91748,-13.091877 -8.91748,-21.448737 0,-8.348794 2.972493,-15.499718 8.91748,-21.444705 5.940953,-5.940953 13.091877,-8.913446 21.444704,-8.913446 8.352827,0 15.503751,2.976526 21.444704,8.913446 z m 0,77.111395 c 5.940954,5.94499 8.913447,13.09591 8.913447,21.44471 0,8.35282 -2.972493,15.50375 -8.913447,21.4447 -5.944986,5.94499 -13.09591,8.91345 -21.444704,8.91345 -8.352827,0 -15.503751,-2.96846 -21.444704,-8.91345 -5.944987,-5.94095 -8.91748,-13.09188 -8.91748,-21.4447 0,-8.3488 2.972493,-15.49972 8.91748,-21.44471 5.940953,-5.94095 13.091877,-8.91344 21.444704,-8.91344 8.352827,-0.004 15.503751,2.97249 21.444704,8.91344 z M 88.315721,79.878201 c 5.057675,-5.057675 7.590546,-11.204323 7.590546,-18.431878 0,-7.227555 -2.528838,-13.374204 -7.590546,-18.431879 -5.061709,-5.061708 -11.204324,-7.590546 -18.435912,-7.590546 -7.231588,0 -13.37017,2.528838 -18.431878,7.590546 -5.057676,5.057675 -7.590546,11.204324 -7.590546,18.431879 0,7.227555 2.53287,13.374203 7.590546,18.431878 5.061708,5.061709 11.204323,7.590546 18.431878,7.590546 7.227555,0 13.374203,-2.528837 18.435912,-7.590546 z m 0,77.111399 c 5.057675,-5.06171 7.590546,-11.20433 7.590546,-18.43591 0,-7.23159 -2.528838,-13.37421 -7.590546,-18.43188 -5.061709,-5.06171 -11.204324,-7.59055 -18.435912,-7.59055 -7.231588,0 -13.37017,2.52884 -18.431878,7.59055 -5.057676,5.05767 -7.590546,11.20432 -7.590546,18.43188 0,7.22755 2.53287,13.3742 7.590546,18.43591 5.061708,5.05767 11.204323,7.59054 18.431878,7.59054 7.227555,0 13.374203,-2.53287 18.435912,-7.59054 z M 86.266838,45.059294 c 4.497056,4.497056 6.7476,9.962087 6.7476,16.387029 0,6.424941 -2.250544,11.889973 -6.7476,16.387029 -4.501089,4.501089 -9.962088,6.7476 -16.387029,6.7476 -6.424941,0 -11.889973,-2.250545 -16.387029,-6.7476 -4.501089,-4.493023 -6.7476,-9.958055 -6.7476,-16.387029 0,-6.420908 2.246511,-11.88594 6.7476,-16.387029 4.497056,-4.497056 9.958054,-6.7476 16.387029,-6.7476 6.424941,0 11.88594,2.250544 16.387029,6.7476 z m 0,77.111396 c 4.497056,4.49706 6.7476,9.96209 6.7476,16.38703 0,6.42897 -2.250544,11.88997 -6.7476,16.38703 -4.501089,4.49705 -9.962088,6.74357 -16.387029,6.74357 -6.424941,0 -11.889973,-2.24652 -16.387029,-6.74357 -4.501089,-4.49706 -6.7476,-9.95806 -6.7476,-16.38703 0,-6.42494 2.246511,-11.88594 6.7476,-16.38703 4.497056,-4.49705 9.958054,-6.7476 16.387029,-6.7476 6.424941,-0.004 11.88594,2.25055 16.387029,6.7476 z M 61.204323,60.478347 c 0,-0.318626 0.08066,-0.758248 0.241994,-1.326934 0.157296,-0.56062 0.318626,-1.000242 0.483988,-1.322901 l -7.953537,-4.581754 -5.061708,2.411874 c -0.479955,1.931919 -0.721949,3.855772 -0.721949,5.783658 0,1.927885 0.241994,3.855771 0.721949,5.783657 l 5.061708,2.40784 7.953537,-4.57772 C 61.764943,64.737442 61.603613,64.297819 61.446317,63.733166 61.284988,63.172547 61.204323,62.728891 61.204323,62.406232 H 53.49278 v -1.931919 h 7.711543 z m 0,77.111393 c 0,-0.32266 0.08066,-0.75824 0.241994,-1.32693 0.157296,-0.56062 0.318626,-1.00428 0.483988,-1.32693 l -7.953537,-4.57772 -5.061708,2.41187 c -0.479955,1.92789 -0.721949,3.85577 -0.721949,5.78366 0,1.92788 0.241994,3.85577 0.721949,5.78365 l 5.061708,2.40784 7.953537,-4.57772 c -0.165362,-0.32265 -0.326692,-0.75824 -0.483988,-1.32693 -0.161329,-0.56465 -0.241994,-1.00428 -0.241994,-1.32693 H 53.49278 v -1.92789 h 7.711543 z m 7.711543,-84.818903 v -9.159474 l -4.57772,-3.133823 c -4.017101,0.967976 -7.312253,2.891829 -9.87739,5.787691 l 0.241994,5.541663 8.191498,4.57772 c 0.483988,-0.802613 1.121239,-1.443897 1.927886,-1.927885 l -3.855772,-6.747601 1.443898,-0.963942 3.855772,6.7476 c 0.322658,-0.16133 0.758247,-0.322659 1.326933,-0.483988 0.56062,-0.157296 1.000242,-0.237961 1.322901,-0.237961 z m 0,17.350972 c -0.322659,0 -0.762281,-0.08066 -1.326934,-0.246028 -0.564653,-0.157296 -1.004275,-0.318625 -1.326934,-0.479954 l -3.855771,6.7476 -1.443898,-0.963943 3.855772,-6.7476 c -0.806647,-0.479955 -1.443898,-1.121239 -1.927886,-1.927886 l -8.191498,4.57772 -0.241994,5.541664 c 2.565137,2.891828 5.860289,4.819714 9.87739,5.783657 l 4.57772,-3.12979 v -9.15544 z m 0,59.756391 v -9.15544 l -4.57772,-3.13382 c -4.017101,0.96394 -7.312253,2.89183 -9.87739,5.78365 l 0.241994,5.5457 8.191498,4.57772 c 0.483988,-0.80261 1.121239,-1.44793 1.927886,-1.93192 l -3.855772,-6.74356 1.443898,-0.96395 3.855772,6.7476 c 0.322658,-0.15729 0.758247,-0.32266 1.326933,-0.47995 0.56062,-0.16133 1.000242,-0.24603 1.322901,-0.24603 z m 0,17.35097 c -0.322659,0 -0.762281,-0.0807 -1.326934,-0.24199 -0.564653,-0.1573 -1.004275,-0.32266 -1.326934,-0.48399 l -3.855771,6.7476 -1.443898,-0.96394 3.855772,-6.74357 c -0.806647,-0.48399 -1.443898,-1.12124 -1.927886,-1.92789 l -8.191498,4.57773 -0.241994,5.54569 c 2.565137,2.89183 5.860289,4.81972 9.87739,5.78366 l 4.57772,-3.12979 v -9.16351 z M 64.697104,56.263617 c -1.363233,1.363233 -2.048883,3.093491 -2.048883,5.178673 0,2.089215 0.681616,3.819472 2.048883,5.182705 1.363233,1.367266 3.09349,2.048883 5.182705,2.048883 2.089215,0 3.815439,-0.681617 5.182705,-2.048883 1.363233,-1.363233 2.048883,-3.09349 2.048883,-5.182705 0,-2.085182 -0.68565,-3.81544 -2.048883,-5.178673 -1.367266,-1.363233 -3.09349,-2.048882 -5.182705,-2.048882 -2.089215,0.004 -3.815439,0.685649 -5.182705,2.048882 z m 0,77.111393 c -1.363233,1.36727 -2.048883,3.09753 -2.048883,5.18271 0,2.08921 0.681616,3.81947 2.048883,5.18271 1.363233,1.36726 3.09349,2.04888 5.182705,2.04888 2.089215,0 3.815439,-0.68162 5.182705,-2.04888 1.363233,-1.36324 2.048883,-3.0935 2.048883,-5.18271 0,-2.08518 -0.68565,-3.81141 -2.048883,-5.18271 -1.367266,-1.3592 -3.09349,-2.04888 -5.182705,-2.04888 -2.089215,0 -3.815439,0.68565 -5.182705,2.04888 z m 5.182705,-68.556904 c -2.250544,0 -3.371783,-1.121239 -3.371783,-3.371783 0,-2.246511 1.121239,-3.371784 3.371783,-3.371784 2.250544,0 3.375817,1.125273 3.375817,3.371784 0,2.250544 -1.129306,3.371783 -3.375817,3.371783 z m 0,77.111394 c -2.250544,0 -3.371783,-1.12124 -3.371783,-3.37178 0,-2.24651 1.121239,-3.37178 3.371783,-3.37178 2.250544,0 3.375817,1.12527 3.375817,3.37178 0,2.24651 -1.129306,3.37178 -3.375817,3.37178 z m 7.469549,-95.184314 1.443898,0.963942 -3.855772,6.747601 c 0.802614,0.483988 1.443898,1.125272 1.927886,1.927885 l 8.191498,-4.57772 0.241994,-5.541663 C 82.725659,43.373402 79.43454,41.445516 75.421472,40.47754 l -4.57772,3.133823 v 9.159474 c 0.318625,0 0.758248,0.0847 1.326934,0.241994 0.560619,0.165362 1.000242,0.326692 1.326934,0.483988 z m 1.447931,28.434298 -1.443898,0.963943 -3.855771,-6.7476 c -0.326692,0.161329 -0.762281,0.322658 -1.326934,0.479954 -0.564653,0.165363 -1.008309,0.246028 -1.326934,0.246028 v 9.15544 l 4.57772,3.12979 c 4.013068,-0.963943 7.30822,-2.891829 9.87739,-5.783657 l -0.241994,-5.541664 -8.191498,-4.57772 c -0.483988,0.806647 -1.125272,1.443898 -1.927886,1.927886 z m -1.447931,48.677096 1.443898,0.96395 -3.855772,6.74356 c 0.802614,0.48399 1.443898,1.12527 1.927886,1.93192 l 8.191498,-4.57772 0.241994,-5.5457 c -2.573203,-2.88779 -5.864322,-4.81971 -9.87739,-5.78365 l -4.57772,3.13382 v 9.15544 c 0.318625,0 0.758248,0.0847 1.326934,0.24199 0.560619,0.16133 1.000242,0.32266 1.326934,0.47996 z m 1.447931,28.4343 -1.443898,0.96394 -3.855771,-6.7476 c -0.326692,0.16133 -0.762281,0.3267 -1.326934,0.48399 -0.564653,0.16133 -1.008309,0.242 -1.326934,0.242 v 9.15947 l 4.57772,3.12979 c 4.013068,-0.96394 7.30822,-2.89183 9.87739,-5.78366 l -0.241994,-5.54569 -8.191498,-4.57773 c -0.483988,0.80665 -1.125272,1.4439 -1.927886,1.92789 z m 7.469549,-91.812533 v 1.931919 h -7.711543 c 0,0.322658 -0.0847,0.762281 -0.241994,1.326934 -0.161329,0.564652 -0.322659,1.004275 -0.483988,1.3229 l 7.953537,4.577721 5.061708,-2.407841 c 0.479955,-1.927886 0.721949,-3.855771 0.721949,-5.783657 0,-1.927886 -0.241994,-3.855772 -0.721949,-5.783658 l -5.061708,-2.411873 -7.953537,4.581753 c 0.161329,0.322659 0.322659,0.762281 0.483988,1.322901 0.157296,0.564653 0.241994,1.008308 0.241994,1.326934 h 7.711543 z m 0,77.111393 v 1.92789 h -7.711543 c 0,0.32669 -0.0847,0.76228 -0.241994,1.32693 -0.161329,0.56466 -0.322659,1.00428 -0.483988,1.32694 l 7.953537,4.57368 5.061708,-2.41187 c 0.479955,-1.92789 0.721949,-3.85577 0.721949,-5.78366 0,-1.92788 -0.241994,-3.85577 -0.721949,-5.78365 l -5.061708,-2.41188 -7.953537,4.57772 c 0.161329,0.32266 0.322659,0.76228 0.483988,1.32694 0.157296,0.56465 0.241994,1.00427 0.241994,1.32693 h 7.711543 z" /></svg>
