<?xml version="1.0" encoding="UTF-8" standalone="no"?>
<!-- Generator: Adobe Illustrator 16.0.0, SVG Export Plug-In . SVG Version: 6.00 Build 0)  -->

<svg
   version="1.1"
   id="图层_1"
   x="0px"
   y="0px"
   width="139.76401"
   height="200"
   viewBox="0 0 139.764 200"
   enable-background="new 0 0 714 341"
   xml:space="preserve"
   sodipodi:docname="sou-6.svg"
   inkscape:version="1.2.2 (b0a8486, 2022-12-01)"
   xmlns:inkscape="http://www.inkscape.org/namespaces/inkscape"
   xmlns:sodipodi="http://sodipodi.sourceforge.net/DTD/sodipodi-0.dtd"
   xmlns="http://www.w3.org/2000/svg"
   xmlns:svg="http://www.w3.org/2000/svg"
   xmlns:rdf="http://www.w3.org/1999/02/22-rdf-syntax-ns#"
   xmlns:cc="http://creativecommons.org/ns#"
   xmlns:dc="http://purl.org/dc/elements/1.1/"><metadata
   id="metadata621"><rdf:RDF><cc:Work
       rdf:about=""><dc:format>image/svg+xml</dc:format><dc:type
         rdf:resource="http://purl.org/dc/dcmitype/StillImage" /><dc:title /></cc:Work></rdf:RDF></metadata><defs
   id="defs619" /><sodipodi:namedview
   pagecolor="#ffffff"
   bordercolor="#666666"
   borderopacity="1"
   objecttolerance="10"
   gridtolerance="10"
   guidetolerance="10"
   inkscape:pageopacity="0"
   inkscape:pageshadow="2"
   inkscape:window-width="1860"
   inkscape:window-height="1016"
   id="namedview617"
   showgrid="false"
   inkscape:zoom="1"
   inkscape:cx="-72"
   inkscape:cy="153.5"
   inkscape:window-x="1980"
   inkscape:window-y="27"
   inkscape:window-maximized="1"
   inkscape:current-layer="图层_1"
   inkscape:showpageshadow="2"
   inkscape:pagecheckerboard="0"
   inkscape:deskcolor="#d1d1d1" />



















































































































































































































































































































<path
   id="path2"
   d="M 139.76365,14.459143 V 185.54489 c 0,4.01307 -1.4076,7.42922 -4.21473,10.24038 C 132.73776,198.5924 129.3216,200 125.30854,200 H 14.459143 C 10.442042,200 7.025893,198.5924 4.214729,195.78527 1.403565,192.97411 0,189.55796 0,185.54489 V 14.459143 C 0,10.446076 1.403565,7.029927 4.214729,4.218763 7.025893,1.407599 10.438009,0 14.459143,0 H 125.30451 c 4.01306,0 7.42921,1.407599 10.24037,4.218763 2.81116,2.811164 4.21876,6.22328 4.21877,10.24038 z"
   inkscape:connector-curvature="0"
   style="fill:#ffffff;stroke-width:4.03323"
   sodipodi:nodetypes="sscsscsssssss" /><path
   style="fill:#00082d;stroke-width:4.03323"
   inkscape:connector-curvature="0"
   id="path152"
   d="m 30.120187,119.27483 c 0,-5.62233 2.00855,-10.43801 6.025651,-14.45511 4.013068,-4.01307 8.832782,-6.025652 14.45511,-6.025652 4.33976,0 8.272162,1.250302 11.809308,3.738812 3.52908,2.49253 6.025652,5.74332 7.469549,9.75639 1.443898,-4.01307 3.936437,-7.26789 7.469549,-9.75639 3.533113,-2.48851 7.469549,-3.738812 11.809309,-3.738812 5.622328,0 10.442042,2.012582 14.455107,6.025652 4.01307,4.0171 6.02565,8.83681 6.02565,14.45511 0,4.33976 -1.24626,8.27619 -3.73477,11.80931 -2.49254,3.53311 -5.74333,6.02565 -9.760426,7.46955 4.017096,1.44389 7.267886,3.94047 9.760426,7.47358 2.48851,3.53311 3.73477,7.46955 3.73477,11.80527 0,5.62637 -2.01258,10.44608 -6.02565,14.45511 -4.017098,4.01307 -8.832779,6.02566 -14.455107,6.02566 -4.33976,0 -8.276196,-1.24627 -11.809309,-3.73478 -3.533112,-2.4885 -6.025651,-5.73929 -7.469549,-9.76042 -1.443897,4.02113 -3.940469,7.27192 -7.469549,9.76042 -3.533112,2.48851 -7.469548,3.73478 -11.809308,3.73478 -5.626361,0 -10.442042,-2.01259 -14.45511,-6.02566 -4.017101,-4.01306 -6.025651,-8.82874 -6.025651,-14.45511 0,-4.33976 1.242236,-8.27216 3.734774,-11.80527 2.488505,-3.53311 5.743325,-6.02565 9.760426,-7.47358 -4.017101,-1.4439 -7.271921,-3.93644 -9.760426,-7.46955 -2.492538,-3.52908 -3.734774,-7.46955 -3.734774,-11.80931 z m 8.554489,-11.92627 c -3.291119,3.29112 -4.940712,7.27192 -4.940712,11.92627 0,4.66242 1.64556,8.63919 4.940712,11.9303 3.291118,3.29112 7.267887,4.93668 11.930305,4.93668 4.658385,0 8.635154,-1.64556 11.930306,-4.93668 3.291119,-3.29111 4.940711,-7.26788 4.940711,-11.9303 0,-4.65435 -1.649592,-8.63515 -4.940711,-11.92627 -3.295152,-3.29112 -7.271921,-4.94071 -11.930306,-4.94071 -4.666451,0 -8.639187,1.65362 -11.930305,4.94071 z m 0,38.55771 c -3.291119,3.29515 -4.940712,7.27192 -4.940712,11.93031 0,4.65838 1.64556,8.63918 4.940712,11.9303 3.291118,3.29112 7.267887,4.94071 11.930305,4.94071 4.658385,0 8.635154,-1.64959 11.930306,-4.94071 3.291119,-3.29112 4.940711,-7.26788 4.940711,-11.9303 0,-4.65839 -1.649592,-8.63516 -4.940711,-11.93031 -3.295152,-3.29112 -7.271921,-4.94071 -11.930306,-4.94071 -4.666451,-0.004 -8.639187,1.64959 -11.930305,4.94071 z m 18.915866,-7.35258 c 5.940953,2.25054 10.038719,6.34831 12.289263,12.28926 2.246512,-5.94499 6.344277,-10.03872 12.289264,-12.28926 -5.944987,-2.24651 -10.042752,-6.34428 -12.289264,-12.28927 -2.250544,5.94499 -6.34831,10.04276 -12.289263,12.28927 z m 19.637815,-31.20513 c -3.295152,3.29112 -4.940711,7.27192 -4.940711,11.92627 0,4.66242 1.645559,8.63919 4.940711,11.9303 3.291119,3.29112 7.267888,4.93668 11.930306,4.93668 4.658385,0 8.635154,-1.64556 11.930307,-4.93668 3.28708,-3.29111 4.94071,-7.26788 4.94071,-11.9303 0,-4.65435 -1.64959,-8.63515 -4.94071,-11.92627 -3.295153,-3.29112 -7.271922,-4.94071 -11.930307,-4.94071 -4.662418,0 -8.639187,1.65362 -11.930306,4.94071 z m 0,38.55771 c -3.295152,3.29515 -4.940711,7.27192 -4.940711,11.93031 0,4.65838 1.645559,8.63918 4.940711,11.9303 3.291119,3.29112 7.267888,4.94071 11.930306,4.94071 4.658385,0 8.635154,-1.64959 11.930307,-4.94071 3.28708,-3.29112 4.94071,-7.26788 4.94071,-11.9303 0,-4.65839 -1.64959,-8.63516 -4.94071,-11.93031 -3.295153,-3.29112 -7.271922,-4.94071 -11.930307,-4.94071 -4.662418,-0.004 -8.639187,1.64959 -11.930306,4.94071 z" /><path
   style="fill:#00082d;stroke-width:4.03323"
   inkscape:connector-curvature="0"
   id="path154"
   d="m 36.145838,56.626608 c -4.017101,-4.013067 -6.025651,-8.832782 -6.025651,-14.45511 0,-5.622327 2.00855,-10.442042 6.025651,-14.459143 4.013068,-4.013067 8.832782,-6.025651 14.45511,-6.025651 4.33976,0 8.272162,1.246269 11.809308,3.734774 3.52908,2.496572 6.025652,5.747359 7.469549,9.760426 1.443898,-4.013067 3.936437,-7.263854 7.469549,-9.760426 3.533113,-2.488505 7.469549,-3.734774 11.809309,-3.734774 5.622328,0 10.442042,2.012584 14.455107,6.025651 4.01307,4.017101 6.02565,8.836816 6.02565,14.459143 0,5.626362 -2.01258,10.442043 -6.02565,14.45511 -4.017098,4.017101 -8.832779,6.025652 -14.455107,6.025652 -4.33976,0 -8.276196,-1.242236 -11.809309,-3.734775 -3.533112,-2.488505 -6.025651,-5.739292 -7.469549,-9.756392 -1.443897,4.0171 -3.940469,7.27192 -7.469549,9.756392 -3.533112,2.492539 -7.469548,3.734775 -11.809308,3.734775 -5.622328,-0.004 -10.442042,-2.008551 -14.45511,-6.025652 z M 38.674676,30.23716 c -3.291119,3.295152 -4.940712,7.27192 -4.940712,11.930305 0,4.662418 1.64556,8.635154 4.940712,11.926273 3.291118,3.295152 7.267887,4.940711 11.930305,4.940711 4.658385,0 8.635154,-1.645559 11.930306,-4.940711 3.291119,-3.291119 4.940711,-7.263855 4.940711,-11.926273 0,-4.658385 -1.649592,-8.635153 -4.940711,-11.930305 -3.295152,-3.291119 -7.271921,-4.940712 -11.930306,-4.940712 -4.666451,0.004 -8.639187,1.649593 -11.930305,4.940712 z m 2.649834,21.210776 c -2.649834,-2.653868 -3.976768,-5.743325 -3.976768,-9.276438 0,-3.533112 1.326934,-6.626603 3.976768,-9.280471 2.653868,-2.649834 5.743325,-3.972735 9.276438,-3.972735 3.533113,0 6.626603,1.322901 9.276438,3.972735 2.649834,2.653868 3.976768,5.747359 3.976768,9.280471 0,3.533113 -1.326934,6.626604 -3.976768,9.276438 -2.649835,2.649835 -5.743325,3.972735 -9.276438,3.972735 -3.533113,0 -6.62257,-1.326933 -9.276438,-3.972735 z m 0.120997,-6.87263 c 1.605227,-0.318626 2.653868,-1.121239 3.133823,-2.407841 0,-0.963943 0.197628,-1.847221 0.600952,-2.653868 0.39929,-0.802613 0.681616,-1.685891 0.842946,-2.649834 l -1.447931,-1.927886 h -2.16988 c -1.766557,2.089215 -2.649835,4.501089 -2.649835,7.227555 v 0.963943 z m 7.469549,3.375816 c -1.286601,-0.483988 -2.411874,-1.282568 -3.371783,-2.40784 l -1.443898,-0.725982 -2.16988,0.725982 -0.725982,2.16988 c 1.927886,2.730499 4.255062,4.420424 6.989594,5.057675 L 50.120993,51.5649 v -2.407841 z m 3.613778,-11.567314 1.685891,-0.241994 1.447931,-1.927886 -0.721948,-1.931919 c -1.286602,-0.637251 -2.734533,-0.963943 -4.33976,-0.963943 -1.605227,0 -3.053158,0.326692 -4.335726,0.963943 l -0.721949,1.931919 1.443897,1.927886 1.685892,0.241994 c 0.322659,-0.157296 0.963943,-0.241994 1.927886,-0.241994 0.963943,0 1.605227,0.0847 1.927886,0.241994 z m -4.456724,3.25482 c -0.721949,0.721948 -1.08494,1.564894 -1.08494,2.528837 0,0.963943 0.358958,1.806889 1.08494,2.528838 0.725982,0.721949 1.568928,1.08494 2.528838,1.08494 0.963943,0 1.806889,-0.362991 2.528838,-1.08494 0.721948,-0.721949 1.084939,-1.564895 1.084939,-2.528838 0,-0.963943 -0.358957,-1.806889 -1.084939,-2.528837 -0.725983,-0.721949 -1.564895,-1.08494 -2.528838,-1.08494 -0.963943,0 -1.806889,0.362991 -2.528838,1.08494 z m 2.528838,3.734774 c -0.806647,0 -1.205937,-0.39929 -1.205937,-1.201904 0,-0.802613 0.39929,-1.205936 1.205937,-1.205936 0.802613,0 1.205937,0.403323 1.205937,1.205936 0,0.802614 -0.403324,1.201904 -1.205937,1.201904 z m 6.509639,1.443898 c -1.927885,0.806647 -3.940469,2.254578 -6.025651,4.339759 V 51.5649 l 1.927886,1.205937 c 2.730499,-0.641284 5.057675,-2.327176 6.985561,-5.057675 l -0.721949,-2.16988 z m -1.931919,-7.949504 c 0.16133,0.963943 0.439623,1.847221 0.842946,2.649835 0.39929,0.806646 0.600952,1.685891 0.600952,2.653867 l 0.963943,1.685892 2.16988,0.721949 1.685891,-1.443898 v -0.963943 c 0,-2.730499 -0.883278,-5.138339 -2.649834,-7.227555 h -2.16988 z M 77.228357,30.23716 c -3.295152,3.295152 -4.940711,7.27192 -4.940711,11.930305 0,4.662418 1.645559,8.635154 4.940711,11.926273 3.291119,3.295152 7.267888,4.940711 11.930306,4.940711 4.658385,0 8.635154,-1.645559 11.930307,-4.940711 3.28708,-3.291119 4.94071,-7.263855 4.94071,-11.926273 0,-4.658385 -1.64959,-8.635153 -4.94071,-11.930305 -3.295153,-3.291119 -7.271922,-4.940712 -11.930307,-4.940712 -4.662418,0.004 -8.639187,1.649593 -11.930306,4.940712 z m 2.653868,21.210776 c -2.649834,-2.653868 -3.976768,-5.743325 -3.976768,-9.276438 0,-3.533112 1.326934,-6.626603 3.976768,-9.280471 2.649835,-2.649834 5.743325,-3.972735 9.276438,-3.972735 3.52908,0 6.626603,1.322901 9.276438,3.972735 2.653869,2.653868 3.976769,5.747359 3.976769,9.280471 0,3.533113 -1.32693,6.626604 -3.976769,9.276438 -2.649835,2.649835 -5.743325,3.972735 -9.276438,3.972735 -3.537146,0 -6.626603,-1.326933 -9.276438,-3.972735 z m 0.116964,-6.87263 c 1.601194,-0.318626 2.649835,-1.121239 3.133823,-2.407841 0,-0.963943 0.197628,-1.847221 0.600952,-2.653868 0.39929,-0.802613 0.681616,-1.685891 0.842945,-2.649834 l -1.443897,-1.927886 h -2.16988 c -1.766556,2.089215 -2.649835,4.501089 -2.649835,7.227555 v 0.963943 z m 7.469549,3.375816 c -1.286601,-0.483988 -2.40784,-1.282568 -3.371783,-2.40784 l -1.443898,-0.725982 -2.16988,0.725982 -0.721949,2.16988 c 1.927886,2.730499 4.255062,4.420424 6.985561,5.057675 L 88.674675,51.5649 v -2.407841 z m 3.617811,-11.567314 1.685892,-0.241994 1.443897,-1.927886 -0.721949,-1.931919 c -1.286601,-0.637251 -2.734532,-0.963943 -4.335726,-0.963943 -1.605227,0 -3.053158,0.326692 -4.33976,0.963943 l -0.721948,1.931919 1.443897,1.927886 1.685892,0.241994 c 0.322659,-0.157296 0.963943,-0.241994 1.927886,-0.241994 0.967976,0 1.605227,0.0847 1.931919,0.241994 z m -4.460757,3.25482 c -0.721949,0.721948 -1.08494,1.564894 -1.08494,2.528837 0,0.963943 0.362991,1.806889 1.08494,2.528838 0.721949,0.721949 1.564895,1.08494 2.528838,1.08494 0.963943,0 1.806889,-0.362991 2.528837,-1.08494 0.725983,-0.721949 1.08494,-1.564895 1.08494,-2.528838 0,-0.963943 -0.358957,-1.806889 -1.08494,-2.528837 -0.721948,-0.721949 -1.564894,-1.08494 -2.528837,-1.08494 -0.95991,0 -1.802856,0.362991 -2.528838,1.08494 z m 2.532871,3.734774 c -0.806647,0 -1.205937,-0.39929 -1.205937,-1.201904 0,-0.802613 0.39929,-1.205936 1.205937,-1.205936 0.802614,0 1.205937,0.403323 1.205937,1.205936 0,0.802614 -0.403323,1.201904 -1.205937,1.201904 z m 6.505606,1.443898 c -1.927886,0.806647 -3.936436,2.254578 -6.025651,4.339759 V 51.5649 l 1.927886,1.205937 c 2.730499,-0.641284 5.057675,-2.327176 6.989594,-5.057675 l -0.721949,-2.16988 z m -1.927886,-7.949504 c 0.16133,0.963943 0.439623,1.847221 0.842946,2.649835 0.403324,0.806646 0.604985,1.685891 0.604985,2.653867 l 0.963943,1.685892 2.16988,0.721949 1.685893,-1.443898 v -0.963943 c 0,-2.730499 -0.883279,-5.138339 -2.649836,-7.227555 h -2.16988 z" /><path
   style="fill:#870000;stroke-width:4.03323"
   inkscape:connector-curvature="0"
   id="path156"
   d="m 41.32451,128.5553 c -2.649834,-2.64983 -3.976768,-5.74332 -3.976768,-9.27644 0,-3.52908 1.326934,-6.6266 3.976768,-9.27644 2.653868,-2.64983 5.743325,-3.97676 9.276438,-3.97676 3.533113,0 6.626603,1.32693 9.276438,3.97676 2.649834,2.64984 3.976768,5.74333 3.976768,9.27644 0,3.53312 -1.326934,6.62661 -3.976768,9.27644 -2.649835,2.65387 -5.743325,3.97677 -9.276438,3.97677 -3.533113,0 -6.62257,-1.32694 -9.276438,-3.97677 z m 0,38.55368 c -2.649834,-2.64983 -3.976768,-5.73929 -3.976768,-9.27644 0,-3.53311 1.326934,-6.6266 3.976768,-9.27643 2.653868,-2.64984 5.743325,-3.97677 9.276438,-3.97677 3.533113,0 6.626603,1.32693 9.276438,3.97677 2.649834,2.64983 3.976768,5.74332 3.976768,9.27643 0,3.53312 -1.326934,6.62661 -3.976768,9.27644 -2.649835,2.65387 -5.743325,3.97677 -9.276438,3.97677 -3.533113,0 -6.62257,-1.3229 -9.276438,-3.97677 z m 0.120997,-45.42228 c 1.605227,-0.32266 2.653868,-1.12124 3.133823,-2.41187 0,-0.96394 0.197628,-1.84319 0.600952,-2.64984 0.39929,-0.80261 0.681616,-1.68589 0.842946,-2.65386 l -1.447931,-1.92789 h -2.16988 c -1.766557,2.08922 -2.649835,4.49706 -2.649835,7.22756 v 0.96394 z m 0,38.55368 c 1.605227,-0.31862 2.653868,-1.12123 3.133823,-2.40784 0,-0.96394 0.197628,-1.84722 0.600952,-2.64983 0.39929,-0.80261 0.681616,-1.68589 0.842946,-2.64984 l -1.447931,-1.92788 h -2.16988 c -1.766557,2.09325 -2.649835,4.50109 -2.649835,7.22755 v 0.96395 z m 7.469549,-35.17786 c -1.286601,-0.47996 -2.411874,-1.28257 -3.371783,-2.41187 l -1.443898,-0.72195 -2.16988,0.72195 -0.725982,2.16988 c 1.927886,2.73453 4.255062,4.42042 6.989594,5.05767 l 1.927886,-1.2019 v -2.41188 z m 0,38.55368 c -1.286601,-0.48399 -2.411874,-1.28257 -3.371783,-2.41187 l -1.443898,-0.72195 -2.16988,0.72195 -0.725982,2.16988 c 1.927886,2.73453 4.255062,4.42042 6.989594,5.06171 l 1.927886,-1.20594 v -2.41187 z m 3.613778,-50.121 1.685891,-0.24199 1.447931,-1.93192 -0.721948,-1.92788 c -1.286602,-0.64129 -2.734533,-0.96395 -4.33976,-0.96395 -1.605227,0 -3.053158,0.32266 -4.335726,0.96395 l -0.721949,1.92788 1.443897,1.93192 1.685892,0.24199 c 0.322659,-0.15729 0.963943,-0.24199 1.927886,-0.24199 0.963943,0 1.605227,0.0847 1.927886,0.24199 z m 0,38.55369 1.685891,-0.242 1.447931,-1.92788 -0.721948,-1.92789 c -1.286602,-0.64128 -2.734533,-0.96394 -4.33976,-0.96394 -1.605227,0 -3.053158,0.32266 -4.335726,0.96394 l -0.721949,1.92789 1.443897,1.92788 1.685892,0.242 c 0.322659,-0.1573 0.963943,-0.242 1.927886,-0.242 0.963943,0 1.605227,0.0847 1.927886,0.242 z m -4.456724,-35.3029 c -0.721949,0.72195 -1.08494,1.56893 -1.08494,2.52884 0,0.96394 0.358958,1.80689 1.08494,2.52884 0.725982,0.72598 1.568928,1.08494 2.528838,1.08494 0.963943,0 1.806889,-0.35896 2.528838,-1.08494 0.721948,-0.72195 1.084939,-1.5649 1.084939,-2.52884 0,-0.96394 -0.358957,-1.80689 -1.084939,-2.52884 -0.725983,-0.72195 -1.564895,-1.08494 -2.528838,-1.08494 -0.963943,0 -1.806889,0.36299 -2.528838,1.08494 z m 0,38.55772 c -0.721949,0.72598 -1.08494,1.56489 -1.08494,2.52883 0,0.96395 0.358958,1.80689 1.08494,2.52884 0.725982,0.72195 1.568928,1.08494 2.528838,1.08494 0.963943,0 1.806889,-0.35896 2.528838,-1.08494 0.721948,-0.72598 1.084939,-1.56489 1.084939,-2.52884 0,-0.96394 -0.358957,-1.80688 -1.084939,-2.52883 -0.721949,-0.72195 -1.564895,-1.08494 -2.528838,-1.08494 -0.963943,0 -1.806889,0.35895 -2.528838,1.08494 z m 2.528838,-34.81891 c -0.806647,0 -1.205937,-0.40332 -1.205937,-1.20594 0,-0.80261 0.39929,-1.2019 1.205937,-1.2019 0.802613,0 1.205937,0.40332 1.205937,1.2019 0,0.80262 -0.403324,1.20594 -1.205937,1.20594 z m 0,38.55368 c -0.806647,0 -1.205937,-0.39929 -1.205937,-1.20594 0,-0.80261 0.39929,-1.20593 1.205937,-1.20593 0.802613,0 1.205937,0.40332 1.205937,1.20593 0,0.80665 -0.403324,1.20594 -1.205937,1.20594 z m 6.509639,-37.10978 c -1.927885,0.80664 -3.940469,2.25457 -6.025651,4.33976 v 2.41187 l 1.927886,1.2019 c 2.730499,-0.64128 5.057675,-2.32717 6.985561,-5.05767 l -0.721949,-2.16988 z m 0,38.55368 c -1.927885,0.80665 -3.940469,2.25054 -6.025651,4.33573 v 2.41187 l 1.927886,1.20594 c 2.730499,-0.64129 5.057675,-2.32718 6.985561,-5.06171 l -0.721949,-2.16988 z m -1.931919,-46.50722 c 0.16133,0.96394 0.439623,1.84722 0.842946,2.65387 0.39929,0.80664 0.600952,1.68589 0.600952,2.64983 l 0.963943,1.68589 2.16988,0.72195 1.685891,-1.44389 v -0.96395 c 0,-2.7305 -0.883278,-5.13834 -2.649834,-7.22755 h -2.16988 z m 0,38.55771 c 0.16133,0.96395 0.439623,1.84723 0.842946,2.64984 0.39929,0.80665 0.600952,1.68589 0.600952,2.64983 l 0.963943,1.6859 2.16988,0.72194 1.685891,-1.44389 v -0.96395 c 0,-2.7305 -0.883278,-5.13834 -2.649834,-7.22755 h -2.16988 z M 79.882225,128.5553 c -2.649834,-2.64983 -3.976768,-5.74332 -3.976768,-9.27644 0,-3.52908 1.326934,-6.6266 3.976768,-9.27644 2.649835,-2.64983 5.743325,-3.97676 9.276438,-3.97676 3.52908,0 6.626603,1.32693 9.276438,3.97676 2.653869,2.64984 3.976769,5.74333 3.976769,9.27644 0,3.53312 -1.32693,6.62661 -3.976769,9.27644 -2.649835,2.65387 -5.743325,3.97677 -9.276438,3.97677 -3.537146,0 -6.626603,-1.32694 -9.276438,-3.97677 z m 0,38.55368 c -2.649834,-2.64983 -3.976768,-5.73929 -3.976768,-9.27644 0,-3.53311 1.326934,-6.6266 3.976768,-9.27643 2.649835,-2.64984 5.743325,-3.97677 9.276438,-3.97677 3.52908,0 6.626603,1.32693 9.276438,3.97677 2.653869,2.64983 3.976769,5.74332 3.976769,9.27643 0,3.53312 -1.32693,6.62661 -3.976769,9.27644 -2.649835,2.65387 -5.743325,3.97677 -9.276438,3.97677 -3.537146,0 -6.626603,-1.3229 -9.276438,-3.97677 z m 0.116964,-45.42228 c 1.601194,-0.32266 2.649835,-1.12124 3.133823,-2.41187 0,-0.96394 0.197628,-1.84319 0.600952,-2.64984 0.39929,-0.80261 0.681616,-1.68589 0.842945,-2.65386 l -1.443897,-1.92789 h -2.16988 c -1.766556,2.08922 -2.649835,4.49706 -2.649835,7.22756 v 0.96394 z m 0,38.55368 c 1.601194,-0.31862 2.649835,-1.12123 3.133823,-2.40784 0,-0.96394 0.197628,-1.84722 0.600952,-2.64983 0.39929,-0.80261 0.681616,-1.68589 0.842945,-2.64984 l -1.443897,-1.92788 h -2.16988 c -1.766556,2.09325 -2.649835,4.50109 -2.649835,7.22755 v 0.96395 z m 7.469549,-35.17786 c -1.286601,-0.47996 -2.40784,-1.28257 -3.371783,-2.41187 l -1.443898,-0.72195 -2.16988,0.72195 -0.721949,2.16988 c 1.927886,2.73453 4.255062,4.42042 6.985561,5.05767 l 1.927886,-1.2019 v -2.41188 z m 0,38.55368 c -1.286601,-0.48399 -2.40784,-1.28257 -3.371783,-2.41187 l -1.443898,-0.72195 -2.16988,0.72195 -0.721949,2.16988 c 1.927886,2.73453 4.255062,4.42042 6.985561,5.06171 l 1.927886,-1.20594 v -2.41187 z m 3.617811,-50.121 1.685892,-0.24199 1.443897,-1.93192 -0.721949,-1.92788 c -1.286601,-0.64129 -2.734532,-0.96395 -4.335726,-0.96395 -1.605227,0 -3.053158,0.32266 -4.33976,0.96395 l -0.721948,1.92788 1.443897,1.93192 1.685892,0.24199 c 0.322659,-0.15729 0.963943,-0.24199 1.927886,-0.24199 0.967976,0 1.605227,0.0847 1.931919,0.24199 z m 0,38.55369 1.685892,-0.242 1.443897,-1.92788 -0.721949,-1.92789 c -1.286601,-0.64128 -2.734532,-0.96394 -4.335726,-0.96394 -1.605227,0 -3.053158,0.32266 -4.33976,0.96394 l -0.721948,1.92789 1.443897,1.92788 1.685892,0.242 c 0.322659,-0.1573 0.963943,-0.242 1.927886,-0.242 0.967976,0 1.605227,0.0847 1.931919,0.242 z m -4.460757,-35.3029 c -0.721949,0.72195 -1.08494,1.56893 -1.08494,2.52884 0,0.96394 0.362991,1.80689 1.08494,2.52884 0.721949,0.72598 1.564895,1.08494 2.528838,1.08494 0.963943,0 1.806889,-0.35896 2.528837,-1.08494 0.725983,-0.72195 1.08494,-1.5649 1.08494,-2.52884 0,-0.96394 -0.358957,-1.80689 -1.08494,-2.52884 -0.721948,-0.72195 -1.564894,-1.08494 -2.528837,-1.08494 -0.95991,0 -1.802856,0.36299 -2.528838,1.08494 z m 0,38.55772 c -0.721949,0.72598 -1.08494,1.56489 -1.08494,2.52883 0,0.96395 0.362991,1.80689 1.08494,2.52884 0.721949,0.72195 1.564895,1.08494 2.528838,1.08494 0.963943,0 1.806889,-0.35896 2.528837,-1.08494 0.725983,-0.72598 1.08494,-1.56489 1.08494,-2.52884 0,-0.96394 -0.358957,-1.80688 -1.08494,-2.52883 -0.721948,-0.72195 -1.564894,-1.08494 -2.528837,-1.08494 -0.95991,0 -1.802856,0.35895 -2.528838,1.08494 z m 2.532871,-34.81891 c -0.806647,0 -1.205937,-0.40332 -1.205937,-1.20594 0,-0.80261 0.39929,-1.2019 1.205937,-1.2019 0.802614,0 1.205937,0.40332 1.205937,1.2019 0,0.80262 -0.403323,1.20594 -1.205937,1.20594 z m 0,38.55368 c -0.806647,0 -1.205937,-0.39929 -1.205937,-1.20594 0,-0.80261 0.39929,-1.20593 1.205937,-1.20593 0.802614,0 1.205937,0.40332 1.205937,1.20593 0,0.80665 -0.403323,1.20594 -1.205937,1.20594 z m 6.505606,-37.10978 c -1.927886,0.80664 -3.936436,2.25457 -6.025651,4.33976 v 2.41187 l 1.927886,1.2019 c 2.730499,-0.64128 5.057675,-2.32717 6.989594,-5.05767 l -0.721949,-2.16988 z m 0,38.55368 c -1.927886,0.80665 -3.936436,2.25054 -6.025651,4.33573 v 2.41187 l 1.927886,1.20594 c 2.730499,-0.64129 5.057675,-2.32718 6.989594,-5.06171 l -0.721949,-2.16988 z m -1.927886,-46.50722 c 0.16133,0.96394 0.439623,1.84722 0.842946,2.65387 0.403324,0.80664 0.604985,1.68589 0.604985,2.64983 l 0.963943,1.68589 2.16988,0.72195 1.685893,-1.44389 v -0.96395 c 0,-2.7305 -0.883279,-5.13834 -2.649836,-7.22755 h -2.16988 z m 0,38.55771 c 0.16133,0.96395 0.439623,1.84723 0.842946,2.64984 0.403324,0.80665 0.604985,1.68589 0.604985,2.64983 l 0.963943,1.6859 2.16988,0.72194 1.685893,-1.44389 v -0.96395 c 0,-2.7305 -0.883279,-5.13834 -2.649836,-7.22755 h -2.16988 z" /></svg>
