<?xml version="1.0" encoding="UTF-8" standalone="no"?>
<!-- Generator: Adobe Illustrator 16.0.0, SVG Export Plug-In . SVG Version: 6.00 Build 0)  -->

<svg
   version="1.1"
   id="图层_1"
   x="0px"
   y="0px"
   width="139.76401"
   height="200"
   viewBox="0 0 139.764 200"
   enable-background="new 0 0 714 341"
   xml:space="preserve"
   sodipodi:docname="wind-3.svg"
   inkscape:version="1.2.2 (b0a8486, 2022-12-01)"
   xmlns:inkscape="http://www.inkscape.org/namespaces/inkscape"
   xmlns:sodipodi="http://sodipodi.sourceforge.net/DTD/sodipodi-0.dtd"
   xmlns="http://www.w3.org/2000/svg"
   xmlns:svg="http://www.w3.org/2000/svg"
   xmlns:rdf="http://www.w3.org/1999/02/22-rdf-syntax-ns#"
   xmlns:cc="http://creativecommons.org/ns#"
   xmlns:dc="http://purl.org/dc/elements/1.1/"><metadata
   id="metadata621"><rdf:RDF><cc:Work
       rdf:about=""><dc:format>image/svg+xml</dc:format><dc:type
         rdf:resource="http://purl.org/dc/dcmitype/StillImage" /><dc:title /></cc:Work></rdf:RDF></metadata><defs
   id="defs619" /><sodipodi:namedview
   pagecolor="#ffffff"
   bordercolor="#666666"
   borderopacity="1"
   objecttolerance="10"
   gridtolerance="10"
   guidetolerance="10"
   inkscape:pageopacity="0"
   inkscape:pageshadow="2"
   inkscape:window-width="1860"
   inkscape:window-height="1016"
   id="namedview617"
   showgrid="false"
   inkscape:zoom="1"
   inkscape:cx="-197"
   inkscape:cy="153.5"
   inkscape:window-x="1980"
   inkscape:window-y="27"
   inkscape:window-maximized="1"
   inkscape:current-layer="图层_1"
   inkscape:showpageshadow="2"
   inkscape:pagecheckerboard="0"
   inkscape:deskcolor="#d1d1d1" />



















































































































































































































































































































<path
   id="path2"
   d="m 139.76365,14.45914 v 171.08575 c 0,4.01307 -1.4076,7.42922 -4.21473,10.24038 C 132.73776,198.5924 129.32161,200 125.30854,200 H 14.45914 C 10.44204,200 7.02589,198.5924 4.21473,195.78527 1.40357,192.97411 0,189.55796 0,185.54489 V 14.45914 C 0,10.44608 1.40357,7.02993 4.21473,4.21876 7.02589,1.4076 10.43801,0 14.45914,0 h 110.84537 c 4.01307,0 7.42921,1.4076 10.24038,4.21876 2.81116,2.81117 4.21876,6.22329 4.21876,10.24038 z"
   inkscape:connector-curvature="0"
   style="fill:#ffffff;stroke-width:4.03323"
   sodipodi:nodetypes="sscsscsssssss" /><path
   inkscape:connector-curvature="0"
   id="path186"
   d="m 52.28982,143.85852 c -6.106193,0 -9.159289,-1.60519 -9.159289,-4.81962 0,-0.80259 1.205913,-1.92784 3.613705,-3.37171 -2.734478,-7.38874 -5.42459,-14.49515 -8.074372,-21.32731 -2.649781,-6.82813 -4.537296,-11.64775 -5.662546,-14.458854 -1.125249,-2.807074 -1.770554,-4.698622 -1.927847,-5.662546 0.157293,-0.157293 0.362984,-0.35895 0.60094,-0.600939 0.241989,-0.24199 0.399282,-0.399282 0.483978,-0.479946 0.08066,-0.08066 0.278288,-0.04033 0.60094,0.116962 4.819617,3.214422 7.868681,6.02553 9.159289,8.433323 5.460889,-1.766522 9.796528,-3.52901 13.01095,-5.299564 -0.963923,-8.675311 -1.447901,-13.172276 -1.447901,-13.494928 0,-2.565085 0.483978,-3.855694 1.447901,-3.855694 1.282543,0 2.246466,1.685858 2.891771,5.057574 0.641271,3.371715 0.963923,6.348182 0.963923,8.913267 5.299563,-5.460889 9.074593,-9.796528 11.325092,-13.01095 0.483979,-2.08514 0.802598,-3.371716 0.963924,-3.855694 l 3.613704,-1.205913 c 2.730445,-2.08514 4.416302,-4.012987 5.061607,-5.78354 -0.806631,-0.963924 -3.537075,-1.443869 -8.191333,-1.443869 -5.303595,0 -11.046805,0.483978 -17.229627,1.443869 -6.186856,0.963923 -11.365424,1.93188 -15.54377,2.89177 -4.178346,0.963923 -6.428845,1.443868 -6.747464,1.443868 -3.375749,0 -5.14227,-0.963923 -5.299563,-2.89177 3.21039,-0.641271 10.679788,-2.286797 22.408196,-4.940612 11.724374,-2.649781 21.645929,-4.855915 29.756599,-6.626469 8.110669,-1.766521 12.970618,-2.653815 14.579846,-2.653815 1.282543,0 2.327129,0.201658 3.13376,0.604973 0.802597,0.403316 1.806852,1.044587 3.012765,1.927847 1.205912,0.887294 2.206132,1.564863 3.012762,2.048842 6.90476,3.855693 10.36117,7.392768 10.36117,10.603158 0,2.093206 -1.12525,3.133759 -3.37171,3.133759 -2.4078,0 -6.34819,-0.362984 -11.809075,-1.084918 -5.460888,-0.721934 -9.316582,-1.084918 -11.563048,-1.084918 -0.645304,0 -1.927847,0.161326 -3.855694,0.483978 -1.286575,0.806631 -2.012543,1.685858 -2.169836,2.649782 2.89177,1.609227 4.339672,3.214422 4.339672,4.819617 0,1.125249 -0.362983,1.891548 -1.084918,2.29083 -0.721934,0.403316 -1.847184,0.721935 -3.371715,0.963924 -1.528565,0.241989 -2.690113,0.52431 -3.49271,0.842929 -0.806631,1.605194 -1.367239,3.613704 -1.685858,6.021496 2.569118,-0.479945 4.734921,-1.201879 6.505475,-2.169836 1.766521,-0.963923 3.371715,-1.443868 4.819617,-1.443868 2.565085,0 6.662768,2.206134 12.289016,6.626469 5.622214,4.420335 8.433324,8.070336 8.433324,10.966146 0,1.28657 -0.56464,2.56911 -1.68586,3.85569 -1.12525,1.28658 -2.61348,2.69011 -4.45663,4.21464 -1.847187,1.52857 -4.335643,4.66233 -7.469402,9.39725 -3.13376,4.74299 -6.227187,10.56686 -9.276251,17.47162 -1.125249,2.89177 -4.097683,4.33967 -8.913267,4.33967 -1.286575,0 -3.133759,-0.15729 -5.541551,-0.48398 -2.411826,-0.32265 -4.339672,-0.47995 -5.783541,-0.47995 -1.605195,0 -3.613705,0.16133 -6.02553,0.47995 -2.419891,0.32669 -4.267075,0.48801 -5.549618,0.48801 z m -8.9173,-38.79893 c 4.819617,11.08714 8.271996,21.04903 10.361169,29.88163 h 4.097683 c -0.161326,-1.60519 -0.564641,-4.57763 -1.205913,-8.9173 -0.645304,-4.33564 -0.963923,-8.10664 -0.963923,-11.32509 0,-0.47995 -0.04033,-1.4842 -0.120995,-3.01277 -0.0847,-1.52453 -0.201657,-3.45237 -0.362983,-5.78354 -0.161327,-2.32713 -0.24199,-4.21867 -0.24199,-5.66254 -2.887737,0.80663 -6.743431,2.41182 -11.563048,4.81961 z m 16.14471,-6.505471 c 0.157293,1.447901 0.479945,6.307851 0.963923,14.579851 0.483978,8.27602 0.88326,15.62443 1.205913,22.04924 0.318619,0 0.963923,0.0403 1.927847,0.12099 0.963923,0.0847 1.601161,0.121 1.927846,0.121 0.318619,-4.97691 0.681603,-9.95785 1.084918,-14.9388 0.399283,-4.97691 0.802598,-9.79652 1.205913,-14.45885 0.399282,-4.65829 0.681603,-7.953376 0.842929,-9.87719 -0.806631,0.161326 -2.286798,0.52431 -4.456634,1.084918 -2.173869,0.560609 -3.738732,1.000222 -4.702655,1.318841 z M 69.640442,86.991071 c -0.963923,-0.322652 -2.254532,-0.08066 -3.855693,0.721934 -0.963924,1.605195 -1.605195,3.456412 -1.927847,5.541552 0.963923,-0.157293 2.00851,-0.399282 3.133759,-0.721934 1.121217,-0.322653 1.927847,-0.564642 2.407792,-0.721935 0,-0.322652 0.0363,-0.967956 0.120995,-1.93188 0.08066,-0.963923 0.120994,-1.685858 0.120994,-2.169836 z m 4.335639,7.949344 c -2.573151,20.722335 -4.097683,34.378595 -4.577628,40.964725 1.443869,0.16536 2.730444,0.0847 3.855694,-0.24198 2.246466,-3.04907 5.541552,-8.87294 9.881224,-17.47162 4.335639,-8.59062 6.505475,-13.77322 6.505475,-15.54377 0,-2.08514 -1.165581,-4.012988 -3.49271,-5.783542 -2.331163,-1.76652 -4.299341,-2.649781 -5.904536,-2.649781 -1.774587,0.004 -3.859727,0.241989 -6.267519,0.725968 z"
   style="stroke-width:4.03315" /><text
   xml:space="preserve"
   style="font-style:normal;font-variant:normal;font-weight:bold;font-stretch:normal;font-size:30px;line-height:1.25;font-family:Lato;-inkscape-font-specification:'Lato Bold'"
   x="112"
   y="29.760742"
   id="text6639"><tspan
     sodipodi:role="line"
     id="tspan6637"
     x="112"
     y="29.760742"
     style="font-style:normal;font-variant:normal;font-weight:bold;font-stretch:normal;font-family:'Liberation Mono';-inkscape-font-specification:'Liberation Mono Bold'">W</tspan></text></svg>
