<?xml version="1.0" encoding="UTF-8" standalone="no"?>
<!-- Generator: Adobe Illustrator 16.0.0, SVG Export Plug-In . SVG Version: 6.00 Build 0)  -->

<svg
   version="1.1"
   id="图层_1"
   x="0px"
   y="0px"
   width="139.76401"
   height="200"
   viewBox="0 0 139.764 200"
   enable-background="new 0 0 714 341"
   xml:space="preserve"
   sodipodi:docname="wind-2.svg"
   inkscape:version="1.2.2 (b0a8486, 2022-12-01)"
   xmlns:inkscape="http://www.inkscape.org/namespaces/inkscape"
   xmlns:sodipodi="http://sodipodi.sourceforge.net/DTD/sodipodi-0.dtd"
   xmlns="http://www.w3.org/2000/svg"
   xmlns:svg="http://www.w3.org/2000/svg"
   xmlns:rdf="http://www.w3.org/1999/02/22-rdf-syntax-ns#"
   xmlns:cc="http://creativecommons.org/ns#"
   xmlns:dc="http://purl.org/dc/elements/1.1/"><metadata
   id="metadata621"><rdf:RDF><cc:Work
       rdf:about=""><dc:format>image/svg+xml</dc:format><dc:type
         rdf:resource="http://purl.org/dc/dcmitype/StillImage" /><dc:title /></cc:Work></rdf:RDF></metadata><defs
   id="defs619" /><sodipodi:namedview
   pagecolor="#ffffff"
   bordercolor="#666666"
   borderopacity="1"
   objecttolerance="10"
   gridtolerance="10"
   guidetolerance="10"
   inkscape:pageopacity="0"
   inkscape:pageshadow="2"
   inkscape:window-width="1860"
   inkscape:window-height="1016"
   id="namedview617"
   showgrid="false"
   inkscape:zoom="1"
   inkscape:cx="-88"
   inkscape:cy="153.5"
   inkscape:window-x="1980"
   inkscape:window-y="27"
   inkscape:window-maximized="1"
   inkscape:current-layer="图层_1"
   inkscape:showpageshadow="2"
   inkscape:pagecheckerboard="0"
   inkscape:deskcolor="#d1d1d1" />



















































































































































































































































































































<path
   id="path2"
   d="m 139.76365,14.45914 v 171.08575 c 0,4.01307 -1.4076,7.42922 -4.21473,10.24038 C 132.73776,198.5924 129.32161,200 125.30854,200 H 14.45914 C 10.44204,200 7.02589,198.5924 4.21473,195.78527 1.40357,192.97411 0,189.55796 0,185.54489 V 14.45914 C 0,10.44608 1.40357,7.02993 4.21473,4.21876 7.02589,1.4076 10.43801,0 14.45914,0 h 110.84537 c 4.01307,0 7.42921,1.4076 10.24038,4.21876 2.81116,2.81117 4.21876,6.22329 4.21876,10.24038 z"
   inkscape:connector-curvature="0"
   style="fill:#ffffff;stroke-width:4.03323"
   sodipodi:nodetypes="sscsscsssssss" /><text
   xml:space="preserve"
   style="font-style:normal;font-variant:normal;font-weight:bold;font-stretch:normal;font-size:30px;line-height:1.25;font-family:Lato;-inkscape-font-specification:'Lato Bold'"
   x="112.585"
   y="31.690001"
   id="text6639"><tspan
     sodipodi:role="line"
     id="tspan6637"
     x="112.585"
     y="31.690001">S</tspan></text><path
   inkscape:connector-curvature="0"
   id="path182"
   d="m 65.058779,131.08553 c -0.963923,0.32265 -2.012543,0.6453 -3.129726,0.96392 -1.12525,0.32669 -2.048842,0.60094 -2.770776,0.84293 -0.725968,0.24199 -1.326907,0.36298 -1.806852,0.36298 -1.12525,0 -2.089173,-0.80259 -2.891771,-2.41182 0.802598,-0.47995 2.327129,-1.04056 4.577628,-1.68586 2.250499,-0.64127 4.254976,-1.28254 6.02553,-1.92785 -0.161326,-0.80259 -0.322652,-1.92784 -0.483978,-3.37171 -0.161326,-1.44387 -0.322652,-2.56912 -0.479945,-3.37172 -1.447902,0.32265 -2.734478,0.72194 -3.855694,1.20592 -1.12525,0.48397 -1.968179,0.88326 -2.528787,1.20187 -0.564641,0.32669 -1.004255,0.48398 -1.326907,0.48398 -1.286576,0 -2.492488,-0.72193 -3.613705,-2.16983 1.121217,-0.96393 4.012987,-2.24647 8.675312,-3.8557 -0.326686,-3.21442 -2.012544,-6.50951 -5.061607,-9.88122 -2.250499,0.6453 -4.90028,1.80685 -7.949343,3.49674 -3.053097,1.68586 -4.581662,3.01277 -4.581662,3.97669 0,2.41183 1.685858,6.98542 5.061607,13.73692 3.371715,6.74343 5.061606,11.40575 5.061606,13.97487 0,1.12525 -0.483978,2.13354 -1.443869,3.01277 -0.963923,0.88326 -1.927846,1.3269 -2.89177,1.3269 -0.963923,0 -1.927847,-0.43961 -2.89177,-1.3269 -0.963924,-0.87923 -1.968179,-2.2505 -3.012765,-4.09769 -1.044587,-1.84718 -1.968179,-3.57337 -2.770776,-5.1826 -0.80663,-1.60116 -1.806852,-3.7347 -3.012765,-6.38448 -1.205912,-2.64978 -2.129504,-4.69862 -2.770776,-6.14249 -3.214422,-6.10216 -5.78354,-12.12769 -7.711387,-18.07256 l 1.443868,-0.72193 c 1.121217,0 2.327129,0.28232 3.613705,0.84293 1.282543,0.56464 2.770776,1.3632 4.456634,2.40779 1.685857,1.04459 3.093428,1.80685 4.218677,2.2868 7.711388,-2.89177 12.047027,-4.57763 13.01095,-5.05757 -2.573151,-2.56912 -5.343927,-4.57763 -8.31636,-6.025534 -2.972434,-1.447902 -5.2189,-2.411825 -6.743431,-2.89177 -1.528565,-0.483979 -2.290831,-1.044587 -2.290831,-1.685858 0,-0.641271 0.201658,-1.165581 0.60094,-1.564863 0.399282,-0.399282 0.758232,-0.520277 1.084918,-0.362984 11.724374,4.980943 18.229849,8.594649 19.516425,10.845149 1.282542,-0.64127 2.649781,-1.20591 4.097683,-1.68586 1.121216,-5.78354 1.927847,-11.329125 2.407792,-16.628688 -3.855694,0.963924 -7.711388,1.447902 -11.567082,1.447902 -0.963923,0 -1.847184,-0.483978 -2.649781,-1.447902 0.479945,-0.483978 2.565085,-1.242211 6.263486,-2.29083 3.694368,-1.040554 6.747464,-2.286798 9.155256,-3.734699 0.802597,-8.352659 1.205913,-13.813548 1.205913,-16.386699 0,-4.97691 -0.883261,-7.473432 -2.649781,-7.473432 H 63.61491 c 2.246466,-4.819617 5.299563,-8.99393 9.15929,-12.526971 1.601161,0.645304 3.891992,3.174091 6.868458,7.590393 2.968401,4.420335 4.456634,8.070338 4.456634,10.966141 0,0.161327 -0.04033,0.479946 -0.120995,0.963924 -0.0847,0.483978 -0.120994,0.80663 -0.120994,0.963923 -0.483979,0.161326 -1.12525,0.241989 -1.927847,0.241989 -2.093206,0 -4.021053,-0.721934 -5.783541,-2.169836 -0.326685,1.12525 -0.842929,3.371716 -1.568896,6.743431 -0.721934,3.375749 -1.322874,5.868237 -1.806852,7.473432 1.282542,-0.641271 3.129726,-2.048841 5.541551,-4.218678 2.411825,-2.169836 4.012987,-3.254754 4.819617,-3.254754 0.963924,0 2.048842,1.04862 3.254754,3.13376 1.205913,2.093206 1.887516,3.779064 2.048842,5.061606 -4.178346,2.250499 -10.203876,4.496965 -18.072556,6.747464 -1.443869,3.698401 -2.891771,7.872714 -4.335639,12.531005 2.730444,-0.483978 6.98542,-2.89177 12.772994,-7.227409 5.78354,-4.339672 9.715864,-7.066083 11.805037,-8.195366 3.210389,2.89177 4.819617,4.904314 4.819617,6.02553 0,0.963923 -0.201657,1.730222 -0.60094,2.290831 -0.403315,0.564641 -1.008288,1.205912 -1.806852,1.927846 -0.80663,0.721935 -1.443868,1.407571 -1.927847,2.048842 2.891771,0 4.940612,0.116961 6.142491,0.362984 1.205913,0.241989 2.528787,0.963923 3.976684,2.165803 1.44387,1.205912 3.04907,3.254754 4.81962,6.146528 0.8026,1.28657 1.80685,2.69011 3.01277,4.21464 1.20188,1.52857 2.04884,2.77078 2.52878,3.7347 0.47995,0.96392 0.72194,2.08917 0.72194,3.37171 0,2.73448 -3.0531,9.48195 -9.15929,20.2424 -1.44387,2.40779 -2.97243,5.14227 -4.577629,8.19133 -1.605195,3.0531 -2.811108,5.34393 -3.613705,6.86846 -0.806631,1.52856 -1.730223,3.0531 -2.770776,4.57763 -1.04862,1.52856 -2.012543,2.57315 -2.89177,3.13376 -0.883261,0.56464 -1.887516,0.84293 -3.012765,0.84293 -1.443869,0 -2.811107,-0.27829 -4.097683,-0.84293 -1.286576,-0.56061 -2.573151,-1.36321 -3.855694,-2.41183 -1.286576,-1.04055 -3.613705,-2.73044 -6.98542,-5.05757 -3.371716,-2.32713 -7.150779,-4.77929 -11.325092,-7.35244 1.601161,0 3.133759,0.24199 4.577628,0.72597 0.318619,-1.93188 0.479945,-5.46492 0.479945,-10.60719 z m 13.014983,-29.63964 c -7.711387,0.96392 -13.898243,2.49249 -18.556535,4.57763 2.246466,3.53304 3.855694,6.98945 4.819618,10.36117 3.210389,-0.64127 5.940833,-1.52454 8.191332,-2.64978 2.411826,-4.49294 4.254976,-8.59062 5.545585,-12.28902 z M 65.542757,97.110251 c -0.326685,0.645304 -0.721934,2.169836 -1.205912,4.577629 7.711387,-2.085141 13.091613,-4.178347 16.144709,-6.263487 0.322652,-0.963924 0.483978,-1.685858 0.483978,-2.169836 0,-0.963924 -0.645304,-1.443869 -1.927846,-1.443869 -0.483979,0 -1.367239,0.322652 -2.649782,0.963924 -1.286575,0.641271 -2.972433,1.40757 -5.057573,2.286797 -2.093206,0.887294 -4.021053,1.568897 -5.787574,2.048842 z m 20.000404,19.274439 c -4.980944,0 -9.397246,0.56464 -13.25294,1.68585 -0.161326,0.48398 -0.403315,2.81514 -0.721934,6.98946 2.246466,-0.47995 4.214644,-1.04056 5.904535,-1.68586 1.685858,-0.63724 2.891771,-1.08492 3.613705,-1.32691 0.721934,-0.24199 1.242211,-0.35895 1.564863,-0.35895 2.089173,0 3.13376,1.28658 3.13376,3.8557 0,1.12525 -0.483979,1.68585 -1.443869,1.68585 -4.01702,0 -8.276029,0.56464 -12.772994,1.68586 -0.326685,7.07012 -0.88326,11.88973 -1.685858,14.45482 5.622215,2.41183 8.751941,3.6137 9.397246,3.6137 0.483978,0 1.242211,-0.5606 2.29083,-1.68585 1.040554,-1.12525 2.411826,-3.0531 4.097683,-5.78758 1.685858,-2.72641 3.331384,-5.86017 4.940612,-9.39724 0.641271,-1.44387 1.4842,-3.17409 2.528787,-5.1826 1.044586,-2.00851 1.726189,-3.41205 2.048841,-4.21465 0.322652,-0.8026 0.721934,-1.80685 1.205913,-3.01276 0.483978,-1.20592 0.802597,-2.20614 0.963923,-3.01277 0.161326,-0.80259 0.241989,-1.68586 0.241989,-2.64978 0,-1.4479 -2.81514,-5.2189 -8.433322,-11.32509 -1.605194,-0.32265 -3.129726,-0.32265 -4.577628,0 -0.479945,0.64127 -1.205912,1.64956 -2.169836,3.01276 -0.963923,1.36724 -1.891548,2.77078 -2.770775,4.21868 -0.883261,1.44387 -1.64956,2.88774 -2.286798,4.33564 3.371716,-0.64127 5.698845,-0.96392 6.98542,-0.96392 0.963924,0 1.847184,0.36298 2.649781,1.08491 0.802598,0.72194 1.205913,1.56487 1.205913,2.52879 -0.0081,0.97199 -0.891327,1.45194 -2.657847,1.45194 z"
   style="stroke-width:4.03315" /></svg>
