<?xml version="1.0" encoding="UTF-8" standalone="no"?>
<!-- Created with Inkscape (http://www.inkscape.org/) -->

<svg
   width="347"
   height="400"
   viewBox="0 0 91.81043 105.83335"
   version="1.1"
   id="svg5"
   sodipodi:docname="background-hexagon.svg"
   inkscape:version="1.2.2 (b0a8486, 2022-12-01)"
   xmlns:inkscape="http://www.inkscape.org/namespaces/inkscape"
   xmlns:sodipodi="http://sodipodi.sourceforge.net/DTD/sodipodi-0.dtd"
   xmlns:xlink="http://www.w3.org/1999/xlink"
   xmlns="http://www.w3.org/2000/svg"
   xmlns:svg="http://www.w3.org/2000/svg">
  <sodipodi:namedview
     id="namedview7"
     pagecolor="#ffffff"
     bordercolor="#666666"
     borderopacity="1.0"
     inkscape:showpageshadow="2"
     inkscape:pageopacity="0"
     inkscape:pagecheckerboard="false"
     inkscape:deskcolor="#e3dede"
     inkscape:document-units="px"
     showgrid="false"
     inkscape:zoom="1.6819304"
     inkscape:cx="111.77633"
     inkscape:cy="219.68804"
     inkscape:window-width="1864"
     inkscape:window-height="1016"
     inkscape:window-x="1976"
     inkscape:window-y="27"
     inkscape:window-maximized="1"
     inkscape:current-layer="layer1"
     showborder="false"
     shape-rendering="auto" />
  <defs
     id="defs2">
    <linearGradient
       inkscape:collect="always"
       id="linearGradient10275">
      <stop
         style="stop-color:#f1e3f1;stop-opacity:1;"
         offset="0.60769308"
         id="stop10271" />
      <stop
         style="stop-color:#f1e3f1;stop-opacity:0;"
         offset="1"
         id="stop10273" />
    </linearGradient>
    <linearGradient
       inkscape:collect="always"
       id="linearGradient9448">
      <stop
         style="stop-color:#e3f1ed;stop-opacity:1;"
         offset="0.60769308"
         id="stop9444" />
      <stop
         style="stop-color:#e3f1ed;stop-opacity:0;"
         offset="1"
         id="stop9446" />
    </linearGradient>
    <linearGradient
       inkscape:collect="always"
       id="linearGradient9442">
      <stop
         style="stop-color:#e3f1ed;stop-opacity:1;"
         offset="0.60769308"
         id="stop9438" />
      <stop
         style="stop-color:#e3f1ed;stop-opacity:0;"
         offset="1"
         id="stop9440" />
    </linearGradient>
    <linearGradient
       inkscape:collect="always"
       id="linearGradient9436">
      <stop
         style="stop-color:#e3f1ed;stop-opacity:1;"
         offset="0.60769308"
         id="stop9432" />
      <stop
         style="stop-color:#e3f1ed;stop-opacity:0;"
         offset="1"
         id="stop9434" />
    </linearGradient>
    <linearGradient
       inkscape:collect="always"
       id="linearGradient9430">
      <stop
         style="stop-color:#e3f1ed;stop-opacity:1;"
         offset="0.60769308"
         id="stop9426" />
      <stop
         style="stop-color:#e3f1ed;stop-opacity:0;"
         offset="1"
         id="stop9428" />
    </linearGradient>
    <linearGradient
       inkscape:collect="always"
       id="linearGradient8615">
      <stop
         style="stop-color:#f1ece3;stop-opacity:1;"
         offset="0.60769308"
         id="stop8611" />
      <stop
         style="stop-color:#f1ece3;stop-opacity:0;"
         offset="1"
         id="stop8613" />
    </linearGradient>
    <linearGradient
       inkscape:collect="always"
       id="linearGradient8609">
      <stop
         style="stop-color:#f1ece3;stop-opacity:1;"
         offset="0.60769308"
         id="stop8605" />
      <stop
         style="stop-color:#f1ece3;stop-opacity:0;"
         offset="1"
         id="stop8607" />
    </linearGradient>
    <linearGradient
       inkscape:collect="always"
       id="linearGradient8603">
      <stop
         style="stop-color:#f1ece3;stop-opacity:1;"
         offset="0.60769308"
         id="stop8599" />
      <stop
         style="stop-color:#f1ece3;stop-opacity:0;"
         offset="1"
         id="stop8601" />
    </linearGradient>
    <linearGradient
       inkscape:collect="always"
       id="linearGradient8597">
      <stop
         style="stop-color:#f1ece3;stop-opacity:1;"
         offset="0.60769308"
         id="stop8593" />
      <stop
         style="stop-color:#f1ece3;stop-opacity:0;"
         offset="1"
         id="stop8595" />
    </linearGradient>
    <linearGradient
       inkscape:collect="always"
       id="linearGradient8591">
      <stop
         style="stop-color:#f1ece3;stop-opacity:1;"
         offset="0.60769308"
         id="stop8587" />
      <stop
         style="stop-color:#f1ece3;stop-opacity:0;"
         offset="1"
         id="stop8589" />
    </linearGradient>
    <linearGradient
       inkscape:collect="always"
       id="linearGradient7859">
      <stop
         style="stop-color:#f3f3ec;stop-opacity:1;"
         offset="0.60769308"
         id="stop7855" />
      <stop
         style="stop-color:#f3f3ec;stop-opacity:0;"
         offset="1"
         id="stop7857" />
    </linearGradient>
    <linearGradient
       inkscape:collect="always"
       id="linearGradient7853">
      <stop
         style="stop-color:#f3f3ec;stop-opacity:1;"
         offset="0.60769308"
         id="stop7849" />
      <stop
         style="stop-color:#f3f3ec;stop-opacity:0;"
         offset="1"
         id="stop7851" />
    </linearGradient>
    <linearGradient
       inkscape:collect="always"
       id="linearGradient7847">
      <stop
         style="stop-color:#f3f3ec;stop-opacity:1;"
         offset="0.60769308"
         id="stop7843" />
      <stop
         style="stop-color:#f3f3ec;stop-opacity:0;"
         offset="1"
         id="stop7845" />
    </linearGradient>
    <linearGradient
       inkscape:collect="always"
       id="linearGradient7115">
      <stop
         style="stop-color:#dceaea;stop-opacity:1;"
         offset="0.60769308"
         id="stop7111" />
      <stop
         style="stop-color:#dceaea;stop-opacity:0;"
         offset="1"
         id="stop7113" />
    </linearGradient>
    <linearGradient
       inkscape:collect="always"
       id="linearGradient7068">
      <stop
         style="stop-color:#ebf6f9;stop-opacity:1;"
         offset="0.60927916"
         id="stop7064" />
      <stop
         style="stop-color:#ebf6f9;stop-opacity:0;"
         offset="1"
         id="stop7066" />
    </linearGradient>
    <linearGradient
       inkscape:collect="always"
       id="linearGradient1086">
      <stop
         style="stop-color:#e3ebf1;stop-opacity:1;"
         offset="0.60769308"
         id="stop1082" />
      <stop
         style="stop-color:#e3ebf1;stop-opacity:0;"
         offset="1"
         id="stop1084" />
    </linearGradient>
    <radialGradient
       inkscape:collect="always"
       xlink:href="#linearGradient8615"
       id="radialGradient1088"
       cx="33.800171"
       cy="19.18981"
       fx="33.800171"
       fy="19.18981"
       r="42.936481"
       gradientTransform="matrix(0.35644702,0,0,0.30811019,-12.089222,-5.9125753)"
       gradientUnits="userSpaceOnUse" />
    <radialGradient
       inkscape:collect="always"
       xlink:href="#linearGradient1086"
       id="radialGradient6978"
       gradientUnits="userSpaceOnUse"
       gradientTransform="matrix(0.35644702,0,0,0.30811019,79.738252,47.004091)"
       cx="33.800171"
       cy="19.18981"
       fx="33.800171"
       fy="19.18981"
       r="42.936481" />
    <radialGradient
       inkscape:collect="always"
       xlink:href="#linearGradient1086"
       id="radialGradient6982"
       gradientUnits="userSpaceOnUse"
       gradientTransform="matrix(0.35644702,0,0,0.30811019,79.738252,20.545758)"
       cx="33.800171"
       cy="19.18981"
       fx="33.800171"
       fy="19.18981"
       r="42.936481" />
    <radialGradient
       inkscape:collect="always"
       xlink:href="#linearGradient8597"
       id="radialGradient6986"
       gradientUnits="userSpaceOnUse"
       gradientTransform="matrix(0.35644702,0,0,0.30811019,79.738252,-5.9125753)"
       cx="33.800171"
       cy="19.18981"
       fx="33.800171"
       fy="19.18981"
       r="42.936481" />
    <radialGradient
       inkscape:collect="always"
       xlink:href="#linearGradient8603"
       id="radialGradient6990"
       gradientUnits="userSpaceOnUse"
       gradientTransform="matrix(0.35644702,0,0,0.30811019,79.738252,99.920755)"
       cx="33.800171"
       cy="19.18981"
       fx="33.800171"
       fy="19.18981"
       r="42.936481" />
    <radialGradient
       inkscape:collect="always"
       xlink:href="#linearGradient7859"
       id="radialGradient6994"
       gradientUnits="userSpaceOnUse"
       gradientTransform="matrix(0.35644702,0,0,0.30811019,79.738252,73.462425)"
       cx="33.800171"
       cy="19.18981"
       fx="33.800171"
       fy="19.18981"
       r="42.936481" />
    <radialGradient
       inkscape:collect="always"
       xlink:href="#linearGradient7115"
       id="radialGradient6998"
       gradientUnits="userSpaceOnUse"
       gradientTransform="matrix(0.35644702,0,0,0.30811019,56.781385,60.233258)"
       cx="33.800171"
       cy="19.18981"
       fx="33.800171"
       fy="19.18981"
       r="42.936481" />
    <radialGradient
       inkscape:collect="always"
       xlink:href="#linearGradient10275"
       id="radialGradient7002"
       gradientUnits="userSpaceOnUse"
       gradientTransform="matrix(0.35644702,0,0,0.30811019,56.781385,33.774925)"
       cx="33.800171"
       cy="19.18981"
       fx="33.800171"
       fy="19.18981"
       r="42.936481" />
    <radialGradient
       inkscape:collect="always"
       xlink:href="#linearGradient9430"
       id="radialGradient7006"
       gradientUnits="userSpaceOnUse"
       gradientTransform="matrix(0.35644702,0,0,0.30811019,56.781385,7.3165917)"
       cx="33.800171"
       cy="19.18981"
       fx="33.800171"
       fy="19.18981"
       r="42.936481" />
    <radialGradient
       inkscape:collect="always"
       xlink:href="#linearGradient1086"
       id="radialGradient7010"
       gradientUnits="userSpaceOnUse"
       gradientTransform="matrix(0.35644702,0,0,0.30811019,56.781385,86.691589)"
       cx="33.800171"
       cy="19.18981"
       fx="33.800171"
       fy="19.18981"
       r="42.936481" />
    <radialGradient
       inkscape:collect="always"
       xlink:href="#linearGradient8591"
       id="radialGradient7014"
       gradientUnits="userSpaceOnUse"
       gradientTransform="matrix(0.35644702,0,0,0.30811019,33.824518,73.462425)"
       cx="33.800171"
       cy="19.18981"
       fx="33.800171"
       fy="19.18981"
       r="42.936481" />
    <radialGradient
       inkscape:collect="always"
       xlink:href="#linearGradient7847"
       id="radialGradient7018"
       gradientUnits="userSpaceOnUse"
       gradientTransform="matrix(0.35644702,0,0,0.30811019,33.824518,47.004091)"
       cx="33.800171"
       cy="19.18981"
       fx="33.800171"
       fy="19.18981"
       r="42.936481" />
    <radialGradient
       inkscape:collect="always"
       xlink:href="#linearGradient1086"
       id="radialGradient7022"
       gradientUnits="userSpaceOnUse"
       gradientTransform="matrix(0.35644702,0,0,0.30811019,33.824518,20.545758)"
       cx="33.800171"
       cy="19.18981"
       fx="33.800171"
       fy="19.18981"
       r="42.936481" />
    <radialGradient
       inkscape:collect="always"
       xlink:href="#linearGradient9448"
       id="radialGradient7026"
       gradientUnits="userSpaceOnUse"
       gradientTransform="matrix(0.35644702,0,0,0.30811019,33.824518,-5.9125753)"
       cx="33.800171"
       cy="19.18981"
       fx="33.800171"
       fy="19.18981"
       r="42.936481" />
    <radialGradient
       inkscape:collect="always"
       xlink:href="#linearGradient9442"
       id="radialGradient7030"
       gradientUnits="userSpaceOnUse"
       gradientTransform="matrix(0.35644702,0,0,0.30811019,33.824518,99.920755)"
       cx="33.800171"
       cy="19.18981"
       fx="33.800171"
       fy="19.18981"
       r="42.936481" />
    <radialGradient
       inkscape:collect="always"
       xlink:href="#linearGradient1086"
       id="radialGradient7034"
       gradientUnits="userSpaceOnUse"
       gradientTransform="matrix(0.35644702,0,0,0.30811019,10.867648,86.691589)"
       cx="33.800171"
       cy="19.18981"
       fx="33.800171"
       fy="19.18981"
       r="42.936481" />
    <radialGradient
       inkscape:collect="always"
       xlink:href="#linearGradient1086"
       id="radialGradient7038"
       gradientUnits="userSpaceOnUse"
       gradientTransform="matrix(0.35644702,0,0,0.30811019,10.867648,60.233258)"
       cx="33.800171"
       cy="19.18981"
       fx="33.800171"
       fy="19.18981"
       r="42.936481" />
    <radialGradient
       inkscape:collect="always"
       xlink:href="#linearGradient9436"
       id="radialGradient7042"
       gradientUnits="userSpaceOnUse"
       gradientTransform="matrix(0.35644702,0,0,0.30811019,10.867648,33.774925)"
       cx="33.800171"
       cy="19.18981"
       fx="33.800171"
       fy="19.18981"
       r="42.936481" />
    <radialGradient
       inkscape:collect="always"
       xlink:href="#linearGradient7068"
       id="radialGradient7046"
       gradientUnits="userSpaceOnUse"
       gradientTransform="matrix(0.35644702,0,0,0.30811019,10.867648,7.3165917)"
       cx="33.800171"
       cy="19.18981"
       fx="33.800171"
       fy="19.18981"
       r="42.936481" />
    <radialGradient
       inkscape:collect="always"
       xlink:href="#linearGradient8609"
       id="radialGradient7050"
       gradientUnits="userSpaceOnUse"
       gradientTransform="matrix(0.35644702,0,0,0.30811019,-12.089222,99.920755)"
       cx="33.800171"
       cy="19.18981"
       fx="33.800171"
       fy="19.18981"
       r="42.936481" />
    <radialGradient
       inkscape:collect="always"
       xlink:href="#linearGradient7853"
       id="radialGradient7054"
       gradientUnits="userSpaceOnUse"
       gradientTransform="matrix(0.35644702,0,0,0.30811019,-12.089222,73.462425)"
       cx="33.800171"
       cy="19.18981"
       fx="33.800171"
       fy="19.18981"
       r="42.936481" />
    <radialGradient
       inkscape:collect="always"
       xlink:href="#linearGradient1086"
       id="radialGradient7058"
       gradientUnits="userSpaceOnUse"
       gradientTransform="matrix(0.35644702,0,0,0.30811019,-12.089222,47.004091)"
       cx="33.800171"
       cy="19.18981"
       fx="33.800171"
       fy="19.18981"
       r="42.936481" />
    <radialGradient
       inkscape:collect="always"
       xlink:href="#linearGradient1086"
       id="radialGradient7062"
       gradientUnits="userSpaceOnUse"
       gradientTransform="matrix(0.35644702,0,0,0.30811019,-12.089222,20.545758)"
       cx="33.800171"
       cy="19.18981"
       fx="33.800171"
       fy="19.18981"
       r="42.936481" />
  </defs>
  <g
     inkscape:label="Calque 1"
     inkscape:groupmode="layer"
     id="layer1">
    <path
       id="path234-3-6-7"
       style="color:#000000;fill:url(#radialGradient1088);fill-opacity:1;fill-rule:evenodd;stroke-width:0.533018;-inkscape-stroke:none;opacity:0.4"
       d="m 4.3386691,-7.5541353 -8.772635,0.0069 -4.3804,7.553318 4.392235,7.547091 8.772635,-0.0062 0.102339,-0.176431 4.2780613,-7.377579 z m -0.407966,0.703648 3.9828783,6.844135 -3.9717393,6.84967 -7.956008,0.0062 -3.982877,-6.844135 3.972434,-6.84967 z m 1.637061,-2.836005 -11.232933,0.0078 -5.6095291,9.687278 5.6242681,9.677785 11.232933,-0.0086 0.203747,-0.352076 5.4049169,-9.334338 z m -0.815853,1.408306 4.8058173,8.270343 -4.7936793,8.27811 -9.599493,0.0078 -4.805815,-8.271207 4.793677,-8.278109 z m 2.848599,-4.9509797 -15.30401,0.01135 -7.6423331,13.2291677 7.6616801,13.2178133 15.30515,-0.01249 0.4074383,-0.705116 7.2348926,-12.5240513 z M 5.9718911,-10.409835 12.0004,-0.0090823 5.9878241,10.399619 -6.0543969,10.408719 -12.084042,0.0091007 -6.0703299,-10.3996 Z m -4.389477,13.2174097 -3.243713,0.0025 -1.624002,-2.807898 1.619711,-2.810377 3.243712,-0.0025 1.624002,2.807899 z"
       inkscape:tile-cx="22.957345"
       inkscape:tile-cy="19.844234"
       inkscape:tile-w="45.913828"
       inkscape:tile-h="39.687576"
       inkscape:tile-x0="0.00043083311"
       inkscape:tile-y0="0.00044607216" />
    <path
       id="use4220"
       style="color:#000000;fill:url(#radialGradient7062);fill-opacity:1;fill-rule:evenodd;stroke-width:0.533018;-inkscape-stroke:none;opacity:0.4"
       d="m 4.3386688,18.904198 -8.772635,0.0069 -4.3804,7.553318 4.392235,7.547091 8.772635,-0.0062 0.102339,-0.176431 4.2780613,-7.377579 z m -0.407966,0.703648 3.9828783,6.844135 -3.9717393,6.84967 -7.956008,0.0062 -3.982877,-6.844135 3.972434,-6.84967 z m 1.637061,-2.836005 -11.232933,0.0078 -5.6095288,9.687278 5.6242678,9.677785 11.232933,-0.0086 0.203747,-0.352076 5.4049172,-9.334338 z m -0.815853,1.408306 4.8058173,8.270343 -4.7936793,8.27811 -9.599493,0.0078 -4.805815,-8.271207 4.793677,-8.278109 z m 2.848599,-4.95098 -15.30401,0.01135 -7.6423328,13.229168 7.6616798,13.217813 15.30515,-0.01249 0.4074383,-0.705116 7.2348929,-12.524051 z m -1.628619,2.819331 6.0285092,10.400753 -6.0125762,10.408701 -12.042221,0.0091 -6.0296448,-10.399618 6.0137118,-10.408701 z m -4.389477,13.21741 -3.243713,0.0025 -1.624002,-2.807898 1.619711,-2.810377 3.243712,-0.0025 1.624002,2.807899 z"
       inkscape:tile-x0="0.00043083311"
       inkscape:tile-y0="0.00044607216" />
    <path
       id="use4222"
       style="color:#000000;fill:url(#radialGradient7058);fill-opacity:1;fill-rule:evenodd;stroke-width:0.533018;-inkscape-stroke:none;opacity:0.4"
       d="m 4.3386688,45.362531 -8.772635,0.0069 -4.3804,7.553318 4.392235,7.547091 8.772635,-0.0062 0.102339,-0.176431 4.2780613,-7.377579 z m -0.407966,0.703648 3.9828783,6.844135 -3.9717393,6.84967 -7.956008,0.0062 -3.982877,-6.844135 3.972434,-6.84967 z m 1.637061,-2.836005 -11.232933,0.0078 -5.6095288,9.687278 5.6242678,9.677785 11.232933,-0.0086 0.203747,-0.352076 5.4049172,-9.334338 z m -0.815853,1.408306 4.8058173,8.270343 -4.7936793,8.27811 -9.599493,0.0078 -4.805815,-8.271207 4.793677,-8.278109 z m 2.848599,-4.95098 -15.30401,0.01135 -7.6423328,13.229168 7.6616798,13.217813 15.30515,-0.01249 0.4074383,-0.705116 7.2348929,-12.524051 z m -1.628619,2.819331 6.0285092,10.400753 -6.0125762,10.408701 -12.042221,0.0091 -6.0296448,-10.399618 6.0137118,-10.408701 z m -4.389477,13.21741 -3.243713,0.0025 -1.624002,-2.807898 1.619711,-2.810377 3.243712,-0.0025 1.624002,2.807899 z"
       inkscape:tile-x0="0.00043083311"
       inkscape:tile-y0="0.00044607216" />
    <path
       id="use4224"
       style="color:#000000;fill:url(#radialGradient7054);fill-opacity:1;fill-rule:evenodd;stroke-width:0.533018;-inkscape-stroke:none;opacity:0.4"
       d="m 4.3386688,71.820865 -8.772635,0.0069 -4.3804,7.553318 4.392235,7.547091 8.772635,-0.0062 0.102339,-0.176431 4.2780613,-7.377579 z m -0.407966,0.703648 3.9828783,6.844135 -3.9717393,6.84967 -7.956008,0.0062 -3.982877,-6.844135 3.972434,-6.84967 z m 1.637061,-2.836005 -11.232933,0.0078 -5.6095288,9.687278 5.6242678,9.677785 11.232933,-0.0086 0.203747,-0.352076 5.4049172,-9.334338 z m -0.815853,1.408306 4.8058173,8.270343 -4.7936793,8.27811 -9.599493,0.0078 -4.805815,-8.271207 4.793677,-8.278109 z m 2.848599,-4.95098 -15.30401,0.01135 -7.6423328,13.229168 7.6616798,13.217813 15.30515,-0.01249 0.4074383,-0.705116 7.2348929,-12.524051 z M 5.9718908,68.965165 12.0004,79.365918 5.9878238,89.774619 -6.0543972,89.783719 -12.084042,79.384101 -6.0703302,68.9754 Z m -4.389477,13.21741 -3.243713,0.0025 -1.624002,-2.807898 1.619711,-2.810377 3.243712,-0.0025 1.624002,2.807899 z"
       inkscape:tile-x0="0.00043083311"
       inkscape:tile-y0="0.00044607216" />
    <path
       id="use4226"
       style="color:#000000;fill:url(#radialGradient7050);fill-opacity:1;fill-rule:evenodd;stroke-width:0.533018;-inkscape-stroke:none;opacity:0.4"
       d="m 4.3386688,98.279195 -8.772635,0.0069 -4.3804,7.553315 4.392235,7.54709 8.772635,-0.006 0.102339,-0.17643 4.2780613,-7.37758 z m -0.407966,0.703648 3.9828783,6.844137 -3.9717393,6.84967 -7.956008,0.006 -3.982877,-6.84414 3.972434,-6.849667 z m 1.637061,-2.836005 -11.232933,0.0078 -5.6095288,9.687282 5.6242678,9.67778 11.232933,-0.009 0.203747,-0.35208 5.4049172,-9.33433 z m -0.815853,1.408306 4.8058173,8.270346 -4.7936793,8.27811 -9.599493,0.008 -4.805815,-8.27121 4.793677,-8.278109 z m 2.848599,-4.95098 -15.30401,0.01135 -7.6423328,13.229166 7.6616798,13.21782 15.30515,-0.0125 0.4074383,-0.70512 7.2348929,-12.52405 z m -1.628619,2.819331 6.0285092,10.400755 -6.0125762,10.4087 -12.042221,0.009 -6.0296448,-10.39962 6.0137118,-10.4087 z m -4.389477,13.217405 -3.243713,0.002 -1.624002,-2.80789 1.619711,-2.81038 3.243712,-0.002 1.624002,2.8079 z"
       inkscape:tile-x0="0.00043083311"
       inkscape:tile-y0="0.00044607216" />
    <path
       id="use4230"
       style="color:#000000;fill:url(#radialGradient7046);fill-opacity:1;fill-rule:evenodd;stroke-width:0.533018;-inkscape-stroke:none;opacity:0.4"
       d="m 27.295539,5.6750317 -8.772635,0.0069 -4.3804,7.5533183 4.392235,7.547091 8.772635,-0.0062 0.102339,-0.176431 4.278061,-7.377579 z m -0.407966,0.703648 3.982878,6.8441353 -3.971739,6.84967 -7.956008,0.0062 -3.982877,-6.844135 3.972434,-6.8496703 z m 1.637061,-2.836005 -11.232933,0.0078 -5.609529,9.6872783 5.624268,9.677785 11.232933,-0.0086 0.203747,-0.352076 5.404917,-9.334338 z m -0.815853,1.408306 4.805817,8.2703433 -4.793679,8.27811 -9.599493,0.0078 -4.805815,-8.271207 4.793677,-8.2781093 z M 30.55738,10e-7 15.25337,0.011351 7.611037,13.240519 l 7.66168,13.217813 15.30515,-0.01249 0.407438,-0.705116 7.234893,-12.524051 z M 28.928761,2.819332 34.95727,13.220085 28.944694,23.628786 16.902473,23.637886 10.872828,13.238268 16.88654,2.829567 Z m -4.389477,13.21741 -3.243713,0.0025 -1.624002,-2.807898 1.619711,-2.810377 3.243712,-0.0025 1.624002,2.807899 z"
       inkscape:tile-x0="0.00043083311"
       inkscape:tile-y0="0.00044607216" />
    <path
       id="use4232"
       style="color:#000000;fill:url(#radialGradient7042);fill-opacity:1;fill-rule:evenodd;stroke-width:0.533018;-inkscape-stroke:none;opacity:0.4"
       d="m 27.295539,32.133365 -8.772635,0.0069 -4.3804,7.553318 4.392235,7.547091 8.772635,-0.0062 0.102339,-0.176431 4.278061,-7.377579 z m -0.407966,0.703648 3.982878,6.844135 -3.971739,6.84967 -7.956008,0.0062 -3.982877,-6.844135 3.972434,-6.84967 z m 1.637061,-2.836005 -11.232933,0.0078 -5.609529,9.687278 5.624268,9.677785 11.232933,-0.0086 0.203747,-0.352076 5.404917,-9.334338 z m -0.815853,1.408306 4.805817,8.270343 -4.793679,8.27811 -9.599493,0.0078 -4.805815,-8.271207 4.793677,-8.278109 z m 2.848599,-4.95098 -15.30401,0.01135 -7.642333,13.229168 7.66168,13.217813 15.30515,-0.01249 0.407438,-0.705116 7.234893,-12.524051 z m -1.628619,2.819331 6.028509,10.400753 -6.012576,10.408701 -12.042221,0.0091 L 10.872828,39.696601 16.88654,29.2879 Z m -4.389477,13.21741 -3.243713,0.0025 -1.624002,-2.807898 1.619711,-2.810377 3.243712,-0.0025 1.624002,2.807899 z"
       inkscape:tile-x0="0.00043083311"
       inkscape:tile-y0="0.00044607216" />
    <path
       id="use4234"
       style="color:#000000;fill:url(#radialGradient7038);fill-opacity:1;fill-rule:evenodd;stroke-width:0.533018;-inkscape-stroke:none;opacity:0.4"
       d="m 27.295539,58.591698 -8.772635,0.0069 -4.3804,7.553318 4.392235,7.547091 8.772635,-0.0062 0.102339,-0.176431 4.278061,-7.377579 z m -0.407966,0.703648 3.982878,6.844135 -3.971739,6.84967 -7.956008,0.0062 -3.982877,-6.844135 3.972434,-6.84967 z m 1.637061,-2.836005 -11.232933,0.0078 -5.609529,9.687278 5.624268,9.677785 11.232933,-0.0086 0.203747,-0.352076 5.404917,-9.334338 z m -0.815853,1.408306 4.805817,8.270343 -4.793679,8.27811 -9.599493,0.0078 -4.805815,-8.271207 4.793677,-8.278109 z m 2.848599,-4.95098 -15.30401,0.01135 -7.642333,13.229168 7.66168,13.217813 15.30515,-0.01249 0.407438,-0.705116 7.234893,-12.524051 z m -1.628619,2.819331 6.028509,10.400753 -6.012576,10.408701 -12.042221,0.0091 -6.029645,-10.399618 6.013712,-10.408701 z m -4.389477,13.21741 -3.243713,0.0025 -1.624002,-2.807898 1.619711,-2.810377 3.243712,-0.0025 1.624002,2.807899 z"
       inkscape:tile-x0="0.00043083311"
       inkscape:tile-y0="0.00044607216" />
    <path
       id="use4236"
       style="color:#000000;fill:url(#radialGradient7034);fill-opacity:1;fill-rule:evenodd;stroke-width:0.533018;-inkscape-stroke:none;opacity:0.4"
       d="m 27.295539,85.050029 -8.772635,0.0069 -4.3804,7.553318 4.392235,7.547093 8.772635,-0.006 0.102339,-0.176433 4.278061,-7.377579 z m -0.407966,0.703648 3.982878,6.844135 -3.971739,6.84967 -7.956008,0.0062 -3.982877,-6.844135 3.972434,-6.84967 z m 1.637061,-2.836005 -11.232933,0.0078 -5.609529,9.687278 5.624268,9.67778 11.232933,-0.009 0.203747,-0.35207 5.404917,-9.334339 z m -0.815853,1.408306 4.805817,8.270343 -4.793679,8.278109 -9.599493,0.008 -4.805815,-8.271206 4.793677,-8.278109 z m 2.848599,-4.95098 -15.30401,0.01135 -7.642333,13.229168 7.66168,13.217814 15.30515,-0.0125 0.407438,-0.70512 7.234893,-12.524048 z m -1.628619,2.819331 6.028509,10.400753 -6.012576,10.408698 -12.042221,0.009 -6.029645,-10.399615 6.013712,-10.408701 z m -4.389477,13.21741 -3.243713,0.0025 -1.624002,-2.807898 1.619711,-2.810377 3.243712,-0.0025 1.624002,2.807899 z"
       inkscape:tile-x0="0.00043083311"
       inkscape:tile-y0="0.00044607216" />
    <path
       id="use4238"
       style="color:#000000;fill:url(#radialGradient7030);fill-opacity:1;fill-rule:evenodd;stroke-width:0.533018;-inkscape-stroke:none;opacity:0.4"
       d="m 50.252409,98.279195 -8.772635,0.0069 -4.3804,7.553315 4.392235,7.54709 8.772635,-0.006 0.102339,-0.17643 4.278061,-7.37758 z m -0.407966,0.703648 3.982878,6.844137 -3.971739,6.84967 -7.956008,0.006 -3.982877,-6.84414 3.972434,-6.849667 z m 1.637061,-2.836005 -11.232933,0.0078 -5.609529,9.687282 5.624268,9.67778 11.232933,-0.009 0.203747,-0.35208 5.404917,-9.33433 z m -0.815853,1.408306 4.805817,8.270346 -4.793679,8.27811 -9.599493,0.008 -4.805815,-8.27121 4.793677,-8.278109 z m 2.848599,-4.95098 -15.30401,0.01135 -7.642333,13.229166 7.66168,13.21782 15.30515,-0.0125 0.407438,-0.70512 7.234893,-12.52405 z m -1.628619,2.819331 6.028509,10.400755 -6.012576,10.4087 -12.042221,0.009 -6.029645,-10.39962 6.013712,-10.4087 z m -4.389477,13.217405 -3.243713,0.002 -1.624002,-2.80789 1.619711,-2.81038 3.243712,-0.002 1.624002,2.8079 z"
       inkscape:tile-x0="0.00043083311"
       inkscape:tile-y0="0.00044607216" />
    <path
       id="use4240"
       style="color:#000000;fill:url(#radialGradient7026);fill-opacity:1;fill-rule:evenodd;stroke-width:0.533018;-inkscape-stroke:none;opacity:0.4"
       d="m 50.252409,-7.5541353 -8.772635,0.0069 -4.3804,7.553318 4.392235,7.547091 8.772635,-0.0062 0.102339,-0.176431 4.278061,-7.377579 z m -0.407966,0.703648 3.982878,6.844135 -3.971739,6.84967 -7.956008,0.0062 -3.982877,-6.844135 3.972434,-6.84967 z m 1.637061,-2.836005 -11.232933,0.0078 -5.609529,9.687278 5.624268,9.677785 11.232933,-0.0086 0.203747,-0.352076 5.404917,-9.334338 z m -0.815853,1.408306 4.805817,8.270343 -4.793679,8.27811 -9.599493,0.0078 -4.805815,-8.271207 4.793677,-8.278109 z m 2.848599,-4.9509797 -15.30401,0.01135 -7.642333,13.2291677 7.66168,13.2178133 15.30515,-0.01249 0.407438,-0.705116 7.234893,-12.5240513 z m -1.628619,2.819331 6.028509,10.4007527 -6.012576,10.4087013 -12.042221,0.0091 L 33.829698,0.0091007 39.84341,-10.3996 Z m -4.389477,13.2174097 -3.243713,0.0025 -1.624002,-2.807898 1.619711,-2.810377 3.243712,-0.0025 1.624002,2.807899 z"
       inkscape:tile-x0="0.00043083311"
       inkscape:tile-y0="0.00044607216" />
    <path
       id="use4242"
       style="color:#000000;fill:url(#radialGradient7022);fill-opacity:1;fill-rule:evenodd;stroke-width:0.533018;-inkscape-stroke:none;opacity:0.4"
       d="m 50.252409,18.904198 -8.772635,0.0069 -4.3804,7.553318 4.392235,7.547091 8.772635,-0.0062 0.102339,-0.176431 4.278061,-7.377579 z m -0.407966,0.703648 3.982878,6.844135 -3.971739,6.84967 -7.956008,0.0062 -3.982877,-6.844135 3.972434,-6.84967 z m 1.637061,-2.836005 -11.232933,0.0078 -5.609529,9.687278 5.624268,9.677785 11.232933,-0.0086 0.203747,-0.352076 5.404917,-9.334338 z m -0.815853,1.408306 4.805817,8.270343 -4.793679,8.27811 -9.599493,0.0078 -4.805815,-8.271207 4.793677,-8.278109 z m 2.848599,-4.95098 -15.30401,0.01135 -7.642333,13.229168 7.66168,13.217813 15.30515,-0.01249 0.407438,-0.705116 7.234893,-12.524051 z m -1.628619,2.819331 6.028509,10.400753 -6.012576,10.408701 -12.042221,0.0091 -6.029645,-10.399618 6.013712,-10.408701 z m -4.389477,13.21741 -3.243713,0.0025 -1.624002,-2.807898 1.619711,-2.810377 3.243712,-0.0025 1.624002,2.807899 z"
       inkscape:tile-x0="0.00043083311"
       inkscape:tile-y0="0.00044607216" />
    <path
       id="use4244"
       style="color:#000000;fill:url(#radialGradient7018);fill-opacity:1;fill-rule:evenodd;stroke-width:0.533018;-inkscape-stroke:none;opacity:0.4"
       d="m 50.252409,45.362531 -8.772635,0.0069 -4.3804,7.553318 4.392235,7.547091 8.772635,-0.0062 0.102339,-0.176431 4.278061,-7.377579 z m -0.407966,0.703648 3.982878,6.844135 -3.971739,6.84967 -7.956008,0.0062 -3.982877,-6.844135 3.972434,-6.84967 z m 1.637061,-2.836005 -11.232933,0.0078 -5.609529,9.687278 5.624268,9.677785 11.232933,-0.0086 0.203747,-0.352076 5.404917,-9.334338 z m -0.815853,1.408306 4.805817,8.270343 -4.793679,8.27811 -9.599493,0.0078 -4.805815,-8.271207 4.793677,-8.278109 z m 2.848599,-4.95098 -15.30401,0.01135 -7.642333,13.229168 7.66168,13.217813 15.30515,-0.01249 0.407438,-0.705116 7.234893,-12.524051 z m -1.628619,2.819331 6.028509,10.400753 -6.012576,10.408701 -12.042221,0.0091 -6.029645,-10.399618 6.013712,-10.408701 z m -4.389477,13.21741 -3.243713,0.0025 -1.624002,-2.807898 1.619711,-2.810377 3.243712,-0.0025 1.624002,2.807899 z"
       inkscape:tile-x0="0.00043083311"
       inkscape:tile-y0="0.00044607216" />
    <path
       id="use4246"
       style="color:#000000;fill:url(#radialGradient7014);fill-opacity:1;fill-rule:evenodd;stroke-width:0.533018;-inkscape-stroke:none;opacity:0.4"
       d="m 50.252409,71.820865 -8.772635,0.0069 -4.3804,7.553318 4.392235,7.547091 8.772635,-0.0062 0.102339,-0.176431 4.278061,-7.377579 z m -0.407966,0.703648 3.982878,6.844135 -3.971739,6.84967 -7.956008,0.0062 -3.982877,-6.844135 3.972434,-6.84967 z m 1.637061,-2.836005 -11.232933,0.0078 -5.609529,9.687278 5.624268,9.677785 11.232933,-0.0086 0.203747,-0.352076 5.404917,-9.334338 z m -0.815853,1.408306 4.805817,8.270343 -4.793679,8.27811 -9.599493,0.0078 -4.805815,-8.271207 4.793677,-8.278109 z m 2.848599,-4.95098 -15.30401,0.01135 -7.642333,13.229168 7.66168,13.217813 15.30515,-0.01249 0.407438,-0.705116 7.234893,-12.524051 z m -1.628619,2.819331 6.028509,10.400753 -6.012576,10.408701 -12.042221,0.0091 L 33.829698,79.384101 39.84341,68.9754 Z m -4.389477,13.21741 -3.243713,0.0025 -1.624002,-2.807898 1.619711,-2.810377 3.243712,-0.0025 1.624002,2.807899 z"
       inkscape:tile-x0="0.00043083311"
       inkscape:tile-y0="0.00044607216" />
    <path
       id="use4248"
       style="color:#000000;fill:url(#radialGradient7010);fill-opacity:1;fill-rule:evenodd;stroke-width:0.533018;-inkscape-stroke:none;opacity:0.4"
       d="m 73.209276,85.050029 -8.772635,0.0069 -4.3804,7.553318 4.392235,7.547093 8.772635,-0.006 0.102339,-0.176433 4.278061,-7.377579 z m -0.407966,0.703648 3.982878,6.844135 -3.971739,6.84967 -7.956008,0.0062 -3.982877,-6.844135 3.972434,-6.84967 z m 1.637061,-2.836005 -11.232933,0.0078 -5.609529,9.687278 5.624268,9.67778 11.232933,-0.009 0.203747,-0.35207 5.404917,-9.334339 z m -0.815853,1.408306 4.805817,8.270343 -4.793679,8.278109 -9.599493,0.008 -4.805815,-8.271206 4.793677,-8.278109 z m 2.848599,-4.95098 -15.30401,0.01135 -7.642333,13.229168 7.66168,13.217814 15.30515,-0.0125 0.407438,-0.70512 7.234893,-12.524048 z m -1.628619,2.819331 6.028509,10.400753 -6.012576,10.408698 -12.042221,0.009 -6.029645,-10.399615 6.013712,-10.408701 z m -4.389477,13.21741 -3.243713,0.0025 -1.624002,-2.807898 1.619711,-2.810377 3.243712,-0.0025 1.624002,2.807899 z"
       inkscape:tile-x0="0.00043083311"
       inkscape:tile-y0="0.00044607216" />
    <path
       id="use4252"
       style="color:#000000;fill:url(#radialGradient7006);fill-opacity:1;fill-rule:evenodd;stroke-width:0.533018;-inkscape-stroke:none;opacity:0.4"
       d="m 73.209276,5.6750317 -8.772635,0.0069 -4.3804,7.5533183 4.392235,7.547091 8.772635,-0.0062 0.102339,-0.176431 4.278061,-7.377579 z m -0.407966,0.703648 3.982878,6.8441353 -3.971739,6.84967 -7.956008,0.0062 -3.982877,-6.844135 3.972434,-6.8496703 z m 1.637061,-2.836005 -11.232933,0.0078 -5.609529,9.6872783 5.624268,9.677785 11.232933,-0.0086 0.203747,-0.352076 5.404917,-9.334338 z m -0.815853,1.408306 4.805817,8.2703433 -4.793679,8.27811 -9.599493,0.0078 -4.805815,-8.271207 4.793677,-8.2781093 z M 76.471117,10e-7 l -15.30401,0.01135 -7.642333,13.229168 7.66168,13.217813 15.30515,-0.01249 0.407438,-0.705116 7.234893,-12.524051 z m -1.628619,2.819331 6.028509,10.400753 -6.012576,10.408701 -12.042221,0.0091 -6.029645,-10.399618 6.013712,-10.408701 z m -4.389477,13.21741 -3.243713,0.0025 -1.624002,-2.807898 1.619711,-2.810377 3.243712,-0.0025 1.624002,2.807899 z"
       inkscape:tile-x0="0.00043083311"
       inkscape:tile-y0="0.00044607216" />
    <path
       id="use4254"
       style="color:#000000;fill:url(#radialGradient7002);fill-opacity:1;fill-rule:evenodd;stroke-width:0.533018;-inkscape-stroke:none;opacity:0.4"
       d="m 73.209276,32.133365 -8.772635,0.0069 -4.3804,7.553318 4.392235,7.547091 8.772635,-0.0062 0.102339,-0.176431 4.278061,-7.377579 z m -0.407966,0.703648 3.982878,6.844135 -3.971739,6.84967 -7.956008,0.0062 -3.982877,-6.844135 3.972434,-6.84967 z m 1.637061,-2.836005 -11.232933,0.0078 -5.609529,9.687278 5.624268,9.677785 11.232933,-0.0086 0.203747,-0.352076 5.404917,-9.334338 z m -0.815853,1.408306 4.805817,8.270343 -4.793679,8.27811 -9.599493,0.0078 -4.805815,-8.271207 4.793677,-8.278109 z m 2.848599,-4.95098 -15.30401,0.01135 -7.642333,13.229168 7.66168,13.217813 15.30515,-0.01249 0.407438,-0.705116 7.234893,-12.524051 z m -1.628619,2.819331 6.028509,10.400753 -6.012576,10.408701 -12.042221,0.0091 L 56.786565,39.696601 62.800277,29.2879 Z m -4.389477,13.21741 -3.243713,0.0025 -1.624002,-2.807898 1.619711,-2.810377 3.243712,-0.0025 1.624002,2.807899 z"
       inkscape:tile-x0="0.00043083311"
       inkscape:tile-y0="0.00044607216" />
    <path
       id="use4256"
       style="color:#000000;fill:url(#radialGradient6998);fill-opacity:1;fill-rule:evenodd;stroke-width:0.533018;-inkscape-stroke:none;opacity:0.4"
       d="m 73.209276,58.591698 -8.772635,0.0069 -4.3804,7.553318 4.392235,7.547091 8.772635,-0.0062 0.102339,-0.176431 4.278061,-7.377579 z m -0.407966,0.703648 3.982878,6.844135 -3.971739,6.84967 -7.956008,0.0062 -3.982877,-6.844135 3.972434,-6.84967 z m 1.637061,-2.836005 -11.232933,0.0078 -5.609529,9.687278 5.624268,9.677785 11.232933,-0.0086 0.203747,-0.352076 5.404917,-9.334338 z m -0.815853,1.408306 4.805817,8.270343 -4.793679,8.27811 -9.599493,0.0078 -4.805815,-8.271207 4.793677,-8.278109 z m 2.848599,-4.95098 -15.30401,0.01135 -7.642333,13.229168 7.66168,13.217813 15.30515,-0.01249 0.407438,-0.705116 7.234893,-12.524051 z m -1.628619,2.819331 6.028509,10.400753 -6.012576,10.408701 -12.042221,0.0091 -6.029645,-10.399618 6.013712,-10.408701 z m -4.389477,13.21741 -3.243713,0.0025 -1.624002,-2.807898 1.619711,-2.810377 3.243712,-0.0025 1.624002,2.807899 z"
       inkscape:tile-x0="0.00043083311"
       inkscape:tile-y0="0.00044607216" />
    <path
       id="use4258"
       style="color:#000000;fill:url(#radialGradient6994);fill-opacity:1;fill-rule:evenodd;stroke-width:0.533018;-inkscape-stroke:none;opacity:0.4"
       d="m 96.166143,71.820865 -8.772635,0.0069 -4.3804,7.553318 4.392235,7.547091 8.772635,-0.0062 0.102339,-0.176431 4.278063,-7.377579 z m -0.407966,0.703648 3.982878,6.844135 -3.971739,6.84967 -7.956008,0.0062 -3.982877,-6.844135 3.972434,-6.84967 z m 1.637061,-2.836005 -11.232933,0.0078 -5.609529,9.687278 5.624268,9.677785 11.232933,-0.0086 0.203747,-0.352076 5.404916,-9.334338 z m -0.815853,1.408306 4.805815,8.270343 -4.793677,8.27811 -9.599493,0.0078 -4.805815,-8.271207 4.793677,-8.278109 z m 2.848599,-4.95098 -15.30401,0.01135 -7.642333,13.229168 7.66168,13.217813 15.30515,-0.01249 0.407438,-0.705116 7.234891,-12.524051 z m -1.628619,2.819331 6.028505,10.400753 -6.012572,10.408701 -12.042221,0.0091 L 79.743432,79.384101 85.757144,68.9754 Z m -4.389477,13.21741 -3.243713,0.0025 -1.624002,-2.807898 1.619711,-2.810377 3.243712,-0.0025 1.624002,2.807899 z"
       inkscape:tile-x0="0.00043083311"
       inkscape:tile-y0="0.00044607216" />
    <path
       id="use4260"
       style="color:#000000;fill:url(#radialGradient6990);fill-opacity:1;fill-rule:evenodd;stroke-width:0.533018;-inkscape-stroke:none;opacity:0.4"
       d="m 96.166143,98.279195 -8.772635,0.0069 -4.3804,7.553315 4.392235,7.54709 8.772635,-0.006 0.102339,-0.17643 4.278063,-7.37758 z m -0.407966,0.703648 3.982878,6.844137 -3.971739,6.84967 -7.956008,0.006 -3.982877,-6.84414 3.972434,-6.849667 z m 1.637061,-2.836005 -11.232933,0.0078 -5.609529,9.687282 5.624268,9.67778 11.232933,-0.009 0.203747,-0.35208 5.404916,-9.33433 z m -0.815853,1.408306 4.805815,8.270346 -4.793677,8.27811 -9.599493,0.008 -4.805815,-8.27121 4.793677,-8.278109 z m 2.848599,-4.95098 -15.30401,0.01135 -7.642333,13.229166 7.66168,13.21782 15.30515,-0.0125 0.407438,-0.70512 7.234891,-12.52405 z m -1.628619,2.819331 6.028505,10.400755 -6.012572,10.4087 -12.042221,0.009 -6.029645,-10.39962 6.013712,-10.4087 z m -4.389477,13.217405 -3.243713,0.002 -1.624002,-2.80789 1.619711,-2.81038 3.243712,-0.002 1.624002,2.8079 z"
       inkscape:tile-x0="0.00043083311"
       inkscape:tile-y0="0.00044607216" />
    <path
       id="use4262"
       style="color:#000000;fill:url(#radialGradient6986);fill-opacity:1;fill-rule:evenodd;stroke-width:0.533018;-inkscape-stroke:none;opacity:0.4"
       d="m 96.166143,-7.5541353 -8.772635,0.0069 -4.3804,7.553318 4.392235,7.547091 8.772635,-0.0062 0.102339,-0.176431 4.278063,-7.377579 z m -0.407966,0.703648 3.982878,6.844135 -3.971739,6.84967 -7.956008,0.0062 -3.982877,-6.844135 3.972434,-6.84967 z m 1.637061,-2.836005 -11.232933,0.0078 -5.609529,9.687278 5.624268,9.677785 11.232933,-0.0086 0.203747,-0.352076 5.404916,-9.334338 z m -0.815853,1.408306 4.805815,8.270343 -4.793677,8.27811 -9.599493,0.0078 -4.805815,-8.271207 4.793677,-8.278109 z m 2.848599,-4.9509797 -15.30401,0.01135 -7.642333,13.2291677 7.66168,13.2178133 15.30515,-0.01249 0.407438,-0.705116 7.234891,-12.5240513 z m -1.628619,2.819331 6.028505,10.4007527 -6.012572,10.4087013 -12.042221,0.0091 L 79.743432,0.0091007 85.757144,-10.3996 Z m -4.389477,13.2174097 -3.243713,0.0025 -1.624002,-2.807898 1.619711,-2.810377 3.243712,-0.0025 1.624002,2.807899 z"
       inkscape:tile-x0="0.00043083311"
       inkscape:tile-y0="0.00044607216" />
    <path
       id="use4264"
       style="color:#000000;fill:url(#radialGradient6982);fill-opacity:1;fill-rule:evenodd;stroke-width:0.533018;-inkscape-stroke:none;opacity:0.4"
       d="m 96.166143,18.904198 -8.772635,0.0069 -4.3804,7.553318 4.392235,7.547091 8.772635,-0.0062 0.102339,-0.176431 4.278063,-7.377579 z m -0.407966,0.703648 3.982878,6.844135 -3.971739,6.84967 -7.956008,0.0062 -3.982877,-6.844135 3.972434,-6.84967 z m 1.637061,-2.836005 -11.232933,0.0078 -5.609529,9.687278 5.624268,9.677785 11.232933,-0.0086 0.203747,-0.352076 5.404916,-9.334338 z m -0.815853,1.408306 4.805815,8.270343 -4.793677,8.27811 -9.599493,0.0078 -4.805815,-8.271207 4.793677,-8.278109 z m 2.848599,-4.95098 -15.30401,0.01135 -7.642333,13.229168 7.66168,13.217813 15.30515,-0.01249 0.407438,-0.705116 7.234891,-12.524051 z m -1.628619,2.819331 6.028505,10.400753 -6.012572,10.408701 -12.042221,0.0091 -6.029645,-10.399618 6.013712,-10.408701 z m -4.389477,13.21741 -3.243713,0.0025 -1.624002,-2.807898 1.619711,-2.810377 3.243712,-0.0025 1.624002,2.807899 z"
       inkscape:tile-x0="0.00043083311"
       inkscape:tile-y0="0.00044607216" />
    <path
       id="use4266"
       style="color:#000000;fill:url(#radialGradient6978);fill-opacity:1;fill-rule:evenodd;stroke-width:0.533018;-inkscape-stroke:none;opacity:0.4"
       d="m 96.166143,45.362531 -8.772635,0.0069 -4.3804,7.553318 4.392235,7.547091 8.772635,-0.0062 0.102339,-0.176431 4.278063,-7.377579 z m -0.407966,0.703648 3.982878,6.844135 -3.971739,6.84967 -7.956008,0.0062 -3.982877,-6.844135 3.972434,-6.84967 z m 1.637061,-2.836005 -11.232933,0.0078 -5.609529,9.687278 5.624268,9.677785 11.232933,-0.0086 0.203747,-0.352076 5.404916,-9.334338 z m -0.815853,1.408306 4.805815,8.270343 -4.793677,8.27811 -9.599493,0.0078 -4.805815,-8.271207 4.793677,-8.278109 z m 2.848599,-4.95098 -15.30401,0.01135 -7.642333,13.229168 7.66168,13.217813 15.30515,-0.01249 0.407438,-0.705116 7.234891,-12.524051 z m -1.628619,2.819331 6.028505,10.400753 -6.012572,10.408701 -12.042221,0.0091 -6.029645,-10.399618 6.013712,-10.408701 z m -4.389477,13.21741 -3.243713,0.0025 -1.624002,-2.807898 1.619711,-2.810377 3.243712,-0.0025 1.624002,2.807899 z"
       inkscape:tile-x0="0.00043083311"
       inkscape:tile-y0="0.00044607216" />
  </g>
</svg>
