<?xml version="1.0" encoding="UTF-8" standalone="no"?>
<!-- Generator: Adobe Illustrator 9.0, SVG Export Plug-In  -->

<!-- This set of SVG files is a complete cards game with figures, numbers	-->

<!--    and backs of cards completely designed in SVG.				-->

<!--    									-->

<!--    Copyright (C) 2004 David Bellot						-->

<!--										-->

<!--    This library is free software; you can redistribute it and/or		-->

<!--    modify it under the terms of the GNU Lesser General Public		-->

<!--    License as published by the Free Software Foundation; either		-->

<!--    version 2 of the License, or (at your option) any later version		-->

<!--										-->

<!--    This library is distributed in the hope that it will be useful,		-->

<!--    but WITHOUT ANY WARRANTY; without even the implied warranty of		-->

<!--    MERCHANTABILITY or FITNESS FOR A PARTICULAR PURPOSE.  See the GNU	-->

<!--    Lesser General Public License for more details.				-->

<!--										-->

<!--    You should have received a copy of the GNU Lesser General Public	-->

<!--    License along with this library; if not, write to the Free Software	-->

<!--    Foundation, Inc., 59 Temple Place, Suite 330, Boston, MA 02111-1307  USA-->

<!--										-->

<!--    Contact the author David Bellot at bellot@stat.berkeley.edu or 		-->

<!--    david.bellot@free.fr or yimyom@users.sourceforge.net			-->

<svg
   width="207.99998"
   height="300"
   viewBox="0 0 167.08642 240.26483"
   xml:space="preserve"
   id="svg2"
   sodipodi:version="0.32"
   inkscape:version="1.1 (c4e8f9e, 2021-05-24)"
   sodipodi:docname="clubs-10.svg"
   inkscape:output_extension="org.inkscape.output.svg.inkscape"
   version="1.0"
   inkscape:export-filename="/home/damien/dev/perso/tabulous/apps/web/public/images/klondike/clubs-10.png"
   inkscape:export-xdpi="83.199997"
   inkscape:export-ydpi="83.199997"
   xmlns:inkscape="http://www.inkscape.org/namespaces/inkscape"
   xmlns:sodipodi="http://sodipodi.sourceforge.net/DTD/sodipodi-0.dtd"
   xmlns:xlink="http://www.w3.org/1999/xlink"
   xmlns="http://www.w3.org/2000/svg"
   xmlns:svg="http://www.w3.org/2000/svg"
   xmlns:rdf="http://www.w3.org/1999/02/22-rdf-syntax-ns#"
   xmlns:cc="http://creativecommons.org/ns#"
   xmlns:dc="http://purl.org/dc/elements/1.1/"><metadata
   id="metadata90"><rdf:RDF><cc:Work
       rdf:about=""><dc:format>image/svg+xml</dc:format><dc:type
         rdf:resource="http://purl.org/dc/dcmitype/StillImage" /></cc:Work></rdf:RDF></metadata><defs
   id="defs88">
		
		
		
		
		
		
	</defs><sodipodi:namedview
   inkscape:window-height="1053"
   inkscape:window-width="1866"
   inkscape:pageshadow="2"
   inkscape:pageopacity="0.0"
   guidetolerance="10.0"
   gridtolerance="10.0"
   objecttolerance="10.0"
   borderopacity="1.0"
   bordercolor="#666666"
   pagecolor="#ffffff"
   id="base"
   inkscape:zoom="1.4992024"
   inkscape:cx="-46.024473"
   inkscape:cy="202.10747"
   inkscape:window-x="54"
   inkscape:window-y="-10"
   inkscape:current-layer="svg2"
   inkscape:showpageshadow="false"
   width="208px"
   height="303px"
   inkscape:pagecheckerboard="0"
   showgrid="false"
   fit-margin-top="0"
   fit-margin-left="0"
   fit-margin-right="0"
   fit-margin-bottom="0"
   inkscape:window-maximized="1" />
	
<g
   id="g24137"
   transform="matrix(0.999985,0,0,0.99008886,0.00124998,0.00123128)"
   style="stroke-width:1.005"><path
     id="path5"
     d="m 166.83643,235.89281 c 0,3.79171 -3.08594,6.8909 -6.87011,6.8909 H 7.1113279 C 3.3359375,242.78371 0.25,239.68452 0.25,235.89281 V 6.7746664 c 0,-3.78632 3.0859375,-6.89089651 6.8613279,-6.89089651 H 159.96632 c 3.78417,0 6.87011,3.10457651 6.87011,6.89089651 z"
     style="fill:#ffffff;fill-rule:nonzero;stroke:#000000;stroke-width:0.5025;stroke-miterlimit:4" /><g
     style="fill-rule:nonzero;stroke:none;stroke-width:1.005;stroke-miterlimit:4"
     id="g5885"
     transform="translate(-2.9317596,-0.1274412)">
			<path
   d="m 12.743164,25.998535 v -1.46875 h 1.5 V 9.9316406 l -1.6875,2.2236324 v -1.800781 l 2.02832,-2.7309569 h 1.69043 V 24.529785 h 1.53125 v 1.46875 z"
   id="path5887"
   style="stroke-width:1.005" />
			<path
   d="m 22.730469,26.342285 c -1.079102,0 -1.904297,-0.803222 -2.476563,-2.410644 -0.572265,-1.606934 -0.857422,-3.920899 -0.857422,-6.942383 0,-3.020996 0.285157,-5.337402 0.857422,-6.948731 0.572266,-1.6113278 1.397461,-2.4169918 2.476563,-2.4169918 1.071289,0 1.892578,0.8056641 2.464844,2.4169918 0.571289,1.611328 0.857422,3.927735 0.857422,6.948731 0,3.021484 -0.286133,5.335449 -0.857422,6.942383 -0.572266,1.607422 -1.393555,2.410644 -2.464844,2.410644 z m 0,-1.40625 c 0.43164,0 0.728515,-0.439453 0.890625,-1.318359 0.162109,-0.878906 0.24414,-3.088379 0.24414,-6.628906 0,-3.515625 -0.08203,-5.720704 -0.24414,-6.616211 -0.16211,-0.8950199 -0.458985,-1.3427738 -0.890625,-1.3427738 -0.439453,0 -0.740235,0.4394531 -0.902344,1.3183598 -0.163086,0.878906 -0.244141,3.092773 -0.244141,6.640625 0,3.540527 0.08105,5.75 0.244141,6.628906 0.162109,0.878906 0.462891,1.318359 0.902344,1.318359 z"
   id="path5889"
   style="stroke-width:1.005" />
		</g><g
     style="fill-rule:nonzero;stroke:none;stroke-width:1.005;stroke-miterlimit:4"
     id="g5891"
     transform="translate(3.2594001,0.2172862)">
			<path
   d="m 154.01611,216.5791 v 1.46875 h -1.5 v 14.59863 l 1.6875,-2.22363 v 1.80078 l -2.02929,2.73047 h -1.68946 v -16.90625 h -1.53125 v -1.46875 z"
   id="path5893"
   style="stroke-width:1.005" />
			<path
   d="m 144.02783,216.23535 c 1.08008,0 1.90625,0.80371 2.47656,2.41113 0.57227,1.60645 0.85743,3.9209 0.85743,6.94239 0,3.02148 -0.28516,5.33789 -0.85743,6.94922 -0.57031,1.61132 -1.39648,2.41601 -2.47656,2.41601 -1.07031,0 -1.89258,-0.80469 -2.46289,-2.41601 -0.57226,-1.61133 -0.85937,-3.92774 -0.85937,-6.94922 0,-3.02149 0.28711,-5.33594 0.85937,-6.94239 0.57031,-1.60742 1.39258,-2.41113 2.46289,-2.41113 z m 0,1.40625 c -0.42969,0 -0.72656,0.43945 -0.89062,1.31836 -0.16211,0.87891 -0.24414,3.08887 -0.24414,6.62891 0,3.51562 0.082,5.7207 0.24414,6.61718 0.16406,0.89454 0.46093,1.3418 0.89062,1.3418 0.43946,0 0.74024,-0.43945 0.9043,-1.31836 0.16211,-0.8789 0.24219,-3.09179 0.24219,-6.64062 0,-3.54004 -0.0801,-5.75 -0.24219,-6.62891 -0.16406,-0.87891 -0.46484,-1.31836 -0.9043,-1.31836 z"
   id="path5895"
   style="stroke-width:1.005" />
		</g><path
     style="fill:#000000;fill-opacity:1;stroke:none;stroke-width:1.5075;stroke-linecap:round;stroke-linejoin:round;stroke-miterlimit:4;stroke-opacity:1"
     d="m 150.73654,213.0401 c 1.14193,0 2.06721,-0.92528 2.06721,-2.06721 0,-0.58939 -0.25054,-1.11899 -0.64647,-1.4959 -0.30596,-0.29126 -0.74184,-0.95144 -0.88702,-1.48087 0.28319,0.17066 0.53828,0.36517 0.69157,0.5262 0.37692,0.39593 0.90652,0.63895 1.49591,0.63895 1.14193,0 2.0672,-0.92528 2.0672,-2.06721 0,-1.14192 -0.92528,-2.0672 -2.0672,-2.0672 -0.58939,0 -1.11899,0.25053 -1.49591,0.64647 -0.16163,0.16979 -0.43487,0.38463 -0.73668,0.56378 0.0423,-1.89586 0.69299,-3.13463 1.87928,-3.13463 0,0 -4.7433,0 -4.7433,0 1.18945,0 1.84764,1.24526 1.8868,3.14967 -0.31817,-0.18262 -0.61393,-0.40249 -0.78178,-0.57882 -0.37691,-0.39594 -0.90652,-0.64647 -1.49591,-0.64647 -1.14191,0 -2.0672,0.92528 -2.0672,2.0672 0,1.14193 0.92529,2.06721 2.0672,2.06721 0.58938,0 1.119,-0.24302 1.49591,-0.63895 0.15961,-0.16767 0.43682,-0.36651 0.73668,-0.54124 -0.14064,0.53204 -0.58553,1.20174 -0.89454,1.49591 -0.39593,0.37691 -0.63896,0.90652 -0.63896,1.4959 0,1.14193 0.92528,2.06721 2.06721,2.06721 z"
     id="use2374"
     sodipodi:nodetypes="csscsssssccccssssscssc" /><path
     style="fill:#000000;fill-opacity:1;stroke:none;stroke-width:1.5075;stroke-linecap:round;stroke-linejoin:round;stroke-miterlimit:4;stroke-opacity:1"
     d="m 16.349889,29.321959 c -1.141928,0 -2.067208,0.925279 -2.067207,2.067207 0,0.589389 0.250538,1.118991 0.646472,1.495905 0.30596,0.291262 0.741839,0.951436 0.887019,1.480872 -0.283191,-0.170666 -0.53828,-0.365169 -0.691574,-0.526198 -0.376915,-0.395935 -0.906518,-0.638955 -1.495906,-0.638955 -1.141928,0 -2.067207,0.925279 -2.067207,2.067207 0,1.141928 0.925279,2.067206 2.067207,2.067206 0.58939,0 1.118992,-0.250536 1.495906,-0.646471 0.161634,-0.169794 0.434872,-0.384636 0.736677,-0.563784 -0.04233,1.895861 -0.692989,3.134637 -1.879279,3.134637 0,0 4.7433,0 4.7433,0 -1.189451,0 -1.847637,-1.245264 -1.886796,-3.149671 0.318173,0.182621 0.613926,0.40249 0.78178,0.578818 0.376909,0.395935 0.906523,0.646471 1.495906,0.646471 1.141916,0 2.067207,-0.925278 2.067207,-2.067206 0,-1.141928 -0.925291,-2.067207 -2.067207,-2.067207 -0.58938,0 -1.118997,0.24302 -1.495906,0.638955 -0.159611,0.167665 -0.436822,0.366501 -0.736677,0.541232 0.140641,-0.53204 0.585524,-1.201734 0.894536,-1.495906 0.395935,-0.376914 0.638955,-0.906519 0.638955,-1.495905 0,-1.141928 -0.925278,-2.067207 -2.067206,-2.067207 z"
     id="use2370"
     sodipodi:nodetypes="csscsssssccccssssscssc" /><use
     x="0"
     y="0"
     xlink:href="#path2242"
     id="use2597"
     transform="matrix(1,0,0,-1,0,242.64527)"
     width="167.08643"
     height="242.66748"
     style="stroke-width:1.005" /><path
     style="fill:#000000;fill-opacity:1;stroke:none;stroke-width:1.5075;stroke-linecap:round;stroke-linejoin:round;stroke-miterlimit:4;stroke-opacity:1"
     d="m 47.662646,12.946052 c -3.79776,0 -6.875001,3.07724 -6.874999,6.875 0,1.96016 0.833224,3.72148 2.149999,4.975 1.017544,0.96866 2.467168,3.16423 2.95,4.925 -0.941824,-0.56759 -1.790184,-1.21446 -2.3,-1.75 -1.253521,-1.31678 -3.014848,-2.125 -4.975,-2.125 -3.797761,0 -6.875,3.07724 -6.875,6.875 0,3.79776 3.077241,6.875 6.875,6.875 1.96016,0 3.72148,-0.83322 4.975,-2.15 0.537552,-0.56469 1.446272,-1.2792 2.45,-1.875 -0.140792,6.30515 -2.304704,10.425 -6.249999,10.425 0,0 15.774999,0 15.774999,0 -3.955808,0 -6.144768,-4.14143 -6.275,-10.475 1.05816,0.60735 2.04176,1.33858 2.6,1.925 1.253504,1.31678 3.014864,2.15 4.975,2.15 3.79772,0 6.875,-3.07724 6.875,-6.875 0,-3.79776 -3.07728,-6.875 -6.875,-6.875 -1.960128,0 -3.721496,0.80822 -4.975,2.125 -0.530824,0.55761 -1.45276,1.21889 -2.45,1.8 0.467736,-1.76943 1.947304,-3.99666 2.975,-4.975 1.316776,-1.25352 2.125,-3.01485 2.125,-4.975 0,-3.79776 -3.07724,-6.875 -6.875,-6.875 z"
     id="path2242"
     sodipodi:nodetypes="csscsssssccccssssscssc" /><use
     x="0"
     y="0"
     xlink:href="#path2242"
     id="use3293"
     transform="translate(0,61.23439)"
     width="167.08643"
     height="242.66748"
     style="stroke-width:1.005" /><path
     sodipodi:nodetypes="csscsssssccccssssscssc"
     id="path2841"
     d="m 118.33305,12.946053 c -3.79776,0 -6.875,3.07724 -6.875,6.875 0,1.96016 0.83323,3.721476 2.15,4.974996 1.01755,0.96866 2.46717,3.16423 2.95,4.925 -0.94182,-0.56759 -1.79018,-1.21446 -2.3,-1.75 -1.25352,-1.31678 -3.01485,-2.125 -4.975,-2.125 -3.79776,0 -6.875,3.07724 -6.875,6.875 0,3.79776 3.07724,6.875 6.875,6.875 1.96016,0 3.72148,-0.83322 4.975,-2.15 0.53755,-0.56469 1.44627,-1.2792 2.45,-1.875 -0.14079,6.30515 -2.3047,10.425 -6.25,10.425 0,0 15.775,0 15.775,0 -3.95581,0 -6.14477,-4.14143 -6.275,-10.475 1.05816,0.60735 2.04176,1.33858 2.6,1.925 1.25351,1.31678 3.01487,2.15 4.975,2.15 3.79772,0 6.875,-3.07724 6.875,-6.875 0,-3.79776 -3.07728,-6.875 -6.875,-6.875 -1.96013,0 -3.72149,0.80822 -4.975,2.125 -0.53082,0.55761 -1.45276,1.21889 -2.45,1.8 0.46774,-1.76943 1.94731,-3.99666 2.975,-4.975 1.31678,-1.25352 2.125,-3.014846 2.125,-4.974996 0,-3.79776 -3.07724,-6.875 -6.875,-6.875 z"
     style="fill:#000000;fill-opacity:1;stroke:none;stroke-width:1.5075;stroke-linecap:round;stroke-linejoin:round;stroke-miterlimit:4;stroke-opacity:1" /><use
     height="242.66748"
     width="167.08643"
     transform="translate(70.670404,61.234387)"
     id="use4073"
     xlink:href="#path2242"
     y="0"
     x="0"
     style="stroke-width:1.005" /><g
     id="g6118"
     style="stroke-width:1.005"><use
       height="242.66748"
       width="167.08643"
       transform="matrix(1,0,0,-1,0,242.64527)"
       id="use3214"
       xlink:href="#path2841"
       y="0"
       x="0"
       style="stroke-width:1.005" /><use
       height="242.66748"
       width="167.08643"
       transform="matrix(1,0,0,-1,69.468301,181.41088)"
       id="use5481"
       xlink:href="#path2242"
       y="0"
       x="0"
       style="stroke-width:1.005" /></g><use
     x="0"
     y="0"
     xlink:href="#use5481"
     id="use5483"
     transform="translate(-69.468301)"
     width="167.08643"
     height="242.66748"
     style="stroke-width:1.005" /><use
     x="0"
     y="0"
     xlink:href="#path2242"
     id="use5485"
     transform="translate(35.805569,30.617194)"
     width="167.08643"
     height="242.66748"
     style="stroke-width:1.005" /><use
     x="0"
     y="0"
     xlink:href="#path2242"
     id="use6114"
     transform="matrix(1,0,0,-1,35.805569,212.02807)"
     width="167.08643"
     height="242.66748"
     style="stroke-width:1.005" /></g></svg>
