<?xml version="1.0" encoding="UTF-8" standalone="no"?>
<!-- Generator: Adobe Illustrator 9.0, SVG Export Plug-In  -->

<!-- This set of SVG files is a complete cards game with figures, numbers	-->

<!--    and backs of cards completely designed in SVG.				-->

<!--    									-->

<!--    Copyright (C) 2004 David Bellot						-->

<!--										-->

<!--    This library is free software; you can redistribute it and/or		-->

<!--    modify it under the terms of the GNU Lesser General Public		-->

<!--    License as published by the Free Software Foundation; either		-->

<!--    version 2 of the License, or (at your option) any later version		-->

<!--										-->

<!--    This library is distributed in the hope that it will be useful,		-->

<!--    but WITHOUT ANY WARRANTY; without even the implied warranty of		-->

<!--    MERCHANTABILITY or FITNESS FOR A PARTICULAR PURPOSE.  See the GNU	-->

<!--    Lesser General Public License for more details.				-->

<!--										-->

<!--    You should have received a copy of the GNU Lesser General Public	-->

<!--    License along with this library; if not, write to the Free Software	-->

<!--    Foundation, Inc., 59 Temple Place, Suite 330, Boston, MA 02111-1307  USA-->

<!--										-->

<!--    Contact the author David Bellot at bellot@stat.berkeley.edu or 		-->

<!--    david.bellot@free.fr or yimyom@users.sourceforge.net			-->

<svg
   width="207.99998"
   height="300"
   viewBox="0 0 167.08642 240.26483"
   xml:space="preserve"
   id="svg2"
   sodipodi:version="0.32"
   inkscape:version="1.1 (c4e8f9e, 2021-05-24)"
   sodipodi:docname="clubs-6.svg"
   inkscape:output_extension="org.inkscape.output.svg.inkscape"
   version="1.0"
   inkscape:export-filename="/home/damien/dev/perso/tabulous/apps/web/public/images/klondike/clubs-6.png"
   inkscape:export-xdpi="83.199997"
   inkscape:export-ydpi="83.199997"
   xmlns:inkscape="http://www.inkscape.org/namespaces/inkscape"
   xmlns:sodipodi="http://sodipodi.sourceforge.net/DTD/sodipodi-0.dtd"
   xmlns:xlink="http://www.w3.org/1999/xlink"
   xmlns="http://www.w3.org/2000/svg"
   xmlns:svg="http://www.w3.org/2000/svg"
   xmlns:rdf="http://www.w3.org/1999/02/22-rdf-syntax-ns#"
   xmlns:cc="http://creativecommons.org/ns#"
   xmlns:dc="http://purl.org/dc/elements/1.1/"><metadata
   id="metadata90"><rdf:RDF><cc:Work
       rdf:about=""><dc:format>image/svg+xml</dc:format><dc:type
         rdf:resource="http://purl.org/dc/dcmitype/StillImage" /></cc:Work></rdf:RDF></metadata><defs
   id="defs88">
		
		
		
		
		
		
	</defs><sodipodi:namedview
   inkscape:window-height="1053"
   inkscape:window-width="1866"
   inkscape:pageshadow="2"
   inkscape:pageopacity="0.0"
   guidetolerance="10.0"
   gridtolerance="10.0"
   objecttolerance="10.0"
   borderopacity="1.0"
   bordercolor="#666666"
   pagecolor="#ffffff"
   id="base"
   inkscape:zoom="1.4992024"
   inkscape:cx="-46.024473"
   inkscape:cy="202.10747"
   inkscape:window-x="54"
   inkscape:window-y="-10"
   inkscape:current-layer="svg2"
   inkscape:showpageshadow="false"
   width="208px"
   height="303px"
   inkscape:pagecheckerboard="0"
   showgrid="false"
   fit-margin-top="0"
   fit-margin-left="0"
   fit-margin-right="0"
   fit-margin-bottom="0"
   inkscape:window-maximized="1" />
	
<g
   id="g21617"
   transform="matrix(0.999985,0,0,0.99008886,0.00124998,0.00123128)"
   style="stroke-width:1.005"><path
     id="path5"
     d="m 166.83643,235.89281 c 0,3.79171 -3.08594,6.8909 -6.87011,6.8909 H 7.1113279 C 3.3359375,242.78371 0.25,239.68452 0.25,235.89281 V 6.7746664 c 0,-3.78632 3.0859375,-6.89089651 6.8613279,-6.89089651 H 159.96632 c 3.78417,0 6.87011,3.10457651 6.87011,6.89089651 z"
     style="fill:#ffffff;fill-rule:nonzero;stroke:#000000;stroke-width:0.5025;stroke-miterlimit:4" /><g
     style="fill-rule:nonzero;stroke:#000000;stroke-width:1.005;stroke-miterlimit:4"
     id="g3809"
     transform="translate(1.3636509,-0.1274412)">
			<path
   style="stroke:none;stroke-width:1.005"
   d="m 13.836914,15.286133 c 0.240723,-0.418945 0.503906,-0.73291 0.789063,-0.942383 0.285156,-0.208984 0.600586,-0.313965 0.946289,-0.313965 0.819336,0 1.464355,0.540528 1.93457,1.620606 0.469727,1.080566 0.705078,2.564453 0.705078,4.451172 0,1.991699 -0.266113,3.529785 -0.797851,4.614257 -0.532227,1.084473 -1.285645,1.626465 -2.260254,1.626465 -1.096192,0 -1.928223,-0.743164 -2.496094,-2.229492 -0.56836,-1.486328 -0.852051,-3.671387 -0.852051,-6.555664 0,-3.278809 0.313477,-5.753906 0.94043,-7.425781 0.626953,-1.6718754 1.559082,-2.5078129 2.797363,-2.5078129 0.321289,0 0.666992,0.060059 1.037109,0.1796875 0.369629,0.1201172 0.767579,0.2998047 1.193848,0.5390625 v 3.1874999 h -0.65625 C 17.030273,10.708496 16.860352,10.086914 16.608887,9.6640624 16.357422,9.2412108 16.036133,9.0297851 15.64502,9.0297851 c -0.63086,0 -1.087891,0.4912109 -1.371094,1.4736329 -0.283203,0.982422 -0.429199,2.57666 -0.437012,4.782715 z m 1.1875,9.649902 c 0.37207,0 0.636719,-0.353027 0.794434,-1.05957 0.157715,-0.706055 0.236816,-1.931152 0.236816,-3.674805 0,-1.743164 -0.0791,-2.968261 -0.236816,-3.674804 -0.157715,-0.706055 -0.422364,-1.059571 -0.794434,-1.059571 -0.37207,0 -0.637207,0.353516 -0.794922,1.059571 -0.157715,0.706543 -0.236328,1.93164 -0.236328,3.674804 0,1.743653 0.07861,2.96875 0.236328,3.674805 0.157715,0.706543 0.422852,1.05957 0.794922,1.05957 z"
   id="path3811" />
		</g><g
     style="fill-rule:nonzero;stroke:#000000;stroke-width:1.005;stroke-miterlimit:4"
     id="g3813"
     transform="translate(-0.8494849,0.2172862)">
			<path
   style="stroke:none;stroke-width:1.005"
   d="m 152.73535,227.29199 c -0.24121,0.41895 -0.5039,0.73242 -0.78906,0.94239 -0.28516,0.20898 -0.60156,0.31347 -0.94727,0.31347 -0.81836,0 -1.46386,-0.54004 -1.93359,-1.62012 -0.4707,-1.08105 -0.70508,-2.56445 -0.70508,-4.45117 0,-1.99121 0.26563,-3.53027 0.79688,-4.61426 0.5332,-1.08398 1.28613,-1.62695 2.26074,-1.62695 1.09668,0 1.92871,0.74414 2.49609,2.23047 0.56836,1.48633 0.85254,3.6709 0.85254,6.55469 0,3.27929 -0.31445,5.7539 -0.9414,7.42578 -0.62696,1.67187 -1.5586,2.50781 -2.79688,2.50781 -0.32129,0 -0.66699,-0.0596 -1.03711,-0.17969 -0.36914,-0.11914 -0.76758,-0.29882 -1.19336,-0.53906 v -3.1875 h 0.65625 c 0.0879,0.82227 0.25781,1.44336 0.50879,1.86621 0.25098,0.42285 0.57324,0.63379 0.96387,0.63379 0.63086,0 1.08789,-0.49023 1.37109,-1.47265 0.2832,-0.98243 0.42969,-2.57715 0.4375,-4.78321 z m -1.1875,-9.65039 c -0.37305,0 -0.63672,0.35352 -0.79492,1.06055 -0.1582,0.70508 -0.23633,1.93066 -0.23633,3.67383 0,1.74414 0.0781,2.96875 0.23633,3.67578 0.1582,0.70508 0.42187,1.05859 0.79492,1.05859 0.3711,0 0.63672,-0.35351 0.79492,-1.05859 0.15723,-0.70703 0.23633,-1.93164 0.23633,-3.67578 0,-1.74317 -0.0791,-2.96875 -0.23633,-3.67383 -0.1582,-0.70703 -0.42382,-1.06055 -0.79492,-1.06055 z"
   id="path3815" />
		</g><path
     style="fill:#000000;fill-opacity:1;stroke:none;stroke-width:1.5075;stroke-linecap:round;stroke-linejoin:round;stroke-miterlimit:4;stroke-opacity:1"
     d="m 150.73654,213.0401 c 1.14193,0 2.06721,-0.92528 2.06721,-2.06721 0,-0.58939 -0.25054,-1.11899 -0.64647,-1.4959 -0.30596,-0.29126 -0.74184,-0.95144 -0.88702,-1.48087 0.28319,0.17066 0.53828,0.36517 0.69157,0.5262 0.37692,0.39593 0.90652,0.63895 1.49591,0.63895 1.14193,0 2.0672,-0.92528 2.0672,-2.06721 0,-1.14192 -0.92528,-2.0672 -2.0672,-2.0672 -0.58939,0 -1.11899,0.25053 -1.49591,0.64647 -0.16163,0.16979 -0.43487,0.38463 -0.73668,0.56378 0.0423,-1.89586 0.69299,-3.13463 1.87928,-3.13463 0,0 -4.7433,0 -4.7433,0 1.18945,0 1.84764,1.24526 1.8868,3.14967 -0.31817,-0.18262 -0.61393,-0.40249 -0.78178,-0.57882 -0.37691,-0.39594 -0.90652,-0.64647 -1.49591,-0.64647 -1.14191,0 -2.0672,0.92528 -2.0672,2.0672 0,1.14193 0.92529,2.06721 2.0672,2.06721 0.58938,0 1.119,-0.24302 1.49591,-0.63895 0.15961,-0.16767 0.43682,-0.36651 0.73668,-0.54124 -0.14064,0.53204 -0.58553,1.20174 -0.89454,1.49591 -0.39593,0.37691 -0.63896,0.90652 -0.63896,1.4959 0,1.14193 0.92528,2.06721 2.06721,2.06721 z"
     id="use2374"
     sodipodi:nodetypes="csscsssssccccssssscssc" /><path
     style="fill:#000000;fill-opacity:1;stroke:none;stroke-width:1.5075;stroke-linecap:round;stroke-linejoin:round;stroke-miterlimit:4;stroke-opacity:1"
     d="m 16.349889,29.321959 c -1.141928,0 -2.067208,0.925279 -2.067207,2.067207 0,0.589389 0.250538,1.118991 0.646472,1.495905 0.30596,0.291262 0.741839,0.951436 0.887019,1.480872 -0.283191,-0.170666 -0.53828,-0.365169 -0.691574,-0.526198 -0.376915,-0.395935 -0.906518,-0.638955 -1.495906,-0.638955 -1.141928,0 -2.067207,0.925279 -2.067207,2.067207 0,1.141928 0.925279,2.067206 2.067207,2.067206 0.58939,0 1.118992,-0.250536 1.495906,-0.646471 0.161634,-0.169794 0.434872,-0.384636 0.736677,-0.563784 -0.04233,1.895861 -0.692989,3.134637 -1.879279,3.134637 0,0 4.7433,0 4.7433,0 -1.189451,0 -1.847637,-1.245264 -1.886796,-3.149671 0.318173,0.182621 0.613926,0.40249 0.78178,0.578818 0.376909,0.395935 0.906523,0.646471 1.495906,0.646471 1.141916,0 2.067207,-0.925278 2.067207,-2.067206 0,-1.141928 -0.925291,-2.067207 -2.067207,-2.067207 -0.58938,0 -1.118997,0.24302 -1.495906,0.638955 -0.159611,0.167665 -0.436822,0.366501 -0.736677,0.541232 0.140641,-0.53204 0.585524,-1.201734 0.894536,-1.495906 0.395935,-0.376914 0.638955,-0.906519 0.638955,-1.495905 0,-1.141928 -0.925278,-2.067207 -2.067206,-2.067207 z"
     id="use2370"
     sodipodi:nodetypes="csscsssssccccssssscssc" /><path
     style="fill:#000000;fill-opacity:1;stroke:none;stroke-width:1.5075;stroke-linecap:round;stroke-linejoin:round;stroke-miterlimit:4;stroke-opacity:1"
     d="m 47.662646,12.94605 c -3.79776,0 -6.875001,3.07724 -6.874999,6.875 0,1.96016 0.833224,3.72148 2.149999,4.975 1.017544,0.96866 2.467168,3.16423 2.95,4.925 -0.941824,-0.56759 -1.790184,-1.21446 -2.3,-1.75 -1.253521,-1.31678 -3.014848,-2.125 -4.975,-2.125 -3.797761,0 -6.875,3.07724 -6.875,6.875 0,3.79776 3.077241,6.875 6.875,6.875 1.96016,0 3.72148,-0.83322 4.975,-2.15 0.537552,-0.56469 1.446272,-1.2792 2.45,-1.875 -0.140792,6.30515 -2.304704,10.425 -6.249999,10.425 0,0 15.774999,0 15.774999,0 -3.955808,0 -6.144768,-4.14143 -6.275,-10.475 1.05816,0.60735 2.04176,1.33858 2.6,1.925 1.253504,1.31678 3.014864,2.15 4.975,2.15 3.79772,0 6.875,-3.07724 6.875,-6.875 0,-3.79776 -3.07728,-6.875 -6.875,-6.875 -1.960128,0 -3.721496,0.80822 -4.975,2.125 -0.530824,0.55761 -1.45276,1.21889 -2.45,1.8 0.467736,-1.76943 1.947304,-3.99666 2.975,-4.975 1.316776,-1.25352 2.125,-3.01485 2.125,-4.975 0,-3.79776 -3.07724,-6.875 -6.875,-6.875 z"
     id="path2242"
     sodipodi:nodetypes="csscsssssccccssssscssc" /><use
     x="0"
     y="0"
     xlink:href="#path2242"
     id="use2597"
     transform="matrix(1,0,0,-1,0,242.64527)"
     width="167.08643"
     height="242.66748"
     style="stroke-width:1.005" /><path
     sodipodi:nodetypes="csscsssssccccssssscssc"
     id="path2841"
     d="m 118.33305,12.946052 c -3.79776,0 -6.875,3.07724 -6.875,6.875 0,1.96016 0.83323,3.721476 2.15,4.974996 1.01755,0.96866 2.46717,3.16423 2.95,4.925 -0.94182,-0.56759 -1.79018,-1.21446 -2.3,-1.75 -1.25352,-1.31678 -3.01485,-2.125 -4.975,-2.125 -3.79776,0 -6.875,3.07724 -6.875,6.875 0,3.79776 3.07724,6.875 6.875,6.875 1.96016,0 3.72148,-0.83322 4.975,-2.15 0.53755,-0.56469 1.44627,-1.2792 2.45,-1.875 -0.14079,6.30515 -2.3047,10.425 -6.25,10.425 0,0 15.775,0 15.775,0 -3.95581,0 -6.14477,-4.14143 -6.275,-10.475 1.05816,0.60735 2.04176,1.33858 2.6,1.925 1.25351,1.31678 3.01487,2.15 4.975,2.15 3.79772,0 6.875,-3.07724 6.875,-6.875 0,-3.79776 -3.07728,-6.875 -6.875,-6.875 -1.96013,0 -3.72149,0.80822 -4.975,2.125 -0.53082,0.55761 -1.45276,1.21889 -2.45,1.8 0.46774,-1.76943 1.94731,-3.99666 2.975,-4.975 1.31678,-1.25352 2.125,-3.014846 2.125,-4.974996 0,-3.79776 -3.07724,-6.875 -6.875,-6.875 z"
     style="fill:#000000;fill-opacity:1;stroke:none;stroke-width:1.5075;stroke-linecap:round;stroke-linejoin:round;stroke-miterlimit:4;stroke-opacity:1" /><use
     x="0"
     y="0"
     xlink:href="#path2841"
     id="use3214"
     transform="matrix(1,0,0,-1,0,242.64527)"
     width="167.08643"
     height="242.66748"
     style="stroke-width:1.005" /><use
     x="0"
     y="0"
     xlink:href="#path2242"
     id="use3293"
     transform="translate(0,91.86269)"
     width="167.08643"
     height="242.66748"
     style="stroke-width:1.005" /><use
     height="242.66748"
     width="167.08643"
     transform="translate(70.670404,91.86269)"
     id="use4073"
     xlink:href="#path2242"
     y="0"
     x="0"
     style="stroke-width:1.005" /></g></svg>
