<?xml version="1.0" encoding="UTF-8" standalone="no"?>
<!-- Generator: Adobe Illustrator 9.0, SVG Export Plug-In  -->

<!-- This set of SVG files is a complete cards game with figures, numbers	-->

<!--    and backs of cards completely designed in SVG.				-->

<!--    									-->

<!--    Copyright (C) 2004 David Bellot						-->

<!--										-->

<!--    This library is free software; you can redistribute it and/or		-->

<!--    modify it under the terms of the GNU Lesser General Public		-->

<!--    License as published by the Free Software Foundation; either		-->

<!--    version 2 of the License, or (at your option) any later version		-->

<!--										-->

<!--    This library is distributed in the hope that it will be useful,		-->

<!--    but WITHOUT ANY WARRANTY; without even the implied warranty of		-->

<!--    MERCHANTABILITY or FITNESS FOR A PARTICULAR PURPOSE.  See the GNU	-->

<!--    Lesser General Public License for more details.				-->

<!--										-->

<!--    You should have received a copy of the GNU Lesser General Public	-->

<!--    License along with this library; if not, write to the Free Software	-->

<!--    Foundation, Inc., 59 Temple Place, Suite 330, Boston, MA 02111-1307  USA-->

<!--										-->

<!--    Contact the author David Bellot at bellot@stat.berkeley.edu or 		-->

<!--    david.bellot@free.fr or yimyom@users.sourceforge.net			-->

<svg
   width="207.99998"
   height="300"
   viewBox="0 0 167.08642 240.26483"
   xml:space="preserve"
   id="svg2"
   sodipodi:version="0.32"
   inkscape:version="1.1 (c4e8f9e, 2021-05-24)"
   sodipodi:docname="clubs-8.svg"
   inkscape:output_extension="org.inkscape.output.svg.inkscape"
   version="1.0"
   inkscape:export-filename="/home/damien/dev/perso/tabulous/apps/web/public/images/klondike/clubs-8.png"
   inkscape:export-xdpi="83.199997"
   inkscape:export-ydpi="83.199997"
   xmlns:inkscape="http://www.inkscape.org/namespaces/inkscape"
   xmlns:sodipodi="http://sodipodi.sourceforge.net/DTD/sodipodi-0.dtd"
   xmlns:xlink="http://www.w3.org/1999/xlink"
   xmlns="http://www.w3.org/2000/svg"
   xmlns:svg="http://www.w3.org/2000/svg"
   xmlns:rdf="http://www.w3.org/1999/02/22-rdf-syntax-ns#"
   xmlns:cc="http://creativecommons.org/ns#"
   xmlns:dc="http://purl.org/dc/elements/1.1/"><metadata
   id="metadata90"><rdf:RDF><cc:Work
       rdf:about=""><dc:format>image/svg+xml</dc:format><dc:type
         rdf:resource="http://purl.org/dc/dcmitype/StillImage" /></cc:Work></rdf:RDF></metadata><defs
   id="defs88">
		
		
		
		
		
		
	</defs><sodipodi:namedview
   inkscape:window-height="1053"
   inkscape:window-width="1866"
   inkscape:pageshadow="2"
   inkscape:pageopacity="0.0"
   guidetolerance="10.0"
   gridtolerance="10.0"
   objecttolerance="10.0"
   borderopacity="1.0"
   bordercolor="#666666"
   pagecolor="#ffffff"
   id="base"
   inkscape:zoom="1.4992024"
   inkscape:cx="-46.024473"
   inkscape:cy="202.10747"
   inkscape:window-x="54"
   inkscape:window-y="-10"
   inkscape:current-layer="svg2"
   inkscape:showpageshadow="false"
   width="208px"
   height="303px"
   inkscape:pagecheckerboard="0"
   showgrid="false"
   fit-margin-top="0"
   fit-margin-left="0"
   fit-margin-right="0"
   fit-margin-bottom="0"
   inkscape:window-maximized="1" />
	
<g
   id="g22860"
   transform="matrix(0.999985,0,0,0.99008886,0.00124998,0.00123128)"
   style="stroke-width:1.005"><path
     id="path5"
     d="m 166.83643,235.89281 c 0,3.79171 -3.08594,6.8909 -6.87011,6.8909 H 7.1113279 C 3.3359375,242.78371 0.25,239.68452 0.25,235.89281 V 6.7746664 c 0,-3.78632 3.0859375,-6.89089651 6.8613279,-6.89089651 H 159.96632 c 3.78417,0 6.87011,3.10457651 6.87011,6.89089651 z"
     style="fill:#ffffff;fill-rule:nonzero;stroke:#000000;stroke-width:0.5025;stroke-miterlimit:4" /><g
     style="fill-rule:nonzero;stroke:#000000;stroke-width:1.005;stroke-miterlimit:4"
     id="g4741"
     transform="translate(1.5037879,0.03808595)">
			<path
   style="stroke:none;stroke-width:1.005"
   d="m 16.158203,16.205566 c 0.646485,0.234375 1.137207,0.762696 1.472656,1.58545 0.33545,0.822753 0.503418,1.899902 0.503418,3.230957 0,1.662109 -0.280273,2.936523 -0.84082,3.82373 -0.560547,0.887695 -1.368652,1.331055 -2.424805,1.331055 -1.05664,0 -1.864746,-0.44336 -2.425293,-1.331055 -0.560546,-0.887207 -0.840332,-2.161621 -0.840332,-3.82373 0,-1.331055 0.166016,-2.408204 0.498536,-3.230957 0.332519,-0.822754 0.815429,-1.351075 1.448242,-1.58545 -0.555176,-0.28955 -0.97168,-0.774414 -1.249024,-1.454101 -0.277832,-0.679688 -0.416503,-1.541992 -0.416503,-2.587891 0,-1.52832 0.254394,-2.6943357 0.76416,-3.4990232 0.509277,-0.8041992 1.249511,-1.206543 2.220215,-1.206543 0.962402,0 1.700195,0.4023438 2.213867,1.206543 0.513672,0.8046875 0.770508,1.9707032 0.770508,3.4990232 0,1.045899 -0.140625,1.908203 -0.420899,2.587891 -0.280273,0.679687 -0.705078,1.164551 -1.273926,1.454101 z m -0.180176,4.612793 c 0,-1.479003 -0.0835,-2.497558 -0.249511,-3.055175 -0.166016,-0.557618 -0.456055,-0.836426 -0.869629,-0.836426 -0.413574,0 -0.705567,0.278808 -0.875489,0.836426 -0.17041,0.557617 -0.255371,1.576171 -0.255371,3.055175 0,1.495118 0.08496,2.527832 0.255371,3.097657 0.169922,0.569824 0.461915,0.854492 0.875489,0.854492 0.405273,0 0.693359,-0.284668 0.863769,-0.854492 0.169922,-0.569824 0.255371,-1.602539 0.255371,-3.097657 z m -0.21875,-8.60791 c 0,-1.272461 -0.06738,-2.147949 -0.202148,-2.6274412 -0.134766,-0.4790039 -0.364258,-0.71875 -0.688477,-0.71875 -0.332519,0 -0.563964,0.2397461 -0.694824,0.71875 -0.130859,0.4794922 -0.195801,1.3549802 -0.195801,2.6274412 0,1.264649 0.06494,2.132324 0.195801,2.603516 0.13086,0.471191 0.362305,0.706543 0.694824,0.706543 0.324219,0 0.553711,-0.235352 0.688477,-0.706543 0.134766,-0.471192 0.202148,-1.338867 0.202148,-2.603516 z"
   id="path4743" />
		</g><g
     style="fill-rule:nonzero;stroke:#000000;stroke-width:1.005;stroke-miterlimit:4"
     id="g4745"
     transform="translate(-0.8338649,0.3828162)">
			<path
   style="stroke:none;stroke-width:1.005"
   d="m 150.25879,226.0415 c -0.64649,-0.23437 -1.1377,-0.76269 -1.47266,-1.58496 -0.33593,-0.82324 -0.5039,-1.90039 -0.5039,-3.23144 0,-1.66211 0.28027,-2.93653 0.84082,-3.82324 0.56054,-0.88868 1.36816,-1.33204 2.4248,-1.33204 1.05664,0 1.86524,0.44336 2.42578,1.33204 0.56055,0.88671 0.83985,2.16113 0.83985,3.82324 0,1.33105 -0.16602,2.4082 -0.49805,3.23144 -0.33301,0.82227 -0.81641,1.35059 -1.44922,1.58496 0.55567,0.29004 0.97266,0.77442 1.25,1.45411 0.27734,0.67968 0.41602,1.54199 0.41602,2.58789 0,1.52832 -0.25391,2.69433 -0.76368,3.49902 -0.50976,0.80371 -1.25,1.20605 -2.2207,1.20605 -0.96289,0 -1.70019,-0.40234 -2.21387,-1.20605 -0.51367,-0.80469 -0.7705,-1.9707 -0.7705,-3.49902 0,-1.0459 0.14062,-1.90821 0.42089,-2.58789 0.28028,-0.67969 0.70508,-1.16407 1.27442,-1.45411 z m 0.17969,-4.6123 c 0,1.47851 0.084,2.49707 0.25,3.05469 0.16601,0.55761 0.45507,0.83593 0.86914,0.83593 0.41406,0 0.70508,-0.27832 0.875,-0.83593 0.1709,-0.55762 0.25586,-1.57618 0.25586,-3.05469 0,-1.49609 -0.085,-2.52832 -0.25586,-3.09766 -0.16992,-0.57031 -0.46094,-0.85547 -0.875,-0.85547 -0.40528,0 -0.69336,0.28516 -0.86328,0.85547 -0.16993,0.56934 -0.25586,1.60157 -0.25586,3.09766 z m 0.21875,8.60742 c 0,1.27246 0.0674,2.14844 0.20215,2.62695 0.13476,0.4795 0.36425,0.71875 0.68847,0.71875 0.33203,0 0.56445,-0.23925 0.69531,-0.71875 0.13086,-0.47851 0.19532,-1.35449 0.19532,-2.62695 0,-1.26465 -0.0645,-2.13281 -0.19532,-2.60351 -0.13086,-0.47071 -0.36328,-0.70704 -0.69531,-0.70704 -0.32422,0 -0.55371,0.23633 -0.68847,0.70704 -0.13477,0.4707 -0.20215,1.33886 -0.20215,2.60351 z"
   id="path4747" />
		</g><path
     style="fill:#000000;fill-opacity:1;stroke:none;stroke-width:1.5075;stroke-linecap:round;stroke-linejoin:round;stroke-miterlimit:4;stroke-opacity:1"
     d="m 150.73654,213.0401 c 1.14193,0 2.06721,-0.92528 2.06721,-2.06721 0,-0.58939 -0.25054,-1.11899 -0.64647,-1.4959 -0.30596,-0.29126 -0.74184,-0.95144 -0.88702,-1.48087 0.28319,0.17066 0.53828,0.36517 0.69157,0.5262 0.37692,0.39593 0.90652,0.63895 1.49591,0.63895 1.14193,0 2.0672,-0.92528 2.0672,-2.06721 0,-1.14192 -0.92528,-2.0672 -2.0672,-2.0672 -0.58939,0 -1.11899,0.25053 -1.49591,0.64647 -0.16163,0.16979 -0.43487,0.38463 -0.73668,0.56378 0.0423,-1.89586 0.69299,-3.13463 1.87928,-3.13463 0,0 -4.7433,0 -4.7433,0 1.18945,0 1.84764,1.24526 1.8868,3.14967 -0.31817,-0.18262 -0.61393,-0.40249 -0.78178,-0.57882 -0.37691,-0.39594 -0.90652,-0.64647 -1.49591,-0.64647 -1.14191,0 -2.0672,0.92528 -2.0672,2.0672 0,1.14193 0.92529,2.06721 2.0672,2.06721 0.58938,0 1.119,-0.24302 1.49591,-0.63895 0.15961,-0.16767 0.43682,-0.36651 0.73668,-0.54124 -0.14064,0.53204 -0.58553,1.20174 -0.89454,1.49591 -0.39593,0.37691 -0.63896,0.90652 -0.63896,1.4959 0,1.14193 0.92528,2.06721 2.06721,2.06721 z"
     id="use2374"
     sodipodi:nodetypes="csscsssssccccssssscssc" /><path
     style="fill:#000000;fill-opacity:1;stroke:none;stroke-width:1.5075;stroke-linecap:round;stroke-linejoin:round;stroke-miterlimit:4;stroke-opacity:1"
     d="m 16.349889,29.321959 c -1.141928,0 -2.067208,0.925279 -2.067207,2.067207 0,0.589389 0.250538,1.118991 0.646472,1.495905 0.30596,0.291262 0.741839,0.951436 0.887019,1.480872 -0.283191,-0.170666 -0.53828,-0.365169 -0.691574,-0.526198 -0.376915,-0.395935 -0.906518,-0.638955 -1.495906,-0.638955 -1.141928,0 -2.067207,0.925279 -2.067207,2.067207 0,1.141928 0.925279,2.067206 2.067207,2.067206 0.58939,0 1.118992,-0.250536 1.495906,-0.646471 0.161634,-0.169794 0.434872,-0.384636 0.736677,-0.563784 -0.04233,1.895861 -0.692989,3.134637 -1.879279,3.134637 0,0 4.7433,0 4.7433,0 -1.189451,0 -1.847637,-1.245264 -1.886796,-3.149671 0.318173,0.182621 0.613926,0.40249 0.78178,0.578818 0.376909,0.395935 0.906523,0.646471 1.495906,0.646471 1.141916,0 2.067207,-0.925278 2.067207,-2.067206 0,-1.141928 -0.925291,-2.067207 -2.067207,-2.067207 -0.58938,0 -1.118997,0.24302 -1.495906,0.638955 -0.159611,0.167665 -0.436822,0.366501 -0.736677,0.541232 0.140641,-0.53204 0.585524,-1.201734 0.894536,-1.495906 0.395935,-0.376914 0.638955,-0.906519 0.638955,-1.495905 0,-1.141928 -0.925278,-2.067207 -2.067206,-2.067207 z"
     id="use2370"
     sodipodi:nodetypes="csscsssssccccssssscssc" /><use
     x="0"
     y="0"
     xlink:href="#path2242"
     id="use2597"
     transform="matrix(1,0,0,-1,0,242.64527)"
     width="167.08643"
     height="242.66748"
     style="stroke-width:1.005" /><path
     sodipodi:nodetypes="csscsssssccccssssscssc"
     id="path2841"
     d="m 118.33305,12.946052 c -3.79776,0 -6.875,3.07724 -6.875,6.875 0,1.96016 0.83323,3.721476 2.15,4.974996 1.01755,0.96866 2.46717,3.16423 2.95,4.925 -0.94182,-0.56759 -1.79018,-1.21446 -2.3,-1.75 -1.25352,-1.31678 -3.01485,-2.125 -4.975,-2.125 -3.79776,0 -6.875,3.07724 -6.875,6.875 0,3.79776 3.07724,6.875 6.875,6.875 1.96016,0 3.72148,-0.83322 4.975,-2.15 0.53755,-0.56469 1.44627,-1.2792 2.45,-1.875 -0.14079,6.30515 -2.3047,10.425 -6.25,10.425 0,0 15.775,0 15.775,0 -3.95581,0 -6.14477,-4.14143 -6.275,-10.475 1.05816,0.60735 2.04176,1.33858 2.6,1.925 1.25351,1.31678 3.01487,2.15 4.975,2.15 3.79772,0 6.875,-3.07724 6.875,-6.875 0,-3.79776 -3.07728,-6.875 -6.875,-6.875 -1.96013,0 -3.72149,0.80822 -4.975,2.125 -0.53082,0.55761 -1.45276,1.21889 -2.45,1.8 0.46774,-1.76943 1.94731,-3.99666 2.975,-4.975 1.31678,-1.25352 2.125,-3.014846 2.125,-4.974996 0,-3.79776 -3.07724,-6.875 -6.875,-6.875 z"
     style="fill:#000000;fill-opacity:1;stroke:none;stroke-width:1.5075;stroke-linecap:round;stroke-linejoin:round;stroke-miterlimit:4;stroke-opacity:1" /><path
     style="fill:#000000;fill-opacity:1;stroke:none;stroke-width:1.5075;stroke-linecap:round;stroke-linejoin:round;stroke-miterlimit:4;stroke-opacity:1"
     d="m 47.662646,12.94605 c -3.79776,0 -6.875001,3.07724 -6.874999,6.875 0,1.96016 0.833224,3.72148 2.149999,4.975 1.017544,0.96866 2.467168,3.16423 2.95,4.925 -0.941824,-0.56759 -1.790184,-1.21446 -2.3,-1.75 -1.253521,-1.31678 -3.014848,-2.125 -4.975,-2.125 -3.797761,0 -6.875,3.07724 -6.875,6.875 0,3.79776 3.077241,6.875 6.875,6.875 1.96016,0 3.72148,-0.83322 4.975,-2.15 0.537552,-0.56469 1.446272,-1.2792 2.45,-1.875 -0.140792,6.30515 -2.304704,10.425 -6.249999,10.425 0,0 15.774999,0 15.774999,0 -3.955808,0 -6.144768,-4.14143 -6.275,-10.475 1.05816,0.60735 2.04176,1.33858 2.6,1.925 1.253504,1.31678 3.014864,2.15 4.975,2.15 3.79772,0 6.875,-3.07724 6.875,-6.875 0,-3.79776 -3.07728,-6.875 -6.875,-6.875 -1.960128,0 -3.721496,0.80822 -4.975,2.125 -0.530824,0.55761 -1.45276,1.21889 -2.45,1.8 0.467736,-1.76943 1.947304,-3.99666 2.975,-4.975 1.316776,-1.25352 2.125,-3.01485 2.125,-4.975 0,-3.79776 -3.07724,-6.875 -6.875,-6.875 z"
     id="path2242"
     sodipodi:nodetypes="csscsssssccccssssscssc" /><use
     x="0"
     y="0"
     xlink:href="#path2242"
     id="use3293"
     transform="translate(0,91.86269)"
     width="167.08643"
     height="242.66748"
     style="stroke-width:1.005" /><use
     x="0"
     y="0"
     xlink:href="#path2841"
     id="use3214"
     transform="matrix(1,0,0,-1,0,242.64527)"
     width="167.08643"
     height="242.66748"
     style="stroke-width:1.005" /><use
     height="242.66748"
     width="167.08643"
     transform="translate(70.670404,91.86269)"
     id="use4073"
     xlink:href="#path2242"
     y="0"
     x="0"
     style="stroke-width:1.005" /><use
     x="0"
     y="0"
     xlink:href="#path2242"
     id="use4423"
     transform="translate(35.805569,45.931345)"
     width="167.08643"
     height="242.66748"
     style="stroke-width:1.005" /><use
     height="242.66748"
     width="167.08643"
     transform="matrix(1,0,0,-1,35.805569,196.72503)"
     id="use4928"
     xlink:href="#path2242"
     y="0"
     x="0"
     style="stroke-width:1.005" /></g></svg>
