<?xml version="1.0" encoding="UTF-8" standalone="no"?>
<!-- Generator: Adobe Illustrator 9.0, SVG Export Plug-In  -->

<!-- This set of SVG files is a complete cards game with figures, numbers	-->

<!--    and backs of cards completely designed in SVG.				-->

<!--    									-->

<!--    Copyright (C) 2004 David Bellot						-->

<!--										-->

<!--    This library is free software; you can redistribute it and/or		-->

<!--    modify it under the terms of the GNU Lesser General Public		-->

<!--    License as published by the Free Software Foundation; either		-->

<!--    version 2 of the License, or (at your option) any later version		-->

<!--										-->

<!--    This library is distributed in the hope that it will be useful,		-->

<!--    but WITHOUT ANY WARRANTY; without even the implied warranty of		-->

<!--    MERCHANTABILITY or FITNESS FOR A PARTICULAR PURPOSE.  See the GNU	-->

<!--    Lesser General Public License for more details.				-->

<!--										-->

<!--    You should have received a copy of the GNU Lesser General Public	-->

<!--    License along with this library; if not, write to the Free Software	-->

<!--    Foundation, Inc., 59 Temple Place, Suite 330, Boston, MA 02111-1307  USA-->

<!--										-->

<!--    Contact the author David Bellot at bellot@stat.berkeley.edu or 		-->

<!--    david.bellot@free.fr or yimyom@users.sourceforge.net			-->

<svg
   width="208.00002"
   height="300"
   viewBox="0 0 167.08644 240.26483"
   xml:space="preserve"
   id="svg2"
   sodipodi:version="0.32"
   inkscape:version="1.1 (c4e8f9e, 2021-05-24)"
   sodipodi:docname="diamonds-1.svg"
   inkscape:output_extension="org.inkscape.output.svg.inkscape"
   version="1.0"
   inkscape:export-filename="/home/damien/dev/perso/tabulous/apps/web/public/images/klondike/clubs-13.png"
   inkscape:export-xdpi="83.199997"
   inkscape:export-ydpi="83.199997"
   xmlns:inkscape="http://www.inkscape.org/namespaces/inkscape"
   xmlns:sodipodi="http://sodipodi.sourceforge.net/DTD/sodipodi-0.dtd"
   xmlns:xlink="http://www.w3.org/1999/xlink"
   xmlns="http://www.w3.org/2000/svg"
   xmlns:svg="http://www.w3.org/2000/svg"
   xmlns:rdf="http://www.w3.org/1999/02/22-rdf-syntax-ns#"
   xmlns:cc="http://creativecommons.org/ns#"
   xmlns:dc="http://purl.org/dc/elements/1.1/"><metadata
   id="metadata90"><rdf:RDF><cc:Work
       rdf:about=""><dc:format>image/svg+xml</dc:format><dc:type
         rdf:resource="http://purl.org/dc/dcmitype/StillImage" /></cc:Work></rdf:RDF></metadata><defs
   id="defs88">
		
		
		
		
		
		
	</defs><sodipodi:namedview
   inkscape:window-height="1053"
   inkscape:window-width="1866"
   inkscape:pageshadow="2"
   inkscape:pageopacity="0.0"
   guidetolerance="10.0"
   gridtolerance="10.0"
   objecttolerance="10.0"
   borderopacity="1.0"
   bordercolor="#666666"
   pagecolor="#ffffff"
   id="base"
   inkscape:zoom="2.1201923"
   inkscape:cx="-143.85488"
   inkscape:cy="59.900227"
   inkscape:window-x="54"
   inkscape:window-y="-10"
   inkscape:current-layer="svg2"
   inkscape:showpageshadow="false"
   width="208px"
   height="303px"
   inkscape:pagecheckerboard="0"
   showgrid="false"
   fit-margin-top="0"
   fit-margin-left="0"
   fit-margin-right="0"
   fit-margin-bottom="0"
   inkscape:window-maximized="1"
   showguides="false" />
	
<path
   id="path5"
   d="m 166.83643,233.5549 c 0,3.75409 -3.08593,6.82253 -6.87011,6.82253 H 7.11133 C 3.33595,240.37743 0.25,237.30899 0.25,233.5549 V 6.7099233 c 0,-3.748755 3.08594,-6.82252999 6.86133,-6.82252999 h 152.85499 c 3.78418,0 6.87012,3.07377499 6.87012,6.82252999 z"
   style="fill:#ffffff;fill-rule:nonzero;stroke:#000000;stroke-width:0.5;stroke-miterlimit:4" /><g
   style="fill:#e61408;fill-opacity:1;fill-rule:nonzero;stroke:#000000;stroke-width:1.005;stroke-miterlimit:4"
   id="g2192"
   transform="matrix(1,0,0,0.99007864,0.99402,0.21796831)">
			<path
   style="fill:#e61408;fill-opacity:1;stroke:none;stroke-width:1.01002"
   d="m 10.987793,25.827148 v -1.46875 h 0.661621 L 14.682129,7.7958984 h 1.280762 l 3.044921,16.5624996 h 0.761231 v 1.46875 h -3.77002 v -1.46875 h 0.785645 l -0.664551,-3.6875 h -3.020996 l -0.676269,3.6875 h 0.966308 v 1.46875 z m 2.377441,-6.625 h 2.48877 l -1.232422,-6.884765 z"
   id="path2194" />
		</g><g
   style="fill:#e61408;fill-opacity:1;fill-rule:nonzero;stroke:#000000;stroke-width:1.005;stroke-miterlimit:4"
   id="g2196"
   transform="matrix(1,0,0,0.99007864,-0.40612,0.21748331)">
			<path
   style="fill:#e61408;fill-opacity:1;stroke:none;stroke-width:1.01002"
   d="m 155.51074,216.40918 v 1.46875 h -0.66113 l -3.0332,16.5625 h -1.28125 l -3.04493,-16.5625 h -0.76074 v -1.46875 H 150.5 v 1.46875 h -0.78613 l 0.66504,3.6875 h 3.0205 l 0.67676,-3.6875 h -0.96679 v -1.46875 z m -2.37793,6.625 h -2.48828 l 1.23242,6.88477 z"
   id="path2198" />
		</g><path
   style="fill:#e61408;fill-opacity:1;stroke:none;stroke-width:1.5;stroke-linecap:round;stroke-linejoin:round;stroke-miterlimit:4;stroke-dasharray:none;stroke-opacity:1"
   d="m 83.54321,104.42647 c -0.0261,0.88693 -0.55774,4.2131 -6.35109,9.71794 -5.57566,5.29803 -8.17932,5.93405 -8.9618,5.98984 0.78248,0.0557 3.38614,0.69182 8.96181,5.98983 5.79335,5.50484 6.32498,8.831 6.35109,9.71794 0.0261,-0.88693 0.55774,-4.21309 6.3511,-9.71794 5.57566,-5.29802 8.17931,-5.93406 8.96181,-5.98983 -0.7825,-0.0557 -3.38615,-0.69182 -8.96181,-5.98984 -5.79336,-5.50483 -6.32498,-8.831 -6.35111,-9.71794 z"
   id="path2243" /><path
   id="path3230"
   d="m 16.37245,29.231764 c -0.008,0.266683 -0.1677,1.266811 -1.90968,2.922034 -1.67651,1.593036 -2.45939,1.784276 -2.69468,1.801052 0.23529,0.01677 1.01817,0.208018 2.69468,1.801049 1.74198,1.655222 1.90183,2.655347 1.90968,2.922034 0.008,-0.266684 0.16772,-1.266809 1.90967,-2.922034 1.67652,-1.593034 2.4594,-1.784279 2.69469,-1.801049 -0.23528,-0.01677 -1.01817,-0.208019 -2.69469,-1.801052 -1.74195,-1.65522 -1.90181,-2.655348 -1.90967,-2.922034 z"
   style="fill:#e61408;fill-opacity:1;stroke:none;stroke-width:1.5;stroke-linecap:round;stroke-linejoin:round;stroke-miterlimit:4;stroke-dasharray:none;stroke-opacity:1" /><use
   x="0"
   y="0"
   xlink:href="#path3230"
   id="use3238"
   transform="translate(134.34155,172.05638)"
   width="167.08643"
   height="242.66748"
   style="stroke-width:1.005" /></svg>
