<?xml version="1.0" encoding="UTF-8" standalone="no"?>
<!-- Generator: Adobe Illustrator 9.0, SVG Export Plug-In  -->

<!-- This set of SVG files is a complete cards game with figures, numbers	-->

<!--    and backs of cards completely designed in SVG.				-->

<!--    									-->

<!--    Copyright (C) 2004 David Bellot						-->

<!--										-->

<!--    This library is free software; you can redistribute it and/or		-->

<!--    modify it under the terms of the GNU Lesser General Public		-->

<!--    License as published by the Free Software Foundation; either		-->

<!--    version 2 of the License, or (at your option) any later version		-->

<!--										-->

<!--    This library is distributed in the hope that it will be useful,		-->

<!--    but WITHOUT ANY WARRANTY; without even the implied warranty of		-->

<!--    MERCHANTABILITY or FITNESS FOR A PARTICULAR PURPOSE.  See the GNU	-->

<!--    Lesser General Public License for more details.				-->

<!--										-->

<!--    You should have received a copy of the GNU Lesser General Public	-->

<!--    License along with this library; if not, write to the Free Software	-->

<!--    Foundation, Inc., 59 Temple Place, Suite 330, Boston, MA 02111-1307  USA-->

<!--										-->

<!--    Contact the author David Bellot at bellot@stat.berkeley.edu or 		-->

<!--    david.bellot@free.fr or yimyom@users.sourceforge.net			-->

<svg
   width="207.99998"
   height="300"
   viewBox="0 0 167.08642 240.26483"
   xml:space="preserve"
   id="svg2"
   sodipodi:version="0.32"
   inkscape:version="1.1 (c4e8f9e, 2021-05-24)"
   sodipodi:docname="diamonds-6.svg"
   inkscape:output_extension="org.inkscape.output.svg.inkscape"
   version="1.0"
   inkscape:export-filename="/home/damien/dev/perso/tabulous/apps/web/public/images/klondike/diamonds-6.png"
   inkscape:export-xdpi="83.199997"
   inkscape:export-ydpi="83.199997"
   xmlns:inkscape="http://www.inkscape.org/namespaces/inkscape"
   xmlns:sodipodi="http://sodipodi.sourceforge.net/DTD/sodipodi-0.dtd"
   xmlns:xlink="http://www.w3.org/1999/xlink"
   xmlns="http://www.w3.org/2000/svg"
   xmlns:svg="http://www.w3.org/2000/svg"
   xmlns:rdf="http://www.w3.org/1999/02/22-rdf-syntax-ns#"
   xmlns:cc="http://creativecommons.org/ns#"
   xmlns:dc="http://purl.org/dc/elements/1.1/"><metadata
   id="metadata90"><rdf:RDF><cc:Work
       rdf:about=""><dc:format>image/svg+xml</dc:format><dc:type
         rdf:resource="http://purl.org/dc/dcmitype/StillImage" /></cc:Work></rdf:RDF></metadata><defs
   id="defs88">
		
		
		
		
		
		
	</defs><sodipodi:namedview
   inkscape:window-height="1053"
   inkscape:window-width="1866"
   inkscape:pageshadow="2"
   inkscape:pageopacity="0.0"
   guidetolerance="10.0"
   gridtolerance="10.0"
   objecttolerance="10.0"
   borderopacity="1.0"
   bordercolor="#666666"
   pagecolor="#ffffff"
   id="base"
   inkscape:zoom="2.1201923"
   inkscape:cx="-143.85488"
   inkscape:cy="135.36508"
   inkscape:window-x="54"
   inkscape:window-y="-10"
   inkscape:current-layer="svg2"
   inkscape:showpageshadow="false"
   width="208px"
   height="303px"
   inkscape:pagecheckerboard="0"
   showgrid="false"
   fit-margin-top="0"
   fit-margin-left="0"
   fit-margin-right="0"
   fit-margin-bottom="0"
   inkscape:window-maximized="1"
   showguides="false" />
	
<g
   id="g37129"
   transform="matrix(0.999985,0,0,0.99008886,0.00124998,0.00123128)"
   style="stroke-width:1.005"><path
     id="path5"
     d="m 166.83643,235.89281 c 0,3.79171 -3.08594,6.8909 -6.87011,6.8909 H 7.1113279 C 3.3359375,242.78371 0.25,239.68452 0.25,235.89281 V 6.7746664 c 0,-3.78632 3.0859375,-6.89089651 6.8613279,-6.89089651 H 159.96632 c 3.78417,0 6.87011,3.10457651 6.87011,6.89089651 z"
     style="fill:#ffffff;fill-rule:nonzero;stroke:#000000;stroke-width:0.5025;stroke-miterlimit:4" /><g
     style="fill:#e61408;fill-opacity:1;fill-rule:nonzero;stroke:#000000;stroke-width:1.005;stroke-miterlimit:4"
     id="g3809"
     transform="translate(1.3636509,-0.1274412)">
			<path
   style="fill:#e61408;fill-opacity:1;stroke:none;stroke-width:1.005"
   d="m 13.836914,15.286133 c 0.240723,-0.418945 0.503906,-0.73291 0.789063,-0.942383 0.285156,-0.208984 0.600586,-0.313965 0.946289,-0.313965 0.819336,0 1.464355,0.540528 1.93457,1.620606 0.469727,1.080566 0.705078,2.564453 0.705078,4.451172 0,1.991699 -0.266113,3.529785 -0.797851,4.614257 -0.532227,1.084473 -1.285645,1.626465 -2.260254,1.626465 -1.096192,0 -1.928223,-0.743164 -2.496094,-2.229492 -0.56836,-1.486328 -0.852051,-3.671387 -0.852051,-6.555664 0,-3.278809 0.313477,-5.753906 0.94043,-7.425781 0.626953,-1.6718754 1.559082,-2.5078129 2.797363,-2.5078129 0.321289,0 0.666992,0.060059 1.037109,0.1796875 0.369629,0.1201172 0.767579,0.2998047 1.193848,0.5390625 v 3.1874999 h -0.65625 C 17.030273,10.708496 16.860352,10.086914 16.608887,9.6640624 16.357422,9.2412108 16.036133,9.0297851 15.64502,9.0297851 c -0.63086,0 -1.087891,0.4912109 -1.371094,1.4736329 -0.283203,0.982422 -0.429199,2.57666 -0.437012,4.782715 z m 1.1875,9.649902 c 0.37207,0 0.636719,-0.353027 0.794434,-1.05957 0.157715,-0.706055 0.236816,-1.931152 0.236816,-3.674805 0,-1.743164 -0.0791,-2.968261 -0.236816,-3.674804 -0.157715,-0.706055 -0.422364,-1.059571 -0.794434,-1.059571 -0.37207,0 -0.637207,0.353516 -0.794922,1.059571 -0.157715,0.706543 -0.236328,1.93164 -0.236328,3.674804 0,1.743653 0.07861,2.96875 0.236328,3.674805 0.157715,0.706543 0.422852,1.05957 0.794922,1.05957 z"
   id="path3811" />
		</g><g
     style="fill:#e61408;fill-opacity:1;fill-rule:nonzero;stroke:#000000;stroke-width:1.005;stroke-miterlimit:4"
     id="g3813"
     transform="translate(-0.8494849,0.2172862)">
			<path
   style="fill:#e61408;fill-opacity:1;stroke:none;stroke-width:1.005"
   d="m 152.73535,227.29199 c -0.24121,0.41895 -0.5039,0.73242 -0.78906,0.94239 -0.28516,0.20898 -0.60156,0.31347 -0.94727,0.31347 -0.81836,0 -1.46386,-0.54004 -1.93359,-1.62012 -0.4707,-1.08105 -0.70508,-2.56445 -0.70508,-4.45117 0,-1.99121 0.26563,-3.53027 0.79688,-4.61426 0.5332,-1.08398 1.28613,-1.62695 2.26074,-1.62695 1.09668,0 1.92871,0.74414 2.49609,2.23047 0.56836,1.48633 0.85254,3.6709 0.85254,6.55469 0,3.27929 -0.31445,5.7539 -0.9414,7.42578 -0.62696,1.67187 -1.5586,2.50781 -2.79688,2.50781 -0.32129,0 -0.66699,-0.0596 -1.03711,-0.17969 -0.36914,-0.11914 -0.76758,-0.29882 -1.19336,-0.53906 v -3.1875 h 0.65625 c 0.0879,0.82227 0.25781,1.44336 0.50879,1.86621 0.25098,0.42285 0.57324,0.63379 0.96387,0.63379 0.63086,0 1.08789,-0.49023 1.37109,-1.47265 0.2832,-0.98243 0.42969,-2.57715 0.4375,-4.78321 z m -1.1875,-9.65039 c -0.37305,0 -0.63672,0.35352 -0.79492,1.06055 -0.1582,0.70508 -0.23633,1.93066 -0.23633,3.67383 0,1.74414 0.0781,2.96875 0.23633,3.67578 0.1582,0.70508 0.42187,1.05859 0.79492,1.05859 0.3711,0 0.63672,-0.35351 0.79492,-1.05859 0.15723,-0.70703 0.23633,-1.93164 0.23633,-3.67578 0,-1.74317 -0.0791,-2.96875 -0.23633,-3.67383 -0.1582,-0.70703 -0.42382,-1.06055 -0.79492,-1.06055 z"
   id="path3815" />
		</g><path
     style="fill:#e61408;fill-opacity:1;stroke:none;stroke-width:1.5075;stroke-linecap:round;stroke-linejoin:round;stroke-miterlimit:4;stroke-dasharray:none;stroke-opacity:1"
     d="m 47.737644,13.605875 c -0.02612,0.89581 -0.557747,4.25531 -6.351091,9.81532 -5.575664,5.35112 -8.179324,5.99351 -8.961813,6.04986 0.782489,0.05634 3.386149,0.69875 8.961813,6.04985 5.793344,5.56001 6.324976,8.9195 6.351091,9.81532 0.02612,-0.89581 0.557749,-4.2553 6.351091,-9.81532 5.575672,-5.35111 8.179323,-5.99352 8.961817,-6.04985 -0.782494,-0.05634 -3.386143,-0.69875 -8.961817,-6.04986 -5.793342,-5.56 -6.324969,-8.9195 -6.351091,-9.81532 z"
     id="path2243" /><path
     id="path3230"
     d="m 16.37244,29.520358 c -0.0079,0.269356 -0.16771,1.279506 -1.90968,2.951315 -1.67651,1.609 -2.45939,1.802156 -2.69468,1.8191 0.23529,0.01694 1.01817,0.210103 2.69468,1.819097 1.74197,1.671809 1.90183,2.681956 1.90968,2.951315 0.0078,-0.269356 0.16771,-1.279503 1.90967,-2.951315 1.67652,-1.608997 2.4594,-1.802159 2.69469,-1.819097 -0.23529,-0.01694 -1.01817,-0.210103 -2.69469,-1.8191 -1.74196,-1.671806 -1.90182,-2.681956 -1.90967,-2.951315 z"
     style="fill:#e61408;fill-opacity:1;stroke:none;stroke-width:1.5075;stroke-linecap:round;stroke-linejoin:round;stroke-miterlimit:4;stroke-dasharray:none;stroke-opacity:1" /><use
     x="0"
     y="0"
     xlink:href="#path3230"
     id="use3238"
     transform="translate(134.34155,173.78052)"
     width="167.08643"
     height="242.66748"
     style="stroke-width:1.005" /><use
     x="0"
     y="0"
     xlink:href="#path2243"
     id="use2197"
     transform="translate(70.6704)"
     width="167.08643"
     height="242.66748"
     style="stroke-width:1.005" /><use
     x="0"
     y="0"
     xlink:href="#use2197"
     id="use2199"
     transform="translate(-70.670404,91.86269)"
     width="167.08643"
     height="242.66748"
     style="stroke-width:1.005" /><use
     x="0"
     y="0"
     xlink:href="#use2199"
     id="use2201"
     transform="translate(70.6704)"
     width="167.08643"
     height="242.66748"
     style="stroke-width:1.005" /><use
     x="0"
     y="0"
     xlink:href="#use2201"
     id="use2203"
     transform="translate(-70.670404,91.84048)"
     width="167.08643"
     height="242.66748"
     style="stroke-width:1.005" /><use
     x="0"
     y="0"
     xlink:href="#use2203"
     id="use2205"
     transform="translate(70.6704)"
     width="167.08643"
     height="242.66748"
     style="stroke-width:1.005" /></g></svg>
