<?xml version="1.0" encoding="UTF-8" standalone="no"?>
<!-- Generator: Adobe Illustrator 9.0, SVG Export Plug-In  -->

<!-- This set of SVG files is a complete cards game with figures, numbers	-->

<!--    and backs of cards completely designed in SVG.				-->

<!--    									-->

<!--    Copyright (C) 2004 David Bellot						-->

<!--										-->

<!--    This library is free software; you can redistribute it and/or		-->

<!--    modify it under the terms of the GNU Lesser General Public		-->

<!--    License as published by the Free Software Foundation; either		-->

<!--    version 2 of the License, or (at your option) any later version		-->

<!--										-->

<!--    This library is distributed in the hope that it will be useful,		-->

<!--    but WITHOUT ANY WARRANTY; without even the implied warranty of		-->

<!--    MERCHANTABILITY or FITNESS FOR A PARTICULAR PURPOSE.  See the GNU	-->

<!--    Lesser General Public License for more details.				-->

<!--										-->

<!--    You should have received a copy of the GNU Lesser General Public	-->

<!--    License along with this library; if not, write to the Free Software	-->

<!--    Foundation, Inc., 59 Temple Place, Suite 330, Boston, MA 02111-1307  USA-->

<!--										-->

<!--    Contact the author David Bellot at bellot@stat.berkeley.edu or 		-->

<!--    david.bellot@free.fr or yimyom@users.sourceforge.net			-->

<svg
   width="207.99998"
   height="300"
   viewBox="0 0 167.08642 240.26483"
   xml:space="preserve"
   id="svg2"
   sodipodi:version="0.32"
   inkscape:version="1.1 (c4e8f9e, 2021-05-24)"
   sodipodi:docname="hearts-8.svg"
   inkscape:output_extension="org.inkscape.output.svg.inkscape"
   version="1.0"
   inkscape:export-filename="/home/damien/dev/perso/tabulous/apps/web/public/images/klondike/hearts-8.png"
   inkscape:export-xdpi="83.199997"
   inkscape:export-ydpi="83.199997"
   xmlns:inkscape="http://www.inkscape.org/namespaces/inkscape"
   xmlns:sodipodi="http://sodipodi.sourceforge.net/DTD/sodipodi-0.dtd"
   xmlns:xlink="http://www.w3.org/1999/xlink"
   xmlns="http://www.w3.org/2000/svg"
   xmlns:svg="http://www.w3.org/2000/svg"
   xmlns:rdf="http://www.w3.org/1999/02/22-rdf-syntax-ns#"
   xmlns:cc="http://creativecommons.org/ns#"
   xmlns:dc="http://purl.org/dc/elements/1.1/"><metadata
   id="metadata90"><rdf:RDF><cc:Work
       rdf:about=""><dc:format>image/svg+xml</dc:format><dc:type
         rdf:resource="http://purl.org/dc/dcmitype/StillImage" /></cc:Work></rdf:RDF></metadata><defs
   id="defs88">
		
		
		
		
		
		
	</defs><sodipodi:namedview
   inkscape:window-height="1053"
   inkscape:window-width="1866"
   inkscape:pageshadow="2"
   inkscape:pageopacity="0.0"
   guidetolerance="10.0"
   gridtolerance="10.0"
   objecttolerance="10.0"
   borderopacity="1.0"
   bordercolor="#666666"
   pagecolor="#ffffff"
   id="base"
   inkscape:zoom="2.1201923"
   inkscape:cx="-87.256236"
   inkscape:cy="152.81633"
   inkscape:window-x="54"
   inkscape:window-y="-10"
   inkscape:current-layer="svg2"
   inkscape:showpageshadow="false"
   width="208px"
   height="303px"
   inkscape:pagecheckerboard="0"
   showgrid="false"
   fit-margin-top="0"
   fit-margin-left="0"
   fit-margin-right="0"
   fit-margin-bottom="0"
   inkscape:window-maximized="1"
   showguides="false" />
	
<g
   id="g69369"
   transform="matrix(0.999985,0,0,0.99008886,0.00124998,0.00123128)"
   style="stroke-width:1.005"><path
     id="path5"
     d="m 166.83643,235.89281 c 0,3.79171 -3.08594,6.8909 -6.87011,6.8909 H 7.1113279 C 3.3359375,242.78371 0.25,239.68452 0.25,235.89281 V 6.7746664 c 0,-3.78632 3.0859375,-6.89089651 6.8613279,-6.89089651 H 159.96632 c 3.78417,0 6.87011,3.10457651 6.87011,6.89089651 z"
     style="fill:#ffffff;fill-rule:nonzero;stroke:#000000;stroke-width:0.5025;stroke-miterlimit:4" /><g
     style="fill:#e61408;fill-opacity:1;fill-rule:nonzero;stroke:#000000;stroke-width:1.005;stroke-miterlimit:4"
     id="g4741"
     transform="translate(1.5037879,0.03808595)">
			<path
   style="fill:#e61408;fill-opacity:1;stroke:none;stroke-width:1.005"
   d="m 16.158203,16.205566 c 0.646485,0.234375 1.137207,0.762696 1.472656,1.58545 0.33545,0.822753 0.503418,1.899902 0.503418,3.230957 0,1.662109 -0.280273,2.936523 -0.84082,3.82373 -0.560547,0.887695 -1.368652,1.331055 -2.424805,1.331055 -1.05664,0 -1.864746,-0.44336 -2.425293,-1.331055 -0.560546,-0.887207 -0.840332,-2.161621 -0.840332,-3.82373 0,-1.331055 0.166016,-2.408204 0.498536,-3.230957 0.332519,-0.822754 0.815429,-1.351075 1.448242,-1.58545 -0.555176,-0.28955 -0.97168,-0.774414 -1.249024,-1.454101 -0.277832,-0.679688 -0.416503,-1.541992 -0.416503,-2.587891 0,-1.52832 0.254394,-2.6943357 0.76416,-3.4990232 0.509277,-0.8041992 1.249511,-1.206543 2.220215,-1.206543 0.962402,0 1.700195,0.4023438 2.213867,1.206543 0.513672,0.8046875 0.770508,1.9707032 0.770508,3.4990232 0,1.045899 -0.140625,1.908203 -0.420899,2.587891 -0.280273,0.679687 -0.705078,1.164551 -1.273926,1.454101 z m -0.180176,4.612793 c 0,-1.479003 -0.0835,-2.497558 -0.249511,-3.055175 -0.166016,-0.557618 -0.456055,-0.836426 -0.869629,-0.836426 -0.413574,0 -0.705567,0.278808 -0.875489,0.836426 -0.17041,0.557617 -0.255371,1.576171 -0.255371,3.055175 0,1.495118 0.08496,2.527832 0.255371,3.097657 0.169922,0.569824 0.461915,0.854492 0.875489,0.854492 0.405273,0 0.693359,-0.284668 0.863769,-0.854492 0.169922,-0.569824 0.255371,-1.602539 0.255371,-3.097657 z m -0.21875,-8.60791 c 0,-1.272461 -0.06738,-2.147949 -0.202148,-2.6274412 -0.134766,-0.4790039 -0.364258,-0.71875 -0.688477,-0.71875 -0.332519,0 -0.563964,0.2397461 -0.694824,0.71875 -0.130859,0.4794922 -0.195801,1.3549802 -0.195801,2.6274412 0,1.264649 0.06494,2.132324 0.195801,2.603516 0.13086,0.471191 0.362305,0.706543 0.694824,0.706543 0.324219,0 0.553711,-0.235352 0.688477,-0.706543 0.134766,-0.471192 0.202148,-1.338867 0.202148,-2.603516 z"
   id="path4743" />
		</g><g
     style="fill:#e61408;fill-opacity:1;fill-rule:nonzero;stroke:#000000;stroke-width:1.005;stroke-miterlimit:4"
     id="g4745"
     transform="translate(-0.8338649,0.3828162)">
			<path
   style="fill:#e61408;fill-opacity:1;stroke:none;stroke-width:1.005"
   d="m 150.25879,226.0415 c -0.64649,-0.23437 -1.1377,-0.76269 -1.47266,-1.58496 -0.33593,-0.82324 -0.5039,-1.90039 -0.5039,-3.23144 0,-1.66211 0.28027,-2.93653 0.84082,-3.82324 0.56054,-0.88868 1.36816,-1.33204 2.4248,-1.33204 1.05664,0 1.86524,0.44336 2.42578,1.33204 0.56055,0.88671 0.83985,2.16113 0.83985,3.82324 0,1.33105 -0.16602,2.4082 -0.49805,3.23144 -0.33301,0.82227 -0.81641,1.35059 -1.44922,1.58496 0.55567,0.29004 0.97266,0.77442 1.25,1.45411 0.27734,0.67968 0.41602,1.54199 0.41602,2.58789 0,1.52832 -0.25391,2.69433 -0.76368,3.49902 -0.50976,0.80371 -1.25,1.20605 -2.2207,1.20605 -0.96289,0 -1.70019,-0.40234 -2.21387,-1.20605 -0.51367,-0.80469 -0.7705,-1.9707 -0.7705,-3.49902 0,-1.0459 0.14062,-1.90821 0.42089,-2.58789 0.28028,-0.67969 0.70508,-1.16407 1.27442,-1.45411 z m 0.17969,-4.6123 c 0,1.47851 0.084,2.49707 0.25,3.05469 0.16601,0.55761 0.45507,0.83593 0.86914,0.83593 0.41406,0 0.70508,-0.27832 0.875,-0.83593 0.1709,-0.55762 0.25586,-1.57618 0.25586,-3.05469 0,-1.49609 -0.085,-2.52832 -0.25586,-3.09766 -0.16992,-0.57031 -0.46094,-0.85547 -0.875,-0.85547 -0.40528,0 -0.69336,0.28516 -0.86328,0.85547 -0.16993,0.56934 -0.25586,1.60157 -0.25586,3.09766 z m 0.21875,8.60742 c 0,1.27246 0.0674,2.14844 0.20215,2.62695 0.13476,0.4795 0.36425,0.71875 0.68847,0.71875 0.33203,0 0.56445,-0.23925 0.69531,-0.71875 0.13086,-0.47851 0.19532,-1.35449 0.19532,-2.62695 0,-1.26465 -0.0645,-2.13281 -0.19532,-2.60351 -0.13086,-0.47071 -0.36328,-0.70704 -0.69531,-0.70704 -0.32422,0 -0.55371,0.23633 -0.68847,0.70704 -0.13477,0.4707 -0.20215,1.33886 -0.20215,2.60351 z"
   id="path4747" />
		</g><path
     style="fill:#e61408;fill-rule:nonzero;stroke:none;stroke-width:1.005;stroke-miterlimit:4"
     d="m 39.867818,13.329748 c -4.307617,0.0093 -7.810455,3.69115 -7.781975,8.20872 0.0604,9.5796 12.092379,16.50751 15.639254,24.0739 3.546875,-7.56639 15.603962,-14.4943 15.664352,-24.0739 0.02848,-4.51757 -3.474354,-8.19945 -7.78197,-8.20872 -4.307616,-0.0088 -7.86969,3.65725 -7.882382,8.18362 -0.01269,-4.52637 -3.549663,-8.19242 -7.857279,-8.18362 z"
     id="path2170" /><path
     id="path2225"
     d="m 14.006095,29.437331 c -1.29523,0.0028 -2.34848,1.109872 -2.33991,2.468235 0.01815,2.880439 3.63599,4.963554 4.70248,7.238651 1.06649,-2.275097 4.69187,-4.358212 4.71003,-7.238651 0.0086,-1.358363 -1.04469,-2.465448 -2.33992,-2.468235 -1.29524,-0.0026 -2.3663,1.099678 -2.37011,2.460688 -0.0038,-1.36101 -1.06733,-2.463334 -2.36257,-2.460688 z"
     style="fill:#e61408;fill-rule:nonzero;stroke:none;stroke-width:1.005;stroke-miterlimit:4" /><use
     x="0"
     y="0"
     xlink:href="#path2225"
     id="use2231"
     transform="matrix(1,0,0,-1,134.34155,242.36206)"
     width="167.08643"
     height="242.66748"
     style="stroke-width:1.005" /><use
     x="0"
     y="0"
     xlink:href="#path2170"
     id="use2199"
     transform="translate(70.670407)"
     width="167.08643"
     height="242.66748"
     style="stroke-width:1.005" /><use
     x="0"
     y="0"
     xlink:href="#use2199"
     id="use2201"
     transform="translate(-34.864837,45.931345)"
     width="167.08643"
     height="242.66748"
     style="stroke-width:1.005" /><use
     x="0"
     y="0"
     xlink:href="#use2201"
     id="use2203"
     transform="translate(-35.805572,45.931345)"
     width="167.08643"
     height="242.66748"
     style="stroke-width:1.005" /><use
     x="0"
     y="0"
     xlink:href="#use2203"
     id="use2205"
     transform="translate(70.670407)"
     width="167.08643"
     height="242.66748"
     style="stroke-width:1.005" /><use
     x="0"
     y="0"
     xlink:href="#path2170"
     id="use2207"
     transform="matrix(1,0,0,-1,35.805569,196.72503)"
     width="167.08643"
     height="242.66748"
     style="stroke-width:1.005" /><use
     x="0"
     y="0"
     xlink:href="#path2170"
     id="use2209"
     transform="matrix(1,0,0,-1,-1.2116747e-8,242.64527)"
     width="167.08643"
     height="242.66748"
     style="stroke-width:1.005" /><use
     x="0"
     y="0"
     xlink:href="#path2170"
     id="use2211"
     transform="matrix(1,0,0,-1,70.670404,242.64527)"
     width="167.08643"
     height="242.66748"
     style="stroke-width:1.005" /></g></svg>
