<?xml version="1.0" encoding="UTF-8" standalone="no"?>
<!-- Generator: Adobe Illustrator 9.0, SVG Export Plug-In  -->

<!-- This set of SVG files is a complete cards game with figures, numbers	-->

<!--    and backs of cards completely designed in SVG.				-->

<!--    									-->

<!--    Copyright (C) 2004 David Bellot						-->

<!--										-->

<!--    This library is free software; you can redistribute it and/or		-->

<!--    modify it under the terms of the GNU Lesser General Public		-->

<!--    License as published by the Free Software Foundation; either		-->

<!--    version 2 of the License, or (at your option) any later version		-->

<!--										-->

<!--    This library is distributed in the hope that it will be useful,		-->

<!--    but WITHOUT ANY WARRANTY; without even the implied warranty of		-->

<!--    MERCHANTABILITY or FITNESS FOR A PARTICULAR PURPOSE.  See the GNU	-->

<!--    Lesser General Public License for more details.				-->

<!--										-->

<!--    You should have received a copy of the GNU Lesser General Public	-->

<!--    License along with this library; if not, write to the Free Software	-->

<!--    Foundation, Inc., 59 Temple Place, Suite 330, Boston, MA 02111-1307  USA-->

<!--										-->

<!--    Contact the author David Bellot at bellot@stat.berkeley.edu or 		-->

<!--    david.bellot@free.fr or yimyom@users.sourceforge.net			-->

<svg
   width="208"
   height="300"
   viewBox="0 0 167.08643 240.26483"
   xml:space="preserve"
   id="svg2"
   sodipodi:version="0.32"
   inkscape:version="1.1 (c4e8f9e, 2021-05-24)"
   sodipodi:docname="hearts-1.svg"
   inkscape:output_extension="org.inkscape.output.svg.inkscape"
   version="1.0"
   inkscape:export-filename="/home/damien/dev/perso/tabulous/apps/web/public/images/klondike/hearts-1.png"
   inkscape:export-xdpi="83.199997"
   inkscape:export-ydpi="83.199997"
   xmlns:inkscape="http://www.inkscape.org/namespaces/inkscape"
   xmlns:sodipodi="http://sodipodi.sourceforge.net/DTD/sodipodi-0.dtd"
   xmlns:xlink="http://www.w3.org/1999/xlink"
   xmlns="http://www.w3.org/2000/svg"
   xmlns:svg="http://www.w3.org/2000/svg"
   xmlns:rdf="http://www.w3.org/1999/02/22-rdf-syntax-ns#"
   xmlns:cc="http://creativecommons.org/ns#"
   xmlns:dc="http://purl.org/dc/elements/1.1/"><metadata
   id="metadata90"><rdf:RDF><cc:Work
       rdf:about=""><dc:format>image/svg+xml</dc:format><dc:type
         rdf:resource="http://purl.org/dc/dcmitype/StillImage" /></cc:Work></rdf:RDF></metadata><defs
   id="defs88">
		
		
		
		
		
		
	</defs><sodipodi:namedview
   inkscape:window-height="1053"
   inkscape:window-width="1866"
   inkscape:pageshadow="2"
   inkscape:pageopacity="0.0"
   guidetolerance="10.0"
   gridtolerance="10.0"
   objecttolerance="10.0"
   borderopacity="1.0"
   bordercolor="#666666"
   pagecolor="#ffffff"
   id="base"
   inkscape:zoom="2.1201923"
   inkscape:cx="-87.256236"
   inkscape:cy="152.81633"
   inkscape:window-x="54"
   inkscape:window-y="-10"
   inkscape:current-layer="svg2"
   inkscape:showpageshadow="false"
   width="208px"
   height="303px"
   inkscape:pagecheckerboard="0"
   showgrid="false"
   fit-margin-top="0"
   fit-margin-left="0"
   fit-margin-right="0"
   fit-margin-bottom="0"
   inkscape:window-maximized="1"
   showguides="false"
   inkscape:lockguides="true" />
	
<g
   id="g64257"
   transform="translate(-222.38026,15.922113)"><path
     id="path5"
     d="m 389.21669,217.6328 c 0,3.75409 -3.08594,6.82253 -6.87011,6.82253 H 229.49159 c -3.77539,0 -6.86133,-3.06844 -6.86133,-6.82253 V -9.212191 c 0,-3.748755 3.08594,-6.822529 6.86133,-6.822529 h 152.85499 c 3.78417,0 6.87011,3.073774 6.87011,6.822529 z"
     style="fill:#ffffff;fill-rule:nonzero;stroke:#000000;stroke-width:0.5;stroke-miterlimit:4" /><g
     style="fill:#e61408;fill-opacity:1;fill-rule:nonzero;stroke:#000000;stroke-width:1.005;stroke-miterlimit:4"
     id="g2192"
     transform="matrix(1,0,0,0.99007864,223.37428,-15.705963)">
			<path
   style="fill:#e61408;fill-opacity:1;stroke:none;stroke-width:1.01002"
   d="m 10.987793,25.827148 v -1.46875 h 0.661621 L 14.682129,7.7958984 h 1.280762 l 3.044921,16.5624996 h 0.761231 v 1.46875 h -3.77002 v -1.46875 h 0.785645 l -0.664551,-3.6875 h -3.020996 l -0.676269,3.6875 h 0.966308 v 1.46875 z m 2.377441,-6.625 h 2.48877 l -1.232422,-6.884765 z"
   id="path2194" />
		</g><g
     style="fill:#e61408;fill-opacity:1;fill-rule:nonzero;stroke:#000000;stroke-width:1.005;stroke-miterlimit:4"
     id="g2196"
     transform="matrix(1,0,0,0.99007864,221.97414,-15.706448)">
			<path
   style="fill:#e61408;fill-opacity:1;stroke:none;stroke-width:1.01002"
   d="m 155.51074,216.40918 v 1.46875 h -0.66113 l -3.0332,16.5625 h -1.28125 l -3.04493,-16.5625 h -0.76074 v -1.46875 H 150.5 v 1.46875 h -0.78613 l 0.66504,3.6875 h 3.0205 l 0.67676,-3.6875 h -0.96679 v -1.46875 z m -2.37793,6.625 h -2.48828 l 1.23242,6.88477 z"
   id="path2198" />
		</g><path
     style="fill:#e61408;fill-rule:nonzero;stroke:none;stroke-width:1;stroke-miterlimit:4"
     d="m 298.05364,88.229151 c -4.30761,0.009 -7.81045,3.65453 -7.78197,8.12728 0.0604,9.484559 12.09238,16.343739 15.63925,23.835059 3.54688,-7.49132 15.60397,-14.3505 15.66436,-23.835059 0.0285,-4.47275 -3.47436,-8.1181 -7.78197,-8.12728 -4.30762,-0.009 -7.86969,3.62097 -7.88239,8.10243 -0.0127,-4.48146 -3.54966,-8.11114 -7.85728,-8.10243 z"
     id="path2170" /><path
     id="path2225"
     d="m 236.38636,13.22563 c -1.29523,0.0028 -2.34848,1.098861 -2.33991,2.443747 0.0181,2.851861 3.63599,4.914309 4.70248,7.166834 1.06649,-2.252525 4.69187,-4.314973 4.71003,-7.166834 0.009,-1.344886 -1.04469,-2.440987 -2.33992,-2.443747 -1.29524,-0.0026 -2.3663,1.088768 -2.37011,2.436275 -0.004,-1.347507 -1.06733,-2.438894 -2.36257,-2.436275 z"
     style="fill:#e61408;fill-rule:nonzero;stroke:none;stroke-width:1;stroke-miterlimit:4" /><use
     x="0"
     y="0"
     xlink:href="#path2225"
     id="use2231"
     transform="matrix(1,0,0,-1,134.34155,208.11823)"
     width="167.08643"
     height="242.66748"
     style="stroke-width:1.005" /></g></svg>
