<?xml version="1.0" encoding="UTF-8" standalone="no"?>
<!-- Generator: Adobe Illustrator 9.0, SVG Export Plug-In  -->

<!-- This set of SVG files is a complete cards game with figures, numbers	-->

<!--    and backs of cards completely designed in SVG.				-->

<!--    									-->

<!--    Copyright (C) 2004 David Bellot						-->

<!--										-->

<!--    This library is free software; you can redistribute it and/or		-->

<!--    modify it under the terms of the GNU Lesser General Public		-->

<!--    License as published by the Free Software Foundation; either		-->

<!--    version 2 of the License, or (at your option) any later version		-->

<!--										-->

<!--    This library is distributed in the hope that it will be useful,		-->

<!--    but WITHOUT ANY WARRANTY; without even the implied warranty of		-->

<!--    MERCHANTABILITY or FITNESS FOR A PARTICULAR PURPOSE.  See the GNU	-->

<!--    Lesser General Public License for more details.				-->

<!--										-->

<!--    You should have received a copy of the GNU Lesser General Public	-->

<!--    License along with this library; if not, write to the Free Software	-->

<!--    Foundation, Inc., 59 Temple Place, Suite 330, Boston, MA 02111-1307  USA-->

<!--										-->

<!--    Contact the author David Bellot at bellot@stat.berkeley.edu or 		-->

<!--    david.bellot@free.fr or yimyom@users.sourceforge.net			-->

<svg
   width="207.99998"
   height="300"
   viewBox="0 0 167.08642 240.26483"
   xml:space="preserve"
   id="svg2"
   sodipodi:version="0.32"
   inkscape:version="1.1 (c4e8f9e, 2021-05-24)"
   sodipodi:docname="spades-6.svg"
   inkscape:output_extension="org.inkscape.output.svg.inkscape"
   version="1.0"
   inkscape:export-filename="/home/damien/dev/perso/tabulous/apps/web/public/images/klondike/spades-6.png"
   inkscape:export-xdpi="83.199997"
   inkscape:export-ydpi="83.199997"
   xmlns:inkscape="http://www.inkscape.org/namespaces/inkscape"
   xmlns:sodipodi="http://sodipodi.sourceforge.net/DTD/sodipodi-0.dtd"
   xmlns:xlink="http://www.w3.org/1999/xlink"
   xmlns="http://www.w3.org/2000/svg"
   xmlns:svg="http://www.w3.org/2000/svg"
   xmlns:rdf="http://www.w3.org/1999/02/22-rdf-syntax-ns#"
   xmlns:cc="http://creativecommons.org/ns#"
   xmlns:dc="http://purl.org/dc/elements/1.1/"><metadata
   id="metadata90"><rdf:RDF><cc:Work
       rdf:about=""><dc:format>image/svg+xml</dc:format><dc:type
         rdf:resource="http://purl.org/dc/dcmitype/StillImage" /></cc:Work></rdf:RDF></metadata><defs
   id="defs88">
		
		
		
		
		
		
	</defs><sodipodi:namedview
   inkscape:window-height="1053"
   inkscape:window-width="1866"
   inkscape:pageshadow="2"
   inkscape:pageopacity="0.0"
   guidetolerance="10.0"
   gridtolerance="10.0"
   objecttolerance="10.0"
   borderopacity="1.0"
   bordercolor="#666666"
   pagecolor="#ffffff"
   id="base"
   inkscape:zoom="2.1201923"
   inkscape:cx="-143.85488"
   inkscape:cy="175.45578"
   inkscape:window-x="54"
   inkscape:window-y="-10"
   inkscape:current-layer="svg2"
   inkscape:showpageshadow="false"
   width="208px"
   height="303px"
   inkscape:pagecheckerboard="0"
   showgrid="false"
   fit-margin-top="0"
   fit-margin-left="0"
   fit-margin-right="0"
   fit-margin-bottom="0"
   inkscape:window-maximized="1"
   showguides="false" />
	
<g
   id="g52962"
   transform="matrix(0.999985,0,0,0.99008886,0.00124998,0.00123128)"
   style="stroke-width:1.005"><path
     id="path5"
     d="m 166.83643,235.89281 c 0,3.79171 -3.08594,6.8909 -6.87011,6.8909 H 7.1113279 C 3.3359375,242.78371 0.25,239.68452 0.25,235.89281 V 6.7746664 c 0,-3.78632 3.0859375,-6.89089651 6.8613279,-6.89089651 H 159.96632 c 3.78417,0 6.87011,3.10457651 6.87011,6.89089651 z"
     style="fill:#ffffff;fill-rule:nonzero;stroke:#000000;stroke-width:0.5025;stroke-miterlimit:4" /><g
     style="fill-rule:nonzero;stroke:#000000;stroke-width:1.005;stroke-miterlimit:4"
     id="g3809"
     transform="translate(1.3636509,-0.1274412)">
			<path
   style="stroke:none;stroke-width:1.005"
   d="m 13.836914,15.286133 c 0.240723,-0.418945 0.503906,-0.73291 0.789063,-0.942383 0.285156,-0.208984 0.600586,-0.313965 0.946289,-0.313965 0.819336,0 1.464355,0.540528 1.93457,1.620606 0.469727,1.080566 0.705078,2.564453 0.705078,4.451172 0,1.991699 -0.266113,3.529785 -0.797851,4.614257 -0.532227,1.084473 -1.285645,1.626465 -2.260254,1.626465 -1.096192,0 -1.928223,-0.743164 -2.496094,-2.229492 -0.56836,-1.486328 -0.852051,-3.671387 -0.852051,-6.555664 0,-3.278809 0.313477,-5.753906 0.94043,-7.425781 0.626953,-1.6718754 1.559082,-2.5078129 2.797363,-2.5078129 0.321289,0 0.666992,0.060059 1.037109,0.1796875 0.369629,0.1201172 0.767579,0.2998047 1.193848,0.5390625 v 3.1874999 h -0.65625 C 17.030273,10.708496 16.860352,10.086914 16.608887,9.6640624 16.357422,9.2412108 16.036133,9.0297851 15.64502,9.0297851 c -0.63086,0 -1.087891,0.4912109 -1.371094,1.4736329 -0.283203,0.982422 -0.429199,2.57666 -0.437012,4.782715 z m 1.1875,9.649902 c 0.37207,0 0.636719,-0.353027 0.794434,-1.05957 0.157715,-0.706055 0.236816,-1.931152 0.236816,-3.674805 0,-1.743164 -0.0791,-2.968261 -0.236816,-3.674804 -0.157715,-0.706055 -0.422364,-1.059571 -0.794434,-1.059571 -0.37207,0 -0.637207,0.353516 -0.794922,1.059571 -0.157715,0.706543 -0.236328,1.93164 -0.236328,3.674804 0,1.743653 0.07861,2.96875 0.236328,3.674805 0.157715,0.706543 0.422852,1.05957 0.794922,1.05957 z"
   id="path3811" />
		</g><g
     style="fill-rule:nonzero;stroke:#000000;stroke-width:1.005;stroke-miterlimit:4"
     id="g3813"
     transform="translate(-0.8494849,0.2172862)">
			<path
   style="stroke:none;stroke-width:1.005"
   d="m 152.73535,227.29199 c -0.24121,0.41895 -0.5039,0.73242 -0.78906,0.94239 -0.28516,0.20898 -0.60156,0.31347 -0.94727,0.31347 -0.81836,0 -1.46386,-0.54004 -1.93359,-1.62012 -0.4707,-1.08105 -0.70508,-2.56445 -0.70508,-4.45117 0,-1.99121 0.26563,-3.53027 0.79688,-4.61426 0.5332,-1.08398 1.28613,-1.62695 2.26074,-1.62695 1.09668,0 1.92871,0.74414 2.49609,2.23047 0.56836,1.48633 0.85254,3.6709 0.85254,6.55469 0,3.27929 -0.31445,5.7539 -0.9414,7.42578 -0.62696,1.67187 -1.5586,2.50781 -2.79688,2.50781 -0.32129,0 -0.66699,-0.0596 -1.03711,-0.17969 -0.36914,-0.11914 -0.76758,-0.29882 -1.19336,-0.53906 v -3.1875 h 0.65625 c 0.0879,0.82227 0.25781,1.44336 0.50879,1.86621 0.25098,0.42285 0.57324,0.63379 0.96387,0.63379 0.63086,0 1.08789,-0.49023 1.37109,-1.47265 0.2832,-0.98243 0.42969,-2.57715 0.4375,-4.78321 z m -1.1875,-9.65039 c -0.37305,0 -0.63672,0.35352 -0.79492,1.06055 -0.1582,0.70508 -0.23633,1.93066 -0.23633,3.67383 0,1.74414 0.0781,2.96875 0.23633,3.67578 0.1582,0.70508 0.42187,1.05859 0.79492,1.05859 0.3711,0 0.63672,-0.35351 0.79492,-1.05859 0.15723,-0.70703 0.23633,-1.93164 0.23633,-3.67578 0,-1.74317 -0.0791,-2.96875 -0.23633,-3.67383 -0.1582,-0.70703 -0.42382,-1.06055 -0.79492,-1.06055 z"
   id="path3815" />
		</g><g
     style="fill-rule:nonzero;stroke:none;stroke-width:1.005;stroke-miterlimit:4"
     id="g2174"
     transform="translate(-37.593873,-91.463522)">
			<g
   id="g2176"
   style="stroke-width:1.005">
				<path
   d="m 93.500488,137.46924 c -3.478515,0.004 -5.308593,-3.70606 -6.269531,-7.41602 -0.960937,-3.71093 -1.050781,-7.42285 -1.050781,-7.42285 l -1.775391,-0.0176 c 0,0 -0.333984,14.84668 -7.291504,14.85352 l 16.387207,0.003 z"
   id="path2178"
   style="stroke-width:1.005" />
			</g>
			<path
   d="m 99.388184,122.62646 c -0.03027,-7.24267 -10.873047,-12.49511 -14.057618,-18.22656 -3.182128,5.73145 -14.024902,10.98389 -14.055664,18.22656 -0.01416,3.41993 3.146973,6.18946 7.028809,6.18946 3.880859,0 7.026855,-2.76953 7.026855,-6.18946 0,3.41993 3.148438,6.18946 7.029297,6.18946 3.882813,0 7.028321,-2.76953 7.028321,-6.18946 z"
   id="path2180"
   style="stroke-width:1.005" />
		</g><g
     style="fill-rule:nonzero;stroke:none;stroke-width:1.005;stroke-miterlimit:4"
     id="g2190"
     transform="translate(0.01014275,0.2128908)">
			<g
   id="g2192"
   style="stroke-width:1.005">
				<path
   d="m 18.934082,39.283691 c -1.095215,0.0015 -1.671387,-1.166992 -1.974121,-2.33496 -0.302246,-1.168457 -0.331055,-2.336915 -0.331055,-2.336915 l -0.558594,-0.0059 c 0,0 -0.10498,4.674805 -2.29541,4.676758 l 5.15918,9.76e-4 z"
   id="path2194"
   style="stroke-width:1.005" />
			</g>
			<path
   d="m 20.788086,34.61084 c -0.0098,-2.280274 -3.423828,-3.934082 -4.42627,-5.73877 -1.001953,1.804688 -4.415527,3.458496 -4.425293,5.73877 -0.0044,1.07666 0.990723,1.94873 2.212891,1.94873 1.222168,0 2.212402,-0.87207 2.212402,-1.94873 0,1.07666 0.991211,1.94873 2.213379,1.94873 1.222168,0 2.212891,-0.87207 2.212891,-1.94873 z"
   id="path2196"
   style="stroke-width:1.005" />
		</g><g
     style="fill-rule:nonzero;stroke:none;stroke-width:1.005;stroke-miterlimit:4"
     id="g2198"
     transform="translate(0.2217961,-0.08544378)">
			<g
   id="g2200"
   style="stroke-width:1.005">
				<path
   d="m 147.92041,202.95068 c 1.09473,-0.002 1.67188,1.167 1.97363,2.33496 0.30176,1.16895 0.33106,2.33692 0.33106,2.33692 l 0.55859,0.006 c 0,0 0.10547,-4.67481 2.29492,-4.67676 l -5.1582,-9.8e-4 z"
   id="path2202"
   style="stroke-width:1.005" />
			</g>
			<path
   d="m 146.06689,207.62354 c 0.01,2.28027 3.42286,3.93457 4.42579,5.73925 1.00195,-1.80468 4.41503,-3.45898 4.4248,-5.73925 0.005,-1.07715 -0.99121,-1.94825 -2.21289,-1.94825 -1.22168,0 -2.21191,0.8711 -2.21191,1.94825 0,-1.07715 -0.99219,-1.94825 -2.21289,-1.94825 -1.22266,0 -2.2129,0.8711 -2.2129,1.94825 z"
   id="path2204"
   style="stroke-width:1.005" />
		</g><use
     x="0"
     y="0"
     xlink:href="#g2174"
     id="use2246"
     transform="matrix(1,0,0,-1,70.670403,242.64527)"
     width="167.08643"
     height="242.66748"
     style="stroke-width:1.005" /><use
     x="0"
     y="0"
     xlink:href="#g2174"
     id="use2248"
     transform="matrix(1,0,0,-1,3.3067988e-6,242.64527)"
     width="167.08643"
     height="242.66748"
     style="stroke-width:1.005" /><use
     x="0"
     y="0"
     xlink:href="#g2174"
     id="use2250"
     transform="translate(70.670403)"
     width="167.08643"
     height="242.66748"
     style="stroke-width:1.005" /><use
     x="0"
     y="0"
     xlink:href="#use2250"
     id="use2252"
     transform="translate(-70.670401,91.86269)"
     width="167.08643"
     height="242.66748"
     style="stroke-width:1.005" /><use
     x="0"
     y="0"
     xlink:href="#use2252"
     id="use2254"
     transform="translate(70.670403)"
     width="167.08643"
     height="242.66748"
     style="stroke-width:1.005" /></g></svg>
