<?xml version="1.0" encoding="UTF-8" standalone="no"?>
<!-- Generator: Adobe Illustrator 9.0, SVG Export Plug-In  -->

<!-- This set of SVG files is a complete cards game with figures, numbers	-->

<!--    and backs of cards completely designed in SVG.				-->

<!--    									-->

<!--    Copyright (C) 2004 David Bellot						-->

<!--										-->

<!--    This library is free software; you can redistribute it and/or		-->

<!--    modify it under the terms of the GNU Lesser General Public		-->

<!--    License as published by the Free Software Foundation; either		-->

<!--    version 2 of the License, or (at your option) any later version		-->

<!--										-->

<!--    This library is distributed in the hope that it will be useful,		-->

<!--    but WITHOUT ANY WARRANTY; without even the implied warranty of		-->

<!--    MERCHANTABILITY or FITNESS FOR A PARTICULAR PURPOSE.  See the GNU	-->

<!--    Lesser General Public License for more details.				-->

<!--										-->

<!--    You should have received a copy of the GNU Lesser General Public	-->

<!--    License along with this library; if not, write to the Free Software	-->

<!--    Foundation, Inc., 59 Temple Place, Suite 330, Boston, MA 02111-1307  USA-->

<!--										-->

<!--    Contact the author David Bellot at bellot@stat.berkeley.edu or 		-->

<!--    david.bellot@free.fr or yimyom@users.sourceforge.net			-->

<svg
   width="207.99998"
   height="300"
   viewBox="0 0 167.08642 240.26483"
   xml:space="preserve"
   id="svg2"
   sodipodi:version="0.32"
   inkscape:version="1.1 (c4e8f9e, 2021-05-24)"
   sodipodi:docname="spades-3.svg"
   inkscape:output_extension="org.inkscape.output.svg.inkscape"
   version="1.0"
   inkscape:export-filename="/home/damien/dev/perso/tabulous/apps/web/public/images/klondike/spades-3.png"
   inkscape:export-xdpi="83.199997"
   inkscape:export-ydpi="83.199997"
   xmlns:inkscape="http://www.inkscape.org/namespaces/inkscape"
   xmlns:sodipodi="http://sodipodi.sourceforge.net/DTD/sodipodi-0.dtd"
   xmlns:xlink="http://www.w3.org/1999/xlink"
   xmlns="http://www.w3.org/2000/svg"
   xmlns:svg="http://www.w3.org/2000/svg"
   xmlns:rdf="http://www.w3.org/1999/02/22-rdf-syntax-ns#"
   xmlns:cc="http://creativecommons.org/ns#"
   xmlns:dc="http://purl.org/dc/elements/1.1/"><metadata
   id="metadata90"><rdf:RDF><cc:Work
       rdf:about=""><dc:format>image/svg+xml</dc:format><dc:type
         rdf:resource="http://purl.org/dc/dcmitype/StillImage" /></cc:Work></rdf:RDF></metadata><defs
   id="defs88">
		
		
		
		
		
		
	</defs><sodipodi:namedview
   inkscape:window-height="1053"
   inkscape:window-width="1866"
   inkscape:pageshadow="2"
   inkscape:pageopacity="0.0"
   guidetolerance="10.0"
   gridtolerance="10.0"
   objecttolerance="10.0"
   borderopacity="1.0"
   bordercolor="#666666"
   pagecolor="#ffffff"
   id="base"
   inkscape:zoom="2.1201923"
   inkscape:cx="-143.85488"
   inkscape:cy="175.45578"
   inkscape:window-x="54"
   inkscape:window-y="-10"
   inkscape:current-layer="svg2"
   inkscape:showpageshadow="false"
   width="208px"
   height="303px"
   inkscape:pagecheckerboard="0"
   showgrid="false"
   fit-margin-top="0"
   fit-margin-left="0"
   fit-margin-right="0"
   fit-margin-bottom="0"
   inkscape:window-maximized="1"
   showguides="false" />
	
<g
   id="g50483"
   transform="matrix(0.999985,0,0,0.99008886,0.00124998,0.00123128)"
   style="stroke-width:1.005"><path
     id="path5"
     d="m 166.83643,235.89281 c 0,3.79171 -3.08594,6.8909 -6.87011,6.8909 H 7.1113279 C 3.3359375,242.78371 0.25,239.68452 0.25,235.89281 V 6.7746664 c 0,-3.78632 3.0859375,-6.89089651 6.8613279,-6.89089651 H 159.96632 c 3.78417,0 6.87011,3.10457651 6.87011,6.89089651 z"
     style="fill:#ffffff;fill-rule:nonzero;stroke:#000000;stroke-width:0.5025;stroke-miterlimit:4" /><g
     style="fill-rule:nonzero;stroke:#000000;stroke-width:1.005;stroke-miterlimit:4"
     id="g2714"
     transform="translate(1.5311309,0.038086)">
			<path
   style="stroke:none;stroke-width:1.005"
   d="m 11.919434,8.3017578 c 0.476562,-0.28125 0.938476,-0.4921875 1.386718,-0.6328125 0.448243,-0.140625 0.882813,-0.2109375 1.302735,-0.2109375 0.977539,0 1.726562,0.3896484 2.24707,1.1679688 0.521485,0.7788086 0.782227,1.8945314 0.782227,3.3471684 0,1.089355 -0.149414,1.973144 -0.448242,2.650879 -0.297852,0.677734 -0.737305,1.133789 -1.31836,1.367675 0.697266,0.249512 1.217774,0.784668 1.5625,1.604981 0.34375,0.820801 0.516602,1.942871 0.516602,3.366699 0,1.681641 -0.298828,2.971191 -0.895508,3.868164 -0.59668,0.896973 -1.459961,1.345215 -2.588867,1.345215 -0.419922,0 -0.857422,-0.08105 -1.313477,-0.242188 -0.456055,-0.161132 -0.929687,-0.40332 -1.420898,-0.726562 v -3.96875 h 0.65625 c 0.04004,1.148926 0.202148,2.024902 0.485351,2.627441 0.283204,0.602539 0.675782,0.903809 1.177735,0.903809 0.541992,0 0.96289,-0.340332 1.262695,-1.020996 0.298828,-0.680664 0.449219,-1.645508 0.449219,-2.894531 0,-1.304688 -0.154297,-2.312012 -0.461914,-3.020997 -0.307617,-0.708984 -0.745117,-1.063476 -1.3125,-1.063476 h -0.350586 v -1.4375 h 0.27832 c 0.532227,0 0.930664,-0.274902 1.197266,-0.825195 0.265625,-0.549805 0.399414,-1.371094 0.399414,-2.463868 0,-1.027343 -0.125977,-1.814453 -0.37793,-2.3603513 -0.251953,-0.5458985 -0.614258,-0.8193359 -1.084961,-0.8193359 -0.430664,0 -0.772461,0.2587891 -1.024414,0.7758789 -0.251953,0.5175783 -0.401367,1.2690433 -0.450195,2.2553713 h -0.65625 z"
   id="path2716" />
		</g><g
     style="fill-rule:nonzero;stroke:#000000;stroke-width:1.005;stroke-miterlimit:4"
     id="g2718"
     transform="translate(-0.7440149,0.3828162)">
			<path
   style="stroke:none;stroke-width:1.005"
   d="m 154.37988,233.94482 c -0.47656,0.28125 -0.93945,0.49219 -1.38672,0.63282 -0.44921,0.14062 -0.88281,0.21093 -1.30273,0.21093 -0.97852,0 -1.72656,-0.38867 -2.24805,-1.16796 -0.52148,-0.77832 -0.78125,-1.89454 -0.78125,-3.34668 0,-1.08887 0.14844,-1.97364 0.44727,-2.65137 0.29883,-0.67774 0.73828,-1.13281 1.31836,-1.36719 -0.69727,-0.25 -1.2168,-0.78516 -1.5625,-1.60547 -0.34375,-0.82031 -0.51563,-1.94238 -0.51563,-3.36621 0,-1.68164 0.29883,-2.97168 0.89453,-3.86816 0.59766,-0.89649 1.46094,-1.34571 2.58985,-1.34571 0.41992,0 0.85742,0.082 1.3125,0.24219 0.45703,0.16211 0.92969,0.4043 1.42187,0.72656 v 3.96875 h -0.65625 c -0.041,-1.14843 -0.20312,-2.02441 -0.48633,-2.62695 -0.2832,-0.60254 -0.67578,-0.9043 -1.17773,-0.9043 -0.54102,0 -0.96289,0.34082 -1.26172,1.02149 -0.29883,0.68066 -0.44922,1.64551 -0.44922,2.89453 0,1.30469 0.1543,2.3125 0.46094,3.02148 0.30859,0.70899 0.74609,1.0625 1.3125,1.0625 h 0.35156 v 1.4375 h -0.27929 c -0.53125,0 -0.92969,0.27539 -1.19727,0.82618 -0.26562,0.54882 -0.39844,1.37109 -0.39844,2.46289 0,1.02734 0.125,1.81445 0.37696,2.36132 0.25195,0.54493 0.61523,0.81836 1.08593,0.81836 0.42969,0 0.77149,-0.25781 1.02344,-0.77539 0.25195,-0.51757 0.40234,-1.26953 0.45117,-2.25586 h 0.65625 z"
   id="path2720" />
		</g><g
     style="fill-rule:nonzero;stroke:none;stroke-width:1.005;stroke-miterlimit:4"
     id="g2171"
     transform="translate(-1.7883043,0.3991685)">
			<g
   id="g2173"
   style="stroke-width:1.005">
				<path
   d="m 93.500488,137.46924 c -3.478515,0.004 -5.308593,-3.70606 -6.269531,-7.41602 -0.960937,-3.71093 -1.050781,-7.42285 -1.050781,-7.42285 l -1.775391,-0.0176 c 0,0 -0.333984,14.84668 -7.291504,14.85352 l 16.387207,0.003 z"
   id="path2175"
   style="stroke-width:1.005" />
			</g>
			<path
   d="m 99.388184,122.62646 c -0.03027,-7.24267 -10.873047,-12.49511 -14.057618,-18.22656 -3.182128,5.73145 -14.024902,10.98389 -14.055664,18.22656 -0.01416,3.41993 3.146973,6.18946 7.028809,6.18946 3.880859,0 7.026855,-2.76953 7.026855,-6.18946 0,3.41993 3.148438,6.18946 7.029297,6.18946 3.882813,0 7.028321,-2.76953 7.028321,-6.18946 z"
   id="path2177"
   style="stroke-width:1.005" />
		</g><g
     style="fill-rule:nonzero;stroke:none;stroke-width:1.005;stroke-miterlimit:4"
     id="g2187"
     transform="translate(0.01014275,0.2128908)">
			<g
   id="g2189"
   style="stroke-width:1.005">
				<path
   d="m 18.934082,39.283691 c -1.095215,0.0015 -1.671387,-1.166992 -1.974121,-2.33496 -0.302246,-1.168457 -0.331055,-2.336915 -0.331055,-2.336915 l -0.558594,-0.0059 c 0,0 -0.10498,4.674805 -2.29541,4.676758 l 5.15918,9.76e-4 z"
   id="path2191"
   style="stroke-width:1.005" />
			</g>
			<path
   d="m 20.788086,34.61084 c -0.0098,-2.280274 -3.423828,-3.934082 -4.42627,-5.73877 -1.001953,1.804688 -4.415527,3.458496 -4.425293,5.73877 -0.0044,1.07666 0.990723,1.94873 2.212891,1.94873 1.222168,0 2.212402,-0.87207 2.212402,-1.94873 0,1.07666 0.991211,1.94873 2.213379,1.94873 1.222168,0 2.212891,-0.87207 2.212891,-1.94873 z"
   id="path2193"
   style="stroke-width:1.005" />
		</g><g
     style="fill-rule:nonzero;stroke:none;stroke-width:1.005;stroke-miterlimit:4"
     id="g2195"
     transform="translate(0.2217961,-0.08544378)">
			<g
   id="g2197"
   style="stroke-width:1.005">
				<path
   d="m 147.92041,202.95068 c 1.09473,-0.002 1.67188,1.167 1.97363,2.33496 0.30176,1.16895 0.33106,2.33692 0.33106,2.33692 l 0.55859,0.006 c 0,0 0.10547,-4.67481 2.29492,-4.67676 l -5.1582,-9.8e-4 z"
   id="path2199"
   style="stroke-width:1.005" />
			</g>
			<path
   d="m 146.06689,207.62354 c 0.01,2.28027 3.42286,3.93457 4.42579,5.73925 1.00195,-1.80468 4.41503,-3.45898 4.4248,-5.73925 0.005,-1.07715 -0.99121,-1.94825 -2.21289,-1.94825 -1.22168,0 -2.21191,0.8711 -2.21191,1.94825 0,-1.07715 -0.99219,-1.94825 -2.21289,-1.94825 -1.22266,0 -2.2129,0.8711 -2.2129,1.94825 z"
   id="path2201"
   style="stroke-width:1.005" />
		</g><use
     x="0"
     y="0"
     xlink:href="#g2171"
     id="use2243"
     transform="translate(4.306799e-6,-91.840478)"
     width="167.08643"
     height="242.66748"
     style="stroke-width:1.005" /><use
     x="0"
     y="0"
     xlink:href="#use2243"
     id="use2245"
     transform="matrix(1,0,0,-1,-4.306799e-6,242.66748)"
     width="167.08643"
     height="242.66748"
     style="stroke-width:1.005" /></g></svg>
