<?xml version="1.0" encoding="UTF-8" standalone="no"?>
<!-- Generator: Adobe Illustrator 9.0, SVG Export Plug-In  -->

<!-- This set of SVG files is a complete cards game with figures, numbers	-->

<!--    and backs of cards completely designed in SVG.				-->

<!--    									-->

<!--    Copyright (C) 2004 David Bellot						-->

<!--										-->

<!--    This library is free software; you can redistribute it and/or		-->

<!--    modify it under the terms of the GNU Lesser General Public		-->

<!--    License as published by the Free Software Foundation; either		-->

<!--    version 2 of the License, or (at your option) any later version		-->

<!--										-->

<!--    This library is distributed in the hope that it will be useful,		-->

<!--    but WITHOUT ANY WARRANTY; without even the implied warranty of		-->

<!--    MERCHANTABILITY or FITNESS FOR A PARTICULAR PURPOSE.  See the GNU	-->

<!--    Lesser General Public License for more details.				-->

<!--										-->

<!--    You should have received a copy of the GNU Lesser General Public	-->

<!--    License along with this library; if not, write to the Free Software	-->

<!--    Foundation, Inc., 59 Temple Place, Suite 330, Boston, MA 02111-1307  USA-->

<!--										-->

<!--    Contact the author David Bellot at bellot@stat.berkeley.edu or 		-->

<!--    david.bellot@free.fr or yimyom@users.sourceforge.net			-->

<svg
   width="207.99998"
   height="300"
   viewBox="0 0 167.08642 240.26483"
   xml:space="preserve"
   id="svg2"
   sodipodi:version="0.32"
   inkscape:version="1.1 (c4e8f9e, 2021-05-24)"
   sodipodi:docname="spades-4.svg"
   inkscape:output_extension="org.inkscape.output.svg.inkscape"
   version="1.0"
   inkscape:export-filename="/home/damien/dev/perso/tabulous/apps/web/public/images/klondike/spades-4.png"
   inkscape:export-xdpi="83.199997"
   inkscape:export-ydpi="83.199997"
   xmlns:inkscape="http://www.inkscape.org/namespaces/inkscape"
   xmlns:sodipodi="http://sodipodi.sourceforge.net/DTD/sodipodi-0.dtd"
   xmlns:xlink="http://www.w3.org/1999/xlink"
   xmlns="http://www.w3.org/2000/svg"
   xmlns:svg="http://www.w3.org/2000/svg"
   xmlns:rdf="http://www.w3.org/1999/02/22-rdf-syntax-ns#"
   xmlns:cc="http://creativecommons.org/ns#"
   xmlns:dc="http://purl.org/dc/elements/1.1/"><metadata
   id="metadata90"><rdf:RDF><cc:Work
       rdf:about=""><dc:format>image/svg+xml</dc:format><dc:type
         rdf:resource="http://purl.org/dc/dcmitype/StillImage" /></cc:Work></rdf:RDF></metadata><defs
   id="defs88">
		
		
		
		
		
		
	</defs><sodipodi:namedview
   inkscape:window-height="1053"
   inkscape:window-width="1866"
   inkscape:pageshadow="2"
   inkscape:pageopacity="0.0"
   guidetolerance="10.0"
   gridtolerance="10.0"
   objecttolerance="10.0"
   borderopacity="1.0"
   bordercolor="#666666"
   pagecolor="#ffffff"
   id="base"
   inkscape:zoom="2.1201923"
   inkscape:cx="-143.85488"
   inkscape:cy="175.45578"
   inkscape:window-x="54"
   inkscape:window-y="-10"
   inkscape:current-layer="svg2"
   inkscape:showpageshadow="false"
   width="208px"
   height="303px"
   inkscape:pagecheckerboard="0"
   showgrid="false"
   fit-margin-top="0"
   fit-margin-left="0"
   fit-margin-right="0"
   fit-margin-bottom="0"
   inkscape:window-maximized="1"
   showguides="false" />
	
<g
   id="g51158"
   transform="matrix(0.999985,0,0,0.99008886,0.00124998,0.00123128)"
   style="stroke-width:1.005"><path
     id="path5"
     d="m 166.83643,235.89281 c 0,3.79171 -3.08594,6.8909 -6.87011,6.8909 H 7.1113279 C 3.3359375,242.78371 0.25,239.68452 0.25,235.89281 V 6.7746664 c 0,-3.78632 3.0859375,-6.89089651 6.8613279,-6.89089651 H 159.96632 c 3.78417,0 6.87011,3.10457651 6.87011,6.89089651 z"
     style="fill:#ffffff;fill-rule:nonzero;stroke:#000000;stroke-width:0.5025;stroke-miterlimit:4" /><g
     style="fill-rule:nonzero;stroke:#000000;stroke-width:1.005;stroke-miterlimit:4"
     id="g3075"
     transform="translate(1.351932,0.0444338)">
			<path
   style="stroke:none;stroke-width:1.005"
   d="m 18.223633,25.998535 h -4.40625 v -1.46875 h 1.1875 v -3.28125 h -3.375 V 19.858399 L 15.004395,7.6235352 h 2.031738 V 19.686035 h 1.375 v 1.5625 h -1.375 v 3.28125 h 1.1875 z m -3.21875,-6.3125 V 10.92334 l -2.409668,8.762695 z"
   id="path3077" />
		</g><g
     style="fill-rule:nonzero;stroke:#000000;stroke-width:1.005;stroke-miterlimit:4"
     id="g3079"
     transform="translate(-0.9862049,0.0454112)">
			<path
   style="stroke:none;stroke-width:1.005"
   d="m 148.49707,216.5791 h 4.40625 v 1.46875 h -1.1875 v 3.28125 h 3.375 v 1.39063 l -3.375,12.23437 h -2.03125 v -12.0625 h -1.375 v -1.5625 h 1.375 v -3.28125 h -1.1875 z m 3.21875,6.3125 v 8.76367 l 2.40918,-8.76367 z"
   id="path3081" />
		</g><g
     style="fill-rule:nonzero;stroke:none;stroke-width:1.005;stroke-miterlimit:4"
     id="g2172"
     transform="translate(-37.593873,-91.463522)">
			<g
   id="g2174"
   style="stroke-width:1.005">
				<path
   d="m 93.500488,137.46924 c -3.478515,0.004 -5.308593,-3.70606 -6.269531,-7.41602 -0.960937,-3.71093 -1.050781,-7.42285 -1.050781,-7.42285 l -1.775391,-0.0176 c 0,0 -0.333984,14.84668 -7.291504,14.85352 l 16.387207,0.003 z"
   id="path2176"
   style="stroke-width:1.005" />
			</g>
			<path
   d="m 99.388184,122.62646 c -0.03027,-7.24267 -10.873047,-12.49511 -14.057618,-18.22656 -3.182128,5.73145 -14.024902,10.98389 -14.055664,18.22656 -0.01416,3.41993 3.146973,6.18946 7.028809,6.18946 3.880859,0 7.026855,-2.76953 7.026855,-6.18946 0,3.41993 3.148438,6.18946 7.029297,6.18946 3.882813,0 7.028321,-2.76953 7.028321,-6.18946 z"
   id="path2178"
   style="stroke-width:1.005" />
		</g><g
     style="fill-rule:nonzero;stroke:none;stroke-width:1.005;stroke-miterlimit:4"
     id="g2188"
     transform="translate(0.01014275,0.2128908)">
			<g
   id="g2190"
   style="stroke-width:1.005">
				<path
   d="m 18.934082,39.283691 c -1.095215,0.0015 -1.671387,-1.166992 -1.974121,-2.33496 -0.302246,-1.168457 -0.331055,-2.336915 -0.331055,-2.336915 l -0.558594,-0.0059 c 0,0 -0.10498,4.674805 -2.29541,4.676758 l 5.15918,9.76e-4 z"
   id="path2192"
   style="stroke-width:1.005" />
			</g>
			<path
   d="m 20.788086,34.61084 c -0.0098,-2.280274 -3.423828,-3.934082 -4.42627,-5.73877 -1.001953,1.804688 -4.415527,3.458496 -4.425293,5.73877 -0.0044,1.07666 0.990723,1.94873 2.212891,1.94873 1.222168,0 2.212402,-0.87207 2.212402,-1.94873 0,1.07666 0.991211,1.94873 2.213379,1.94873 1.222168,0 2.212891,-0.87207 2.212891,-1.94873 z"
   id="path2194"
   style="stroke-width:1.005" />
		</g><g
     style="fill-rule:nonzero;stroke:none;stroke-width:1.005;stroke-miterlimit:4"
     id="g2196"
     transform="translate(0.2217961,-0.08544378)">
			<g
   id="g2198"
   style="stroke-width:1.005">
				<path
   d="m 147.92041,202.95068 c 1.09473,-0.002 1.67188,1.167 1.97363,2.33496 0.30176,1.16895 0.33106,2.33692 0.33106,2.33692 l 0.55859,0.006 c 0,0 0.10547,-4.67481 2.29492,-4.67676 l -5.1582,-9.8e-4 z"
   id="path2200"
   style="stroke-width:1.005" />
			</g>
			<path
   d="m 146.06689,207.62354 c 0.01,2.28027 3.42286,3.93457 4.42579,5.73925 1.00195,-1.80468 4.41503,-3.45898 4.4248,-5.73925 0.005,-1.07715 -0.99121,-1.94825 -2.21289,-1.94825 -1.22168,0 -2.21191,0.8711 -2.21191,1.94825 0,-1.07715 -0.99219,-1.94825 -2.21289,-1.94825 -1.22266,0 -2.2129,0.8711 -2.2129,1.94825 z"
   id="path2202"
   style="stroke-width:1.005" />
		</g><g
     transform="translate(33.076533,-91.463521)"
     id="use2246"
     style="fill-rule:nonzero;stroke:none;stroke-width:1.005;stroke-miterlimit:4">
			<g
   id="g2254"
   style="stroke-width:1.005">
				<path
   id="path2256"
   d="m 93.500488,137.46924 c -3.478515,0.004 -5.308593,-3.70606 -6.269531,-7.41602 -0.960937,-3.71093 -1.050781,-7.42285 -1.050781,-7.42285 l -1.775391,-0.0176 c 0,0 -0.333984,14.84668 -7.291504,14.85352 l 16.387207,0.003 z"
   style="stroke-width:1.005" />
			</g>
			<path
   id="path2258"
   d="m 99.388184,122.62646 c -0.03027,-7.24267 -10.873047,-12.49511 -14.057618,-18.22656 -3.182128,5.73145 -14.024902,10.98389 -14.055664,18.22656 -0.01416,3.41993 3.146973,6.18946 7.028809,6.18946 3.880859,0 7.026855,-2.76953 7.026855,-6.18946 0,3.41993 3.148438,6.18946 7.029297,6.18946 3.882813,0 7.028321,-2.76953 7.028321,-6.18946 z"
   style="stroke-width:1.005" />
		</g><use
     x="0"
     y="0"
     xlink:href="#use2246"
     id="use2248"
     transform="matrix(1,0,0,-1,-70.670401,242.64527)"
     width="167.08643"
     height="242.66748"
     style="stroke-width:1.005" /><use
     x="0"
     y="0"
     xlink:href="#use2248"
     id="use2250"
     transform="translate(70.670401)"
     width="167.08643"
     height="242.66748"
     style="stroke-width:1.005" /></g></svg>
