<?xml version="1.0" encoding="UTF-8" standalone="no"?>
<!-- Generator: Adobe Illustrator 9.0, SVG Export Plug-In  -->

<!-- This set of SVG files is a complete cards game with figures, numbers	-->

<!--    and backs of cards completely designed in SVG.				-->

<!--    									-->

<!--    Copyright (C) 2004 David Bellot						-->

<!--										-->

<!--    This library is free software; you can redistribute it and/or		-->

<!--    modify it under the terms of the GNU Lesser General Public		-->

<!--    License as published by the Free Software Foundation; either		-->

<!--    version 2 of the License, or (at your option) any later version		-->

<!--										-->

<!--    This library is distributed in the hope that it will be useful,		-->

<!--    but WITHOUT ANY WARRANTY; without even the implied warranty of		-->

<!--    MERCHANTABILITY or FITNESS FOR A PARTICULAR PURPOSE.  See the GNU	-->

<!--    Lesser General Public License for more details.				-->

<!--										-->

<!--    You should have received a copy of the GNU Lesser General Public	-->

<!--    License along with this library; if not, write to the Free Software	-->

<!--    Foundation, Inc., 59 Temple Place, Suite 330, Boston, MA 02111-1307  USA-->

<!--										-->

<!--    Contact the author David Bellot at bellot@stat.berkeley.edu or 		-->

<!--    david.bellot@free.fr or yimyom@users.sourceforge.net			-->

<svg
   width="207.99998"
   height="300"
   viewBox="0 0 167.08642 240.26483"
   xml:space="preserve"
   id="svg2"
   sodipodi:version="0.32"
   inkscape:version="1.1 (c4e8f9e, 2021-05-24)"
   sodipodi:docname="spades-7.svg"
   inkscape:output_extension="org.inkscape.output.svg.inkscape"
   version="1.0"
   inkscape:export-filename="/home/damien/dev/perso/tabulous/apps/web/public/images/klondike/spades-7.png"
   inkscape:export-xdpi="83.199997"
   inkscape:export-ydpi="83.199997"
   xmlns:inkscape="http://www.inkscape.org/namespaces/inkscape"
   xmlns:sodipodi="http://sodipodi.sourceforge.net/DTD/sodipodi-0.dtd"
   xmlns:xlink="http://www.w3.org/1999/xlink"
   xmlns="http://www.w3.org/2000/svg"
   xmlns:svg="http://www.w3.org/2000/svg"
   xmlns:rdf="http://www.w3.org/1999/02/22-rdf-syntax-ns#"
   xmlns:cc="http://creativecommons.org/ns#"
   xmlns:dc="http://purl.org/dc/elements/1.1/"><metadata
   id="metadata90"><rdf:RDF><cc:Work
       rdf:about=""><dc:format>image/svg+xml</dc:format><dc:type
         rdf:resource="http://purl.org/dc/dcmitype/StillImage" /></cc:Work></rdf:RDF></metadata><defs
   id="defs88">
		
		
		
		
		
		
	</defs><sodipodi:namedview
   inkscape:window-height="1053"
   inkscape:window-width="1866"
   inkscape:pageshadow="2"
   inkscape:pageopacity="0.0"
   guidetolerance="10.0"
   gridtolerance="10.0"
   objecttolerance="10.0"
   borderopacity="1.0"
   bordercolor="#666666"
   pagecolor="#ffffff"
   id="base"
   inkscape:zoom="2.1201923"
   inkscape:cx="-143.85488"
   inkscape:cy="175.45578"
   inkscape:window-x="54"
   inkscape:window-y="-10"
   inkscape:current-layer="svg2"
   inkscape:showpageshadow="false"
   width="208px"
   height="303px"
   inkscape:pagecheckerboard="0"
   showgrid="false"
   fit-margin-top="0"
   fit-margin-left="0"
   fit-margin-right="0"
   fit-margin-bottom="0"
   inkscape:window-maximized="1"
   showguides="false" />
	
<g
   id="g53639"
   transform="matrix(0.999985,0,0,0.99008886,0.00124998,0.00123128)"
   style="stroke-width:1.005"><path
     id="path5"
     d="m 166.83643,235.89281 c 0,3.79171 -3.08594,6.8909 -6.87011,6.8909 H 7.1113279 C 3.3359375,242.78371 0.25,239.68452 0.25,235.89281 V 6.7746664 c 0,-3.78632 3.0859375,-6.89089651 6.8613279,-6.89089651 H 159.96632 c 3.78417,0 6.87011,3.10457651 6.87011,6.89089651 z"
     style="fill:#ffffff;fill-rule:nonzero;stroke:#000000;stroke-width:0.5025;stroke-miterlimit:4" /><g
     style="fill-rule:nonzero;stroke:#000000;stroke-width:1.005;stroke-miterlimit:4"
     id="g4248"
     transform="translate(1.4666779,0.03808595)">
			<path
   style="stroke:none;stroke-width:1.005"
   d="m 17.858887,10.869629 -3.320801,14.963379 h -1.098633 l 3.23584,-14.625 h -3.972656 v 2.4375 h -0.75 V 7.8017578 h 5.90625 z"
   id="path4250" />
		</g><g
     style="fill-rule:nonzero;stroke:#000000;stroke-width:1.005;stroke-miterlimit:4"
     id="g4252"
     transform="translate(-0.8709749,0.3828162)">
			<path
   style="stroke:none;stroke-width:1.005"
   d="m 148.63184,231.37744 3.32031,-14.96387 h 1.09961 l -3.23633,14.625 h 3.97266 v -2.4375 h 0.75 v 5.84375 h -5.90625 z"
   id="path4254" />
		</g><path
     style="fill-rule:nonzero;stroke:none;stroke-width:1.005;stroke-miterlimit:4"
     d="m 47.737641,12.94064 c -3.18457,5.73145 -14.03718,10.98218 -14.05775,18.22487 -0.0097,3.41991 3.14606,6.17537 7.02888,6.17537 2.47351,0 4.67144,-1.11009 5.92434,-2.81155 -0.52343,4.92437 -1.92739,10.42786 -7.05398,11.47213 h 8.15851 8.15852 c -5.12658,-1.04427 -6.53055,-6.54776 -7.05398,-11.47213 1.25291,1.70146 3.45083,2.81155 5.92434,2.81155 3.88282,0 7.03859,-2.75546 7.02888,-6.17537 -0.02057,-7.24269 -10.87318,-12.49342 -14.05776,-18.22487 z"
     id="path2254"
     sodipodi:nodetypes="csscccccssc" /><path
     id="path2273"
     d="m 16.372445,29.321959 c -0.95724,1.722794 -4.21646,3.301099 -4.22557,5.478145 0,1.027984 0.94567,1.856231 2.11279,1.856231 0.7435,0 1.40417,-0.333678 1.78077,-0.845113 -0.15734,1.480197 -0.57935,3.13447 -2.12033,3.448363 h 2.45234 2.45234 c -1.54098,-0.313893 -1.963,-1.968166 -2.12033,-3.448363 0.3766,0.511435 1.03727,0.845113 1.78077,0.845113 1.16712,0 2.11278,-0.828247 2.11278,-1.856231 -0.0091,-2.177046 -3.26832,-3.755351 -4.22556,-5.478145 z"
     style="fill-rule:nonzero;stroke:none;stroke-width:1.005;stroke-miterlimit:4" /><use
     x="0"
     y="0"
     xlink:href="#path2273"
     id="use2277"
     transform="matrix(1,0,0,-1,134.34154,242.36206)"
     width="167.08643"
     height="242.66748"
     style="stroke-width:1.005" /><use
     x="0"
     y="0"
     xlink:href="#path2254"
     id="use2201"
     transform="matrix(1,0,0,-1,70.670399,242.64527)"
     width="167.08643"
     height="242.66748"
     style="stroke-width:1.005" /><use
     x="0"
     y="0"
     xlink:href="#path2254"
     id="use2203"
     transform="matrix(1,0,0,-1,-1.0000001e-6,242.64527)"
     width="167.08643"
     height="242.66748"
     style="stroke-width:1.005" /><use
     x="0"
     y="0"
     xlink:href="#path2254"
     id="use2205"
     transform="translate(70.670399)"
     width="167.08643"
     height="242.66748"
     style="stroke-width:1.005" /><use
     x="0"
     y="0"
     xlink:href="#use2205"
     id="use2207"
     transform="translate(-34.864835,45.931345)"
     width="167.08643"
     height="242.66748"
     style="stroke-width:1.005" /><use
     x="0"
     y="0"
     xlink:href="#use2207"
     id="use2209"
     transform="translate(-35.80557,45.931345)"
     width="167.08643"
     height="242.66748"
     style="stroke-width:1.005" /><use
     x="0"
     y="0"
     xlink:href="#use2209"
     id="use2211"
     transform="translate(70.670399)"
     width="167.08643"
     height="242.66748"
     style="stroke-width:1.005" /></g></svg>
