# Blender 3.5.1
# www.blender.org
o d4
v -1.312031 -0.484122 -0.908969
v -1.311181 -0.700064 -0.756792
v -1.443789 -0.484871 -0.679996
v -1.311853 -0.550852 -0.920342
v -1.311663 -0.610588 -0.909556
v -1.369831 -0.456765 -0.886765
v -1.386049 -0.535636 -0.894546
v -1.397286 -0.600009 -0.890740
v -1.415439 -0.442181 -0.849456
v -1.443407 -0.524958 -0.863355
v -1.454962 -0.587941 -0.864860
v -1.368919 -0.688658 -0.723347
v -1.414587 -0.658667 -0.696896
v -1.311312 -0.688331 -0.823459
v -1.386135 -0.669548 -0.799113
v -1.443300 -0.644631 -0.779212
v -1.311476 -0.658081 -0.876087
v -1.397112 -0.643802 -0.859059
v -1.454819 -0.624357 -0.839197
v -1.453714 -0.457242 -0.740990
v -1.444417 -0.442346 -0.799097
v -1.453343 -0.551656 -0.674455
v -1.468371 -0.535098 -0.752199
v -1.470838 -0.524726 -0.816782
v -1.443752 -0.611339 -0.680005
v -1.469957 -0.600216 -0.763774
v -1.477181 -0.588067 -0.826246
v -0.005054 1.661187 -0.149852
v -0.136815 1.660433 0.079120
v 0.127363 1.661203 0.078742
v -0.062855 1.688543 -0.127649
v -0.108463 1.703126 -0.090340
v 0.052649 1.688879 -0.127814
v -0.005793 1.731970 -0.092152
v -0.051514 1.760720 -0.055169
v 0.098278 1.703729 -0.090636
v 0.040733 1.760602 -0.054836
v -0.005253 1.791653 -0.022841
v -0.088844 1.688071 0.118071
v -0.033814 1.702974 0.138914
v -0.146740 1.688063 0.018126
v -0.086883 1.731503 0.050902
v -0.032161 1.760571 0.072002
v -0.137442 1.702961 -0.039981
v -0.077995 1.760180 -0.008052
v -0.027473 1.791526 0.015772
v 0.136952 1.688890 0.017720
v 0.127401 1.703732 -0.040360
v 0.079344 1.688560 0.117831
v 0.077551 1.731984 0.049601
v 0.068296 1.760993 -0.008343
v 0.024288 1.703143 0.138830
v 0.021886 1.760343 0.071377
v 0.017078 1.791656 0.015708
v 1.312225 -0.476476 -0.912722
v 1.444639 -0.476454 -0.684127
v 1.313068 -0.692417 -0.760545
v 1.369927 -0.448782 -0.890684
v 1.415556 -0.433932 -0.853506
v 1.312402 -0.543205 -0.924096
v 1.387194 -0.526551 -0.898157
v 1.444327 -0.516156 -0.867950
v 1.312591 -0.602941 -0.913309
v 1.398205 -0.591658 -0.894063
v 1.455884 -0.579460 -0.869023
v 1.454598 -0.543182 -0.678614
v 1.445339 -0.602920 -0.684138
v 1.454228 -0.448768 -0.745149
v 1.469311 -0.527543 -0.755692
v 1.471824 -0.591851 -0.767645
v 1.444679 -0.433927 -0.803229
v 1.470945 -0.516541 -0.820909
v 1.478214 -0.579455 -0.830473
v 1.312939 -0.680684 -0.827213
v 1.312776 -0.650434 -0.879840
v 1.370834 -0.680675 -0.727266
v 1.387105 -0.661465 -0.804145
v 1.398378 -0.636223 -0.863478
v 1.416402 -0.650418 -0.700945
v 1.444431 -0.635649 -0.783551
v 1.456026 -0.615875 -0.843361
v 0.004205 -0.699860 1.513970
v 0.135775 -0.483898 1.590389
v -0.128402 -0.484667 1.590766
v 0.061970 -0.688118 1.547249
v 0.107539 -0.657861 1.573570
v -0.053532 -0.688454 1.547414
v 0.004854 -0.669329 1.600038
v 0.050527 -0.644144 1.639590
v -0.099201 -0.658463 1.573866
v -0.041720 -0.643845 1.639514
v 0.004221 -0.624131 1.679555
v 0.087756 -0.456540 1.629478
v 0.032700 -0.441957 1.650477
v 0.145734 -0.550625 1.595901
v 0.085825 -0.534406 1.647784
v 0.031069 -0.524344 1.682210
v 0.136476 -0.610363 1.590378
v 0.076969 -0.599575 1.654953
v 0.026409 -0.587712 1.692442
v -0.137956 -0.551452 1.596307
v -0.128366 -0.611135 1.590756
v -0.080432 -0.457030 1.629718
v -0.078607 -0.535888 1.647662
v -0.069322 -0.600208 1.655499
v -0.025402 -0.442126 1.650560
v -0.022978 -0.524887 1.681739
v -0.018141 -0.587841 1.692506
vn 0.0029 -1.0000 -0.0016
vn -0.8168 0.3302 0.4731
vn 0.8162 0.3350 0.4708
vn -0.2926 0.1563 -0.9434
vn -0.2809 -0.0874 -0.9558
vn -0.2468 -0.5636 -0.7883
vn -0.4940 0.2469 -0.8337
vn -0.4338 0.0614 -0.8989
vn -0.4337 -0.5252 -0.7322
vn -0.2883 -0.9425 -0.1690
vn -0.4853 -0.8733 -0.0421
vn -0.8098 -0.5573 0.1833
vn -0.2834 -0.8695 -0.4045
vn -0.4237 -0.8694 -0.2541
vn -0.8556 -0.5176 -0.0061
vn -0.9631 0.1525 0.2218
vn -0.9686 0.2488 -0.0027
vn -0.8076 0.3559 -0.4702
vn -0.9684 -0.0938 0.2311
vn -0.9953 0.0476 0.0844
vn -0.8522 0.1639 -0.4969
vn -0.8162 -0.3350 -0.4708
vn -0.0029 0.6318 -0.7751
vn -0.2110 0.7089 -0.6730
vn -0.5670 0.7602 -0.3171
vn 0.2037 0.7147 -0.6691
vn 0.0033 0.7578 -0.6525
vn -0.4258 0.8737 -0.2351
vn -0.6734 0.6280 0.3900
vn -0.4814 0.7062 0.5192
vn 0.0045 0.7603 0.6496
vn -0.6854 0.7108 0.1581
vn -0.5711 0.7545 0.3233
vn 0.0043 0.8738 0.4862
vn 0.6709 0.6319 0.3881
vn 0.6862 0.7102 0.1572
vn 0.5559 0.7635 -0.3288
vn 0.4755 0.7136 0.5145
vn 0.5612 0.7578 0.3329
vn 0.4139 0.8762 -0.2469
vn -0.0029 1.0000 0.0016
vn 0.2890 0.1580 -0.9442
vn 0.4858 0.2544 -0.8362
vn 0.8100 0.3606 -0.4625
vn 0.2843 -0.0883 -0.9547
vn 0.4244 0.0533 -0.9039
vn 0.8559 0.1688 -0.4887
vn 0.9628 0.1581 0.2190
vn 0.9684 -0.0857 0.2342
vn 0.8078 -0.5621 0.1777
vn 0.9683 0.2498 -0.0098
vn 0.9952 0.0640 0.0741
vn 0.8525 -0.5226 -0.0121
vn 0.2933 -0.9408 -0.1698
vn 0.2817 -0.8705 -0.4035
vn 0.2478 -0.5527 -0.7957
vn 0.4946 -0.8678 -0.0475
vn 0.4345 -0.8669 -0.2442
vn 0.4346 -0.5126 -0.7405
vn 0.8168 -0.3302 -0.4731
vn 0.0032 -0.9425 0.3343
vn 0.2112 -0.8721 0.4415
vn 0.5669 -0.5540 0.6097
vn -0.2036 -0.8706 0.4478
vn -0.0032 -0.8694 0.4941
vn 0.4255 -0.5150 0.7441
vn 0.6727 0.1565 0.7232
vn 0.4805 0.2516 0.8401
vn -0.0055 0.3560 0.9345
vn 0.6849 -0.0898 0.7231
vn 0.5704 0.0510 0.8198
vn -0.0052 0.1640 0.9865
vn -0.6716 0.1526 0.7251
vn -0.6868 -0.0912 0.7211
vn -0.5561 -0.5667 0.6080
vn -0.4764 0.2442 0.8447
vn -0.5619 0.0583 0.8252
vn -0.4142 -0.5275 0.7418
vn 0.0023 -0.3348 0.9423
vn -0.8547 0.4063 0.3231
vn -0.8535 0.5210 -0.0030
vn -0.7094 0.5759 -0.4063
vn -0.4330 0.5234 -0.7339
vn -0.1512 0.4104 -0.8993
vn -0.1458 -0.9857 0.0845
vn -0.4275 -0.8694 0.2477
vn -0.7048 -0.5801 0.4083
vn -0.8508 -0.1825 0.4928
vn -0.8537 0.1632 0.4945
vn 0.7048 0.4105 0.5786
vn 0.4212 0.5236 0.7406
vn -0.0005 0.5760 0.8174
vn -0.4221 0.5211 0.7418
vn -0.7055 0.4064 0.5806
vn 0.8532 0.4113 0.3207
vn 0.8505 0.5260 -0.0054
vn 0.7048 0.5801 -0.4083
vn 0.4278 0.5259 -0.7351
vn 0.1463 0.4112 -0.8997
vn 0.1517 -0.9848 0.0841
vn 0.4333 -0.8669 0.2465
vn 0.7094 -0.5759 0.4063
vn 0.8532 -0.1776 0.4904
vn 0.8542 0.1681 0.4921
vn 0.0026 -0.9849 -0.1733
vn 0.0018 -0.8670 -0.4983
vn 0.0005 -0.5760 -0.8174
vn -0.0009 -0.1777 -0.9841
vn -0.0019 0.1680 -0.9858
vn -0.0023 0.3348 -0.9423
vt 0.748066 0.521682
vt 0.730697 0.510073
vt 0.731641 0.488011
vt 0.745939 0.517364
vt 0.742131 0.516132
vt 0.749771 0.517319
vt 0.747744 0.511783
vt 0.745268 0.510026
vt 0.753050 0.515446
vt 0.750406 0.510508
vt 0.748195 0.505649
vt 0.732077 0.505274
vt 0.729697 0.501325
vt 0.735487 0.510892
vt 0.736204 0.505031
vt 0.735601 0.501396
vt 0.737803 0.515105
vt 0.738722 0.513716
vt 0.742365 0.507218
vt 0.741830 0.507069
vt 0.744091 0.501022
vt 0.745865 0.501228
vt 0.734942 0.486056
vt 0.738428 0.483025
vt 0.755782 0.513045
vt 0.730437 0.492558
vt 0.738686 0.492517
vt 0.742278 0.490214
vt 0.753005 0.507841
vt 0.725219 0.497528
vt 0.731733 0.497071
vt 0.731109 0.497492
vt 0.739212 0.496691
vt 0.743531 0.497410
vt 0.744500 0.496729
vt 0.749922 0.501303
vt 0.978815 0.985935
vt 0.498153 0.023838
vt 0.021033 0.984291
vt 0.983438 0.984408
vt 0.987326 0.983441
vt 0.980046 0.990475
vt 0.985629 0.990029
vt 0.990044 0.989068
vt 0.979905 0.995154
vt 0.986519 0.994858
vt 0.993283 0.994732
vt 0.494659 0.023517
vt 0.492356 0.021251
vt 0.502689 0.023066
vt 0.498340 0.017889
vt 0.495510 0.015551
vt 0.505552 0.020186
vt 0.990525 0.981372
vt 0.994271 0.988263
vt 0.502783 0.014976
vt 0.499485 0.008407
vt 0.997346 0.994376
vt 0.020863 0.988819
vt 0.020416 0.994913
vt 0.979935 0.998937
vt 0.017121 0.982333
vt 0.013976 0.988855
vt 0.012791 0.994812
vt 0.987195 0.998840
vt 0.013337 0.979875
vt 0.489616 0.019769
vt 0.492746 0.013461
vt 0.009858 0.986639
vt 0.498971 0.000466
vt 0.006125 0.994507
vt 0.995734 0.998846
vt 0.518337 0.984600
vt 0.478311 0.982574
vt 0.498429 0.972637
vt 0.515808 0.990601
vt 0.515434 0.994494
vt 0.514061 0.982716
vt 0.510133 0.989027
vt 0.508051 0.994732
vt 0.509269 0.980894
vt 0.505508 0.988334
vt 0.502765 0.994400
vt 0.483514 0.980450
vt 0.486614 0.974900
vt 0.488470 0.977497
vt 0.478712 0.988694
vt 0.487452 0.987554
vt 0.491990 0.985373
vt 0.491131 0.984733
vt 0.478678 0.994028
vt 0.515019 0.998837
vt 0.507040 0.998831
vt 0.487282 0.994634
vt 0.495031 0.994682
vt 0.496566 0.993506
vt 0.499988 0.998731
vt 0.503549 0.975266
vt 0.506511 0.976987
vt 0.505316 0.979883
vt 0.493941 0.972972
vt 0.498789 0.981272
vt 0.502851 0.983840
vt 0.501517 0.987121
vt 0.490808 0.974027
vt 0.494914 0.982602
vt 0.498968 0.990400
vt 0.498745 0.993912
vt 0.266822 0.508681
vt 0.250899 0.524436
vt 0.268594 0.487570
vt 0.262256 0.508410
vt 0.257754 0.508362
vt 0.269363 0.504538
vt 0.263119 0.504600
vt 0.255414 0.504180
vt 0.272371 0.501174
vt 0.263389 0.501384
vt 0.254209 0.501489
vt 0.247193 0.523172
vt 0.243675 0.520033
vt 0.256473 0.486051
vt 0.255201 0.522840
vt 0.250993 0.515922
vt 0.246988 0.513234
vt 0.253675 0.491905
vt 0.253479 0.509611
vt 0.258805 0.521258
vt 0.251096 0.504497
vt 0.254319 0.512414
vt 0.250607 0.505825
vt 0.251217 0.496702
vt 0.249854 0.501411
vt 0.269323 0.492289
vt 0.273805 0.497038
vt 0.268820 0.496906
vt 0.263964 0.485261
vt 0.260677 0.491764
vt 0.261378 0.496874
vt 0.264781 0.497294
vt 0.260379 0.484163
vt 0.256523 0.492520
vt 0.254172 0.496833
vt 0.253159 0.496966
s 0
f 57/75/1 82/109/1 2/2/1
f 3/3/2 84/111/2 29/38/2
f 30/39/3 83/110/3 56/74/3
f 1/1/4 4/4/4 7/7/4 6/6/4
f 4/4/5 5/5/5 8/8/5 7/7/5
f 5/5/6 17/18/6 18/19/6 8/8/6
f 6/6/7 7/7/7 10/10/7 9/9/7
f 7/7/8 8/8/8 11/11/8 10/10/8
f 8/8/9 18/19/9 19/22/9 11/11/9
f 2/2/10 12/12/10 15/15/10 14/14/10
f 12/12/11 13/13/11 16/16/11 15/15/11
f 13/13/12 25/30/12 26/32/12 16/16/12
f 14/14/13 15/15/13 18/20/13 17/17/13
f 15/15/14 16/16/14 19/21/14 18/20/14
f 16/16/15 26/32/15 27/34/15 19/21/15
f 3/3/16 20/23/16 23/27/16 22/26/16
f 20/23/17 21/24/17 24/28/17 23/27/17
f 21/25/18 9/9/18 10/10/18 24/29/18
f 22/26/19 23/27/19 26/33/19 25/31/19
f 23/27/20 24/28/20 27/35/20 26/33/20
f 24/29/21 10/10/21 11/11/21 27/36/21
f 11/11/22 19/22/22 27/36/22
f 28/37/23 31/40/23 34/43/23 33/42/23
f 31/40/24 32/41/24 35/44/24 34/43/24
f 32/41/25 44/54/25 45/55/25 35/44/25
f 33/42/26 34/43/26 37/46/26 36/45/26
f 34/43/27 35/44/27 38/47/27 37/46/27
f 35/44/28 45/55/28 46/58/28 38/47/28
f 29/38/29 39/48/29 42/51/29 41/50/29
f 39/48/30 40/49/30 43/52/30 42/51/30
f 40/49/31 52/67/31 53/68/31 43/52/31
f 41/50/32 42/51/32 45/56/32 44/53/32
f 42/51/33 43/52/33 46/57/33 45/56/33
f 43/52/34 53/68/34 54/70/34 46/57/34
f 30/39/35 47/59/35 50/63/35 49/62/35
f 47/59/36 48/60/36 51/64/36 50/63/36
f 48/61/37 36/45/37 37/46/37 51/65/37
f 49/62/38 50/63/38 53/69/38 52/66/38
f 50/63/39 51/64/39 54/71/39 53/69/39
f 51/65/40 37/46/40 38/47/40 54/72/40
f 38/47/41 46/58/41 54/72/41
f 55/73/42 58/76/42 61/79/42 60/78/42
f 58/76/43 59/77/43 62/80/43 61/79/43
f 59/77/44 71/92/44 72/93/44 62/80/44
f 60/78/45 61/79/45 64/82/45 63/81/45
f 61/79/46 62/80/46 65/83/46 64/82/46
f 62/80/47 72/93/47 73/97/47 65/83/47
f 56/74/48 66/84/48 69/88/48 68/87/48
f 66/84/49 67/86/49 70/89/49 69/88/49
f 67/85/50 79/105/50 80/106/50 70/90/50
f 68/87/51 69/88/51 72/94/51 71/91/51
f 69/88/52 70/89/52 73/95/52 72/94/52
f 70/90/53 80/106/53 81/107/53 73/96/53
f 57/75/54 74/98/54 77/102/54 76/101/54
f 74/98/55 75/99/55 78/103/55 77/102/55
f 75/100/56 63/81/56 64/82/56 78/104/56
f 76/101/57 77/102/57 80/106/57 79/105/57
f 77/102/58 78/103/58 81/107/58 80/106/58
f 78/104/59 64/82/59 65/83/59 81/108/59
f 65/83/60 73/97/60 81/108/60
f 82/109/61 85/112/61 88/115/61 87/114/61
f 85/112/62 86/113/62 89/116/62 88/115/62
f 86/113/63 98/127/63 99/129/63 89/116/63
f 87/114/64 88/115/64 91/118/64 90/117/64
f 88/115/65 89/116/65 92/119/65 91/118/65
f 89/116/66 99/129/66 100/133/66 92/119/66
f 83/110/67 93/120/67 96/124/67 95/123/67
f 93/120/68 94/121/68 97/125/68 96/124/68
f 94/122/69 106/141/69 107/142/69 97/126/69
f 95/123/70 96/124/70 99/130/70 98/128/70
f 96/124/71 97/125/71 100/131/71 99/130/71
f 97/126/72 107/142/72 108/143/72 100/132/72
f 84/111/73 101/134/73 104/138/73 103/137/73
f 101/134/74 102/136/74 105/139/74 104/138/74
f 102/135/75 90/117/75 91/118/75 105/140/75
f 103/137/76 104/138/76 107/142/76 106/141/76
f 104/138/77 105/139/77 108/143/77 107/142/77
f 105/140/78 91/118/78 92/119/78 108/144/78
f 92/119/79 100/133/79 108/144/79
f 3/3/80 29/38/80 41/50/80 20/23/80
f 20/23/81 41/50/81 44/53/81 21/24/81
f 21/25/82 44/54/82 32/41/82 9/9/82
f 9/9/83 32/41/83 31/40/83 6/6/83
f 6/6/84 31/40/84 28/37/84 1/1/84
f 2/2/85 82/109/85 87/114/85 12/12/85
f 12/12/86 87/114/86 90/117/86 13/13/86
f 13/13/87 90/117/87 102/135/87 25/30/87
f 25/31/88 102/136/88 101/134/88 22/26/88
f 22/26/89 101/134/89 84/111/89 3/3/89
f 83/110/90 30/39/90 49/62/90 93/120/90
f 93/120/91 49/62/91 52/66/91 94/121/91
f 94/122/92 52/67/92 40/49/92 106/141/92
f 106/141/93 40/49/93 39/48/93 103/137/93
f 103/137/94 39/48/94 29/38/94 84/111/94
f 30/39/95 56/74/95 68/87/95 47/59/95
f 47/59/96 68/87/96 71/91/96 48/60/96
f 48/61/97 71/92/97 59/77/97 36/45/97
f 36/45/98 59/77/98 58/76/98 33/42/98
f 33/42/99 58/76/99 55/73/99 28/37/99
f 82/109/100 57/75/100 76/101/100 85/112/100
f 85/112/101 76/101/101 79/105/101 86/113/101
f 86/113/102 79/105/102 67/85/102 98/127/102
f 98/128/103 67/86/103 66/84/103 95/123/103
f 95/123/104 66/84/104 56/74/104 83/110/104
f 57/75/105 2/2/105 14/14/105 74/98/105
f 74/98/106 14/14/106 17/17/106 75/99/106
f 75/100/107 17/18/107 5/5/107 63/81/107
f 63/81/108 5/5/108 4/4/108 60/78/108
f 60/78/109 4/4/109 1/1/109 55/73/109
f 1/1/110 28/37/110 55/73/110
