<svg xmlns="http://www.w3.org/2000/svg" xml:space="preserve" width="152.94" height="27.04">
   <g aria-label="Tabulous" style="font-size:21.1667px;font-family:'cabin sketch';-inkscape-font-specification:'cabin sketch';stroke-width:.198607">
      <path d="M53 25.89q-.26 0-.35-.57-.08-.58-.08-1.06v-.62q-.09-.86-.34-2.1 0-.94.04-2.38.04-1.27.04-1.93 0-.25-.08-.34l-.08-.9q-.05-.62-.09-.6h-1.42l-.17-.09q-.42.05-.55.05-.27 0-.7-.09-.42-.08-.42-.23l-.06-1.9-.04-.13-.05-.13q0-.25 1.44-.25.21 0 .55.08 2.42 0 3.18.09.17.02.55.02l.42.02q.34.02.6.13h3.68q.19 0 .23.04.04.04.04.19 0 .21-.06.65-.06.22-.06.5l.02.69-.09.1-.68-.02q-.42 0-1.01.11l-.53.06q-.38.05-.68.05l-.4-.03q-.2 0-.47.09v.1q0 .43.17 1.19l.09.47q.27 1.54.27 3.57 0 .72-.06 1.42-.04.89-.04 1.38 0 .53.06 1.03.04.72.04 1.06 0 .21-.06.34-.04.1-.21.1zm-3.78-11.56q-.12.25-.12.3h.12q.13 0 .3-.43.17-.38.34-.63.17-.28.44-.45-.12.05-.17.05-.08 0-.14-.02l-.1-.03-.28.03q-.09 0-.15-.03-.21 0-.32.07-.1.04-.1.23 0 .2.1.45.08.3.08.46zm1.82.13q.39-.15.94-.53.55-.4.82-.72-.08-.04-.3-.04-.19 0-.46.2-.28.2-.36.28-.02 0-.21.28-.2.25-.43.44zm.17-1.27q-.46 0-.95.34-.49.31-.49.78.2 0 .96-.44.76-.47.9-.66zm.68 1.01q-.17.17-.5.36-.35.17-.4.24-.03 0-.07.04l-.04.02.48.02q.57 0 1.2-.21.66-.23.66-.53v-.1q-.1.1-.31.1h-.1q.12-.17.37-.27.26-.13.51-.2l.32-.08.36-.1q.3-.09.36-.2-.2 0-.34.02-.13.03-.21.03-.07 0-.2-.05h-.7l-.06.17q.11 0 .22-.04.1-.04.17-.04.04 0 .12.08-.1.09-.25.17-.15.07-.26.07l-.25-.07q.02.1-.44.6-.47.46-.68.46l-.02-.04q-.02-.04-.02-.09.02-.06.1-.19.09-.12.15-.17zm3.87-.72q0 .17-.12.3-.13.13-.15.17-.28.23-.28.42l1.7-1v-.08l-1.17.09zm2.25-.14q-.36 0-.53.04-.04 0-.91.65-.85.64-.93.77h.1l.66-.51v.08q.08-.1.32-.23.25-.15.5-.27.79-.39.79-.53zm-5.27 1.96.02.07q.04.04.06.04.6-.19 1.38-.89.8-.7.85-.72.08-.04.23-.08.15-.07.17-.13.04-.06.04-.21-.13.08-.3.1-.14 0-.3.07-.4.17-.92.59-.43.3-.72.47-.3.17-.62.25l.1.17q.07-.06.2-.1.15-.07.21-.07zm5.65-1.43q-.3.1-.72.4-.42.27-.6.53l1.07-.55.7-.38v-.47q-.13 0-.3.15-.17.12-.17.25 0 .04.02.07zm-8.4.57q-.17 0-.45.36h.85q.08 0 .32-.32.25-.32.42-.61l-1.08.59zm6.1.36q.01.02.06.04l.08.02q.32 0 .7-.25.4-.26.63-.58-.23 0-1.01.51l-.47.26zm2.79-.66q-.15.13-.58.32-.4.17-.65.25l1.23.09zm-6.14 1.9q0 .09.06.09l.83-.4q.04 0 .1-.28l-.02-.12.28.06q.12-.06.42-.3.32-.25.4-.38-.1-.02-.1-.15 0-.08.02-.1-.74.63-1.59 1l.02.08.06.02q.07 0 .15-.04.09-.07.2-.07-.03.1-.11.17l-.2.09-.12.04q-.4.08-.4.3zm2.16 1.64q0 .27-.34.5-.34.24-.98.55-.5.26-.6.34-.28.24-.28 1.08.12 0 .88-.6.79-.6.9-.75-.24 0-.66.27v-.1q-.2.27-.85.42v-.2q.2 0 .4-.08.21-.1.57-.31.4-.26.7-.38.3-.15.62-.15 0-.68-.13-1.82-.13-1.17-.28-1.17-.19 0-.76.4-.06.05-.38.24-.3.17-.49.21h.24l1.18-.4.09-.02q.12 0 .17.08l-.43.42q-.1.09-.36.22-.25.1-.42.23-.17.13-.17.23.15 0 .62-.1.42-.13.65-.13l.02.21q0 .1-.08.17-.09.06-.32.17-.21.08-.25.17-.3.19-.77.76l1.25-.6q.05 0 .15.05.1.02.1.09zm-.79-1.55q-.48 0-.95.21-.44.21-.44.62.3 0 .55-.15.25-.17.48-.36l.36-.32zm-.72.83q-.12 0-.38.2l-.27.22.06 1.7q.07-.07.53-.39.49-.34.49-.49l-.43.17q-.25.11-.42.11l-.06-.06-.04-.07q0-.04.16-.2.2-.18.26-.26l.63-.47q.55-.4.55-.63-.17.12-.53.23-.33.1-.55.1zm1.49 2.96q0 .21-.28.42-.25.2-.8.53-.4.21-.58.36l1.76-.68q.13.07.2.07.23 0 .23-.45 0-.12-.07-.25-.04-.13-.04-.28 0-.14.04-.25.04-.1.04-.17 0-.15-.06-.38-.04-.23-.1-.36-.03.13-.22.32-.17.19-.27.27-.24 0-.43.13t-.5.42q-.38.38-.66.51v.1q.28 0 .53-.06l.32-.08q.55-.17.89-.17zm-2 1.4.39-.36q.2-.22.44-.4.23-.2.51-.32-.3 0-.76.12-.51.13-.72.13v.91zm.32 4.04q0 .1.02.15.05.04.17.06.15 0 .22-.04.08-.07.14-.2l.17-.2q.09-.07.3-.07.15 0 .17.1-.04.07-.15.11-.1.05-.19.05.36.1.78.19l.66.08q0-.13-.08-.36-.09-.23-.09-.34l.02-.04.04-.02q-.02-.04-.08-.06-.06-.03-.13-.03-.08 0-.1.11 0 .1-.05.17-.04.06-.23.06-.15 0-.19-.04-.04-.04-.06-.1-.02-.07-.07-.11l.11-.13q.08-.08.15-.12-.1 0-.38.08-.28.06-.4.06 0-.14.84-.42.53-.17.53-.23v-1.5q.04 0 .06-.32l.03-.47q0-.89.08-.89l.06-.08-.17-.17q-.08.19-.23.32l-.36.23q-.19.1-.32.21l-.33.23-.51.34v.09q.25-.02.59-.15.38-.15.7-.15-.02.23-.28.44-.25.22-.72.51-.53.3-.53.43l.4-.22q.32-.16.58-.25.25-.1.48-.1.11 0 .15.02.05.02.05.14 0 .22-1.04.74l-.4.26-.39.25q.2 0 .53-.12.3-.13.47-.13.02 0 .06.04.05.02.05.04 0-.02.08-.1.08-.09.15-.13.08 0 .17.09.1.06.1.12 0 .15-.27.32l-.85.49-.42.23q.1.02.1.17 0 .08-.1.19-.09.08-.09.17zm-.42-3.56v.45q0 .27.04.48.05.22.15.4.1-.12.45-.33.3-.2.44-.32.17-.15.19-.34l-.25.09q-.17.06-.24.17-.02-.09-.14-.09-.09 0-.17.02l-.09.02q0-.25.21-.44.21-.21.6-.47.48-.34.59-.46l-.83.34-.38.06q-.25.04-.42.15-.15.08-.15.27zm.17 1.8q0 .09.02.17.02.06.09.13.08-.09.46-.34.38-.28.38-.36l-.02-.06q-.25.02-.6.17-.33.12-.33.3zm.1 1.14q.17-.1.45-.23.28-.12.42-.23.17-.1.17-.21-.2 0-.5.08-.28.1-.53.1z" style="-inkscape-font-specification:'cabin sketch Bold';fill:#000;fill-opacity:1;stroke:none;stroke-width:.198607" transform="matrix(1.3322 0 0 1.3322 -24.02 -14.23)"/>
      <path d="M68.23 23.86q.15.31.38.4.26.08.66.1.38.03.53.11.17.06.17.34 0 .13-.04.42-.05.28-.05.95l-.08.11h-1.02q-.08.1-.44.1-.32 0-.55-.02-.24 0-.51-.08-.23-.06-.64-.42-.04-.05-.19-.15-.14-.13-.27-.2-.1-.06-.23-.06-.3.26-1.02.58-.72.33-1.14.33-.93 0-1.68-.16l-.55-.11q-.4-.06-.72-.21-.31-.17-.44-.43-.32-.6-.47-1.03-.14-.43-.25-1.04-.13-.17-.13-.36 0-.87.28-1.31.27-.45.85-.91.27-.21.55-.49.53-.44 1.12-.61.61-.2 1.37-.2l.49.05q.36 0 .55.04v-.19q0-.61-.06-.9-.07-.3-.32-.47-.25-.17-.85-.17-.63 0-1.12.17-.49.14-1.29.52-.25.15-.36.15-.13 0-.19-.1l.02-.28q0-.27-.08-.82-.11-.47-.11-.83 0-.32.42-.53.45-.21.83-.25l1.65-.34q.13.02.32.08.19.07.3.09l.73.12q.6.11 1.06.28.47.15.93.38.53.64.9 1.8.35 1.16.35 2.01 0 .2-.04.4l-.06.3q-.1.36-.1.66 0 .25.06.55.08.27.19.55.25.74.3 1.08zm-5.12-7.77-.42.2q-.28.14-.49.28-.2.15-.25.32.67-.19 1.54-.72-.17-.08-.38-.08zm.61.17q-.1 0-.34.3-.23.29-.23.42.1-.1.49-.34l.44-.28q-.04-.02-.17-.04l-.19-.06zm-2.88.61q0 .1.05.15.06.04.1.04.07 0 .55-.3.51-.31.51-.44-.1 0-.57.13-.47.1-.64.17l.03.06.08.02-.06.07q-.05.02-.05.1zm3.8-.53q-.15 0-.28.1-.13.11-.17.26l.08.02q.15 0 .26-.12.1-.13.1-.26zm.73.47q-.06.04-.16.19-.11.12-.15.19-.2.34-.32.4l.06.04 1.3-.57.02.06q.04.05.06.05l.08-.05.09-.06q0-.08-.53-.34-.5-.27-.61-.27h-.22l-.8.53-.09.19q.17-.13.53-.26.38-.12.6-.12zm-1.27-.17q-1.05.63-1.18.63h-.2q-.05-.06-.05-.12 0-.11.14-.26l.22-.19h-.11l-.8.47-.13-.02q-.2 0-.47.1l-.23.07q-.15.04-.25.04v.8q.3-.08.8-.34.38-.19.63-.27.28-.1.6-.1l.23.01zm.09.89q.13 0 .23-.07.13-.08.13-.19l-.28.05q-.23.02-.27.14.06.07.19.07zm2.45.12-.08-.17q-.04-.14-.1-.2l-.2.06q.09.02.09.12 0 .07-.02.1l-.02.1-.22-.05-.25.23q-.23.2-.23.24.17-.04.55-.17.38-.15.48-.26zm-1.56.43q.17-.09.5-.3.37-.21.51-.32l-.1-.02q-.13 0-.62.2-.46.16-.46.25 0 .19.17.19zm1.78.15q-.05 0-.13.08-.06.06-.4.06h-.05l-.02-.02.09-.19q0-.02-.04-.04-.03-.04-.05-.04-.31.19-.65.25-.32.04-.34.09 0 .12.08.31.1.17.15.17l.28-.2q.23-.18.31-.18.05.02.09.07l.08.02q-.19 0-.19.17l.02.1q.11-.08.26-.15.15-.06.25-.06.02 0 .07.1.04.11.04.2-.21.17-.6.44l-.54.38q.25 0 .5-.06.34-.04.51-.04.21 0 .3.1-.13.21-.36.28v-.13q-.66 0-.9.13-.05.02-.37.31-.3.28-.38.28-.07 0-.07-.06.02 0 .07-.07l.06-.1q-.91.38-1.27.8.55-.36 1.08-.36l.1.02q.09.02.15.07.17-.03.72-.28.68-.34.93-.34l.28.07q.23.02.23.08 0 .13-.06.21-.06.07-.25.2-.17.1-.2.25.05-.02.15-.02.2 0 .28.1.15-.17.17-.38.04-.21.04-.53 0-.38-.15-1.23-.15-.86-.27-.86zm-.34.65q-.02.02-.49.2-.08.01-.49.18-.38.15-.38.24l.02.08.07.04q.23 0 .67-.23.45-.25.6-.5zm-3.98 1.25.32-.13q.27-.12.27-.2-.44.06-.72.22-.27.15-.76.47zm1.59-.32q-.9 0-1.21.74.13 0 .42-.17.4-.2.76-.31.36-.13.9-.13-.4-.13-.87-.13zm-3.45 4.93q.04-.19.19-.33.17-.15.44-.32.4-.3.53-.47h-.25q.3-.15.44-.34.15-.2.32-.57.12-.3.32-.57.16-.23.82-.74l-.13-.06-.06-.1q.08-.14.49-.54.19-.15.4-.38-.42.13-.95.45-.53.3-.77.55-.16.19-.46.36-.3.19-.42.36.19 0 .25.1.15-.21.38-.38t.45-.17q.02 0 .04.06.04.05.04.09-.08.08-.47.34-.5.38-.5.4l-.13-.17-.34.17h.23l.02.04q.03.02.03.07l-.22.12q-.12.07-.19.15-.06.06-.06.17l.4-.17q.09 0 .13.09.3-.34.53-.34 0 .15-.28.38-.27.21-.74.53-.61.42-.76.59.09 0 .34-.15l.66-.4q0 .13-.11.23-.1.09-.32.21-.44.28-.48.47l.04.15q.06.12.15.12zm-.11-2.7.27.12q.09 0 .28-.15l.28-.23.4-.27q.15-.13.27-.3.09-.13.4-.44l.09.19.1-.47q-.25 0-.76.23-.5.24-1.06.6.03.08.11.08l.15-.02q0 .1-.13.32-.1.2-.25.2-.09 0-.15-.05zm4.91-.6q.13 0 .28-.15.16-.14.3-.14.03 0 .06.08l.06.09q.04-.15.19-.32.15-.2.27-.23-.33 0-.76.19-.4.19-.4.48zm-.4.96.02-.51q0-.6-.36-.6-.4 0-.89.34-.47.34-.8.85-.32.49-.32.91 0 .5.23.66.23.14.64.14.42 0 .84-.14.45-.17.64-.49l.02-.57zm1.63-1-.43.1q-.27.07-.46.18-.2.08-.2.27 0 .42.1.64l.92-.91zm-.45 1.08q.2 0 .49-.1.32-.13.32-.3 0-.36-.09-.4-.06 0-.2.06-.14.04-.14.13 0 .04.07.08zm-5.56-.1q-.17 0-.3.23-.13.2-.13.3l.02.2q.5-.16.5-.35-.22 0-.22-.13 0-.07.06-.13.07-.06.07-.13zm6.45.1v-.08l-.17.08zm-.5.17q-.17 0-.47.04-.21.07-.47.07v.46q.15-.17.32-.25.2-.09.36-.13l.25-.08zm.63.02q-.34.06-.57.28h.21q.17 0 .25-.05.11-.06.11-.23zm-1.59 1.44q.34-.02.57-.17.26-.15.62-.47l.42-.35-.74.16q-.61.13-.74.22-.13.08-.13.36zm-5.4-.25q.13-.03.39-.28.27-.25.3-.36-.11.15-.43.3-.3.12-.32.15zm7.24-.47q-.04 0-.14.06l-.11.05.06-.2q-.1.05-.34.24-.2.19-.3.32l.26-.13q.17-.09.32-.09l.06.03.1.38-.73.34v.08l.17-.04.19-.04.21.02.02.12q.04.07.04.1 0 .07-.19.18-.17.1-.17.19l.28-.1.97-.43q-.1-.1-.3-.25-.18-.17-.31-.34-.1-.17-.1-.36zm-6.13 2.18q.25 0 .63-.4.38-.43.38-.68 0-.13-.15-.15-.15-.02-.15-.1l.03-.07q.04-.06.06-.06l-.2-.36-.33.3q-.38.3-.38.42l.02.1q.13-.06.28-.1.14-.04.25-.17 0 .17-.13.28-.1.08-.31.19-.26.12-.36.23-.11.1-.11.3l.02.08.21.13.24.06zm5.88-1.71q-.13.02-.4.25zm-1.3.8.16-.08q.08-.03.1-.07.04-.06.1-.21-.16.1-.46.17-.3.06-.5.06v-.36q-.09-.06-.22-.06-.25 0-.53.23-.25.24-.48.51-.21.25-.24.25.15 0 .55-.27.43-.28.62-.44.13.04.13.2-.83.7-1.72 1.23l.42.03q.45 0 .96-.2.5-.2.76-.55l.15-.2q.06-.13.2-.24zm-2.95 1.16q.02 0 .08-.06.08-.08.1-.13 0-.04-.04-.08t-.04-.06q.13 0 .42-.3.32-.32.32-.45-.06 0-.21.05-.13.02-.3.02 0-.13.02-.13l-.2-.04q-.18-.06-.3-.06-.21 0-.43.25-.19.23-.25.47.15-.09.4-.09h.23q-.04.02-.16.15l-.2.21q0 .13.05.17.06.02.19.02.2 0 .32-.13zm5.6-1.01q0 .06-.04.17l-.06.19q.04 0 .21-.15l.25-.21q-.04-.04-.23-.13l-.19-.1q.06.12.06.23zm-2.13.4q.02 0 .14-.19.13-.19.17-.28l-.25.07q-.21.06-.21.21 0 .2.15.2zm2.75.61q.06 0 .1-.4.07-.4.09-.61-.17 0-.83.61-.31.32-.44.4zm-.98-.95q-.38.09-.52.32-.15.23-.15.66l.67-.7q.07-.07.07-.17t-.07-.1zm-.93.43-.46.16.08.11q.07.06.2.06zM80.5 20.09q0 .23.14.23-.07 1-.32 1.9-.26.9-.7 2.04-.04.21-.17.36-.1.15-.15.19-.17.21-.25.38 0 .04-.32.25-.32.22-.7.4-.38.17-.68.17-.33 0-.97-.04-.63-.04-.95-.04-.13 0-.28-.04-.12-.04-.2-.04l-.18.08q-.17-.02-.36-.17-.19-.17-.3-.34-.04.1-.06.4-.02.28-.08.4-.04.15-.23.15l-.22-.02q-.12-.02-.38-.02-.38 0-.53.26h-1.08q-.14 0-.3-.49-.14-.47-.14-.68.02-.15.02-.46 0-.34-.02-.6l-.04-.42q-.09-.72-.09-1.1 0-.2-.08-.7-.13-.6-.13-.93l.02-.42q.04-.24.04-.47v-2.24l.05-.43h-.13q0-.44.04-.84.04-.4.15-.4l.02-.09q-.08-.04-.08-.49v-.44l-.09-.06q.04 0 .07-.05l.04-.08q0-.13-.1-.42-.1-.3-.1-.45 0-.42.11-.9.09-.56.09-.86 0-.23-.07-.38-.04-.17-.04-.27 0-.04.09-.13l.17-.15q.02.09.12.09.2 0 .49-.04.3-.05.5-.05 1.17 0 1.47.26l.5.08q-.1.3-.1.76l.02.74-.02.68q-.02.8-.06 1.34-.05.5-.17.99l.06.02q.15 0 .74-.25.64-.26.85-.28.17 0 .44.04l.49.07q.13.02.15.06l.06.02.13-.02 1.59.42q.23 0 .38.11.17.09.42.3.23.23.45.34l.25.38q.32.44.46.86.17.43.28 1.36zm-9.03-7.96q-.1 0-.19.36-.06.34-.13.97l-.06.45.1.08q.07-.1.2-.19.12-.08.3-.17.33-.19.52-.34.21-.14.4-.38-.74 0-1.18-.17.27-.12.34-.25l-.09-.09.26-.16q-.07-.03-.2-.05-.12-.04-.2-.04-.03-.02-.07-.02zm.38.5q.7.11 1.06.11.38 0 .53-.25-.06-.13-.36-.2-.28-.05-.47-.05zm.26.94q.02 0 .04.04l.04.02q0 .04-.04.15-.04.09-.04.17.1-.04.2-.21.13-.17.3-.17l.07.06q.08-.04.34-.1.25-.07.38-.13.12-.06.12-.21 0-.13-.04-.2-.02-.06-.13-.08-.06.02-.44.24l-.8.42zm-1.02 1q.08.59.1.59h.24q.49-.38 1.7-1v-.34l-.18.17q0-.02-.04-.04-.02-.04-.06-.04l-.17.08q-.13 0-.49.07-.34.04-.34.17.23-.07.62-.07h.31q-.2.09-.7.21-.48.13-.63.13l-.36-.17v.1zm2.26 1.1v-1.34q-.63.21-.67.21 0 .04.04.09l.06.04q-.04.08-.31.17-.28.08-.36.15l.08.08.2-.02q.18 0 .24.04l.09.02.21-.04.04.02h.13q0 .24-.32.4-.3.17-.65.3l-.53.2q0 .08-.13.27-.13.17-.13.27l.02.21q.15-.04.58-.33.42-.3.5-.43l.09.1.08-.16zm-2.11.25q.17 0 .74-.21.6-.21.65-.34 0-.04-.04-.09-.02-.06-.04-.06-.04 0-.13.08l-.53.03q-.33 0-.5.12-.15.13-.15.47zm2.03.06q-.04.04-.44.17-.51.17-.72.28-.22.1-.22.27h.96q.14-.02.31-.1.2-.11.2-.24zm-.38 9.38q0-.38.19-.5.19-.16.57-.24.2-.04.34-.1.15-.07.21-.18l-.23-.2q-.1-.14-.1-.2-.1.04-.22.06-.1.03-.21.17l-.09-.06q-.04.21-.33.32v-.09l-.17.2-.17.14-.09-.02q-.04-.02-.06-.06l.42-.43h-.15q0-.12.13-.17.13-.06.4-.08.3-.02.3-.1 0-.1-.1-.24-.1-.15-.18-.15l-.23.02q-.06 0-.06-.02 0-.04.13-.17-.26 0-.6.05-.34.04-.48.04h-.15q-.2 0-.2-.09 0-.14.11-.25.13-.1.38-.23.4-.26.64-.51.23-.26.23-.68-.15.06-.57.28-.4.19-.61.19l.02-.17.06-.21h-.27v-.11q0-.25.1-.25l.09.02q.59-.51 1.41-.85 0-.06-.04-.13-.04-.06-.04-.1 0-.02.21-.26l.38-.42q.13-.47.85-.87h-.28l.11-.12h-.17v-.09l.53-.23q.49-.23.7-.53h-.07l-.7.32q0 .04-.04.04-.06 0-.14-.1-.07-.11-.15-.11.04-.05.06-.05l.06-.04.15.09q.1-.2.28-.26.17-.08.44-.15.24-.06.34-.12.1-.09.1-.24l.18.03q.04 0 .36-.32-.22.02-.6.19-.38.19-.65.19v-.15l.44-.13q.36-.12.53-.36-.19-.1-.49-.1-.17 0-.67.1-.49.09-.91.26-.15.06-.22.36-.06.3-.2.38-.2.1-.7.27-.39.13-.56.22-.17.08-.17.19.4 0 .75-.13.36-.15.82-.4.68-.34.95-.43l.15-.1v.19q-.1 0-.53.19-.42.17-.42.34h.3v.17q0-.02-.05-.04-.02-.03-.04-.03-.13 0-1.01.47-.9.44-1.08.6h.16q0 .18-.08.18l-.08-.04-.09-.06-.34.17-.06-.02q0-.2.32-.39.33-.2.89-.46.4-.17.44-.21l-.21-.02q-.13 0-.68.14-.42.13-.55.13-.04 0-.15-.04-.08-.04-.08-.13.55-.4 1.01-.6l-.08-.08q.13-.17.44-.2.22-.05.3-.11.1-.09.1-.28-.18 0-.4.1l-.42.24q-.21.15-.44.25h.25q-.09.13-.32.2-.23.06-.42.06 0-.15.13-.28.12-.12.36-.3.25-.16.42-.35l-.3-.02q-.17-.05-.3-.05-.12 0-.33.07-.2.04-.34.04v2.81q.19 0 .19.17 0 .09-.1.22-.11.12-.11.25.25 0 .55-.2.38-.18.57-.18-.06.08-.34.23-.25.15-.25.28.15-.13.61-.24.49-.1.74-.1v.17q-.3.04-1.01.17-.72.12-.85.23 0 .38.06.68.07.57.07.7.04-.11.17-.2l.16-.1q0 .19-.14.34-.13.12-.15.25.27-.17.68-.27.4-.11.74-.11v.17q-.34 0-.83.13-.46.12-.6.34l-.01.06q-.02.02-.05.02l.07.08v.68l.1.07q-.04.46-.04.95 0 1.14.26 1.14.04 0 .27-.15l.34-.25.08.06.09-.15-.28.03q-.2 0-.4.06 0-.17.21-.34l.3-.25.08.06q-.27.27-.27.32h.53q0 .2.08.3.1.06.34.06v.08q0 .07-.53.1-.4.03-.61.07-.21.04-.21.17v.13q.76 0 1.08-.13l.02.04q.04.04.08.04.66 0 .66-.5 0-.09-.17-.13-.15-.04-.21-.04l-.13.02h-.21zm3.8-8.7q-.03.21-.22.25l.06.1q.06.07.08.07.07 0 .24-.12.19-.15.34-.17-.36 0-.5-.13zm.94.25q-.17 0-.42.3-.28.32-.47.32l-.13-.02-.04-.07q0-.04.07-.08l.1-.1q-.21 0-.3.06-.06.06-.14.2-.07.16-.17.22l-.45.23q-.78.42-.8.45.15 0 .97-.36.85-.36 1.02-.51.06.08.13.08.06 0 .1-.08l.09-.13.1.06q.1-.12.23-.19.15-.08.28-.12l.25-.09q-.17-.17-.27-.17l-.13.09-.19.15zm.6.53q0 .07-.11.15-.1.06-.17.06l-.04-.02q-.03-.02-.03-.06-.02.1-.17.25-.12.13-.25.2-.13.08-.23.25-.09.15-.2.25-.08.1-.25.15.13.02.3.2l.21.2q.1-.04.34-.27.23-.24.6-.38-.1.19-.26.25-.17.04-.26.17l.07.06 1.44-.4q.27 0 .4-.08l-.17-.51q-.1.02-.32.13l-.36.2q0-.12.09-.2.08-.09.17-.15l.19-.15q-.26 0-.53.1l-.32.13-.44.2q-.24.06-.45.06 0-.13.23-.24.26-.12.72-.27l.36-.13q.26-.1.26-.17-.09 0-.28-.06-.17-.09-.23-.1l-.19.08q-.13.02-.13.1zm-2.36.21q.15 0 .26-.17l-.34.17zm.45.7q.2 0 .8-.36.62-.38.62-.5-.13 0-.94.33-.78.32-.93.43.09.06.24.08l.2.02zm.68-.15q-.03-.02-.07-.02-.1 0-.23.1-.1.11-.15.14.45 0 .45-.22zm2.87 2.95q.2 0 .26-.2.08-.18.08-.4 0-.42-.1-.93-.1-.5-.3-.78l-.27.13q-.22.1-.39.1 0-.06.26-.2.25-.16.4-.2-.04-.1-.19-.1-.32 0-.8.14-.47.15-.9.34l-.42.21q.02.07.09.17l.12.23q.34-.12.43-.12 0 .08-.15.17-.13.06-.21.06v.09q.25 0 .72-.17.5-.17.72-.17v.14q-.15.05-.53.11-.38.04-.62.2-.23.12-.23.37.1 0 .28-.04.19-.04.34-.04l-.51.34v.08q.34 0 .97-.17.64-.17.95-.17v.09q-.25.08-.44.17l-.21.08v.15l-.3.06q0-.02.06-.08.07-.07.09-.17-.23 0-.61.17-.45.15-.6.15 0 .17.09.38l.34-.2q.2-.14.42-.14l-.38.23q-.26.13-.38.28.17-.09.27-.09l.15.09.83-.26q.59-.19.67-.25zm-7.26-1.74q-.19.02-.46.3l-.15.15q-.1.1-.23.1v-.13l-.17.09v-.09l.65-.4q.45-.3.45-.32-.04 0-.1.03l-.16.04V19q.28 0 .62-.17v.23q.1-.27.32-.34.2-.08.59-.08 0 .4-1.36.85zm4.7 3.3.07-.89q.08-.84.08-1.33 0-.23-.21-.61-.2-.4-.47-.7-.27-.3-.48-.3-.07.04-.8.13-.75.08-1.32.7-.57.59-.57 1.97 0 1.08.49 1.88.48.78 1.52.78.19 0 .32-.08.12-.09.3-.26.25-.3.46-.33.1-.15.25-.32l.26-.32q.1-.15.1-.32zm2.06-3.15q0-.15.36-.15.1 0 .14.09-.14.04-.27.2t-.15.16l.09-.2q-.05 0-.11-.04l-.06-.06zm-5.74.08q0 .02-.25.17l-.32.21-.02-.14q0-.1.08-.13-.06-.02-.06-.13 0-.06.15-.12.14-.07.27-.07.09 0 .1.04.05.05.05.17zm-1.48.3.08-.1q.09-.09.13-.09l.36.1zm.12 1.65q.28-.23.66-.34.15-.04.23-.1.09-.07.2-.32-.43 0-1.09.5 0 .03.05.07.04.04.04.06 0 .05-.04.09-.05.02-.05.04zm7.77-.34q-.67 0-1 .43l-.16-.09q.04-.04.1-.06.07-.02.07-.1l-.34.16.06.17-.82.42v.2q.12 0 .34-.07.23-.06.33-.06-.06.12-.42.2-.21.05-.32.11-.1.05-.1.2l.04.06.06.02-.02.08h-.08v.17q.19-.08.38-.08h.21q-.06.1-.21.17-.13.06-.21.13-.09.06-.09.23.05 0 .28-.15.25-.17.4-.21l.02.08q0 .07-.06.13-.07.04-.07.06l.03.07.5-.1q.34-.05.49-.1l-.04-.23-.04-.08.17-.09-.11-.02q-.38 0-.49.2h.24q0 .1-.09.14-.06.02-.23.02-.1 0-.21-.08-.11-.1-.11-.21 0-.2.44-.2.34 0 .53-.08.22-.1.22-.42-.07 0-.15-.04-.09-.05-.21-.05-.13 0-.28.05l-.25.02q0-.1.23-.17.23-.09.42-.09h.09q.2 0 .23.09zM73.2 22.8q0-.3-.13-.3-.15 0-.47.34l-.32.34q.09-.02.36-.02.28 0 .4-.04.16-.05.16-.22zm4.52.46q-.04.02-.14.15t-.13.2l.02.06.32-.32zm-4.86.26q0 .17-.1.27-.1.09-.3.2-.2.08-.26.18h.25v.13q-.14 0-.31.09-.15.08-.32.08 0-.3.36-.57.38-.3.68-.38zm5.52 1.1q.49 0 .66-.23.19-.26.34-.87-.11.08-.36.17-.26.08-.39.14h-.25l.17-.16q-.55 0-1.16.19-.62.19-.62.53.17 0 .36-.15.2-.17.4-.17.07 0 .13.02.09 0 .13.02l.1.06.17-.17h.9l.1.11q-.15.02-.62.21-.46.2-.48.28zm-1.12-.32q.06.13.34.13l-.17.17q.3-.1.42-.17-.19-.17-.42-.17zm-.64.21v-.17h-.08l-.5.49.16.02q.15 0 .45-.17l.16-.08q.13-.07.24-.09zm-2.4.51q.12 0 .41-.1.32-.13.32-.22-.02-.02-.1-.04l-.13-.06q-.34.12-.5.34zm2.09.57q.34 0 1.29-.27.95-.3 1.03-.51h-.33q-.02.08-.07.1-.02.03-.08.03-.07 0-.2-.05-.12-.06-.2-.06-.4 0-1.17.3l-.38.12q-.23.09-.4.1l-.57-.05q0-.11.15-.17.14-.09.27-.11.15-.04.23-.08-.2-.17-.67-.17-.39.42-.68.44 0 .15.25.28.26.12.43.12.12 0 .33-.04.24-.04.34-.04l.15.04.28.02zM92.26 23.9q0 .44.12 1.29l.07.57q.04.38.04.68 0 .36-1.17.36-.6 0-.82-.02H90q-.1-.1-.57-.15-.44-.04-.61-.13-.09 0-.47.17-.46.26-.72.28l-1.9-.07-.2-.1q-1.5-.53-2.24-1.97-.72-1.44-.9-3.1-.2-1.66-.2-3.84 0-.79.04-1.23.05-.45.2-.72h2.64l.28.1q.14.07.14.51 0 .3-.06.7l-.08.53q-.15.7-.15 1.08 0 .76.15 1.84l.08.8q.04.62.4 1.25.38.62.87 1.02.5.4.95.4.24 0 .38-.08.17-.09.28-.09.17 0 .32.05.31 0 .46-.32.17-.34.17-.72 0-.3-.17-.98-.2-.72-.2-1.24l.01-.91-.1-3.29q0-.36.06-.59.06-.23.27-.23.43.04 1.6.21 1.18.15 1.18.25 0 .43-.09 1.23-.1.68-.1 1.25t.06 1.19q.04.76.04 1.14l.45 2.58zm-2.88-7.05.36-.13q.23-.08.36-.15l.08-.23h-.44q0 .17-.36.17zm-4.57-.02q0 .13-.8.85-.81.71-1.1.8h.16l1.46-.36q.4 0 .4-1.74h-.42q0 .13.13.26.14.1.17.19zm-1.82.3h.08l.44-.32.58-.43h-1.1zm7.47-.66-.28.27.38.03q.62 0 .8-.3zm.65.46q-.3 0-.93.15-.61.13-.8.3l.08.74q.15-.23.83-.61.63-.36.82-.58zm-8.04.55q-.1.09-.1.3l.02.34q.31-.17.67-.44.38-.3.6-.56-.26 0-.7.17-.45.17-.49.2zm8.1.53q.15-.25.2-.82-.17 0-.7.4l-.49.34h.93zm-1.58 1.13q.21-.11.63-.4.43-.3.6-.54-.34 0-.66.07-.1 0-.34.04l-.4.02q-.02.04-.02.21 0 .49.19.6zm1.59-.94q-.2.22-.53.45-.43.3-.55.46.27 0 .55-.06.34-.04.53-.04zm-8.2 1.19q.2-.06.45-.28.25-.23.42-.44.2-.21.24-.3-.07.05-.24.09l-.23.04-.27.09q-.22.04-.34.1-.1.06-.1.15zm.28.47q.8-.51 1.44-.64v-.85q-.49.22-1.06.87-.36.4-.57.57zm6.12.72.08.02q.24 0 .87-.62l.68-.67q-.02-.03-.13-.05-.08-.04-.15-.04-.19 0-.34.2-.12.16-.34.16-.04 0-.08-.06-.04-.09-.1-.1-.09-.03-.26-.05-.15-.02-.15-.06zm-6.31-.47v.66q.32-.3.87-.77.55-.46.76-.61-.15 0-.83.38-.63.34-.72.34v-.09zm8.15.42-.02-.57q-.02-.38-.09-.49-.19.34-.7.75-.27.2-.48.44l.38-.02q.27-.04.32-.1zm-6.41-.06v-.7l-.11-.1q-.23.27-.61.5-.68.45-.83.85zm-.28.3q-.19 0-.83.25-.63.25-.63.38v.8q.04-.23.32-.46.3-.23.76-.5.47-.3.55-.39zm6.29 0q-.26 0-.83.12-.55.13-.55.28l.1.59q.22-.1.79-.44.6-.34.6-.47 0-.04-.05-.06-.02-.02-.06-.02zm-.9 1.1.5-.07q.86-.1.86-.23v-.66q-.06 0-.7.45-.63.42-.65.5zm-5.03.25q-.08.28-.27.47-.2.17-.5.38-.52.4-.67.7.1-.03.21-.09l.15-.08.5-.17.54-.17q.4-.15.4-.21-.04-.47-.34-1.32-.08-.19-.15-.42-.17 0-.8.53-.64.53-.64.68.11 0 .5-.17.5-.24.8-.24.25 0 .27.11zm6.03-.19q-.31 0-.8.06-.49.07-.49.2 0 .06.09.35.1.28.1.4.43-.18.83-.44.42-.27.63-.55zm-7.85.97q0 .07.08.24.09.17.11.27.25-.32.64-.61.38-.3.72-.49l.02-.19q-.58.2-1.08.4-.49.2-.49.38zm4.66 1.95q-.15.2-.68.61-.32.24-.5.4-.18.18-.28.37l.74-.4 1.08-.6.9-.63q.37-.34.75-.55.19-.13.46-.24.36-.17.6-.31.23-.15.38-.38-.17.02-.4.02-.17 0-.17-.02 0-.07.36-.15.35-.1.6-.13 0-.32-.1-.64l-1.14.75v.27q-.34 0-.6.17-.23.15-.27.47-.23.31-.59.5-.36.2-.7.32l-.44.17zm1.33.34q.06.08.17.13.13.02.19.06.06.02.06.15.09-.04.28-.17.21-.13.42-.21l.79-.47q.67-.4.76-.55-.24 0-.7.09-.5.08-.85.08.04-.17.74-.25.38-.07.6-.15.23-.09.23-.23 0-.28-.09-.45-.8.4-1.41.87-.6.44-1.19 1.1zm-3.5-1.9q-.29 0-.6.2-.32.2-.51.47l.4-.17q.32-.15.5-.27.22-.13.22-.24zm-1.94.93q.08 0 .49-.32l.59-.49-.6.2q0 .03-.16.16-.17.13-.4.2v.25zm.47.55q.25-.24.76-.51.63-.38.89-.66h-.1l-1.94.9q.05.03.11.16t.17.13zm2.1-.64q0-.06-.07-.17-.04-.13-.04-.19-.3.1-1 .57-.7.45-.74.7.02.02.06.02.07 0 .13-.08.09-.1.1-.13zm-.64 2.2q.14 0 .86-.67.3-.3.62-.56.32-.27.5-.33-.02-.05-.06-.07l-.08-.02q0 .02-.93.53l-.55.3-.11-.1q-.1.2-.61.37-.02-.02-.09-.04-.04-.04-.04-.1 0-.13.17-.28.19-.15.53-.34.38-.21.6-.38.2-.2.2-.34h-.3l-.99.5-1.1.6q.34.55 1.38.93zm6.18-1.84q-.3.2-.49.42-.17.22-.32.32t-.48.28q-.43.2-.62.36.26 0 .53-.1.3-.14.76-.39l.34-.17q.23-.13.38-.17zm-4.64.2q-.04-.05-.13-.07l-.1-.02q-.2 0-.55.3l-.4.33q.27 0 .74-.32.3-.17.44-.23zm.36 1.64q0-.19.15-.36.15-.15.4-.34.32-.25.36-.31l-2.1 1.1q-.48.15-.48.17l.49-.02q.31 0 .46.02l.49.02q.23 0 .32-.1-.09-.05-.09-.18zm3.07.09q.8 0 1.4-.09 0-.44-.1-.7-.1-.25-.1-.31l-1.7.82q-.1 0-.18.04l-.1.05q.2.19.78.19zm-2.62-.26q.38 0 .7-.19.33-.2.33-.57h-.2q-.11 0-.47.34t-.36.42zM99.05 25.55q0 .61-.13 1l-.8-.15q-1.04-.17-1.78-.39-.72-.19-1.27-.65-.53-.47-.53-1.27l-.08-.74-.02-1.4q-.02-.36-.02-1.02 0-.6.02-.9l.02-.96v-.23q0-2.6.1-4.42.1-1.82.53-3.67h.1q.24 0 .26.09l.83.15q.82.19 1.37.2l.09.11q0 .39.06.74.04.47.04.72-.67 2.06-.67 5.08 0 1.04.15 2.1.14 1.04.42 2.48l.1.57q0 .61.09.9.08.28.21.37.13.06.34.08.23.02.34.07.1.04.21.23zM96.1 11.58q-.36.32-.68.7-.3.38-.3.65h.15q.13 0 .66-.55t.53-.63q-.24.19-.53.19 0-.1.08-.17.09-.06.28-.13.21-.08.27-.15-.34-.12-1.1-.12v.5q.07 0 .28-.14.23-.15.36-.15zm1.14.04q-.25 0-.4.13-.15.13-.28.3l-.19.25.26-.02q.14-.04.25-.04.04 0 .13.06.08.04.1.1-.36.64-1.18 1.47l.1.04.98-.51q.23 0 .23-1.78zm-1.67 1.61q-.34 0-.45.32-.08.32-.08.8 0 .2.06.36l.13.26q.08 0 .42-.3.36-.32.55-.53l-.82.2q-.1-.07-.1-.18 0-.06 1.37-1.48v-.15q-.17 0-.3.09-.1.06-.21.17-.08.08-.13.1-.25.3-.44.34zm0 1.8q.15 0 .4-.13.28-.12.47-.12.04 0 .12.08l.21-.36q.17-.25.17-.49-.3 0-.65.49l-.09-.1q-.06.18-.31.38-.26.16-.32.25zm1.18 0q-.12.08-.74.66-.59.57-.59.65l.5-.15q.43-.14.64-.23.2-.23.2-.93zm-.65.08q-.34 0-.7.24-.34.2-.34.53 0 .17.04.25.2-.13.6-.47.4-.36.4-.44zm-.9 1.68q-.12.06-.16.17-.04.08-.06.23l-.07.23q.1 1.48.1 2.54.28-.21.58-.55.3-.36.42-.53l-.55.2-.23-.05q0-.25.21-.5.21-.26.62-.64.4-.36.4-.47v-.1q-.3.2-.62.27-.3.06-.74.06v-.14l1.36-1.27h-.17q-.07 0-1.08.55zm.45.63.47-.17.44-.19v-.55q-.06 0-.42.34-.36.32-.57.57zm.91.26q-.08.12-.38.31-.15.1-.23.2-.06.08-.06.27l-.13-.04q-.06.04-.15.14-.06.11-.06.17l.02.05h.06q.49-.34.93-.36zm.2 2.83.01-.46q0-.87-.2-1.44-.13.34-.4.63-.28.3-.56.53l-.34.3h.1l.54-.17q.42-.15.65-.2v.1l-.34.3q-.5.52-.74.8-.23.25-.27.44l.42-.24.47-.23q.15 0 .25.09.1.06.1.19 0 .12-.27.46t-.34.4l-.34.4q-.25.32-.25.43.25 0 .5-.1l.3-.13q.22-.1.43-.17.21-.09.42-.09l.02.09q-.31.32-.46.5-.4.5-.64.66l.1.02q.18 0 .28-.19l.09.1q.12-.16.32-.27.2-.1.4-.1.04 0 .1.04l.09.06v-.46zm-.94-.36-.36.13-.23.06q-.21.04-.28.09-.04.04-.04.2 0 .11.02.2.02.08.09.15l.36-.28q.36-.27.44-.55zm-.72 2.46q.24-.2.45-.47.23-.3.4-.57l.25-.4q-.4 0-.8.27-.4.26-.4.6 0 .38.1.57zm-.19 1.18q.28.7.36.95.1.24.13.26.19 0 .55-.47.38-.48.42-.55l.47-.55-.09-.08q-.67.5-1.16.5 0-.16.13-.35.12-.22.3-.43l.27-.36h-.09l-1.06.45v.44l-.12-.06q-.1.1-.1.25zm2.42-.36h-.13q-.13 0-.51.47-.38.46-.68.9l.43-.25.33-.2q.3-.18.43-.32.15-.15.15-.28zm-1.04 2.01q.02-.14.12-.25l.34-.25.38-.3q.13-.13.17-.3-.14 0-.36.13-.19.1-.38.25-.63.47-.95.47 0 .27.47.27zm1.4-.76q-.15 0-.5.23-.33.24-.33.34l.02.05.04.02.32-.22.32-.23q.12-.1.12-.19zm.88.21h-.19l-.44.55-.09.09q.07.13.26.23l.27.13q.2-.2.2-.74zm-1.33.77q.23 0 .32-.11.1-.1.19-.3l.1-.25q-.42.19-.7.34-.25.15-.4.38.1.1.32.1l.13-.02-.2-.17q.1.03.24.03zM110.27 19.52q.53 1.29.53 2.68 0 1.15-.36 1.89-.34.72-1.02 1.2-.67.47-1.8.9l-.42.16q-.23.1-.44.15-.2.04-.47.04-.87 0-1.65-.23-.76-.23-1.76-.68-.15-.06-.61-.2-.45-.18-.76-.35-.38-.19-.8-.78-.43-.6-.73-1.27-.3-.68-.3-1.12 0-1.06.24-1.67.25-.64.97-1.76 1.12-2.2 4.17-2.6h.36q.3 0 .57.08.3.06.57.17l.6.2q1.27.3 1.9 1.05.64.72 1.2 2.14zm-4.55-3.03q-.2 0-.2.38 0 .04.03.06l.06.03 1-.17q-.17-.13-.43-.22-.25-.08-.46-.08zm-1.57.02q-.97.17-1.37.55.42 0 .82-.1.4-.13.55-.45zm-1.8 2.44q-.57.06-.95.19-.36.1-.53.38.93-.47 1.88-.47.2 0 .22.1-.07.05-.13.18-.06.12-.15.19l-1.46.55.1.08q.22-.04.6-.08.49-.07.76-.2.28-.14.47-.54 0-.28.42-.66.44-.4 1.02-.7.57-.3.93-.3.1.07.42.2.34.12.49.12.08 0 .44-.27.38-.3.47-.4.02 0 .1-.09h-.27q0-.1.06-.17.07-.06.21-.1-.02-.03-.08-.05-.06-.04-.1-.04l-.2.13q-.17.08-.17.15.02 0 .05.06.04.04.04.08 0 .28-.83.28h-.15q-.12 0-.12-.06l.27-.36q-.7.17-2.07.78-.64.3-.93.4-.17.06-.24.17-.04.09-.06.23-.02.13-.08.15zm.34-1.53q-.34 0-.68.26-.33.25-.57.63-.2.36-.2.66l.9-.26q.04-.1.13-.23.08-.13.15-.15l1.65-.65-.02-.09q0-.15.14-.21.17-.09.5-.15l.22-.04q.2-.04.26-.13l-.1-.02q-.35 0-.77.2l-.47.2h-.14q-.2 0-.26.07l.09.1-.24.07v-.26h-.08l-.38.34q-.36.3-1.04.3.1-.15.32-.26l.27-.12q.34-.11.4-.26zm5.67-.04q0-.15-.3-.15-.16 0-.5.23-.34.24-.49.4h.09q.7-.25.93-.35l.27-.13zm.32.27-.87.68-.06-.02q-.06 0-.21.1-.13.11-.28.11.07-.1.45-.38.38-.27.38-.3l-.02-.06-.93.36q-.24.1-.26.13 0 .04.3.46.27.36.34.51.23-.17.61-.38.4-.23.49-.23v.19q-.1 0-.28.13-.17.12-.27.23-.1.1-.13.15l.49-.15q.34-.1.57-.21l.02-.05q.04-.04.06-.04.17 0 .28.09.02-.05.02-.13 0-.2-.3-.21-.27-.04-.3-.07 0-.04.03-.1l.08-.23q-.08 0-.3.1-.2.1-.33.1l-.2-.01.83-.36zm-.61 4.83q.65-.49 1.1-.68l-.13-.02q-.15 0-.53.15-.36.13-.44.13-.04 0-.07-.05l-.02-.08q0-.15.17-.32.2-.17.53-.4l.49-.4h-.09l-1.18.44q-.04.02-.15.57-.08.53-.23.7-.57.64-.62.64h-.1q.34-.24.44-.66.1-.44.1-1 0-.46-.14-1.14-.13-.7-.42-1.22-.3-.55-.72-.62-.17.1-.28.1-.13 0-.34-.14-.19-.15-.31-.15-.32 0-.75.32-.4.32-.7.74-.27.42-.27.7l.02.21q0 .08-.1.36-.09.27-.09.68 0 1.03.57 1.71.57.68 1.6.68 1.3 0 2.3-1.2-.09.14-.09.27zm1.56-2.88v-.25q0-.21-.17-.21l-.52.25q-.36.15-.64.34-.27.17-.49.42.17-.02.38-.1l.32-.15q.55-.32.93-.32zm-8.95.2q-.08.08-.08.27.14-.07.67-.26.53-.2.87-.4-.19 0-.68.13-.46.12-.78.25zm9.12.06-.23.08q-.15.06-.21.13-.06.06-.55.36l-.66.38-.08.1 1.73-.59zm-1.94.78q.27 0 .72-.34.46-.34.59-.42H109q-.04 0-1.02.44-.12.06-.12.32zm-5.95-.4q-.76 0-1.19.14-.4.13-.4.68.53-.15 1.27-.42l1.02-.38-.55-.02zm.06.65q.2 0 .47-.08.27-.09.27-.23l-.02-.07q-.06.07-.36.15-.27.08-.55.21zm7.94-.27q-.15 0-.91.63-.23.21-.55.45.44-.09 1-.4.57-.34.57-.68zm-9.7 1.27q0 .15.03.17.36-.21 1.01-.43.85-.27 1.2-.57-.56 0-1.41.21-.83.22-.83.62zm2.48-.55q-.17.12-.93.36l-.47.17q-.33.12-.52.23-.17.08-.17.15.27-.09.72-.13.63-.08.97-.23.34-.15.4-.55zm7.58.46-.09-.38q-.14 0-.3.15-.12.13-.27.25-.15.13-.44.24v.1q.34-.23.82-.27zm0 .17q-.45.38-1.42.85-.76.4-.95.53l-.38.19h.1q.17 0 1.17-.4 1.01-.43 1.4-.62.06-.02.06-.1.02-.1.02-.22zm-9.86.6q0 .12.04.19.04.04.15.04.25 0 1.22-.47l.24-.1.17-.07v-.1l-.09.02-.5.12q-.9.17-1.23.36zm2.24-.34-.87.31q-.61.22-.63.26h.14q.32 0 .9-.09.59-.1.59-.27 0-.07-.05-.13-.04-.08-.08-.08zm-1.65 1.2q.08 0 .8-.25l.98-.38q-.96 0-2 .36.03.08.1.19.05.08.12.08zm7.26-.63q-.3.02-.74.27-.45.24-.45.53.07-.06.24-.15.19-.1.27-.17l.36-.2q.28-.16.32-.28zm.82 1.46q.5-.17.8-.47.33-.32.33-.76-.2 0-1.17.68-.97.65-1.33.93h.19l1.18-.55zm-7.49-.72q.89 0 1.57-.28 0-.04-.05-.1-.04-.09-.08-.09l-.97.28-.22-.02q-.27 0-.27.14zm4.47 1.1q.1.02.1.19v.06l-.8.36q.57 0 1.06-.19.5-.2 1.03-.61l1.06-.7q.8-.5 1.04-.68-.36 0-.72.15t-.85.45q-.46.27-.8.42-.32.15-.66.15v-.2q-.15 0-.57.15-.4.15-.42.26 0-.02-.43-.15-.42-.15-.5-.15 0 .26.34.3l.38.04q0 .06-.53.32-.43.21-.47.27.66-.17.8-.19.47-.1.94-.25zm-4.64-.38q.2 0 .83-.26.65-.27.72-.4l-.2-.06q-.97.3-1.6.3 0 .1.06.25.09.15.2.17zm2.18-.47q-.15 0-.36.07-.21.04-.21.08 0 .06.2.06.14 0 .35-.04l.3-.06q-.13-.1-.28-.1zm-.02.64.49.02q.06 0 .17-.1.1-.11.1-.24zm5.23.82q.27-.12.63-.46.38-.34.38-.57l-.02-.07q-.5.32-1.22.6-.72.25-.85.25-.23.23-.87.49-.23.08-.46.2-.24.13-.43.3l.09.05q.06.04.1.04.1 0 .49-.1.55-.18.76-.18.04.02 1.4-.55zm-7.11-.72q.1.17.27.26.2.06.45.1l1.1-.63-.13-.04zm.82.47q0 .06.32.17.32.08.47.08l.48-.17q.36-.14.68-.31.34-.2.34-.32-.51.3-1.55.42l-.36.07q-.23.02-.38.06zm1.19.44q0 .09.15.09.19 0 .59-.2l.55-.25zm.8.36q.42.1.78.1.11 0 .62-.22.5-.24.8-.43l.05-.02q.02-.04.04-.04-.53 0-1.17.17-.61.17-1.12.44zM122.42 23.9q0 .44.13 1.29l.06.57q.04.38.04.68 0 .36-1.16.36-.62 0-.83-.02h-.48q-.11-.1-.58-.15-.44-.04-.61-.13-.09 0-.47.17-.46.26-.72.28l-1.9-.07-.2-.1q-1.5-.53-2.23-1.97-.72-1.44-.92-3.1-.19-1.66-.19-3.84 0-.79.05-1.23.04-.45.19-.72h2.64l.28.1q.15.07.15.51 0 .3-.07.7l-.08.53q-.15.7-.15 1.08 0 .76.15 1.84l.08.8q.05.62.4 1.25.39.62.87 1.02.51.4.96.4.23 0 .38-.08.17-.09.27-.09.17 0 .32.05.32 0 .46-.32.17-.34.17-.72 0-.3-.17-.98-.2-.72-.2-1.24l.01-.91-.1-3.29q0-.36.06-.59.07-.23.28-.23.42.04 1.58.21 1.19.15 1.19.25 0 .43-.08 1.23-.11.68-.11 1.25t.06 1.19q.05.76.05 1.14l.44 2.58zm-2.88-7.05.36-.13q.23-.08.36-.15l.08-.23h-.44q0 .17-.36.17zm-4.57-.02q0 .13-.8.85-.81.71-1.1.8h.16l1.46-.36q.4 0 .4-1.74h-.42q0 .13.13.26.15.1.17.19zm-1.82.3h.08l.45-.32.57-.43h-1.1zm7.47-.66-.28.27.39.03q.6 0 .8-.3zm.66.46q-.3 0-.94.15-.6.13-.8.3l.08.74q.15-.23.83-.61.64-.36.83-.58zm-8.05.55q-.1.09-.1.3l.02.34q.32-.17.68-.44.38-.3.59-.56-.26 0-.7.17-.45.17-.49.2zm8.1.53q.16-.25.2-.82-.17 0-.7.4l-.49.34h.94zm-1.58 1.13q.21-.11.64-.4.42-.3.59-.54-.34 0-.66.07-.1 0-.34.04l-.4.02q-.02.04-.02.21 0 .49.2.6zm1.59-.94q-.2.22-.53.45-.42.3-.55.46.27 0 .55-.06.34-.04.53-.04zm-8.2 1.19q.2-.06.45-.28.26-.23.43-.44.19-.21.23-.3-.07.05-.23.09l-.24.04-.27.09q-.21.04-.34.1-.1.06-.1.15zm.28.47q.8-.51 1.44-.64v-.85q-.48.22-1.06.87-.36.4-.57.57zm6.12.72.08.02q.24 0 .87-.62l.68-.67q-.02-.03-.13-.05-.08-.04-.15-.04-.19 0-.33.2-.13.16-.34.16-.04 0-.09-.06-.04-.09-.1-.1-.09-.03-.26-.05-.15-.02-.15-.06zm-6.3-.47v.66q.31-.3.86-.77.55-.46.76-.61-.15 0-.82.38-.64.34-.72.34v-.09zm8.14.42-.02-.57q-.02-.38-.08-.49-.2.34-.7.75-.28.2-.49.44l.38-.02q.28-.04.32-.1zm-6.41-.06v-.7l-.1-.1q-.24.27-.62.5-.68.45-.83.85zm-.28.3q-.19 0-.82.25-.64.25-.64.38v.8q.04-.23.32-.46.3-.23.76-.5.47-.3.55-.39zm6.29 0q-.25 0-.83.12-.55.13-.55.28l.1.59q.22-.1.8-.44.59-.34.59-.47 0-.04-.05-.06-.02-.02-.06-.02zm-.89 1.1.49-.07q.87-.1.87-.23v-.66q-.07 0-.7.45-.64.42-.66.5zm-5.04.25q-.08.28-.27.47-.2.17-.49.38-.53.4-.68.7.1-.03.22-.09l.14-.08.51-.17.53-.17q.4-.15.4-.21-.04-.47-.34-1.32-.08-.19-.14-.42-.17 0-.8.53-.64.53-.64.68.1 0 .48-.17.51-.24.8-.24.26 0 .28.11zm6.04-.19q-.32 0-.8.06-.5.07-.5.2 0 .06.09.35.1.28.1.4.43-.18.83-.44.42-.27.64-.55zm-7.86.97q0 .07.09.24.08.17.1.27.26-.32.64-.61.38-.3.72-.49l.02-.19q-.57.2-1.08.4-.49.2-.49.38zm4.66 1.95q-.15.2-.68.61-.32.24-.5.4-.18.18-.28.37.21-.1.74-.4l1.08-.6.9-.63q.37-.34.75-.55.19-.13.47-.24.36-.17.59-.31.23-.15.38-.38-.17.02-.4.02-.17 0-.17-.02 0-.07.36-.15.36-.1.61-.13 0-.32-.1-.64l-1.15.75v.27q-.34 0-.59.17-.23.15-.28.47-.23.31-.59.5-.36.2-.7.32l-.44.17zm1.33.34q.07.08.17.13.13.02.2.06.06.02.06.15l.27-.17q.21-.13.42-.21l.79-.47q.67-.4.76-.55-.23 0-.7.09-.5.08-.85.08.05-.17.75-.25.38-.07.59-.15.23-.09.23-.23 0-.28-.08-.45-.8.4-1.42.87-.6.44-1.19 1.1zm-3.49-1.9q-.3 0-.61.2-.32.2-.51.47l.4-.17q.32-.15.5-.27.22-.13.22-.24zm-1.95.93q.09 0 .49-.32l.6-.49-.6.2q0 .03-.17.16t-.4.2v.25zm.47.55q.25-.24.76-.51.64-.38.89-.66h-.1l-1.93.9q.04.03.1.16.07.13.17.13zm2.1-.64q0-.06-.07-.17-.04-.13-.04-.19-.3.1-1 .57-.7.45-.74.7.02.02.07.02.06 0 .12-.08.09-.1.1-.13zm-.64 2.2q.15 0 .87-.67.3-.3.61-.56.32-.27.5-.33-.01-.05-.05-.07l-.09-.02q0 .02-.93.53l-.55.3-.1-.1q-.11.2-.62.37-.02-.02-.09-.04-.04-.04-.04-.1 0-.13.17-.28.2-.15.53-.34.38-.21.6-.38.2-.2.2-.34h-.3l-.99.5-1.1.6q.34.55 1.38.93zm6.18-1.84q-.3.2-.49.42-.17.22-.31.32-.15.1-.5.28-.41.2-.6.36.25 0 .52-.1.3-.14.77-.39.1-.04.33-.17.24-.13.39-.17zm-4.64.2q-.04-.05-.12-.07l-.1-.02q-.2 0-.56.3l-.4.33q.27 0 .74-.32.3-.17.44-.23zm.36 1.64q0-.19.15-.36.15-.15.4-.34.32-.25.36-.31l-2.1 1.1q-.48.15-.48.17l.49-.02q.32 0 .46.02l.5.02q.22 0 .3-.1-.08-.05-.08-.18zm3.07.09q.8 0 1.4-.09 0-.44-.1-.7-.09-.25-.09-.31l-1.71.82q-.09 0-.17.04l-.11.05q.21.19.78.19zm-2.62-.26q.38 0 .7-.19.34-.2.34-.57h-.22q-.1 0-.46.34t-.36.42zM127.24 19.18q0 .53.51.8.51.28 1.67.66 1.08.34 1.76.65.68.3 1.17.87.48.55.48 1.44 0 .91-.57 1.67-.57.74-1.46 1.08l-.46.22q-.32.16-.62.16-.32 0-.9.05l-.94.02q-.44 0-.85-.1-.4-.1-1-.3-.54-.2-.92-.3-.38-.09-.79-.1l-.08-.11v-2.01q0-.09.27-.09.45 0 1.42.4.6.22.98.34.4.1.76.1.23 0 .44-.03l.51-.17q-.02-.04-.02-.13 0-.19.15-.44.17-.34.17-.53 0-.49-.36-.7-.36-.21-1.06-.36-.64-.13-.89-.3l-.42-.25q-.28-.17-.47-.32-.19-.15-.19-.25-.32-.09-.68-.68-.36-.6-.53-1.06l-.08-.53q0-1.35.93-2.2.93-.85 2.33-.85.17.02.44.09l.6.08q2.15.4 2.79.4.19 0 .34.62.17.61.17 1.23 0 .82-.3.82l-.08-.02q-.24-.4-.62-.55-.38-.17-.8-.23-.4-.09-.4-.13h-.3q-.76 0-1.44.21-.66.21-.66.83zm-.99-2.5q-.04.1-.44.23-.36.15-.58.28-.19.13-.19.4h.13q.25 0 1.67-.63l.43-.17q-.22-.02-.22-.07 0-.04.28-.17.27-.14.3-.3-.85 0-1.1.24zm-1.46 2.29h.19q.08 0 1.19-.47 1.1-.46 1.65-.72l.86-.49.87-.5q-.1-.09-.5-.13h-.2q-.12-.02-.2-.06-.1-.05-.11-.11l-1.82.91q.3 0 .59-.13l.38-.15q.55-.27.93-.27.09 0 .15.04t.06.1q0 .05-2.47 1.15h-.2l-1.37.74zm5.31-2.12q-.12-.06-.36-.06-.17 0-.48.33l-.36.36h.1zm-.27.83q.48 0 .8-.72-.17 0-.38.08-.19.08-.32.17l-.15.08q-.4.26-.52.3.31.09.57.09zm1.27-.45q-.09-.19-.3-.19 0 .15-.13.32l-.14.19.02.06q.02.02.06.02.06 0 .23-.17l.26-.23zm.17.42q-.24 0-.38.05-.15.02-.26.17.36.1.64.1zm-5.3.11q-.4 0-.8.25-.38.24-.38.5 1.04-.26 1.38-.73zm1.3.47q-.34.19-.83.36-.57.23-.95.44-.36.19-.62.49.26 0 .53-.15l.34-.21q.53-.36.85-.36 0 .08-.2.2l-.22.18q-.34.21-.45.34l.32-.1q.23-.11.49-.18.02 0 .23-.38.23-.4.5-.53zm-1.93 1.94q.25 0 .61-.23.38-.23.58-.42-.26.1-.72.19-.51.08-.75.17.03.3.28.3zm.7.07q.23 0 .55-.05.34-.06.32-.12l-.2-.3-.82.47zm-.32.36q.06.1.1.23.07.13.11.17.1 0 .49-.3.4-.3.4-.38-.02-.02-.08-.02-.17 0-.55.15-.36.13-.47.15zm1.57-.2q-.1.07-.36.2l-.4.19.19.08q.02-.04.33-.08l.47-.1.1-.1-.18-.1q-.09-.06-.15-.08zm-1.2.75q0 .04.27.17.27.1.36.1l.99-.55-.76.13q-.66.08-.87.15zm2.23-.2q-.33 0-.67.15-.32.15-.49.4.61 0 1.84-.25l.64-.1q-.77-.2-1.32-.2zm.05 1.02q.23 0 .57-.21.36-.23.61-.23v-.1l-.87.1q-.72.04-1.08.1-.36.05-.33.15.67.2 1.1.2zm.44.2q1.23 0 2.1-.3l-.53-.17q-.49-.2-.57-.2-.07 0-.51.3-.45.28-.49.36zm.6.54q.25 0 .7-.19.44-.2.52-.36-.34 0-.9.1t-.56.26q0 .2.23.2zm2.24-.3q-.26-.18-.47-.18l-1.46.55v.1l.66-.06q.5-.06.82-.15.34-.1.45-.25zm-.47.37-.49.12-.38.09q-.48.08-.7.17-.19.08-.19.31l.03.24 2.2-1-.1-.02q-.1 0-.2.04l-.17.05zm1.02.57q0-.47-.38-.47l-1.72.72-.1.1q.67 0 1.44-.06.76-.08.76-.3zm-2.84.53q-.13.06-.55 1.01.02.05.09.1.06.07.1.07.1-.34.78-.61.68-.3 1.87-.66v-.1q-.72.23-1.57.23-.25 0-.72-.04zm2.65.46q.12-.04.15-.1.04-.09.04-.21 0-.24-.1-.24l-1.83.72v.13q.32 0 .83-.23l.34-.13q.3-.1.57-.1zm-.55.91q.17-.12.31-.34.15-.2.15-.4-.2 0-.59.13l-.89.25q-2.94.7-3.28 1.17.25 0 1.63-.26 1.4-.27 2.67-.55zm-6.76.1q0 .11.09.18.63-.1 1.02-.55-.07 0-.13-.02-.04-.05-.07-.05-.19 0-.52.13-.34.13-.39.32zm.66.28q.5 0 2.27-.38-.39-.27-1.46-.27l-.56.38q-.36.23-.36.25zm.45.17q.16.1.42.15.25.04.38.04l.91-.4-.08-.02q-.05-.04-.09-.04-.32.04-.78.13l-.76.14zm2.66.55q1 0 1.97-.36l-.25-.02q-.15 0-.43.04-.27.05-.4.05.09 0 .09-.17l-1.27.36q.06.06.12.08l.17.02z" style="-inkscape-font-specification:'cabin sketch Bold';fill:#000;fill-opacity:1;stroke:none;stroke-width:.198919;stroke-dasharray:none" transform="matrix(1.3322 0 0 1.3322 -24.02 -14.23)"/>
   </g>
   <path d="M25.12 19.71a16.17 6.33.16 0 0-10.95 1.51l.24.6-.79-.41a16.17 6.33.16 0 0-1.88.83c.46.2.79.44.8.73.04.72-1.4 1.03-2.9.76a16.17 6.33.16 0 0-1.03 1.7 16.17 6.33.16 0 0 14.65 6.9 16.17 6.33.16 0 0 17.56-5.68 16.17 6.33.16 0 0 0-1.14c-1.58 1.27-4.14 2.25-4.71.96-.52-1.2 2.44-1.67 3.56-2.8a16.17 6.33.16 0 0-5.53-2.75c-.16 1.1.25 3.3-1.14 3.3-.82 0-1.12-2.16-.8-3.77a16.17 6.33.16 0 0-6.02-.71 16.17 6.33.16 0 0-1.06-.03zm-.91 1.6h1.58v1.63H24.2zm-5.19.97 1.8.73-1.02.82-1.79-.74zm11.04.8 1.01.82-1.79.74-1.01-.82zm-11.19.69 1.8.73-1.02.82-1.79-.74zm15.3.37 1.02.82-1.8.73-1-.81zm-17.84.13 1.79.73-1.02.82-1.79-.74z" style="font-variation-settings:normal;fill:#000;fill-opacity:1;fill-rule:evenodd;stroke:none;stroke-width:.634999;stroke-linecap:round;stroke-linejoin:miter;stroke-miterlimit:4;stroke-dasharray:none;stroke-dashoffset:0;stroke-opacity:.5117;stop-color:#000" transform="translate(-5.7 -5.33)"/>
   <path d="m35.55 21.31.67-2.02c.16-.48-1.43.45-2 1.17-.53.68.36 3.78-1.3 3.78-1.07 0-1.26-3.73-.32-5.04.55-.77 3.07-2.28 4.22-2.29 1.6-.02 4.54 1.71 5.3 2.83.57.83.23 3.93-.43 4.85-1.15 1.6-4.94 3.52-5.66 1.9-.56-1.27 2.88-1.73 3.78-3.05.7-1.04.51-2.43.51-2.43m-2.65-7.86a2.32 2.86 14.77 0 0 1.75 3.17 2.32 2.86 14.77 0 0 2.84-2.43 2.32 2.86 14.77 0 0-1.75-3.18 2.32 2.86 14.77 0 0-2.84 2.44zM21.7 20.59s.02-2.68-.21-3.1c-.78-1.37-2.6-4.02-2.62-5.96-.01-2.23 1.76-6.46 2.73-5.69 1.08.86-1.08 4.52-.38 6.17.42.97 1.01 2.29 1.84 2.74 1.02.56 3 .63 4.05.11 1.2-.6 1.86-1.44 2.33-2.88.43-1.28-1.15-4.94-.08-5.36 1.47-.58 2.32 3.7 2.2 5.6-.1 1.8-2.3 4.02-2.81 5.22-.34.81-.16 3.47-.16 3.47m-1.25-9.48a2.03 2.75 1.84 0 1-2.3 2.41 2.03 2.75 1.84 0 1-1.73-3.05 2.03 2.75 1.84 0 1 2.3-2.41 2.03 2.75 1.84 0 1 1.73 3.05z" style="font-variation-settings:normal;fill:none;fill-opacity:1;stroke:#000;stroke-width:.846663;stroke-linecap:round;stroke-linejoin:miter;stroke-miterlimit:4;stroke-dasharray:none;stroke-dashoffset:0;stroke-opacity:1;stop-color:#000" transform="translate(-5.7 -5.33)"/>
   <path d="M14.33 21.84s-1.22-3-1.32-3.46c-.06-.27 1.29 1.13 2.63.9 1.5-.25 3.52-4.23 1.76-4.58-.66-.13-1.5 2.48-2.15 2.6-.6.11-2.32-2.02-3.52-2.21a5.48 5.48 0 0 0-4.17 1.05c-1.2 1.52-1.89 4.55-1.06 5.85 1.46 2.28 6.03 2.28 5.97 1-.05-1-3.77-1.33-4.12-2.05-.2-.4.2-2.1.2-2.1m2.67-7.58a2.86 2.32 84.88 0 1-2.26 2.84 2.86 2.32 84.88 0 1-2.4-2.87 2.86 2.32 84.88 0 1 2.26-2.84 2.86 2.32 84.88 0 1 2.4 2.87Z" style="fill:none;stroke:#000;stroke-width:.846663;stroke-linecap:round;stroke-linejoin:miter;stroke-dasharray:none;stroke-opacity:1" transform="translate(-5.7 -5.33)"/>
</svg>
