<svg xmlns="http://www.w3.org/2000/svg" viewBox="0 0 37.126423 27.035763" width="37.13" height="27.04">
   <path fill="currentColor" d="M25.12 19.71a16.17 6.33.16 0 0-10.95 1.51l.24.6-.79-.41a16.17 6.33.16 0 0-1.88.83c.46.2.79.44.8.73.04.72-1.4 1.03-2.9.76a16.17 6.33.16 0 0-1.03 1.7 16.17 6.33.16 0 0 14.65 6.9 16.17 6.33.16 0 0 17.56-5.68 16.17 6.33.16 0 0 0-1.14c-1.58 1.27-4.14 2.25-4.71.96-.52-1.2 2.44-1.67 3.56-2.8a16.17 6.33.16 0 0-5.53-2.75c-.16 1.1.25 3.3-1.14 3.3-.82 0-1.12-2.16-.8-3.77a16.17 6.33.16 0 0-6.02-.71 16.17 6.33.16 0 0-1.06-.03zm-.91 1.6h1.58v1.63H24.2zm-5.19.97 1.8.73-1.02.82-1.79-.74zm11.04.8 1.01.82-1.79.74-1.01-.82zm-11.19.69 1.8.73-1.02.82-1.79-.74zm15.3.37 1.02.82-1.8.73-1-.81zm-17.84.13 1.79.73-1.02.82-1.79-.74z" style="stroke-width:.634999;stroke-linecap:round" transform="translate(-5.7 -5.33)"/>
   <path stroke="currentColor" d="m35.55 21.31.67-2.02c.16-.48-1.43.45-2 1.17-.53.68.36 3.78-1.3 3.78-1.07 0-1.26-3.73-.32-5.04.55-.77 3.07-2.28 4.22-2.29 1.6-.02 4.54 1.71 5.3 2.83.57.83.23 3.93-.43 4.85-1.15 1.6-4.94 3.52-5.66 1.9-.56-1.27 2.88-1.73 3.78-3.05.7-1.04.51-2.43.51-2.43m-2.65-7.86a2.32 2.86 14.77 0 0 1.75 3.17 2.32 2.86 14.77 0 0 2.84-2.43 2.32 2.86 14.77 0 0-1.75-3.18 2.32 2.86 14.77 0 0-2.84 2.44zM21.7 20.59s.02-2.68-.21-3.1c-.78-1.37-2.6-4.02-2.62-5.96-.01-2.23 1.76-6.46 2.73-5.69 1.08.86-1.08 4.52-.38 6.17.42.97 1.01 2.29 1.84 2.74 1.02.56 3 .63 4.05.11 1.2-.6 1.86-1.44 2.33-2.88.43-1.28-1.15-4.94-.08-5.36 1.47-.58 2.32 3.7 2.2 5.6-.1 1.8-2.3 4.02-2.81 5.22-.34.81-.16 3.47-.16 3.47m-1.25-9.48a2.03 2.75 1.84 0 1-2.3 2.41 2.03 2.75 1.84 0 1-1.73-3.05 2.03 2.75 1.84 0 1 2.3-2.41 2.03 2.75 1.84 0 1 1.73 3.05zM14.33 21.84s-1.22-3-1.32-3.46c-.06-.27 1.29 1.13 2.63.9 1.5-.25 3.52-4.23 1.76-4.58-.66-.13-1.5 2.48-2.15 2.6-.6.11-2.32-2.02-3.52-2.21a5.48 5.48 0 0 0-4.17 1.05c-1.2 1.52-1.89 4.55-1.06 5.85 1.46 2.28 6.03 2.28 5.97 1-.05-1-3.77-1.33-4.12-2.05-.2-.4.2-2.1.2-2.1m2.67-7.58a2.86 2.32 84.88 0 1-2.26 2.84 2.86 2.32 84.88 0 1-2.4-2.87 2.86 2.32 84.88 0 1 2.26-2.84 2.86 2.32 84.88 0 1 2.4 2.87Z" style="fill:none;stroke-width:.846663;stroke-linecap:round" transform="translate(-5.7 -5.33)"/>
</svg>
