<?xml version="1.0" encoding="UTF-8" standalone="no"?>
<!-- Created with Inkscape (http://www.inkscape.org/) -->

<svg
   width="600.09998mm"
   height="300mm"
   viewBox="0 0 600.09998 300"
   version="1.1"
   id="svg5"
   inkscape:version="1.1 (c4e8f9e, 2021-05-24)"
   sodipodi:docname="klondike-board.svg"
   inkscape:export-filename="/home/damien/dev/perso/tabulous/apps/web/public/images/klondike/board.png"
   inkscape:export-xdpi="83.199997"
   inkscape:export-ydpi="83.199997"
   xmlns:inkscape="http://www.inkscape.org/namespaces/inkscape"
   xmlns:sodipodi="http://sodipodi.sourceforge.net/DTD/sodipodi-0.dtd"
   xmlns="http://www.w3.org/2000/svg"
   xmlns:svg="http://www.w3.org/2000/svg">
  <sodipodi:namedview
     id="namedview7"
     pagecolor="#ffffff"
     bordercolor="#666666"
     borderopacity="1.0"
     inkscape:pageshadow="2"
     inkscape:pageopacity="0.0"
     inkscape:pagecheckerboard="0"
     inkscape:document-units="mm"
     showgrid="false"
     inkscape:zoom="0.67081229"
     inkscape:cx="1686.0156"
     inkscape:cy="191.5588"
     inkscape:window-width="1920"
     inkscape:window-height="1080"
     inkscape:window-x="1920"
     inkscape:window-y="-37"
     inkscape:window-maximized="1"
     inkscape:current-layer="layer1"
     fit-margin-top="0"
     fit-margin-left="0"
     fit-margin-right="0"
     fit-margin-bottom="0" />
  <defs
     id="defs2" />
  <g
     inkscape:label="Calque 1"
     inkscape:groupmode="layer"
     id="layer1">
    <rect
       style="fill:#35654d;fill-opacity:1;fill-rule:evenodd;stroke-width:0.529167;stop-color:#000000"
       id="rect846-6"
       width="300"
       height="300"
       x="0"
       y="0"
       rx="2"
       ry="2" />
    <rect
       style="fill:#35654d;fill-opacity:1;fill-rule:evenodd;stroke-width:0.529167;stop-color:#000000"
       id="rect846"
       width="300"
       height="300"
       x="300.10001"
       y="0"
       rx="2"
       ry="2" />
    <g
       id="g10523"
       transform="matrix(0.64079039,0,0,0.62114772,320.93902,-45.263064)"
       style="stroke-width:1.58506">
      <rect
         style="font-variation-settings:normal;opacity:1;vector-effect:none;fill:#ffffff;fill-opacity:1;fill-rule:evenodd;stroke:#35654d;stroke-width:2.0125;stroke-linecap:butt;stroke-linejoin:miter;stroke-miterlimit:4;stroke-dasharray:none;stroke-dashoffset:0;stroke-opacity:1;-inkscape-stroke:none;stop-color:#000000;stop-opacity:1"
         id="rect1022-2-0-9"
         width="15"
         height="24"
         x="230.72289"
         y="143.87718"
         rx="1"
         ry="1"
         transform="matrix(0.9314216,0.36394203,-0.95631758,0.29232977,0,0)" />
      <rect
         style="font-variation-settings:normal;opacity:1;vector-effect:none;fill:#ffffff;fill-opacity:1;fill-rule:evenodd;stroke:#35654d;stroke-width:2.0125;stroke-linecap:butt;stroke-linejoin:miter;stroke-miterlimit:4;stroke-dasharray:none;stroke-dashoffset:0;stroke-opacity:1;-inkscape-stroke:none;stop-color:#000000;stop-opacity:1"
         id="rect1022-2-0"
         width="15"
         height="24"
         x="225.9791"
         y="139.2569"
         rx="1"
         ry="1"
         transform="matrix(0.9314216,0.36394203,-0.95631758,0.29232977,0,0)" />
      <rect
         style="fill:#ffffff;fill-opacity:1;fill-rule:evenodd;stroke:#35654d;stroke-width:2.0125;stroke-miterlimit:4;stroke-dasharray:none;stroke-opacity:1;stop-color:#000000"
         id="rect1022-2-0-3"
         width="15"
         height="24"
         x="221.32042"
         y="134.7195"
         rx="1"
         ry="1"
         transform="matrix(0.9314216,0.36394203,-0.95631758,0.29232977,0,0)" />
    </g>
    <rect
       style="fill:none;fill-opacity:1;fill-rule:evenodd;stroke:#ffffff;stroke-width:0.529167;stop-color:#000000"
       id="rect1022-3-6-7-5-3-5-6"
       width="29.470833"
       height="41.970833"
       x="552.86456"
       y="63.514584"
       rx="0.98236108"
       ry="0.98754901" />
    <rect
       style="fill:none;fill-opacity:1;fill-rule:evenodd;stroke:#ffffff;stroke-width:0.529167;stop-color:#000000"
       id="rect1022-3-6-7"
       width="29.470833"
       height="41.970833"
       x="392.86459"
       y="63.514584"
       rx="0.98236108"
       ry="0.98754901" />
    <rect
       style="fill:none;fill-opacity:1;fill-rule:evenodd;stroke:#ffffff;stroke-width:0.529167;stop-color:#000000"
       id="rect1022-3-6-7-5"
       width="29.470833"
       height="41.970833"
       x="432.86459"
       y="63.514584"
       rx="0.98236108"
       ry="0.98754901" />
    <rect
       style="fill:none;fill-opacity:1;fill-rule:evenodd;stroke:#ffffff;stroke-width:0.529167;stop-color:#000000"
       id="rect1022-3-6-7-5-3"
       width="29.470833"
       height="41.970833"
       x="472.86459"
       y="63.514584"
       rx="0.98236108"
       ry="0.98754901" />
    <rect
       style="fill:none;fill-opacity:1;fill-rule:evenodd;stroke:#ffffff;stroke-width:0.529167;stop-color:#000000"
       id="rect1022-3-6-7-5-3-5"
       width="29.470833"
       height="41.970833"
       x="512.86456"
       y="63.514584"
       rx="0.98236108"
       ry="0.98754901" />
    <rect
       style="fill:none;fill-opacity:1;fill-rule:evenodd;stroke:#ffffff;stroke-width:0.529167;stop-color:#000000"
       id="rect1022"
       width="29.470833"
       height="41.970833"
       x="312.86459"
       y="14.014584"
       rx="0.98236108"
       ry="0.98754901" />
    <rect
       style="fill:none;fill-opacity:1;fill-rule:evenodd;stroke:#ffffff;stroke-width:0.529167;stop-color:#000000"
       id="rect1022-2"
       width="29.470833"
       height="41.970833"
       x="352.86459"
       y="14.014584"
       rx="0.98236108"
       ry="0.98754901" />
    <rect
       style="fill:none;fill-opacity:1;fill-rule:evenodd;stroke:#ffffff;stroke-width:0.529167;stop-color:#000000"
       id="rect1022-2-9"
       width="29.470833"
       height="41.970833"
       x="552.86456"
       y="14.014584"
       rx="0.98236108"
       ry="0.98754901" />
    <rect
       style="fill:none;fill-opacity:1;fill-rule:evenodd;stroke:#ffffff;stroke-width:0.529167;stop-color:#000000"
       id="rect1022-2-9-1"
       width="29.470833"
       height="41.970833"
       x="432.86459"
       y="14.014584"
       rx="0.98236108"
       ry="0.98754901" />
    <rect
       style="fill:none;fill-opacity:1;fill-rule:evenodd;stroke:#ffffff;stroke-width:0.529167;stop-color:#000000"
       id="rect1022-2-9-1-2"
       width="29.470833"
       height="41.970833"
       x="472.86459"
       y="14.014584"
       rx="0.98236108"
       ry="0.98754901" />
    <rect
       style="fill:none;fill-opacity:1;fill-rule:evenodd;stroke:#ffffff;stroke-width:0.529167;stop-color:#000000"
       id="rect1022-2-9-1-2-7"
       width="29.470833"
       height="41.970833"
       x="512.86456"
       y="14.014584"
       rx="0.98236108"
       ry="0.98754901" />
    <rect
       style="fill:none;fill-opacity:1;fill-rule:evenodd;stroke:#ffffff;stroke-width:0.529167;stop-color:#000000"
       id="rect1022-3"
       width="29.470833"
       height="41.970833"
       x="312.86459"
       y="63.514584"
       rx="0.98236108"
       ry="0.98754901" />
    <rect
       style="fill:none;fill-opacity:1;fill-rule:evenodd;stroke:#ffffff;stroke-width:0.529167;stop-color:#000000"
       id="rect1022-3-6"
       width="29.470833"
       height="41.970833"
       x="352.86459"
       y="63.514584"
       rx="0.98236108"
       ry="0.98754901" />
    <path
       style="fill:#ffffff;fill-opacity:1;stroke:none;stroke-width:0.494056;stroke-linecap:round;stroke-linejoin:round;stroke-miterlimit:4;stroke-opacity:1"
       d="m 487.5753,29.557153 c -1.25087,0 -2.26443,1.013552 -2.26443,2.264422 0,0.645618 0.27444,1.225745 0.70815,1.638618 0.33515,0.319048 0.81261,1.042204 0.97164,1.622149 -0.31021,-0.186947 -0.58963,-0.400007 -0.75755,-0.576398 -0.41288,-0.433709 -0.993,-0.699912 -1.63862,-0.699912 -1.25087,0 -2.26442,1.013552 -2.26442,2.264421 0,1.25087 1.01355,2.264423 2.26442,2.264423 0.64562,0 1.22575,-0.274439 1.63862,-0.708146 0.17705,-0.185992 0.47636,-0.421332 0.80696,-0.61757 -0.0464,2.076729 -0.75911,3.433687 -2.05857,3.433687 0,0 5.19582,0 5.19582,0 -1.30293,0 -2.0239,-1.364064 -2.0668,-3.450156 0.34853,0.200043 0.6725,0.440888 0.85637,0.634038 0.41286,0.433708 0.993,0.708146 1.63861,0.708146 1.25086,0 2.26443,-1.013552 2.26443,-2.264422 0,-1.250869 -1.01357,-2.264421 -2.26443,-2.264421 -0.64561,0 -1.22575,0.266203 -1.63861,0.699912 -0.17484,0.18366 -0.4785,0.401466 -0.80696,0.592867 0.15405,-0.582798 0.64138,-1.316382 0.97987,-1.638618 0.43371,-0.412873 0.69992,-0.993003 0.69992,-1.638618 0,-1.25087 -1.01355,-2.264422 -2.26442,-2.264422 z"
       id="path2242"
       sodipodi:nodetypes="csscsssssccccssssscssc" />
    <path
       style="fill:#ffffff;fill-opacity:1;stroke:none;stroke-width:0.494056;stroke-linecap:round;stroke-linejoin:round;stroke-miterlimit:4;stroke-dasharray:none;stroke-opacity:1"
       d="m 447.59999,29.826323 c -0.009,0.292129 -0.1837,1.387671 -2.09186,3.200803 -1.83645,1.745014 -2.69402,1.9545 -2.95175,1.972876 0.25773,0.01835 1.1153,0.227865 2.95176,1.972873 1.90815,1.813132 2.08326,2.90867 2.09186,3.200802 0.009,-0.292128 0.1837,-1.387667 2.09186,-3.200802 1.83646,-1.745011 2.69403,-1.954504 2.95176,-1.972873 -0.25773,-0.01835 -1.1153,-0.227865 -2.95176,-1.972876 -1.90816,-1.813129 -2.08326,-2.908671 -2.09187,-3.200803 z"
       id="path2243" />
    <path
       style="fill:#ffffff;fill-rule:nonzero;stroke:none;stroke-width:0.32937;stroke-miterlimit:4"
       d="m 525.00792,29.736277 c -1.4188,0.003 -2.57254,1.203694 -2.56316,2.676886 0.0199,3.123934 3.98288,5.383145 5.15111,7.850565 1.16824,-2.46742 5.13949,-4.726631 5.15938,-7.850565 0.009,-1.473192 -1.14435,-2.673862 -2.56315,-2.676886 -1.41881,-0.003 -2.59205,1.192641 -2.59623,2.668701 -0.004,-1.47606 -1.16915,-2.67157 -2.58795,-2.668701 z"
       id="path2170" />
    <path
       style="fill:#ffffff;fill-rule:nonzero;stroke:none;stroke-width:0.32937;stroke-miterlimit:4"
       d="m 567.6,29.609389 c -1.04891,1.869042 -4.62344,3.581319 -4.63021,5.943179 -0.003,1.115243 1.03622,2.013804 2.3151,2.013804 0.8147,0 1.53864,-0.362005 1.95131,-0.916856 -0.17241,1.605853 -0.63483,3.400556 -2.32338,3.741095 h 2.68718 2.68717 c -1.68854,-0.340539 -2.15097,-2.135242 -2.32337,-3.741095 0.41267,0.554851 1.1366,0.916856 1.9513,0.916856 1.27889,0 2.3183,-0.898561 2.31511,-2.013804 -0.007,-2.36186 -3.58131,-4.074137 -4.63021,-5.943179 z"
       id="path2254"
       sodipodi:nodetypes="csscccccssc" />
    <rect
       style="font-variation-settings:normal;opacity:1;vector-effect:none;fill:#35654d;fill-opacity:1;fill-rule:evenodd;stroke:none;stroke-width:1;stroke-linecap:butt;stroke-linejoin:miter;stroke-miterlimit:4;stroke-dasharray:none;stroke-dashoffset:0;stroke-opacity:1;-inkscape-stroke:none;stop-color:#000000;stop-opacity:1"
       id="rect10632"
       width="0.2"
       height="300"
       x="299.95001"
       y="1.7001134e-09" />
  </g>
</svg>
