<?xml version="1.0" encoding="UTF-8" standalone="no"?>
<!-- Created with Inkscape (http://www.inkscape.org/) -->

<svg
   width="192.64157"
   height="160.96533"
   viewBox="0 0 50.969747 42.588743"
   version="1.1"
   id="svg1194"
   inkscape:version="1.1 (c4e8f9e, 2021-05-24)"
   sodipodi:docname="left-drag-object.svg"
   inkscape:export-filename="/home/damien/dev/perso/tabulous/apps/web/public/images/help/left-drag-object.png"
   inkscape:export-xdpi="100.19549"
   inkscape:export-ydpi="100.19549"
   xmlns:inkscape="http://www.inkscape.org/namespaces/inkscape"
   xmlns:sodipodi="http://sodipodi.sourceforge.net/DTD/sodipodi-0.dtd"
   xmlns="http://www.w3.org/2000/svg"
   xmlns:svg="http://www.w3.org/2000/svg">
  <sodipodi:namedview
     id="namedview1196"
     pagecolor="#ffffff"
     bordercolor="#666666"
     borderopacity="1.0"
     inkscape:pageshadow="2"
     inkscape:pageopacity="0.0"
     inkscape:pagecheckerboard="0"
     inkscape:document-units="px"
     showgrid="false"
     fit-margin-top="5"
     fit-margin-left="5"
     fit-margin-right="5"
     fit-margin-bottom="5"
     units="px"
     inkscape:zoom="2.6832492"
     inkscape:cx="-0.18634125"
     inkscape:cy="127.27107"
     inkscape:window-width="1920"
     inkscape:window-height="1080"
     inkscape:window-x="1920"
     inkscape:window-y="-37"
     inkscape:window-maximized="1"
     inkscape:current-layer="layer1" />
  <defs
     id="defs1191" />
  <g
     inkscape:label="Calque 1"
     inkscape:groupmode="layer"
     id="layer1">
    <g
       id="g191853-8-9-1-7"
       transform="matrix(0.48581559,0,0,0.48348265,-8.459824,-84.93334)"
       style="font-variation-settings:normal;vector-effect:none;fill:#b3b3b3;fill-opacity:1;stroke:#000000;stroke-width:1.63778;stroke-linecap:butt;stroke-linejoin:miter;stroke-miterlimit:4;stroke-dasharray:none;stroke-dashoffset:0;stroke-opacity:1;-inkscape-stroke:none;stop-color:#000000">
      <rect
         style="font-variation-settings:normal;opacity:1;vector-effect:none;fill:#b3b3b3;fill-opacity:1;fill-rule:evenodd;stroke:#000000;stroke-width:1.63778;stroke-linecap:butt;stroke-linejoin:miter;stroke-miterlimit:4;stroke-dasharray:none;stroke-dashoffset:0;stroke-opacity:1;-inkscape-stroke:none;stop-color:#000000;stop-opacity:1"
         id="rect188616-0-9-7-2"
         width="39.285824"
         height="54.881699"
         x="38.010296"
         y="187.85513"
         ry="4.6194773" />
      <rect
         style="font-variation-settings:normal;opacity:1;vector-effect:none;fill:#b3b3b3;fill-opacity:1;fill-rule:evenodd;stroke:#000000;stroke-width:1.63778;stroke-linecap:butt;stroke-linejoin:miter;stroke-miterlimit:4;stroke-dasharray:none;stroke-dashoffset:0;stroke-opacity:1;-inkscape-stroke:none;stop-color:#000000;stop-opacity:1"
         id="rect191725-5-3-89-6"
         width="32.749069"
         height="47.921417"
         x="41.278675"
         y="191.33527"
         ry="0" />
    </g>
    <g
       id="g339092-0-4-4"
       transform="translate(-9.043467,-30.09698)">
      <g
         id="g243845-9-9-5"
         transform="matrix(0.48798832,0,0,0.48898494,16.942674,-15.101267)"
         style="stroke-width:2.04714">
        <path
           style="font-variation-settings:normal;opacity:1;vector-effect:none;fill:#f2f2f2;fill-opacity:1;stroke:none;stroke-width:1.62492;stroke-linecap:butt;stroke-linejoin:miter;stroke-miterlimit:4;stroke-dasharray:none;stroke-dashoffset:0;stroke-opacity:1;-inkscape-stroke:none;stop-color:#000000;stop-opacity:1"
           d="m 54.208479,172.07459 c 0,0 2.86176,-6.02825 2.86177,-13.43363 0,-11.55035 -3.75348,-27.38536 -3.75348,-27.38536 -6.27313,-5.6157 -14.81748,-6.5693 -14.81748,-6.5693 l -5.71209,-0.0108 c 0,0 -8.12396,1.14941 -14.2754,6.17767 0,0 -3.48645,15.85499 -3.42734,28.14872 0.0378,7.86877 3.14024,12.90915 3.14024,12.90915 18.42352,11.62996 35.98378,0.16355 35.98378,0.16355 z"
           id="path18382-9-1-2-2"
           sodipodi:nodetypes="csccccscc" />
        <path
           style="fill:none;stroke:#000000;stroke-width:1.62492;stroke-linecap:butt;stroke-linejoin:miter;stroke-miterlimit:4;stroke-dasharray:none;stroke-opacity:1"
           d="m 54.465969,172.14549 c 0,0 2.86176,-6.02825 2.86176,-13.43363 0,-11.55035 -3.75347,-27.38536 -3.75347,-27.38536 -6.27313,-5.6157 -14.81749,-6.5693 -14.81749,-6.5693 l -5.71208,-0.0108 c 0,0 -8.12396,1.14941 -14.27541,6.17767 0,0 -3.48645,15.85499 -3.42733,28.14872 0.0378,7.86877 3.14023,12.90915 3.14023,12.90915"
           id="path18382-96-5-0"
           sodipodi:nodetypes="csccccsc" />
        <path
           style="fill:none;stroke:#000000;stroke-width:1.62492;stroke-linecap:butt;stroke-linejoin:miter;stroke-miterlimit:4;stroke-dasharray:none;stroke-opacity:1"
           d="m 18.928769,130.92405 0.96975,19.82138 c 16.45725,5.47308 32.95784,0.009 32.95784,0.009 l 0.87738,-19.42763 c -5.78686,-5.18802 -14.67775,-6.49832 -14.67775,-6.49832 l -6.04328,-0.0377 c 0,0 -8.33489,1.5718 -14.08394,6.13362 z"
           id="path19519-2-7-2"
           sodipodi:nodetypes="ccccccc" />
        <path
           id="rect20474-5-4-9"
           style="opacity:1;fill:none;fill-rule:evenodd;stroke:#000000;stroke-width:1.62492;stroke-miterlimit:4;stroke-dasharray:none;stop-color:#000000;stop-opacity:1"
           d="m 33.458919,131.51725 c 0,0 0.61076,-2.20052 2.81632,-2.1309 2.20556,0.0696 2.79731,2.1309 2.79731,2.1309 l 0.13757,13.81124 c 0,0 -0.55453,2.69732 -2.78907,2.62418 -2.23454,-0.0731 -2.82456,-2.62418 -2.82456,-2.62418 z"
           sodipodi:nodetypes="czcczcc" />
        <path
           style="fill:none;stroke:#000000;stroke-width:1.62492;stroke-linecap:butt;stroke-linejoin:miter;stroke-miterlimit:4;stroke-dasharray:none;stroke-opacity:1"
           d="m 36.334459,124.71852 v 4.72958 m 0,18.50579 v 5.23919"
           id="path21306-4-9-0"
           sodipodi:nodetypes="cccc" />
      </g>
      <path
         id="path19519-7-9-1-4-9-9"
         style="font-variation-settings:normal;vector-effect:none;fill:#808080;fill-opacity:1;stroke:#000000;stroke-width:0.793751;stroke-linecap:butt;stroke-linejoin:miter;stroke-miterlimit:4;stroke-dasharray:none;stroke-dashoffset:0;stroke-opacity:1;-inkscape-stroke:none;stop-color:#000000"
         d="m 34.613555,45.882727 -1.57848,0.0913 c 0,0 -4.14104,0.77055 -6.99737,3.00713 l 0.48192,9.71787 c 4.81573,1.42226 8.11884,1.06259 8.11884,1.06259 l -0.005,-2.4885 c -1.09166,-0.0519 -1.38105,-1.28555 -1.38105,-1.28555 l -0.0682,-6.77155 c 0,0 0.30348,-1.07873 1.39927,-1.0446 0.0113,3.5e-4 0.0225,9.8e-4 0.0336,9.8e-4 z" />
    </g>
    <g
       id="g188512-0-4-9"
       transform="matrix(0.61719316,0,0,0.61416596,-48.47208,-101.2314)"
       style="font-variation-settings:normal;vector-effect:none;fill:#afffaf;fill-opacity:1;stroke:#00ff00;stroke-width:1.62423;stroke-linecap:butt;stroke-linejoin:miter;stroke-miterlimit:4;stroke-dasharray:none;stroke-dashoffset:0;stroke-opacity:1;-inkscape-stroke:none;stop-color:#000000">
      <path
         id="path166450-4-5-4"
         style="font-variation-settings:normal;opacity:1;vector-effect:none;fill:#afffaf;fill-opacity:1;fill-rule:evenodd;stroke:#00ff00;stroke-width:1.62423;stroke-linecap:butt;stroke-linejoin:miter;stroke-miterlimit:4;stroke-dasharray:none;stroke-dashoffset:0;stroke-opacity:1;-inkscape-stroke:none;stop-color:#000000;stop-opacity:1"
         inkscape:transform-center-x="0.010607454"
         inkscape:transform-center-y="-3.5892491"
         d="m 133.96638,183.48158 -27.80428,-0.0359 13.93397,-13.69584 z"
         sodipodi:nodetypes="cccc" />
      <g
         id="g188506-6-9-5"
         style="font-variation-settings:normal;vector-effect:none;fill:#afffaf;fill-opacity:1;stroke:#00ff00;stroke-width:1.62423;stroke-linecap:butt;stroke-linejoin:miter;stroke-miterlimit:4;stroke-dasharray:none;stroke-dashoffset:0;stroke-opacity:1;-inkscape-stroke:none;stop-color:#000000;stop-opacity:1">
        <path
           id="path166450-3-2-3-1"
           style="font-variation-settings:normal;vector-effect:none;fill:#afffaf;fill-opacity:1;fill-rule:evenodd;stroke:#00ff00;stroke-width:1.62423;stroke-linecap:butt;stroke-linejoin:miter;stroke-miterlimit:4;stroke-dasharray:none;stroke-dashoffset:0;stroke-opacity:1;-inkscape-stroke:none;stop-color:#000000;stop-opacity:1"
           inkscape:transform-center-x="-3.5870555"
           inkscape:transform-center-y="-0.010625526"
           d="m 144.58292,221.6312 0.0359,-27.82135 13.68742,13.94253 z"
           sodipodi:nodetypes="cccc" />
        <path
           id="path166450-3-6-6-5-0"
           style="font-variation-settings:normal;vector-effect:none;fill:#afffaf;fill-opacity:1;fill-rule:evenodd;stroke:#00ff00;stroke-width:1.62423;stroke-linecap:butt;stroke-linejoin:miter;stroke-miterlimit:4;stroke-dasharray:none;stroke-dashoffset:0;stroke-opacity:1;-inkscape-stroke:none;stop-color:#000000;stop-opacity:1"
           inkscape:transform-center-x="3.5870405"
           inkscape:transform-center-y="-0.010625526"
           d="M 95.54313,221.6312 95.50725,193.80985 81.819821,207.75238 Z"
           sodipodi:nodetypes="cccc" />
      </g>
    </g>
  </g>
</svg>
