<?xml version="1.0" encoding="UTF-8" standalone="no"?>
<!-- Created with Inkscape (http://www.inkscape.org/) -->

<svg
   width="127.03522mm"
   height="27.035791mm"
   viewBox="0 0 127.03522 27.035791"
   version="1.1"
   id="svg5"
   xml:space="preserve"
   sodipodi:docname="logo-large.svg"
   inkscape:version="1.2.2 (b0a8486541, 2022-12-01, custom)"
   inkscape:export-filename="../6a22fa0e/tabulous-logo-large.svg"
   inkscape:export-xdpi="400.022"
   inkscape:export-ydpi="400.022"
   xmlns:inkscape="http://www.inkscape.org/namespaces/inkscape"
   xmlns:sodipodi="http://sodipodi.sourceforge.net/DTD/sodipodi-0.dtd"
   xmlns="http://www.w3.org/2000/svg"
   xmlns:svg="http://www.w3.org/2000/svg"><sodipodi:namedview
     id="namedview350"
     pagecolor="#dfaaaa"
     bordercolor="#666666"
     borderopacity="1.0"
     inkscape:showpageshadow="2"
     inkscape:pageopacity="0"
     inkscape:pagecheckerboard="0"
     inkscape:deskcolor="#d1d1d1"
     inkscape:document-units="mm"
     showgrid="false"
     inkscape:zoom="2.3786088"
     inkscape:cx="215.25187"
     inkscape:cy="64.113107"
     inkscape:window-width="1860"
     inkscape:window-height="1016"
     inkscape:window-x="0"
     inkscape:window-y="0"
     inkscape:window-maximized="1"
     inkscape:current-layer="layer2" /><defs
     id="defs2" /><g
     id="layer2"
     transform="translate(-5.7081122,-5.3929107)"><g
       id="g530"
       inkscape:export-filename="../fb46c1af/tabulous-logo.svg"
       inkscape:export-xdpi="400.022"
       inkscape:export-ydpi="400.022"><ellipse
         style="font-variation-settings:normal;fill:none;fill-opacity:1;fill-rule:evenodd;stroke:#000000;stroke-width:0.846898;stroke-linecap:round;stroke-linejoin:miter;stroke-miterlimit:4;stroke-dasharray:none;stroke-dashoffset:0;stroke-opacity:1;stop-color:#000000"
         id="path1902"
         cx="8.6141319"
         cy="11.178098"
         rx="2.3273008"
         ry="2.8551738"
         transform="matrix(0.99996723,0.00809546,0.02485095,0.99969117,0,0)" /><ellipse
         style="font-variation-settings:normal;fill:none;fill-opacity:1;fill-rule:evenodd;stroke:#000000;stroke-width:0.846904;stroke-linecap:round;stroke-linejoin:miter;stroke-miterlimit:4;stroke-dasharray:none;stroke-dashoffset:0;stroke-opacity:1;stop-color:#000000"
         id="path1902-3"
         cx="-41.837299"
         cy="7.0107512"
         rx="2.3272333"
         ry="2.8552923"
         transform="matrix(-0.98734346,-0.15859662,-0.19140811,0.98151054,0,0)" /><ellipse
         style="font-variation-settings:normal;fill:none;fill-opacity:1;fill-rule:evenodd;stroke:#000000;stroke-width:0.847352;stroke-linecap:round;stroke-linejoin:miter;stroke-miterlimit:4;stroke-dasharray:none;stroke-dashoffset:0;stroke-opacity:1;stop-color:#000000"
         id="path1902-7"
         cx="26.358452"
         cy="6.9974566"
         rx="2.0405092"
         ry="2.7453825"
         transform="matrix(0.98754643,0.15732783,-0.10094134,0.99489238,0,0)" /><path
         id="path1902-5"
         style="font-variation-settings:normal;fill:#000000;fill-opacity:1;fill-rule:evenodd;stroke:none;stroke-width:0.634999;stroke-linecap:round;stroke-linejoin:miter;stroke-miterlimit:4;stroke-dasharray:none;stroke-dashoffset:0;stroke-opacity:0.5117;stop-color:#000000"
         d="M 25.120364 19.713484 A 16.171131 6.3284572 0.15697335 0 0 14.169611 21.220885 C 14.310094 21.571287 14.410423 21.819298 14.410423 21.819298 L 13.622875 21.410021 A 16.171131 6.3284572 0.15697335 0 0 11.738752 22.239428 C 12.202001 22.443691 12.529265 22.678011 12.543871 22.970132 C 12.579731 23.687424 11.148832 24.000443 9.6313869 23.73236 A 16.171131 6.3284572 0.15697335 0 0 8.6128445 25.430964 A 16.171131 6.3284572 0.15697335 0 0 23.258979 32.338553 A 16.171131 6.3284572 0.15697335 0 0 40.823281 26.647427 A 16.171131 6.3284572 0.15697335 0 0 40.824832 25.513646 C 39.243603 26.781242 36.682547 27.763878 36.110391 26.465526 C 35.585905 25.275358 38.554478 24.800955 39.674514 23.668798 A 16.171131 6.3284572 0.15697335 0 0 34.138935 20.918061 C 33.980984 22.022204 34.393035 24.214363 33.00102 24.216568 C 32.184131 24.217868 31.878576 22.056991 32.193834 20.445222 A 16.171131 6.3284572 0.15697335 0 0 26.17663 19.739839 A 16.171131 6.3284572 0.15697335 0 0 25.120364 19.713484 z M 24.207758 21.315453 L 25.78854 21.315453 L 25.78854 22.939127 L 24.207758 22.939127 L 24.207758 21.315453 z M 19.024612 22.275601 L 20.815717 23.011474 L 19.802859 23.828995 L 18.011754 23.093122 L 19.024612 22.275601 z M 30.060114 23.085888 L 31.072972 23.903409 L 29.281867 24.639281 L 28.269009 23.82176 L 30.060114 23.085888 z M 18.87475 23.766983 L 20.665856 24.502855 L 19.652481 25.320377 L 17.861376 24.584504 L 18.87475 23.766983 z M 34.175625 24.140604 L 35.188483 24.958125 L 33.397378 25.693997 L 32.38452 24.876476 L 34.175625 24.140604 z M 16.326586 24.265661 L 18.117691 25.001533 L 17.104833 25.819054 L 15.313727 25.083182 L 16.326586 24.265661 z " /><path
         style="font-variation-settings:normal;fill:none;fill-opacity:1;stroke:#000000;stroke-width:0.846663;stroke-linecap:round;stroke-linejoin:miter;stroke-miterlimit:4;stroke-dasharray:none;stroke-dashoffset:0;stroke-opacity:1;stop-color:#000000"
         d="m 21.69336,20.588834 c 0,0 0.02678,-2.677038 -0.206019,-3.091041 -0.776379,-1.380737 -2.599184,-4.025216 -2.613438,-5.966523 -0.01639,-2.2322799 1.752164,-6.4643449 2.726857,-5.6885019 1.078456,0.858437 -1.085657,4.5175159 -0.381412,6.1633349 0.418802,0.978742 1.010211,2.291873 1.83974,2.745834 1.018025,0.557116 3.010225,0.631654 4.047692,0.111544 1.21019,-0.606701 1.861782,-1.447969 2.336439,-2.879006 0.427503,-1.288873 -1.154588,-4.9427149 -0.07921,-5.3658779 1.462782,-0.575606 2.312798,3.6986019 2.203533,5.6037499 -0.103141,1.798372 -2.31399,4.015614 -2.819254,5.217566 -0.341408,0.812161 -0.156693,3.467564 -0.156693,3.467564"
         id="path2772" /><path
         style="fill:none;stroke:#000000;stroke-width:0.846663;stroke-linecap:round;stroke-linejoin:miter;stroke-dasharray:none;stroke-opacity:1"
         d="m 14.333877,21.844254 c 0,0 -1.220706,-3.003311 -1.32075,-3.465503 -0.05842,-0.269875 1.287063,1.131397 2.623366,0.903835 1.49769,-0.255045 3.519874,-4.235044 1.763283,-4.584697 -0.664466,-0.132263 -1.50618,2.482816 -2.146704,2.604076 -0.595067,0.112655 -2.319707,-2.019375 -3.525543,-2.212273 -2.186247,-0.349735 -3.979353,0.802561 -4.169399,1.046062 -1.192202,1.527537 -1.886942,4.551923 -1.053854,5.856331 1.452582,2.27438 6.026744,2.278506 5.962967,1.002872 -0.0501,-1.002024 -3.762944,-1.331489 -4.117637,-2.056564 -0.192935,-0.394403 0.201973,-2.099557 0.201973,-2.099557"
         id="path519" /><path
         style="font-variation-settings:normal;fill:none;fill-opacity:1;stroke:#000000;stroke-width:0.846663;stroke-linecap:round;stroke-linejoin:miter;stroke-miterlimit:4;stroke-dasharray:none;stroke-dashoffset:0;stroke-opacity:1;stop-color:#000000"
         d="m 35.550623,21.31134 0.668087,-2.021097 c 0.159717,-0.483175 -1.429238,0.453831 -1.991196,1.166561 -0.54224,0.687723 0.350734,3.781871 -1.30307,3.78449 -1.073283,0.0017 -1.264756,-3.730088 -0.323839,-5.043292 0.553159,-0.772023 3.068597,-2.275848 4.221601,-2.288246 1.590592,-0.0171 4.536182,1.713781 5.305128,2.835228 0.562386,0.820194 0.221571,3.922708 -0.437095,4.841158 -1.149572,1.602976 -4.944053,3.520061 -5.656223,1.903992 -0.561409,-1.273959 2.879328,-1.727923 3.771314,-3.046188 0.703797,-1.040142 0.517619,-2.429842 0.517619,-2.429842"
         id="path2833" /></g><g
       aria-label="Tabulous"
       id="text371"
       style="font-size:21.1667px;font-family:'cabin sketch';-inkscape-font-specification:'cabin sketch';stroke-width:0.264583"><path
         d="m 52.99211,25.887927 q -0.254,0 -0.338667,-0.571501 -0.08467,-0.571501 -0.08467,-1.058335 0,-0.486835 0,-0.613835 -0.08467,-0.867834 -0.338667,-2.095503 0,-0.952502 0.04233,-2.391837 0.04233,-1.270002 0.04233,-1.92617 0,-0.254 -0.08467,-0.338667 -0.02117,-0.317501 -0.08467,-0.910168 -0.04233,-0.613835 -0.08467,-0.592668 h -1.418169 l -0.169333,-0.08467 q -0.423334,0.04233 -0.550334,0.04233 -0.275168,0 -0.698502,-0.08467 -0.423334,-0.08467 -0.423334,-0.232834 l -0.0635,-1.905003 q -0.02117,-0.04233 -0.04233,-0.127 -0.02117,-0.08467 -0.04233,-0.127 0,-0.254001 1.439335,-0.254001 0.211667,0 0.550334,0.08467 2.413004,0 3.175005,0.08467 0.169334,0.02117 0.550335,0.02117 0.08467,0 0.423334,0.02117 0.338667,0.02117 0.592667,0.127001 h 3.683006 q 0.1905,0 0.232834,0.04233 0.04233,0.04233 0.04233,0.1905 0,0.211667 -0.0635,0.656168 -0.0635,0.211667 -0.0635,0.486834 l 0.02117,0.698501 -0.08467,0.105834 -0.677334,-0.02117 q -0.423334,0 -1.016002,0.105834 -0.148167,0.02117 -0.529168,0.0635 -0.381,0.04233 -0.677334,0.04233 l -0.402167,-0.02117 q -0.190501,0 -0.465668,0.08467 v 0.105834 q 0,0.423334 0.169334,1.185335 l 0.08467,0.465667 q 0.275167,1.545169 0.275167,3.577173 0,0.719667 -0.0635,1.418169 -0.04233,0.889001 -0.04233,1.375835 0,0.529168 0.0635,1.037168 0.04233,0.719668 0.04233,1.058335 0,0.211667 -0.0635,0.338668 -0.04233,0.105833 -0.211667,0.105833 z M 49.224437,14.330908 q -0.127,0.254001 -0.127,0.296334 h 0.127 q 0.127001,0 0.296334,-0.423334 0.169334,-0.381001 0.338667,-0.635001 0.169334,-0.275167 0.444501,-0.444501 -0.127,0.04233 -0.169333,0.04233 -0.08467,0 -0.148167,-0.02117 -0.0635,-0.02117 -0.105834,-0.02117 l -0.275167,0.02117 q -0.08467,0 -0.148167,-0.02117 -0.211667,0 -0.3175,0.0635 -0.105834,0.04233 -0.105834,0.232834 0,0.1905 0.105834,0.444501 0.08467,0.296334 0.08467,0.465667 z m 1.820337,0.127 q 0.381,-0.148167 0.931335,-0.529167 0.550334,-0.402168 0.825501,-0.719668 -0.08467,-0.04233 -0.296334,-0.04233 -0.1905,0 -0.465667,0.211667 -0.275167,0.1905 -0.359834,0.275167 -0.02117,0 -0.211667,0.275167 -0.190501,0.254 -0.423334,0.444501 z m 0.169333,-1.270002 q -0.465667,0 -0.952501,0.338667 -0.486834,0.317501 -0.486834,0.783168 0.1905,0 0.952501,-0.4445 0.762001,-0.465668 0.910168,-0.656168 z m 0.677335,1.016002 q -0.169334,0.169334 -0.508001,0.359834 -0.338667,0.169333 -0.402167,0.232834 -0.02117,0 -0.0635,0.04233 -0.02117,0.02117 -0.04233,0.02117 l 0.486834,0.02117 q 0.571501,0 1.206502,-0.211667 0.656168,-0.232833 0.656168,-0.529167 v -0.105834 q -0.105834,0.105834 -0.317501,0.105834 H 52.80161 q 0.127,-0.169334 0.381,-0.275167 0.254001,-0.127001 0.508001,-0.190501 0.254001,-0.0635 0.317501,-0.08467 0.08467,-0.02117 0.359834,-0.105834 0.296333,-0.08467 0.359834,-0.1905 -0.190501,0 -0.338668,0.02117 -0.127,0.02117 -0.211667,0.02117 -0.0635,0 -0.1905,-0.04233 h -0.698501 l -0.0635,0.169333 q 0.105833,0 0.211667,-0.04233 0.105833,-0.04233 0.169333,-0.04233 0.04233,0 0.127001,0.08467 -0.105834,0.08467 -0.254001,0.169334 -0.148167,0.0635 -0.254,0.0635 l -0.254001,-0.0635 q 0.02117,0.105833 -0.4445,0.592668 -0.465668,0.465667 -0.677335,0.465667 0,-0.02117 -0.02117,-0.04233 -0.02117,-0.04233 -0.02117,-0.08467 0.02117,-0.0635 0.105833,-0.1905 0.08467,-0.127001 0.148167,-0.169334 z m 3.873506,-0.719668 q 0,0.169334 -0.127,0.296334 -0.127001,0.127 -0.148167,0.169334 -0.275167,0.232833 -0.275167,0.423334 l 1.693336,-0.994835 v -0.08467 l -1.164169,0.08467 z m 2.24367,-0.148167 q -0.359834,0 -0.529167,0.04233 -0.04233,0 -0.910168,0.656167 -0.846669,0.635001 -0.931335,0.762002 h 0.105833 l 0.656168,-0.508001 v 0.08467 q 0.08467,-0.105834 0.3175,-0.232834 0.254001,-0.148167 0.508001,-0.275167 0.783168,-0.381001 0.783168,-0.529168 z m -5.270508,1.968503 q 0,0.02117 0.02117,0.0635 0.04233,0.04233 0.0635,0.04233 0.592667,-0.1905 1.375835,-0.889002 0.804335,-0.698501 0.846668,-0.719667 0.08467,-0.04233 0.232834,-0.08467 0.148167,-0.0635 0.169333,-0.127 0.04233,-0.0635 0.04233,-0.211667 -0.127,0.08467 -0.296334,0.105833 -0.148167,0 -0.296334,0.0635 -0.402167,0.169334 -0.931335,0.592668 -0.423334,0.296334 -0.719667,0.465667 -0.296334,0.169334 -0.613835,0.254001 l 0.105834,0.169333 q 0.0635,-0.0635 0.1905,-0.105833 0.148167,-0.0635 0.211667,-0.0635 z m 5.651509,-1.439335 q -0.296334,0.105833 -0.719668,0.402167 -0.423334,0.275167 -0.592668,0.529168 0.550335,-0.275168 1.058335,-0.550335 0.529168,-0.275167 0.698501,-0.381 v -0.465668 q -0.127,0 -0.296333,0.148167 -0.169334,0.127 -0.169334,0.254001 0,0.04233 0.02117,0.0635 z m -8.40318,0.571501 q -0.169334,0 -0.444501,0.359834 h 0.846668 q 0.08467,0 0.317501,-0.317501 0.254,-0.3175 0.423334,-0.613834 l -1.079502,0.592667 z m 6.096009,0.359834 q 0.02117,0.02117 0.0635,0.04233 0.04233,0.02117 0.08467,0.02117 0.317501,0 0.698501,-0.254001 0.402168,-0.254 0.635001,-0.571501 -0.232833,0 -1.016001,0.508001 -0.444501,0.232834 -0.465668,0.254001 z m 2.794005,-0.656168 q -0.148167,0.127 -0.571501,0.3175 -0.402167,0.169334 -0.656168,0.254001 l 1.227669,0.08467 z m -6.138343,1.905003 q 0,0.08467 0.0635,0.08467 l 0.825501,-0.402168 q 0.04233,0 0.105834,-0.275167 l -0.02117,-0.127 0.275167,0.0635 q 0.127,-0.0635 0.423334,-0.296334 0.317501,-0.254 0.402167,-0.381 -0.105833,-0.02117 -0.105833,-0.148167 0,-0.08467 0.02117,-0.105834 -0.740835,0.635001 -1.587503,0.994835 0,0.04233 0.02117,0.08467 0.04233,0.02117 0.0635,0.02117 0.0635,0 0.148167,-0.04233 0.08467,-0.0635 0.1905,-0.0635 -0.02117,0.105834 -0.105833,0.169334 -0.08467,0.04233 -0.190501,0.08467 -0.08467,0.02117 -0.127,0.04233 -0.402167,0.08467 -0.402167,0.296334 z m 2.159003,1.629836 q 0,0.275167 -0.338667,0.508001 -0.338667,0.232833 -0.973668,0.550334 -0.508001,0.254 -0.613835,0.338667 -0.275167,0.232834 -0.275167,1.079502 0.127001,0 0.889002,-0.592668 0.783168,-0.613834 0.889001,-0.762001 -0.232834,0 -0.656168,0.275167 v -0.105834 q -0.1905,0.275168 -0.846668,0.423334 v -0.1905 q 0.190501,0 0.402168,-0.08467 0.211667,-0.105833 0.571501,-0.3175 0.402167,-0.254001 0.698501,-0.381001 0.296334,-0.148167 0.613834,-0.148167 0,-0.677334 -0.127,-1.820336 -0.127,-1.164168 -0.275167,-1.164168 -0.190501,0 -0.762001,0.402167 -0.0635,0.04233 -0.381001,0.232834 -0.296334,0.169333 -0.486834,0.211667 h 0.232834 l 1.185335,-0.402168 0.08467,-0.02117 q 0.127,0 0.169333,0.08467 0,0 -0.423334,0.423334 -0.105833,0.08467 -0.359834,0.211667 -0.254,0.105834 -0.423334,0.232834 -0.169333,0.127 -0.169333,0.232834 0.148167,0 0.613834,-0.105834 0.423334,-0.127 0.656168,-0.127 l 0.02117,0.211667 q 0,0.105834 -0.08467,0.169334 -0.08467,0.0635 -0.317501,0.169333 -0.211667,0.08467 -0.254,0.169334 -0.296334,0.1905 -0.762002,0.762001 l 1.248836,-0.592667 q 0.04233,0 0.148167,0.04233 0.105833,0.02117 0.105833,0.08467 z m -0.783168,-1.545169 q -0.486834,0 -0.952501,0.211667 -0.444501,0.211667 -0.444501,0.613834 0.296334,0 0.550334,-0.148167 0.254001,-0.169334 0.486834,-0.359834 0.232834,-0.211667 0.359834,-0.3175 z m -0.719668,0.825501 q -0.127,0 -0.381,0.211667 -0.254001,0.1905 -0.275167,0.211667 l 0.0635,1.693336 q 0.0635,-0.0635 0.529167,-0.381001 0.486834,-0.338667 0.486834,-0.486834 -0.148166,0.04233 -0.423334,0.169334 -0.254,0.105833 -0.423334,0.105833 -0.02117,-0.02117 -0.0635,-0.0635 -0.02117,-0.04233 -0.04233,-0.0635 0,-0.04233 0.169334,-0.211667 0.1905,-0.169333 0.254,-0.254 0.08467,-0.0635 0.635001,-0.465668 0.550334,-0.402167 0.550334,-0.635001 -0.169333,0.127001 -0.529167,0.232834 -0.338668,0.105834 -0.550335,0.105834 z m 1.481669,2.963338 q 0,0.211667 -0.275167,0.423334 -0.254,0.1905 -0.804334,0.529168 -0.402168,0.211667 -0.571501,0.359833 l 1.756836,-0.677334 q 0.127,0.0635 0.1905,0.0635 0.232834,0 0.232834,-0.444501 0,-0.127 -0.0635,-0.254 -0.04233,-0.127 -0.04233,-0.275167 0,-0.148167 0.04233,-0.254001 0.04233,-0.105833 0.04233,-0.169333 0,-0.148167 -0.0635,-0.381001 -0.04233,-0.232833 -0.105833,-0.359834 -0.02117,0.127001 -0.211667,0.317501 -0.169334,0.1905 -0.275167,0.275167 -0.232834,0 -0.423334,0.127 -0.190501,0.127 -0.508001,0.423334 -0.381001,0.381001 -0.656168,0.508001 v 0.105834 q 0.275167,0 0.529168,-0.0635 0.254,-0.0635 0.3175,-0.08467 0.550334,-0.169334 0.889001,-0.169334 z m -1.989669,1.397002 0.381,-0.359834 q 0.211667,-0.211667 0.444501,-0.402167 0.232834,-0.1905 0.508001,-0.3175 -0.296334,0 -0.762001,0.127 -0.508001,0.127 -0.719668,0.127 v 0.910168 z m 0.3175,4.04284 q 0,0.105833 0.02117,0.148167 0.04233,0.04233 0.169333,0.0635 0.148167,0 0.211667,-0.04233 0.08467,-0.0635 0.148167,-0.190501 0.105834,-0.148167 0.169334,-0.211667 0.08467,-0.0635 0.296334,-0.0635 0.148167,0 0.169333,0.105834 -0.04233,0.0635 -0.148167,0.105833 -0.105833,0.04233 -0.1905,0.04233 0.359834,0.105833 0.783168,0.1905 0.444501,0.0635 0.656168,0.08467 0,-0.127001 -0.08467,-0.359834 -0.08467,-0.232834 -0.08467,-0.338667 0,-0.02117 0.02117,-0.04233 0.04233,-0.02117 0.04233,-0.02117 -0.02117,-0.04233 -0.08467,-0.0635 -0.0635,-0.02117 -0.127,-0.02117 -0.08467,0 -0.105833,0.105833 0,0.105834 -0.04233,0.169334 -0.04233,0.0635 -0.232833,0.0635 -0.148167,0 -0.190501,-0.04233 -0.04233,-0.04233 -0.0635,-0.105833 -0.02117,-0.0635 -0.0635,-0.105834 0.04233,-0.0635 0.105834,-0.127 0.08467,-0.08467 0.148167,-0.127 -0.105834,0 -0.381001,0.08467 -0.275167,0.0635 -0.402167,0.0635 0,-0.148167 0.846668,-0.423334 0.529167,-0.169334 0.529167,-0.232834 v -1.502835 q 0.04233,0 0.0635,-0.317501 0.02117,-0.338667 0.02117,-0.465667 0,-0.889002 0.08467,-0.889002 l 0.0635,-0.08467 -0.169334,-0.169333 q -0.08467,0.1905 -0.232833,0.3175 -0.148167,0.105834 -0.359834,0.232834 -0.190501,0.105834 -0.317501,0.211667 -0.08467,0.0635 -0.338667,0.232834 -0.232834,0.169333 -0.508001,0.338667 v 0.08467 q 0.254001,-0.02117 0.592668,-0.148167 0.381,-0.148167 0.698501,-0.148167 -0.02117,0.232834 -0.275167,0.444501 -0.254001,0.211667 -0.719668,0.508 -0.529168,0.296334 -0.529168,0.423334 0.105834,-0.0635 0.402168,-0.211667 0.3175,-0.169333 0.571501,-0.254 0.254,-0.105833 0.486834,-0.105833 0.105833,0 0.148167,0.02117 0.04233,0.02117 0.04233,0.148167 0,0.211667 -1.037168,0.740835 -0.148167,0.08467 -0.402168,0.254 -0.232833,0.148167 -0.381,0.254 0.1905,0 0.529167,-0.127 0.296334,-0.127 0.465668,-0.127 0.02117,0 0.0635,0.04233 0.04233,0.02117 0.04233,0.04233 0,-0.02117 0.08467,-0.105834 0.08467,-0.08467 0.148167,-0.127 0.08467,0 0.169334,0.08467 0.105833,0.0635 0.105833,0.127 0,0.148167 -0.275167,0.317501 -0.275167,0.169333 -0.846668,0.486834 -0.444501,0.232833 -0.423334,0.232833 0.105833,0.02117 0.105833,0.169334 0,0.08467 -0.105833,0.1905 -0.08467,0.08467 -0.08467,0.169334 z m -0.423334,-3.556006 q 0,0.148167 0,0.444501 0,0.275167 0.04233,0.486834 0.04233,0.211667 0.148166,0.402167 0.105834,-0.127 0.444501,-0.338667 0.296334,-0.1905 0.444501,-0.3175 0.169333,-0.148167 0.1905,-0.338667 -0.0635,0.02117 -0.254,0.08467 -0.169334,0.0635 -0.232834,0.169334 -0.02117,-0.08467 -0.148167,-0.08467 -0.08467,0 -0.169333,0.02117 -0.0635,0.02117 -0.08467,0.02117 0,-0.254001 0.211667,-0.444501 0.211667,-0.211667 0.592667,-0.465668 0.486834,-0.338667 0.592668,-0.465667 l -0.825501,0.338667 q -0.127001,0.02117 -0.381001,0.0635 -0.254,0.04233 -0.423334,0.148167 -0.148167,0.08467 -0.148167,0.275167 z m 0.169334,1.79917 q 0,0.08467 0.02117,0.169333 0.02117,0.0635 0.08467,0.127001 0.08467,-0.08467 0.465668,-0.338668 0.381,-0.275167 0.381,-0.359833 l -0.02117,-0.0635 q -0.254001,0.02117 -0.592668,0.169334 -0.338667,0.127 -0.338667,0.296334 z m 0.105833,1.143002 q 0.169334,-0.105834 0.444501,-0.232834 0.275167,-0.127 0.423334,-0.232834 0.169334,-0.105833 0.169334,-0.211667 -0.211667,0 -0.508001,0.08467 -0.275167,0.105834 -0.529168,0.105834 z"
         style="-inkscape-font-specification:'cabin sketch Bold'"
         id="path310" /><path
         d="m 68.232099,23.855923 q 0.148167,0.317501 0.381001,0.402168 0.254,0.08467 0.656168,0.105833 0.381,0.02117 0.529167,0.105834 0.169334,0.0635 0.169334,0.338667 0,0.127 -0.04233,0.423334 -0.04233,0.275167 -0.04233,0.952501 l -0.08467,0.105834 h -1.016001 q -0.08467,0.105833 -0.444501,0.105833 -0.317501,0 -0.550334,-0.02117 -0.232834,0 -0.508001,-0.08467 -0.232834,-0.0635 -0.635001,-0.423334 -0.04233,-0.04233 -0.1905,-0.148167 -0.148167,-0.127 -0.275168,-0.1905 -0.105833,-0.0635 -0.232833,-0.0635 -0.296334,0.254001 -1.016002,0.571501 -0.719668,0.338668 -1.143002,0.338668 -0.931334,0 -1.672169,-0.169334 -0.127,-0.02117 -0.550334,-0.105833 -0.402167,-0.0635 -0.719668,-0.211667 -0.317501,-0.169334 -0.444501,-0.423335 -0.3175,-0.613834 -0.465667,-1.037168 -0.148167,-0.423334 -0.254001,-1.037168 -0.127,-0.169334 -0.127,-0.359834 0,-0.867835 0.275167,-1.312335 0.275167,-0.444501 0.846668,-0.910169 0.275168,-0.211667 0.550335,-0.486834 0.529167,-0.4445 1.121835,-0.613834 0.613834,-0.1905 1.375835,-0.1905 l 0.486834,0.04233 q 0.359834,0 0.550335,0.04233 v -0.1905 q 0,-0.613834 -0.0635,-0.910168 -0.0635,-0.296334 -0.3175,-0.465667 -0.254,-0.169334 -0.846668,-0.169334 -0.635001,0 -1.121835,0.169334 -0.486834,0.148167 -1.291169,0.529167 -0.254,0.148167 -0.359834,0.148167 -0.127,0 -0.1905,-0.105833 l 0.02117,-0.275168 q 0,-0.275167 -0.08467,-0.825501 -0.105834,-0.465667 -0.105834,-0.825501 0,-0.317501 0.423334,-0.529168 0.444501,-0.211667 0.825502,-0.254 l 1.651002,-0.338667 q 0.127,0.02117 0.317501,0.08467 0.1905,0.0635 0.296334,0.08467 0.169333,0.02117 0.740834,0.127001 0.592668,0.105833 1.058335,0.275167 0.465667,0.148167 0.931335,0.381 0.529167,0.635001 0.889001,1.79917 0.359834,1.164168 0.359834,2.010836 0,0.190501 -0.04233,0.402168 -0.04233,0.211667 -0.0635,0.296333 -0.105834,0.359834 -0.105834,0.656168 0,0.254001 0.0635,0.550334 0.08467,0.275167 0.190501,0.550335 0.254,0.740834 0.296333,1.079501 z m -5.122341,-7.768179 q -0.127,0.0635 -0.423334,0.211667 -0.275167,0.127 -0.486834,0.275167 -0.1905,0.148167 -0.254001,0.317501 0.677335,-0.1905 1.54517,-0.719668 -0.169334,-0.08467 -0.381001,-0.08467 z m 0.613834,0.169334 q -0.105833,0 -0.338667,0.296334 -0.232834,0.296333 -0.232834,0.423334 0.105834,-0.105834 0.486834,-0.338668 0.381001,-0.232833 0.444501,-0.275167 -0.04233,-0.02117 -0.169333,-0.04233 -0.127001,-0.04233 -0.190501,-0.0635 z m -2.878671,0.613834 q 0,0.105834 0.04233,0.148167 0.0635,0.04233 0.105834,0.04233 0.0635,0 0.550334,-0.296333 0.508001,-0.317501 0.508001,-0.444501 -0.105834,0 -0.571501,0.127 -0.465667,0.105834 -0.635001,0.169334 0,0.02117 0.02117,0.0635 0.04233,0.02117 0.08467,0.02117 -0.02117,0.02117 -0.0635,0.0635 -0.04233,0.02117 -0.04233,0.105833 z m 3.788839,-0.529167 q -0.148167,0 -0.275167,0.105833 -0.127,0.105834 -0.169333,0.254001 l 0.08467,0.02117 q 0.148167,0 0.254001,-0.127 0.105833,-0.127 0.105833,-0.254 z m 0.740835,0.465667 q -0.0635,0.04233 -0.169334,0.1905 -0.105833,0.127001 -0.148167,0.190501 -0.1905,0.338667 -0.3175,0.402167 l 0.0635,0.04233 1.291169,-0.571501 q 0,0.02117 0.02117,0.0635 0.04233,0.04233 0.0635,0.04233 0.04233,-0.02117 0.08467,-0.04233 0.0635,-0.04233 0.08467,-0.0635 0,-0.08467 -0.529167,-0.338667 -0.508001,-0.275167 -0.613835,-0.275167 h -0.211667 l -0.804334,0.529168 -0.08467,0.1905 q 0.169333,-0.127 0.529167,-0.254 0.381001,-0.127001 0.592668,-0.127001 z m -1.270002,-0.169334 q -1.058335,0.635001 -1.185335,0.635001 h -0.190501 q -0.0635,-0.0635 -0.0635,-0.127 0,-0.105833 0.148167,-0.254 0.169334,-0.148167 0.211667,-0.1905 h -0.105833 l -0.804335,0.465667 -0.127,-0.02117 q -0.1905,0 -0.465668,0.105834 -0.0635,0.02117 -0.232833,0.0635 -0.148167,0.04233 -0.254001,0.04233 v 0.804335 q 0.296334,-0.08467 0.804335,-0.338667 0.381001,-0.190501 0.635001,-0.275167 0.275167,-0.105834 0.592668,-0.105834 l 0.232833,0.02117 z m 0.08467,0.889002 q 0.127,0 0.232833,-0.0635 0.127001,-0.08467 0.127001,-0.190501 -0.04233,0 -0.275168,0.04233 -0.232833,0.02117 -0.275167,0.148167 0.0635,0.0635 0.190501,0.0635 z m 2.455337,0.127 q -0.02117,-0.04233 -0.08467,-0.169334 -0.04233,-0.148166 -0.105833,-0.211667 l -0.190501,0.0635 q 0.08467,0.02117 0.08467,0.127 0,0.0635 -0.02117,0.105833 -0.02117,0.04233 -0.02117,0.08467 l -0.211667,-0.04233 q -0.02117,0.02117 -0.254001,0.232833 -0.232833,0.190501 -0.232833,0.232834 0.169333,-0.04233 0.550334,-0.169334 0.381,-0.148166 0.486834,-0.254 z m -1.566336,0.423334 q 0.169334,-0.08467 0.508001,-0.296334 0.359834,-0.211667 0.508001,-0.3175 l -0.105834,-0.02117 q -0.127,0 -0.613834,0.1905 -0.465668,0.169334 -0.465668,0.254001 0,0.1905 0.169334,0.1905 z m 1.778003,0.148167 q -0.04233,0 -0.127,0.08467 -0.0635,0.0635 -0.402168,0.0635 -0.02117,0 -0.04233,0 -0.02117,-0.02117 -0.02117,-0.02117 l 0.08467,-0.1905 q 0,-0.02117 -0.04233,-0.04233 -0.02117,-0.04233 -0.04233,-0.04233 -0.3175,0.1905 -0.656167,0.254 -0.317501,0.04233 -0.338668,0.08467 0,0.127 0.08467,0.317501 0.105834,0.169333 0.148167,0.169333 0.0635,-0.0635 0.275167,-0.211667 0.232834,-0.169333 0.317501,-0.169333 0.04233,0.02117 0.08467,0.0635 0.0635,0.02117 0.08467,0.02117 -0.1905,0 -0.1905,0.169333 l 0.02117,0.105834 q 0.105833,-0.08467 0.254,-0.148167 0.148167,-0.0635 0.254001,-0.0635 0.02117,0 0.0635,0.105833 0.04233,0.105834 0.04233,0.1905 -0.211667,0.169334 -0.592668,0.444501 -0.359834,0.254001 -0.550334,0.381001 0.254001,0 0.508001,-0.0635 0.338667,-0.04233 0.508001,-0.04233 0.211667,0 0.296334,0.105834 -0.127001,0.211667 -0.359834,0.275167 v -0.127 q -0.656168,0 -0.889002,0.127 -0.0635,0.02117 -0.381,0.3175 -0.296334,0.275168 -0.381001,0.275168 -0.0635,0 -0.0635,-0.0635 0.02117,0 0.0635,-0.0635 0.04233,-0.08467 0.0635,-0.105833 -0.910168,0.381 -1.270002,0.804334 0.550334,-0.359833 1.079502,-0.359833 0.04233,0 0.105833,0.02117 0.08467,0.02117 0.148167,0.0635 0.169334,-0.02117 0.719668,-0.275167 0.677334,-0.338667 0.931335,-0.338667 0.04233,0.02117 0.275167,0.0635 0.232834,0.02117 0.232834,0.08467 0,0.127 -0.0635,0.211667 -0.0635,0.0635 -0.254001,0.1905 -0.169333,0.105834 -0.1905,0.254001 0.04233,-0.02117 0.148167,-0.02117 0.1905,0 0.275167,0.105833 0.148167,-0.169333 0.169334,-0.381 0.04233,-0.211667 0.04233,-0.529168 0,-0.381 -0.148167,-1.227668 -0.148167,-0.867835 -0.275167,-0.867835 z m -0.338667,0.656168 q -0.02117,0.02117 -0.486834,0.1905 -0.08467,0.02117 -0.486835,0.1905 -0.381,0.148167 -0.381,0.232834 0,0.04233 0.02117,0.08467 0.04233,0.04233 0.0635,0.04233 0.232833,0 0.677334,-0.232834 0.444501,-0.254 0.592668,-0.508 z m -3.97934,1.248835 q 0.04233,-0.02117 0.317501,-0.127 0.275167,-0.127 0.275167,-0.211667 -0.444501,0.0635 -0.719668,0.232834 -0.275167,0.148166 -0.762001,0.465667 z m 1.587503,-0.3175 q -0.889002,0 -1.206502,0.740834 0.127,0 0.423334,-0.169334 0.402167,-0.211667 0.762001,-0.3175 0.359834,-0.127 0.889001,-0.127 -0.402167,-0.127 -0.867834,-0.127 z m -3.450173,4.931841 q 0.04233,-0.190501 0.190501,-0.338668 0.169333,-0.148166 0.4445,-0.3175 0.402168,-0.296334 0.529168,-0.465667 h -0.254 q 0.296333,-0.148167 0.4445,-0.338668 0.148167,-0.211667 0.317501,-0.571501 0.127,-0.296333 0.3175,-0.5715 0.169334,-0.232834 0.825502,-0.740835 -0.0635,-0.02117 -0.127001,-0.0635 -0.04233,-0.0635 -0.0635,-0.105834 0.08467,-0.127 0.486834,-0.529167 0.190501,-0.148167 0.402168,-0.381001 -0.423334,0.127001 -0.952502,0.444501 -0.529167,0.296334 -0.762001,0.550334 -0.169334,0.190501 -0.465667,0.359834 -0.296334,0.1905 -0.423334,0.359834 0.1905,0 0.254,0.105834 0.148167,-0.211667 0.381001,-0.381001 0.232833,-0.169334 0.4445,-0.169334 0.02117,0 0.04233,0.0635 0.04233,0.04233 0.04233,0.08467 -0.08467,0.08467 -0.465667,0.338667 -0.508001,0.381001 -0.508001,0.402168 l -0.127,-0.169334 -0.338668,0.169334 h 0.232834 q 0,0.02117 0.02117,0.04233 0.02117,0.02117 0.02117,0.0635 -0.08467,0.0635 -0.211667,0.127 -0.127001,0.0635 -0.190501,0.148167 -0.0635,0.0635 -0.0635,0.169334 l 0.402167,-0.169334 q 0.08467,0 0.127001,0.08467 0.296333,-0.338667 0.529167,-0.338667 0,0.148167 -0.275167,0.381001 -0.275167,0.211667 -0.740834,0.529167 -0.613835,0.423334 -0.762002,0.592668 0.08467,0 0.338667,-0.148167 0.275168,-0.169334 0.656168,-0.402168 0,0.127001 -0.105833,0.232834 -0.105834,0.08467 -0.317501,0.211667 -0.444501,0.275167 -0.486834,0.465668 0,0.02117 0.04233,0.148166 0.0635,0.127001 0.148167,0.127001 z m -0.105833,-2.709338 0.275167,0.127 q 0.08467,0 0.275167,-0.148167 0.211667,-0.169333 0.275167,-0.232833 0.254001,-0.169334 0.402168,-0.275167 0.148166,-0.127001 0.275167,-0.296334 0.08467,-0.127 0.402167,-0.444501 l 0.08467,0.1905 0.105833,-0.465667 q -0.254,0 -0.762001,0.232834 -0.508001,0.232833 -1.058335,0.592667 0.02117,0.08467 0.105834,0.08467 l 0.148166,-0.02117 q 0,0.105834 -0.127,0.317501 -0.105833,0.211667 -0.254,0.211667 -0.08467,0 -0.148167,-0.0635 z m 4.910674,-0.592668 q 0.127001,0 0.275167,-0.148166 0.169334,-0.148167 0.296334,-0.148167 0.04233,0 0.0635,0.08467 0.04233,0.0635 0.0635,0.08467 0.04233,-0.148167 0.190501,-0.3175 0.148167,-0.190501 0.275167,-0.232834 -0.338667,0 -0.762001,0.1905 -0.402168,0.190501 -0.402168,0.486834 z m -0.402167,0.952502 0.02117,-0.508001 q 0,-0.592667 -0.359834,-0.592667 -0.402167,0 -0.889002,0.338667 -0.465667,0.338667 -0.804334,0.846668 -0.317501,0.486834 -0.317501,0.910168 0,0.508001 0.232834,0.656168 0.232834,0.148166 0.635001,0.148166 0.423334,0 0.846668,-0.148166 0.444501,-0.169334 0.635001,-0.486835 l 0.02117,-0.5715 z m 1.629836,-0.994835 q -0.127,0.04233 -0.423334,0.105834 -0.275167,0.0635 -0.465667,0.169333 -0.190501,0.08467 -0.190501,0.275167 0,0.423334 0.08467,0.635001 l 0.931335,-0.910168 z m -0.444501,1.079502 q 0.190501,0 0.486834,-0.105834 0.317501,-0.127 0.317501,-0.296334 0,-0.359833 -0.08467,-0.402167 -0.0635,0 -0.211667,0.0635 -0.127,0.04233 -0.127,0.127 0,0.04233 0.0635,0.08467 z m -5.566842,-0.105834 q -0.169334,0 -0.296334,0.232834 -0.127,0.211667 -0.127,0.296334 l 0.02117,0.211667 q 0.486834,-0.169334 0.486834,-0.359834 -0.211667,0 -0.211667,-0.127 0,-0.0635 0.0635,-0.127001 0.0635,-0.0635 0.0635,-0.127 z m 6.455844,0.105834 v -0.08467 l -0.169334,0.08467 z m -0.508001,0.169333 q -0.169334,0 -0.465668,0.04233 -0.211667,0.0635 -0.465667,0.0635 v 0.465667 q 0.148167,-0.169333 0.317501,-0.254 0.1905,-0.08467 0.359833,-0.127 0.190501,-0.0635 0.254001,-0.08467 z m 0.635001,0.02117 q -0.338667,0.0635 -0.571501,0.275167 h 0.211667 q 0.169334,0 0.254,-0.04233 0.105834,-0.0635 0.105834,-0.232834 z m -1.587503,1.439336 q 0.338668,-0.02117 0.571501,-0.169334 0.254001,-0.148167 0.613835,-0.465667 0.402167,-0.338668 0.423334,-0.359834 l -0.740835,0.169333 q -0.613834,0.127001 -0.740834,0.211667 -0.127001,0.08467 -0.127001,0.359834 z m -5.397508,-0.254001 q 0.127,-0.02117 0.381,-0.275167 0.275168,-0.254 0.296334,-0.359834 -0.105833,0.148167 -0.423334,0.296334 -0.296334,0.127 -0.3175,0.148167 z m 7.239011,-0.465667 q -0.04233,0 -0.148167,0.0635 -0.08467,0.04233 -0.105833,0.04233 l 0.0635,-0.1905 q -0.105833,0.04233 -0.338667,0.232834 -0.211667,0.1905 -0.296334,0.3175 0.08467,-0.04233 0.254,-0.127 0.169334,-0.08467 0.317501,-0.08467 l 0.0635,0.02117 0.105834,0.381001 -0.740835,0.338667 v 0.08467 q 0.0635,-0.02117 0.169334,-0.04233 0.105833,-0.02117 0.1905,-0.04233 l 0.211667,0.02117 q 0,0.04233 0.02117,0.127001 0.04233,0.0635 0.04233,0.105833 0,0.0635 -0.1905,0.169334 -0.169334,0.105833 -0.169334,0.1905 0.02117,0 0.275167,-0.105833 0.254001,-0.105834 0.973668,-0.423334 -0.105833,-0.105834 -0.296333,-0.254001 -0.190501,-0.169333 -0.317501,-0.338667 -0.105833,-0.169334 -0.105833,-0.359834 z m -6.138343,2.18017 q 0.254001,0 0.635001,-0.402167 0.381001,-0.423334 0.381001,-0.677335 0,-0.127 -0.148167,-0.148167 -0.148167,-0.02117 -0.148167,-0.105833 0,-0.02117 0.02117,-0.0635 0.04233,-0.0635 0.0635,-0.0635 l -0.1905,-0.359834 -0.338668,0.296334 q -0.381,0.296333 -0.381,0.423334 l 0.02117,0.105833 q 0.127001,-0.0635 0.275168,-0.105833 0.148166,-0.04233 0.254,-0.169334 0,0.169334 -0.127,0.275167 -0.105834,0.08467 -0.317501,0.1905 -0.254,0.127001 -0.359834,0.232834 -0.105833,0.105834 -0.105833,0.296334 l 0.02117,0.08467 q 0.08467,0.0635 0.211667,0.127 0.127,0.04233 0.232833,0.0635 z m 5.884343,-1.714503 q -0.127,0.02117 -0.402167,0.254001 z m -1.291169,0.804335 q 0.08467,-0.0635 0.148167,-0.08467 0.08467,-0.02117 0.105834,-0.0635 0.04233,-0.0635 0.105833,-0.211667 -0.169334,0.105833 -0.465667,0.169334 -0.296334,0.0635 -0.508001,0.0635 v -0.359834 q -0.08467,-0.0635 -0.211667,-0.0635 -0.254001,0 -0.529168,0.232833 -0.254,0.232834 -0.486834,0.508001 -0.211667,0.254001 -0.232833,0.254001 0.148166,0 0.550334,-0.275168 0.423334,-0.275167 0.613834,-0.4445 0.127,0.04233 0.127,0.211667 -0.825501,0.698501 -1.714502,1.227668 l 0.423334,0.02117 q 0.4445,0 0.952501,-0.1905 0.508001,-0.211667 0.762001,-0.550334 0.08467,-0.105834 0.148167,-0.211667 0.0635,-0.127001 0.211667,-0.232834 z m -2.963338,1.164168 q 0.02117,0 0.08467,-0.0635 0.08467,-0.08467 0.105833,-0.127 0,-0.04233 -0.04233,-0.08467 -0.04233,-0.04233 -0.04233,-0.0635 0.127,0 0.423334,-0.296334 0.3175,-0.3175 0.3175,-0.4445 -0.0635,0 -0.211667,0.04233 -0.127,0.02117 -0.296334,0.02117 0,-0.127 0.02117,-0.127 -0.04233,0 -0.211667,-0.04233 -0.169334,-0.0635 -0.296334,-0.0635 -0.211667,0 -0.423334,0.254 -0.1905,0.232834 -0.254,0.465668 0.148167,-0.08467 0.402167,-0.08467 h 0.232834 q -0.04233,0.02117 -0.169334,0.148167 -0.127,0.127 -0.1905,0.211667 0,0.127 0.04233,0.169334 0.0635,0.02117 0.190501,0.02117 0.211667,0 0.3175,-0.127 z m 5.609176,-1.016001 q 0,0.0635 -0.04233,0.169333 -0.04233,0.105834 -0.0635,0.190501 0.04233,0 0.211667,-0.148167 0.190501,-0.169334 0.254001,-0.211667 -0.04233,-0.04233 -0.232834,-0.127 -0.169334,-0.08467 -0.1905,-0.105834 0.0635,0.127 0.0635,0.232834 z m -2.137837,0.402167 q 0.02117,0 0.148167,-0.1905 0.127,-0.190501 0.169334,-0.275167 -0.02117,0 -0.254001,0.0635 -0.211667,0.0635 -0.211667,0.211667 0,0.1905 0.148167,0.1905 z m 2.751671,0.613834 q 0.0635,0 0.105834,-0.402167 0.0635,-0.402167 0.08467,-0.613834 -0.169333,0 -0.825501,0.613834 -0.3175,0.317501 -0.444501,0.402167 z m -0.973668,-0.952501 q -0.381001,0.08467 -0.529168,0.3175 -0.148167,0.232834 -0.148167,0.656168 l 0.677335,-0.698501 q 0.0635,-0.0635 0.0635,-0.169334 0,-0.105833 -0.0635,-0.105833 z m -0.931335,0.423334 -0.465667,0.169333 q 0.02117,0.02117 0.08467,0.105834 0.0635,0.0635 0.190501,0.0635 z"
         style="-inkscape-font-specification:'cabin sketch Bold'"
         id="path312" /><path
         d="m 80.508746,20.088251 q 0,0.232833 0.127,0.232833 -0.0635,0.994835 -0.317501,1.905003 -0.254,0.889002 -0.698501,2.032004 -0.04233,0.211667 -0.169333,0.359833 -0.105834,0.148167 -0.148167,0.190501 -0.169334,0.211667 -0.254001,0.381 0,0.04233 -0.3175,0.254001 -0.317501,0.211667 -0.698501,0.402167 -0.381001,0.169334 -0.677335,0.169334 -0.338667,0 -0.973668,-0.04233 -0.635001,-0.04233 -0.952502,-0.04233 -0.127,0 -0.275167,-0.04233 -0.127,-0.04233 -0.211667,-0.04233 l -0.169333,0.08467 q -0.169334,-0.02117 -0.359834,-0.169334 -0.1905,-0.169333 -0.296334,-0.338667 -0.04233,0.105834 -0.0635,0.402167 -0.02117,0.275168 -0.08467,0.402168 -0.04233,0.148167 -0.232834,0.148167 l -0.211667,-0.02117 q -0.127,-0.02117 -0.381,-0.02117 -0.381001,0 -0.529168,0.254001 h -1.079501 q -0.148167,0 -0.296334,-0.486834 -0.148167,-0.465668 -0.148167,-0.677335 0.02117,-0.148167 0.02117,-0.465667 0,-0.338668 -0.02117,-0.592668 -0.02117,-0.254 -0.04233,-0.423334 -0.08467,-0.719668 -0.08467,-1.100668 0,-0.190501 -0.08467,-0.698501 -0.127,-0.592668 -0.127,-0.931335 0,-0.211667 0.02117,-0.423334 0.04233,-0.232834 0.04233,-0.465668 v -2.24367 l 0.04233,-0.423334 h -0.127 q 0,-0.444501 0.04233,-0.846668 0.04233,-0.402167 0.148167,-0.402167 l 0.02117,-0.08467 q -0.08467,-0.04233 -0.08467,-0.486834 v -0.444501 l -0.08467,-0.0635 q 0.04233,0 0.0635,-0.04233 0.04233,-0.0635 0.04233,-0.08467 0,-0.127 -0.105834,-0.423334 -0.08467,-0.296334 -0.08467,-0.444501 0,-0.423334 0.105833,-0.910168 0.08467,-0.550334 0.08467,-0.846668 0,-0.232834 -0.0635,-0.381001 -0.04233,-0.169333 -0.04233,-0.275167 0,-0.04233 0.08467,-0.127 0.105834,-0.105833 0.169334,-0.148167 0.02117,0.08467 0.127,0.08467 0.1905,0 0.486834,-0.04233 0.296334,-0.04233 0.508001,-0.04233 1.164168,0 1.460502,0.254001 l 0.508001,0.08467 q -0.105833,0.296334 -0.105833,0.762002 l 0.02117,0.740834 -0.02117,0.677335 q -0.02117,0.804334 -0.0635,1.333502 -0.04233,0.508 -0.169333,0.994835 l 0.0635,0.02117 q 0.148167,0 0.740834,-0.254 0.635001,-0.254001 0.846668,-0.275167 0.169334,0 0.444501,0.04233 0.275167,0.02117 0.486834,0.0635 0.127001,0.02117 0.148167,0.0635 0.04233,0.02117 0.0635,0.02117 l 0.127001,-0.02117 1.587502,0.423334 q 0.232834,0 0.381001,0.105834 0.169333,0.08467 0.423334,0.296334 0.232833,0.232833 0.4445,0.338667 0.127001,0.211667 0.254001,0.381 0.3175,0.444501 0.465667,0.867835 0.169334,0.423334 0.275167,1.354669 z m -9.038181,-7.95868 q -0.105834,0 -0.190501,0.359834 -0.0635,0.338667 -0.127,0.973668 -0.04233,0.359834 -0.0635,0.444501 l 0.105833,0.08467 q 0.0635,-0.105834 0.190501,-0.1905 0.127,-0.08467 0.296334,-0.169334 0.338667,-0.1905 0.529167,-0.338667 0.211667,-0.148167 0.402167,-0.381001 -0.740834,0 -1.185335,-0.169333 0.275167,-0.127001 0.338667,-0.254001 l -0.08467,-0.08467 0.254,-0.169333 q -0.0635,-0.02117 -0.1905,-0.04233 -0.127001,-0.04233 -0.211667,-0.04233 -0.02117,-0.02117 -0.0635,-0.02117 z m 0.381,0.508001 q 0.698501,0.105834 1.058335,0.105834 0.381001,0 0.529168,-0.254001 -0.0635,-0.127 -0.359834,-0.1905 -0.275167,-0.0635 -0.465668,-0.0635 z m 0.254001,0.931335 q 0.02117,0 0.04233,0.04233 0.04233,0.02117 0.04233,0.02117 0,0.04233 -0.04233,0.148167 -0.04233,0.08467 -0.04233,0.169334 0.105833,-0.04233 0.211667,-0.211668 0.127,-0.169333 0.296333,-0.169333 l 0.0635,0.0635 q 0.08467,-0.04233 0.338668,-0.105834 0.254,-0.0635 0.381,-0.127 0.127,-0.0635 0.127,-0.211667 0,-0.127 -0.04233,-0.1905 -0.02117,-0.0635 -0.127,-0.08467 -0.0635,0.02117 -0.444501,0.232834 -0.359834,0.211667 -0.804334,0.423334 z m -1.016002,0.994835 q 0.08467,0.592667 0.105833,0.592667 h 0.232834 q 0.486834,-0.381 1.693336,-0.994834 v -0.338668 l -0.169333,0.169334 q 0,-0.02117 -0.04233,-0.04233 -0.02117,-0.04233 -0.0635,-0.04233 l -0.169334,0.08467 q -0.127,0 -0.486834,0.0635 -0.338667,0.04233 -0.338667,0.169334 0.232834,-0.0635 0.613834,-0.0635 H 72.7829 q -0.211667,0.08467 -0.698501,0.211667 -0.486834,0.127 -0.635001,0.127 l -0.359834,-0.169334 v 0.105834 z m 2.264837,1.100668 v -1.333502 q -0.635001,0.211667 -0.677335,0.211667 0,0.04233 0.04233,0.08467 0.04233,0.02117 0.0635,0.04233 -0.04233,0.08467 -0.317501,0.169334 -0.275167,0.08467 -0.359833,0.148167 l 0.08467,0.08467 0.190501,-0.02117 q 0.1905,0 0.254,0.04233 0.08467,0.02117 0.08467,0.02117 l 0.211667,-0.04233 q 0.02117,0 0.04233,0.02117 0.04233,0 0.127,0 0,0.232834 -0.3175,0.402168 -0.296334,0.169333 -0.656168,0.296333 -0.359834,0.127001 -0.529167,0.190501 0,0.08467 -0.127,0.275167 -0.127001,0.169333 -0.127001,0.275167 l 0.02117,0.211667 q 0.148167,-0.04233 0.571501,-0.338667 0.423334,-0.296334 0.508001,-0.423334 l 0.08467,0.105833 0.08467,-0.169333 z m -2.11667,0.254001 q 0.169333,0 0.740834,-0.211667 0.592668,-0.211667 0.656168,-0.338668 0,-0.04233 -0.04233,-0.08467 -0.02117,-0.0635 -0.04233,-0.0635 -0.04233,0 -0.127,0.08467 -0.169334,0 -0.529167,0.02117 -0.338668,0 -0.508001,0.127 -0.148167,0.127 -0.148167,0.465668 z m 2.032003,0.0635 q -0.04233,0.04233 -0.444501,0.169333 -0.508,0.169334 -0.719667,0.275167 -0.211667,0.105834 -0.211667,0.275168 H 72.8464 q 0.148167,-0.02117 0.317501,-0.105834 0.1905,-0.105833 0.1905,-0.232834 z m -0.381001,9.376848 q 0,-0.381001 0.190501,-0.508001 0.1905,-0.148167 0.571501,-0.232834 0.1905,-0.04233 0.338667,-0.105833 0.148167,-0.0635 0.211667,-0.169334 -0.105834,-0.08467 -0.232834,-0.211667 -0.105833,-0.127 -0.105833,-0.1905 -0.08467,0.04233 -0.211667,0.0635 -0.105834,0.02117 -0.211667,0.169334 l -0.08467,-0.0635 q -0.04233,0.211667 -0.338667,0.3175 v -0.08467 q -0.0635,0.08467 -0.169334,0.190501 -0.08467,0.08467 -0.169334,0.148167 -0.02117,0 -0.08467,-0.02117 -0.04233,-0.02117 -0.0635,-0.0635 l 0.423334,-0.423334 h -0.148167 q 0,-0.127 0.127,-0.169334 0.127,-0.0635 0.402167,-0.08467 0.296334,-0.02117 0.296334,-0.105833 0,-0.08467 -0.105834,-0.232834 -0.08467,-0.148167 -0.169333,-0.148167 l -0.232834,0.02117 q -0.0635,0 -0.0635,-0.02117 0,-0.04233 0.127,-0.169333 -0.254,0 -0.592667,0.04233 -0.338668,0.04233 -0.486834,0.04233 h -0.148167 q -0.190501,0 -0.190501,-0.08467 0,-0.148167 0.105834,-0.254001 0.127,-0.105833 0.381,-0.232833 0.402168,-0.254001 0.635001,-0.508001 0.232834,-0.254001 0.232834,-0.677335 -0.148167,0.0635 -0.571501,0.275167 -0.402167,0.190501 -0.613834,0.190501 0,-0.0635 0.02117,-0.169334 0.02117,-0.105833 0.0635,-0.211667 H 71.745732 V 21.56992 q 0,-0.254001 0.105833,-0.254001 l 0.08467,0.02117 q 0.592668,-0.508001 1.418169,-0.846668 0,-0.0635 -0.04233,-0.127 -0.04233,-0.0635 -0.04233,-0.105834 0,-0.02117 0.211667,-0.254 0.232834,-0.254001 0.381001,-0.423334 0.127,-0.465668 0.846668,-0.867835 h -0.275167 l 0.105833,-0.127 h -0.169334 v -0.08467 q 0.0635,-0.02117 0.529168,-0.232834 0.486834,-0.232833 0.698501,-0.529167 h -0.0635 q -0.571501,0.275167 -0.698501,0.3175 0,0.04233 -0.04233,0.04233 -0.0635,0 -0.148166,-0.105834 -0.0635,-0.105833 -0.148167,-0.105833 0.04233,-0.04233 0.0635,-0.04233 0.04233,-0.02117 0.0635,-0.04233 0.127,0.0635 0.148167,0.08467 0.105833,-0.190501 0.275167,-0.254001 0.169333,-0.08467 0.444501,-0.148167 0.232833,-0.0635 0.338667,-0.127 0.105833,-0.08467 0.105833,-0.232833 l 0.169334,0.02117 q 0.04233,0 0.359834,-0.3175 -0.211667,0.02117 -0.592668,0.1905 -0.381,0.1905 -0.656168,0.1905 v -0.148167 q 0.08467,-0.02117 0.444501,-0.127 0.359834,-0.127 0.529168,-0.359834 -0.190501,-0.105833 -0.486834,-0.105833 -0.169334,0 -0.677335,0.105833 -0.486834,0.08467 -0.910168,0.254001 -0.148167,0.0635 -0.211667,0.359834 -0.0635,0.296333 -0.211667,0.381 -0.1905,0.105834 -0.698501,0.275167 -0.381001,0.127001 -0.550334,0.211667 -0.169334,0.08467 -0.169334,0.190501 0.402167,0 0.740835,-0.127001 0.359834,-0.148166 0.825501,-0.402167 0.677334,-0.338667 0.952501,-0.423334 l 0.148167,-0.105833 v 0.1905 q -0.105833,0 -0.529167,0.1905 -0.423334,0.169334 -0.423334,0.338667 h 0.296334 v 0.169334 q 0,-0.02117 -0.04233,-0.04233 -0.02117,-0.02117 -0.04233,-0.02117 -0.127,0 -1.016002,0.465667 -0.889001,0.444501 -1.079501,0.592668 h 0.169333 q 0,0.1905 -0.08467,0.1905 -0.02117,0 -0.08467,-0.04233 -0.0635,-0.04233 -0.08467,-0.0635 l -0.338667,0.169333 -0.0635,-0.02117 q 0,-0.190501 0.317501,-0.381001 0.338667,-0.211667 0.889001,-0.465667 0.402168,-0.169334 0.444501,-0.211667 l -0.211667,-0.02117 q -0.127,0 -0.677334,0.148167 -0.423334,0.127 -0.550335,0.127 -0.04233,0 -0.148166,-0.04233 -0.08467,-0.04233 -0.08467,-0.127001 0.550334,-0.402167 1.016001,-0.592667 L 72.5289,17.65408 q 0.127,-0.169334 0.4445,-0.211667 0.211667,-0.04233 0.296334,-0.105833 0.105834,-0.08467 0.105834,-0.275168 -0.190501,0 -0.402168,0.105834 -0.211667,0.105833 -0.423334,0.232834 -0.211667,0.148167 -0.4445,0.254 h 0.254 q -0.08467,0.127 -0.317501,0.1905 -0.232833,0.0635 -0.423334,0.0635 0,-0.148166 0.127001,-0.275167 0.127,-0.127 0.359834,-0.296333 0.254,-0.169334 0.423334,-0.359834 -0.105834,0 -0.296334,-0.02117 -0.169334,-0.04233 -0.296334,-0.04233 -0.127,0 -0.338667,0.0635 -0.190501,0.04233 -0.338667,0.04233 v 2.815171 q 0.1905,0 0.1905,0.169334 0,0.08467 -0.105834,0.211667 -0.105833,0.127 -0.105833,0.254 0.254,0 0.550334,-0.1905 0.381001,-0.1905 0.571501,-0.1905 -0.0635,0.08467 -0.338667,0.232833 -0.254001,0.148167 -0.254001,0.275167 0.148167,-0.127 0.613835,-0.232833 0.486834,-0.105834 0.740834,-0.105834 v 0.169334 q -0.296334,0.04233 -1.016001,0.169333 -0.719668,0.127001 -0.846668,0.232834 0,0.381001 0.0635,0.677335 0.0635,0.5715 0.0635,0.698501 0.04233,-0.105834 0.169333,-0.190501 0.127001,-0.08467 0.169334,-0.105833 0,0.1905 -0.148167,0.338667 -0.127,0.127 -0.148167,0.254 0.275167,-0.169333 0.677335,-0.275167 0.402167,-0.105833 0.740834,-0.105833 v 0.169333 q -0.338667,0 -0.825501,0.127001 -0.465668,0.127 -0.592668,0.338667 0,0.02117 -0.02117,0.0635 -0.02117,0.02117 -0.04233,0.02117 l 0.0635,0.08467 v 0.677335 l 0.105834,0.0635 q -0.04233,0.465667 -0.04233,0.952501 0,1.143002 0.254001,1.143002 0.04233,0 0.275167,-0.148167 0.232833,-0.169333 0.338667,-0.254 l 0.08467,0.0635 0.08467,-0.148167 q -0.0635,0 -0.275168,0.02117 -0.211667,0 -0.402167,0.0635 0,-0.169334 0.211667,-0.338667 0.232834,-0.190501 0.296334,-0.254001 l 0.08467,0.0635 q -0.275167,0.275168 -0.275167,0.317501 h 0.529167 q 0,0.211667 0.08467,0.296334 0.105833,0.0635 0.338667,0.0635 v 0.08467 q 0,0.0635 -0.529167,0.105833 -0.402168,0.02117 -0.613835,0.0635 -0.211667,0.04233 -0.211667,0.169334 v 0.127 q 0.762002,0 1.079502,-0.127 0,0.02117 0.02117,0.04233 0.04233,0.04233 0.08467,0.04233 0.656167,0 0.656167,-0.508001 0,-0.08467 -0.169333,-0.127 -0.148167,-0.04233 -0.211667,-0.04233 -0.04233,0 -0.127001,0.02117 -0.0635,0 -0.211667,0 z m 3.810007,-8.699514 q -0.04233,0.211667 -0.232834,0.254001 0.02117,0.04233 0.0635,0.105833 0.0635,0.0635 0.08467,0.0635 0.0635,0 0.232833,-0.127 0.190501,-0.148167 0.338668,-0.169334 -0.359834,0 -0.486834,-0.127 z m 0.931334,0.254001 q -0.169333,0 -0.423334,0.296333 -0.275167,0.317501 -0.465667,0.317501 -0.0635,0 -0.127,-0.02117 -0.04233,-0.04233 -0.04233,-0.0635 0,-0.04233 0.0635,-0.08467 0.08467,-0.0635 0.105834,-0.105833 -0.211667,0 -0.296334,0.0635 -0.0635,0.0635 -0.148167,0.211667 -0.0635,0.148167 -0.169333,0.211667 -0.02117,0.02117 -0.444501,0.232834 -0.783168,0.423334 -0.804335,0.4445 0.148167,0 0.973669,-0.359834 0.846668,-0.359834 1.016001,-0.508 0.0635,0.08467 0.127,0.08467 0.0635,0 0.105834,-0.08467 0.0635,-0.08467 0.08467,-0.127001 l 0.105833,0.0635 q 0.105834,-0.127 0.232834,-0.1905 0.148167,-0.08467 0.275167,-0.127 0.127,-0.04233 0.254,-0.08467 -0.169333,-0.169333 -0.275167,-0.169333 -0.02117,0.02117 -0.127,0.08467 -0.08467,0.0635 -0.1905,0.148167 z m 0.592668,0.529167 q 0,0.0635 -0.105834,0.148167 -0.105833,0.0635 -0.169333,0.0635 -0.02117,0 -0.04233,-0.02117 -0.02117,-0.02117 -0.02117,-0.0635 -0.02117,0.105834 -0.169334,0.254001 -0.127,0.127 -0.254,0.1905 -0.127,0.08467 -0.232834,0.254 -0.08467,0.148167 -0.1905,0.254001 -0.08467,0.105833 -0.254001,0.148167 0.127001,0.02117 0.296334,0.1905 0.169334,0.169334 0.211667,0.211667 0.105834,-0.04233 0.338667,-0.275167 0.232834,-0.232834 0.592668,-0.381001 -0.08467,0.190501 -0.254,0.254001 -0.169334,0.04233 -0.254001,0.169333 l 0.0635,0.0635 1.439336,-0.402167 q 0.275167,0 0.402167,-0.08467 L 79.450411,17.90808 q -0.105834,0.02117 -0.317501,0.127001 -0.1905,0.105833 -0.359834,0.211667 0,-0.127001 0.08467,-0.211667 0.08467,-0.08467 0.169334,-0.148167 0.105833,-0.0635 0.1905,-0.148167 -0.254001,0 -0.529168,0.105833 -0.254,0.105834 -0.3175,0.127001 -0.211667,0.105833 -0.444501,0.1905 -0.232834,0.0635 -0.444501,0.0635 0,-0.127 0.232834,-0.232834 0.254001,-0.127 0.719668,-0.275167 0.105833,-0.04233 0.359834,-0.127 0.254,-0.105834 0.254,-0.169334 -0.08467,0 -0.275167,-0.0635 -0.169333,-0.08467 -0.232834,-0.105833 -0.0635,0.04233 -0.1905,0.08467 -0.127,0.02117 -0.127,0.105833 z m -2.349504,0.211667 q 0.148167,0 0.254001,-0.169334 l -0.338668,0.169334 z m 0.444501,0.698501 q 0.211667,0 0.804335,-0.359834 0.613834,-0.381 0.613834,-0.508001 -0.127,0 -0.931335,0.338668 -0.783168,0.3175 -0.931335,0.423334 0.08467,0.0635 0.232834,0.08467 0.148167,0.02117 0.211667,0.02117 z m 0.677334,-0.148167 q -0.02117,-0.02117 -0.0635,-0.02117 -0.105833,0 -0.232833,0.105833 -0.105834,0.105834 -0.148167,0.127 0.4445,0 0.4445,-0.211667 z m 2.878672,2.942172 q 0.1905,0 0.254,-0.190501 0.08467,-0.1905 0.08467,-0.402167 0,-0.423334 -0.105834,-0.931335 -0.105833,-0.508001 -0.296334,-0.783168 -0.0635,0.02117 -0.275167,0.127 -0.211667,0.105834 -0.381,0.105834 0,-0.0635 0.254,-0.211667 0.254001,-0.148167 0.402167,-0.1905 -0.04233,-0.105834 -0.1905,-0.105834 -0.3175,0 -0.804334,0.148167 -0.465668,0.148167 -0.889002,0.338667 -0.423334,0.190501 -0.423334,0.211667 0.02117,0.0635 0.08467,0.169334 0.0635,0.105833 0.127,0.232834 0.338667,-0.127001 0.423334,-0.127001 0,0.08467 -0.148167,0.169334 -0.127,0.0635 -0.211667,0.0635 v 0.08467 q 0.254001,0 0.719668,-0.169334 0.508001,-0.169333 0.719668,-0.169333 v 0.148167 q -0.148167,0.04233 -0.529168,0.105833 -0.381,0.04233 -0.613834,0.1905 -0.232834,0.127001 -0.232834,0.381001 0.105834,0 0.275167,-0.04233 0.190501,-0.04233 0.338668,-0.04233 l -0.508001,0.338667 v 0.08467 q 0.338667,0 0.973668,-0.169333 0.635001,-0.169334 0.952502,-0.169334 v 0.08467 q -0.254001,0.08467 -0.444501,0.169333 -0.169334,0.0635 -0.211667,0.08467 v 0.148167 l -0.296334,0.0635 q 0,-0.02117 0.0635,-0.08467 0.0635,-0.0635 0.08467,-0.169333 -0.232834,0 -0.613834,0.169333 -0.444501,0.148167 -0.592668,0.148167 0,0.169334 0.08467,0.381001 0.127,-0.0635 0.338667,-0.1905 0.211667,-0.148167 0.423334,-0.148167 -0.127,0.08467 -0.381001,0.232833 -0.254,0.127001 -0.381,0.275168 0.169333,-0.08467 0.275167,-0.08467 l 0.148167,0.08467 q 0.254,-0.0635 0.825501,-0.254001 0.592668,-0.1905 0.677335,-0.254 z m -7.260179,-1.73567 q -0.1905,0.02117 -0.465667,0.296334 -0.02117,0.02117 -0.148167,0.148167 -0.105833,0.105833 -0.232834,0.105833 v -0.127 l -0.169333,0.08467 v -0.08467 q 0.211667,-0.127 0.656167,-0.402167 0.444501,-0.296334 0.444501,-0.317501 -0.04233,0 -0.105833,0.02117 -0.0635,0.02117 -0.148167,0.04233 v -0.169333 q 0.275167,0 0.613834,-0.169334 v 0.232834 q 0.105834,-0.275167 0.317501,-0.338667 0.211667,-0.08467 0.592667,-0.08467 0,0.402167 -1.354669,0.846668 z m 4.699008,3.302005 q 0,-0.04233 0.0635,-0.889001 0.08467,-0.846668 0.08467,-1.333502 0,-0.232834 -0.211667,-0.613834 -0.190501,-0.402168 -0.465668,-0.698502 -0.275167,-0.296333 -0.486834,-0.296333 -0.0635,0.04233 -0.804334,0.127 -0.740835,0.08467 -1.312336,0.698501 -0.571501,0.592668 -0.571501,1.968503 0,1.079502 0.486834,1.883836 0.486834,0.783168 1.524003,0.783168 0.1905,0 0.3175,-0.08467 0.127001,-0.08467 0.296334,-0.254001 0.254001,-0.296334 0.465668,-0.338667 0.105833,-0.148167 0.254,-0.317501 0.169334,-0.1905 0.254,-0.3175 0.105834,-0.148167 0.105834,-0.317501 z m 2.05317,-3.153838 q 0,-0.148167 0.359834,-0.148167 0.105833,0 0.148167,0.08467 -0.148167,0.04233 -0.275168,0.211667 -0.127,0.148167 -0.148166,0.148167 l 0.08467,-0.1905 q -0.04233,0 -0.105833,-0.04233 -0.04233,-0.04233 -0.0635,-0.0635 z m -5.736176,0.08467 q 0,0.02117 -0.254,0.169334 -0.232834,0.148166 -0.317501,0.211667 L 73.0369,19.876584 q 0,-0.105834 0.08467,-0.127001 -0.0635,-0.02117 -0.0635,-0.127 0,-0.0635 0.148167,-0.127 0.148167,-0.0635 0.275167,-0.0635 0.08467,0 0.105834,0.04233 0.04233,0.04233 0.04233,0.169334 z m -1.481669,0.296334 q 0.02117,-0.02117 0.08467,-0.105834 0.08467,-0.08467 0.127,-0.08467 l 0.359834,0.105834 z m 0.127,1.651002 q 0.275167,-0.232833 0.656168,-0.338667 0.148167,-0.04233 0.232834,-0.105833 0.08467,-0.0635 0.1905,-0.317501 -0.423334,0 -1.079502,0.508001 0,0.02117 0.04233,0.0635 0.04233,0.04233 0.04233,0.0635 0,0.04233 -0.04233,0.08467 -0.04233,0.02117 -0.04233,0.04233 z m 7.768179,-0.338667 q -0.677334,0 -0.994835,0.423334 l -0.169333,-0.08467 q 0.04233,-0.04233 0.105833,-0.0635 0.0635,-0.02117 0.0635,-0.105833 l -0.338667,0.169333 0.0635,0.169334 -0.825501,0.423334 v 0.1905 q 0.127,0 0.338667,-0.0635 0.232834,-0.0635 0.338667,-0.0635 -0.0635,0.127 -0.423334,0.211667 -0.211667,0.04233 -0.3175,0.105834 -0.105834,0.04233 -0.105834,0.1905 0.02117,0.02117 0.04233,0.0635 0.04233,0.02117 0.0635,0.02117 l -0.02117,0.08467 h -0.08467 v 0.169334 q 0.190501,-0.08467 0.381001,-0.08467 h 0.211667 q -0.0635,0.105834 -0.211667,0.169334 -0.127,0.0635 -0.211667,0.127 -0.08467,0.0635 -0.08467,0.232834 0.04233,0 0.275167,-0.148167 0.254001,-0.169334 0.402167,-0.211667 l 0.02117,0.08467 q 0,0.0635 -0.0635,0.127 -0.0635,0.04233 -0.0635,0.0635 l 0.02117,0.0635 0.508,-0.105833 q 0.338668,-0.04233 0.486835,-0.08467 l -0.04233,-0.232834 -0.04233,-0.08467 0.169333,-0.08467 -0.105833,-0.02117 q -0.381001,0 -0.486834,0.1905 h 0.232833 q 0,0.105834 -0.08467,0.148167 -0.0635,0.02117 -0.232834,0.02117 -0.105834,0 -0.211667,-0.08467 -0.105834,-0.105834 -0.105834,-0.211667 0,-0.1905 0.444501,-0.1905 0.338667,0 0.529168,-0.08467 0.211667,-0.105834 0.211667,-0.423334 -0.0635,0 -0.148167,-0.04233 -0.08467,-0.04233 -0.211667,-0.04233 -0.127,0 -0.275167,0.04233 -0.148167,0.02117 -0.254001,0.02117 0,-0.105833 0.232834,-0.169334 0.232834,-0.08467 0.423334,-0.08467 h 0.08467 q 0.211667,0 0.232833,0.08467 z m -6.858011,1.545169 q 0,-0.296334 -0.127,-0.296334 -0.148167,0 -0.465667,0.338668 -0.296334,0.3175 -0.317501,0.338667 0.08467,-0.02117 0.359834,-0.02117 0.275167,0 0.402167,-0.04233 0.148167,-0.04233 0.148167,-0.211667 z m 4.529674,0.465668 q -0.04233,0.02117 -0.148167,0.148167 -0.105833,0.127 -0.127,0.1905 l 0.02117,0.0635 0.3175,-0.317501 z m -4.868341,0.254 q 0,0.169334 -0.105833,0.275167 -0.08467,0.08467 -0.296334,0.1905 -0.190501,0.08467 -0.254001,0.190501 h 0.254001 v 0.127 q -0.148167,0 -0.317501,0.08467 -0.148167,0.08467 -0.3175,0.08467 0,-0.296334 0.359834,-0.571501 0.381,-0.296334 0.677334,-0.381001 z m 5.524509,1.100668 q 0.486834,0 0.656168,-0.232833 0.1905,-0.254001 0.338667,-0.867835 -0.105834,0.08467 -0.359834,0.169334 -0.254001,0.08467 -0.381001,0.148167 h -0.254 l 0.169333,-0.169334 q -0.550334,0 -1.164168,0.1905 -0.613834,0.190501 -0.613834,0.529168 0.169333,0 0.359834,-0.148167 0.1905,-0.169334 0.402167,-0.169334 0.0635,0 0.127,0.02117 0.08467,0 0.127,0.02117 l 0.105834,0.0635 0.169333,-0.169334 h 0.889002 l 0.105833,0.105834 q -0.148167,0.02117 -0.613834,0.211667 -0.465667,0.1905 -0.486834,0.275167 z m -1.121835,-0.3175 q 0.0635,0.127 0.338667,0.127 l -0.169334,0.169334 q 0.296334,-0.105834 0.423334,-0.169334 -0.1905,-0.169333 -0.423334,-0.169333 z m -0.635001,0.211667 v -0.169334 h -0.08467 l -0.508001,0.486834 0.169334,0.02117 q 0.148167,0 0.4445,-0.169333 0.04233,-0.02117 0.169334,-0.08467 0.127,-0.0635 0.232834,-0.08467 z m -2.413004,0.508001 q 0.127,0 0.423334,-0.105834 0.3175,-0.127 0.3175,-0.211667 -0.02117,-0.02117 -0.105833,-0.04233 -0.08467,-0.04233 -0.127,-0.0635 -0.338668,0.127 -0.508001,0.338667 z m 2.095503,0.571501 q 0.338667,0 1.291169,-0.275167 0.952501,-0.296334 1.037168,-0.508001 h -0.338667 q -0.02117,0.08467 -0.0635,0.105833 -0.02117,0.02117 -0.08467,0.02117 -0.0635,0 -0.1905,-0.04233 -0.127,-0.0635 -0.211667,-0.0635 -0.402167,0 -1.164169,0.296334 -0.127,0.04233 -0.381,0.127 -0.232834,0.08467 -0.402168,0.105834 l -0.571501,-0.0635 q 0,-0.105834 0.148167,-0.169334 0.148167,-0.08467 0.275168,-0.105833 0.148166,-0.04233 0.232833,-0.08467 -0.211667,-0.169334 -0.677334,-0.169334 -0.381001,0.423334 -0.677335,0.444501 0,0.148167 0.254001,0.275167 0.254,0.127 0.423334,0.127 0.127,0 0.338667,-0.04233 0.232834,-0.04233 0.338667,-0.04233 0.02117,0 0.148167,0.04233 0.148167,0.02117 0.275167,0.02117 z"
         style="-inkscape-font-specification:'cabin sketch Bold'"
         id="path314" /><path
         d="m 92.256249,23.898257 q 0,0.4445 0.127001,1.291168 0.02117,0.169334 0.0635,0.571501 0.04233,0.381001 0.04233,0.677335 0,0.359834 -1.164169,0.359834 -0.613834,0 -0.825501,-0.02117 h -0.486834 q -0.105833,-0.105834 -0.571501,-0.148167 -0.444501,-0.04233 -0.613834,-0.127 -0.08467,0 -0.465668,0.169333 -0.465667,0.254001 -0.719667,0.275168 l -1.905003,-0.0635 -0.190501,-0.105833 q -1.502835,-0.529168 -2.24367,-1.968503 -0.719668,-1.439336 -0.910168,-3.090338 -0.1905,-1.67217 -0.1905,-3.85234 0,-0.783168 0.04233,-1.227669 0.04233,-0.4445 0.1905,-0.719667 h 2.645838 l 0.275167,0.105833 q 0.148167,0.0635 0.148167,0.508001 0,0.296334 -0.0635,0.698501 -0.0635,0.402167 -0.08467,0.529168 -0.148167,0.698501 -0.148167,1.079501 0,0.762001 0.148167,1.841503 l 0.08467,0.804335 q 0.04233,0.613834 0.402167,1.248835 0.381001,0.613834 0.867835,1.016002 0.508001,0.402167 0.952501,0.402167 0.232834,0 0.381001,-0.08467 0.169334,-0.08467 0.275167,-0.08467 0.169334,0 0.317501,0.04233 0.3175,0 0.465667,-0.317501 0.169334,-0.338667 0.169334,-0.719667 0,-0.296334 -0.169334,-0.973669 -0.211667,-0.719667 -0.211667,-1.248835 l 0.02117,-0.910168 -0.105834,-3.280839 q 0,-0.359834 0.0635,-0.592667 0.0635,-0.232834 0.275167,-0.232834 0.423334,0.04233 1.587503,0.211667 1.185335,0.148167 1.185335,0.254 0,0.423334 -0.08467,1.227669 -0.105833,0.677334 -0.105833,1.248835 0,0.571501 0.0635,1.185336 0.04233,0.762001 0.04233,1.143001 l 0.444501,2.582338 z m -2.878671,-7.048512 q 0.127,-0.04233 0.359834,-0.127 0.232834,-0.08467 0.359834,-0.148167 l 0.08467,-0.232833 h -0.444501 q 0,0.169333 -0.359834,0.169333 z m -4.572007,-0.02117 q 0,0.127 -0.804335,0.846668 -0.804334,0.719668 -1.100668,0.804334 h 0.169333 l 1.460503,-0.359834 q 0.402167,0 0.402167,-1.735669 h -0.423334 q 0,0.127 0.127,0.254 0.148167,0.105834 0.169334,0.190501 z m -1.820336,0.296334 h 0.08467 q 0.105834,-0.0635 0.444501,-0.317501 0.338667,-0.254 0.571501,-0.423334 h -1.100668 z m 7.471845,-0.656168 -0.275167,0.275167 0.381,0.02117 q 0.613835,0 0.804335,-0.296334 z m 0.656167,0.465667 q -0.296333,0 -0.931334,0.148167 -0.613835,0.127 -0.804335,0.296334 l 0.08467,0.740834 q 0.148167,-0.232833 0.825501,-0.613834 0.635001,-0.359834 0.825501,-0.571501 z m -8.043346,0.550334 q -0.105833,0.08467 -0.105833,0.296334 l 0.02117,0.338667 q 0.3175,-0.169333 0.677334,-0.4445 0.381001,-0.296334 0.592668,-0.550334 -0.254001,0 -0.698502,0.169333 -0.4445,0.169334 -0.486834,0.1905 z m 8.106847,0.529168 q 0.148166,-0.254 0.1905,-0.825501 -0.169334,0 -0.698501,0.402167 l -0.486834,0.338667 h 0.931334 z m -1.587503,1.121835 q 0.211667,-0.105833 0.635001,-0.402167 0.423334,-0.296334 0.592668,-0.529168 -0.338668,0 -0.656168,0.0635 -0.105834,0 -0.338667,0.04233 -0.211667,0.02117 -0.402168,0.02117 -0.02117,0.04233 -0.02117,0.211667 0,0.486835 0.1905,0.592668 z m 1.587503,-0.931335 q -0.190501,0.211667 -0.529168,0.444501 -0.423334,0.296334 -0.550334,0.465667 0.275167,0 0.550334,-0.0635 0.338667,-0.04233 0.529168,-0.04233 z m -8.191513,1.185335 q 0.1905,-0.0635 0.4445,-0.275167 0.254001,-0.232833 0.423334,-0.4445 0.190501,-0.211667 0.232834,-0.296334 -0.0635,0.04233 -0.232834,0.08467 -0.169333,0.02117 -0.232833,0.04233 -0.0635,0.02117 -0.275168,0.08467 -0.211667,0.04233 -0.338667,0.105833 -0.105833,0.0635 -0.105833,0.148167 z m 0.275167,0.465668 q 0.804334,-0.508001 1.439335,-0.635001 v -0.846668 q -0.486834,0.211667 -1.058335,0.867835 -0.359834,0.402167 -0.571501,0.571501 z m 6.117176,0.719668 0.08467,0.02117 q 0.232834,0 0.867835,-0.613834 0.635001,-0.635001 0.677334,-0.677334 -0.02117,-0.02117 -0.127,-0.04233 -0.08467,-0.04233 -0.148167,-0.04233 -0.1905,0 -0.338667,0.1905 -0.127001,0.169334 -0.338668,0.169334 -0.04233,0 -0.08467,-0.0635 -0.04233,-0.08467 -0.105834,-0.105834 -0.08467,-0.02117 -0.254,-0.04233 -0.148167,-0.02117 -0.148167,-0.0635 z m -6.307677,-0.465668 v 0.656168 q 0.317501,-0.296334 0.867835,-0.762001 0.550334,-0.465668 0.762001,-0.613835 -0.148167,0 -0.825501,0.381001 -0.635001,0.338667 -0.719668,0.338667 v -0.08467 z m 8.14918,0.423334 q 0,-0.1905 -0.02117,-0.571501 -0.02117,-0.381 -0.08467,-0.486834 -0.1905,0.338668 -0.698501,0.740835 -0.275167,0.211667 -0.486834,0.444501 0.127,0 0.381001,-0.02117 0.275167,-0.04233 0.3175,-0.105834 z m -6.41351,-0.0635 V 19.77075 l -0.105834,-0.105833 q -0.232833,0.275167 -0.613834,0.508 -0.677334,0.444501 -0.825501,0.846668 z m -0.275167,0.296334 q -0.190501,0 -0.825502,0.254 -0.635001,0.254001 -0.635001,0.381001 v 0.804335 q 0.04233,-0.232834 0.317501,-0.465668 0.296334,-0.232833 0.762001,-0.508001 0.465667,-0.296333 0.550334,-0.381 z m 6.28651,0 q -0.254001,0 -0.825502,0.127 -0.550334,0.127 -0.550334,0.275167 l 0.105834,0.592668 q 0.211667,-0.105834 0.783168,-0.444501 0.592667,-0.338667 0.592667,-0.465667 0,-0.04233 -0.04233,-0.0635 -0.02117,-0.02117 -0.0635,-0.02117 z m -0.889002,1.100668 q 0.08467,-0.02117 0.486834,-0.0635 0.867835,-0.105833 0.867835,-0.232833 v -0.656168 q -0.0635,0 -0.698501,0.444501 -0.635001,0.423334 -0.656168,0.508 z m -5.037674,0.254001 q -0.08467,0.275167 -0.275168,0.465667 -0.1905,0.169334 -0.486834,0.381001 -0.529167,0.402167 -0.677334,0.698501 0.105833,-0.02117 0.211667,-0.08467 0.105833,-0.0635 0.148167,-0.08467 l 0.508001,-0.169333 q 0.127,-0.04233 0.529167,-0.169334 0.402167,-0.148167 0.402167,-0.211667 -0.04233,-0.465667 -0.338667,-1.312335 -0.08467,-0.190501 -0.148167,-0.423334 -0.169333,0 -0.804334,0.529167 -0.635001,0.529168 -0.635001,0.677335 0.105833,0 0.486834,-0.169334 0.508001,-0.232834 0.804334,-0.232834 0.254001,0 0.275168,0.105834 z m 6.032509,-0.1905 q -0.3175,0 -0.804334,0.0635 -0.486835,0.0635 -0.486835,0.1905 0,0.0635 0.08467,0.359834 0.105834,0.275167 0.105834,0.402167 0.423334,-0.1905 0.825501,-0.444501 0.423334,-0.275167 0.635001,-0.550334 z m -7.852846,0.973668 q 0,0.0635 0.08467,0.232833 0.08467,0.169334 0.105834,0.275168 0.254,-0.317501 0.635001,-0.613835 0.381,-0.296334 0.719667,-0.486834 l 0.02117,-0.1905 q -0.571501,0.1905 -1.079502,0.402167 -0.486834,0.1905 -0.486834,0.381001 z m 4.656674,1.947336 q -0.148166,0.1905 -0.677334,0.613834 -0.3175,0.232834 -0.508001,0.402168 -0.169333,0.169333 -0.275167,0.359834 0.211667,-0.105834 0.740835,-0.402168 0.550334,-0.296333 1.079501,-0.592667 0.127001,-0.08467 0.910168,-0.635001 0.359834,-0.338667 0.740835,-0.550334 0.1905,-0.127001 0.465667,-0.232834 0.359834,-0.169334 0.592668,-0.317501 0.232834,-0.148167 0.381001,-0.381 -0.169334,0.02117 -0.402168,0.02117 -0.169333,0 -0.169333,-0.02117 0,-0.0635 0.359834,-0.148167 0.359833,-0.105834 0.613834,-0.127 0,-0.317501 -0.105834,-0.635001 l -1.143001,0.740834 v 0.275167 q -0.338668,0 -0.592668,0.169334 -0.232834,0.148167 -0.275167,0.465667 -0.232834,0.317501 -0.592668,0.508001 -0.359834,0.1905 -0.698501,0.317501 -0.3175,0.127 -0.444501,0.169333 z m 1.333503,0.338667 q 0.0635,0.08467 0.169333,0.127001 0.127,0.02117 0.1905,0.0635 0.0635,0.02117 0.0635,0.148167 0.08467,-0.04233 0.275167,-0.169334 0.211667,-0.127 0.423334,-0.211667 0.105833,-0.0635 0.783168,-0.465667 0.677334,-0.402168 0.762001,-0.550335 -0.232834,0 -0.698501,0.08467 -0.508001,0.08467 -0.846668,0.08467 0.04233,-0.169334 0.740834,-0.254 0.381001,-0.0635 0.592668,-0.148167 0.232834,-0.08467 0.232834,-0.232834 0,-0.275167 -0.08467,-0.444501 -0.804335,0.402168 -1.418169,0.867835 -0.592668,0.444501 -1.185335,1.100668 z m -3.492506,-1.905003 q -0.296334,0 -0.613834,0.211667 -0.317501,0.190501 -0.508001,0.465668 0.08467,-0.04233 0.402167,-0.169334 0.317501,-0.148167 0.508001,-0.275167 0.211667,-0.127 0.211667,-0.232834 z m -1.947336,0.931335 q 0.08467,0 0.486834,-0.3175 0.402167,-0.317501 0.592667,-0.486834 l -0.592667,0.1905 q 0,0.04233 -0.169334,0.169333 -0.169334,0.127001 -0.402167,0.190501 v 0.254 z m 0.465667,0.550334 q 0.254,-0.232833 0.762001,-0.508 0.635001,-0.381001 0.889002,-0.656168 h -0.105834 l -1.92617,0.889001 q 0.04233,0.04233 0.105834,0.169334 0.0635,0.127 0.169333,0.127 z m 2.095503,-0.635001 q 0,-0.0635 -0.0635,-0.169333 -0.04233,-0.127 -0.04233,-0.190501 -0.296334,0.105834 -0.994835,0.571501 -0.698501,0.444501 -0.740835,0.698501 0.02117,0.02117 0.0635,0.02117 0.0635,0 0.127001,-0.08467 0.08467,-0.105833 0.105833,-0.127 z m -0.635001,2.201337 q 0.148167,0 0.867835,-0.677334 0.296334,-0.296334 0.613834,-0.550334 0.317501,-0.275168 0.508001,-0.338668 -0.02117,-0.04233 -0.0635,-0.0635 -0.04233,-0.02117 -0.08467,-0.02117 0,0.02117 -0.931335,0.529167 l -0.550334,0.296334 -0.105833,-0.105834 q -0.105834,0.211667 -0.613835,0.381001 -0.02117,-0.02117 -0.08467,-0.04233 -0.04233,-0.04233 -0.04233,-0.105834 0,-0.127 0.169334,-0.275167 0.1905,-0.148167 0.529167,-0.338667 0.381001,-0.211667 0.592668,-0.381001 0.211667,-0.1905 0.211667,-0.338667 h -0.296334 l -0.994835,0.508001 -1.100668,0.592667 q 0.338667,0.550335 1.375835,0.931335 z m 6.180677,-1.841503 q -0.296334,0.190501 -0.486834,0.423334 -0.169334,0.211667 -0.317501,0.317501 -0.148167,0.105833 -0.486834,0.275167 -0.423334,0.211667 -0.613834,0.359834 0.254,0 0.529167,-0.105834 0.296334,-0.127 0.762001,-0.381 0.105834,-0.04233 0.338668,-0.169334 0.232833,-0.127 0.381,-0.169334 z m -4.635508,0.190501 q -0.04233,-0.04233 -0.127,-0.0635 -0.0635,-0.02117 -0.105833,-0.02117 -0.190501,0 -0.550334,0.296334 -0.338668,0.296333 -0.402168,0.338667 0.275167,0 0.740835,-0.317501 0.296334,-0.169333 0.4445,-0.232833 z m 0.359834,1.651002 q 0,-0.1905 0.148167,-0.359834 0.148167,-0.148167 0.402168,-0.338667 0.3175,-0.254 0.359833,-0.3175 l -2.095503,1.100668 q -0.486834,0.148167 -0.486834,0.169334 l 0.486834,-0.02117 q 0.317501,0 0.465668,0.02117 l 0.486834,0.02117 q 0.232833,0 0.3175,-0.105833 -0.08467,-0.04233 -0.08467,-0.169334 z m 3.069172,0.08467 q 0.804334,0 1.397002,-0.08467 0,-0.4445 -0.105833,-0.698501 -0.08467,-0.254 -0.08467,-0.3175 l -1.714503,0.825501 q -0.08467,0 -0.169334,0.04233 -0.08467,0.04233 -0.105833,0.04233 0.211667,0.1905 0.783168,0.1905 z m -2.624671,-0.254 q 0.381001,0 0.698501,-0.190501 0.338667,-0.211667 0.338667,-0.571501 H 88.72141 q -0.105833,0 -0.465667,0.338668 -0.359834,0.338667 -0.359834,0.423334 z"
         style="-inkscape-font-specification:'cabin sketch Bold'"
         id="path316" /><path
         d="m 99.050716,25.549259 q 0,0.613835 -0.127,0.994835 -0.571501,-0.105833 -0.804335,-0.148167 -1.037168,-0.169333 -1.778002,-0.381 -0.719668,-0.190501 -1.270002,-0.656168 -0.529168,-0.465667 -0.529168,-1.270002 l -0.08467,-0.740835 -0.02117,-1.397002 q -0.02117,-0.359834 -0.02117,-1.016001 0,-0.613835 0.02117,-0.910168 l 0.02117,-0.952502 v -0.232834 q 0,-2.603504 0.105834,-4.42384 0.105833,-1.820336 0.529167,-3.661839 h 0.105834 q 0.232833,0 0.254,0.08467 l 0.825502,0.148166 q 0.825501,0.190501 1.375835,0.211667 l 0.08467,0.105834 q 0,0.381001 0.0635,0.740834 0.04233,0.465668 0.04233,0.719668 -0.677334,2.05317 -0.677334,5.080008 0,1.037169 0.148167,2.095504 0.148167,1.037168 0.423334,2.476504 l 0.105833,0.571501 q 0,0.613834 0.08467,0.910168 0.08467,0.275167 0.211667,0.359834 0.127,0.0635 0.338667,0.08467 0.232834,0.02117 0.338668,0.0635 0.105833,0.04233 0.211667,0.232834 z M 96.087378,11.579237 q -0.359834,0.317501 -0.677334,0.698501 -0.296334,0.381001 -0.296334,0.656168 h 0.148167 q 0.127,0 0.656168,-0.550334 0.529167,-0.550335 0.529167,-0.635001 -0.232834,0.1905 -0.529167,0.1905 0,-0.105834 0.08467,-0.169334 0.08467,-0.0635 0.275168,-0.127 0.211667,-0.08467 0.275167,-0.148167 -0.338668,-0.127 -1.100669,-0.127 v 0.508001 q 0.0635,0 0.275167,-0.148167 0.232834,-0.148167 0.359834,-0.148167 z m 1.143002,0.04233 q -0.254,0 -0.402167,0.127001 -0.148167,0.127 -0.275167,0.296333 -0.127001,0.169334 -0.190501,0.254001 0.105834,0 0.254001,-0.02117 0.148167,-0.04233 0.254,-0.04233 0.04233,0 0.127,0.0635 0.08467,0.04233 0.105834,0.105833 -0.359834,0.635001 -1.185335,1.460503 l 0.105833,0.04233 0.973668,-0.508001 q 0.232834,0 0.232834,-1.778003 z m -1.672169,1.60867 q -0.338668,0 -0.444501,0.3175 -0.08467,0.317501 -0.08467,0.804335 0,0.1905 0.0635,0.359834 0.08467,0.169333 0.127,0.254 0.08467,0 0.423334,-0.296334 0.359834,-0.3175 0.550335,-0.529167 l -0.825502,0.1905 q -0.105833,-0.0635 -0.105833,-0.169333 0,-0.0635 1.375835,-1.48167 v -0.148166 q -0.169333,0 -0.296333,0.08467 -0.105834,0.0635 -0.211667,0.169334 -0.08467,0.08467 -0.127001,0.105833 -0.254,0.296334 -0.4445,0.338668 z m 0,1.799169 q 0.148167,0 0.402167,-0.127 0.275167,-0.127 0.465667,-0.127 0.04233,0 0.127001,0.08467 0.04233,-0.105834 0.211667,-0.359834 0.169333,-0.254001 0.169333,-0.486834 -0.296334,0 -0.656167,0.486834 l -0.08467,-0.105834 q -0.0635,0.190501 -0.317501,0.381001 -0.254,0.169333 -0.3175,0.254 z m 1.185335,0 q -0.127,0.08467 -0.740835,0.656168 -0.592667,0.571501 -0.592667,0.656168 0.08467,-0.02117 0.508001,-0.148167 0.423334,-0.148167 0.635001,-0.232834 0.1905,-0.232834 0.1905,-0.931335 z m -0.656168,0.08467 q -0.338667,0 -0.698501,0.232834 -0.338667,0.211667 -0.338667,0.529167 0,0.169334 0.04233,0.254001 0.190501,-0.127001 0.592668,-0.465668 0.402167,-0.359834 0.402167,-0.4445 z m -0.889001,1.672169 q -0.127,0.0635 -0.169334,0.169334 -0.04233,0.08467 -0.0635,0.232834 -0.02117,0.127 -0.0635,0.232833 0.105833,1.481669 0.105833,2.540004 0.275168,-0.211667 0.571501,-0.550334 0.296334,-0.359834 0.423334,-0.529167 l -0.550334,0.1905 -0.232834,-0.04233 q 0,-0.254001 0.211667,-0.508001 0.211667,-0.254001 0.613835,-0.635001 0.402167,-0.359834 0.402167,-0.465668 v -0.105833 q -0.296334,0.211667 -0.613834,0.275167 -0.296334,0.0635 -0.740835,0.0635 v -0.148167 l 1.354669,-1.270002 h -0.169333 q -0.0635,0 -1.079502,0.550334 z m 0.4445,0.635001 q 0.169334,-0.0635 0.465668,-0.169333 0.3175,-0.127 0.444501,-0.190501 v -0.550334 q -0.0635,0 -0.423334,0.338667 -0.359834,0.317501 -0.571501,0.571501 z m 0.910169,0.254001 q -0.08467,0.127 -0.381001,0.3175 -0.148167,0.105834 -0.232834,0.190501 -0.0635,0.08467 -0.0635,0.275167 l -0.127,-0.04233 q -0.0635,0.04233 -0.148167,0.148167 -0.0635,0.105834 -0.0635,0.169334 0,0.02117 0.02117,0.04233 0.04233,0 0.0635,0 0.486834,-0.338667 0.931335,-0.359834 z m 0.1905,2.836338 0.02117,-0.465668 q 0,-0.867835 -0.211667,-1.439335 -0.127001,0.338667 -0.402168,0.635001 -0.275167,0.296333 -0.550334,0.529167 -0.254,0.211667 -0.338667,0.296334 h 0.105833 q 0.127001,-0.04233 0.529168,-0.169334 0.423334,-0.148167 0.656168,-0.1905 v 0.08467 l -0.338668,0.3175 q -0.508,0.508001 -0.740834,0.783168 -0.232834,0.254001 -0.275167,0.444501 0.169333,-0.105834 0.423334,-0.232834 0.275167,-0.148167 0.465667,-0.232833 0.148167,0 0.254001,0.08467 0.105833,0.0635 0.105833,0.190501 0,0.127 -0.275167,0.465667 -0.275167,0.338667 -0.338667,0.402167 -0.0635,0.0635 -0.338667,0.402168 -0.254001,0.3175 -0.254001,0.423334 0.254001,0 0.508001,-0.105834 0.254,-0.105833 0.296334,-0.127 0.211667,-0.105834 0.423334,-0.169334 0.211667,-0.08467 0.423334,-0.08467 l 0.02117,0.08467 q -0.317501,0.317501 -0.465668,0.508001 -0.402167,0.486834 -0.635001,0.656168 l 0.105834,0.02117 q 0.169333,0 0.275167,-0.190501 l 0.08467,0.105834 q 0.127,-0.169334 0.3175,-0.275167 0.211667,-0.105834 0.402167,-0.105834 0.04233,0 0.105834,0.04233 0.0635,0.04233 0.08467,0.0635 v -0.465668 z m -0.931335,-0.359834 q -0.169334,0.0635 -0.359834,0.127 -0.169333,0.04233 -0.232834,0.0635 -0.211667,0.04233 -0.275167,0.08467 -0.04233,0.04233 -0.04233,0.211667 0,0.105833 0.02117,0.1905 0.02117,0.08467 0.08467,0.148167 0.02117,-0.02117 0.359834,-0.275167 0.359834,-0.275167 0.444501,-0.550334 z m -0.719668,2.455337 q 0.232834,-0.1905 0.444501,-0.465667 0.232834,-0.296334 0.402167,-0.571501 l 0.254001,-0.402168 q -0.402168,0 -0.804335,0.275167 -0.402167,0.254001 -0.402167,0.592668 0,0.381001 0.105833,0.571501 z m -0.1905,1.185335 q 0.275167,0.698501 0.359834,0.952502 0.105833,0.232833 0.127,0.254 0.1905,0 0.550334,-0.465667 0.381001,-0.486834 0.423334,-0.550335 l 0.465668,-0.550334 -0.08467,-0.08467 q -0.677334,0.508001 -1.164169,0.508001 0,-0.169333 0.127001,-0.359834 0.127,-0.211667 0.296333,-0.423334 0.169334,-0.211667 0.275168,-0.359834 h -0.08467 l -1.058335,0.444501 v 0.444501 l -0.127001,-0.0635 q -0.105833,0.105833 -0.105833,0.254 z m 2.413004,-0.359834 h -0.127 q -0.127001,0 -0.508001,0.465668 -0.381001,0.465667 -0.677335,0.910168 l 0.423334,-0.254001 q 0.0635,-0.04233 0.338668,-0.211667 0.296333,-0.169333 0.423334,-0.3175 0.148167,-0.148167 0.148167,-0.275167 z m -1.037168,2.010837 q 0.02117,-0.148167 0.127,-0.254001 0.127,-0.105833 0.338667,-0.254 0.254,-0.1905 0.381001,-0.296334 0.127,-0.127 0.169333,-0.296334 -0.148167,0 -0.359834,0.127001 -0.1905,0.105833 -0.381,0.254 -0.635001,0.465667 -0.952502,0.465667 0,0.275167 0.465668,0.275167 z m 1.397002,-0.762001 q -0.148167,0 -0.486834,0.232833 -0.338668,0.232834 -0.338668,0.338667 0,0.02117 0.02117,0.04233 0.04233,0.02117 0.04233,0.02117 0.105833,-0.0635 0.3175,-0.211667 0.211667,-0.148167 0.317501,-0.232834 0.127,-0.105834 0.127,-0.1905 z m 0.889001,0.211667 h -0.1905 l -0.444501,0.550334 -0.08467,0.08467 q 0.0635,0.127 0.254001,0.232833 0.211667,0.105834 0.275167,0.127001 0.1905,-0.190501 0.1905,-0.740835 z m -1.333502,0.762001 q 0.232834,0 0.317501,-0.105834 0.105833,-0.105833 0.1905,-0.296334 0.08467,-0.1905 0.105833,-0.254 -0.423334,0.1905 -0.698501,0.338667 -0.254,0.148167 -0.402167,0.381001 0.105833,0.105833 0.3175,0.105833 l 0.127001,-0.02117 -0.190501,-0.169334 q 0.08467,0.02117 0.232834,0.02117 z"
         style="-inkscape-font-specification:'cabin sketch Bold'"
         id="path318" /><path
         d="m 110.26902,19.51675 q 0.52917,1.291168 0.52917,2.688171 0,1.143001 -0.35983,1.883836 -0.33867,0.719668 -1.016,1.206502 -0.67734,0.465667 -1.79917,0.889001 -0.16934,0.0635 -0.42334,0.169334 -0.23283,0.105833 -0.4445,0.148167 -0.1905,0.04233 -0.46566,0.04233 -0.86784,0 -1.65101,-0.232833 -0.762,-0.232834 -1.75683,-0.677335 -0.14817,-0.0635 -0.61384,-0.211667 -0.4445,-0.169334 -0.762,-0.338667 -0.381,-0.1905 -0.80433,-0.783168 -0.42334,-0.592668 -0.719672,-1.270002 -0.296333,-0.677334 -0.296333,-1.121835 0,-1.058335 0.232833,-1.672169 0.254002,-0.635002 0.973672,-1.756837 1.12183,-2.201336 4.16984,-2.603504 h 0.35983 q 0.29633,0 0.5715,0.08467 0.29634,0.0635 0.5715,0.169334 l 0.59267,0.1905 q 1.27,0.3175 1.905,1.058335 0.635,0.719668 1.2065,2.137837 z m -4.55084,-3.026838 q -0.1905,0 -0.1905,0.381 0,0.04233 0.0212,0.0635 0.0423,0.02117 0.0635,0.02117 l 0.99484,-0.169334 q -0.16934,-0.127 -0.42334,-0.211667 -0.254,-0.08467 -0.46567,-0.08467 z m -1.56633,0.02117 q -0.97367,0.169334 -1.37584,0.550334 0.42334,0 0.8255,-0.105833 0.40217,-0.127 0.55034,-0.444501 z m -1.79917,2.434171 q -0.5715,0.0635 -0.9525,0.1905 -0.35984,0.105834 -0.52917,0.381001 0.93133,-0.465668 1.88384,-0.465668 0.1905,0 0.21166,0.105834 -0.0635,0.04233 -0.127,0.169333 -0.0635,0.127001 -0.14816,0.190501 l -1.46051,0.550334 0.10584,0.08467 q 0.21166,-0.04233 0.59266,-0.08467 0.48684,-0.0635 0.76201,-0.1905 0.27516,-0.148167 0.46566,-0.550335 0,-0.275167 0.42334,-0.656167 0.4445,-0.402168 1.016,-0.698501 0.5715,-0.296334 0.93133,-0.296334 0.10584,0.0635 0.42334,0.1905 0.33867,0.127 0.48683,0.127 0.0847,0 0.4445,-0.275167 0.381,-0.296334 0.46567,-0.402167 0.0212,0 0.10583,-0.08467 h -0.27516 q 0,-0.105833 0.0635,-0.169334 0.0635,-0.0635 0.21166,-0.105833 -0.0212,-0.02117 -0.0847,-0.04233 -0.0635,-0.04233 -0.10584,-0.04233 -0.0212,0.02117 -0.1905,0.127 -0.16933,0.08467 -0.16933,0.148167 0.0212,0 0.0423,0.0635 0.0423,0.04233 0.0423,0.08467 0,0.275167 -0.82551,0.275167 h -0.14816 q -0.127,0 -0.127,-0.0635 l 0.27516,-0.359834 q -0.6985,0.169334 -2.07433,0.783168 -0.635,0.296334 -0.93134,0.402167 -0.16933,0.0635 -0.23283,0.169334 -0.0423,0.08467 -0.0635,0.232834 -0.0212,0.127 -0.0847,0.148167 z m 0.33867,-1.524003 q -0.33867,0 -0.67734,0.254001 -0.33867,0.254 -0.5715,0.635001 -0.21167,0.359834 -0.21167,0.656167 l 0.91017,-0.254 q 0.0423,-0.105833 0.127,-0.232834 0.0847,-0.127 0.14817,-0.148167 l 1.651,-0.656167 -0.0212,-0.08467 q 0,-0.148167 0.14817,-0.211667 0.16934,-0.08467 0.48684,-0.148167 0.0423,0 0.23283,-0.04233 0.1905,-0.04233 0.254,-0.127001 l -0.10583,-0.02117 q -0.33867,0 -0.762,0.1905 -0.42334,0.1905 -0.46567,0.211667 h -0.14817 q -0.1905,0 -0.254,0.0635 l 0.0847,0.105834 -0.23284,0.0635 v -0.254001 h -0.0847 q -0.0212,0.02117 -0.381,0.338668 -0.35984,0.296333 -1.03717,0.296333 0.10583,-0.148167 0.3175,-0.254 0.23283,-0.105834 0.27517,-0.127 0.33866,-0.105834 0.40216,-0.254001 z m 5.67267,-0.04233 q 0,-0.148167 -0.29633,-0.148167 -0.16934,0 -0.508,0.232834 -0.33867,0.232833 -0.48684,0.402167 h 0.0847 q 0.6985,-0.254 0.93133,-0.359834 0.25401,-0.105833 0.27517,-0.127 z m 0.3175,0.275167 -0.86783,0.677334 -0.0635,-0.02117 q -0.0635,0 -0.21167,0.105833 -0.127,0.105834 -0.27517,0.105834 0.0635,-0.105834 0.4445,-0.381001 0.381,-0.275167 0.381,-0.296334 l -0.0212,-0.0635 q -0.67734,0.254001 -0.93134,0.359834 -0.23283,0.105834 -0.254,0.127 0,0.04233 0.29634,0.465668 0.27516,0.359834 0.33866,0.508001 0.23284,-0.169334 0.61384,-0.381001 0.40217,-0.232834 0.48683,-0.232834 v 0.190501 q -0.10583,0 -0.27516,0.127 -0.16934,0.127 -0.27517,0.232833 -0.10584,0.105834 -0.127,0.148167 0.16933,-0.04233 0.48683,-0.148167 0.33867,-0.105833 0.5715,-0.211667 0,-0.02117 0.0212,-0.04233 0.0423,-0.04233 0.0635,-0.04233 0.16933,0 0.27517,0.08467 0.0212,-0.04233 0.0212,-0.127 0,-0.1905 -0.29633,-0.211667 -0.27517,-0.04233 -0.29633,-0.0635 0,-0.04233 0.0212,-0.105833 0.0423,-0.08467 0.0847,-0.232834 -0.0847,0 -0.29633,0.105833 -0.21167,0.105834 -0.33867,0.105834 l -0.1905,-0.02117 0.8255,-0.359834 z m -0.61383,4.826008 q 0.65617,-0.486834 1.10067,-0.677335 l -0.127,-0.02117 q -0.14817,0 -0.52917,0.148167 -0.35984,0.127 -0.4445,0.127 -0.0423,0 -0.0635,-0.04233 -0.0212,-0.0635 -0.0212,-0.08467 0,-0.148167 0.16933,-0.317501 0.19051,-0.169334 0.52917,-0.402167 0.42334,-0.338667 0.48684,-0.402168 h -0.0847 l -1.18534,0.444501 q -0.0423,0.02117 -0.14816,0.571501 -0.0847,0.529168 -0.23284,0.698501 -0.5715,0.635001 -0.61383,0.635001 h -0.10583 q 0.33866,-0.232834 0.4445,-0.656168 0.10583,-0.4445 0.10583,-0.994834 0,-0.465668 -0.14817,-1.143002 -0.127,-0.698501 -0.42333,-1.227669 -0.29633,-0.550334 -0.71967,-0.613834 -0.16933,0.105833 -0.27517,0.105833 -0.127,0 -0.33866,-0.148167 -0.1905,-0.148167 -0.3175,-0.148167 -0.3175,0 -0.74084,0.317501 -0.40217,0.3175 -0.6985,0.740834 -0.27517,0.423335 -0.27517,0.698502 l 0.0212,0.211667 q 0,0.08467 -0.10583,0.359834 -0.0847,0.275167 -0.0847,0.677334 0,1.037168 0.5715,1.714503 0.5715,0.677334 1.5875,0.677334 1.31234,0 2.30717,-1.206502 -0.0847,0.148167 -0.0847,0.275167 z m 1.56633,-2.878672 q 0,-0.04233 0,-0.254 0,-0.211667 -0.16933,-0.211667 -0.16933,0.08467 -0.52917,0.254 -0.35983,0.148167 -0.635,0.338668 -0.27517,0.169333 -0.48683,0.423334 0.16933,-0.02117 0.381,-0.105834 0.23283,-0.105833 0.3175,-0.148167 0.55033,-0.3175 0.93133,-0.3175 z m -8.95351,0.190501 q -0.0847,0.08467 -0.0847,0.275167 0.14817,-0.0635 0.67734,-0.254 0.52916,-0.211668 0.86783,-0.402168 -0.1905,0 -0.67733,0.127 -0.46567,0.127001 -0.78317,0.254001 z m 9.12285,0.0635 q -0.0635,0.02117 -0.23284,0.08467 -0.14816,0.0635 -0.21166,0.127 -0.0635,0.0635 -0.55034,0.359834 -0.46566,0.275167 -0.65617,0.381 l -0.0847,0.105834 1.73567,-0.592668 z m -1.94734,0.783168 q 0.27517,0 0.71967,-0.338667 0.46567,-0.338668 0.59267,-0.423334 h -0.16934 q -0.0423,0 -1.016,0.4445 -0.127,0.0635 -0.127,0.317501 z m -5.94784,-0.402167 q -0.762,0 -1.18534,0.148166 -0.40216,0.127001 -0.40216,0.677335 0.52916,-0.148167 1.27,-0.423334 0.762,-0.275167 1.016,-0.381001 l -0.55034,-0.02117 z m 0.0635,0.656167 q 0.1905,0 0.46567,-0.08467 0.27516,-0.08467 0.27516,-0.232833 l -0.0212,-0.0635 q -0.0635,0.0635 -0.35984,0.148167 -0.27517,0.08467 -0.55033,0.211667 z m 7.93751,-0.275167 q -0.14817,0 -0.91017,0.635001 -0.23283,0.211667 -0.55033,0.444501 0.4445,-0.08467 0.99483,-0.402167 0.5715,-0.338668 0.5715,-0.677335 z m -9.69435,1.270002 q 0,0.148167 0.0212,0.169334 0.35983,-0.211667 1.016,-0.423334 0.84667,-0.275167 1.2065,-0.571501 -0.5715,0 -1.41817,0.211667 -0.8255,0.211667 -0.8255,0.613834 z m 2.47651,-0.550334 q -0.16934,0.127 -0.93134,0.359834 -0.10583,0.04233 -0.46567,0.169333 -0.33866,0.127001 -0.52916,0.232834 -0.16934,0.08467 -0.16934,0.148167 0.27517,-0.08467 0.71967,-0.127 0.635,-0.08467 0.97367,-0.232834 0.33867,-0.148167 0.40217,-0.550334 z m 7.57767,0.465667 -0.0847,-0.381 q -0.14817,0 -0.29634,0.148167 -0.127,0.127 -0.27516,0.254 -0.14817,0.127 -0.4445,0.232834 v 0.105833 q 0.33866,-0.232833 0.8255,-0.275167 z m 0,0.169334 q -0.4445,0.381001 -1.41816,0.846668 -0.76201,0.402167 -0.95251,0.529167 l -0.381,0.190501 h 0.10584 q 0.16933,0 1.16417,-0.402168 1.016,-0.423334 1.397,-0.613834 0.0635,-0.02117 0.0635,-0.105833 0.0212,-0.105834 0.0212,-0.211667 z m -9.86368,0.592668 q 0,0.127 0.0423,0.1905 0.0423,0.04233 0.14816,0.04233 0.254,0 1.22767,-0.465667 0.127,-0.0635 0.23283,-0.105834 0.10584,-0.04233 0.16934,-0.0635 v -0.105833 l -0.0847,0.02117 -0.508,0.127001 q -0.889,0.169333 -1.22767,0.359834 z m 2.24367,-0.338668 q -0.23283,0.08467 -0.86783,0.317501 -0.61384,0.211667 -0.635,0.254 h 0.14816 q 0.3175,0 0.88901,-0.08467 0.59266,-0.105833 0.59266,-0.275167 0,-0.0635 -0.0423,-0.127 -0.0423,-0.08467 -0.0847,-0.08467 z m -1.651,1.206502 q 0.0847,0 0.80433,-0.254 0.71967,-0.275167 0.97367,-0.381001 -0.9525,0 -1.98967,0.359834 0.0212,0.08467 0.0847,0.1905 0.0635,0.08467 0.127,0.08467 z m 7.26018,-0.635001 q -0.29634,0.02117 -0.74084,0.275167 -0.4445,0.232834 -0.4445,0.529168 0.0635,-0.0635 0.23284,-0.148167 0.1905,-0.105834 0.27516,-0.169334 0.0847,-0.0635 0.35984,-0.211667 0.27516,-0.148167 0.3175,-0.275167 z m 0.8255,1.460503 q 0.48683,-0.169334 0.80433,-0.465668 0.3175,-0.3175 0.3175,-0.762001 -0.1905,0 -1.16416,0.677334 -0.97367,0.656168 -1.33351,0.931335 h 0.1905 l 1.18534,-0.550334 z m -7.49301,-0.719668 q 0.889,0 1.56633,-0.275167 0,-0.04233 -0.0423,-0.105834 -0.0423,-0.08467 -0.0847,-0.08467 l -0.97367,0.275167 -0.21166,-0.02117 q -0.27517,0 -0.27517,0.148167 z m 4.46617,1.100668 q 0.10583,0.02117 0.10583,0.1905 v 0.0635 l -0.80433,0.359833 q 0.5715,0 1.05834,-0.1905 0.508,-0.211667 1.03716,-0.613834 0.23284,-0.169334 1.05834,-0.698501 0.80433,-0.508001 1.03717,-0.677335 -0.35984,0 -0.71967,0.148167 -0.35983,0.148167 -0.84667,0.444501 -0.46567,0.275167 -0.80433,0.423334 -0.3175,0.148167 -0.65617,0.148167 v -0.1905 q -0.14817,0 -0.5715,0.148166 -0.40217,0.148167 -0.42334,0.254001 0,-0.02117 -0.42333,-0.148167 -0.42333,-0.148167 -0.508,-0.148167 0,0.254 0.33867,0.296334 0.35983,0.04233 0.381,0.04233 0,0.0635 -0.52917,0.317501 -0.42333,0.211667 -0.46567,0.275167 0.65617,-0.169334 0.80434,-0.1905 0.46566,-0.105834 0.93133,-0.254001 z m -4.63551,-0.381 q 0.1905,0 0.82551,-0.254001 0.65616,-0.275167 0.71966,-0.402167 l -0.1905,-0.0635 q -0.97367,0.296334 -1.60867,0.296334 0,0.105833 0.0635,0.254 0.0847,0.148167 0.1905,0.169334 z m 2.18017,-0.465668 q -0.14816,0 -0.35983,0.0635 -0.21167,0.04233 -0.21167,0.08467 0,0.0635 0.1905,0.0635 0.14817,0 0.35984,-0.04233 0.23283,-0.04233 0.29633,-0.0635 -0.127,-0.105834 -0.27517,-0.105834 z m -0.0212,0.635001 0.48683,0.02117 q 0.0635,0 0.16934,-0.105834 0.10583,-0.105833 0.10583,-0.232833 z m 5.22817,0.825501 q 0.27517,-0.127 0.635,-0.465667 0.381,-0.338667 0.381,-0.571501 l -0.0212,-0.0635 q -0.508,0.317501 -1.22767,0.592668 -0.71967,0.254 -0.84667,0.254 -0.23283,0.232834 -0.86783,0.486834 -0.23284,0.08467 -0.46567,0.211667 -0.23284,0.127 -0.42334,0.296334 0.0212,0.02117 0.0847,0.04233 0.0635,0.04233 0.10583,0.04233 0.10584,0 0.48684,-0.105834 0.55033,-0.169333 0.762,-0.169333 0.0423,0.02117 1.397,-0.550335 z m -7.11201,-0.719667 q 0.10583,0.169333 0.27517,0.254 0.1905,0.0635 0.4445,0.105834 l 1.10067,-0.635001 -0.127,-0.04233 z m 0.8255,0.465667 q 0,0.0635 0.3175,0.169334 0.3175,0.08467 0.46567,0.08467 0.127,-0.04233 0.48683,-0.169333 0.35984,-0.148167 0.67734,-0.317501 0.33867,-0.1905 0.33867,-0.3175 -0.508,0.296334 -1.54517,0.423334 -0.127,0.02117 -0.35984,0.0635 -0.23283,0.02117 -0.381,0.0635 z m 1.18534,0.444501 q 0,0.08467 0.14816,0.08467 0.1905,0 0.59267,-0.190501 0.42334,-0.211667 0.55034,-0.254 z m 0.80433,0.359834 q 0.42334,0.105833 0.78317,0.105833 0.10583,0 0.61383,-0.232833 0.50801,-0.232834 0.80434,-0.423335 0.0212,0 0.0423,-0.02117 0.0212,-0.04233 0.0423,-0.04233 -0.52917,0 -1.16417,0.169334 -0.61384,0.169334 -1.12184,0.444501 z"
         style="-inkscape-font-specification:'cabin sketch Bold'"
         id="path320" /><path
         d="m 122.4187,23.898257 q 0,0.4445 0.127,1.291168 0.0212,0.169334 0.0635,0.571501 0.0423,0.381001 0.0423,0.677335 0,0.359834 -1.16417,0.359834 -0.61383,0 -0.8255,-0.02117 h -0.48683 q -0.10584,-0.105834 -0.5715,-0.148167 -0.4445,-0.04233 -0.61384,-0.127 -0.0847,0 -0.46566,0.169333 -0.46567,0.254001 -0.71967,0.275168 l -1.90501,-0.0635 -0.1905,-0.105833 q -1.50283,-0.529168 -2.24367,-1.968503 -0.71966,-1.439336 -0.91016,-3.090338 -0.1905,-1.67217 -0.1905,-3.85234 0,-0.783168 0.0423,-1.227669 0.0423,-0.4445 0.1905,-0.719667 h 2.64584 l 0.27516,0.105833 q 0.14817,0.0635 0.14817,0.508001 0,0.296334 -0.0635,0.698501 -0.0635,0.402167 -0.0847,0.529168 -0.14816,0.698501 -0.14816,1.079501 0,0.762001 0.14816,1.841503 l 0.0847,0.804335 q 0.0423,0.613834 0.40217,1.248835 0.381,0.613834 0.86783,1.016002 0.508,0.402167 0.9525,0.402167 0.23284,0 0.381,-0.08467 0.16934,-0.08467 0.27517,-0.08467 0.16934,0 0.3175,0.04233 0.3175,0 0.46567,-0.317501 0.16933,-0.338667 0.16933,-0.719667 0,-0.296334 -0.16933,-0.973669 -0.21167,-0.719667 -0.21167,-1.248835 l 0.0212,-0.910168 -0.10583,-3.280839 q 0,-0.359834 0.0635,-0.592667 0.0635,-0.232834 0.27516,-0.232834 0.42334,0.04233 1.58751,0.211667 1.18533,0.148167 1.18533,0.254 0,0.423334 -0.0847,1.227669 -0.10583,0.677334 -0.10583,1.248835 0,0.571501 0.0635,1.185336 0.0423,0.762001 0.0423,1.143001 l 0.4445,2.582338 z m -2.87867,-7.048512 q 0.127,-0.04233 0.35983,-0.127 0.23283,-0.08467 0.35983,-0.148167 l 0.0847,-0.232833 h -0.4445 q 0,0.169333 -0.35983,0.169333 z m -4.57201,-0.02117 q 0,0.127 -0.80433,0.846668 -0.80434,0.719668 -1.10067,0.804334 h 0.16933 l 1.4605,-0.359834 q 0.40217,0 0.40217,-1.735669 h -0.42333 q 0,0.127 0.127,0.254 0.14816,0.105834 0.16933,0.190501 z m -1.82034,0.296334 h 0.0847 q 0.10583,-0.0635 0.4445,-0.317501 0.33867,-0.254 0.5715,-0.423334 h -1.10067 z m 7.47185,-0.656168 -0.27517,0.275167 0.381,0.02117 q 0.61384,0 0.80434,-0.296334 z m 0.65617,0.465667 q -0.29634,0 -0.93134,0.148167 -0.61383,0.127 -0.80433,0.296334 l 0.0847,0.740834 q 0.14817,-0.232833 0.82551,-0.613834 0.635,-0.359834 0.8255,-0.571501 z m -8.04335,0.550334 q -0.10583,0.08467 -0.10583,0.296334 l 0.0212,0.338667 q 0.3175,-0.169333 0.67734,-0.4445 0.381,-0.296334 0.59267,-0.550334 -0.254,0 -0.69851,0.169333 -0.4445,0.169334 -0.48683,0.1905 z m 8.10685,0.529168 q 0.14816,-0.254 0.1905,-0.825501 -0.16934,0 -0.6985,0.402167 l -0.48684,0.338667 h 0.93134 z m -1.58751,1.121835 q 0.21167,-0.105833 0.635,-0.402167 0.42334,-0.296334 0.59267,-0.529168 -0.33866,0 -0.65617,0.0635 -0.10583,0 -0.33866,0.04233 -0.21167,0.02117 -0.40217,0.02117 -0.0212,0.04233 -0.0212,0.211667 0,0.486835 0.1905,0.592668 z m 1.58751,-0.931335 q -0.1905,0.211667 -0.52917,0.444501 -0.42334,0.296334 -0.55034,0.465667 0.27517,0 0.55034,-0.0635 0.33867,-0.04233 0.52917,-0.04233 z m -8.19152,1.185335 q 0.1905,-0.0635 0.4445,-0.275167 0.254,-0.232833 0.42334,-0.4445 0.1905,-0.211667 0.23283,-0.296334 -0.0635,0.04233 -0.23283,0.08467 -0.16934,0.02117 -0.23284,0.04233 -0.0635,0.02117 -0.27516,0.08467 -0.21167,0.04233 -0.33867,0.105833 -0.10583,0.0635 -0.10583,0.148167 z m 0.27517,0.465668 q 0.80434,-0.508001 1.43934,-0.635001 v -0.846668 q -0.48684,0.211667 -1.05834,0.867835 -0.35983,0.402167 -0.5715,0.571501 z m 6.11718,0.719668 0.0847,0.02117 q 0.23284,0 0.86784,-0.613834 0.635,-0.635001 0.67733,-0.677334 -0.0212,-0.02117 -0.127,-0.04233 -0.0847,-0.04233 -0.14816,-0.04233 -0.1905,0 -0.33867,0.1905 -0.127,0.169334 -0.33867,0.169334 -0.0423,0 -0.0847,-0.0635 -0.0423,-0.08467 -0.10583,-0.105834 -0.0847,-0.02117 -0.254,-0.04233 -0.14817,-0.02117 -0.14817,-0.0635 z m -6.30768,-0.465668 v 0.656168 q 0.3175,-0.296334 0.86783,-0.762001 0.55034,-0.465668 0.76201,-0.613835 -0.14817,0 -0.82551,0.381001 -0.635,0.338667 -0.71966,0.338667 v -0.08467 z m 8.14918,0.423334 q 0,-0.1905 -0.0212,-0.571501 -0.0212,-0.381 -0.0847,-0.486834 -0.1905,0.338668 -0.6985,0.740835 -0.27517,0.211667 -0.48684,0.444501 0.127,0 0.381,-0.02117 0.27517,-0.04233 0.3175,-0.105834 z m -6.41351,-0.0635 V 19.77075 l -0.10583,-0.105833 q -0.23284,0.275167 -0.61384,0.508 -0.67733,0.444501 -0.8255,0.846668 z m -0.27517,0.296334 q -0.1905,0 -0.8255,0.254 -0.635,0.254001 -0.635,0.381001 v 0.804335 q 0.0423,-0.232834 0.3175,-0.465668 0.29633,-0.232833 0.762,-0.508001 0.46567,-0.296333 0.55034,-0.381 z m 6.28651,0 q -0.254,0 -0.8255,0.127 -0.55033,0.127 -0.55033,0.275167 l 0.10583,0.592668 q 0.21167,-0.105834 0.78317,-0.444501 0.59267,-0.338667 0.59267,-0.465667 0,-0.04233 -0.0423,-0.0635 -0.0212,-0.02117 -0.0635,-0.02117 z m -0.889,1.100668 q 0.0847,-0.02117 0.48684,-0.0635 0.86783,-0.105833 0.86783,-0.232833 v -0.656168 q -0.0635,0 -0.6985,0.444501 -0.635,0.423334 -0.65617,0.508 z m -5.03767,0.254001 q -0.0847,0.275167 -0.27517,0.465667 -0.1905,0.169334 -0.48683,0.381001 -0.52917,0.402167 -0.67734,0.698501 0.10583,-0.02117 0.21167,-0.08467 0.10583,-0.0635 0.14816,-0.08467 l 0.50801,-0.169333 q 0.127,-0.04233 0.52916,-0.169334 0.40217,-0.148167 0.40217,-0.211667 -0.0423,-0.465667 -0.33867,-1.312335 -0.0847,-0.190501 -0.14816,-0.423334 -0.16934,0 -0.80434,0.529167 -0.635,0.529168 -0.635,0.677335 0.10583,0 0.48683,-0.169334 0.50801,-0.232834 0.80434,-0.232834 0.254,0 0.27517,0.105834 z m 6.03251,-0.1905 q -0.3175,0 -0.80434,0.0635 -0.48683,0.0635 -0.48683,0.1905 0,0.0635 0.0847,0.359834 0.10584,0.275167 0.10584,0.402167 0.42333,-0.1905 0.8255,-0.444501 0.42333,-0.275167 0.635,-0.550334 z m -7.85285,0.973668 q 0,0.0635 0.0847,0.232833 0.0847,0.169334 0.10583,0.275168 0.254,-0.317501 0.635,-0.613835 0.381,-0.296334 0.71967,-0.486834 l 0.0212,-0.1905 q -0.5715,0.1905 -1.07951,0.402167 -0.48683,0.1905 -0.48683,0.381001 z m 4.65667,1.947336 q -0.14816,0.1905 -0.67733,0.613834 -0.3175,0.232834 -0.508,0.402168 -0.16933,0.169333 -0.27517,0.359834 0.21167,-0.105834 0.74084,-0.402168 0.55033,-0.296333 1.0795,-0.592667 0.127,-0.08467 0.91017,-0.635001 0.35983,-0.338667 0.74083,-0.550334 0.1905,-0.127001 0.46567,-0.232834 0.35983,-0.169334 0.59267,-0.317501 0.23283,-0.148167 0.381,-0.381 -0.16934,0.02117 -0.40217,0.02117 -0.16933,0 -0.16933,-0.02117 0,-0.0635 0.35983,-0.148167 0.35983,-0.105834 0.61383,-0.127 0,-0.317501 -0.10583,-0.635001 l -1.143,0.740834 v 0.275167 q -0.33867,0 -0.59267,0.169334 -0.23283,0.148167 -0.27517,0.465667 -0.23283,0.317501 -0.59266,0.508001 -0.35984,0.1905 -0.6985,0.317501 -0.31751,0.127 -0.44451,0.169333 z m 1.33351,0.338667 q 0.0635,0.08467 0.16933,0.127001 0.127,0.02117 0.1905,0.0635 0.0635,0.02117 0.0635,0.148167 0.0847,-0.04233 0.27517,-0.169334 0.21166,-0.127 0.42333,-0.211667 0.10584,-0.0635 0.78317,-0.465667 0.67733,-0.402168 0.762,-0.550335 -0.23283,0 -0.6985,0.08467 -0.508,0.08467 -0.84667,0.08467 0.0423,-0.169334 0.74084,-0.254 0.381,-0.0635 0.59266,-0.148167 0.23284,-0.08467 0.23284,-0.232834 0,-0.275167 -0.0847,-0.444501 -0.80433,0.402168 -1.41817,0.867835 -0.59267,0.444501 -1.18533,1.100668 z m -3.49251,-1.905003 q -0.29633,0 -0.61383,0.211667 -0.3175,0.190501 -0.508,0.465668 0.0847,-0.04233 0.40216,-0.169334 0.3175,-0.148167 0.508,-0.275167 0.21167,-0.127 0.21167,-0.232834 z m -1.94734,0.931335 q 0.0847,0 0.48684,-0.3175 0.40217,-0.317501 0.59267,-0.486834 l -0.59267,0.1905 q 0,0.04233 -0.16934,0.169333 -0.16933,0.127001 -0.40216,0.190501 v 0.254 z m 0.46567,0.550334 q 0.254,-0.232833 0.762,-0.508 0.635,-0.381001 0.889,-0.656168 h -0.10583 l -1.92617,0.889001 q 0.0423,0.04233 0.10583,0.169334 0.0635,0.127 0.16934,0.127 z m 2.09551,-0.635001 q 0,-0.0635 -0.0635,-0.169333 -0.0423,-0.127 -0.0423,-0.190501 -0.29633,0.105834 -0.99483,0.571501 -0.6985,0.444501 -0.74084,0.698501 0.0212,0.02117 0.0635,0.02117 0.0635,0 0.127,-0.08467 0.0847,-0.105833 0.10584,-0.127 z m -0.63501,2.201337 q 0.14817,0 0.86784,-0.677334 0.29633,-0.296334 0.61383,-0.550334 0.3175,-0.275168 0.508,-0.338668 -0.0212,-0.04233 -0.0635,-0.0635 -0.0423,-0.02117 -0.0847,-0.02117 0,0.02117 -0.93134,0.529167 l -0.55033,0.296334 -0.10584,-0.105834 q -0.10583,0.211667 -0.61383,0.381001 -0.0212,-0.02117 -0.0847,-0.04233 -0.0423,-0.04233 -0.0423,-0.105834 0,-0.127 0.16933,-0.275167 0.1905,-0.148167 0.52917,-0.338667 0.381,-0.211667 0.59267,-0.381001 0.21167,-0.1905 0.21167,-0.338667 h -0.29634 l -0.99483,0.508001 -1.10067,0.592667 q 0.33867,0.550335 1.37583,0.931335 z m 6.18068,-1.841503 q -0.29633,0.190501 -0.48683,0.423334 -0.16934,0.211667 -0.3175,0.317501 -0.14817,0.105833 -0.48684,0.275167 -0.42333,0.211667 -0.61383,0.359834 0.254,0 0.52917,-0.105834 0.29633,-0.127 0.762,-0.381 0.10583,-0.04233 0.33866,-0.169334 0.23284,-0.127 0.381,-0.169334 z m -4.63551,0.190501 q -0.0423,-0.04233 -0.127,-0.0635 -0.0635,-0.02117 -0.10583,-0.02117 -0.1905,0 -0.55033,0.296334 -0.33867,0.296333 -0.40217,0.338667 0.27517,0 0.74083,-0.317501 0.29634,-0.169333 0.4445,-0.232833 z m 0.35984,1.651002 q 0,-0.1905 0.14816,-0.359834 0.14817,-0.148167 0.40217,-0.338667 0.3175,-0.254 0.35984,-0.3175 l -2.09551,1.100668 q -0.48683,0.148167 -0.48683,0.169334 l 0.48683,-0.02117 q 0.3175,0 0.46567,0.02117 l 0.48683,0.02117 q 0.23284,0 0.3175,-0.105833 -0.0847,-0.04233 -0.0847,-0.169334 z m 3.06917,0.08467 q 0.80433,0 1.397,-0.08467 0,-0.4445 -0.10583,-0.698501 -0.0847,-0.254 -0.0847,-0.3175 l -1.7145,0.825501 q -0.0847,0 -0.16934,0.04233 -0.0847,0.04233 -0.10583,0.04233 0.21167,0.1905 0.78317,0.1905 z m -2.62467,-0.254 q 0.381,0 0.6985,-0.190501 0.33867,-0.211667 0.33867,-0.571501 h -0.21167 q -0.10583,0 -0.46567,0.338668 -0.35983,0.338667 -0.35983,0.423334 z"
         style="-inkscape-font-specification:'cabin sketch Bold'"
         id="path322" /><path
         d="m 127.24469,19.178082 q 0,0.529168 0.508,0.804335 0.508,0.275167 1.67217,0.656168 1.0795,0.338667 1.75684,0.656168 0.67733,0.296333 1.16416,0.867834 0.48684,0.550334 0.48684,1.439336 0,0.910168 -0.5715,1.672169 -0.5715,0.740835 -1.4605,1.079502 -0.14817,0.0635 -0.46567,0.211667 -0.3175,0.169334 -0.61384,0.169334 -0.3175,0 -0.91016,0.04233 l -0.93134,0.02117 q -0.4445,0 -0.84667,-0.105834 -0.40216,-0.08467 -0.99483,-0.296334 -0.55034,-0.1905 -0.93134,-0.296333 -0.381,-0.08467 -0.78316,-0.105834 l -0.0847,-0.105833 V 23.87709 q 0,-0.08467 0.27517,-0.08467 0.4445,0 1.41816,0.402167 0.59267,0.211667 0.97367,0.338668 0.40217,0.105833 0.762,0.105833 0.23284,0 0.4445,-0.04233 0.23284,-0.0635 0.50801,-0.169334 -0.0212,-0.04233 -0.0212,-0.127 0,-0.1905 0.14817,-0.444501 0.16933,-0.338667 0.16933,-0.529167 0,-0.486834 -0.35983,-0.698501 -0.35984,-0.211667 -1.05834,-0.359834 -0.635,-0.127 -0.889,-0.296334 -0.127,-0.08467 -0.42333,-0.254 -0.27517,-0.169334 -0.46567,-0.317501 -0.1905,-0.148167 -0.1905,-0.254 -0.3175,-0.08467 -0.67734,-0.677335 -0.35983,-0.592667 -0.52916,-1.058335 l -0.0847,-0.529167 q 0,-1.354669 0.93133,-2.201337 0.93134,-0.846668 2.32834,-0.846668 0.16933,0.02117 0.4445,0.08467 0.27517,0.04233 0.59267,0.08467 2.159,0.402168 2.794,0.402168 0.1905,0 0.33867,0.613834 0.16933,0.613834 0.16933,1.227669 0,0.825501 -0.29633,0.825501 l -0.0847,-0.02117 q -0.23283,-0.402167 -0.61383,-0.550334 -0.381,-0.169334 -0.80434,-0.232834 -0.40216,-0.08467 -0.40216,-0.127 h -0.29634 q -0.762,0 -1.43933,0.211667 -0.65617,0.211667 -0.65617,0.825501 z m -0.99483,-2.49767 q -0.0423,0.105833 -0.44451,0.232834 -0.35983,0.148166 -0.5715,0.275167 -0.1905,0.127 -0.1905,0.402167 h 0.127 q 0.254,0 1.67217,-0.635001 l 0.42334,-0.169334 q -0.21167,-0.02117 -0.21167,-0.0635 0,-0.04233 0.27517,-0.169333 0.27516,-0.148167 0.29633,-0.296334 -0.84667,0 -1.10067,0.232834 z m -1.46051,2.286003 h 0.1905 q 0.0847,0 1.18534,-0.465667 1.10067,-0.465667 1.651,-0.719668 0.33867,-0.1905 0.86784,-0.486834 0.52916,-0.296334 0.86783,-0.508001 -0.10583,-0.08467 -0.508,-0.127 -0.0423,0 -0.1905,0 -0.127,-0.02117 -0.21167,-0.0635 -0.0847,-0.04233 -0.10583,-0.105833 l -1.82034,0.910168 q 0.29634,0 0.59267,-0.127001 0.3175,-0.127 0.381,-0.148166 0.55034,-0.275168 0.93134,-0.275168 0.0847,0 0.14816,0.04233 0.0635,0.04233 0.0635,0.105833 0,0.04233 -2.4765,1.143002 h -0.1905 l -1.37584,0.740835 z m 5.31284,-2.11667 q -0.127,-0.0635 -0.35983,-0.0635 -0.16933,0 -0.48683,0.338668 -0.3175,0.3175 -0.35984,0.359833 h 0.10584 z m -0.27516,0.825502 q 0.48683,0 0.80433,-0.719668 -0.16933,0 -0.381,0.08467 -0.1905,0.08467 -0.3175,0.169333 -0.10583,0.0635 -0.14817,0.08467 -0.40216,0.254001 -0.52916,0.296334 0.3175,0.08467 0.5715,0.08467 z m 1.27,-0.444501 q -0.0847,-0.1905 -0.29633,-0.1905 0,0.148167 -0.127,0.3175 -0.127,0.148167 -0.14817,0.190501 0,0.02117 0.0212,0.0635 0.0212,0.02117 0.0635,0.02117 0.0635,0 0.23283,-0.169333 0.1905,-0.190501 0.254,-0.232834 z m 0.16933,0.423334 q -0.23283,0 -0.381,0.04233 -0.14816,0.02117 -0.254,0.169334 0.35984,0.105834 0.635,0.105834 z m -5.29167,0.105834 q -0.40217,0 -0.80434,0.254 -0.381,0.232834 -0.381,0.486834 1.03717,-0.254 1.37584,-0.719668 z m 1.29117,0.465667 q -0.33867,0.1905 -0.8255,0.359834 -0.57151,0.232834 -0.95251,0.444501 -0.35983,0.1905 -0.61383,0.486834 0.254,0 0.52917,-0.148167 0.27516,-0.169334 0.33866,-0.211667 0.52917,-0.359834 0.84667,-0.359834 0,0.08467 -0.1905,0.211667 -0.1905,0.127 -0.23283,0.169333 -0.33867,0.211667 -0.4445,0.338668 0.0847,-0.02117 0.3175,-0.105834 0.23283,-0.105833 0.48683,-0.169333 0.0212,0 0.23284,-0.381001 0.23283,-0.402167 0.508,-0.529168 z m -1.92617,1.947336 q 0.254,0 0.61383,-0.232833 0.381,-0.232834 0.5715,-0.423334 -0.254,0.105833 -0.71967,0.1905 -0.508,0.08467 -0.74083,0.169334 0.0212,0.296333 0.27517,0.296333 z m 0.6985,0.0635 q 0.23283,0 0.55033,-0.04233 0.33867,-0.0635 0.3175,-0.127 l -0.1905,-0.296334 -0.8255,0.465668 z m -0.3175,0.359833 q 0.0635,0.105834 0.10583,0.232834 0.0635,0.127 0.10583,0.169334 0.10584,0 0.48684,-0.296334 0.40217,-0.296334 0.40217,-0.381001 -0.0212,-0.02117 -0.0847,-0.02117 -0.16933,0 -0.55033,0.148167 -0.35984,0.127 -0.46567,0.148166 z m 1.56633,-0.1905 q -0.10583,0.0635 -0.35983,0.1905 -0.23283,0.127001 -0.40217,0.190501 l 0.1905,0.08467 q 0.0212,-0.04233 0.33867,-0.08467 0.3175,-0.0635 0.46567,-0.105834 l 0.10583,-0.08467 q -0.0847,-0.04233 -0.1905,-0.105833 -0.0847,-0.0635 -0.14817,-0.08467 z m -1.2065,0.740835 q 0,0.04233 0.27517,0.169333 0.27517,0.105834 0.35983,0.105834 l 0.99484,-0.550334 q -0.10584,0.02117 -0.762,0.127 -0.65617,0.08467 -0.86784,0.148167 z m 2.24367,-0.190501 q -0.33867,0 -0.67733,0.148167 -0.3175,0.148167 -0.48684,0.402168 0.61384,0 1.84151,-0.254001 l 0.635,-0.105833 q -0.762,-0.190501 -1.31234,-0.190501 z m 0.0423,1.016002 q 0.23283,0 0.5715,-0.211667 0.35983,-0.232834 0.61383,-0.232834 v -0.105833 q -0.0423,0.02117 -0.86783,0.105833 -0.71967,0.04233 -1.07951,0.105834 -0.35983,0.04233 -0.33866,0.148167 0.67733,0.1905 1.10067,0.1905 z m 0.4445,0.1905 q 1.22766,0 2.0955,-0.296334 l -0.52917,-0.169333 q -0.48683,-0.1905 -0.5715,-0.1905 -0.0635,0 -0.508,0.296333 -0.4445,0.275167 -0.48683,0.359834 z m 0.59266,0.550334 q 0.254,0 0.6985,-0.1905 0.44451,-0.211667 0.52917,-0.359834 -0.33866,0 -0.91017,0.105834 -0.55033,0.08467 -0.55033,0.254 0,0.1905 0.23283,0.1905 z m 2.24367,-0.296333 q -0.254,-0.190501 -0.46566,-0.190501 l -1.46051,0.550335 v 0.105833 q 0.16934,-0.02117 0.65617,-0.0635 0.508,-0.0635 0.8255,-0.148167 0.33867,-0.105833 0.4445,-0.254 z m -0.46566,0.359834 q -0.21167,0.0635 -0.48684,0.127 -0.254,0.04233 -0.381,0.08467 -0.48683,0.08467 -0.6985,0.169333 -0.1905,0.08467 -0.1905,0.317501 l 0.0212,0.232833 2.20133,-0.994835 -0.10583,-0.02117 q -0.0847,0 -0.1905,0.04233 -0.0847,0.02117 -0.16933,0.04233 z m 1.016,0.5715 q 0,-0.465667 -0.381,-0.465667 l -1.71451,0.719668 -0.10583,0.105833 q 0.67734,0 1.43934,-0.0635 0.762,-0.08467 0.762,-0.296334 z m -2.83634,0.529168 q -0.127,0.0635 -0.55033,1.016002 0.0212,0.04233 0.0847,0.105833 0.0635,0.0635 0.10584,0.0635 0.10583,-0.338667 0.78316,-0.613834 0.67734,-0.296334 1.86267,-0.656168 V 23.68659 q -0.71966,0.232833 -1.56633,0.232833 -0.254,0 -0.71967,-0.04233 z m 2.64584,0.465667 q 0.127,-0.04233 0.14816,-0.105833 0.0423,-0.08467 0.0423,-0.211667 0,-0.232834 -0.10584,-0.232834 l -1.82033,0.719668 v 0.127 q 0.3175,0 0.8255,-0.232834 0.0423,-0.02117 0.33867,-0.127 0.29633,-0.105833 0.5715,-0.105833 z m -0.55034,0.910168 q 0.16934,-0.127 0.3175,-0.338667 0.14817,-0.211667 0.14817,-0.402167 -0.21167,0 -0.59267,0.127 l -0.889,0.254001 q -2.94217,0.698501 -3.28084,1.164168 0.254,0 1.62984,-0.254 1.397,-0.275167 2.667,-0.550335 z m -6.75217,0.105834 q 0,0.105833 0.0847,0.169334 0.635,-0.105834 1.016,-0.550335 -0.0635,0 -0.127,-0.02117 -0.0423,-0.04233 -0.0635,-0.04233 -0.1905,0 -0.52916,0.127 -0.33867,0.127001 -0.381,0.317501 z m 0.65616,0.275167 q 0.508,0 2.26484,-0.381001 -0.381,-0.275167 -1.4605,-0.275167 -0.16934,0.127001 -0.55034,0.381001 -0.35983,0.232834 -0.35983,0.254 z m 0.4445,0.169334 q 0.16934,0.105833 0.42334,0.148167 0.254,0.04233 0.381,0.04233 l 0.91017,-0.402167 q -0.0212,0 -0.0847,-0.02117 -0.0423,-0.04233 -0.0847,-0.04233 -0.3175,0.04233 -0.78316,0.127 -0.46567,0.08467 -0.76201,0.148167 z m 2.66701,0.550334 q 0.99483,0 1.9685,-0.359834 l -0.254,-0.02117 q -0.14817,0 -0.42333,0.04233 -0.27517,0.04233 -0.40217,0.04233 0.0847,0 0.0847,-0.169333 l -1.27001,0.359833 q 0.0635,0.0635 0.12701,0.08467 0.0847,0.02117 0.16933,0.02117 z"
         style="-inkscape-font-specification:'cabin sketch Bold'"
         id="path324" /></g></g></svg>
