<?xml version="1.0" encoding="UTF-8" standalone="no"?>
<!-- Created with Inkscape (http://www.inkscape.org/) -->

<svg
   width="192.64157"
   height="160.96533"
   viewBox="0 0 50.969747 42.588743"
   version="1.1"
   id="svg1194"
   inkscape:version="1.1 (c4e8f9e, 2021-05-24)"
   sodipodi:docname="pinch.svg"
   inkscape:export-filename="/home/damien/dev/perso/tabulous/apps/web/public/images/help/pinch.png"
   inkscape:export-xdpi="100"
   inkscape:export-ydpi="100"
   xmlns:inkscape="http://www.inkscape.org/namespaces/inkscape"
   xmlns:sodipodi="http://sodipodi.sourceforge.net/DTD/sodipodi-0.dtd"
   xmlns="http://www.w3.org/2000/svg"
   xmlns:svg="http://www.w3.org/2000/svg">
  <sodipodi:namedview
     id="namedview1196"
     pagecolor="#ffffff"
     bordercolor="#666666"
     borderopacity="1.0"
     inkscape:pageshadow="2"
     inkscape:pageopacity="0.0"
     inkscape:pagecheckerboard="0"
     inkscape:document-units="px"
     showgrid="false"
     fit-margin-top="5"
     fit-margin-left="5"
     fit-margin-right="5"
     fit-margin-bottom="5"
     units="px"
     inkscape:zoom="2.6832492"
     inkscape:cx="22.547291"
     inkscape:cy="127.27107"
     inkscape:window-width="1920"
     inkscape:window-height="1080"
     inkscape:window-x="1920"
     inkscape:window-y="-37"
     inkscape:window-maximized="1"
     inkscape:current-layer="g2829">
    <inkscape:grid
       type="xygrid"
       id="grid6583" />
  </sodipodi:namedview>
  <defs
     id="defs1191" />
  <g
     inkscape:label="Calque 1"
     inkscape:groupmode="layer"
     id="layer1">
    <g
       id="g2829"
       transform="translate(-134.96548,-32.199732)">
      <path
         id="path166450-3-2-3-1-0-3-9-1-9"
         style="font-variation-settings:normal;vector-effect:none;fill:#afffaf;fill-opacity:1;fill-rule:evenodd;stroke:#00ff00;stroke-width:1;stroke-linecap:butt;stroke-linejoin:miter;stroke-miterlimit:4;stroke-dasharray:none;stroke-dashoffset:0;stroke-opacity:1;-inkscape-stroke:none;stop-color:#000000"
         inkscape:transform-center-x="-2.5136761"
         inkscape:transform-center-y="-0.0075119034"
         d="m 156.78241,47.62621 -5.83789,-5.80998 -5.81153,5.82548 2.83536,0.04 0.29079,12.91234 -2.77246,-0.0463 5.97328,5.98775 6.00067,-5.97173 -3.36124,-0.0443 -0.45204,-12.87232 z"
         sodipodi:nodetypes="ccccccccccc" />
      <path
         style="font-variation-settings:normal;vector-effect:none;fill:#808080;fill-opacity:1;stroke:none;stroke-width:0.79375;stroke-linecap:butt;stroke-linejoin:miter;stroke-miterlimit:4;stroke-dasharray:none;stroke-dashoffset:0;stroke-opacity:1;-inkscape-stroke:none;stop-color:#000000"
         d="m 167.65545,66.243381 c 0,0 -3.51543,-0.908536 -4.52864,-0.932855 l -6.36034,1.875279 c 0,0 -0.7378,0.479899 -1.44083,-0.626097 -0.70302,-1.105999 -0.0821,-1.739487 -0.0821,-1.739487 2.70221,-2.108547 6.56114,-6.877747 6.56114,-6.877747 L 152.9573,41.826149 c -0.56294,-0.977777 -0.34543,-1.134568 0.77342,-1.771648 1.13946,-0.64881 1.30753,-0.361552 1.87143,0.446397 l 8.0106,10.430357 c 5.29158,-0.864255 9.12066,1.641278 9.9435,2.847175 2.24973,4.333807 3.00641,9.313923 3.00641,9.313923 -1.56772,1.653564 -5.19817,3.442859 -8.9072,3.151028 z"
         id="path978-2-6-8-9-3-4"
         sodipodi:nodetypes="ccczcccsccccc" />
      <path
         style="fill:none;stroke:#000000;stroke-width:0.79375;stroke-linecap:butt;stroke-linejoin:miter;stroke-miterlimit:4;stroke-dasharray:none;stroke-opacity:1"
         d="m 163.61274,50.931255 c 5.29158,-0.864255 9.12066,1.641277 9.9435,2.847175 2.24973,4.333808 3.00641,9.313923 3.00641,9.313923"
         id="path976-6-0-1-9-9"
         sodipodi:nodetypes="ccc" />
      <path
         style="fill:none;stroke:#000000;stroke-width:0.79375;stroke-linecap:butt;stroke-linejoin:miter;stroke-miterlimit:4;stroke-dasharray:none;stroke-opacity:1"
         d="m 167.65545,66.243382 c 0,0 -3.51543,-0.908538 -4.52864,-0.932857 l -6.36034,1.875281 c 0,0 -0.7378,0.479898 -1.44083,-0.626099 -0.70302,-1.105998 -0.0821,-1.739487 -0.0821,-1.739487 2.70222,-2.108545 6.56115,-6.877746 6.56115,-6.877746 l -8.84738,-16.116325 c -0.56294,-0.977777 -0.34543,-1.134568 0.77342,-1.771648 1.13946,-0.648811 1.30753,-0.361552 1.87143,0.446397 l 9.42828,12.237736"
         id="path978-2-6-8-1-1"
         sodipodi:nodetypes="ccczcccscc" />
    </g>
  </g>
</svg>
