<?xml version="1.0" encoding="UTF-8" standalone="no"?>
<svg
   xml:space="preserve"
   width="139.76401"
   height="200"
   viewBox="0 0 139.764 200"
   version="1.1"
   id="svg5489"
   sodipodi:docname="dragon-1.svg"
   inkscape:version="1.2.2 (b0a8486, 2022-12-01)"
   xmlns:inkscape="http://www.inkscape.org/namespaces/inkscape"
   xmlns:sodipodi="http://sodipodi.sourceforge.net/DTD/sodipodi-0.dtd"
   xmlns="http://www.w3.org/2000/svg"
   xmlns:svg="http://www.w3.org/2000/svg"><defs
   id="defs5493">
    
    
  </defs><sodipodi:namedview
   id="namedview5491"
   pagecolor="#ffffff"
   bordercolor="#666666"
   borderopacity="1.0"
   inkscape:showpageshadow="2"
   inkscape:pageopacity="0.0"
   inkscape:pagecheckerboard="0"
   inkscape:deskcolor="#d1d1d1"
   showgrid="false"
   inkscape:zoom="1.18"
   inkscape:cx="28.813559"
   inkscape:cy="100.42373"
   inkscape:window-width="1860"
   inkscape:window-height="1016"
   inkscape:window-x="1980"
   inkscape:window-y="27"
   inkscape:window-maximized="1"
   inkscape:current-layer="svg5489" />
  <path
   id="path2"
   d="m 139.76365,14.45914 v 171.08575 c 0,4.01307 -1.4076,7.42922 -4.21473,10.24038 -2.81116,2.80712 -6.22731,4.21472 -10.24038,4.21472 H 14.45914 c -4.0171,0 -7.43325,-1.4076 -10.24441,-4.21472 C 1.40357,192.97411 0,189.55796 0,185.54489 V 14.45914 C 0,10.44608 1.40357,7.02993 4.21473,4.21876 7.02589,1.4076 10.43801,0 14.45914,0 h 110.84537 c 4.01307,0 7.42921,1.4076 10.24038,4.21876 2.81116,2.81117 4.21876,6.22329 4.21876,10.24038 z"
   inkscape:connector-curvature="0"
   style="fill:#ffffff;stroke-width:4.03323"
   sodipodi:nodetypes="sscsscsssssss" /><path
   fill="#870000"
   d="m 66.02608,42.170063 c 3.210388,1.286575 6.344145,3.940387 9.39724,7.953372 3.049061,4.017017 4.577625,7.150775 4.577625,9.397239 0,0.963923 -0.28232,1.806851 -0.842928,2.528785 -0.564641,0.721934 -1.201879,1.40757 -1.927846,2.04884 -0.721934,0.645304 -1.488232,2.089172 -2.290829,4.335637 -0.80663,2.250497 -1.367238,5.142266 -1.685857,8.675305 2.089172,-0.637237 4.819614,-1.645525 8.195361,-3.012763 3.371713,-1.363204 6.182819,-2.444089 8.433317,-3.254752 2.246464,-0.802597 3.936354,-1.205912 5.05757,-1.205912 1.282541,0 3.053094,1.447901 5.303597,4.335637 0.48397,0.645304 1.52453,1.770553 3.12972,3.375746 1.60519,1.605194 2.69011,2.770774 3.25475,3.492708 0.56061,0.721934 1.16155,1.685857 1.80685,2.891769 0.64127,1.205912 0.96393,2.286796 0.96393,3.254752 0,1.443867 -0.64531,2.165801 -1.93188,2.165801 -3.0531,0 -5.29956,0.564641 -6.74343,1.685857 -1.125249,1.770553 -2.613481,3.855691 -4.456631,6.267515 -1.847183,2.411824 -3.335415,4.339671 -4.456631,5.783541 -1.129282,1.4479 -1.689889,2.49652 -1.689889,3.13375 0,2.89177 -1.125249,4.33967 -3.371714,4.33967 -0.80663,0 -2.452155,-0.24199 -4.940609,-0.72193 -2.492486,-0.48398 -5.662542,-0.8026 -9.518234,-0.96392 0,1.44386 -0.0847,4.85994 -0.241989,10.24016 -0.161326,5.38426 -0.241989,8.39702 -0.241989,9.03426 0,1.12525 0.157293,4.17834 0.483978,9.15928 0.322652,4.98094 0.483978,8.35266 0.483978,10.11918 0,4.17834 -0.564641,8.35265 -1.685856,12.53099 -1.129282,4.17835 -2.331161,6.90879 -3.613703,8.19133 -1.927845,-1.60519 -2.891768,-7.79204 -2.891768,-18.55249 0,-1.12121 0.08066,-3.53304 0.241989,-7.2274 0.161326,-3.69437 0.241989,-7.07011 0.241989,-10.12321 0,-1.76652 -0.08066,-5.42055 -0.241989,-10.9621 -0.161326,-5.54155 -0.241989,-9.59486 -0.241989,-12.16801 -1.286575,0 -3.452377,0.5243 -6.505471,1.56486 -3.053095,1.04862 -5.545581,1.56889 -7.469394,1.56889 -1.286575,0 -1.931879,-1.20591 -1.931879,-3.6137 0,-1.44387 -3.053094,-4.81961 -9.15525,-10.119173 -6.106189,-5.299559 -9.155251,-9.316576 -9.155251,-12.047019 0,-4.012984 0.637238,-6.74746 1.927846,-8.195361 1.282542,0.80663 2.851437,2.012542 4.69862,3.613703 1.847182,1.609227 3.452376,2.891768 4.819614,3.855691 1.367238,0.963923 2.528785,1.447901 3.496741,1.447901 0.967956,0 4.254973,-1.044586 9.881217,-3.133758 5.622211,-2.089171 8.751936,-3.452376 9.39724,-4.09768 v -3.613702 c 0,-1.923813 -0.04033,-3.331382 -0.116961,-4.218675 -0.0847,-0.879227 -0.205691,-2.169835 -0.362984,-3.855692 -0.161326,-1.685856 -0.403315,-2.972431 -0.721934,-3.855691 -0.326685,-0.88326 -0.685635,-1.847183 -1.084917,-2.891769 -0.403315,-1.044585 -1.004255,-1.847182 -1.806851,-2.411823 -0.80663,-0.560608 -1.685857,-0.842929 -2.64978,-0.842929 0,-0.318618 -0.165359,-0.923591 -0.483978,-1.806851 -0.318619,-0.88326 -0.479945,-1.568895 -0.479945,-2.04884 -0.0081,-3.694365 3.040995,-7.711383 9.147184,-12.047019 z M 48.195524,90.600128 c 3.529007,4.98094 6.424808,9.800552 8.675306,14.458842 2.569117,-0.32265 5.138233,-0.8026 7.711383,-1.44387 V 85.542558 c -1.443868,0.479945 -3.250719,1.246243 -5.420554,2.286796 -2.169835,1.048619 -4.017017,1.847183 -5.541548,2.411824 -1.528564,0.564641 -2.690111,0.842928 -3.492708,0.842928 -0.649337,0.004 -1.290608,-0.157293 -1.931879,-0.483978 z m 25.057961,-7.949339 c -0.641271,7.711383 -0.963923,14.45481 -0.963923,20.238351 0.641271,0 1.76652,0.0444 3.371714,0.12099 1.605194,0.0847 3.049061,0.121 4.339669,0.121 0.479945,-0.64128 1.443868,-1.96415 2.891769,-3.976691 1.443867,-2.008508 2.569116,-3.613702 3.371713,-4.819614 0.802597,-1.201879 1.726188,-2.64978 2.770774,-4.335636 1.040553,-1.685857 1.806851,-3.214421 2.290829,-4.577625 0.483978,-1.363205 0.721934,-2.528786 0.721934,-3.496742 0,-1.927845 -1.286575,-2.887735 -3.855691,-2.887735 -3.53304,0 -8.51398,1.205912 -14.938788,3.613702 z"
   id="path5485"
   style="stroke-width:4.03315" />
</svg>
