<?xml version="1.0" encoding="UTF-8" standalone="no"?>
<!-- Generator: Adobe Illustrator 16.0.0, SVG Export Plug-In . SVG Version: 6.00 Build 0)  -->

<svg
   version="1.1"
   id="图层_1"
   x="0px"
   y="0px"
   width="139.76401"
   height="200"
   viewBox="0 0 139.764 200"
   enable-background="new 0 0 714 341"
   xml:space="preserve"
   sodipodi:docname="man-1.svg"
   inkscape:version="1.2.2 (b0a8486, 2022-12-01)"
   xmlns:inkscape="http://www.inkscape.org/namespaces/inkscape"
   xmlns:sodipodi="http://sodipodi.sourceforge.net/DTD/sodipodi-0.dtd"
   xmlns="http://www.w3.org/2000/svg"
   xmlns:svg="http://www.w3.org/2000/svg"
   xmlns:rdf="http://www.w3.org/1999/02/22-rdf-syntax-ns#"
   xmlns:cc="http://creativecommons.org/ns#"
   xmlns:dc="http://purl.org/dc/elements/1.1/"><metadata
   id="metadata621"><rdf:RDF><cc:Work
       rdf:about=""><dc:format>image/svg+xml</dc:format><dc:type
         rdf:resource="http://purl.org/dc/dcmitype/StillImage" /><dc:title /></cc:Work></rdf:RDF></metadata><defs
   id="defs619" /><sodipodi:namedview
   pagecolor="#ffffff"
   bordercolor="#666666"
   borderopacity="1"
   objecttolerance="10"
   gridtolerance="10"
   guidetolerance="10"
   inkscape:pageopacity="0"
   inkscape:pageshadow="2"
   inkscape:window-width="1860"
   inkscape:window-height="1016"
   id="namedview617"
   showgrid="false"
   inkscape:zoom="2.8284271"
   inkscape:cx="101.46982"
   inkscape:cy="84.676037"
   inkscape:window-x="1980"
   inkscape:window-y="27"
   inkscape:window-maximized="1"
   inkscape:current-layer="图层_1"
   inkscape:showpageshadow="2"
   inkscape:pagecheckerboard="0"
   inkscape:deskcolor="#d1d1d1" />



















































































































































































































































































































<path
   id="path2"
   d="M 139.76365,14.459145 V 185.54489 c 0,4.01307 -1.4076,7.42922 -4.21473,10.24038 C 132.73776,198.5924 129.32161,200 125.30854,200 H 14.459143 C 10.442042,200 7.0258934,198.5924 4.2147295,195.78527 1.4035655,192.97411 1.5619999e-7,189.55796 1.5619999e-7,185.54489 V 14.459145 C 1.5619999e-7,10.446078 1.4035655,7.0299288 4.2147295,4.2187648 7.0258934,1.4076008 10.438009,2.2388e-6 14.459143,2.2388e-6 H 125.30451 c 4.01307,0 7.42921,1.4075985612 10.24038,4.2187625612 2.81116,2.811164 4.21876,6.2232802 4.21876,10.2403802 z"
   inkscape:connector-curvature="0"
   style="fill:#ffffff;stroke-width:4.03323"
   sodipodi:nodetypes="sscsscsssssss" /><path
   id="path4"
   d="m 42.171493,64.338148 c -9.482133,0 -14.217149,-1.205937 -14.217149,-3.613778 0,-1.443897 1.282568,-2.169879 3.855771,-2.169879 0.641284,0 1.766557,0.04033 3.371784,0.120997 1.601193,0.0847 2.891828,0.120997 3.855771,0.120997 8.675486,0 18.673873,-2.411874 29.999193,-7.227555 11.325321,-4.815682 18.10922,-7.227555 20.359764,-7.227555 2.56917,0 5.182706,0.362991 7.83254,1.08494 2.649835,0.721948 4.618053,1.084939 5.904653,1.084939 3.52908,0 5.86432,0.479955 6.98556,1.443898 1.12124,0.963943 1.68589,2.649835 1.68589,5.057675 0,1.605227 -0.44365,3.133823 -1.32693,4.577721 -0.88328,1.443897 -2.04888,2.169879 -3.49278,2.169879 -0.16133,0 -2.25458,-0.802613 -6.26361,-2.40784 -4.021136,-1.605227 -8.836817,-2.411874 -14.459145,-2.411874 -7.554247,0 -15.463419,1.568928 -23.735581,4.698717 -8.272163,3.133823 -15.056062,4.698718 -20.355731,4.698718 z"
   inkscape:connector-curvature="0"
   style="stroke-width:4.03323" /><path
   id="path6"
   d="m 60.724368,144.82133 c -0.645317,0 -1.927886,0.40332 -3.855771,1.20594 l -0.963943,1.92788 c -0.802614,1.2866 -1.528596,2.25055 -2.16988,2.89183 -2.407841,-1.4439 -3.613777,-6.10228 -3.613777,-13.97516 0,-6.10228 0.318625,-10.51867 0.963942,-13.2532 5.940954,-0.96394 12.490926,-2.41188 19.641849,-4.33976 7.142857,-1.92789 11.603614,-2.89183 13.374203,-2.89183 3.371784,0 5.057676,1.12527 5.057676,3.37178 l -1.685892,6.26362 c -1.125272,4.17843 -1.685892,8.51819 -1.685892,13.01524 0,2.56917 0.157296,5.29967 0.483988,8.1915 3.049125,0.16133 6.344277,0.64532 9.881423,1.4439 3.52908,0.80664 7.187226,2.41187 10.962326,4.81971 3.77108,2.41187 5.66266,5.22304 5.66266,8.43349 0,2.73454 -1.0446,4.81972 -3.12979,6.26361 -2.09324,1.4439 -4.73905,2.16988 -7.95353,2.16988 -0.80665,0 -2.613538,0.52433 -5.420669,1.56893 -2.811164,1.04058 -4.940711,1.5649 -6.384609,1.5649 -2.089215,0 -5.900621,-1.08494 -11.446318,-3.25482 -5.541663,-2.16988 -9.437767,-3.97677 -11.684278,-5.42067 -0.806647,0.32266 -1.649593,0.84295 -2.528838,1.5649 -0.883278,0.72598 -1.568928,1.08494 -2.048882,1.08494 -0.806647,0 -3.371784,-0.64129 -7.711543,-1.92789 0,0.16536 -0.04437,0.64532 -0.120997,1.4439 -0.0847,0.80664 -0.16133,1.4076 -0.241994,1.80689 -0.0847,0.40332 -0.16133,0.88327 -0.241994,1.44389 -0.08067,0.56466 -0.282327,1.00428 -0.600952,1.32694 -0.326692,0.32266 -0.721949,0.48399 -1.205937,0.48399 -0.483988,0 -1.008309,-0.32266 -1.564895,-0.96395 -0.564653,-0.64128 -1.048641,-1.48423 -1.447931,-2.52883 -0.403323,-1.04058 -0.806647,-2.04889 -1.205937,-3.01283 -0.403323,-0.96394 -0.762281,-2.00855 -1.08494,-3.13382 -0.326692,-1.12124 -0.564652,-1.84319 -0.721948,-2.16988 h -2.891829 c -3.053158,0 -5.864322,-0.48399 -8.433492,-1.4439 -2.573203,-0.96394 -3.855772,-2.32718 -3.855772,-4.09777 0,-0.15729 0.0363,-0.39929 0.120998,-0.72194 0.08066,-0.32266 0.120997,-0.64129 0.120997,-0.96395 1.44793,0 3.452448,0.16133 6.025651,0.48399 2.56917,0.32266 4.57772,0.48399 6.025651,0.48399 h 0.963943 c -0.161329,-1.28257 -0.483988,-3.09349 -0.963943,-5.42067 -0.479955,-2.32717 -0.883278,-4.25506 -1.201904,-5.78365 -0.326691,-1.52457 -0.483988,-2.69017 -0.483988,-3.49278 0,-0.31863 0.322659,-0.80262 0.963943,-1.4439 1.927886,0.32266 3.331451,1.24627 4.21473,2.77083 0.879245,1.52859 1.645559,3.65411 2.286843,6.38461 0.641284,2.73453 1.447931,4.98104 2.411874,6.7476 2.246511,0 5.299669,-0.64129 9.155441,-1.92789 0,-0.47995 0.0363,-1.60119 0.120997,-3.37178 0.0726,-1.77059 0.11293,-2.97653 0.11293,-3.61781 z m 30.124224,-33.01202 c -4.819715,0 -11.970638,1.4076 -21.444705,4.21473 -9.482132,2.81116 -15.745744,4.21473 -18.794869,4.21473 -9.639429,0 -15.903041,-1.76656 -18.79487,-5.29967 2.891829,-1.76656 5.057676,-2.64984 6.505606,-2.64984 1.605228,0 4.0534,0.40333 7.348552,1.20594 3.291119,0.80665 6.061951,1.20191 8.316529,1.20191 3.210454,0 5.380333,-0.31863 6.505606,-0.96395 1.121239,-0.64128 1.685891,-2.08518 1.685891,-4.33976 0,-0.47995 -0.443655,-0.84294 -1.326934,-1.08494 -0.883278,-0.24199 -1.488263,-0.60095 -1.806888,-1.08494 0,-0.64128 0.120997,-1.12124 0.362991,-1.44389 0.241994,-0.31863 0.641284,-0.75825 1.201903,-1.32694 0.56062,-0.56062 1.004276,-1.1656 1.326934,-1.80689 0.318626,-0.48399 0.923611,-1.48423 1.806889,-3.012823 0.883278,-1.524563 1.601194,-2.56917 2.16988,-3.133823 0.564653,-0.560619 1.242236,-0.842946 2.048883,-0.842946 1.121239,0 1.685891,0.806647 1.685891,2.407841 0,1.286601 -0.120997,2.613531 -0.358957,3.976771 -0.241994,1.36726 -0.645318,2.89183 -1.205937,4.57772 -0.564653,1.68589 -0.927644,3.01282 -1.08494,3.97677 0.322659,0.80664 0.883278,1.20593 1.685892,1.20593 0.963942,0 2.367508,-1.84722 4.218762,-5.54569 1.839155,-3.68235 2.766798,-6.336214 2.766798,-7.941441 0,-0.963943 -0.52432,-1.887553 -1.564894,-2.770831 C 73.053964,94.66 72.372347,93.97435 72.053722,93.494395 c 1.282568,-2.891829 4.097766,-5.13834 8.433492,-6.7476 3.210454,1.125272 4.819714,4.097765 4.819714,8.913447 0,1.605227 -0.681616,3.533112 -2.048883,5.783658 -1.367266,2.25458 -2.129547,4.33976 -2.286843,6.26764 1.282568,-0.16133 3.049125,-0.48398 5.299669,-0.96394 2.246511,-0.48399 4.497056,-0.84294 6.7476,-1.08494 2.246512,-0.24199 4.658385,-0.36299 7.227559,-0.36299 5.13834,0 8.11083,0.56465 8.91748,1.68589 -1.12528,2.25055 -2.89183,3.94047 -5.29967,5.05768 -2.09325,-0.15327 -6.433011,-0.23393 -13.015248,-0.23393 z m -38.557716,46.98717 c 0.641285,1.60523 1.205937,2.89183 1.685892,3.85577 2.246511,-0.48398 4.819714,-1.36323 7.711543,-2.64983 -0.806647,-0.96394 -1.205937,-2.24651 -1.205937,-3.85577 z m 3.613778,-31.81011 v 4.33976 h 0.483988 l 0.483988,0.24199 4.33976,-0.72195 c 0,-1.28257 0.157296,-2.89183 0.479954,-4.81971 z m 4.819714,7.95354 c -0.963943,0.16536 -2.012583,0.32669 -3.133822,0.48398 -0.963943,0 -1.488264,0.0847 -1.564895,0.242 -0.0847,0.16536 -0.120997,0.48399 -0.120997,0.96394 0,0.32266 0,0.64532 0,0.96394 0,0.3267 0.04033,0.88328 0.120997,1.6859 0.08066,0.80664 0.120997,1.36726 0.120997,1.68589 0.802613,0 2.327176,-0.1573 4.57772,-0.47996 z m 6.025652,-10.11939 c 0,0.80665 -0.120997,1.68589 -0.362991,2.65387 -0.241995,0.96394 -0.358958,1.76656 -0.358958,2.40784 1.601194,-0.32266 3.452448,-0.68162 5.541663,-1.08494 2.085182,-0.39929 3.613777,-0.68162 4.57772,-0.84295 0,-0.80261 0.0363,-1.76655 0.120997,-2.89182 0.08066,-1.12124 0.120997,-2.00855 0.120997,-2.64984 -1.443897,0.32266 -3.129789,0.76228 -5.057675,1.32694 -1.931919,0.56061 -3.460514,0.92361 -4.581753,1.0809 z m -0.721949,9.15544 v 5.29967 c 2.246511,-0.16133 5.460998,-0.88328 9.639428,-2.16988 0,-2.41187 0.08066,-4.25506 0.241995,-5.54569 -3.537147,1.13333 -6.832299,1.93595 -9.881423,2.4159 z m 0.479955,9.63943 v 6.50561 c 3.533112,-0.64129 6.662902,-1.52456 9.397434,-2.64984 0,-2.7305 -0.0847,-4.81971 -0.241994,-6.26361 -0.806647,0.32266 -2.210212,0.72195 -4.214729,1.20594 -2.008551,0.47995 -3.658143,0.88328 -4.940711,1.2019 z m 0.241994,10.84133 c 0,2.57321 0.39929,3.85578 1.205936,3.85578 0.641285,0 1.326934,-0.121 2.048883,-0.35896 0.721949,-0.242 1.685892,-0.60095 2.891829,-1.08494 1.205937,-0.48399 2.367508,-0.87925 3.49278,-1.20594 -0.322658,-1.76656 -0.403323,-3.04912 -0.241994,-3.85577 -0.963943,0.16536 -4.093732,1.04864 -9.397434,2.64983 z m 20.2428,-2.88779 c 0,0.32669 0.120997,1.04864 0.358958,2.16988 0.241994,1.12527 0.362991,2.09325 0.362991,2.89183 0,0.80664 -0.241994,1.68589 -0.721949,2.64983 -3.053158,2.08922 -6.025651,3.12979 -8.913447,3.12979 -0.165362,-0.1573 -0.403323,-0.64128 -0.721949,-1.4439 -0.326691,-0.80261 -0.564652,-1.36323 -0.725982,-1.68589 -0.963943,0.32266 -2.048882,0.88328 -3.250786,1.68589 -1.205937,0.80665 -2.210212,1.36727 -3.012826,1.68589 0.641284,0.96395 2.250545,1.96822 4.819715,3.01283 2.56917,1.04864 4.57772,1.56893 6.025651,1.56893 0.963943,0 1.887553,-0.20166 2.774865,-0.60095 0.879245,-0.39929 1.843188,-1.00428 2.891828,-1.80689 1.040575,-0.80262 1.883521,-1.36324 2.528838,-1.68589 0.802614,-0.32266 2.367508,-0.56062 4.702751,-0.72599 2.327176,-0.15729 4.093732,-0.60095 5.299669,-1.3229 1.205933,-0.72598 1.806893,-1.96821 1.806893,-3.73477 0,-1.28257 -1.685896,-2.52884 -5.05768,-3.73478 -3.371783,-1.20593 -6.441074,-1.89158 -9.16754,-2.05291 z"
   inkscape:connector-curvature="0"
   style="fill:#870000;stroke-width:4.03323" /></svg>
