<?xml version="1.0" encoding="UTF-8" standalone="no"?>
<!-- Generator: Adobe Illustrator 16.0.0, SVG Export Plug-In . SVG Version: 6.00 Build 0)  -->

<svg
   version="1.1"
   id="图层_1"
   x="0px"
   y="0px"
   width="139.76401"
   height="200"
   viewBox="0 0 139.764 200"
   enable-background="new 0 0 714 341"
   xml:space="preserve"
   sodipodi:docname="pei-8.svg"
   inkscape:version="1.2.2 (b0a8486, 2022-12-01)"
   xmlns:inkscape="http://www.inkscape.org/namespaces/inkscape"
   xmlns:sodipodi="http://sodipodi.sourceforge.net/DTD/sodipodi-0.dtd"
   xmlns="http://www.w3.org/2000/svg"
   xmlns:svg="http://www.w3.org/2000/svg"
   xmlns:rdf="http://www.w3.org/1999/02/22-rdf-syntax-ns#"
   xmlns:cc="http://creativecommons.org/ns#"
   xmlns:dc="http://purl.org/dc/elements/1.1/"><metadata
   id="metadata621"><rdf:RDF><cc:Work
       rdf:about=""><dc:format>image/svg+xml</dc:format><dc:type
         rdf:resource="http://purl.org/dc/dcmitype/StillImage" /><dc:title /></cc:Work></rdf:RDF></metadata><defs
   id="defs619" /><sodipodi:namedview
   pagecolor="#ffffff"
   bordercolor="#666666"
   borderopacity="1"
   objecttolerance="10"
   gridtolerance="10"
   guidetolerance="10"
   inkscape:pageopacity="0"
   inkscape:pageshadow="2"
   inkscape:window-width="1860"
   inkscape:window-height="1016"
   id="namedview617"
   showgrid="false"
   inkscape:zoom="1"
   inkscape:cx="-84"
   inkscape:cy="113.5"
   inkscape:window-x="1980"
   inkscape:window-y="27"
   inkscape:window-maximized="1"
   inkscape:current-layer="图层_1"
   inkscape:showpageshadow="2"
   inkscape:pagecheckerboard="0"
   inkscape:deskcolor="#d1d1d1" />



















































































































































































































































































































<path
   id="path2"
   d="M 139.76364,14.459143 V 185.54489 c 0,4.01307 -1.4076,7.42922 -4.21473,10.24038 C 132.73775,198.5924 129.3216,200 125.30853,200 H 14.459143 C 10.442042,200 7.0258929,198.5924 4.2147293,195.78527 1.4035653,192.97411 0,189.55796 0,185.54489 V 14.459143 C 0,10.446076 1.4035653,7.029927 4.2147293,4.218763 7.0258929,1.407599 10.438009,0 14.459143,0 H 125.3045 c 4.01307,0 7.42921,1.407599 10.24038,4.218763 2.81116,2.811164 4.21876,6.22328 4.21876,10.24038 z"
   inkscape:connector-curvature="0"
   style="fill:#ffffff;stroke-width:4.03323"
   sodipodi:nodetypes="sscsscsssssss" /><path
   style="fill:#133f00;stroke-width:4.03315"
   inkscape:connector-curvature="0"
   id="path110"
   d="m 83.377401,52.531809 c 2.569118,-1.121216 4.577628,-0.963923 6.025529,0.483978 1.601162,1.605195 1.766521,3.613705 0.479945,6.02553 l 8.913268,8.913267 v -4.339672 c -4.01702,-1.282542 -6.021497,-3.210389 -6.021497,-5.783541 0,-2.569118 2.00851,-4.496965 6.021497,-5.78354 V 36.867045 c -4.01702,-2.089173 -6.021497,-4.496965 -6.021497,-7.227409 0,-3.371716 4.819617,-5.061607 14.454814,-5.061607 9.63924,0 14.45886,1.685858 14.45886,5.061607 0,2.734477 -2.01255,5.142269 -6.02553,7.227409 v 15.180786 c 4.01702,1.286575 6.02553,3.214422 6.02553,5.78354 0,2.573152 -2.01255,4.500999 -6.02553,5.783541 v 15.180786 c 4.01702,2.089173 6.02553,4.500998 6.02553,7.227409 0,3.371716 -4.81962,5.057574 -14.45886,5.057574 -9.63923,0 -14.454814,-1.685858 -14.454814,-5.057574 0,-1.443868 0.802597,-2.972433 2.411825,-4.577628 L 81.449554,67.712595 c -2.573152,1.12525 -4.577628,0.963924 -6.02553,-0.483978 -1.609228,-1.605195 -1.770554,-3.613705 -0.483979,-6.02553 l -5.061606,-5.061606 -5.057573,5.061606 c 1.121216,2.407792 0.963923,4.335639 -0.483978,5.783541 -1.605195,1.605194 -3.613705,1.847184 -6.021497,0.721934 L 44.578473,81.441446 c 1.605195,1.605195 2.411826,3.13376 2.411826,4.577628 0,3.371716 -4.819618,5.057574 -14.454819,5.057574 -9.639234,0 -14.458852,-1.685858 -14.458852,-5.057574 0,-2.730444 2.00851,-5.138236 6.02553,-7.227409 V 63.610879 c -4.021053,-1.282542 -6.02553,-3.210389 -6.02553,-5.783541 0,-2.569118 2.00851,-4.496965 6.02553,-5.78354 V 36.863012 c -4.021053,-2.089173 -6.02553,-4.496965 -6.02553,-7.22741 0,-3.371715 4.819618,-5.061606 14.458852,-5.061606 9.639235,0 14.454819,1.685858 14.454819,5.061606 0,2.734478 -2.00851,5.14227 -6.021497,7.22741 v 15.180786 c 4.012987,1.286575 6.021497,3.214422 6.021497,5.78354 0,2.573152 -2.00851,4.500999 -6.021497,5.783541 v 4.339672 l 8.913267,-8.913267 c -1.286576,-2.411825 -1.12525,-4.416302 0.483978,-6.02553 1.443869,-1.447901 3.448346,-1.605194 6.021497,-0.483978 l 5.545585,-5.299562 c -1.286576,-1.766521 -1.927847,-3.529009 -1.927847,-5.299563 0,-3.049063 1.363205,-4.577628 4.097683,-4.577628 2.246466,0 4.174313,0.725968 5.78354,2.169836 1.605195,-1.443868 3.533042,-2.169836 5.783541,-2.169836 2.730444,0 4.097683,1.528565 4.097683,4.577628 0,1.770554 -0.645304,3.533042 -1.927847,5.299563 z M 56.387544,147.47222 c -2.573151,1.12525 -4.577628,0.96392 -6.021497,-0.47995 -1.609228,-1.60519 -1.770554,-3.6137 -0.483978,-6.02553 l -8.913267,-8.91326 v 4.33564 c 4.012987,1.28657 6.021497,3.21442 6.021497,5.78354 0,2.56911 -2.00851,4.49696 -6.021497,5.78354 v 15.18078 c 4.012987,2.08918 6.021497,4.49697 6.021497,7.22741 0,3.37172 -4.819618,5.05758 -14.454819,5.05758 -9.639234,0 -14.458852,-1.68586 -14.458852,-5.05758 0,-2.73044 2.00851,-5.13823 6.02553,-7.22741 V 147.9562 c -4.021053,-1.28255 -6.02553,-3.21039 -6.02553,-5.78354 0,-2.56912 2.00851,-4.49697 6.02553,-5.78354 v -15.18079 c -4.021053,-2.08917 -6.02553,-4.49697 -6.02553,-7.22741 0,-3.37575 4.819618,-5.06161 14.458852,-5.06161 9.639235,0 14.454819,1.68586 14.454819,5.06161 0,1.44387 -0.806631,2.97243 -2.411826,4.57763 l 13.736918,13.73692 c 2.569118,-1.12122 4.577628,-0.96393 6.021497,0.48397 1.605194,1.6052 1.76652,3.61371 0.483978,6.02553 l 5.057573,5.05758 5.061606,-5.05758 c -1.125249,-2.41182 -0.963923,-4.33967 0.483979,-5.78354 1.605194,-1.60116 3.613704,-1.84718 6.02553,-0.72193 l 13.736917,-13.73692 c -1.609228,-1.60116 -2.411825,-3.12972 -2.411825,-4.57763 0,-3.37574 4.819617,-5.0616 14.454814,-5.0616 9.63924,0 14.45886,1.68586 14.45886,5.0616 0,2.73448 -2.01255,5.14227 -6.02553,7.22741 v 15.18079 c 4.01702,1.28657 6.02553,3.21442 6.02553,5.78354 0,2.56912 -2.01255,4.49696 -6.02553,5.78354 v 15.18079 c 4.01702,2.08917 6.02553,4.49696 6.02553,7.22741 0,3.37171 -4.81962,5.05757 -14.45886,5.05757 -9.63923,0 -14.454814,-1.68586 -14.454814,-5.05757 0,-2.73045 2.00851,-5.13824 6.021497,-7.22741 v -15.18079 c -4.01702,-1.28254 -6.021497,-3.21039 -6.021497,-5.78354 0,-2.56912 2.00851,-4.49697 6.021497,-5.78354 v -4.33564 l -8.913268,8.91327 c 1.282543,2.40779 1.121217,4.42033 -0.479945,6.02553 -1.443868,1.44387 -3.456411,1.60519 -6.025529,0.47994 l -5.545585,5.3036 c 1.282542,1.76652 1.927847,3.53304 1.927847,5.29956 0,3.0531 -1.367239,4.57763 -4.097683,4.57763 -2.250499,0 -4.178346,-0.72194 -5.783541,-2.16984 -1.605195,1.44387 -3.533042,2.16984 -5.783541,2.16984 -2.734477,0 -4.097683,-1.52453 -4.097683,-4.57763 0,-1.76652 0.641272,-3.52901 1.927847,-5.29956 z M 28.921775,29.643669 v 21.206316 c 0.802598,-0.161327 2.00851,-0.24199 3.613705,-0.24199 1.601162,0 2.811107,0.0847 3.613705,0.24199 V 29.643669 C 35.346587,29.486376 34.136642,29.40168 32.53548,29.40168 c -1.609228,0 -2.811107,0.08066 -3.613705,0.241989 z m 0,32.769364 c 0.318619,0 0.879228,0.04436 1.685858,0.120994 0.802598,0.0847 1.443869,0.120995 1.927847,0.120995 0.483978,0 1.121216,-0.0363 1.927847,-0.120995 0.802597,-0.08066 1.363206,-0.120994 1.685858,-0.120994 v -9.155256 c -0.322652,0 -0.883261,-0.0363 -1.685858,-0.120995 -0.806631,-0.08066 -1.443869,-0.120995 -1.927847,-0.120995 -0.483978,0 -1.125249,0.04033 -1.927847,0.120995 -0.80663,0.0847 -1.367239,0.120995 -1.685858,0.120995 z m 7.22741,23.614108 V 64.820825 c -0.802598,0.161326 -2.012543,0.241989 -3.613705,0.241989 -1.605195,0 -2.811107,-0.08066 -3.613705,-0.241989 v 21.206316 c 0.802598,0.161326 2.00851,0.241989 3.613705,0.241989 1.601162,0 2.811107,-0.08066 3.613705,-0.241989 z m -7.22741,27.953779 v 21.20228 c 0.802598,-0.15729 2.00851,-0.24199 3.613705,-0.24199 1.601162,0 2.811107,0.0847 3.613705,0.24199 v -21.20228 c -0.802598,-0.16133 -2.012543,-0.24199 -3.613705,-0.24199 -1.609228,0 -2.811107,0.0807 -3.613705,0.24199 z m 7.22741,23.61411 c -0.322652,0 -0.883261,-0.0363 -1.685858,-0.121 -0.806631,-0.0807 -1.443869,-0.12099 -1.927847,-0.12099 -0.483978,0 -1.125249,0.0403 -1.927847,0.12099 -0.80663,0.0847 -1.367239,0.121 -1.685858,0.121 v 9.15929 c 0.318619,0 0.879228,0.0403 1.685858,0.12099 0.802598,0.0847 1.443869,0.121 1.927847,0.121 0.483978,0 1.121216,-0.0363 1.927847,-0.121 0.802597,-0.0807 1.363206,-0.12099 1.685858,-0.12099 z m 0,32.76936 v -21.20631 c -0.802598,0.16132 -2.012543,0.24199 -3.613705,0.24199 -1.605195,0 -2.811107,-0.0807 -3.613705,-0.24199 v 21.20631 c 0.802598,0.16133 2.00851,0.24199 3.613705,0.24199 1.601162,0 2.811107,-0.0807 3.613705,-0.24199 z M 55.427654,65.542759 C 54.141078,64.740162 53.015828,63.614912 52.055938,62.171044 L 40.972835,73.012158 v 5.78354 l 0.721934,0.483978 z m -3.375749,72.290221 c 0.963923,-1.44386 2.08514,-2.56911 3.371716,-3.37171 l -13.732885,-13.73692 -0.721934,0.48398 v 5.78354 z m 1.689891,-77.347794 c 0.157293,0.161326 0.358951,0.403315 0.60094,0.721934 0.241989,0.322652 0.520276,0.645305 0.842929,0.963924 0.318619,0.326685 0.637238,0.600939 0.963923,0.842928 0.322652,0.24199 0.641271,0.52431 0.963923,0.842929 l 4.097683,-4.097683 c -0.322652,-0.322652 -0.600939,-0.641271 -0.838895,-0.963923 -0.24199,-0.318619 -0.52431,-0.641271 -0.842929,-0.963924 -0.161326,-0.161326 -0.403315,-0.399282 -0.721935,-0.721934 -0.322652,-0.322652 -0.645304,-0.560608 -0.963923,-0.725967 z m 3.371715,75.661944 c -0.322652,0.32265 -0.641271,0.60094 -0.963923,0.84293 -0.326685,0.24198 -0.645304,0.52431 -0.963923,0.84292 -0.326686,0.16133 -0.52431,0.32669 -0.604973,0.48398 -0.08066,0.16133 -0.201658,0.35895 -0.358951,0.60094 -0.161326,0.24199 -0.322652,0.44365 -0.479945,0.60094 l 4.097683,4.09769 c 0.318619,-0.1573 0.641271,-0.39929 0.963923,-0.72194 0.322653,-0.32265 0.560609,-0.56061 0.721935,-0.72193 0.322652,-0.32266 0.600939,-0.64127 0.842928,-0.96393 0.24199,-0.31862 0.520277,-0.64127 0.838896,-0.96392 z M 76.871926,58.073361 c 1.282542,-1.601162 2.411825,-2.730445 3.371715,-3.371716 L 72.290264,46.510312 V 41.21075 c -0.963923,-0.318619 -1.766521,-0.483978 -2.411825,-0.483978 -0.645304,0 -1.443869,0.165359 -2.407792,0.483978 v 5.299562 l -7.953377,8.191333 c 0.963924,0.645305 2.08514,1.770554 3.371716,3.371716 l 6.98542,-6.98542 z M 62.897052,141.93067 c -1.286576,1.60923 -2.411825,2.73447 -3.371715,3.37171 l 7.953376,8.19134 v 5.30359 c 0.963924,0.32265 1.766521,0.47995 2.407792,0.47995 0.641272,0 1.447902,-0.1573 2.411826,-0.47995 v -5.30359 l 7.953376,-8.19134 c -0.963923,-0.64127 -2.089173,-1.76652 -3.371715,-3.37171 l -6.989453,6.98945 z M 82.655466,63.856901 c 0.318619,-0.318619 0.641271,-0.600939 0.963924,-0.842929 0.322652,-0.241989 0.641271,-0.520276 0.963923,-0.842928 0.322652,-0.157293 0.520277,-0.318619 0.604973,-0.479946 0.07663,-0.161326 0.197624,-0.362983 0.358951,-0.600939 0.161326,-0.241989 0.318619,-0.439614 0.479945,-0.60094 l -4.097683,-4.097683 c -0.322652,0.165359 -0.641271,0.403315 -0.963924,0.725968 -0.326685,0.322652 -0.564641,0.564641 -0.721934,0.721934 -0.326685,0.322652 -0.60094,0.645304 -0.842929,0.963923 -0.241989,0.326686 -0.52431,0.645305 -0.842929,0.963924 z m 3.371716,75.665979 c -0.161326,-0.1573 -0.358951,-0.39929 -0.60094,-0.72194 -0.241989,-0.32265 -0.52431,-0.64127 -0.842929,-0.96392 -0.322652,-0.31862 -0.641271,-0.60094 -0.963923,-0.84293 -0.322653,-0.24199 -0.645305,-0.52028 -0.963924,-0.84293 l -4.097683,4.09768 c 0.318619,0.32266 0.60094,0.64531 0.842929,0.96393 0.241989,0.32668 0.516244,0.6453 0.842929,0.96392 0.157293,0.16133 0.399282,0.40331 0.721934,0.72193 0.322653,0.32266 0.641272,0.56465 0.963924,0.72194 z m 1.689891,-77.351836 c -0.963924,1.443868 -2.089173,2.573151 -3.371716,3.371715 l 13.732884,13.736917 0.721935,-0.483978 v -5.78354 z m -3.375749,72.290226 c 1.282542,0.80663 2.411825,1.92785 3.371715,3.37171 l 11.083104,-10.84111 v -5.78354 l -0.721935,-0.48398 z M 103.61979,29.643669 v 21.206316 c 0.8026,-0.161327 2.00851,-0.24199 3.61371,-0.24199 1.60519,0 2.80707,0.0847 3.6137,0.24199 V 29.643669 c -0.80663,-0.157293 -2.00851,-0.241989 -3.6137,-0.241989 -1.60923,0 -2.81111,0.08066 -3.61371,0.241989 z m 0,32.769364 c 0.31862,0 0.87923,0.04436 1.68586,0.120994 0.8026,0.0847 1.44387,0.120995 1.92785,0.120995 0.48398,0 1.12121,-0.0363 1.92784,-0.120995 0.8026,-0.08066 1.36321,-0.120994 1.68586,-0.120994 v -9.155256 c -0.32265,0 -0.88326,-0.0363 -1.68586,-0.120995 -0.80663,-0.08066 -1.44386,-0.120995 -1.92784,-0.120995 -0.48398,0 -1.12525,0.04033 -1.92785,0.120995 -0.80663,0.0847 -1.36724,0.120995 -1.68586,0.120995 z m 7.22741,23.614108 V 64.820825 c -0.80663,0.161326 -2.00851,0.241989 -3.6137,0.241989 -1.6052,0 -2.81111,-0.08066 -3.61371,-0.241989 v 21.206316 c 0.8026,0.161326 2.00851,0.241989 3.61371,0.241989 1.60519,0 2.80707,-0.08066 3.6137,-0.241989 z m -7.22741,27.953779 v 21.20228 c 0.8026,-0.15729 2.00851,-0.24199 3.61371,-0.24199 1.60519,0 2.80707,0.0847 3.6137,0.24199 v -21.20228 c -0.80663,-0.16133 -2.00851,-0.24199 -3.6137,-0.24199 -1.60923,0 -2.81111,0.0807 -3.61371,0.24199 z m 7.22741,23.61411 c -0.32265,0 -0.88326,-0.0363 -1.68586,-0.121 -0.80663,-0.0807 -1.44386,-0.12099 -1.92784,-0.12099 -0.48398,0 -1.12525,0.0403 -1.92785,0.12099 -0.80663,0.0847 -1.36724,0.121 -1.68586,0.121 v 9.15929 c 0.31862,0 0.87923,0.0403 1.68586,0.12099 0.8026,0.0847 1.44387,0.121 1.92785,0.121 0.48398,0 1.12121,-0.0363 1.92784,-0.121 0.8026,-0.0807 1.36321,-0.12099 1.68586,-0.12099 z m 0,32.76936 v -21.20631 c -0.80663,0.16132 -2.00851,0.24199 -3.6137,0.24199 -1.6052,0 -2.81111,-0.0807 -3.61371,-0.24199 v 21.20631 c 0.8026,0.16133 2.00851,0.24199 3.61371,0.24199 1.60519,0 2.80707,-0.0807 3.6137,-0.24199 z" /></svg>
