<?xml version="1.0" encoding="UTF-8" standalone="no"?>
<!-- Generator: Adobe Illustrator 16.0.0, SVG Export Plug-In . SVG Version: 6.00 Build 0)  -->

<svg
   version="1.1"
   id="图层_1"
   x="0px"
   y="0px"
   width="139.76401"
   height="200"
   viewBox="0 0 139.764 200"
   enable-background="new 0 0 714 341"
   xml:space="preserve"
   sodipodi:docname="sou-1.svg"
   inkscape:version="1.2.2 (b0a8486, 2022-12-01)"
   xmlns:inkscape="http://www.inkscape.org/namespaces/inkscape"
   xmlns:sodipodi="http://sodipodi.sourceforge.net/DTD/sodipodi-0.dtd"
   xmlns="http://www.w3.org/2000/svg"
   xmlns:svg="http://www.w3.org/2000/svg"
   xmlns:rdf="http://www.w3.org/1999/02/22-rdf-syntax-ns#"
   xmlns:cc="http://creativecommons.org/ns#"
   xmlns:dc="http://purl.org/dc/elements/1.1/"><metadata
   id="metadata621"><rdf:RDF><cc:Work
       rdf:about=""><dc:format>image/svg+xml</dc:format><dc:type
         rdf:resource="http://purl.org/dc/dcmitype/StillImage" /><dc:title /></cc:Work></rdf:RDF></metadata><defs
   id="defs619" /><sodipodi:namedview
   pagecolor="#ffffff"
   bordercolor="#666666"
   borderopacity="1"
   objecttolerance="10"
   gridtolerance="10"
   guidetolerance="10"
   inkscape:pageopacity="0"
   inkscape:pageshadow="2"
   inkscape:window-width="1860"
   inkscape:window-height="1016"
   id="namedview617"
   showgrid="false"
   inkscape:zoom="1"
   inkscape:cx="-175"
   inkscape:cy="113.5"
   inkscape:window-x="1980"
   inkscape:window-y="27"
   inkscape:window-maximized="1"
   inkscape:current-layer="图层_1"
   inkscape:showpageshadow="2"
   inkscape:pagecheckerboard="0"
   inkscape:deskcolor="#d1d1d1" />



















































































































































































































































































































<path
   id="path2"
   d="M 139.76365,14.459143 V 185.54489 c 0,4.01307 -1.4076,7.42922 -4.21473,10.24038 C 132.73776,198.5924 129.32161,200 125.30854,200 H 14.459143 C 10.442042,200 7.025893,198.5924 4.214729,195.78527 1.403566,192.97411 0,189.55796 0,185.54489 V 14.459143 C 0,10.446076 1.403566,7.029927 4.214729,4.218763 7.025893,1.407599 10.438009,0 14.459143,0 H 125.30451 c 4.01307,0 7.42921,1.407599 10.24038,4.218763 2.81116,2.811164 4.21876,6.22328 4.21876,10.24038 z"
   inkscape:connector-curvature="0"
   style="fill:#ffffff;stroke-width:4.03323"
   sodipodi:nodetypes="sscsscsssssss" /><path
   style="fill:#870000;stroke-width:4.03323"
   inkscape:connector-curvature="0"
   id="path122"
   d="m 45.664273,124.21957 c -6.666935,-6.6629 -9.998386,-14.73743 -9.998386,-24.21553 0,-9.478102 3.331451,-17.552636 9.998386,-24.219571 6.662902,-6.662902 14.737437,-9.998387 24.215536,-9.998387 9.478099,0 17.552633,3.335485 24.219569,9.998387 6.662902,6.666935 9.998382,14.741469 9.998382,24.219571 0,9.48213 -3.33548,17.55263 -9.998382,24.21553 -6.666936,6.66694 -14.74147,9.99839 -24.219569,9.99839 -9.478099,0 -17.552634,-3.33145 -24.215536,-9.99839 z M 40.485601,99.52005 h 14.45511 c 0,-0.963943 0.08066,-1.601194 0.241994,-1.927886 l -8.91748,-1.685892 0.241994,-1.205937 8.913447,1.931919 c 0,-0.322658 0.157296,-0.963942 0.479955,-1.931919 l -13.491167,-5.541663 -6.025652,4.097766 z m 1.927886,11.32532 13.491167,-5.54166 c -0.322659,-0.96395 -0.479955,-1.60523 -0.479955,-1.93192 l -8.913447,1.93192 -0.241994,-1.20594 8.91748,-1.68589 c -0.165362,-0.31863 -0.241994,-0.96394 -0.241994,-1.92789 h -14.45511 l -4.097765,6.26361 z m 0.479955,-22.41268 13.4952,5.299669 c 0.322659,-0.637251 0.641284,-1.121239 0.963943,-1.443897 l -7.953537,-5.057676 0.721949,-0.963942 7.711543,5.061708 c 0.322658,-0.322659 0.641284,-0.802614 0.963942,-1.447931 L 48.677099,79.519243 41.449544,80.963141 Z m 5.783657,32.05211 10.119383,-10.36138 c -0.326691,-0.64128 -0.645317,-1.12124 -0.963942,-1.4439 l -7.711543,5.05768 -0.721949,-0.96394 7.953537,-5.05768 c -0.326692,-0.32266 -0.645318,-0.80261 -0.963943,-1.44793 l -13.4952,5.29967 -1.443898,7.47358 z m 0.721949,-41.691539 10.361377,10.119384 c 0.641285,-0.322659 1.121239,-0.637251 1.447931,-0.963943 l -5.061708,-7.711543 0.963943,-0.721949 5.061708,7.953537 c 0.322659,-0.322658 0.802614,-0.641284 1.443898,-0.963943 l -5.299669,-13.4952 -7.469549,-1.443898 z m 8.91748,48.197149 5.299669,-13.49521 c -0.645318,-0.32265 -1.125272,-0.64128 -1.443898,-0.96394 l -5.061708,7.95354 -0.963943,-0.72598 5.061708,-7.71155 c -0.326692,-0.32265 -0.806646,-0.64128 -1.447931,-0.96394 l -10.361377,10.11938 1.443897,7.22756 z M 60.244413,90.360576 C 57.509881,93.095108 56.146648,96.305562 56.146648,100 c 0,3.69848 1.363233,6.90893 4.097765,9.63943 2.7305,2.73454 5.940954,4.09777 9.639429,4.09777 3.694442,0 6.904896,-1.36323 9.639429,-4.09777 2.730499,-2.7305 4.097766,-5.94095 4.097766,-9.63943 0,-3.694438 -1.367267,-6.904892 -4.097766,-9.639424 -2.734533,-2.730499 -5.944987,-4.097766 -9.639429,-4.097766 -3.698475,0 -6.908929,1.367267 -9.639429,4.097766 z m 0,11.809304 -1.927885,-0.96394 v -1.2019 c 0,-2.891831 1.044607,-5.380336 3.133822,-7.469551 l 1.685892,0.241994 4.097766,5.057675 c -0.483988,0.806647 -0.725982,1.528596 -0.725982,2.169882 z M 59.038477,72.529649 64.58014,86.020816 c 0.963943,-0.318625 1.605227,-0.479955 1.927886,-0.479955 l -1.927886,-8.913446 1.205937,-0.241994 1.685891,8.91748 c 0.318626,-0.157296 0.963943,-0.241994 1.927886,-0.241994 V 70.605797 L 63.136242,66.508031 Z M 69.399854,129.39825 V 114.9391 c -0.963943,0 -1.60926,-0.0807 -1.927886,-0.24199 l -1.685891,8.91748 -1.205937,-0.242 1.927886,-8.91344 c -0.322659,0 -0.963943,-0.1573 -1.927886,-0.48399 l -5.541663,13.4952 4.097765,6.02565 z m -0.721949,-19.52086 -1.201903,1.4439 c -3.053158,-0.63725 -5.541664,-2.4885 -7.469549,-5.54166 l 0.963943,-1.68589 6.267645,-1.92789 c 0.479955,0.47996 0.963943,0.80665 1.443898,0.96394 v 6.7476 z M 65.306122,89.396633 c 1.282568,-0.641284 2.807131,-0.963943 4.57772,-0.963943 1.766557,0 3.291119,0.326692 4.577721,0.963943 l 0.241994,1.927886 -3.855772,5.541663 c -0.161329,-0.157296 -0.483988,-0.241994 -0.963943,-0.241994 -0.479955,0 -0.806647,0.0847 -0.963943,0.241994 l -3.855771,-5.541663 z m 4.573687,11.805277 c -0.806647,0 -1.205937,-0.39929 -1.205937,-1.20191 0,-0.802609 0.39929,-1.205932 1.205937,-1.205932 0.802614,0 1.205937,0.407356 1.205937,1.205932 0,0.80665 -0.39929,1.20191 -1.205937,1.20191 z m 0.483988,-30.600147 v 14.45511 c 0.963943,0 1.605227,0.0847 1.927886,0.241994 l 1.685892,-8.917479 1.201903,0.241994 -1.927886,8.913446 c 0.318626,0 0.963943,0.165363 1.927886,0.479955 l 5.545697,-13.491167 -4.097766,-6.025651 z m 10.361378,56.868597 -5.545697,-13.4952 c -0.963943,0.32669 -1.605227,0.48399 -1.927886,0.48399 l 1.927886,8.91344 -1.201903,0.242 -1.685892,-8.91748 c -0.322659,0.16536 -0.963943,0.24199 -1.927886,0.24199 v 14.45915 l 6.263612,4.09776 z m -9.639429,-17.59297 v -6.7476 c 0.483988,-0.15729 0.963943,-0.48398 1.443898,-0.96394 l 6.267645,1.92789 0.963943,1.68589 c -1.927886,3.05316 -4.420424,4.90441 -7.469549,5.54166 z m 10.361378,-8.67548 -1.927886,0.96394 -6.263612,-2.169879 c 0,-0.641284 -0.241994,-1.363233 -0.725982,-2.169879 l 4.097765,-5.057676 1.685892,-0.241994 c 2.085182,2.089216 3.129789,4.577721 3.129789,7.469549 v 1.205939 z m 0,-28.192306 -5.29967,13.4952 c 0.641284,0.326692 1.121239,0.645318 1.443898,0.963943 l 5.057675,-7.953537 0.963943,0.721949 -5.061708,7.711543 c 0.322658,0.326692 0.802613,0.641284 1.447931,0.963943 L 90.36057,78.793261 88.916673,71.565706 Z m 8.917479,48.193106 -10.361377,-10.11938 c -0.645318,0.32266 -1.125272,0.64532 -1.447931,0.96394 l 5.061708,7.71155 -0.963943,0.72598 -5.057675,-7.95354 c -0.326692,0.32266 -0.806647,0.64129 -1.443897,0.96394 l 5.299669,13.49521 7.473582,1.44389 z M 91.086552,79.519243 80.967169,89.880621 c 0.322658,0.645317 0.641284,1.125272 0.963943,1.447931 l 7.711543,-5.061708 0.721948,0.963942 -7.953537,5.057676 c 0.318626,0.326692 0.641285,0.806646 0.963943,1.443897 L 96.87021,88.43269 98.314107,80.963141 Z m 5.783658,32.044047 -13.495201,-5.29967 c -0.322658,0.64531 -0.645317,1.12527 -0.963943,1.44793 l 7.953537,5.05767 -0.721948,0.96395 -7.711543,-5.05768 c -0.326692,0.32266 -0.645318,0.80665 -0.963943,1.4439 l 10.119383,10.36138 7.227555,-1.44794 z m 0.483988,-22.408651 -13.495201,5.541663 c 0.322659,0.967976 0.483988,1.60926 0.483988,1.931919 l 8.913447,-1.931919 0.241994,1.205937 -8.91748,1.685892 c 0.16133,0.326692 0.241994,0.963943 0.241994,1.927886 h 14.45511 l 4.09777,-6.263612 z m 1.927885,11.329351 H 84.82294 c 0,0.96395 -0.0847,1.60523 -0.241994,1.92789 l 8.91748,1.68589 -0.241994,1.20594 -8.913447,-1.93192 c 0,0.32669 -0.161329,0.96394 -0.483988,1.93192 l 13.495201,5.54166 6.025652,-4.09777 z" /><path
   style="fill:#00082d;stroke-width:4.03323"
   inkscape:connector-curvature="0"
   id="path124"
   d="M 30.967169,138.91668 C 20.125837,128.07535 14.701137,115.10043 14.701137,100 c 0,-15.100423 5.420667,-28.075336 16.266032,-38.916668 C 41.808502,50.237966 54.783415,44.8173 69.883842,44.8173 c 15.100428,0 28.071307,5.420666 38.916678,16.266032 10.84133,10.841332 16.26603,23.816245 16.26603,38.916668 0,15.10043 -5.42067,28.07131 -16.26603,38.91668 -10.845371,10.84133 -23.820284,16.26603 -38.916678,16.26603 -15.10446,0 -28.07534,-5.42067 -38.916673,-16.26603 z M 33.496007,63.612169 C 23.376623,73.731553 18.314915,85.867553 18.314915,100 c 0,14.13649 5.061708,26.26442 15.181092,36.38381 10.119383,10.11938 22.251351,15.18109 36.383802,15.18109 14.132451,0 26.268452,-5.05768 36.387831,-15.18109 10.11939,-10.12342 15.1811,-22.25135 15.1811,-36.38381 0,-14.132447 -5.05768,-26.268447 -15.1811,-36.387831 C 96.148261,53.492786 84.01226,48.431077 69.879809,48.431077 c -14.132451,0 -26.264419,5.061709 -36.383802,15.181092 z m 1.564895,71.206741 C 25.502137,125.26015 20.722755,113.6525 20.722755,100 c 0,-13.652492 4.779382,-25.264172 14.338147,-34.818903 9.558764,-9.558764 21.166411,-14.338146 34.818907,-14.338146 13.652496,0 25.260143,4.783415 34.822941,14.338146 9.55473,9.558764 14.33411,21.166411 14.33411,34.818903 0,13.65653 -4.77938,25.26418 -14.33411,34.81891 -9.562798,9.55877 -21.170445,14.33411 -34.822941,14.33411 -13.652496,0.004 -25.260143,-4.77131 -34.818907,-14.33411 z m -11.442285,-47.830118 -1.447931,6.505607 6.505606,-2.16988 -3.613777,7.469549 h 5.545696 l 1.685892,-1.685892 c 0.322659,-3.855771 1.121239,-7.388884 2.411874,-10.603372 l -4.819714,-1.927885 z m 6.263612,28.430268 4.819715,-1.92789 c -1.286602,-3.21449 -2.089215,-6.7476 -2.411874,-10.60337 l -1.685892,-1.68589 h -5.545696 l 3.613777,7.47358 -6.505606,-2.16988 1.447931,6.50561 z M 40.243607,71.8077 36.145841,67.709935 33.496007,68.431884 c -1.927886,2.411874 -3.855772,5.223037 -5.783657,8.433492 l 1.927885,5.057675 5.057676,2.16988 1.205936,-0.721949 c 0.802614,-1.766557 1.843188,-3.613778 3.12979,-5.545697 l -6.025651,-1.685892 z m -1.205937,50.36299 c -0.645317,-0.96394 -1.201904,-1.84722 -1.685892,-2.65387 -0.483988,-0.80261 -0.762281,-1.3229 -0.842945,-1.56489 -0.0847,-0.242 -0.201662,-0.51626 -0.362992,-0.84295 -0.161329,-0.31862 -0.322658,-0.51625 -0.479954,-0.60095 -0.165363,-0.0807 -0.483988,-0.27829 -0.963943,-0.60095 l -5.057675,2.16988 -1.927886,5.05767 c 1.601194,2.89183 3.694442,5.78366 6.263612,8.67549 l 2.16988,0.47995 4.097765,-4.09776 -7.227555,-4.33573 z M 43.978382,74.094544 C 36.827458,81.245467 33.254013,89.876588 33.254013,100 c 0,10.11939 3.573445,18.75454 10.724369,25.90143 7.14689,7.14689 15.782043,10.72437 25.901427,10.72437 10.123417,0 18.754537,-3.57344 25.905461,-10.72437 7.14689,-7.14689 10.72437,-15.78204 10.72437,-25.90143 0,-10.123412 -3.57748,-18.754533 -10.72437,-25.905456 -7.150924,-7.14689 -15.782044,-10.724369 -25.905461,-10.724369 -10.119384,0.004 -18.754537,3.577479 -25.901427,10.724369 z m 3.734774,-4.940711 c 0.963943,-0.637251 1.847221,-1.201904 2.653868,-1.685892 0.79858,-0.479955 1.322901,-0.758248 1.564895,-0.842946 0.241994,-0.08066 0.520287,-0.197628 0.842945,-0.358958 0.318626,-0.161329 0.520288,-0.322659 0.600952,-0.483988 0.08066,-0.157296 0.278293,-0.479955 0.600952,-0.963943 l -2.16988,-5.057675 -5.057675,-1.927886 c -2.891829,1.605227 -5.783657,3.698476 -8.675486,6.263612 l -0.483988,2.16988 4.097766,4.097766 4.339759,-7.227555 z m -6.025651,60.486407 -4.097766,4.09777 0.721949,2.64983 c 2.411874,1.92789 5.219005,3.85577 8.433492,5.78366 l 5.057675,-1.93192 2.16988,-5.05768 -0.721949,-1.20593 c -1.77059,-0.80262 -3.613777,-1.84722 -5.545696,-3.12979 l -1.685892,6.02565 z m 25.304509,-67.229974 1.685891,-1.685892 v -5.541663 l -7.469549,3.613777 2.16988,-6.505606 -6.505606,1.447931 -2.407841,6.263612 1.927886,4.819714 c 3.206421,-1.286601 6.743567,-2.089215 10.599339,-2.411873 z m -10.123417,83.854964 6.505606,1.4439 -2.16988,-6.50561 7.469549,3.61378 v -5.54166 l -1.685892,-1.6859 c -3.855771,-0.32266 -7.392917,-1.12124 -10.603371,-2.41187 l -1.927886,4.81971 z m 14.217149,-85.544889 1.685892,1.685891 c 3.855771,0.322659 7.388884,1.125273 10.599338,2.407841 l 1.927886,-4.819714 -2.407841,-6.263612 -6.505606,-1.447931 2.16988,6.505606 -7.469549,-3.613778 z m 14.217149,79.281279 -1.927886,-4.81972 c -3.214487,1.2866 -6.7476,2.08922 -10.599338,2.41188 l -1.685892,1.68589 v 5.54166 l 7.469549,-3.61378 -2.16988,6.50561 6.505606,-1.4439 z m 6.751633,-70.847787 1.685892,-6.021619 4.335726,7.227555 4.097764,-4.097765 -0.72195,-2.653868 C 99.044123,61.68025 96.232959,59.752365 93.018471,57.824479 l -5.057675,1.927886 -2.16988,5.057675 0.721949,1.205937 c 1.762523,0.814713 3.613778,1.855287 5.541663,3.137856 z m 0,61.692347 c -0.963942,0.64531 -1.847221,1.2019 -2.653867,1.68589 -0.806647,0.48399 -1.322901,0.76228 -1.564895,0.84294 -0.241994,0.0847 -0.520287,0.20167 -0.842946,0.363 -0.322659,0.16132 -0.52432,0.32669 -0.600952,0.48398 -0.0847,0.16133 -0.282326,0.47996 -0.600952,0.96395 l 2.16988,5.05767 5.057675,1.93192 c 2.891829,-1.60523 5.783658,-3.69444 8.675489,-6.26764 l 0.47995,-2.16988 -4.097764,-4.09777 -4.335726,7.22755 z m 8.671452,-53.016862 c 0.64129,0.963943 1.2019,1.847222 1.68589,2.653868 0.48399,0.806647 0.75825,1.326934 0.84295,1.564895 0.0807,0.241994 0.19763,0.52432 0.36299,0.842946 0.1573,0.322659 0.31863,0.520287 0.47995,0.600952 0.16133,0.0847 0.48399,0.282326 0.96395,0.600952 l 5.05767,-2.16988 1.92789,-5.057675 c -1.60523,-2.891829 -3.69848,-5.783658 -6.26361,-8.675486 l -2.16988,-0.479955 -4.097769,4.097765 7.227559,4.335727 z m -1.201903,50.362992 4.097763,4.09776 2.64984,-0.72194 c 1.92788,-2.40784 3.85577,-5.21498 5.78365,-8.4335 l -1.92788,-5.05767 -5.05768,-2.16988 -1.20593,0.72598 c -0.80665,1.76656 -1.84722,3.61378 -3.12979,5.54166 l 6.02565,1.6859 z m 10.357343,-43.615391 -4.81971,1.927885 c 1.28257,3.214488 2.08518,6.747601 2.41187,10.603372 l 1.68589,1.685892 h 5.54167 l -3.61378,-7.469549 6.5056,2.16988 -1.44793,-6.505607 z m 6.26765,28.434301 1.44793,-6.50561 -6.50561,2.16988 3.61378,-7.47358 h -5.54166 l -1.6859,1.68589 c -0.32669,3.85577 -1.12527,7.38888 -2.41187,10.60337 l 4.81972,1.92789 z" /></svg>
