<?xml version="1.0" encoding="UTF-8" standalone="no"?>
<!-- Generator: Adobe Illustrator 16.0.0, SVG Export Plug-In . SVG Version: 6.00 Build 0)  -->

<svg
   version="1.1"
   id="图层_1"
   x="0px"
   y="0px"
   width="139.76401"
   height="200"
   viewBox="0 0 139.764 200"
   enable-background="new 0 0 714 341"
   xml:space="preserve"
   sodipodi:docname="sou-9.svg"
   inkscape:version="1.2.2 (b0a8486, 2022-12-01)"
   xmlns:inkscape="http://www.inkscape.org/namespaces/inkscape"
   xmlns:sodipodi="http://sodipodi.sourceforge.net/DTD/sodipodi-0.dtd"
   xmlns="http://www.w3.org/2000/svg"
   xmlns:svg="http://www.w3.org/2000/svg"
   xmlns:rdf="http://www.w3.org/1999/02/22-rdf-syntax-ns#"
   xmlns:cc="http://creativecommons.org/ns#"
   xmlns:dc="http://purl.org/dc/elements/1.1/"><metadata
   id="metadata621"><rdf:RDF><cc:Work
       rdf:about=""><dc:format>image/svg+xml</dc:format><dc:type
         rdf:resource="http://purl.org/dc/dcmitype/StillImage" /><dc:title /></cc:Work></rdf:RDF></metadata><defs
   id="defs619" /><sodipodi:namedview
   pagecolor="#ffffff"
   bordercolor="#666666"
   borderopacity="1"
   objecttolerance="10"
   gridtolerance="10"
   guidetolerance="10"
   inkscape:pageopacity="0"
   inkscape:pageshadow="2"
   inkscape:window-width="1860"
   inkscape:window-height="1016"
   id="namedview617"
   showgrid="false"
   inkscape:zoom="1"
   inkscape:cx="-187"
   inkscape:cy="155.5"
   inkscape:window-x="1980"
   inkscape:window-y="27"
   inkscape:window-maximized="1"
   inkscape:current-layer="图层_1"
   inkscape:showpageshadow="2"
   inkscape:pagecheckerboard="0"
   inkscape:deskcolor="#d1d1d1" />



















































































































































































































































































































<path
   id="path2"
   d="M 139.76364,14.459143 V 185.54489 c 0,4.01307 -1.4076,7.42922 -4.21473,10.24038 C 132.73775,198.5924 129.3216,200 125.30853,200 H 14.459143 C 10.442042,200 7.025893,198.5924 4.214729,195.78527 1.403565,192.97411 0,189.55796 0,185.54489 V 14.459143 C 0,10.446076 1.403565,7.029927 4.214729,4.218763 7.025893,1.407599 10.438009,0 14.459143,0 H 125.3045 c 4.01307,0 7.42921,1.407599 10.24038,4.218763 2.81116,2.811164 4.21876,6.22328 4.21876,10.24038 z"
   inkscape:connector-curvature="0"
   style="fill:#ffffff;stroke-width:4.03323"
   sodipodi:nodetypes="sscsscsssssss" /><path
   style="fill:#00082d;stroke-width:4.03323"
   inkscape:connector-curvature="0"
   id="path170"
   d="M 19.169999,114.00743 C 15.294062,110.13552 13.358109,105.461 13.358109,100 c 0,-5.460994 1.935953,-10.131479 5.81189,-14.007416 3.875938,-3.871905 8.546423,-5.815923 14.007421,-5.815923 4.226829,0 8.014036,1.189804 11.365653,3.569411 3.347584,2.375575 5.723159,5.416633 7.134791,9.115109 1.411632,-3.698476 3.787206,-6.739534 7.138824,-9.115109 3.347584,-2.379607 7.138823,-3.569411 11.361619,-3.569411 4.230862,0 8.018069,1.189804 11.365653,3.569411 3.347584,2.375575 5.723159,5.416633 7.138824,9.115109 1.403565,-3.698476 3.783173,-6.739534 7.13479,-9.115109 3.343551,-2.379607 7.138826,-3.569411 11.365656,-3.569411 5.45696,0 10.12745,1.939985 14.00742,5.815923 3.8719,3.875937 5.81189,8.546422 5.81189,14.007416 0,5.461 -1.93999,10.13552 -5.81189,14.00743 -3.87997,3.87593 -8.55046,5.81189 -14.00742,5.81189 -4.22683,0 -8.022105,-1.18578 -11.365656,-3.56538 -3.347584,-2.37961 -5.727192,-5.41664 -7.13479,-9.11914 -1.415665,3.69847 -3.79124,6.73953 -7.138824,9.11914 -3.347584,2.3796 -7.134791,3.56538 -11.365653,3.56538 -4.226829,0 -8.018069,-1.18578 -11.361619,-3.56538 -3.351618,-2.37961 -5.727192,-5.41664 -7.138824,-9.11914 -1.411632,3.69847 -3.787207,6.73953 -7.134791,9.11914 -3.351617,2.3796 -7.138824,3.56538 -11.365653,3.56538 -5.465031,0 -10.131483,-1.93596 -14.007421,-5.81189 z M 21.944864,88.767449 C 18.85944,91.852872 17.318745,95.595713 17.318745,100 c 0,4.4043 1.540695,8.15117 4.626119,11.23256 3.081391,3.08542 6.824232,4.62209 11.232556,4.62209 4.404292,0 8.147133,-1.5407 11.232556,-4.62209 3.081391,-3.08139 4.62612,-6.82826 4.62612,-11.23256 0,-4.404287 -1.544729,-8.147128 -4.62612,-11.232551 -3.085423,-3.081391 -6.828264,-4.62612 -11.232556,-4.62612 -4.404291,0 -8.151165,1.544729 -11.232556,4.62612 z m 37.000887,0 C 55.860327,91.852872 54.319632,95.595713 54.319632,100 c 0,4.4043 1.540695,8.15117 4.626119,11.23256 3.081391,3.08542 6.824232,4.62209 11.232556,4.62209 4.404292,0 8.147133,-1.5407 11.232556,-4.62209 3.081391,-3.08139 4.62612,-6.82826 4.62612,-11.23256 0,-4.404287 -1.544729,-8.147128 -4.62612,-11.232551 -3.085423,-3.081391 -6.828264,-4.62612 -11.232556,-4.62612 -4.408324,0 -8.151165,1.544729 -11.232556,4.62612 z m 37.000887,0 C 92.861214,91.852872 91.320519,95.595713 91.320519,100 c 0,4.4043 1.540695,8.15117 4.626119,11.23256 3.081391,3.08542 6.824232,4.62209 11.232552,4.62209 4.40026,0 8.14714,-1.5407 11.23256,-4.62209 3.08139,-3.08139 4.62612,-6.82826 4.62612,-11.23256 0,-4.404287 -1.54473,-8.147128 -4.62612,-11.232551 -3.08542,-3.081391 -6.82826,-4.62612 -11.23256,-4.62612 -4.40832,0 -8.151161,1.544729 -11.232552,4.62612 z" /><path
   style="fill:#870000;stroke-width:4.03323"
   inkscape:connector-curvature="0"
   id="path172"
   d="M 23.796119,109.38131 C 21.239048,106.82827 19.960513,103.69848 19.960513,100 c 0,-3.698471 1.274502,-6.82826 3.835606,-9.38533 2.553037,-2.549004 5.682826,-3.831573 9.381301,-3.831573 3.698476,0 6.828265,1.278536 9.385335,3.831573 2.553037,2.55707 3.831573,5.682826 3.831573,9.38533 0,3.69848 -1.278536,6.82827 -3.831573,9.38131 -2.55707,2.55303 -5.682826,3.83157 -9.385335,3.83157 -3.698475,0.004 -6.828264,-1.2745 -9.381301,-3.83157 z m 2.774864,-9.643466 c 0,-1.589094 0.524321,-2.907961 1.585061,-3.964668 0,-1.407599 -0.528353,-2.641769 -1.585061,-3.698476 l -2.379608,0.26216 c -1.939985,2.29491 -2.903928,4.851981 -2.903928,7.66718 v 0.79051 l 1.847221,1.84722 c 1.407599,-0.17343 2.553037,-1.1414 3.436315,-2.903926 z m 5.021376,6.602406 c -1.766556,-0.35089 -3.085423,-1.31887 -3.964668,-2.90796 l -2.113415,-0.52836 -1.851254,0.79455 -0.528354,2.64177 c 1.935952,2.81923 4.31556,4.49302 7.134791,5.02137 l 2.379608,-1.0567 v -2.11745 z M 27.627691,91.280153 c 0.528353,1.585061 1.589094,2.468339 3.174155,2.641768 1.056707,-0.346858 1.847221,-0.52432 2.375574,-0.52432 0.528354,0 1.322901,0.177462 2.379608,0.52432 1.585061,-0.169395 2.641768,-1.056707 3.174155,-2.641768 l -1.06074,-2.379608 c -1.23417,-0.528353 -2.734533,-0.790514 -4.493023,-0.790514 -1.762523,0 -3.262886,0.262161 -4.493022,0.790514 z m 1.851254,5.021376 C 28.418204,97.358237 27.889851,98.592406 27.889851,100 c 0,1.41164 0.528353,2.64177 1.589094,3.69848 1.056707,1.05671 2.286844,1.58909 3.698475,1.58909 1.407599,0 2.641768,-0.52835 3.698476,-1.58909 1.056707,-1.06074 1.589094,-2.28684 1.589094,-3.69848 0,-1.407594 -0.528354,-2.641763 -1.589094,-3.698471 -1.056708,-1.056707 -2.290877,-1.585061 -3.698476,-1.585061 -1.411631,0 -2.641768,0.528354 -3.698475,1.585061 z m 3.698475,6.340241 c -1.762523,0 -2.641768,-0.87924 -2.641768,-2.64177 0,-1.762519 0.879245,-2.641763 2.641768,-2.641763 1.75849,0 2.641768,0.883278 2.641768,2.641763 0,1.76253 -0.883278,2.64177 -2.641768,2.64177 z m 2.907962,8.72389 c 2.815197,-0.52836 5.194805,-2.20215 7.138824,-5.02138 l -0.532387,-2.64177 -1.847221,-0.79454 -2.109381,0.52835 c -0.887312,1.58909 -2.206179,2.55707 -3.964669,2.90796 l -1.056708,1.84722 v 2.11745 z m 3.702509,-11.627816 c 0.879245,1.762526 2.02065,2.734536 3.436315,2.903926 l 1.847221,-1.84722 v -0.79051 c 0,-2.815199 -0.97201,-5.37227 -2.907962,-7.66718 L 39.787891,92.0747 c -1.056708,1.056707 -1.589095,2.290877 -1.589095,3.698476 1.056708,1.056707 1.589095,2.375574 1.589095,3.964668 z m 21.009114,9.643466 c -2.55707,-2.55304 -3.831572,-5.68283 -3.831572,-9.38131 0,-3.698471 1.274502,-6.82826 3.831572,-9.38533 2.553037,-2.549004 5.682827,-3.831573 9.381302,-3.831573 3.698476,0 6.824232,1.278536 9.381302,3.831573 2.553037,2.55707 3.835605,5.682826 3.835605,9.38533 0,3.69848 -1.278535,6.82827 -3.835605,9.38131 -2.55707,2.55303 -5.682826,3.83157 -9.381302,3.83157 -3.698475,0.004 -6.832298,-1.2745 -9.381302,-3.83157 z m 2.770832,-9.643466 c 0,-1.589094 0.528354,-2.907961 1.585061,-3.964668 0,-1.407599 -0.528354,-2.641769 -1.585061,-3.698476 l -2.375575,0.26216 c -1.944018,2.29491 -2.907961,4.851981 -2.907961,7.66718 v 0.79051 l 1.847221,1.84722 c 1.411632,-0.17343 2.553037,-1.1414 3.436315,-2.903926 z m 5.025409,6.602406 c -1.762523,-0.35089 -3.085424,-1.31887 -3.964668,-2.90796 l -2.113415,-0.52836 -1.851254,0.79455 -0.528354,2.64177 c 1.935952,2.81923 4.31556,4.49302 7.138824,5.02137 l 2.375575,-1.0567 v -2.11745 z M 64.628578,91.280153 c 0.528353,1.585061 1.589094,2.468339 3.174155,2.641768 1.056707,-0.346858 1.847221,-0.52432 2.375574,-0.52432 0.528354,0 1.322901,0.177462 2.379608,0.52432 1.585061,-0.169395 2.641768,-1.056707 3.174155,-2.641768 l -1.056707,-2.379608 c -1.23417,-0.528353 -2.734533,-0.790514 -4.493023,-0.790514 -1.758489,0 -3.262886,0.262161 -4.493022,0.790514 z m 1.851254,5.021376 C 65.419091,97.358237 64.890738,98.592406 64.890738,100 c 0,1.41164 0.528353,2.64177 1.589094,3.69848 1.056707,1.05671 2.286843,1.58909 3.698475,1.58909 1.407599,0 2.645802,-0.52835 3.698476,-1.58909 1.06074,-1.05671 1.589094,-2.28684 1.589094,-3.69848 0,-1.407594 -0.528354,-2.641763 -1.589094,-3.698471 -1.056708,-1.056707 -2.290877,-1.585061 -3.698476,-1.585061 -1.411632,0 -2.641768,0.528354 -3.698475,1.585061 z m 3.698475,6.340241 c -1.762523,0 -2.641768,-0.87924 -2.641768,-2.64177 0,-1.762519 0.879245,-2.641763 2.641768,-2.641763 1.762523,0 2.645802,0.883278 2.645802,2.641763 -0.004,1.76253 -0.887312,2.64177 -2.645802,2.64177 z m 2.907962,8.72389 c 2.815197,-0.52836 5.194805,-2.20215 7.13479,-5.02138 l -0.52432,-2.64177 -1.851254,-0.79454 -2.113415,0.52835 c -0.883278,1.58909 -2.206179,2.55707 -3.964669,2.90796 l -1.056707,1.84722 v 2.11745 z m 3.698475,-11.627816 c 0.879245,1.762526 2.02065,2.734536 3.436315,2.903926 l 1.847221,-1.84722 v -0.79051 c 0,-2.815199 -0.967976,-5.37227 -2.907961,-7.66718 L 76.784744,92.0747 c -1.056707,1.056707 -1.589094,2.290877 -1.589094,3.698476 1.060741,1.056707 1.589094,2.375574 1.589094,3.964668 z m 21.013148,9.643466 C 95.240822,106.82827 93.96632,103.69848 93.96632,100 c 0,-3.698471 1.274502,-6.82826 3.831572,-9.38533 2.549008,-2.549004 5.682828,-3.831573 9.381298,-3.831573 3.69848,0 6.82424,1.278536 9.38131,3.831573 2.55303,2.55707 3.83157,5.682826 3.83157,9.38533 0,3.69848 -1.27854,6.82827 -3.83157,9.38131 -2.55707,2.55303 -5.68283,3.83157 -9.38131,3.83157 -3.69847,0.004 -6.83229,-1.2745 -9.381298,-3.83157 z m 2.774868,-9.643466 c 0,-1.589094 0.52432,-2.907961 1.58506,-3.964668 0,-1.407599 -0.52836,-2.641769 -1.58506,-3.698476 l -2.379611,0.26216 c -1.939985,2.29491 -2.907961,4.851981 -2.907961,7.66718 v 0.79051 l 1.847221,1.84722 c 1.407598,-0.17343 2.55707,-1.1414 3.440351,-2.903926 z m 5.02137,6.602406 c -1.76655,-0.35089 -3.08542,-1.31887 -3.96467,-2.90796 l -2.11341,-0.52836 -1.851254,0.79455 -0.528354,2.64177 c 1.935952,2.81923 4.315558,4.49302 7.138828,5.02137 l 2.37557,-1.0567 v -2.11745 z m -3.96467,-15.060097 c 0.52836,1.585061 1.5891,2.468339 3.17416,2.641768 1.05671,-0.346858 1.84722,-0.52432 2.37961,-0.52432 0.53238,0 1.3229,0.177462 2.37557,0.52432 1.5891,-0.169395 2.6458,-1.056707 3.17416,-2.641768 l -1.06074,-2.379608 c -1.23417,-0.528353 -2.73454,-0.790514 -4.49303,-0.790514 -1.76655,0 -3.26288,0.262161 -4.49302,0.790514 z m 1.85126,5.021376 c -1.05671,1.056708 -1.5891,2.290877 -1.5891,3.698471 0,1.41164 0.53239,2.64177 1.5891,3.69848 1.05671,1.05671 2.28684,1.58909 3.69847,1.58909 1.4076,0 2.64177,-0.52835 3.69848,-1.58909 1.06074,-1.05671 1.58909,-2.28684 1.58909,-3.69848 0,-1.407594 -0.52835,-2.641763 -1.58909,-3.698471 -1.05671,-1.056707 -2.29088,-1.585061 -3.69848,-1.585061 -1.41163,0 -2.6458,0.528354 -3.69847,1.585061 z m 3.69847,6.340241 c -1.76655,0 -2.6458,-0.87924 -2.6458,-2.64177 0,-1.762519 0.87925,-2.641763 2.6458,-2.641763 1.75849,0 2.64177,0.883278 2.64177,2.641763 0,1.76253 -0.88328,2.64177 -2.64177,2.64177 z m 2.90797,8.72389 c 2.81519,-0.52836 5.1948,-2.20215 7.13882,-5.02138 l -0.52835,-2.64177 -1.85126,-0.79454 -2.10938,0.52835 c -0.88731,1.58909 -2.20618,2.55707 -3.96467,2.90796 l -1.05671,1.84722 v 2.11745 z m 3.69847,-11.627816 c 0.87925,1.762526 2.02468,2.734536 3.43632,2.903926 l 1.84722,-1.84722 v -0.79051 c 0,-2.815199 -0.96798,-5.37227 -2.90796,-7.66718 L 113.7816,92.0747 c -1.05671,1.056707 -1.58506,2.290877 -1.58506,3.698476 1.06074,1.056707 1.58909,2.375574 1.58909,3.964668 z" /><path
   style="fill:#00082d;stroke-width:4.03323"
   inkscape:connector-curvature="0"
   id="path174"
   d="m 19.169999,54.541426 c -3.875937,-3.871904 -5.81189,-8.546422 -5.81189,-14.00742 0,-5.460999 1.935953,-10.127451 5.81189,-14.007421 3.875938,-3.875938 8.546423,-5.815924 14.007421,-5.815924 4.226829,0 8.014036,1.189804 11.365653,3.569412 3.347584,2.379608 5.723159,5.416633 7.134791,9.119142 1.411632,-3.698475 3.787206,-6.739534 7.138824,-9.119142 3.347584,-2.379608 7.138823,-3.569412 11.361619,-3.569412 4.230862,0 8.018069,1.189804 11.365653,3.569412 3.347584,2.379608 5.723159,5.416633 7.138824,9.119142 1.403565,-3.698475 3.783173,-6.739534 7.13479,-9.119142 3.343551,-2.379608 7.138826,-3.569412 11.365656,-3.569412 5.45696,0 10.12745,1.939986 14.00742,5.815924 3.8719,3.875937 5.81189,8.546422 5.81189,14.007421 0,5.460998 -1.93999,10.135516 -5.81189,14.00742 -3.87997,3.875938 -8.55046,5.815924 -14.00742,5.815924 -4.22683,0 -8.022105,-1.189804 -11.365656,-3.569412 -3.347584,-2.379608 -5.727192,-5.420667 -7.13479,-9.119142 -1.415665,3.698475 -3.79124,6.739534 -7.138824,9.119142 -3.347584,2.375574 -7.134791,3.569412 -11.365653,3.569412 -4.226829,0 -8.018069,-1.189804 -11.361619,-3.569412 -3.351618,-2.379608 -5.727192,-5.420667 -7.138824,-9.119142 -1.411632,3.698475 -3.787207,6.739534 -7.134791,9.119142 -3.351617,2.375574 -7.138824,3.569412 -11.365653,3.569412 -5.465031,0 -10.131483,-1.935953 -14.007421,-5.815924 z m 0,118.927964 c -3.875937,-3.8719 -5.81189,-8.54239 -5.81189,-14.00742 0,-5.461 1.935953,-10.13148 5.81189,-14.00742 3.875938,-3.87594 8.546423,-5.81592 14.007421,-5.81592 4.226829,0 8.014036,1.1898 11.365653,3.56941 3.347584,2.37557 5.723159,5.41663 7.134791,9.11914 1.411632,-3.69848 3.787206,-6.73953 7.138824,-9.11914 3.347584,-2.37961 7.138823,-3.56941 11.361619,-3.56941 4.230862,0 8.018069,1.1898 11.365653,3.56941 3.347584,2.37557 5.723159,5.41663 7.138824,9.11914 1.403565,-3.69848 3.783173,-6.73953 7.13479,-9.11914 3.343551,-2.37961 7.138826,-3.56941 11.365656,-3.56941 5.45696,0 10.12745,1.93998 14.00742,5.81592 3.8719,3.87594 5.81189,8.54642 5.81189,14.00742 0,5.461 -1.93999,10.13552 -5.81189,14.00742 -3.87997,3.87997 -8.55046,5.81592 -14.00742,5.81592 -4.22683,0 -8.022105,-1.1898 -11.365656,-3.56537 -3.347584,-2.37961 -5.727192,-5.42067 -7.13479,-9.11915 -1.415665,3.69848 -3.79124,6.73954 -7.138824,9.11915 -3.347584,2.37557 -7.134791,3.56537 -11.365653,3.56537 -4.226829,0 -8.018069,-1.1898 -11.361619,-3.56537 -3.351618,-2.37961 -5.727192,-5.42067 -7.138824,-9.11915 -1.411632,3.69848 -3.787207,6.73954 -7.134791,9.11915 -3.351617,2.37557 -7.138824,3.56537 -11.365653,3.56537 -5.465031,0 -10.131483,-1.93595 -14.007421,-5.81592 z M 21.944864,29.301449 c -3.085424,3.085424 -4.626119,6.828265 -4.626119,11.232557 0,4.408324 1.540695,8.151165 4.626119,11.232556 3.081391,3.085424 6.824232,4.622086 11.232556,4.622086 4.404292,0 8.147133,-1.540696 11.232556,-4.622086 3.081391,-3.081391 4.62612,-6.824232 4.62612,-11.232556 0,-4.404292 -1.544729,-8.147133 -4.62612,-11.232557 -3.085423,-3.08139 -6.828264,-4.626119 -11.232556,-4.626119 -4.404291,0 -8.151165,1.544729 -11.232556,4.626119 z m 0,118.932001 c -3.085424,3.08542 -4.626119,6.82826 -4.626119,11.23255 0,4.40833 1.540695,8.15117 4.626119,11.23256 3.081391,3.08542 6.824232,4.62612 11.232556,4.62612 4.404292,0 8.147133,-1.5407 11.232556,-4.62612 3.081391,-3.07736 4.62612,-6.82423 4.62612,-11.23256 0,-4.40429 -1.544729,-8.14713 -4.62612,-11.23255 -3.085423,-3.08139 -6.828264,-4.62612 -11.232556,-4.62612 -4.404291,0 -8.151165,1.54473 -11.232556,4.62612 z m 1.851255,-98.318143 c -2.557071,-2.553037 -3.835606,-5.682826 -3.835606,-9.381301 0,-3.698476 1.274502,-6.824232 3.835606,-9.381302 2.553037,-2.553037 5.682826,-3.831572 9.381301,-3.831572 3.698476,0 6.828265,1.278535 9.385335,3.831572 2.553037,2.55707 3.831573,5.682826 3.831573,9.381302 0,3.698475 -1.278536,6.828264 -3.831573,9.381301 -2.55707,2.557071 -5.682826,3.835606 -9.385335,3.835606 -3.698475,0 -6.828264,-1.278535 -9.381301,-3.835606 z m 0,118.932003 c -2.557071,-2.55304 -3.835606,-5.68283 -3.835606,-9.38131 0,-3.69847 1.274502,-6.82423 3.835606,-9.38533 2.553037,-2.55304 5.682826,-3.83157 9.381301,-3.83157 3.698476,0 6.828265,1.27853 9.385335,3.83157 2.553037,2.55707 3.831573,5.68686 3.831573,9.38533 0,3.69848 -1.278536,6.82827 -3.831573,9.38131 -2.55707,2.55707 -5.682826,3.8356 -9.385335,3.8356 -3.698475,0 -6.828264,-1.27853 -9.381301,-3.8356 z M 26.570983,40.271845 c 0,-1.589094 0.524321,-2.907961 1.585061,-3.964669 0,-1.411631 -0.528353,-2.645801 -1.585061,-3.702508 l -2.379608,0.266193 c -1.939985,2.290877 -2.903928,4.847947 -2.903928,7.663145 v 0.794547 l 1.847221,1.847221 c 1.407599,-0.173429 2.553037,-1.141406 3.436315,-2.903929 z m 0,118.931995 c 0,-1.58909 0.524321,-2.91199 1.585061,-3.96467 0,-1.40759 -0.528353,-2.6458 -1.585061,-3.69847 l -2.379608,0.26216 c -1.939985,2.29088 -2.903928,4.84795 -2.903928,7.66314 v 0.79455 l 1.847221,1.84722 c 1.407599,-0.17343 2.553037,-1.14544 3.436315,-2.90393 z M 31.592359,46.878282 c -1.766556,-0.350891 -3.085423,-1.3229 -3.964668,-2.907961 L 25.514276,43.446 l -1.851254,0.790514 -0.528354,2.641768 c 1.935952,2.823264 4.31556,4.493023 7.134791,5.021376 l 2.379608,-1.056707 v -2.113414 z m 0,118.931998 c -1.766556,-0.35089 -3.085423,-1.3229 -3.964668,-2.90796 l -2.113415,-0.52835 -1.851254,0.79051 -0.528354,2.6458 c 1.935952,2.81923 4.31556,4.49302 7.134791,5.02138 l 2.379608,-1.05671 v -2.11342 z M 27.627691,31.814154 c 0.528353,1.585061 1.589094,2.468339 3.174155,2.641768 1.056707,-0.346858 1.847221,-0.528353 2.375574,-0.528353 0.528354,0 1.322901,0.177462 2.379608,0.528353 1.585061,-0.173429 2.641768,-1.056707 3.174155,-2.641768 l -1.06074,-2.379608 c -1.23417,-0.528354 -2.734533,-0.794547 -4.493023,-0.794547 -1.762523,0 -3.262886,0.26216 -4.493022,0.794547 z m 0,118.931996 c 0.528353,1.58506 1.589094,2.46834 3.174155,2.64177 1.056707,-0.34686 1.847221,-0.52835 2.375574,-0.52835 0.528354,0 1.322901,0.18149 2.379608,0.52835 1.585061,-0.17343 2.641768,-1.05671 3.174155,-2.64177 l -1.06074,-2.37961 c -1.23417,-0.52835 -2.734533,-0.79454 -4.493023,-0.79454 -1.762523,0 -3.262886,0.26619 -4.493022,0.79454 z M 29.478945,36.83553 c -1.060741,1.056707 -1.589094,2.290877 -1.589094,3.698476 0,1.415665 0.528353,2.641768 1.589094,3.698475 1.056707,1.06074 2.286844,1.585061 3.698475,1.585061 1.407599,0 2.641768,-0.524321 3.698476,-1.585061 1.056707,-1.056707 1.589094,-2.286844 1.589094,-3.698475 0,-1.407599 -0.528354,-2.641769 -1.589094,-3.698476 -1.056708,-1.056707 -2.290877,-1.589094 -3.698476,-1.589094 -1.411631,0 -2.641768,0.532387 -3.698475,1.589094 z m 0,118.932 c -1.060741,1.05671 -1.589094,2.29088 -1.589094,3.69847 0,1.41567 0.528353,2.64177 1.589094,3.69848 1.056707,1.06074 2.286844,1.58909 3.698475,1.58909 1.407599,0 2.641768,-0.52835 3.698476,-1.58909 1.056707,-1.05671 1.589094,-2.28281 1.589094,-3.69848 0,-1.40759 -0.528354,-2.64176 -1.589094,-3.69847 -1.056708,-1.06074 -2.290877,-1.58506 -3.698476,-1.58506 -1.411631,0 -2.641768,0.52432 -3.698475,1.58506 z M 33.17742,43.175774 c -1.762523,0 -2.641768,-0.879245 -2.641768,-2.641768 0,-1.75849 0.879245,-2.641769 2.641768,-2.641769 1.75849,0 2.641768,0.883279 2.641768,2.641769 0,1.762523 -0.883278,2.641768 -2.641768,2.641768 z m 0,118.931996 c -1.762523,0 -2.641768,-0.87924 -2.641768,-2.64177 0,-1.75849 0.879245,-2.64176 2.641768,-2.64176 1.75849,0 2.641768,0.88327 2.641768,2.64176 0,1.76253 -0.883278,2.64177 -2.641768,2.64177 z M 36.085382,51.899658 c 2.815197,-0.528353 5.194805,-2.198112 7.138824,-5.021376 L 42.691819,44.236514 40.844598,43.446 38.735217,43.970321 c -0.887312,1.589094 -2.206179,2.55707 -3.964669,2.907961 l -1.056708,1.847221 v 2.113415 z m 0,118.927962 c 2.815197,-0.52835 5.194805,-2.19811 7.138824,-5.02137 l -0.532387,-2.6458 -1.847221,-0.79052 -2.109381,0.52836 c -0.887312,1.58506 -2.206179,2.55707 -3.964669,2.90796 l -1.056708,1.84722 v 2.11341 z M 39.787891,40.271845 c 0.879245,1.762523 2.02065,2.7305 3.436315,2.903929 l 1.847221,-1.847221 v -0.794547 c 0,-2.815198 -0.97201,-5.372268 -2.907962,-7.663145 l -2.375574,-0.266193 c -1.056708,1.056707 -1.589095,2.290877 -1.589095,3.702508 1.056708,1.056708 1.589095,2.375575 1.589095,3.964669 z m 0,118.931995 c 0.879245,1.75849 2.02065,2.7305 3.436315,2.90393 l 1.847221,-1.84722 V 159.466 c 0,-2.81519 -0.97201,-5.37226 -2.907962,-7.66314 l -2.375574,-0.26216 c -1.056708,1.05671 -1.589095,2.29088 -1.589095,3.69847 1.056708,1.05268 1.589095,2.37558 1.589095,3.96467 z M 58.945751,29.301449 c -3.085424,3.085424 -4.626119,6.828265 -4.626119,11.232557 0,4.408324 1.540695,8.151165 4.626119,11.232556 3.081391,3.085424 6.824232,4.622086 11.232556,4.622086 4.404292,0 8.147133,-1.540696 11.232556,-4.622086 3.081391,-3.081391 4.62612,-6.824232 4.62612,-11.232556 0,-4.404292 -1.544729,-8.147133 -4.62612,-11.232557 -3.085423,-3.08139 -6.828264,-4.626119 -11.232556,-4.626119 -4.408324,0 -8.151165,1.544729 -11.232556,4.626119 z m 0,118.932001 c -3.085424,3.08542 -4.626119,6.82826 -4.626119,11.23255 0,4.40833 1.540695,8.15117 4.626119,11.23256 3.081391,3.08542 6.824232,4.62612 11.232556,4.62612 4.404292,0 8.147133,-1.5407 11.232556,-4.62612 3.081391,-3.07736 4.62612,-6.82423 4.62612,-11.23256 0,-4.40429 -1.544729,-8.14713 -4.62612,-11.23255 -3.085423,-3.08139 -6.828264,-4.62612 -11.232556,-4.62612 -4.408324,0 -8.151165,1.54473 -11.232556,4.62612 z m 1.851254,-98.318143 c -2.55707,-2.553037 -3.831572,-5.682826 -3.831572,-9.381301 0,-3.698476 1.274502,-6.824232 3.831572,-9.381302 2.553037,-2.553037 5.682827,-3.831572 9.381302,-3.831572 3.698476,0 6.824232,1.278535 9.381302,3.831572 2.553037,2.55707 3.835605,5.682826 3.835605,9.381302 0,3.698475 -1.278535,6.828264 -3.835605,9.381301 -2.55707,2.557071 -5.682826,3.835606 -9.381302,3.835606 -3.698475,0 -6.832298,-1.278535 -9.381302,-3.835606 z m 0,118.932003 c -2.55707,-2.55304 -3.831572,-5.68283 -3.831572,-9.38131 0,-3.69847 1.274502,-6.82423 3.831572,-9.38533 2.553037,-2.55304 5.682827,-3.83157 9.381302,-3.83157 3.698476,0 6.824232,1.27853 9.381302,3.83157 2.553037,2.55707 3.835605,5.68686 3.835605,9.38533 0,3.69848 -1.278535,6.82827 -3.835605,9.38131 -2.55707,2.55707 -5.682826,3.8356 -9.381302,3.8356 -3.698475,0 -6.832298,-1.27853 -9.381302,-3.8356 z M 63.567837,40.271845 c 0,-1.589094 0.528354,-2.907961 1.585061,-3.964669 0,-1.411631 -0.528354,-2.645801 -1.585061,-3.702508 l -2.375575,0.266193 c -1.944018,2.290877 -2.907961,4.847947 -2.907961,7.663145 v 0.794547 l 1.847221,1.847221 c 1.411632,-0.173429 2.553037,-1.141406 3.436315,-2.903929 z m 0,118.931995 c 0,-1.58909 0.528354,-2.91199 1.585061,-3.96467 0,-1.40759 -0.528354,-2.6458 -1.585061,-3.69847 l -2.375575,0.26216 c -1.944018,2.29088 -2.907961,4.84795 -2.907961,7.66314 v 0.79455 l 1.847221,1.84722 c 1.411632,-0.17343 2.553037,-1.14544 3.436315,-2.90393 z M 68.593246,46.878282 c -1.762523,-0.350891 -3.085424,-1.3229 -3.964668,-2.907961 L 62.515163,43.446 l -1.851254,0.790514 -0.528354,2.641768 c 1.935952,2.823264 4.31556,4.493023 7.138824,5.021376 l 2.375575,-1.056707 v -2.113414 z m 0,118.931998 c -1.762523,-0.35089 -3.085424,-1.3229 -3.964668,-2.90796 l -2.113415,-0.52835 -1.851254,0.79051 -0.528354,2.6458 c 1.935952,2.81923 4.31556,4.49302 7.138824,5.02138 l 2.375575,-1.05671 v -2.11342 z M 64.628578,31.814154 c 0.528353,1.585061 1.589094,2.468339 3.174155,2.641768 1.056707,-0.346858 1.847221,-0.528353 2.375574,-0.528353 0.528354,0 1.322901,0.177462 2.379608,0.528353 1.585061,-0.173429 2.641768,-1.056707 3.174155,-2.641768 l -1.056707,-2.379608 c -1.23417,-0.528354 -2.734533,-0.794547 -4.493023,-0.794547 -1.758489,0 -3.262886,0.26216 -4.493022,0.794547 z m 0,118.931996 c 0.528353,1.58506 1.589094,2.46834 3.174155,2.64177 1.056707,-0.34686 1.847221,-0.52835 2.375574,-0.52835 0.528354,0 1.322901,0.18149 2.379608,0.52835 1.585061,-0.17343 2.641768,-1.05671 3.174155,-2.64177 l -1.056707,-2.37961 c -1.23417,-0.52835 -2.734533,-0.79454 -4.493023,-0.79454 -1.758489,0 -3.262886,0.26619 -4.493022,0.79454 z M 66.479832,36.83553 c -1.060741,1.056707 -1.589094,2.290877 -1.589094,3.698476 0,1.415665 0.528353,2.641768 1.589094,3.698475 1.056707,1.06074 2.286843,1.585061 3.698475,1.585061 1.407599,0 2.645802,-0.524321 3.698476,-1.585061 1.06074,-1.056707 1.589094,-2.286844 1.589094,-3.698475 0,-1.407599 -0.528354,-2.641769 -1.589094,-3.698476 -1.056708,-1.056707 -2.290877,-1.589094 -3.698476,-1.589094 -1.411632,0 -2.641768,0.532387 -3.698475,1.589094 z m 0,118.932 c -1.060741,1.05671 -1.589094,2.29088 -1.589094,3.69847 0,1.41567 0.528353,2.64177 1.589094,3.69848 1.056707,1.06074 2.286843,1.58909 3.698475,1.58909 1.407599,0 2.645802,-0.52835 3.698476,-1.58909 1.06074,-1.05671 1.589094,-2.28281 1.589094,-3.69848 0,-1.40759 -0.528354,-2.64176 -1.589094,-3.69847 -1.056708,-1.06074 -2.290877,-1.58506 -3.698476,-1.58506 -1.411632,0 -2.641768,0.52432 -3.698475,1.58506 z M 70.178307,43.175774 c -1.762523,0 -2.641768,-0.879245 -2.641768,-2.641768 0,-1.75849 0.879245,-2.641769 2.641768,-2.641769 1.762523,0 2.645802,0.883279 2.645802,2.641769 -0.004,1.762523 -0.887312,2.641768 -2.645802,2.641768 z m 0,118.931996 c -1.762523,0 -2.641768,-0.87924 -2.641768,-2.64177 0,-1.75849 0.879245,-2.64176 2.641768,-2.64176 1.762523,0 2.645802,0.88327 2.645802,2.64176 -0.004,1.76253 -0.887312,2.64177 -2.645802,2.64177 z M 73.086269,51.899658 c 2.815197,-0.528353 5.194805,-2.198112 7.13479,-5.021376 L 79.696739,44.236514 77.845485,43.446 75.73207,43.970321 c -0.883278,1.589094 -2.206179,2.55707 -3.964669,2.907961 l -1.056707,1.847221 v 2.113415 z m 0,118.927962 c 2.815197,-0.52835 5.194805,-2.19811 7.13479,-5.02137 l -0.52432,-2.6458 -1.851254,-0.79052 -2.113415,0.52836 c -0.883278,1.58506 -2.206179,2.55707 -3.964669,2.90796 l -1.056707,1.84722 v 2.11341 z M 76.784744,40.271845 c 0.879245,1.762523 2.02065,2.7305 3.436315,2.903929 l 1.847221,-1.847221 v -0.794547 c 0,-2.815198 -0.967976,-5.372268 -2.907961,-7.663145 l -2.375575,-0.266193 c -1.056707,1.056707 -1.589094,2.290877 -1.589094,3.702508 1.060741,1.056708 1.589094,2.375575 1.589094,3.964669 z m 0,118.931995 c 0.879245,1.75849 2.02065,2.7305 3.436315,2.90393 l 1.847221,-1.84722 V 159.466 c 0,-2.81519 -0.967976,-5.37226 -2.907961,-7.66314 l -2.375575,-0.26216 c -1.056707,1.05671 -1.589094,2.29088 -1.589094,3.69847 1.060741,1.05268 1.589094,2.37558 1.589094,3.96467 z M 95.946638,29.301449 c -3.085424,3.085424 -4.626119,6.828265 -4.626119,11.232557 0,4.408324 1.540695,8.151165 4.626119,11.232556 3.081391,3.085424 6.824232,4.622086 11.232552,4.622086 4.40026,0 8.14714,-1.540696 11.23256,-4.622086 3.08139,-3.081391 4.62612,-6.824232 4.62612,-11.232556 0,-4.404292 -1.54473,-8.147133 -4.62612,-11.232557 -3.08542,-3.08139 -6.82826,-4.626119 -11.23256,-4.626119 -4.40832,0 -8.151161,1.544729 -11.232552,4.626119 z m 0,118.932001 c -3.085424,3.08542 -4.626119,6.82826 -4.626119,11.23255 0,4.40833 1.540695,8.15117 4.626119,11.23256 3.081391,3.08542 6.824232,4.62612 11.232552,4.62612 4.40026,0 8.14714,-1.5407 11.23256,-4.62612 3.08139,-3.07736 4.62612,-6.82423 4.62612,-11.23256 0,-4.40429 -1.54473,-8.14713 -4.62612,-11.23255 -3.08542,-3.08139 -6.82826,-4.62612 -11.23256,-4.62612 -4.40832,0 -8.151161,1.54473 -11.232552,4.62612 z m 1.851254,-98.318143 c -2.55707,-2.553037 -3.831572,-5.682826 -3.831572,-9.381301 0,-3.698476 1.274502,-6.824232 3.831572,-9.381302 2.549008,-2.553037 5.682828,-3.831572 9.381298,-3.831572 3.69848,0 6.82424,1.278535 9.38131,3.831572 2.55303,2.55707 3.83157,5.682826 3.83157,9.381302 0,3.698475 -1.27854,6.828264 -3.83157,9.381301 -2.55707,2.557071 -5.68283,3.835606 -9.38131,3.835606 -3.69847,0 -6.83229,-1.278535 -9.381298,-3.835606 z m 0,118.932003 c -2.55707,-2.55304 -3.831572,-5.68283 -3.831572,-9.38131 0,-3.69847 1.274502,-6.82423 3.831572,-9.38533 2.549008,-2.55304 5.682828,-3.83157 9.381298,-3.83157 3.69848,0 6.82424,1.27853 9.38131,3.83157 2.55303,2.55707 3.83157,5.68686 3.83157,9.38533 0,3.69848 -1.27854,6.82827 -3.83157,9.38131 -2.55707,2.55707 -5.68283,3.8356 -9.38131,3.8356 -3.69847,0 -6.83229,-1.27853 -9.381298,-3.8356 z M 100.57276,40.271845 c 0,-1.589094 0.52432,-2.907961 1.58506,-3.964669 0,-1.411631 -0.52836,-2.645801 -1.58506,-3.702508 l -2.379611,0.266193 c -1.939985,2.290877 -2.907961,4.847947 -2.907961,7.663145 v 0.794547 l 1.847221,1.847221 c 1.407598,-0.173429 2.55707,-1.141406 3.440351,-2.903929 z m 0,118.931995 c 0,-1.58909 0.52432,-2.91199 1.58506,-3.96467 0,-1.40759 -0.52836,-2.6458 -1.58506,-3.69847 l -2.379611,0.26216 c -1.939985,2.29088 -2.907961,4.84795 -2.907961,7.66314 v 0.79455 l 1.847221,1.84722 c 1.407598,-0.17343 2.55707,-1.14544 3.440351,-2.90393 z m 5.02137,-112.325558 c -1.76655,-0.350891 -3.08542,-1.3229 -3.96467,-2.907961 L 99.51605,43.446 l -1.851254,0.790514 -0.528354,2.641768 c 1.935952,2.823264 4.315558,4.493023 7.138828,5.021376 l 2.37557,-1.056707 v -2.113414 z m 0,118.931998 c -1.76655,-0.35089 -3.08542,-1.3229 -3.96467,-2.90796 l -2.11341,-0.52835 -1.851254,0.79051 -0.528354,2.6458 c 1.935952,2.81923 4.315558,4.49302 7.138828,5.02138 l 2.37557,-1.05671 v -2.11342 z M 101.62946,31.814154 c 0.52836,1.585061 1.5891,2.468339 3.17416,2.641768 1.05671,-0.346858 1.84722,-0.528353 2.37961,-0.528353 0.53238,0 1.3229,0.177462 2.37557,0.528353 1.5891,-0.173429 2.6458,-1.056707 3.17416,-2.641768 l -1.06074,-2.379608 c -1.23417,-0.528354 -2.73454,-0.794547 -4.49303,-0.794547 -1.76655,0 -3.26288,0.26216 -4.49302,0.794547 z m 0,118.931996 c 0.52836,1.58506 1.5891,2.46834 3.17416,2.64177 1.05671,-0.34686 1.84722,-0.52835 2.37961,-0.52835 0.53238,0 1.3229,0.18149 2.37557,0.52835 1.5891,-0.17343 2.6458,-1.05671 3.17416,-2.64177 l -1.06074,-2.37961 c -1.23417,-0.52835 -2.73454,-0.79454 -4.49303,-0.79454 -1.76655,0 -3.26288,0.26619 -4.49302,0.79454 z m 1.85126,-113.91062 c -1.05671,1.056707 -1.5891,2.290877 -1.5891,3.698476 0,1.415665 0.53239,2.641768 1.5891,3.698475 1.05671,1.06074 2.28684,1.585061 3.69847,1.585061 1.4076,0 2.64177,-0.524321 3.69848,-1.585061 1.06074,-1.056707 1.58909,-2.286844 1.58909,-3.698475 0,-1.407599 -0.52835,-2.641769 -1.58909,-3.698476 -1.05671,-1.056707 -2.29088,-1.589094 -3.69848,-1.589094 -1.41163,0 -2.6458,0.532387 -3.69847,1.589094 z m 0,118.932 c -1.05671,1.05671 -1.5891,2.29088 -1.5891,3.69847 0,1.41567 0.53239,2.64177 1.5891,3.69848 1.05671,1.06074 2.28684,1.58909 3.69847,1.58909 1.4076,0 2.64177,-0.52835 3.69848,-1.58909 1.06074,-1.05671 1.58909,-2.28281 1.58909,-3.69848 0,-1.40759 -0.52835,-2.64176 -1.58909,-3.69847 -1.05671,-1.06074 -2.29088,-1.58506 -3.69848,-1.58506 -1.41163,0 -2.6458,0.52432 -3.69847,1.58506 z m 3.69847,-112.591756 c -1.76655,0 -2.6458,-0.879245 -2.6458,-2.641768 0,-1.75849 0.87925,-2.641769 2.6458,-2.641769 1.75849,0 2.64177,0.883279 2.64177,2.641769 0,1.762523 -0.88328,2.641768 -2.64177,2.641768 z m 0,118.931996 c -1.76655,0 -2.6458,-0.87924 -2.6458,-2.64177 0,-1.75849 0.87925,-2.64176 2.6458,-2.64176 1.75849,0 2.64177,0.88327 2.64177,2.64176 0,1.76253 -0.88328,2.64177 -2.64177,2.64177 z m 2.90797,-110.208112 c 2.81519,-0.528353 5.1948,-2.198112 7.13882,-5.021376 l -0.52835,-2.641768 -1.85126,-0.790514 -2.10938,0.524321 c -0.88731,1.589094 -2.20618,2.55707 -3.96467,2.907961 l -1.05671,1.847221 v 2.113415 z m 0,118.927962 c 2.81519,-0.52835 5.1948,-2.19811 7.13882,-5.02137 l -0.52835,-2.6458 -1.85126,-0.79052 -2.10938,0.52836 c -0.88731,1.58506 -2.20618,2.55707 -3.96467,2.90796 l -1.05671,1.84722 v 2.11341 z m 3.69847,-130.555775 c 0.87925,1.762523 2.02468,2.7305 3.43632,2.903929 l 1.84722,-1.847221 v -0.794547 c 0,-2.815198 -0.96798,-5.372268 -2.90796,-7.663145 l -2.37961,-0.266193 c -1.05671,1.056707 -1.58506,2.290877 -1.58506,3.702508 1.06074,1.056708 1.58909,2.375575 1.58909,3.964669 z m 0,118.931995 c 0.87925,1.75849 2.02468,2.7305 3.43632,2.90393 l 1.84722,-1.84722 V 159.466 c 0,-2.81519 -0.96798,-5.37226 -2.90796,-7.66314 l -2.37961,-0.26216 c -1.05671,1.05671 -1.58506,2.29088 -1.58506,3.69847 1.06074,1.05268 1.58909,2.37558 1.58909,3.96467 z" /></svg>
