<?xml version="1.0" encoding="UTF-8" standalone="no"?>
<!-- Generator: Adobe Illustrator 16.0.0, SVG Export Plug-In . SVG Version: 6.00 Build 0)  -->

<svg
   version="1.1"
   id="图层_1"
   x="0px"
   y="0px"
   width="139.76401"
   height="200"
   viewBox="0 0 139.764 200"
   enable-background="new 0 0 714 341"
   xml:space="preserve"
   sodipodi:docname="sou-8.svg"
   inkscape:version="1.2.2 (b0a8486, 2022-12-01)"
   xmlns:inkscape="http://www.inkscape.org/namespaces/inkscape"
   xmlns:sodipodi="http://sodipodi.sourceforge.net/DTD/sodipodi-0.dtd"
   xmlns="http://www.w3.org/2000/svg"
   xmlns:svg="http://www.w3.org/2000/svg"
   xmlns:rdf="http://www.w3.org/1999/02/22-rdf-syntax-ns#"
   xmlns:cc="http://creativecommons.org/ns#"
   xmlns:dc="http://purl.org/dc/elements/1.1/"><metadata
   id="metadata621"><rdf:RDF><cc:Work
       rdf:about=""><dc:format>image/svg+xml</dc:format><dc:type
         rdf:resource="http://purl.org/dc/dcmitype/StillImage" /><dc:title /></cc:Work></rdf:RDF></metadata><defs
   id="defs619" /><sodipodi:namedview
   pagecolor="#ffffff"
   bordercolor="#666666"
   borderopacity="1"
   objecttolerance="10"
   gridtolerance="10"
   guidetolerance="10"
   inkscape:pageopacity="0"
   inkscape:pageshadow="2"
   inkscape:window-width="1860"
   inkscape:window-height="1016"
   id="namedview617"
   showgrid="false"
   inkscape:zoom="1"
   inkscape:cx="-15"
   inkscape:cy="153.5"
   inkscape:window-x="1980"
   inkscape:window-y="27"
   inkscape:window-maximized="1"
   inkscape:current-layer="图层_1"
   inkscape:showpageshadow="2"
   inkscape:pagecheckerboard="0"
   inkscape:deskcolor="#d1d1d1" />



















































































































































































































































































































<path
   id="path2"
   d="m 139.76365,14.45915 v 171.08574 c 0,4.01307 -1.4076,7.42922 -4.21473,10.24038 C 132.73776,198.5924 129.32161,200 125.30854,200 H 14.459143 C 10.442042,200 7.025893,198.5924 4.214729,195.78527 1.403565,192.97411 0,189.55796 0,185.54489 V 14.45915 C 0,10.44608 1.403565,7.02993 4.214729,4.21876 7.025893,1.4076 10.438009,0 14.459143,0 H 125.30451 c 4.01307,0 7.42921,1.4076 10.24038,4.21876 2.81116,2.81117 4.21876,6.22329 4.21876,10.24039 z"
   inkscape:connector-curvature="0"
   style="fill:#ffffff;stroke-width:4.03323"
   sodipodi:nodetypes="sscsscsssssss" /><path
   style="fill:#00082d;stroke-width:4.03323"
   inkscape:connector-curvature="0"
   id="path166"
   d="m 30.124268,42.167465 c 0,-5.622328 2.008551,-10.442042 6.025652,-14.459143 4.0171,-4.013068 8.832782,-6.025651 14.459143,-6.025651 4.335726,0 8.272162,1.246269 11.809308,3.734774 3.52908,2.496572 6.021618,5.747358 7.469549,9.760426 1.447931,-4.013068 3.936437,-7.263854 7.469549,-9.760426 3.533113,-2.488505 7.473583,-3.734774 11.809309,-3.734774 5.622328,0 10.442042,2.012583 14.459142,6.025651 4.01307,4.017101 6.02565,8.836815 6.02565,14.459143 0,4.335727 -1.24627,8.272163 -3.73477,11.805276 -2.49657,3.533112 -5.74736,6.025651 -9.760428,7.469549 4.013068,1.443897 7.263858,3.940469 9.760428,7.469549 2.4885,3.533112 3.73477,7.469549 3.73477,11.809308 0,4.335726 -1.24627,8.276196 -3.73477,11.809309 -2.49657,3.533112 -5.74736,6.021618 -9.760428,7.469544 4.013068,1.4439 7.263858,3.93644 9.760428,7.46955 2.4885,3.53715 3.73477,7.47359 3.73477,11.80931 0,4.33976 -1.24627,8.2762 -3.73477,11.80931 -2.49657,3.53311 -5.74736,6.02565 -9.760428,7.46955 4.013068,1.4439 7.263858,3.94047 9.760428,7.47358 2.4885,3.53311 3.73477,7.46955 3.73477,11.80528 0,5.62636 -2.01258,10.44607 -6.02565,14.45511 -4.0171,4.01306 -8.836814,6.02565 -14.459142,6.02565 -4.335726,0 -8.276196,-1.24627 -11.809309,-3.73478 -3.533112,-2.4885 -6.021618,-5.73929 -7.469549,-9.76042 -1.443897,4.02113 -3.936436,7.27192 -7.469549,9.76042 -3.533112,2.48851 -7.473582,3.73478 -11.809308,3.73478 -5.626361,0 -10.442043,-2.01259 -14.459143,-6.02565 -4.017101,-4.01307 -6.025652,-8.82875 -6.025652,-14.45511 0,-4.33976 1.242236,-8.27217 3.734775,-11.80528 2.488505,-3.53311 5.743325,-6.02565 9.756392,-7.47358 -4.0171,-1.4439 -7.267887,-3.93644 -9.756392,-7.46955 -2.492539,-3.52908 -3.734775,-7.46955 -3.734775,-11.80931 0,-4.33572 1.242236,-8.27216 3.734775,-11.80931 2.488505,-3.52908 5.743325,-6.02161 9.756392,-7.46955 -4.0171,-1.447926 -7.267887,-3.936432 -9.756392,-7.469544 -2.492539,-3.533113 -3.734775,-7.473583 -3.734775,-11.809309 0,-4.339759 1.242236,-8.272162 3.734775,-11.809308 2.488505,-3.52908 5.743325,-6.025652 9.756392,-7.469549 -4.0171,-1.443898 -7.267887,-3.936437 -9.756392,-7.469549 -2.492539,-3.52908 -3.734775,-7.469549 -3.734775,-11.805276 z M 38.678757,30.23716 c -3.291119,3.295152 -4.936678,7.27192 -4.936678,11.930305 0,4.662418 1.645559,8.635154 4.936678,11.926273 3.291119,3.295152 7.267888,4.940711 11.930306,4.940711 4.658385,0 8.635153,-1.645559 11.926272,-4.940711 3.291119,-3.291119 4.940712,-7.263855 4.940712,-11.926273 0,-4.658385 -1.649593,-8.635153 -4.940712,-11.930305 -3.291119,-3.291119 -7.267887,-4.940712 -11.926272,-4.940712 -4.662418,0.004 -8.639187,1.649593 -11.930306,4.940712 z m 0,38.557715 c -3.291119,3.295152 -4.936678,7.27192 -4.936678,11.930305 0,4.662419 1.645559,8.635154 4.936678,11.926273 3.291119,3.295152 7.267888,4.940711 11.930306,4.940711 4.658385,0 8.635153,-1.645559 11.926272,-4.940711 3.291119,-3.291119 4.940712,-7.263854 4.940712,-11.926273 0,-4.658385 -1.649593,-8.635153 -4.940712,-11.930305 -3.291119,-3.287086 -7.267887,-4.940712 -11.926272,-4.940712 -4.662418,0 -8.639187,1.649593 -11.930306,4.940712 z m 0,38.553685 c -3.291119,3.29112 -4.936678,7.27192 -4.936678,11.92627 0,4.66242 1.645559,8.63919 4.936678,11.9303 3.291119,3.29112 7.267888,4.93668 11.930306,4.93668 4.658385,0 8.635153,-1.64556 11.926272,-4.93668 3.291119,-3.29111 4.940712,-7.26788 4.940712,-11.9303 0,-4.65435 -1.649593,-8.63515 -4.940712,-11.92627 -3.291119,-3.29112 -7.267887,-4.94071 -11.926272,-4.94071 -4.662418,0 -8.639187,1.65362 -11.930306,4.94071 z m 0,38.55771 c -3.291119,3.29515 -4.936678,7.27192 -4.936678,11.93031 0,4.65838 1.645559,8.63918 4.936678,11.9303 3.291119,3.29112 7.267888,4.94071 11.930306,4.94071 4.658385,0 8.635153,-1.64959 11.926272,-4.94071 3.291119,-3.29112 4.940712,-7.26788 4.940712,-11.9303 0,-4.65839 -1.649593,-8.63516 -4.940712,-11.93031 -3.291119,-3.29112 -7.267887,-4.94071 -11.926272,-4.94071 -4.662418,-0.004 -8.639187,1.64959 -11.930306,4.94071 z m 2.653868,-94.458334 c -2.653868,-2.653868 -3.976768,-5.743325 -3.976768,-9.276438 0,-3.533112 1.3229,-6.626603 3.976768,-9.280471 2.649835,-2.649834 5.743325,-3.972735 9.276438,-3.972735 3.529079,0 6.626603,1.322901 9.276438,3.972735 2.649834,2.653868 3.976768,5.747359 3.976768,9.280471 0,3.533113 -1.326934,6.626604 -3.976768,9.276438 -2.649835,2.649835 -5.747359,3.972735 -9.276438,3.972735 -3.537146,0 -6.626603,-1.326933 -9.276438,-3.972735 z m 0,38.553682 c -2.653868,-2.649835 -3.976768,-5.743325 -3.976768,-9.276438 0,-3.529079 1.3229,-6.626603 3.976768,-9.276437 2.649835,-2.649835 5.743325,-3.976769 9.276438,-3.976769 3.529079,0 6.626603,1.326934 9.276438,3.976769 2.649834,2.649834 3.976768,5.747358 3.976768,9.276437 0,3.533113 -1.326934,6.626603 -3.976768,9.276438 -2.649835,2.649835 -5.747359,3.972735 -9.276438,3.972735 -3.537146,0 -6.626603,-1.326934 -9.276438,-3.972735 z m 0,38.553682 c -2.653868,-2.64983 -3.976768,-5.74332 -3.976768,-9.27644 0,-3.52908 1.3229,-6.6266 3.976768,-9.27644 2.649835,-2.64983 5.743325,-3.97676 9.276438,-3.97676 3.529079,0 6.626603,1.32693 9.276438,3.97676 2.649834,2.64984 3.976768,5.74333 3.976768,9.27644 0,3.53312 -1.326934,6.62661 -3.976768,9.27644 -2.649835,2.65387 -5.747359,3.97677 -9.276438,3.97677 -3.537146,0 -6.626603,-1.32694 -9.276438,-3.97677 z m 0,38.55368 c -2.653868,-2.64983 -3.976768,-5.73929 -3.976768,-9.27644 0,-3.53311 1.3229,-6.6266 3.976768,-9.27643 2.649835,-2.64984 5.743325,-3.97677 9.276438,-3.97677 3.529079,0 6.626603,1.32693 9.276438,3.97677 2.649834,2.64983 3.976768,5.74332 3.976768,9.27643 0,3.53312 -1.326934,6.62661 -3.976768,9.27644 -2.649835,2.65387 -5.747359,3.97677 -9.276438,3.97677 -3.537146,0 -6.626603,-1.3229 -9.276438,-3.97677 z M 41.449589,44.575306 c 1.601194,-0.318626 2.649834,-1.121239 3.129789,-2.407841 0,-0.963943 0.201662,-1.847221 0.604985,-2.653868 0.39929,-0.802613 0.677584,-1.685891 0.842946,-2.649834 l -1.447931,-1.927886 h -2.165846 c -1.77059,2.089215 -2.653868,4.501089 -2.653868,7.227555 v 0.963943 z m 0,38.557715 c 1.601194,-0.322659 2.649834,-1.121239 3.129789,-2.411874 0,-0.963943 0.201662,-1.847221 0.604985,-2.649835 0.39929,-0.802613 0.677584,-1.685891 0.842946,-2.649834 l -1.447931,-1.927886 h -2.165846 c -1.77059,2.089215 -2.653868,4.501089 -2.653868,7.227555 v 0.963943 z m 0,38.553679 c 1.601194,-0.32266 2.649834,-1.12124 3.129789,-2.41187 0,-0.96394 0.201662,-1.84319 0.604985,-2.64984 0.39929,-0.80261 0.677584,-1.68589 0.842946,-2.65386 l -1.447931,-1.92789 h -2.165846 c -1.77059,2.08922 -2.653868,4.49706 -2.653868,7.22756 v 0.96394 z m 0,38.55368 c 1.601194,-0.31862 2.649834,-1.12123 3.129789,-2.40784 0,-0.96394 0.201662,-1.84722 0.604985,-2.64983 0.39929,-0.80261 0.677584,-1.68589 0.842946,-2.64984 l -1.447931,-1.92788 h -2.165846 c -1.77059,2.09325 -2.653868,4.50109 -2.653868,7.22755 v 0.96395 z M 48.919138,47.951122 c -1.286602,-0.483988 -2.407841,-1.282568 -3.371784,-2.40784 l -1.447931,-0.725982 -2.169879,0.725982 -0.721949,2.16988 c 1.927886,2.730499 4.255061,4.420424 6.985561,5.057675 L 50.121041,51.5649 v -2.407841 z m 0,38.553682 c -1.286602,-0.483988 -2.407841,-1.282568 -3.371784,-2.40784 l -1.447931,-0.721949 -2.169879,0.721949 -0.721949,2.16988 c 1.927886,2.734532 4.255061,4.420424 6.985561,5.061708 l 1.927885,-1.205937 v -2.40784 z m 0,38.557716 c -1.286602,-0.47996 -2.407841,-1.28257 -3.371784,-2.41187 l -1.447931,-0.72195 -2.169879,0.72195 -0.721949,2.16988 c 1.927886,2.73453 4.255061,4.42042 6.985561,5.05767 l 1.927885,-1.2019 v -2.41188 z m 0,38.55368 c -1.286602,-0.48399 -2.407841,-1.28257 -3.371784,-2.41187 l -1.447931,-0.72195 -2.169879,0.72195 -0.721949,2.16988 c 1.927886,2.73453 4.255061,4.42042 6.985561,5.06171 l 1.927885,-1.20594 v -2.41187 z m 3.613777,-127.232392 1.685892,-0.241994 1.443898,-1.927886 -0.721949,-1.931919 c -1.286602,-0.637251 -2.730499,-0.963943 -4.335726,-0.963943 -1.609261,0 -3.053158,0.326692 -4.335727,0.963943 l -0.721949,1.931919 1.443898,1.927886 1.685892,0.241994 c 0.318625,-0.157296 0.963943,-0.241994 1.927886,-0.241994 0.963942,0 1.60926,0.0847 1.927885,0.241994 z m 0,38.557715 1.685892,-0.241994 1.443898,-1.927886 -0.721949,-1.927885 c -1.286602,-0.641285 -2.730499,-0.963943 -4.335726,-0.963943 -1.609261,0 -3.053158,0.326692 -4.335727,0.963943 l -0.721949,1.927885 1.443898,1.927886 1.685892,0.241994 c 0.318625,-0.161329 0.963943,-0.241994 1.927886,-0.241994 0.963942,0 1.60926,0.08066 1.927885,0.241994 z m 0,38.553677 1.685892,-0.24199 1.443898,-1.93192 -0.721949,-1.92788 c -1.286602,-0.64129 -2.730499,-0.96395 -4.335726,-0.96395 -1.609261,0 -3.053158,0.32266 -4.335727,0.96395 l -0.721949,1.92788 1.443898,1.93192 1.685892,0.24199 c 0.318625,-0.15729 0.963943,-0.24199 1.927886,-0.24199 0.963942,0 1.60926,0.0847 1.927885,0.24199 z m 0,38.55369 1.685892,-0.242 1.443898,-1.92788 -0.721949,-1.92789 c -1.286602,-0.64128 -2.730499,-0.96394 -4.335726,-0.96394 -1.609261,0 -3.053158,0.32266 -4.335727,0.96394 l -0.721949,1.92789 1.443898,1.92788 1.685892,0.242 c 0.318625,-0.1573 0.963943,-0.242 1.927886,-0.242 0.963942,0 1.60926,0.0847 1.927885,0.242 z M 48.076192,39.638628 c -0.721949,0.721948 -1.08494,1.564894 -1.08494,2.528837 0,0.963943 0.362991,1.806889 1.08494,2.528838 0.721949,0.721949 1.568928,1.08494 2.528838,1.08494 0.959909,0 1.806888,-0.362991 2.528837,-1.08494 0.721949,-0.721949 1.08494,-1.564895 1.08494,-2.528838 0,-0.963943 -0.358958,-1.806889 -1.08494,-2.528837 -0.725982,-0.721949 -1.568928,-1.08494 -2.528837,-1.08494 -0.95991,0 -1.802856,0.362991 -2.528838,1.08494 z m 0,38.553682 c -0.721949,0.721948 -1.08494,1.568927 -1.08494,2.528837 0,0.95991 0.362991,1.806889 1.08494,2.528838 0.721949,0.721949 1.568928,1.08494 2.528838,1.08494 0.959909,0 1.806888,-0.362991 2.528837,-1.08494 0.721949,-0.721949 1.08494,-1.568928 1.08494,-2.528838 0,-0.95991 -0.358958,-1.806889 -1.08494,-2.528837 -0.725982,-0.721949 -1.568928,-1.08494 -2.528837,-1.08494 -0.95991,0 -1.802856,0.362991 -2.528838,1.08494 z m 0,38.55368 c -0.721949,0.72195 -1.08494,1.56893 -1.08494,2.52884 0,0.96394 0.362991,1.80689 1.08494,2.52884 0.721949,0.72598 1.568928,1.08494 2.528838,1.08494 0.959909,0 1.806888,-0.35896 2.528837,-1.08494 0.721949,-0.72195 1.08494,-1.5649 1.08494,-2.52884 0,-0.96394 -0.358958,-1.80689 -1.08494,-2.52884 -0.725982,-0.72195 -1.568928,-1.08494 -2.528837,-1.08494 -0.95991,0 -1.802856,0.36299 -2.528838,1.08494 z m 0,38.55772 c -0.721949,0.72598 -1.08494,1.56489 -1.08494,2.52883 0,0.96395 0.362991,1.80689 1.08494,2.52884 0.721949,0.72195 1.568928,1.08494 2.528838,1.08494 0.959909,0 1.806888,-0.35896 2.528837,-1.08494 0.721949,-0.72598 1.08494,-1.56489 1.08494,-2.52884 0,-0.96394 -0.358958,-1.80688 -1.08494,-2.52883 -0.721949,-0.72195 -1.568928,-1.08494 -2.528837,-1.08494 -0.95991,0 -1.802856,0.35895 -2.528838,1.08494 z M 50.609063,43.373402 c -0.806647,0 -1.205937,-0.39929 -1.205937,-1.201904 0,-0.802613 0.39929,-1.205936 1.205937,-1.205936 0.802613,0 1.201903,0.403323 1.201903,1.205936 0,0.802614 -0.39929,1.201904 -1.201903,1.201904 z m 0,38.553682 c -0.806647,0 -1.205937,-0.39929 -1.205937,-1.201904 0,-0.802613 0.39929,-1.205937 1.205937,-1.205937 0.802613,0 1.201903,0.403324 1.201903,1.205937 0,0.802614 -0.39929,1.201904 -1.201903,1.201904 z m 0,38.557716 c -0.806647,0 -1.205937,-0.40332 -1.205937,-1.20594 0,-0.80261 0.39929,-1.2019 1.205937,-1.2019 0.802613,0 1.201903,0.40332 1.201903,1.2019 0,0.80262 -0.39929,1.20594 -1.201903,1.20594 z m 0,38.55368 c -0.806647,0 -1.205937,-0.39929 -1.205937,-1.20594 0,-0.80261 0.39929,-1.20593 1.205937,-1.20593 0.802613,0 1.201903,0.40332 1.201903,1.20593 0,0.80665 -0.39929,1.20594 -1.201903,1.20594 z M 57.114669,44.8173 c -1.927886,0.806647 -3.936436,2.254578 -6.021618,4.339759 V 51.5649 l 1.927886,1.205937 c 2.730499,-0.641284 5.061708,-2.327176 6.989594,-5.057675 l -0.721949,-2.16988 z m 0,38.557715 c -1.927886,0.806647 -3.936436,2.250544 -6.021618,4.33976 v 2.40784 l 1.927886,1.205937 c 2.730499,-0.641284 5.061708,-2.327176 6.989594,-5.061708 l -0.721949,-2.16988 z m 0,38.553685 c -1.927886,0.80664 -3.936436,2.25457 -6.021618,4.33976 v 2.41187 l 1.927886,1.2019 c 2.730499,-0.64128 5.061708,-2.32717 6.989594,-5.05767 l -0.721949,-2.16988 z m 0,38.55368 c -1.927886,0.80665 -3.936436,2.25054 -6.021618,4.33573 v 2.41187 l 1.927886,1.20594 c 2.730499,-0.64129 5.061708,-2.32718 6.989594,-5.06171 l -0.721949,-2.16988 z M 55.186783,36.867796 c 0.157296,0.963943 0.439623,1.847221 0.842946,2.649835 0.39929,0.806646 0.600952,1.685891 0.600952,2.653867 l 0.967976,1.685892 2.165847,0.721949 1.685891,-1.443898 v -0.963943 c 0,-2.730499 -0.883278,-5.138339 -2.649834,-7.227555 h -2.16988 z m 0,38.553682 c 0.157296,0.963943 0.439623,1.847221 0.842946,2.649834 0.39929,0.806647 0.600952,1.685892 0.600952,2.649835 l 0.967976,1.685892 2.165847,0.725982 1.685891,-1.447931 v -0.963943 c 0,-2.730499 -0.883278,-5.13834 -2.649834,-7.227555 h -2.16988 z m 0,38.553682 c 0.157296,0.96394 0.439623,1.84722 0.842946,2.65387 0.39929,0.80664 0.600952,1.68589 0.600952,2.64983 l 0.967976,1.68589 2.165847,0.72195 1.685891,-1.44389 v -0.96395 c 0,-2.7305 -0.883278,-5.13834 -2.649834,-7.22755 h -2.16988 z m 0,38.55771 c 0.157296,0.96395 0.439623,1.84723 0.842946,2.64984 0.39929,0.80665 0.600952,1.68589 0.600952,2.64983 l 0.967976,1.6859 2.165847,0.72194 1.685891,-1.44389 v -0.96395 c 0,-2.7305 -0.883278,-5.13834 -2.649834,-7.22755 h -2.16988 z M 57.598657,61.446323 C 63.53961,63.7009 67.633343,67.794633 69.883887,73.735586 72.134432,67.794633 76.228164,63.7009 82.173151,61.446323 76.228164,59.199812 72.134432,55.102046 69.883887,49.157059 67.633343,55.098013 63.535577,59.195778 57.598657,61.446323 Z M 82.173151,100 C 76.228164,97.74946 72.134432,93.655728 69.883887,87.710741 67.633343,93.655728 63.535577,97.74946 57.598657,100 c 5.940953,2.25055 10.034686,6.34831 12.28523,12.28927 C 72.134432,106.34831 76.228164,102.25055 82.173151,100 Z m -24.574494,38.55369 c 5.940953,2.25054 10.034686,6.34831 12.28523,12.28926 2.250545,-5.94499 6.344277,-10.03872 12.289264,-12.28926 -5.944987,-2.24651 -10.038719,-6.34428 -12.289264,-12.28927 -2.250544,5.94499 -6.34831,10.04276 -12.28523,12.28927 z M 77.236472,30.23716 c -3.295152,3.295152 -4.940711,7.27192 -4.940711,11.930305 0,4.662418 1.645559,8.635154 4.940711,11.926273 3.291119,3.295152 7.263854,4.940711 11.926273,4.940711 4.658385,0 8.635153,-1.645559 11.930305,-4.940711 3.29112,-3.291119 4.94071,-7.263855 4.94071,-11.926273 0,-4.658385 -1.64959,-8.635153 -4.94071,-11.930305 -3.295152,-3.291119 -7.27192,-4.940712 -11.930305,-4.940712 -4.662419,0.004 -8.635154,1.649593 -11.926273,4.940712 z m 0,38.557715 c -3.295152,3.295152 -4.940711,7.27192 -4.940711,11.930305 0,4.662419 1.645559,8.635154 4.940711,11.926273 3.291119,3.295152 7.263854,4.940711 11.926273,4.940711 4.658385,0 8.635153,-1.645559 11.930305,-4.940711 3.29112,-3.291119 4.94071,-7.263854 4.94071,-11.926273 0,-4.658385 -1.64959,-8.635153 -4.94071,-11.930305 -3.295152,-3.287086 -7.27192,-4.940712 -11.930305,-4.940712 -4.662419,0 -8.635154,1.649593 -11.926273,4.940712 z m 0,38.553685 c -3.295152,3.29112 -4.940711,7.27192 -4.940711,11.92627 0,4.66242 1.645559,8.63919 4.940711,11.9303 3.291119,3.29112 7.263854,4.93668 11.926273,4.93668 4.658385,0 8.635153,-1.64556 11.930305,-4.93668 3.29112,-3.29111 4.94071,-7.26788 4.94071,-11.9303 0,-4.65435 -1.64959,-8.63515 -4.94071,-11.92627 -3.295152,-3.29112 -7.27192,-4.94071 -11.930305,-4.94071 -4.662419,0 -8.635154,1.65362 -11.926273,4.94071 z m 0,38.55771 c -3.295152,3.29515 -4.940711,7.27192 -4.940711,11.93031 0,4.65838 1.645559,8.63918 4.940711,11.9303 3.291119,3.29112 7.263854,4.94071 11.926273,4.94071 4.658385,0 8.635153,-1.64959 11.930305,-4.94071 3.29112,-3.29112 4.94071,-7.26788 4.94071,-11.9303 0,-4.65839 -1.64959,-8.63516 -4.94071,-11.93031 -3.295152,-3.29112 -7.27192,-4.94071 -11.930305,-4.94071 -4.662419,-0.004 -8.635154,1.64959 -11.926273,4.94071 z m 2.649835,-94.458334 c -2.649835,-2.653868 -3.972735,-5.743325 -3.972735,-9.276438 0,-3.533112 1.326934,-6.626603 3.972735,-9.280471 2.649835,-2.649834 5.743325,-3.972735 9.276438,-3.972735 3.529079,0 6.626603,1.322901 9.276437,3.972735 2.649838,2.653868 3.976768,5.747359 3.976768,9.280471 0,3.533113 -1.32693,6.626604 -3.976768,9.276438 -2.649834,2.649835 -5.747358,3.972735 -9.276437,3.972735 -3.537146,0 -6.626603,-1.326933 -9.276438,-3.972735 z m 0,38.553682 c -2.649835,-2.649835 -3.972735,-5.743325 -3.972735,-9.276438 0,-3.529079 1.326934,-6.626603 3.972735,-9.276437 2.649835,-2.649835 5.743325,-3.976769 9.276438,-3.976769 3.529079,0 6.626603,1.326934 9.276437,3.976769 2.649838,2.649834 3.976768,5.747358 3.976768,9.276437 0,3.533113 -1.32693,6.626603 -3.976768,9.276438 -2.649834,2.649835 -5.747358,3.972735 -9.276437,3.972735 -3.537146,0 -6.626603,-1.326934 -9.276438,-3.972735 z m 0,38.553682 c -2.649835,-2.64983 -3.972735,-5.74332 -3.972735,-9.27644 0,-3.52908 1.326934,-6.6266 3.972735,-9.27644 2.649835,-2.64983 5.743325,-3.97676 9.276438,-3.97676 3.529079,0 6.626603,1.32693 9.276437,3.97676 2.649838,2.64984 3.976768,5.74333 3.976768,9.27644 0,3.53312 -1.32693,6.62661 -3.976768,9.27644 -2.649834,2.65387 -5.747358,3.97677 -9.276437,3.97677 -3.537146,0 -6.626603,-1.32694 -9.276438,-3.97677 z m 0,38.55368 c -2.649835,-2.64983 -3.972735,-5.73929 -3.972735,-9.27644 0,-3.53311 1.326934,-6.6266 3.972735,-9.27643 2.649835,-2.64984 5.743325,-3.97677 9.276438,-3.97677 3.529079,0 6.626603,1.32693 9.276437,3.97677 2.649838,2.64983 3.976768,5.74332 3.976768,9.27643 0,3.53312 -1.32693,6.62661 -3.976768,9.27644 -2.649834,2.65387 -5.747358,3.97677 -9.276437,3.97677 -3.537146,0 -6.626603,-1.3229 -9.276438,-3.97677 z M 80.007304,44.575306 c 1.601194,-0.318626 2.649835,-1.121239 3.133823,-2.407841 0,-0.963943 0.197628,-1.847221 0.600951,-2.653868 0.399291,-0.802613 0.681617,-1.685891 0.842946,-2.649834 l -1.443897,-1.927886 h -2.16988 c -1.77059,2.089215 -2.649835,4.501089 -2.649835,7.227555 v 0.963943 z m 0,38.557715 c 1.601194,-0.322659 2.649835,-1.121239 3.133823,-2.411874 0,-0.963943 0.197628,-1.847221 0.600951,-2.649835 0.399291,-0.802613 0.681617,-1.685891 0.842946,-2.649834 l -1.443897,-1.927886 h -2.16988 c -1.77059,2.089215 -2.649835,4.501089 -2.649835,7.227555 v 0.963943 z m 0,38.553679 c 1.601194,-0.32266 2.649835,-1.12124 3.133823,-2.41187 0,-0.96394 0.197628,-1.84319 0.600951,-2.64984 0.399291,-0.80261 0.681617,-1.68589 0.842946,-2.65386 l -1.443897,-1.92789 h -2.16988 c -1.77059,2.08922 -2.649835,4.49706 -2.649835,7.22756 v 0.96394 z m 0,38.55368 c 1.601194,-0.31862 2.649835,-1.12123 3.133823,-2.40784 0,-0.96394 0.197628,-1.84722 0.600951,-2.64983 0.399291,-0.80261 0.681617,-1.68589 0.842946,-2.64984 l -1.443897,-1.92788 h -2.16988 c -1.77059,2.09325 -2.649835,4.50109 -2.649835,7.22755 v 0.96395 z M 87.476853,47.951122 c -1.286602,-0.483988 -2.411874,-1.282568 -3.371784,-2.40784 l -1.443897,-0.725982 -2.16988,0.725982 -0.721949,2.16988 c 1.927886,2.730499 4.255062,4.420424 6.989594,5.057675 L 88.686823,51.5649 v -2.407841 z m 0,38.553682 c -1.286602,-0.483988 -2.411874,-1.282568 -3.371784,-2.40784 l -1.443897,-0.721949 -2.16988,0.721949 -0.721949,2.16988 c 1.927886,2.734532 4.255062,4.420424 6.989594,5.061708 l 1.927886,-1.205937 v -2.40784 z m 0,38.557716 c -1.286602,-0.47996 -2.411874,-1.28257 -3.371784,-2.41187 l -1.443897,-0.72195 -2.16988,0.72195 -0.721949,2.16988 c 1.927886,2.73453 4.255062,4.42042 6.989594,5.05767 l 1.927886,-1.2019 v -2.41188 z m 0,38.55368 c -1.286602,-0.48399 -2.411874,-1.28257 -3.371784,-2.41187 l -1.443897,-0.72195 -2.16988,0.72195 -0.721949,2.16988 c 1.927886,2.73453 4.255062,4.42042 6.989594,5.06171 l 1.927886,-1.20594 v -2.41187 z M 91.09063,36.383808 92.776522,36.141814 94.22042,34.213928 93.498471,32.282009 c -1.286602,-0.637251 -2.734533,-0.963943 -4.33976,-0.963943 -1.605227,0 -3.053158,0.326692 -4.335726,0.963943 l -0.721949,1.931919 1.443898,1.927886 1.685892,0.241994 c 0.318625,-0.157296 0.963943,-0.241994 1.927885,-0.241994 0.963943,0 1.609261,0.0847 1.931919,0.241994 z m 0,38.557715 1.685892,-0.241994 1.443898,-1.927886 -0.721949,-1.927885 c -1.286602,-0.641285 -2.734533,-0.963943 -4.33976,-0.963943 -1.605227,0 -3.053158,0.326692 -4.335726,0.963943 l -0.721949,1.927885 1.443898,1.927886 1.685892,0.241994 c 0.318625,-0.161329 0.963943,-0.241994 1.927885,-0.241994 0.963943,0 1.609261,0.08066 1.931919,0.241994 z m 0,38.553677 1.685892,-0.24199 1.443898,-1.93192 -0.721949,-1.92788 c -1.286602,-0.64129 -2.734533,-0.96395 -4.33976,-0.96395 -1.605227,0 -3.053158,0.32266 -4.335726,0.96395 l -0.721949,1.92788 1.443898,1.93192 1.685892,0.24199 c 0.318625,-0.15729 0.963943,-0.24199 1.927885,-0.24199 0.963943,0 1.609261,0.0847 1.931919,0.24199 z m 0,38.55369 1.685892,-0.242 1.443898,-1.92788 -0.721949,-1.92789 c -1.286602,-0.64128 -2.734533,-0.96394 -4.33976,-0.96394 -1.605227,0 -3.053158,0.32266 -4.335726,0.96394 l -0.721949,1.92789 1.443898,1.92788 1.685892,0.242 c 0.318625,-0.1573 0.963943,-0.242 1.927885,-0.242 0.963943,0 1.609261,0.0847 1.931919,0.242 z M 86.629874,39.638628 c -0.721949,0.721948 -1.08494,1.564894 -1.08494,2.528837 0,0.963943 0.362991,1.806889 1.08494,2.528838 0.721949,0.721949 1.568928,1.08494 2.528837,1.08494 0.95991,0 1.806889,-0.362991 2.528838,-1.08494 0.721949,-0.721949 1.08494,-1.564895 1.08494,-2.528838 0,-0.963943 -0.362991,-1.806889 -1.08494,-2.528837 -0.721949,-0.721949 -1.568928,-1.08494 -2.528838,-1.08494 -0.959909,0 -1.802855,0.362991 -2.528837,1.08494 z m 0,38.553682 c -0.721949,0.721948 -1.08494,1.568927 -1.08494,2.528837 0,0.95991 0.362991,1.806889 1.08494,2.528838 0.721949,0.721949 1.568928,1.08494 2.528837,1.08494 0.95991,0 1.806889,-0.362991 2.528838,-1.08494 0.721949,-0.721949 1.08494,-1.568928 1.08494,-2.528838 0,-0.95991 -0.362991,-1.806889 -1.08494,-2.528837 -0.721949,-0.721949 -1.568928,-1.08494 -2.528838,-1.08494 -0.959909,0 -1.802855,0.362991 -2.528837,1.08494 z m 0,38.55368 c -0.721949,0.72195 -1.08494,1.56893 -1.08494,2.52884 0,0.96394 0.362991,1.80689 1.08494,2.52884 0.721949,0.72598 1.568928,1.08494 2.528837,1.08494 0.95991,0 1.806889,-0.35896 2.528838,-1.08494 0.721949,-0.72195 1.08494,-1.5649 1.08494,-2.52884 0,-0.96394 -0.362991,-1.80689 -1.08494,-2.52884 -0.721949,-0.72195 -1.568928,-1.08494 -2.528838,-1.08494 -0.959909,0 -1.802855,0.36299 -2.528837,1.08494 z m 0,38.55772 c -0.721949,0.72598 -1.08494,1.56489 -1.08494,2.52883 0,0.96395 0.362991,1.80689 1.08494,2.52884 0.721949,0.72195 1.568928,1.08494 2.528837,1.08494 0.95991,0 1.806889,-0.35896 2.528838,-1.08494 0.721949,-0.72598 1.08494,-1.56489 1.08494,-2.52884 0,-0.96394 -0.362991,-1.80688 -1.08494,-2.52883 -0.721949,-0.72195 -1.568928,-1.08494 -2.528838,-1.08494 -0.959909,0 -1.802855,0.35895 -2.528837,1.08494 z M 89.162745,43.373402 c -0.806647,0 -1.201904,-0.39929 -1.201904,-1.201904 0,-0.802613 0.39929,-1.205936 1.201904,-1.205936 0.802613,0 1.205937,0.403323 1.205937,1.205936 0,0.802614 -0.403324,1.201904 -1.205937,1.201904 z m 0,38.553682 c -0.806647,0 -1.201904,-0.39929 -1.201904,-1.201904 0,-0.802613 0.39929,-1.205937 1.201904,-1.205937 0.802613,0 1.205937,0.403324 1.205937,1.205937 0,0.802614 -0.403324,1.201904 -1.205937,1.201904 z m 0,38.557716 c -0.806647,0 -1.201904,-0.40332 -1.201904,-1.20594 0,-0.80261 0.39929,-1.2019 1.201904,-1.2019 0.802613,0 1.205937,0.40332 1.205937,1.2019 0,0.80262 -0.403324,1.20594 -1.205937,1.20594 z m 0,38.55368 c -0.806647,0 -1.201904,-0.39929 -1.201904,-1.20594 0,-0.80261 0.39929,-1.20593 1.201904,-1.20593 0.802613,0 1.205937,0.40332 1.205937,1.20593 0,0.80665 -0.403324,1.20594 -1.205937,1.20594 z M 95.668351,44.8173 c -1.927886,0.806647 -3.94047,2.254578 -6.025651,4.339759 V 51.5649 l 1.927885,1.205937 c 2.7305,-0.641284 5.061709,-2.327176 6.985561,-5.057675 l -0.721949,-2.16988 z m 0,38.557715 c -1.927886,0.806647 -3.94047,2.250544 -6.025651,4.33976 v 2.40784 l 1.927885,1.205937 c 2.7305,-0.641284 5.061709,-2.327176 6.985561,-5.061708 l -0.721949,-2.16988 z m 0,38.553685 c -1.927886,0.80664 -3.94047,2.25457 -6.025651,4.33976 v 2.41187 l 1.927885,1.2019 c 2.7305,-0.64128 5.061709,-2.32717 6.985561,-5.05767 l -0.721949,-2.16988 z m 0,38.55368 c -1.927886,0.80665 -3.94047,2.25054 -6.025651,4.33573 v 2.41187 l 1.927885,1.20594 c 2.7305,-0.64129 5.061709,-2.32718 6.985561,-5.06171 l -0.721949,-2.16988 z M 93.740465,36.867796 c 0.161329,0.963943 0.439623,1.847221 0.842946,2.649835 0.39929,0.806646 0.604985,1.685891 0.604985,2.653867 l 0.963943,1.685892 2.16988,0.721949 1.685891,-1.443898 v -0.963943 c 0,-2.730499 -0.887311,-5.138339 -2.653867,-7.227555 h -2.165847 z m 0,38.553682 c 0.161329,0.963943 0.439623,1.847221 0.842946,2.649834 0.39929,0.806647 0.604985,1.685892 0.604985,2.649835 l 0.963943,1.685892 2.16988,0.725982 1.685891,-1.447931 v -0.963943 c 0,-2.730499 -0.887311,-5.13834 -2.653867,-7.227555 h -2.165847 z m 0,38.553682 c 0.161329,0.96394 0.439623,1.84722 0.842946,2.65387 0.39929,0.80664 0.604985,1.68589 0.604985,2.64983 l 0.963943,1.68589 2.16988,0.72195 1.685891,-1.44389 v -0.96395 c 0,-2.7305 -0.887311,-5.13834 -2.653867,-7.22755 h -2.165847 z m 0,38.55771 c 0.161329,0.96395 0.439623,1.84723 0.842946,2.64984 0.39929,0.80665 0.604985,1.68589 0.604985,2.64983 l 0.963943,1.6859 2.16988,0.72194 1.685891,-1.44389 v -0.96395 c 0,-2.7305 -0.887311,-5.13834 -2.653867,-7.22755 h -2.165847 z" /></svg>
