<?xml version="1.0" encoding="UTF-8" standalone="no"?>
<!-- Generator: Adobe Illustrator 16.0.0, SVG Export Plug-In . SVG Version: 6.00 Build 0)  -->

<svg
   version="1.1"
   id="图层_1"
   x="0px"
   y="0px"
   width="139.76401"
   height="200"
   viewBox="0 0 139.764 200"
   enable-background="new 0 0 714 341"
   xml:space="preserve"
   sodipodi:docname="sou-7.svg"
   inkscape:version="1.2.2 (b0a8486, 2022-12-01)"
   xmlns:inkscape="http://www.inkscape.org/namespaces/inkscape"
   xmlns:sodipodi="http://sodipodi.sourceforge.net/DTD/sodipodi-0.dtd"
   xmlns="http://www.w3.org/2000/svg"
   xmlns:svg="http://www.w3.org/2000/svg"
   xmlns:rdf="http://www.w3.org/1999/02/22-rdf-syntax-ns#"
   xmlns:cc="http://creativecommons.org/ns#"
   xmlns:dc="http://purl.org/dc/elements/1.1/"><metadata
   id="metadata621"><rdf:RDF><cc:Work
       rdf:about=""><dc:format>image/svg+xml</dc:format><dc:type
         rdf:resource="http://purl.org/dc/dcmitype/StillImage" /><dc:title /></cc:Work></rdf:RDF></metadata><defs
   id="defs619" /><sodipodi:namedview
   pagecolor="#ffffff"
   bordercolor="#666666"
   borderopacity="1"
   objecttolerance="10"
   gridtolerance="10"
   guidetolerance="10"
   inkscape:pageopacity="0"
   inkscape:pageshadow="2"
   inkscape:window-width="1860"
   inkscape:window-height="1016"
   id="namedview617"
   showgrid="false"
   inkscape:zoom="1"
   inkscape:cx="-244"
   inkscape:cy="153.5"
   inkscape:window-x="1980"
   inkscape:window-y="27"
   inkscape:window-maximized="1"
   inkscape:current-layer="图层_1"
   inkscape:showpageshadow="2"
   inkscape:pagecheckerboard="0"
   inkscape:deskcolor="#d1d1d1" />



















































































































































































































































































































<path
   id="path2"
   d="M 139.76365,14.459143 V 185.54489 c 0,4.01307 -1.4076,7.42922 -4.21473,10.24038 C 132.73776,198.5924 129.32161,200 125.30854,200 H 14.459143 C 10.442042,200 7.025893,198.5924 4.21473,195.78527 1.403566,192.97411 0,189.55796 0,185.54489 V 14.459143 C 0,10.446076 1.403566,7.029927 4.21473,4.218763 7.025893,1.407599 10.438009,0 14.459143,0 H 125.30451 c 4.01307,0 7.42921,1.407599 10.24037,4.218763 2.81116,2.811164 4.21876,6.22328 4.21877,10.24038 z"
   inkscape:connector-curvature="0"
   style="fill:#ffffff;stroke-width:4.03323"
   sodipodi:nodetypes="sscsscsssssss" /><path
   style="fill:#870000;stroke-width:4.03323"
   inkscape:connector-curvature="0"
   id="path160"
   d="m 41.328551,128.5553 c -2.653868,-2.64983 -3.976769,-5.74332 -3.976769,-9.27644 0,-3.52908 1.322901,-6.6266 3.976769,-9.27644 2.649835,-2.64983 5.743325,-3.97676 9.276438,-3.97676 3.529079,0 6.626603,1.32693 9.276437,3.97676 2.649835,2.64984 3.976769,5.74333 3.976769,9.27644 0,3.53312 -1.326934,6.62661 -3.976769,9.27644 -2.649834,2.65387 -5.747358,3.97677 -9.276437,3.97677 -3.533113,0 -6.626603,-1.32694 -9.276438,-3.97677 z m 0,38.55368 c -2.653868,-2.64983 -3.976769,-5.73929 -3.976769,-9.27644 0,-3.53311 1.322901,-6.6266 3.976769,-9.27643 2.649835,-2.64984 5.743325,-3.97677 9.276438,-3.97677 3.529079,0 6.626603,1.32693 9.276437,3.97677 2.649835,2.64983 3.976769,5.74332 3.976769,9.27643 0,3.53312 -1.326934,6.62661 -3.976769,9.27644 -2.649834,2.65387 -5.747358,3.97677 -9.276437,3.97677 -3.533113,0 -6.626603,-1.3229 -9.276438,-3.97677 z m 0.120997,-45.42228 c 1.601194,-0.32266 2.649835,-1.12124 3.129789,-2.41187 0,-0.96394 0.201662,-1.84319 0.604986,-2.64984 0.39929,-0.80261 0.677583,-1.68589 0.842945,-2.65386 l -1.447931,-1.92789 h -2.165846 c -1.77059,2.08922 -2.653868,4.49706 -2.653868,7.22756 v 0.96394 z m 0,38.55368 c 1.601194,-0.31862 2.649835,-1.12123 3.129789,-2.40784 0,-0.96394 0.201662,-1.84722 0.604986,-2.64983 0.39929,-0.80261 0.677583,-1.68589 0.842945,-2.64984 l -1.447931,-1.92788 h -2.165846 c -1.77059,2.09325 -2.653868,4.50109 -2.653868,7.22755 v 0.96395 z m 7.469549,-35.17786 c -1.286602,-0.47996 -2.407841,-1.28257 -3.371783,-2.41187 l -1.447931,-0.72195 -2.16988,0.72195 -0.721949,2.16988 c 1.927886,2.73453 4.255062,4.42042 6.985561,5.05767 l 1.927886,-1.2019 v -2.41188 z m 0,38.55368 c -1.286602,-0.48399 -2.407841,-1.28257 -3.371783,-2.41187 l -1.447931,-0.72195 -2.16988,0.72195 -0.721949,2.16988 c 1.927886,2.73453 4.255062,4.42042 6.985561,5.06171 l 1.927886,-1.20594 v -2.41187 z m 3.613777,-50.121 1.685892,-0.24199 1.443898,-1.93192 -0.721949,-1.92788 c -1.286602,-0.64129 -2.730499,-0.96395 -4.335726,-0.96395 -1.609261,0 -3.053158,0.32266 -4.335727,0.96395 l -0.721948,1.92788 1.443897,1.93192 1.685892,0.24199 c 0.322659,-0.15729 0.967976,-0.24199 1.931919,-0.24199 0.963943,0 1.601194,0.0847 1.923852,0.24199 z m 0,38.55369 1.685892,-0.242 1.443898,-1.92788 -0.721949,-1.92789 c -1.286602,-0.64128 -2.730499,-0.96394 -4.335726,-0.96394 -1.609261,0 -3.053158,0.32266 -4.335727,0.96394 l -0.721948,1.92789 1.443897,1.92788 1.685892,0.242 c 0.322659,-0.1573 0.967976,-0.242 1.931919,-0.242 0.963943,0 1.601194,0.0847 1.923852,0.242 z m -4.456723,-35.3029 c -0.721949,0.72195 -1.08494,1.56893 -1.08494,2.52884 0,0.96394 0.362991,1.80689 1.08494,2.52884 0.721949,0.72598 1.568928,1.08494 2.528838,1.08494 0.959909,0 1.806888,-0.35896 2.528837,-1.08494 0.721949,-0.72195 1.08494,-1.5649 1.08494,-2.52884 0,-0.96394 -0.358958,-1.80689 -1.08494,-2.52884 -0.725982,-0.72195 -1.568928,-1.08494 -2.528837,-1.08494 -0.95991,0 -1.806889,0.36299 -2.528838,1.08494 z m 0,38.55772 c -0.721949,0.72598 -1.08494,1.56489 -1.08494,2.52883 0,0.96395 0.362991,1.80689 1.08494,2.52884 0.721949,0.72195 1.568928,1.08494 2.528838,1.08494 0.959909,0 1.806888,-0.35896 2.528837,-1.08494 0.721949,-0.72598 1.08494,-1.56489 1.08494,-2.52884 0,-0.96394 -0.358958,-1.80688 -1.08494,-2.52883 -0.721949,-0.72195 -1.568928,-1.08494 -2.528837,-1.08494 -0.95991,0 -1.806889,0.35895 -2.528838,1.08494 z m 2.532871,-34.81891 c -0.806647,0 -1.205937,-0.40332 -1.205937,-1.20594 0,-0.80261 0.39929,-1.2019 1.205937,-1.2019 0.802614,0 1.201904,0.40332 1.201904,1.2019 0,0.80262 -0.403324,1.20594 -1.201904,1.20594 z m 0,38.55368 c -0.806647,0 -1.205937,-0.39929 -1.205937,-1.20594 0,-0.80261 0.39929,-1.20593 1.205937,-1.20593 0.802614,0 1.201904,0.40332 1.201904,1.20593 0,0.80665 -0.403324,1.20594 -1.201904,1.20594 z m 6.501573,-37.10978 c -1.927886,0.80664 -3.936436,2.25457 -6.025651,4.33976 v 2.41187 l 1.927885,1.2019 c 2.7305,-0.64128 5.061709,-2.32717 6.989594,-5.05767 l -0.721948,-2.16988 z m 0,38.55368 c -1.927886,0.80665 -3.936436,2.25054 -6.025651,4.33573 v 2.41187 l 1.927885,1.20594 c 2.7305,-0.64129 5.061709,-2.32718 6.989594,-5.06171 l -0.721948,-2.16988 z m -1.923853,-46.50722 c 0.157296,0.96394 0.439623,1.84722 0.842946,2.65387 0.39929,0.80664 0.600952,1.68589 0.600952,2.64983 l 0.967976,1.68589 2.165847,0.72195 1.685891,-1.44389 v -0.96395 c 0,-2.7305 -0.883278,-5.13834 -2.649834,-7.22755 h -2.16988 z m 0,38.55771 c 0.157296,0.96395 0.439623,1.84723 0.842946,2.64984 0.39929,0.80665 0.600952,1.68589 0.600952,2.64983 l 0.967976,1.6859 2.165847,0.72194 1.685891,-1.44389 v -0.96395 c 0,-2.7305 -0.883278,-5.13834 -2.649834,-7.22755 H 56.63064 Z M 79.882233,128.5553 c -2.649835,-2.64983 -3.972735,-5.74332 -3.972735,-9.27644 0,-3.52908 1.326934,-6.6266 3.972735,-9.27644 2.649835,-2.64983 5.743325,-3.97676 9.276438,-3.97676 3.529079,0 6.626603,1.32693 9.276437,3.97676 2.649832,2.64984 3.976772,5.74333 3.976772,9.27644 0,3.53312 -1.32694,6.62661 -3.976772,9.27644 -2.649834,2.65387 -5.747358,3.97677 -9.276437,3.97677 -3.533113,0 -6.62257,-1.32694 -9.276438,-3.97677 z m 0,38.55368 c -2.649835,-2.64983 -3.972735,-5.73929 -3.972735,-9.27644 0,-3.53311 1.326934,-6.6266 3.972735,-9.27643 2.649835,-2.64984 5.743325,-3.97677 9.276438,-3.97677 3.529079,0 6.626603,1.32693 9.276437,3.97677 2.649832,2.64983 3.976772,5.74332 3.976772,9.27643 0,3.53312 -1.32694,6.62661 -3.976772,9.27644 -2.649834,2.65387 -5.747358,3.97677 -9.276437,3.97677 -3.533113,0 -6.62257,-1.3229 -9.276438,-3.97677 z m 0.12503,-45.42228 c 1.601194,-0.32266 2.649835,-1.12124 3.133823,-2.41187 0,-0.96394 0.197628,-1.84319 0.600952,-2.64984 0.39929,-0.80261 0.681616,-1.68589 0.842946,-2.65386 l -1.443898,-1.92789 h -2.16988 c -1.77059,2.08922 -2.649835,4.49706 -2.649835,7.22756 v 0.96394 z m 0,38.55368 c 1.601194,-0.31862 2.649835,-1.12123 3.133823,-2.40784 0,-0.96394 0.197628,-1.84722 0.600952,-2.64983 0.39929,-0.80261 0.681616,-1.68589 0.842946,-2.64984 l -1.443898,-1.92788 h -2.16988 c -1.77059,2.09325 -2.649835,4.50109 -2.649835,7.22755 v 0.96395 z m 7.469549,-35.17786 c -1.286601,-0.47996 -2.411874,-1.28257 -3.371783,-2.41187 l -1.443898,-0.72195 -2.16988,0.72195 -0.721949,2.16988 c 1.927886,2.73453 4.255062,4.42042 6.989595,5.05767 l 1.927885,-1.2019 v -2.41188 z m 0,38.55368 c -1.286601,-0.48399 -2.411874,-1.28257 -3.371783,-2.41187 l -1.443898,-0.72195 -2.16988,0.72195 -0.721949,2.16988 c 1.927886,2.73453 4.255062,4.42042 6.989595,5.06171 l 1.927885,-1.20594 v -2.41187 z m 3.613778,-50.121 1.685891,-0.24199 1.443898,-1.93192 -0.721949,-1.92788 c -1.286601,-0.64129 -2.734532,-0.96395 -4.339759,-0.96395 -1.605227,0 -3.053158,0.32266 -4.335727,0.96395 l -0.721949,1.92788 1.443898,1.93192 1.685892,0.24199 c 0.318625,-0.15729 0.963943,-0.24199 1.927886,-0.24199 0.963943,0 1.60926,0.0847 1.931919,0.24199 z m 0,38.55369 1.685891,-0.242 1.443898,-1.92788 -0.721949,-1.92789 c -1.286601,-0.64128 -2.734532,-0.96394 -4.339759,-0.96394 -1.605227,0 -3.053158,0.32266 -4.335727,0.96394 l -0.721949,1.92789 1.443898,1.92788 1.685892,0.242 c 0.318625,-0.1573 0.963943,-0.242 1.927886,-0.242 0.963943,0 1.60926,0.0847 1.931919,0.242 z m -4.460757,-35.3029 c -0.721949,0.72195 -1.08494,1.56893 -1.08494,2.52884 0,0.96394 0.362991,1.80689 1.08494,2.52884 0.721949,0.72598 1.568928,1.08494 2.528838,1.08494 0.959909,0 1.806888,-0.35896 2.528837,-1.08494 0.721949,-0.72195 1.08494,-1.5649 1.08494,-2.52884 0,-0.96394 -0.362991,-1.80689 -1.08494,-2.52884 -0.721949,-0.72195 -1.568928,-1.08494 -2.528837,-1.08494 -0.95991,0 -1.806889,0.36299 -2.528838,1.08494 z m 0,38.55772 c -0.721949,0.72598 -1.08494,1.56489 -1.08494,2.52883 0,0.96395 0.362991,1.80689 1.08494,2.52884 0.721949,0.72195 1.568928,1.08494 2.528838,1.08494 0.959909,0 1.806888,-0.35896 2.528837,-1.08494 0.721949,-0.72598 1.08494,-1.56489 1.08494,-2.52884 0,-0.96394 -0.362991,-1.80688 -1.08494,-2.52883 -0.721949,-0.72195 -1.568928,-1.08494 -2.528837,-1.08494 -0.95991,0 -1.806889,0.35895 -2.528838,1.08494 z m 2.532871,-34.81891 c -0.806647,0 -1.201904,-0.40332 -1.201904,-1.20594 0,-0.80261 0.39929,-1.2019 1.201904,-1.2019 0.802613,0 1.205937,0.40332 1.205937,1.2019 -0.004,0.80262 -0.403324,1.20594 -1.205937,1.20594 z m 0,38.55368 c -0.806647,0 -1.201904,-0.39929 -1.201904,-1.20594 0,-0.80261 0.39929,-1.20593 1.201904,-1.20593 0.802613,0 1.205937,0.40332 1.205937,1.20593 -0.004,0.80665 -0.403324,1.20594 -1.205937,1.20594 z M 95.66831,121.9287 c -1.927886,0.80664 -3.940469,2.25457 -6.025651,4.33976 v 2.41187 l 1.927885,1.2019 c 2.7305,-0.64128 5.057676,-2.32717 6.985561,-5.05767 l -0.721948,-2.16988 z m 0,38.55368 c -1.927886,0.80665 -3.940469,2.25054 -6.025651,4.33573 v 2.41187 l 1.927885,1.20594 c 2.7305,-0.64129 5.057676,-2.32718 6.985561,-5.06171 l -0.721948,-2.16988 z m -1.927886,-46.50722 c 0.16133,0.96394 0.439623,1.84722 0.842946,2.65387 0.39929,0.80664 0.604985,1.68589 0.604985,2.64983 l 0.963943,1.68589 2.16988,0.72195 1.685892,-1.44389 v -0.96395 c 0,-2.7305 -0.887312,-5.13834 -2.653868,-7.22755 h -2.165847 z m 0,38.55771 c 0.16133,0.96395 0.439623,1.84723 0.842946,2.64984 0.39929,0.80665 0.604985,1.68589 0.604985,2.64983 l 0.963943,1.6859 2.16988,0.72194 1.685892,-1.44389 v -0.96395 c 0,-2.7305 -0.887312,-5.13834 -2.653868,-7.22755 h -2.165847 z" /><path
   style="fill:#00082d;stroke-width:4.03323"
   inkscape:connector-curvature="0"
   id="path162"
   d="m 30.124228,119.27483 c 0,-5.62233 2.00855,-10.43801 6.025651,-14.45511 4.017101,-4.01307 8.832782,-6.025652 14.459143,-6.025652 4.335726,0 8.272162,1.250302 11.809309,3.738812 3.529079,2.49253 6.021618,5.74332 7.469549,9.75639 1.44793,-4.01307 3.936436,-7.26789 7.469549,-9.75639 3.533112,-2.48851 7.473582,-3.738812 11.809308,-3.738812 -4.819714,-4.335727 -7.227555,-9.554731 -7.227555,-15.661047 0,-1.931919 0.241994,-3.855772 0.725982,-5.783657 -3.537146,3.053158 -7.796241,4.57772 -12.773251,4.57772 -5.626361,0 -10.442043,-2.00855 -14.45511,-6.021618 -4.017101,-4.013068 -6.025651,-8.832782 -6.025651,-14.459143 0,-1.927886 0.241994,-3.855772 0.721948,-5.783658 -3.533112,3.053158 -7.796241,4.577721 -12.773251,4.577721 -5.626361,0 -10.442042,-2.008551 -14.459143,-6.021618 -4.017101,-4.013068 -6.021618,-8.832782 -6.021618,-14.459143 0,-5.622328 2.00855,-10.442043 6.021618,-14.459144 4.017101,-4.013067 8.832782,-6.025651 14.459143,-6.025651 5.622328,0 10.442042,2.012584 14.45511,6.025651 4.013068,4.017101 6.025651,8.836816 6.025651,14.459144 0,1.927885 -0.241994,3.855771 -0.725982,5.783657 3.533113,-3.049125 7.792208,-4.57772 12.773252,-4.57772 5.622327,0 10.442042,2.012583 14.459143,6.025651 4.013067,4.017101 6.025651,8.832782 6.025651,14.45511 0,1.927886 -0.241994,3.855771 -0.721949,5.783657 3.52908,-3.049125 7.792208,-4.57772 12.773255,-4.57772 5.62232,0 10.43801,2.012583 14.45914,6.025651 4.01307,4.017101 6.02162,8.836815 6.02162,14.459143 0,5.626361 -2.00855,10.442042 -6.02162,14.45511 -4.02113,4.017096 -8.83682,6.025656 -14.45914,6.025656 4.81971,4.33975 7.22755,9.55876 7.22755,15.66104 0,4.33976 -1.24627,8.2762 -3.73477,11.80931 -2.49657,3.53311 -5.74736,6.02565 -9.760429,7.46955 4.013069,1.4439 7.263859,3.94047 9.760429,7.47358 2.4885,3.53311 3.73477,7.46955 3.73477,11.80528 0,5.62636 -2.01258,10.44607 -6.02565,14.45511 -4.017101,4.01306 -8.836815,6.02565 -14.459143,6.02565 -4.335726,0 -8.276196,-1.24627 -11.809308,-3.73478 -3.533113,-2.4885 -6.021619,-5.73929 -7.469549,-9.76042 -1.443898,4.02113 -3.936437,7.27192 -7.469549,9.76042 -3.533113,2.48851 -7.473583,3.73478 -11.809309,3.73478 -5.626361,0 -10.442042,-2.01259 -14.459143,-6.02565 -4.017101,-4.01307 -6.025651,-8.82875 -6.025651,-14.45511 0,-4.33976 1.242236,-8.27217 3.734774,-11.80528 2.488505,-3.53311 5.743325,-6.02565 9.756393,-7.47358 -4.017101,-1.4439 -7.267888,-3.93644 -9.756393,-7.46955 -2.492538,-3.53311 -3.734774,-7.47358 -3.734774,-11.81334 z M 25.42551,27.829319 c -3.295152,3.295152 -4.940711,7.267887 -4.940711,11.930306 0,4.662418 1.645559,8.635153 4.940711,11.930305 3.291119,3.295152 7.267887,4.940712 11.930306,4.940712 4.658385,0 8.635153,-1.64556 11.930305,-4.940712 3.291119,-3.291119 4.940712,-7.267887 4.940712,-11.930305 0,-4.658385 -1.649593,-8.635154 -4.940712,-11.930306 -3.295152,-3.291119 -7.27192,-4.940711 -11.930305,-4.940711 -4.662419,0 -8.639187,1.649592 -11.930306,4.940711 z m 2.528838,21.206743 c -2.573203,-2.653867 -3.855772,-5.743325 -3.855772,-9.276437 0,-3.533113 1.282569,-6.626604 3.855772,-9.276438 2.56917,-2.649835 5.698959,-3.976769 9.397434,-3.976769 3.694443,0 6.824232,1.326934 9.397435,3.976769 2.56917,2.649834 3.855772,5.743325 3.855772,9.276438 0,3.533112 -1.286602,6.626603 -3.855772,9.276437 -2.573203,2.649835 -5.707026,3.972736 -9.397435,3.972736 -3.698475,0 -6.828264,-1.322901 -9.397434,-3.972736 z m 0.241994,-6.868597 c 1.605227,-0.322659 2.649834,-1.125272 3.133822,-2.411874 0,-0.963942 0.197629,-1.847221 0.600952,-2.649834 0.39929,-0.802614 0.681617,-1.685892 0.842946,-2.649835 l -1.447931,-1.927886 h -2.16988 c -1.766556,2.089216 -2.649834,4.497056 -2.649834,7.227555 v 0.963943 z m 7.469549,3.375817 C 34.379289,45.059294 33.25805,44.260714 32.294107,43.131408 l -1.443897,-0.721949 -2.16988,0.721949 -0.721949,2.16988 c 1.927886,2.734532 4.255062,4.420424 6.985561,5.061708 l 1.931919,-1.205937 v -2.411873 z m 3.613777,-11.567315 1.685892,-0.241994 1.443898,-1.927885 -0.721949,-1.927886 c -1.286602,-0.641284 -2.734533,-0.963943 -4.33976,-0.963943 -1.605227,0 -3.053158,0.322659 -4.335726,0.963943 l -0.725982,1.927886 1.447931,1.927885 1.685891,0.241994 c 0.322659,-0.161329 0.963943,-0.241994 1.927886,-0.241994 0.963943,0 1.609261,0.08067 1.931919,0.241994 z m -4.456723,3.250787 c -0.725982,0.721949 -1.08494,1.564895 -1.08494,2.528837 0,0.963943 0.358958,1.806889 1.08494,2.528838 0.721949,0.725982 1.564895,1.08494 2.528837,1.08494 0.963943,0 1.806889,-0.358958 2.528838,-1.08494 0.721949,-0.721949 1.08494,-1.564895 1.08494,-2.528838 0,-0.963942 -0.362991,-1.806888 -1.08494,-2.528837 -0.721949,-0.721949 -1.564895,-1.08494 -2.528838,-1.08494 -0.963942,0 -1.802855,0.362991 -2.528837,1.08494 z m 3.855771,70.121806 c -3.291118,3.29112 -4.936678,7.27192 -4.936678,11.92627 0,4.66242 1.64556,8.63919 4.936678,11.9303 3.291119,3.29112 7.267888,4.93668 11.930306,4.93668 4.658385,0 8.635154,-1.64556 11.926272,-4.93668 3.291119,-3.29111 4.940712,-7.26788 4.940712,-11.9303 0,-4.65435 -1.649593,-8.63515 -4.940712,-11.92627 -3.291118,-3.29112 -7.267887,-4.94071 -11.926272,-4.94071 -4.662418,0 -8.639187,1.65362 -11.930306,4.94071 z m 0,38.55771 c -3.291118,3.29515 -4.936678,7.27192 -4.936678,11.93031 0,4.65838 1.64556,8.63918 4.936678,11.9303 3.291119,3.29112 7.267888,4.94071 11.930306,4.94071 4.658385,0 8.635154,-1.64959 11.926272,-4.94071 3.291119,-3.29112 4.940712,-7.26788 4.940712,-11.9303 0,-4.65839 -1.649593,-8.63516 -4.940712,-11.93031 -3.291118,-3.29112 -7.267887,-4.94071 -11.926272,-4.94071 -4.662418,-0.004 -8.639187,1.64959 -11.930306,4.94071 z M 37.351782,40.961528 c -0.806646,0 -1.205936,-0.39929 -1.205936,-1.205937 0,-0.802613 0.39929,-1.205937 1.205936,-1.205937 0.802614,0 1.205937,0.403324 1.205937,1.205937 0,0.806647 -0.39929,1.205937 -1.205937,1.205937 z m 6.50964,1.447931 c -1.927886,0.806647 -3.94047,2.250545 -6.025651,4.335727 v 2.411873 l 1.927885,1.205937 c 2.7305,-0.641284 5.061709,-2.327176 6.989594,-5.061708 l -0.721948,-2.16988 z m -1.927886,-7.953537 c 0.157296,0.963943 0.439623,1.847221 0.842946,2.649835 0.39929,0.806647 0.600952,1.685892 0.600952,2.649834 l 0.963943,1.685892 2.169879,0.721949 1.685892,-1.447931 v -0.963943 c 0,-2.730499 -0.883278,-5.13834 -2.649834,-7.227555 h -2.16988 z m 16.024038,15.060095 c -3.295152,3.295152 -4.940711,7.271921 -4.940711,11.930306 0,4.662418 1.645559,8.639187 4.940711,11.930305 3.287086,3.295152 7.267887,4.940712 11.926272,4.940712 4.658385,0 8.635154,-1.64556 11.930306,-4.940712 3.287085,-3.291118 4.940711,-7.267887 4.940711,-11.930305 0,-4.654352 -1.649592,-8.635154 -4.940711,-11.930306 -3.295152,-3.291119 -7.271921,-4.940711 -11.930306,-4.940711 -4.658385,0 -8.639186,1.649592 -11.926272,4.940711 z m 2.649835,21.206744 c -2.649835,-2.649835 -3.976769,-5.739292 -3.976769,-9.276438 0,-3.52908 1.326934,-6.626603 3.976769,-9.276438 2.649834,-2.653868 5.739291,-3.976769 9.276437,-3.976769 3.533113,0 6.630637,1.326934 9.276438,3.976769 2.653868,2.649835 3.976769,5.743325 3.976769,9.276438 0,3.537146 -1.326934,6.626603 -3.976769,9.276438 -2.649835,2.649834 -5.743325,3.976768 -9.276438,3.976768 -3.537146,0 -6.626603,-1.326934 -9.276437,-3.976768 z m -3.012826,67.830929 c 5.940953,2.25054 10.034686,6.34831 12.28523,12.28926 2.250545,-5.94499 6.344277,-10.03872 12.289263,-12.28926 -5.944986,-2.24651 -10.038718,-6.34428 -12.289263,-12.28927 -2.246511,5.94499 -6.344277,10.04276 -12.28523,12.28927 z m 3.133823,-74.699527 c 1.601193,-0.322658 2.649834,-1.121239 3.133822,-2.411873 0,-0.963943 0.197629,-1.843188 0.600952,-2.649835 0.39929,-0.802614 0.681617,-1.685892 0.838913,-2.649835 l -1.443898,-1.927885 h -2.16988 c -1.770589,2.089215 -2.653868,4.497055 -2.653868,7.227555 v 0.963942 z m 7.469549,3.375817 c -1.286602,-0.483988 -2.411874,-1.282568 -3.371784,-2.411874 l -1.443898,-0.721949 -2.169879,0.721949 -0.721949,2.16988 c 1.931919,2.730499 4.255061,4.416391 6.989594,5.057675 l 1.927886,-1.205937 V 68.42785 Z m 3.613777,-11.567315 1.685892,-0.241994 1.443897,-1.927885 -0.721948,-1.931919 c -1.286602,-0.637251 -2.734533,-0.963943 -4.33976,-0.963943 -1.605227,0 -3.053158,0.326692 -4.335726,0.963943 l -0.721949,1.931919 1.447931,1.927885 1.685892,0.241994 c 0.318625,-0.157296 0.963942,-0.241994 1.927885,-0.241994 0.963943,0 1.605227,0.0847 1.927886,0.241994 z m -4.460757,3.250787 c -0.721948,0.725982 -1.080906,1.564895 -1.080906,2.528838 0,0.963942 0.358958,1.806888 1.080906,2.528837 0.725983,0.721949 1.568928,1.08494 2.528838,1.08494 0.963943,0 1.806889,-0.358958 2.532871,-1.08494 0.721949,-0.725982 1.08494,-1.564895 1.08494,-2.528837 0,-0.963943 -0.358958,-1.806889 -1.08494,-2.528838 -0.725982,-0.721949 -1.568928,-1.08494 -2.532871,-1.08494 -0.95991,0.004 -1.802855,0.362991 -2.528838,1.08494 z m 2.532871,3.734774 c -0.802613,0 -1.201903,-0.39929 -1.201903,-1.205936 0,-0.802614 0.39929,-1.205937 1.201903,-1.205937 0.802614,0 1.205937,0.403323 1.205937,1.205937 0,0.806646 -0.403323,1.205936 -1.205937,1.205936 z m 6.505606,1.447931 c -1.927885,0.806647 -3.940469,2.250545 -6.021618,4.335727 v 2.411874 l 1.927886,1.205936 c 2.730499,-0.641284 5.057675,-2.327175 6.989594,-5.057675 l -0.721949,-2.16988 z m 0.84698,43.252403 c -3.295152,3.29112 -4.940712,7.27192 -4.940712,11.92627 0,4.66242 1.64556,8.63919 4.940712,11.9303 3.291118,3.29112 7.263854,4.93668 11.926272,4.93668 4.658385,0 8.635153,-1.64556 11.930306,-4.93668 3.29112,-3.29111 4.94071,-7.26788 4.94071,-11.9303 0,-4.65435 -1.64959,-8.63515 -4.94071,-11.92627 -3.295153,-3.29112 -7.271921,-4.94071 -11.930306,-4.94071 -4.662418,0 -8.635154,1.65362 -11.926272,4.94071 z m 0,38.55771 c -3.295152,3.29515 -4.940712,7.27192 -4.940712,11.93031 0,4.65838 1.64556,8.63918 4.940712,11.9303 3.291118,3.29112 7.263854,4.94071 11.926272,4.94071 4.658385,0 8.635153,-1.64959 11.930306,-4.94071 3.29112,-3.29112 4.94071,-7.26788 4.94071,-11.9303 0,-4.65839 -1.64959,-8.63516 -4.94071,-11.93031 -3.295153,-3.29112 -7.271921,-4.94071 -11.930306,-4.94071 -4.662418,-0.004 -8.635154,1.64959 -11.926272,4.94071 z M 74.4656,56.14262 c 0.157296,0.963943 0.439622,1.847221 0.838913,2.649835 0.403323,0.806647 0.604985,1.685892 0.604985,2.649835 l 0.963942,1.685891 2.16988,0.721949 1.685892,-1.443898 V 61.44229 c 0,-2.7305 -0.883278,-5.13834 -2.653868,-7.227555 h -2.165846 z m 16.020005,15.060095 c -3.291119,3.295152 -4.940712,7.271921 -4.940712,11.930306 0,4.658385 1.64556,8.635153 4.940712,11.926272 C 93.776723,98.354445 97.753492,100 102.41591,100 c 4.65839,0 8.63112,-1.645555 11.93031,-4.940707 3.29111,-3.291119 4.94071,-7.267887 4.94071,-11.926272 0,-4.658385 -1.6496,-8.635154 -4.94071,-11.930306 -3.29516,-3.287085 -7.27192,-4.936678 -11.93031,-4.936678 -4.662418,0 -8.639187,1.649593 -11.930305,4.936678 z m 2.53287,21.206744 c -2.573203,-2.649835 -3.855771,-5.739292 -3.855771,-9.276438 0,-3.533113 1.282568,-6.626603 3.855771,-9.276438 2.56917,-2.653868 5.702993,-3.976768 9.397435,-3.976768 3.69444,0 6.82826,1.326934 9.40147,3.976768 2.56513,2.649835 3.85174,5.743325 3.85174,9.276438 0,3.533113 -1.28661,6.626603 -3.85174,9.276438 -2.57321,2.649834 -5.70703,3.976768 -9.40147,3.976768 -3.698475,0 -6.832298,-1.326934 -9.397435,-3.976768 z m 0.237961,-6.868598 c 1.605227,-0.322658 2.653868,-1.121239 3.133823,-2.40784 0,-0.963943 0.197628,-1.847221 0.600952,-2.649835 0.39929,-0.802613 0.681616,-1.685891 0.842946,-2.653868 l -1.443898,-1.927885 h -2.16988 c -1.766556,2.089215 -2.649835,4.497055 -2.649835,7.227555 v 0.963943 z m 7.473584,3.375817 C 99.443417,88.43269 98.318145,87.63411 97.354202,86.504804 l -1.443898,-0.721948 -2.16988,0.721948 -0.721949,2.16988 c 1.927886,2.730499 4.255062,4.420424 6.989595,5.057675 l 1.92789,-1.201903 v -2.411874 z m 3.61378,-11.567314 1.68589,-0.241994 1.4439,-1.927886 -0.72195,-1.931919 c -1.28661,-0.637251 -2.7305,-0.963943 -4.33573,-0.963943 -1.60523,0 -3.053158,0.326692 -4.339759,0.963943 l -0.721949,1.931919 1.443897,1.927886 1.685891,0.241994 c 0.32266,-0.157296 0.96394,-0.241994 1.92789,-0.241994 0.96394,0 1.60926,0.0847 1.93192,0.241994 z m -4.460761,3.254819 c -0.721949,0.721949 -1.08494,1.564895 -1.08494,2.528838 0,0.963943 0.362991,1.806889 1.08494,2.528837 0.721951,0.721949 1.568931,1.08494 2.528841,1.08494 0.95991,0 1.80689,-0.362991 2.52883,-1.08494 0.72599,-0.721948 1.08494,-1.568927 1.08494,-2.528837 0,-0.963943 -0.35895,-1.806889 -1.08494,-2.528838 -0.72194,-0.725982 -1.56489,-1.08494 -2.52883,-1.08494 -0.96395,0 -1.80286,0.358958 -2.528841,1.08494 z m 2.532871,3.730742 c -0.80665,0 -1.20594,-0.399291 -1.20594,-1.201904 0,-0.802614 0.39929,-1.205937 1.20594,-1.205937 0.80261,0 1.20594,0.403323 1.20594,1.205937 0,0.802613 -0.40736,1.201904 -1.20594,1.201904 z m 6.50561,1.447931 c -1.92789,0.806646 -3.94047,2.250544 -6.02566,4.339759 v 2.411874 l 1.93192,1.201904 c 2.7305,-0.637251 5.05768,-2.327176 6.9896,-5.057676 l -0.72598,-2.169879 z m -1.92789,-7.953538 c 0.1573,0.963943 0.43962,1.847222 0.84295,2.653868 0.39929,0.806647 0.60095,1.685892 0.60095,2.649835 l 0.96394,1.685892 2.16585,0.721948 1.68589,-1.443897 v -0.963943 c 0,-2.730499 -0.88328,-5.13834 -2.64984,-7.227555 h -2.16988 z" /></svg>
