<?xml version="1.0" encoding="UTF-8" standalone="no"?>
<!-- Generator: Adobe Illustrator 16.0.0, SVG Export Plug-In . SVG Version: 6.00 Build 0)  -->

<svg
   version="1.1"
   id="图层_1"
   x="0px"
   y="0px"
   width="139.76401"
   height="200"
   viewBox="0 0 139.764 200"
   enable-background="new 0 0 714 341"
   xml:space="preserve"
   sodipodi:docname="wind-1.svg"
   inkscape:version="1.2.2 (b0a8486, 2022-12-01)"
   xmlns:inkscape="http://www.inkscape.org/namespaces/inkscape"
   xmlns:sodipodi="http://sodipodi.sourceforge.net/DTD/sodipodi-0.dtd"
   xmlns="http://www.w3.org/2000/svg"
   xmlns:svg="http://www.w3.org/2000/svg"
   xmlns:rdf="http://www.w3.org/1999/02/22-rdf-syntax-ns#"
   xmlns:cc="http://creativecommons.org/ns#"
   xmlns:dc="http://purl.org/dc/elements/1.1/"><metadata
   id="metadata621"><rdf:RDF><cc:Work
       rdf:about=""><dc:format>image/svg+xml</dc:format><dc:type
         rdf:resource="http://purl.org/dc/dcmitype/StillImage" /><dc:title /></cc:Work></rdf:RDF></metadata><defs
   id="defs619" /><sodipodi:namedview
   pagecolor="#ffffff"
   bordercolor="#666666"
   borderopacity="1"
   objecttolerance="10"
   gridtolerance="10"
   guidetolerance="10"
   inkscape:pageopacity="0"
   inkscape:pageshadow="2"
   inkscape:window-width="1860"
   inkscape:window-height="1016"
   id="namedview617"
   showgrid="false"
   inkscape:zoom="4"
   inkscape:cx="67.75"
   inkscape:cy="74.875"
   inkscape:window-x="1980"
   inkscape:window-y="27"
   inkscape:window-maximized="1"
   inkscape:current-layer="图层_1"
   inkscape:showpageshadow="2"
   inkscape:pagecheckerboard="0"
   inkscape:deskcolor="#d1d1d1" />



















































































































































































































































































































<path
   id="path2"
   d="m 139.76366,14.45914 v 171.08575 c 0,4.01307 -1.4076,7.42922 -4.21474,10.24038 C 132.73777,198.5924 129.32161,200 125.30854,200 H 14.45914 C 10.44204,200 7.02589,198.5924 4.21473,195.78527 1.40357,192.97411 0,189.55796 0,185.54489 V 14.45914 C 0,10.44608 1.40357,7.02993 4.21473,4.21876 7.02589,1.4076 10.43801,0 14.45914,0 h 110.84537 c 4.01307,0 7.42921,1.4076 10.24038,4.21876 2.81117,2.81117 4.21877,6.22329 4.21877,10.24038 z"
   inkscape:connector-curvature="0"
   style="fill:#ffffff;stroke-width:4.03323"
   sodipodi:nodetypes="sscsscsssssss" /><path
   inkscape:connector-curvature="0"
   id="path178"
   d="m 33.73732,82.171454 c 0.318619,-0.802598 0.963924,-1.205913 1.927847,-1.205913 0.641272,0 2.726411,0.806631 6.263486,2.411825 7.868681,-1.605194 15.01946,-3.371715 21.444272,-5.303595 -0.165359,-0.963924 -0.241989,-2.726411 -0.241989,-5.299563 -0.483978,0 -1.685858,0.24199 -3.613705,0.721935 -1.927847,0.479945 -3.533041,0.725967 -4.819617,0.725967 -3.053097,0 -5.061606,-1.125249 -6.02553,-3.375748 0.641271,-0.161327 2.60945,-0.439614 5.904535,-0.842929 3.291053,-0.399282 5.981166,-1.004255 8.070339,-1.806853 v -0.721934 c 0,-5.622214 -1.443869,-10.518462 -4.335639,-14.700841 -2.891771,-4.174313 -4.335639,-8.509952 -4.335639,-13.014983 4.492932,2.093206 9.074593,3.738732 13.732884,4.940612 4.658291,1.205913 7.630724,2.133538 8.913267,2.770776 1.282542,0.645304 1.927847,1.93188 1.927847,3.855693 0,0.963924 -0.443647,1.685858 -1.326907,2.169837 -0.883261,0.479945 -1.847184,0.923591 -2.891771,1.322874 -1.048619,0.403315 -2.089173,1.564863 -3.129726,3.496743 -1.04862,1.927847 -1.730222,4.577628 -2.048842,7.953377 2.407793,-0.641272 4.254976,-1.568897 5.541552,-2.774809 1.282543,-1.205913 2.250499,-1.806853 2.89177,-1.806853 1.443869,0 3.012765,0.520277 4.698623,1.564863 1.685858,1.04862 2.528787,1.972212 2.528787,2.774809 0,0.806631 -0.685636,1.443869 -2.048842,1.927847 -1.367239,0.479945 -3.533041,1.004255 -6.505475,1.564863 -2.976466,0.564642 -5.420557,1.165581 -7.348404,1.806853 0,0.641271 -0.0847,1.609228 -0.241989,2.89177 -0.161326,1.286576 -0.241989,2.165803 -0.241989,2.649781 l 20.484382,-3.613704 c 1.443868,0 3.452378,1.411603 6.025529,4.218677 2.569119,2.811107 3.855694,5.182601 3.855694,7.110448 0,1.605195 -1.770554,2.649781 -5.299562,3.129726 -1.12525,3.053097 -2.891771,6.106193 -5.299563,9.15929 -2.411825,3.053096 -3.613704,5.299565 -3.613704,6.747465 0,2.56912 -0.721934,3.85569 -2.169836,3.85569 -0.963924,0 -2.169836,-0.56061 -3.613705,-1.68586 -2.089173,0.16133 -3.698401,0.48398 -4.819617,0.96393 4.335639,5.46492 9.675533,9.72393 16.023715,12.77299 6.344149,3.0531 12.168022,5.62625 17.471612,7.71139 5.29957,2.08917 8.99393,4.73895 11.08311,7.95338 -2.41183,-0.32266 -4.85995,-1.04459 -7.34841,-2.16984 -2.49248,-1.12122 -4.21464,-1.68586 -5.1826,-1.68586 -0.6453,0 -2.2505,0.76227 -4.81961,2.2868 -2.573156,1.52857 -4.738959,2.29083 -6.50548,2.29083 -2.254532,0 -4.500998,-1.16155 -6.747464,-3.49271 -2.254532,-2.32713 -5.263264,-6.42481 -9.038294,-12.28901 -3.779064,-5.86421 -6.711166,-10.15952 -8.796306,-12.89399 -0.322652,0.16536 -0.963924,0.24199 -1.927847,0.24199 0,1.77055 -0.0847,4.02105 -0.241989,6.74746 -0.165359,2.73044 -0.241989,4.81962 -0.241989,6.26349 0,4.50099 0.600939,10.32487 1.806852,17.47161 1.205913,7.14675 1.806852,11.12747 1.806852,11.93007 0,7.39277 -1.528564,11.0831 -4.577628,11.0831 -1.770554,0 -3.456411,-2.24647 -5.061606,-6.74343 -1.605195,-4.49697 -2.407792,-8.51399 -2.407792,-12.04703 0,-1.60519 -3.94039,-7.79205 -11.809071,-18.55653 -8.675311,7.07415 -15.503438,10.60316 -20.484381,10.60316 -2.730444,0 -4.658291,-0.24199 -5.783541,-0.72194 10.760451,-5.46089 18.633165,-10.2805 23.614108,-14.45885 l -0.963923,-3.13376 2.169836,1.68586 c 2.89177,-2.41183 5.460888,-5.86421 7.711387,-10.36117 -1.605195,-0.15729 -3.129726,-1.12122 -4.577628,-2.89177 -0.165359,-0.16133 -0.120994,-0.43961 0.120995,-0.84293 0.241989,-0.39928 0.35895,-0.6816 0.35895,-0.84293 0,-0.31862 -1.169614,-1.84315 -3.49271,-4.577626 -2.331162,-2.726412 -4.819617,-5.739176 -7.469398,-9.034262 -2.649781,-3.295086 -4.287241,-5.598016 -4.928513,-6.880558 z m 29.639638,-0.967957 c -6.590171,1.286576 -12.611668,3.13376 -18.072556,5.545585 2.730444,2.734477 4.335639,4.500998 4.819617,5.299562 1.443869,-0.802597 3.734699,-1.40757 6.868459,-1.806852 3.133759,-0.399282 5.339894,-0.758233 6.626469,-1.084918 0,-0.802597 -0.04033,-2.08514 -0.120994,-3.855694 -0.0847,-1.766521 -0.120995,-3.129726 -0.120995,-4.097683 z m 0.479945,26.509913 c -0.322652,0 -0.923592,-0.0363 -1.806852,-0.121 -0.887294,-0.0807 -1.568896,-0.12099 -2.048842,-0.12099 -1.927846,3.37171 -5.384258,8.1147 -10.361168,14.21686 0.802597,0.80663 1.964145,2.16984 3.49271,4.09768 1.524531,1.92785 2.89177,3.41609 4.097683,4.45664 1.201879,1.04862 2.206134,1.56889 3.012765,1.56889 1.443868,-0.004 2.649781,-8.03404 3.613704,-24.09808 z M 63.614914,93.734502 c -5.460888,0.326685 -9.074593,0.963923 -10.841114,1.927847 1.121217,2.573151 2.488455,4.662321 4.097683,6.263481 0.802597,0.16536 2.00851,0.28233 3.613705,0.36299 1.605194,0.0847 2.730444,0.12099 3.371715,0.12099 0,-1.12121 -0.04033,-2.649778 -0.120994,-4.577625 -0.08066,-1.927847 -0.120995,-3.291052 -0.120995,-4.097683 z m 23.134163,-13.01095 c 0,-1.282542 -1.927847,-1.927847 -5.783541,-1.927847 -3.855694,0 -8.03404,0.564642 -12.531005,1.685858 -0.161326,1.125249 -0.28232,2.613483 -0.35895,4.460667 -0.0847,1.847183 -0.120995,3.093428 -0.120995,3.734699 2.246466,-0.322652 4.053318,-0.963924 5.420557,-1.927847 1.363206,-0.963924 2.928069,-1.447902 4.698623,-1.447902 0.641271,0 1.242211,0.165359 1.806852,0.483978 0.560608,0.326686 1.205913,0.806631 1.927847,1.447902 0.721934,0.641271 1.326907,1.12525 1.806852,1.443869 2.08514,-3.694368 3.13376,-6.344149 3.13376,-7.953377 z M 81.92946,92.048644 c -1.286576,-0.641271 -2.169836,-0.963923 -2.653815,-0.963923 -0.80663,0 -2.569118,0.322652 -5.299562,0.963923 -2.734478,0.641272 -4.662324,1.044587 -5.783541,1.20188 -0.165359,0.80663 -0.241989,2.169836 -0.241989,4.097683 0,1.927847 0.07663,3.456413 0.241989,4.577623 2.407792,0 5.380226,-0.39928 8.913267,-1.20187 0.483979,-0.64128 1.282543,-2.048846 2.411825,-4.218682 1.12525,-2.165803 1.927847,-3.650003 2.411826,-4.456634 z"
   style="stroke-width:4.03315" /><text
   xml:space="preserve"
   style="font-style:normal;font-variant:normal;font-weight:bold;font-stretch:normal;font-size:30px;line-height:1.25;font-family:Lato;-inkscape-font-specification:'Lato Bold'"
   x="112.99316"
   y="29.760742"
   id="text6639"><tspan
     sodipodi:role="line"
     id="tspan6637"
     x="112.99316"
     y="29.760742"
     style="font-style:normal;font-variant:normal;font-weight:bold;font-stretch:normal;font-family:'Liberation Mono';-inkscape-font-specification:'Liberation Mono Bold'">E</tspan></text></svg>
