<?xml version="1.0" encoding="UTF-8" standalone="no"?>
<!-- Generator: Adobe Illustrator 16.0.0, SVG Export Plug-In . SVG Version: 6.00 Build 0)  -->

<svg
   version="1.1"
   id="图层_1"
   x="0px"
   y="0px"
   width="139.76401"
   height="200"
   viewBox="0 0 139.764 200"
   enable-background="new 0 0 714 341"
   xml:space="preserve"
   sodipodi:docname="wind-4.svg"
   inkscape:version="1.2.2 (b0a8486, 2022-12-01)"
   xmlns:inkscape="http://www.inkscape.org/namespaces/inkscape"
   xmlns:sodipodi="http://sodipodi.sourceforge.net/DTD/sodipodi-0.dtd"
   xmlns="http://www.w3.org/2000/svg"
   xmlns:svg="http://www.w3.org/2000/svg"
   xmlns:rdf="http://www.w3.org/1999/02/22-rdf-syntax-ns#"
   xmlns:cc="http://creativecommons.org/ns#"
   xmlns:dc="http://purl.org/dc/elements/1.1/"><metadata
   id="metadata621"><rdf:RDF><cc:Work
       rdf:about=""><dc:format>image/svg+xml</dc:format><dc:type
         rdf:resource="http://purl.org/dc/dcmitype/StillImage" /><dc:title /></cc:Work></rdf:RDF></metadata><defs
   id="defs619" /><sodipodi:namedview
   pagecolor="#ffffff"
   bordercolor="#666666"
   borderopacity="1"
   objecttolerance="10"
   gridtolerance="10"
   guidetolerance="10"
   inkscape:pageopacity="0"
   inkscape:pageshadow="2"
   inkscape:window-width="1860"
   inkscape:window-height="1016"
   id="namedview617"
   showgrid="false"
   inkscape:zoom="1"
   inkscape:cx="-188"
   inkscape:cy="73.5"
   inkscape:window-x="1980"
   inkscape:window-y="27"
   inkscape:window-maximized="1"
   inkscape:current-layer="图层_1"
   inkscape:showpageshadow="2"
   inkscape:pagecheckerboard="0"
   inkscape:deskcolor="#d1d1d1" />



















































































































































































































































































































<path
   id="path2"
   d="m 139.76366,14.45914 v 171.08575 c 0,4.01307 -1.4076,7.42922 -4.21474,10.24038 C 132.73777,198.5924 129.32161,200 125.30854,200 H 14.45914 C 10.44204,200 7.02589,198.5924 4.21473,195.78527 1.40357,192.97411 0,189.55796 0,185.54489 V 14.45914 C 0,10.44608 1.40357,7.02993 4.21473,4.21876 7.02589,1.4076 10.43801,0 14.45914,0 h 110.84537 c 4.01307,0 7.42921,1.4076 10.24038,4.21876 2.81117,2.81117 4.21877,6.22329 4.21877,10.24038 z"
   inkscape:connector-curvature="0"
   style="fill:#ffffff;stroke-width:4.03323"
   sodipodi:nodetypes="sscsscsssssss" /><path
   inkscape:connector-curvature="0"
   id="path190"
   d="m 22.404166,139.76084 c 0,-1.28254 1.004255,-3.09343 3.012765,-5.42459 2.008509,-2.3231 4.577628,-6.26349 7.711387,-11.80504 3.13376,-5.54558 5.743209,-12.32935 7.832382,-20.36339 -5.626247,-3.694364 -8.675311,-7.550058 -9.159289,-11.567077 3.210389,1.447901 6.824094,2.411825 10.841114,2.89177 0.161326,-1.605195 0.641271,-3.13376 1.447902,-4.577628 0.479945,1.125249 0.802597,2.972433 0.963923,5.541551 4.496965,1.447902 6.747464,3.214423 6.747464,5.303596 0,2.250498 -2.573151,3.371718 -7.711387,3.371718 -0.963924,5.14227 -1.927847,9.75619 -2.891771,13.85791 -0.963923,4.09768 -1.649559,6.94912 -2.048841,8.55432 -0.403315,1.60519 -0.60094,2.73447 -0.60094,3.37171 0,1.28658 0.161326,2.16984 0.483978,2.64978 1.605195,-0.15729 4.537297,-1.56486 8.796306,-4.21464 4.254976,-2.65382 7.590393,-4.94061 9.998185,-6.86846 0.963923,-1.60116 1.443869,-5.06161 1.443869,-10.36117 0,-1.12525 -0.04033,-3.04906 -0.120995,-5.78354 -0.0847,-2.73044 -0.120995,-4.734921 -0.120995,-6.02553 0,-4.496965 -0.403315,-8.151001 -1.205912,-10.962108 -0.806631,-2.811108 -1.726189,-4.698623 -2.770776,-5.662546 -1.04862,-0.963924 -1.968178,-2.00851 -2.770776,-3.129727 -0.80663,-1.121216 -1.205912,-2.411825 -1.205912,-3.855694 0,-1.76652 0.641271,-3.291052 1.927847,-4.577628 2.569118,0.963924 5.25923,1.806853 8.070338,2.528787 2.807074,0.721934 4.658291,1.286576 5.541551,1.685858 0.879228,0.403315 1.806853,1.169614 2.770776,2.29083 0.963924,1.12525 1.766521,2.811108 2.411825,5.057574 -2.734477,1.76652 -4.420335,4.500998 -5.061606,8.191332 -0.645305,3.698401 -1.12525,12.047022 -1.443869,25.062012 1.601162,-0.96393 3.49271,-2.32713 5.662546,-4.09769 2.169836,-1.76652 3.654037,-2.88773 4.456634,-3.37171 0,-3.85569 0.322652,-8.630947 0.963923,-14.333825 0.641272,-5.702877 0.963924,-9.598902 0.963924,-11.688075 0,-1.282543 -0.0847,-2.448124 -0.241989,-3.492711 -0.161326,-1.044586 -0.403316,-1.93188 -0.721935,-2.653814 -0.326685,-0.721934 -0.600939,-1.359172 -0.842929,-1.927847 -0.241989,-0.560608 -0.645304,-1.084918 -1.205912,-1.564863 -0.564641,-0.483978 -0.963924,-0.842929 -1.205913,-1.084918 -0.241989,-0.241989 -0.721934,-0.560608 -1.443868,-0.963923 -0.725968,-0.399283 -1.169615,-0.67757 -1.326907,-0.842929 0.641271,-1.927847 1.4842,-3.573373 2.528786,-4.940612 1.044587,-1.363206 2.448124,-2.807074 4.218678,-4.335639 1.76652,-1.524532 3.129726,-2.851439 4.097683,-3.976688 1.443868,1.125249 3.412047,3.335417 5.904535,6.626469 2.488455,3.295086 3.734699,5.904535 3.734699,7.832382 0,0.645305 -0.443647,1.326907 -1.326907,2.048842 -0.883261,0.721934 -1.806852,1.443868 -2.770776,2.169836 -0.963923,0.725967 -1.891548,2.331162 -2.770776,4.819617 -0.88326,2.492488 -1.326907,5.662546 -1.326907,9.51824 v 13.974878 c 1.121217,-0.8026 2.649781,-1.76653 4.577628,-2.887742 1.927847,-1.121216 3.331384,-1.968178 4.214645,-2.528786 0.879227,-0.560609 1.685857,-1.447902 2.411825,-2.649782 0.721934,-1.205912 1.084918,-2.609449 1.084918,-4.218677 0,-0.318619 -0.04033,-0.641271 -0.120995,-0.963924 -0.0847,-0.322652 -0.120994,-0.641271 -0.120994,-0.963923 0.963923,-0.963923 2.649781,-1.443869 5.057573,-1.443869 2.250502,0 4.577632,0.762266 6.989452,2.286798 2.41183,1.528565 3.61371,3.335417 3.61371,5.420557 0,0.963923 -1.00426,1.685858 -3.01277,2.169836 -2.01254,0.483978 -5.38426,1.488233 -10.119179,3.012765 -4.738954,1.528567 -9.437577,3.734697 -14.095868,6.626467 v 1.92785 c 0,9.96189 0.879228,16.30603 2.649782,19.03648 1.76652,2.73448 5.78354,4.09768 12.047026,4.09768 3.210389,0 6.465139,-0.35895 9.760229,-1.08492 3.29105,-0.72193 5.50122,-1.08491 6.62647,-1.08491 2.08514,0 3.13376,0.80663 3.13376,2.40779 0,6.74746 -9.07863,10.11918 -27.227813,10.11918 -4.178346,0 -7.590393,-0.87923 -10.240175,-2.64978 -2.649781,-1.76652 -3.976688,-4.17835 -3.976688,-7.22741 0,-1.12122 0.0363,-2.52879 0.120995,-4.21465 0.08066,-1.68586 0.120994,-3.01276 0.120994,-3.97669 0,-1.76652 -0.120994,-4.05331 -0.35895,-6.86845 -0.24199,-2.81111 -0.362984,-4.85995 -0.362984,-6.14653 -3.053097,2.25453 -6.424812,4.98094 -10.11918,8.19537 0,0.6453 0.08066,1.44387 0.241989,2.41182 0.157293,0.96393 0.24199,1.76652 0.24199,2.40779 0,2.08918 -0.685636,3.89603 -2.048842,5.42056 -1.367239,1.52857 -2.528787,2.37149 -3.496743,2.52879 -0.479945,0 -1.044587,-0.27829 -1.685858,-0.84293 -0.645304,-0.56061 -0.963923,-1.16558 -0.963923,-1.80685 0,-0.8026 -0.564642,-1.92785 -1.685858,-3.37172 -3.053096,2.08917 -6.469177,4.90431 -10.240174,8.43332 -3.779064,3.53304 -7.070117,6.18686 -9.881224,7.95338 -2.811107,1.76652 -5.823872,2.64978 -9.034261,2.64978 -2.887738,-0.0121 -4.335639,-1.69796 -4.335639,-5.06967 z"
   style="stroke-width:4.03315" /><text
   xml:space="preserve"
   style="font-style:normal;font-variant:normal;font-weight:bold;font-stretch:normal;font-size:30px;line-height:1.25;font-family:Lato;-inkscape-font-specification:'Lato Bold'"
   x="113.02246"
   y="29.760742"
   id="text6639"><tspan
     sodipodi:role="line"
     id="tspan6637"
     x="113.02246"
     y="29.760742"
     style="font-style:normal;font-variant:normal;font-weight:bold;font-stretch:normal;font-family:'Liberation Mono';-inkscape-font-specification:'Liberation Mono Bold'">N</tspan></text></svg>
