<?xml version="1.0" encoding="UTF-8" standalone="no"?>
<!-- Generator: Adobe Illustrator 9.0, SVG Export Plug-In  -->

<!-- This set of SVG files is a complete cards game with figures, numbers	-->

<!--    and backs of cards completely designed in SVG.				-->

<!--    									-->

<!--    Copyright (C) 2004 David Bellot						-->

<!--										-->

<!--    This library is free software; you can redistribute it and/or		-->

<!--    modify it under the terms of the GNU Lesser General Public		-->

<!--    License as published by the Free Software Foundation; either		-->

<!--    version 2 of the License, or (at your option) any later version		-->

<!--										-->

<!--    This library is distributed in the hope that it will be useful,		-->

<!--    but WITHOUT ANY WARRANTY; without even the implied warranty of		-->

<!--    MERCHANTABILITY or FITNESS FOR A PARTICULAR PURPOSE.  See the GNU	-->

<!--    Lesser General Public License for more details.				-->

<!--										-->

<!--    You should have received a copy of the GNU Lesser General Public	-->

<!--    License along with this library; if not, write to the Free Software	-->

<!--    Foundation, Inc., 59 Temple Place, Suite 330, Boston, MA 02111-1307  USA-->

<!--										-->

<!--    Contact the author David Bellot at bellot@stat.berkeley.edu or 		-->

<!--    david.bellot@free.fr or yimyom@users.sourceforge.net			-->

<svg
   width="207.99998"
   height="300"
   viewBox="0 0 167.08642 240.26483"
   xml:space="preserve"
   id="svg2"
   sodipodi:version="0.32"
   inkscape:version="1.1 (c4e8f9e, 2021-05-24)"
   sodipodi:docname="diamonds-10.svg"
   inkscape:output_extension="org.inkscape.output.svg.inkscape"
   version="1.0"
   inkscape:export-filename="/home/damien/dev/perso/tabulous/apps/web/public/images/klondike/diamonds-10.png"
   inkscape:export-xdpi="83.199997"
   inkscape:export-ydpi="83.199997"
   xmlns:inkscape="http://www.inkscape.org/namespaces/inkscape"
   xmlns:sodipodi="http://sodipodi.sourceforge.net/DTD/sodipodi-0.dtd"
   xmlns:xlink="http://www.w3.org/1999/xlink"
   xmlns="http://www.w3.org/2000/svg"
   xmlns:svg="http://www.w3.org/2000/svg"
   xmlns:rdf="http://www.w3.org/1999/02/22-rdf-syntax-ns#"
   xmlns:cc="http://creativecommons.org/ns#"
   xmlns:dc="http://purl.org/dc/elements/1.1/"><metadata
   id="metadata90"><rdf:RDF><cc:Work
       rdf:about=""><dc:format>image/svg+xml</dc:format><dc:type
         rdf:resource="http://purl.org/dc/dcmitype/StillImage" /></cc:Work></rdf:RDF></metadata><defs
   id="defs88">
		
		
		
		
		
		
	</defs><sodipodi:namedview
   inkscape:window-height="1053"
   inkscape:window-width="1866"
   inkscape:pageshadow="2"
   inkscape:pageopacity="0.0"
   guidetolerance="10.0"
   gridtolerance="10.0"
   objecttolerance="10.0"
   borderopacity="1.0"
   bordercolor="#666666"
   pagecolor="#ffffff"
   id="base"
   inkscape:zoom="2.1201923"
   inkscape:cx="-143.85488"
   inkscape:cy="135.36508"
   inkscape:window-x="54"
   inkscape:window-y="-10"
   inkscape:current-layer="svg2"
   inkscape:showpageshadow="false"
   width="208px"
   height="303px"
   inkscape:pagecheckerboard="0"
   showgrid="false"
   fit-margin-top="0"
   fit-margin-left="0"
   fit-margin-right="0"
   fit-margin-bottom="0"
   inkscape:window-maximized="1"
   showguides="false" />
	
<g
   id="g39663"
   transform="matrix(0.999985,0,0,0.99008886,0.00124998,0.00123128)"
   style="stroke-width:1.005"><path
     id="path5"
     d="m 166.83643,235.89281 c 0,3.79171 -3.08594,6.8909 -6.87011,6.8909 H 7.1113279 C 3.3359375,242.78371 0.25,239.68452 0.25,235.89281 V 6.7746664 c 0,-3.78632 3.0859375,-6.89089651 6.8613279,-6.89089651 H 159.96632 c 3.78417,0 6.87011,3.10457651 6.87011,6.89089651 z"
     style="fill:#ffffff;fill-rule:nonzero;stroke:#000000;stroke-width:0.5025;stroke-miterlimit:4" /><g
     style="fill:#e61408;fill-opacity:1;fill-rule:nonzero;stroke:none;stroke-width:1.005;stroke-miterlimit:4"
     id="g5885"
     transform="translate(-2.9317596,-0.1274412)">
			<path
   d="m 12.743164,25.998535 v -1.46875 h 1.5 V 9.9316406 l -1.6875,2.2236324 v -1.800781 l 2.02832,-2.7309569 h 1.69043 V 24.529785 h 1.53125 v 1.46875 z"
   id="path5887"
   style="fill:#e61408;fill-opacity:1;stroke-width:1.005" />
			<path
   d="m 22.730469,26.342285 c -1.079102,0 -1.904297,-0.803222 -2.476563,-2.410644 -0.572265,-1.606934 -0.857422,-3.920899 -0.857422,-6.942383 0,-3.020996 0.285157,-5.337402 0.857422,-6.948731 0.572266,-1.6113278 1.397461,-2.4169918 2.476563,-2.4169918 1.071289,0 1.892578,0.8056641 2.464844,2.4169918 0.571289,1.611328 0.857422,3.927735 0.857422,6.948731 0,3.021484 -0.286133,5.335449 -0.857422,6.942383 -0.572266,1.607422 -1.393555,2.410644 -2.464844,2.410644 z m 0,-1.40625 c 0.43164,0 0.728515,-0.439453 0.890625,-1.318359 0.162109,-0.878906 0.24414,-3.088379 0.24414,-6.628906 0,-3.515625 -0.08203,-5.720704 -0.24414,-6.616211 -0.16211,-0.8950199 -0.458985,-1.3427738 -0.890625,-1.3427738 -0.439453,0 -0.740235,0.4394531 -0.902344,1.3183598 -0.163086,0.878906 -0.244141,3.092773 -0.244141,6.640625 0,3.540527 0.08105,5.75 0.244141,6.628906 0.162109,0.878906 0.462891,1.318359 0.902344,1.318359 z"
   id="path5889"
   style="fill:#e61408;fill-opacity:1;stroke-width:1.005" />
		</g><g
     style="fill:#e61408;fill-opacity:1;fill-rule:nonzero;stroke:none;stroke-width:1.005;stroke-miterlimit:4"
     id="g5891"
     transform="translate(3.2594001,0.2172862)">
			<path
   d="m 154.01611,216.5791 v 1.46875 h -1.5 v 14.59863 l 1.6875,-2.22363 v 1.80078 l -2.02929,2.73047 h -1.68946 v -16.90625 h -1.53125 v -1.46875 z"
   id="path5893"
   style="fill:#e61408;fill-opacity:1;stroke-width:1.005" />
			<path
   d="m 144.02783,216.23535 c 1.08008,0 1.90625,0.80371 2.47656,2.41113 0.57227,1.60645 0.85743,3.9209 0.85743,6.94239 0,3.02148 -0.28516,5.33789 -0.85743,6.94922 -0.57031,1.61132 -1.39648,2.41601 -2.47656,2.41601 -1.07031,0 -1.89258,-0.80469 -2.46289,-2.41601 -0.57226,-1.61133 -0.85937,-3.92774 -0.85937,-6.94922 0,-3.02149 0.28711,-5.33594 0.85937,-6.94239 0.57031,-1.60742 1.39258,-2.41113 2.46289,-2.41113 z m 0,1.40625 c -0.42969,0 -0.72656,0.43945 -0.89062,1.31836 -0.16211,0.87891 -0.24414,3.08887 -0.24414,6.62891 0,3.51562 0.082,5.7207 0.24414,6.61718 0.16406,0.89454 0.46093,1.3418 0.89062,1.3418 0.43946,0 0.74024,-0.43945 0.9043,-1.31836 0.16211,-0.8789 0.24219,-3.09179 0.24219,-6.64062 0,-3.54004 -0.0801,-5.75 -0.24219,-6.62891 -0.16406,-0.87891 -0.46484,-1.31836 -0.9043,-1.31836 z"
   id="path5895"
   style="fill:#e61408;fill-opacity:1;stroke-width:1.005" />
		</g><path
     style="fill:#e61408;fill-opacity:1;stroke:none;stroke-width:1.5075;stroke-linecap:round;stroke-linejoin:round;stroke-miterlimit:4;stroke-dasharray:none;stroke-opacity:1"
     d="m 47.73765,13.605876 c -0.02612,0.89581 -0.55775,4.25531 -6.3511,9.81532 -5.57566,5.35112 -8.17932,5.99351 -8.96181,6.04986 0.78249,0.05634 3.38615,0.69875 8.96181,6.049851 5.79335,5.56001 6.32498,8.9195 6.3511,9.81532 0.02612,-0.89581 0.55774,-4.2553 6.351086,-9.81532 5.575672,-5.351111 8.179323,-5.993521 8.961817,-6.049851 -0.782494,-0.05634 -3.386144,-0.69875 -8.961817,-6.04986 -5.793346,-5.56 -6.324966,-8.919499 -6.351086,-9.81532 z"
     id="path2243" /><path
     id="path3230"
     d="m 16.37244,29.718758 c -0.0079,0.269356 -0.16771,1.279506 -1.90968,2.951315 -1.67651,1.609 -2.45939,1.802156 -2.69468,1.8191 0.23529,0.01694 1.01817,0.210103 2.69468,1.819097 1.74197,1.671809 1.90183,2.681956 1.90968,2.951315 0.0078,-0.269356 0.16771,-1.279503 1.90968,-2.951315 1.67651,-1.608997 2.45939,-1.802159 2.69468,-1.819097 -0.23529,-0.01694 -1.01817,-0.210103 -2.69468,-1.8191 -1.74197,-1.671806 -1.90183,-2.681956 -1.90968,-2.951315 z"
     style="fill:#e61408;fill-opacity:1;stroke:none;stroke-width:1.5075;stroke-linecap:round;stroke-linejoin:round;stroke-miterlimit:4;stroke-dasharray:none;stroke-opacity:1" /><use
     x="0"
     y="0"
     xlink:href="#path3230"
     id="use3238"
     transform="translate(134.34155,173.58212)"
     width="167.08643"
     height="242.66748"
     style="stroke-width:1.005" /><path
     id="use2206"
     d="m 118.40805,13.605877 c -0.0261,0.89581 -0.55775,4.25531 -6.3511,9.81532 -5.57566,5.35112 -8.17932,5.99351 -8.96181,6.04986 0.78249,0.05634 3.38615,0.69875 8.96181,6.049851 5.79335,5.56001 6.32498,8.9195 6.3511,9.81532 0.0261,-0.89581 0.55774,-4.2553 6.35109,-9.81532 5.57567,-5.351111 8.17932,-5.993521 8.96181,-6.049851 -0.78249,-0.05634 -3.38614,-0.69875 -8.96181,-6.04986 -5.79335,-5.56 -6.32497,-8.9195 -6.35109,-9.81532 z"
     style="fill:#e61408;fill-opacity:1;stroke:none;stroke-width:1.5075;stroke-linecap:round;stroke-linejoin:round;stroke-miterlimit:4;stroke-dasharray:none;stroke-opacity:1" /><use
     x="0"
     y="0"
     xlink:href="#use2206"
     id="use2208"
     transform="translate(-34.864834,30.617195)"
     width="167.08643"
     height="242.66748"
     style="stroke-width:1.005" /><use
     x="0"
     y="0"
     xlink:href="#use2208"
     id="use2210"
     transform="translate(-35.805569,30.617196)"
     width="167.08643"
     height="242.66748"
     style="stroke-width:1.005" /><use
     x="0"
     y="0"
     xlink:href="#use2210"
     id="use2212"
     transform="translate(70.6704)"
     width="167.08643"
     height="242.66748"
     style="stroke-width:1.005" /><use
     x="0"
     y="0"
     xlink:href="#use2212"
     id="use2214"
     transform="translate(-70.670404,61.23439)"
     width="167.08643"
     height="242.66748"
     style="stroke-width:1.005" /><use
     x="0"
     y="0"
     xlink:href="#use2214"
     id="use2216"
     transform="translate(69.4683)"
     width="167.08643"
     height="242.66748"
     style="stroke-width:1.005" /><use
     x="0"
     y="0"
     xlink:href="#use2216"
     id="use2218"
     transform="translate(-33.662731,30.61719)"
     width="167.08643"
     height="242.66748"
     style="stroke-width:1.005" /><use
     x="0"
     y="0"
     xlink:href="#use2218"
     id="use2220"
     transform="translate(-35.805569,30.617196)"
     width="167.08643"
     height="242.66748"
     style="stroke-width:1.005" /><use
     x="0"
     y="0"
     xlink:href="#use2220"
     id="use2222"
     transform="translate(70.6704)"
     width="167.08643"
     height="242.66748"
     style="stroke-width:1.005" /></g></svg>
