<?xml version="1.0" encoding="UTF-8" standalone="no"?>
<!-- Generator: Adobe Illustrator 9.0, SVG Export Plug-In  -->

<!-- This set of SVG files is a complete cards game with figures, numbers	-->

<!--    and backs of cards completely designed in SVG.				-->

<!--    									-->

<!--    Copyright (C) 2004 David Bellot						-->

<!--										-->

<!--    This library is free software; you can redistribute it and/or		-->

<!--    modify it under the terms of the GNU Lesser General Public		-->

<!--    License as published by the Free Software Foundation; either		-->

<!--    version 2 of the License, or (at your option) any later version		-->

<!--										-->

<!--    This library is distributed in the hope that it will be useful,		-->

<!--    but WITHOUT ANY WARRANTY; without even the implied warranty of		-->

<!--    MERCHANTABILITY or FITNESS FOR A PARTICULAR PURPOSE.  See the GNU	-->

<!--    Lesser General Public License for more details.				-->

<!--										-->

<!--    You should have received a copy of the GNU Lesser General Public	-->

<!--    License along with this library; if not, write to the Free Software	-->

<!--    Foundation, Inc., 59 Temple Place, Suite 330, Boston, MA 02111-1307  USA-->

<!--										-->

<!--    Contact the author David Bellot at bellot@stat.berkeley.edu or 		-->

<!--    david.bellot@free.fr or yimyom@users.sourceforge.net			-->

<svg
   width="208"
   height="300"
   viewBox="0 0 167.08643 240.26483"
   xml:space="preserve"
   id="svg2"
   sodipodi:version="0.32"
   inkscape:version="1.1 (c4e8f9e, 2021-05-24)"
   sodipodi:docname="spades-1.svg"
   inkscape:output_extension="org.inkscape.output.svg.inkscape"
   version="1.0"
   inkscape:export-filename="/home/damien/dev/perso/tabulous/apps/web/public/images/klondike/spades-1.png"
   inkscape:export-xdpi="83.199997"
   inkscape:export-ydpi="83.199997"
   xmlns:inkscape="http://www.inkscape.org/namespaces/inkscape"
   xmlns:sodipodi="http://sodipodi.sourceforge.net/DTD/sodipodi-0.dtd"
   xmlns:xlink="http://www.w3.org/1999/xlink"
   xmlns="http://www.w3.org/2000/svg"
   xmlns:svg="http://www.w3.org/2000/svg"
   xmlns:rdf="http://www.w3.org/1999/02/22-rdf-syntax-ns#"
   xmlns:cc="http://creativecommons.org/ns#"
   xmlns:dc="http://purl.org/dc/elements/1.1/"><metadata
   id="metadata90"><rdf:RDF><cc:Work
       rdf:about=""><dc:format>image/svg+xml</dc:format><dc:type
         rdf:resource="http://purl.org/dc/dcmitype/StillImage" /></cc:Work></rdf:RDF></metadata><defs
   id="defs88">
		
		
		
		
		
		
	</defs><sodipodi:namedview
   inkscape:window-height="1053"
   inkscape:window-width="1866"
   inkscape:pageshadow="2"
   inkscape:pageopacity="0.0"
   guidetolerance="10.0"
   gridtolerance="10.0"
   objecttolerance="10.0"
   borderopacity="1.0"
   bordercolor="#666666"
   pagecolor="#ffffff"
   id="base"
   inkscape:zoom="2.1201923"
   inkscape:cx="-86.784581"
   inkscape:cy="175.45578"
   inkscape:window-x="54"
   inkscape:window-y="-10"
   inkscape:current-layer="svg2"
   inkscape:showpageshadow="false"
   width="208px"
   height="303px"
   inkscape:pagecheckerboard="0"
   showgrid="false"
   fit-margin-top="0"
   fit-margin-left="0"
   fit-margin-right="0"
   fit-margin-bottom="0"
   inkscape:window-maximized="1"
   showguides="false" />
	
<path
   id="path5"
   d="m 166.83643,233.55491 c 0,3.75409 -3.08594,6.82253 -6.87011,6.82253 H 7.11133 C 3.33594,240.37744 0.25,237.309 0.25,233.55491 V 6.7099223 c 0,-3.74876 3.08594,-6.82252899 6.86133,-6.82252899 h 152.85499 c 3.78417,0 6.87011,3.07376899 6.87011,6.82252899 z"
   style="fill:#ffffff;fill-rule:nonzero;stroke:#000000;stroke-width:0.5;stroke-miterlimit:4" /><g
   style="fill-rule:nonzero;stroke:#000000;stroke-width:1.005;stroke-miterlimit:4"
   id="g2192"
   transform="matrix(1,0,0,0.99007864,0.99402,0.21615331)">
			<path
   style="stroke:none;stroke-width:1.005"
   d="m 10.987793,25.827148 v -1.46875 h 0.661621 L 14.682129,7.7958984 h 1.280762 l 3.044921,16.5624996 h 0.761231 v 1.46875 h -3.77002 v -1.46875 h 0.785645 l -0.664551,-3.6875 h -3.020996 l -0.676269,3.6875 h 0.966308 v 1.46875 z m 2.377441,-6.625 h 2.48877 l -1.232422,-6.884765 z"
   id="path2194" />
		</g><g
   style="fill-rule:nonzero;stroke:#000000;stroke-width:1.005;stroke-miterlimit:4"
   id="g2196"
   transform="matrix(1,0,0,0.99007864,-0.40612,0.21566331)">
			<path
   style="stroke:none;stroke-width:1.005"
   d="m 155.51074,216.40918 v 1.46875 h -0.66113 l -3.0332,16.5625 h -1.28125 l -3.04493,-16.5625 h -0.76074 v -1.46875 H 150.5 v 1.46875 h -0.78613 l 0.66504,3.6875 h 3.0205 l 0.67676,-3.6875 h -0.96679 v -1.46875 z m -2.37793,6.625 h -2.48828 l 1.23242,6.88477 z"
   id="path2198" />
		</g><path
   style="fill-rule:nonzero;stroke:none;stroke-width:1;stroke-miterlimit:4"
   d="m 83.54322,103.76601 c -3.18458,5.67459 -14.03719,10.87323 -14.05776,18.04406 -0.01,3.38598 3.14607,6.1141 7.02888,6.1141 2.47351,0 4.67144,-1.09908 5.92434,-2.78366 -0.52343,4.87552 -1.92739,10.32441 -7.05398,11.35832 h 8.15852 8.15851 c -5.12658,-1.03391 -6.53055,-6.4828 -7.05398,-11.35832 1.25291,1.68458 3.45083,2.78366 5.92434,2.78366 3.88282,0 7.03859,-2.72812 7.02888,-6.1141 -0.0206,-7.17083 -10.87318,-12.36947 -14.05775,-18.04406 z"
   id="path2254"
   sodipodi:nodetypes="csscccccssc" /><path
   id="path2273"
   d="m 16.37244,29.033512 c -0.95724,1.7057 -4.21646,3.26835 -4.22557,5.42379 0,1.01779 0.94567,1.83782 2.11279,1.83782 0.7435,0 1.40417,-0.33037 1.78077,-0.83673 -0.15733,1.46551 -0.57935,3.10337 -2.12033,3.41415 h 2.45234 2.45234 c -1.54098,-0.31078 -1.963,-1.94864 -2.12033,-3.41415 0.3766,0.50636 1.03727,0.83673 1.78077,0.83673 1.16712,0 2.11279,-0.82003 2.11279,-1.83782 -0.009,-2.15544 -3.26833,-3.71809 -4.22557,-5.42379 z"
   style="fill-rule:nonzero;stroke:none;stroke-width:1;stroke-miterlimit:4" /><use
   x="0"
   y="0"
   xlink:href="#path2273"
   id="use2277"
   transform="matrix(1,0,0,-1,134.34155,239.96245)"
   width="167.08643"
   height="242.66748"
   style="stroke-width:1.005" /></svg>
