<?xml version="1.0" encoding="UTF-8" standalone="no"?>
<!-- Generator: Adobe Illustrator 9.0, SVG Export Plug-In  -->

<!-- This set of SVG files is a complete cards game with figures, numbers	-->

<!--    and backs of cards completely designed in SVG.				-->

<!--    									-->

<!--    Copyright (C) 2004 David Bellot						-->

<!--										-->

<!--    This library is free software; you can redistribute it and/or		-->

<!--    modify it under the terms of the GNU Lesser General Public		-->

<!--    License as published by the Free Software Foundation; either		-->

<!--    version 2 of the License, or (at your option) any later version		-->

<!--										-->

<!--    This library is distributed in the hope that it will be useful,		-->

<!--    but WITHOUT ANY WARRANTY; without even the implied warranty of		-->

<!--    MERCHANTABILITY or FITNESS FOR A PARTICULAR PURPOSE.  See the GNU	-->

<!--    Lesser General Public License for more details.				-->

<!--										-->

<!--    You should have received a copy of the GNU Lesser General Public	-->

<!--    License along with this library; if not, write to the Free Software	-->

<!--    Foundation, Inc., 59 Temple Place, Suite 330, Boston, MA 02111-1307  USA-->

<!--										-->

<!--    Contact the author David Bellot at bellot@stat.berkeley.edu or 		-->

<!--    david.bellot@free.fr or yimyom@users.sourceforge.net			-->

<svg
   width="208"
   height="300"
   viewBox="0 0 167.08643 240.26483"
   xml:space="preserve"
   id="svg2"
   sodipodi:version="0.32"
   inkscape:version="1.1 (c4e8f9e, 2021-05-24)"
   sodipodi:docname="hearts-10.svg"
   inkscape:output_extension="org.inkscape.output.svg.inkscape"
   version="1.0"
   inkscape:export-filename="/home/damien/dev/perso/tabulous/apps/web/public/images/klondike/hearts-10.png"
   inkscape:export-xdpi="83.199997"
   inkscape:export-ydpi="83.199997"
   xmlns:inkscape="http://www.inkscape.org/namespaces/inkscape"
   xmlns:sodipodi="http://sodipodi.sourceforge.net/DTD/sodipodi-0.dtd"
   xmlns:xlink="http://www.w3.org/1999/xlink"
   xmlns="http://www.w3.org/2000/svg"
   xmlns:svg="http://www.w3.org/2000/svg"
   xmlns:rdf="http://www.w3.org/1999/02/22-rdf-syntax-ns#"
   xmlns:cc="http://creativecommons.org/ns#"
   xmlns:dc="http://purl.org/dc/elements/1.1/"><metadata
   id="metadata90"><rdf:RDF><cc:Work
       rdf:about=""><dc:format>image/svg+xml</dc:format><dc:type
         rdf:resource="http://purl.org/dc/dcmitype/StillImage" /></cc:Work></rdf:RDF></metadata><defs
   id="defs88">
		
		
		
		
		
		
	</defs><sodipodi:namedview
   inkscape:window-height="1053"
   inkscape:window-width="1866"
   inkscape:pageshadow="2"
   inkscape:pageopacity="0.0"
   guidetolerance="10.0"
   gridtolerance="10.0"
   objecttolerance="10.0"
   borderopacity="1.0"
   bordercolor="#666666"
   pagecolor="#ffffff"
   id="base"
   inkscape:zoom="2.1201923"
   inkscape:cx="46.693878"
   inkscape:cy="152.81633"
   inkscape:window-x="54"
   inkscape:window-y="-10"
   inkscape:current-layer="svg2"
   inkscape:showpageshadow="false"
   width="208px"
   height="303px"
   inkscape:pagecheckerboard="0"
   showgrid="false"
   fit-margin-top="0"
   fit-margin-left="0"
   fit-margin-right="0"
   fit-margin-bottom="0"
   inkscape:window-maximized="1"
   showguides="false" />
	
<path
   stroke="#000000"
   stroke-width="0.5"
   d="m 166.83518,6.7087261 c 0,-3.7541046 -3.09,-6.82257545 -6.87001,-6.82257545 l -152.8502115,3.96e-5 c -3.7837053,0 -6.86370964,3.06847085 -6.86370964,6.82257545 l 3e-5,226.8482343 c 0,3.75242 3.08000434,6.82168 6.86000964,6.82168 H 159.9615 c 3.78001,0 6.87001,-3.06926 6.87001,-6.82168 V 6.7087657 v 0.00673 z"
   fill="#ffffff"
   id="path70608" /><g
   id="a"
   style="fill:#e61408;stroke-width:1.00499"
   transform="matrix(1.0000014,0,0,0.99008481,-0.0050515,0.01238646)"><path
     id="b"
     fill="#e61408"
     d="m 39.868,13.33 c -4.308,0.009 -7.811,3.691 -7.782,8.208 0.06,9.58 12.092,16.508 15.639,24.074 3.547,-7.566 15.604,-14.494 15.664,-24.074 0.029,-4.517 -3.474,-8.199 -7.782,-8.208 -4.307,-0.009 -7.869,3.657 -7.882,8.183 -0.013,-4.526 -3.55,-8.192 -7.857,-8.183 z"
     style="stroke-width:1.01001" /><use
     xlink:href="#b"
     transform="translate(0,61.236)"
     id="use70611"
     x="0"
     y="0"
     width="100%"
     height="100%"
     style="stroke-width:1.00499" /></g><use
   xlink:href="#a"
   transform="matrix(-1,0,0,1,167.08013,0)"
   id="use70614"
   x="0"
   y="0"
   width="100%"
   height="100%"
   style="fill:#e61408;stroke-width:1.00499" /><text
   transform="scale(0.67507907,1.481308)"
   style="letter-spacing:-0.819145px;fill:#e61408;stroke-width:1.01001"
   font-family="'DejaVu Serif'"
   font-size="16.599px"
   y="17.296915"
   x="12.248487"
   font-weight="bold"
   id="text70616">10</text><use
   xlink:href="#b"
   transform="matrix(0.29991042,0,0,0.2977086,2.0502514,25.189253)"
   id="use70618"
   x="0"
   y="0"
   width="100%"
   height="100%"
   style="fill:#e61408;stroke-width:1.00499" /><use
   xlink:href="#b"
   transform="matrix(1.0000014,0,0,0.99008481,35.800999,30.325813)"
   id="use70620"
   x="0"
   y="0"
   width="100%"
   height="100%"
   style="fill:#e61408;stroke-width:1.00499" /><g
   id="use70623"
   fill="#e61408"
   style="stroke-width:1.01001"
   transform="matrix(-1.0000014,0,0,-0.99008481,167.08518,240.26637)"><g
     id="g846"
     style="fill:#e61408;stroke-width:1.00499"
     transform="matrix(1.0000014,0,0,0.99008481,-0.0050515,0.01238646)"><path
       id="path842"
       fill="#e61408"
       d="m 39.868,13.33 c -4.308,0.009 -7.811,3.691 -7.782,8.208 0.06,9.58 12.092,16.508 15.639,24.074 3.547,-7.566 15.604,-14.494 15.664,-24.074 0.029,-4.517 -3.474,-8.199 -7.782,-8.208 -4.307,-0.009 -7.869,3.657 -7.882,8.183 -0.013,-4.526 -3.55,-8.192 -7.857,-8.183 z"
       style="stroke-width:1.01001" /><use
       xlink:href="#b"
       transform="translate(0,61.236)"
       id="use844"
       x="0"
       y="0"
       width="100%"
       height="100%"
       style="stroke-width:1.00499" /></g><use
     xlink:href="#a"
     transform="matrix(-1,0,0,1,167.08013,0)"
     id="use848"
     x="0"
     y="0"
     width="100%"
     height="100%"
     style="fill:#e61408;stroke-width:1.00499" /><text
     transform="matrix(0.67172094,0,0,1.4739393,-0.0050515,0.01238646)"
     style="letter-spacing:-0.82324px;fill:#e61408;stroke-width:1.01506"
     font-family="'DejaVu Serif'"
     font-size="16.682px"
     y="17.374985"
     x="12.317241"
     font-weight="bold"
     id="text850">10</text><use
     xlink:href="#b"
     transform="matrix(0.29991042,0,0,0.2977086,2.0502514,25.189253)"
     id="use852"
     x="0"
     y="0"
     width="100%"
     height="100%"
     style="fill:#e61408;stroke-width:1.00499" /><use
     xlink:href="#b"
     transform="matrix(1.0000014,0,0,0.99008481,35.800999,30.325813)"
     id="use854"
     x="0"
     y="0"
     width="100%"
     height="100%"
     style="fill:#e61408;stroke-width:1.00499" /></g></svg>
